%TF.GenerationSoftware,KiCad,Pcbnew,8.0.2-1*%
%TF.CreationDate,2024-05-31T20:19:27-04:00*%
%TF.ProjectId,ez-servo,657a2d73-6572-4766-9f2e-6b696361645f,rev?*%
%TF.SameCoordinates,Original*%
%TF.FileFunction,Copper,L2,Inr*%
%TF.FilePolarity,Positive*%
%FSLAX46Y46*%
G04 Gerber Fmt 4.6, Leading zero omitted, Abs format (unit mm)*
G04 Created by KiCad (PCBNEW 8.0.2-1) date 2024-05-31 20:19:27*
%MOMM*%
%LPD*%
G01*
G04 APERTURE LIST*
%TA.AperFunction,ComponentPad*%
%ADD10C,0.600000*%
%TD*%
%TA.AperFunction,ComponentPad*%
%ADD11R,1.700000X1.700000*%
%TD*%
%TA.AperFunction,ComponentPad*%
%ADD12O,1.700000X1.700000*%
%TD*%
%TA.AperFunction,ViaPad*%
%ADD13C,0.600000*%
%TD*%
G04 APERTURE END LIST*
D10*
%TO.N,GND*%
%TO.C,U1*%
X29300000Y-34830000D03*
X29300000Y-36030000D03*
X29300000Y-37330000D03*
X29300000Y-38430000D03*
X30500000Y-34830000D03*
X30500000Y-36030000D03*
X30500000Y-37330000D03*
X30500000Y-38430000D03*
%TD*%
D11*
%TO.N,SERVO_PWM*%
%TO.C,J2*%
X29150000Y-26850000D03*
D12*
%TO.N,VOUT*%
X29150000Y-29390000D03*
%TO.N,GND*%
X29150000Y-31930000D03*
%TD*%
D11*
%TO.N,8_4V*%
%TO.C,J3*%
X43200000Y-35930000D03*
D12*
%TO.N,SENSE*%
X40660000Y-35930000D03*
%TO.N,6V*%
X38120000Y-35930000D03*
%TD*%
D13*
%TO.N,GND*%
X35000000Y-38100000D03*
X40300000Y-39300000D03*
X35680000Y-26720000D03*
X34000000Y-38100000D03*
X40300000Y-38600000D03*
X36000000Y-38100000D03*
X37000000Y-38100000D03*
X33070000Y-26700000D03*
%TO.N,SENSE*%
X26170000Y-38030000D03*
%TO.N,Net-(C2-Pad2)*%
X41251472Y-32849532D03*
%TO.N,Net-(U1-BOOT)*%
X26170000Y-34470000D03*
%TO.N,+24V*%
X42300000Y-38600000D03*
X42300000Y-39300000D03*
X33915000Y-35765000D03*
%TD*%
%TA.AperFunction,Conductor*%
%TO.N,+24V*%
G36*
X43015000Y-39922185D02*
G01*
X43014500Y-39929815D01*
X43014500Y-43876000D01*
X42994815Y-43943039D01*
X42942011Y-43988794D01*
X42890500Y-44000000D01*
X41639000Y-44000000D01*
X41571961Y-43980315D01*
X41526206Y-43927511D01*
X41515000Y-43876000D01*
X41515000Y-39390000D01*
X43015000Y-39390000D01*
X43015000Y-39922185D01*
G37*
%TD.AperFunction*%
%TD*%
%TA.AperFunction,Conductor*%
%TO.N,+24V*%
G36*
X27868038Y-25520185D02*
G01*
X27913793Y-25572989D01*
X27923737Y-25642147D01*
X27900265Y-25698810D01*
X27880238Y-25725562D01*
X27856204Y-25757668D01*
X27856202Y-25757671D01*
X27805908Y-25892517D01*
X27803531Y-25914631D01*
X27799501Y-25952123D01*
X27799500Y-25952135D01*
X27799500Y-27747870D01*
X27799501Y-27747876D01*
X27805908Y-27807483D01*
X27856202Y-27942328D01*
X27856206Y-27942335D01*
X27942452Y-28057544D01*
X27942455Y-28057547D01*
X28057664Y-28143793D01*
X28057671Y-28143797D01*
X28189081Y-28192810D01*
X28245015Y-28234681D01*
X28269432Y-28300145D01*
X28254580Y-28368418D01*
X28233430Y-28396673D01*
X28111503Y-28518600D01*
X27975965Y-28712169D01*
X27975964Y-28712171D01*
X27876098Y-28926335D01*
X27876094Y-28926344D01*
X27814938Y-29154586D01*
X27814936Y-29154596D01*
X27794341Y-29389999D01*
X27794341Y-29390000D01*
X27814936Y-29625403D01*
X27814938Y-29625413D01*
X27876094Y-29853655D01*
X27876096Y-29853659D01*
X27876097Y-29853663D01*
X27975965Y-30067830D01*
X27975967Y-30067834D01*
X28111501Y-30261395D01*
X28111506Y-30261402D01*
X28278597Y-30428493D01*
X28278603Y-30428498D01*
X28464158Y-30558425D01*
X28507783Y-30613002D01*
X28514977Y-30682500D01*
X28483454Y-30744855D01*
X28464158Y-30761575D01*
X28278597Y-30891505D01*
X28111505Y-31058597D01*
X27975965Y-31252169D01*
X27975964Y-31252171D01*
X27876098Y-31466335D01*
X27876094Y-31466344D01*
X27814938Y-31694586D01*
X27814936Y-31694596D01*
X27794341Y-31929999D01*
X27794341Y-31930000D01*
X27814936Y-32165403D01*
X27814938Y-32165413D01*
X27876094Y-32393655D01*
X27876096Y-32393659D01*
X27876097Y-32393663D01*
X27925687Y-32500008D01*
X27975965Y-32607830D01*
X27975967Y-32607834D01*
X28019694Y-32670282D01*
X28111505Y-32801401D01*
X28278599Y-32968495D01*
X28364696Y-33028781D01*
X28472165Y-33104032D01*
X28472167Y-33104033D01*
X28472170Y-33104035D01*
X28686337Y-33203903D01*
X28914592Y-33265063D01*
X29102918Y-33281539D01*
X29149999Y-33285659D01*
X29150000Y-33285659D01*
X29150001Y-33285659D01*
X29189234Y-33282226D01*
X29385408Y-33265063D01*
X29613663Y-33203903D01*
X29827830Y-33104035D01*
X30021401Y-32968495D01*
X30140368Y-32849528D01*
X40445907Y-32849528D01*
X40445907Y-32849535D01*
X40466102Y-33028781D01*
X40466103Y-33028786D01*
X40525683Y-33199055D01*
X40621656Y-33351794D01*
X40749210Y-33479348D01*
X40901950Y-33575321D01*
X41072217Y-33634900D01*
X41072222Y-33634901D01*
X41251468Y-33655097D01*
X41251472Y-33655097D01*
X41251476Y-33655097D01*
X41430721Y-33634901D01*
X41430724Y-33634900D01*
X41430727Y-33634900D01*
X41600994Y-33575321D01*
X41753734Y-33479348D01*
X41881288Y-33351794D01*
X41977261Y-33199054D01*
X42036840Y-33028787D01*
X42043633Y-32968498D01*
X42057037Y-32849535D01*
X42057037Y-32849528D01*
X42036841Y-32670282D01*
X42036840Y-32670277D01*
X41977260Y-32500008D01*
X41910439Y-32393663D01*
X41881288Y-32347270D01*
X41753734Y-32219716D01*
X41600995Y-32123743D01*
X41430726Y-32064163D01*
X41430721Y-32064162D01*
X41251476Y-32043967D01*
X41251468Y-32043967D01*
X41072222Y-32064162D01*
X41072217Y-32064163D01*
X40901948Y-32123743D01*
X40749209Y-32219716D01*
X40621656Y-32347269D01*
X40525683Y-32500008D01*
X40466103Y-32670277D01*
X40466102Y-32670282D01*
X40445907Y-32849528D01*
X30140368Y-32849528D01*
X30188495Y-32801401D01*
X30324035Y-32607830D01*
X30423903Y-32393663D01*
X30485063Y-32165408D01*
X30505659Y-31930000D01*
X30485063Y-31694592D01*
X30423903Y-31466337D01*
X30324035Y-31252171D01*
X30188495Y-31058599D01*
X30188494Y-31058597D01*
X30021402Y-30891506D01*
X30021396Y-30891501D01*
X29835842Y-30761575D01*
X29792217Y-30706998D01*
X29785023Y-30637500D01*
X29816546Y-30575145D01*
X29835842Y-30558425D01*
X29858026Y-30542891D01*
X30021401Y-30428495D01*
X30188495Y-30261401D01*
X30324035Y-30067830D01*
X30423903Y-29853663D01*
X30485063Y-29625408D01*
X30505659Y-29390000D01*
X30485063Y-29154592D01*
X30423903Y-28926337D01*
X30324035Y-28712171D01*
X30188495Y-28518599D01*
X30066567Y-28396671D01*
X30033084Y-28335351D01*
X30038068Y-28265659D01*
X30079939Y-28209725D01*
X30110915Y-28192810D01*
X30242331Y-28143796D01*
X30357546Y-28057546D01*
X30443796Y-27942331D01*
X30494091Y-27807483D01*
X30500500Y-27747873D01*
X30500499Y-26699996D01*
X32264435Y-26699996D01*
X32264435Y-26700003D01*
X32284630Y-26879249D01*
X32284631Y-26879254D01*
X32344211Y-27049523D01*
X32356778Y-27069523D01*
X32440184Y-27202262D01*
X32567738Y-27329816D01*
X32720478Y-27425789D01*
X32777632Y-27445788D01*
X32890745Y-27485368D01*
X32890750Y-27485369D01*
X33069996Y-27505565D01*
X33070000Y-27505565D01*
X33070004Y-27505565D01*
X33249249Y-27485369D01*
X33249252Y-27485368D01*
X33249255Y-27485368D01*
X33419522Y-27425789D01*
X33572262Y-27329816D01*
X33699816Y-27202262D01*
X33795789Y-27049522D01*
X33855368Y-26879255D01*
X33855369Y-26879249D01*
X33873312Y-26719996D01*
X34874435Y-26719996D01*
X34874435Y-26720003D01*
X34894630Y-26899249D01*
X34894631Y-26899254D01*
X34954211Y-27069523D01*
X35037617Y-27202262D01*
X35050184Y-27222262D01*
X35177738Y-27349816D01*
X35268080Y-27406582D01*
X35298646Y-27425788D01*
X35330478Y-27445789D01*
X35443591Y-27485369D01*
X35500745Y-27505368D01*
X35500750Y-27505369D01*
X35679996Y-27525565D01*
X35680000Y-27525565D01*
X35680004Y-27525565D01*
X35859249Y-27505369D01*
X35859252Y-27505368D01*
X35859255Y-27505368D01*
X36029522Y-27445789D01*
X36182262Y-27349816D01*
X36309816Y-27222262D01*
X36405789Y-27069522D01*
X36465368Y-26899255D01*
X36465369Y-26899249D01*
X36485565Y-26720003D01*
X36485565Y-26719996D01*
X36465369Y-26540750D01*
X36465368Y-26540745D01*
X36405788Y-26370476D01*
X36309815Y-26217737D01*
X36182262Y-26090184D01*
X36029523Y-25994211D01*
X35859254Y-25934631D01*
X35859249Y-25934630D01*
X35680004Y-25914435D01*
X35679996Y-25914435D01*
X35500750Y-25934630D01*
X35500745Y-25934631D01*
X35330476Y-25994211D01*
X35177737Y-26090184D01*
X35050184Y-26217737D01*
X34954211Y-26370476D01*
X34894631Y-26540745D01*
X34894630Y-26540750D01*
X34874435Y-26719996D01*
X33873312Y-26719996D01*
X33875565Y-26700003D01*
X33875565Y-26699996D01*
X33855369Y-26520750D01*
X33855368Y-26520745D01*
X33802787Y-26370478D01*
X33795789Y-26350478D01*
X33699816Y-26197738D01*
X33572262Y-26070184D01*
X33419523Y-25974211D01*
X33249254Y-25914631D01*
X33249249Y-25914630D01*
X33070004Y-25894435D01*
X33069996Y-25894435D01*
X32890750Y-25914630D01*
X32890745Y-25914631D01*
X32720476Y-25974211D01*
X32567737Y-26070184D01*
X32440184Y-26197737D01*
X32344211Y-26350476D01*
X32284631Y-26520745D01*
X32284630Y-26520750D01*
X32264435Y-26699996D01*
X30500499Y-26699996D01*
X30500499Y-25952128D01*
X30494091Y-25892517D01*
X30443796Y-25757669D01*
X30399734Y-25698810D01*
X30375317Y-25633348D01*
X30390168Y-25565075D01*
X30439573Y-25515669D01*
X30499001Y-25500500D01*
X44375500Y-25500500D01*
X44442539Y-25520185D01*
X44488294Y-25572989D01*
X44499500Y-25624500D01*
X44499500Y-34543568D01*
X44479815Y-34610607D01*
X44427011Y-34656362D01*
X44357853Y-34666306D01*
X44301190Y-34642835D01*
X44292334Y-34636206D01*
X44292328Y-34636202D01*
X44157482Y-34585908D01*
X44157483Y-34585908D01*
X44097883Y-34579501D01*
X44097881Y-34579500D01*
X44097873Y-34579500D01*
X44097864Y-34579500D01*
X42302129Y-34579500D01*
X42302123Y-34579501D01*
X42242516Y-34585908D01*
X42107671Y-34636202D01*
X42107664Y-34636206D01*
X41992455Y-34722452D01*
X41992452Y-34722455D01*
X41906206Y-34837664D01*
X41906203Y-34837669D01*
X41857189Y-34969083D01*
X41815317Y-35025016D01*
X41749853Y-35049433D01*
X41681580Y-35034581D01*
X41653326Y-35013430D01*
X41531402Y-34891506D01*
X41531395Y-34891501D01*
X41337834Y-34755967D01*
X41337830Y-34755965D01*
X41337828Y-34755964D01*
X41123663Y-34656097D01*
X41123659Y-34656096D01*
X41123655Y-34656094D01*
X40895413Y-34594938D01*
X40895403Y-34594936D01*
X40660001Y-34574341D01*
X40659999Y-34574341D01*
X40424596Y-34594936D01*
X40424586Y-34594938D01*
X40196344Y-34656094D01*
X40196335Y-34656098D01*
X39982171Y-34755964D01*
X39982169Y-34755965D01*
X39788597Y-34891505D01*
X39621505Y-35058597D01*
X39491575Y-35244158D01*
X39436998Y-35287783D01*
X39367500Y-35294977D01*
X39305145Y-35263454D01*
X39288425Y-35244158D01*
X39158494Y-35058597D01*
X38991402Y-34891506D01*
X38991395Y-34891501D01*
X38797834Y-34755967D01*
X38797830Y-34755965D01*
X38797828Y-34755964D01*
X38583663Y-34656097D01*
X38583659Y-34656096D01*
X38583655Y-34656094D01*
X38355413Y-34594938D01*
X38355403Y-34594936D01*
X38120001Y-34574341D01*
X38119999Y-34574341D01*
X37884596Y-34594936D01*
X37884586Y-34594938D01*
X37656344Y-34656094D01*
X37656335Y-34656098D01*
X37442171Y-34755964D01*
X37442169Y-34755965D01*
X37248597Y-34891505D01*
X37081505Y-35058597D01*
X36945965Y-35252169D01*
X36945964Y-35252171D01*
X36846098Y-35466335D01*
X36846094Y-35466344D01*
X36784938Y-35694586D01*
X36784936Y-35694596D01*
X36764341Y-35929999D01*
X36764341Y-35930000D01*
X36784936Y-36165403D01*
X36784938Y-36165413D01*
X36846094Y-36393655D01*
X36846096Y-36393659D01*
X36846097Y-36393663D01*
X36926004Y-36565023D01*
X36945965Y-36607830D01*
X36945967Y-36607834D01*
X36996499Y-36680000D01*
X37081505Y-36801401D01*
X37248599Y-36968495D01*
X37345384Y-37036265D01*
X37442165Y-37104032D01*
X37442167Y-37104033D01*
X37442170Y-37104035D01*
X37656337Y-37203903D01*
X37656343Y-37203904D01*
X37656344Y-37203905D01*
X37711285Y-37218626D01*
X37884592Y-37265063D01*
X38061034Y-37280500D01*
X38119999Y-37285659D01*
X38120000Y-37285659D01*
X38120001Y-37285659D01*
X38178966Y-37280500D01*
X38355408Y-37265063D01*
X38583663Y-37203903D01*
X38797830Y-37104035D01*
X38991401Y-36968495D01*
X39158495Y-36801401D01*
X39288425Y-36615842D01*
X39343002Y-36572217D01*
X39412500Y-36565023D01*
X39474855Y-36596546D01*
X39491575Y-36615842D01*
X39621500Y-36801395D01*
X39621505Y-36801401D01*
X39788599Y-36968495D01*
X39885384Y-37036265D01*
X39982165Y-37104032D01*
X39982167Y-37104033D01*
X39982170Y-37104035D01*
X40196337Y-37203903D01*
X40196343Y-37203904D01*
X40196344Y-37203905D01*
X40251285Y-37218626D01*
X40424592Y-37265063D01*
X40601034Y-37280500D01*
X40659999Y-37285659D01*
X40660000Y-37285659D01*
X40660001Y-37285659D01*
X40718966Y-37280500D01*
X40895408Y-37265063D01*
X41123663Y-37203903D01*
X41337830Y-37104035D01*
X41531401Y-36968495D01*
X41653329Y-36846566D01*
X41714648Y-36813084D01*
X41784340Y-36818068D01*
X41840274Y-36859939D01*
X41857189Y-36890917D01*
X41906202Y-37022328D01*
X41906206Y-37022335D01*
X41992452Y-37137544D01*
X41992455Y-37137547D01*
X42107664Y-37223793D01*
X42107671Y-37223797D01*
X42242517Y-37274091D01*
X42242516Y-37274091D01*
X42249444Y-37274835D01*
X42302127Y-37280500D01*
X44097872Y-37280499D01*
X44157483Y-37274091D01*
X44292331Y-37223796D01*
X44301186Y-37217166D01*
X44366649Y-37192747D01*
X44434923Y-37207596D01*
X44484330Y-37257000D01*
X44499500Y-37316431D01*
X44499500Y-39266000D01*
X44479815Y-39333039D01*
X44427011Y-39378794D01*
X44375500Y-39390000D01*
X41226519Y-39390000D01*
X41159480Y-39370315D01*
X41113725Y-39317511D01*
X41103299Y-39279883D01*
X41085369Y-39120750D01*
X41085366Y-39120737D01*
X41039953Y-38990955D01*
X41036391Y-38921176D01*
X41039953Y-38909045D01*
X41085366Y-38779262D01*
X41085369Y-38779249D01*
X41105565Y-38600003D01*
X41105565Y-38599996D01*
X41085369Y-38420750D01*
X41085368Y-38420745D01*
X41070943Y-38379522D01*
X41025789Y-38250478D01*
X40929816Y-38097738D01*
X40802262Y-37970184D01*
X40649523Y-37874211D01*
X40479254Y-37814631D01*
X40479249Y-37814630D01*
X40300004Y-37794435D01*
X40299996Y-37794435D01*
X40120750Y-37814630D01*
X40120745Y-37814631D01*
X39950476Y-37874211D01*
X39797737Y-37970184D01*
X39670184Y-38097737D01*
X39574211Y-38250476D01*
X39514631Y-38420745D01*
X39514630Y-38420750D01*
X39494435Y-38599996D01*
X39494435Y-38600003D01*
X39514630Y-38779249D01*
X39514632Y-38779257D01*
X39560047Y-38909046D01*
X39563608Y-38978825D01*
X39560047Y-38990954D01*
X39514632Y-39120742D01*
X39514630Y-39120750D01*
X39496701Y-39279883D01*
X39469635Y-39344297D01*
X39412040Y-39383853D01*
X39373481Y-39390000D01*
X30906458Y-39390000D01*
X30839419Y-39370315D01*
X30793664Y-39317511D01*
X30783720Y-39248353D01*
X30812745Y-39184797D01*
X30844344Y-39160636D01*
X30843626Y-39159494D01*
X30905307Y-39120737D01*
X31002262Y-39059816D01*
X31129816Y-38932262D01*
X31225789Y-38779522D01*
X31285368Y-38609255D01*
X31286156Y-38602262D01*
X31305565Y-38430003D01*
X31305565Y-38429996D01*
X31285369Y-38250750D01*
X31285368Y-38250745D01*
X31232619Y-38099996D01*
X33194435Y-38099996D01*
X33194435Y-38100003D01*
X33214630Y-38279249D01*
X33214631Y-38279254D01*
X33274211Y-38449523D01*
X33326200Y-38532262D01*
X33370184Y-38602262D01*
X33497738Y-38729816D01*
X33539072Y-38755788D01*
X33633894Y-38815369D01*
X33650478Y-38825789D01*
X33820745Y-38885368D01*
X33820750Y-38885369D01*
X33999996Y-38905565D01*
X34000000Y-38905565D01*
X34000004Y-38905565D01*
X34179249Y-38885369D01*
X34179252Y-38885368D01*
X34179255Y-38885368D01*
X34349522Y-38825789D01*
X34366106Y-38815369D01*
X34434027Y-38772691D01*
X34501264Y-38753690D01*
X34565973Y-38772691D01*
X34650475Y-38825788D01*
X34820745Y-38885368D01*
X34820750Y-38885369D01*
X34999996Y-38905565D01*
X35000000Y-38905565D01*
X35000004Y-38905565D01*
X35179249Y-38885369D01*
X35179252Y-38885368D01*
X35179255Y-38885368D01*
X35349522Y-38825789D01*
X35366106Y-38815369D01*
X35434027Y-38772691D01*
X35501264Y-38753690D01*
X35565973Y-38772691D01*
X35650475Y-38825788D01*
X35820745Y-38885368D01*
X35820750Y-38885369D01*
X35999996Y-38905565D01*
X36000000Y-38905565D01*
X36000004Y-38905565D01*
X36179249Y-38885369D01*
X36179252Y-38885368D01*
X36179255Y-38885368D01*
X36349522Y-38825789D01*
X36366106Y-38815369D01*
X36434027Y-38772691D01*
X36501264Y-38753690D01*
X36565973Y-38772691D01*
X36650475Y-38825788D01*
X36820745Y-38885368D01*
X36820750Y-38885369D01*
X36999996Y-38905565D01*
X37000000Y-38905565D01*
X37000004Y-38905565D01*
X37179249Y-38885369D01*
X37179252Y-38885368D01*
X37179255Y-38885368D01*
X37349522Y-38825789D01*
X37502262Y-38729816D01*
X37629816Y-38602262D01*
X37725789Y-38449522D01*
X37785368Y-38279255D01*
X37788580Y-38250750D01*
X37805565Y-38100003D01*
X37805565Y-38099996D01*
X37785369Y-37920750D01*
X37785368Y-37920745D01*
X37769085Y-37874211D01*
X37725789Y-37750478D01*
X37629816Y-37597738D01*
X37502262Y-37470184D01*
X37390858Y-37400184D01*
X37349523Y-37374211D01*
X37179254Y-37314631D01*
X37179249Y-37314630D01*
X37000004Y-37294435D01*
X36999996Y-37294435D01*
X36820750Y-37314630D01*
X36820737Y-37314633D01*
X36650479Y-37374209D01*
X36565971Y-37427309D01*
X36498734Y-37446309D01*
X36434029Y-37427309D01*
X36349520Y-37374209D01*
X36179262Y-37314633D01*
X36179249Y-37314630D01*
X36000004Y-37294435D01*
X35999996Y-37294435D01*
X35820750Y-37314630D01*
X35820737Y-37314633D01*
X35650479Y-37374209D01*
X35565971Y-37427309D01*
X35498734Y-37446309D01*
X35434029Y-37427309D01*
X35349520Y-37374209D01*
X35179262Y-37314633D01*
X35179249Y-37314630D01*
X35000004Y-37294435D01*
X34999996Y-37294435D01*
X34820750Y-37314630D01*
X34820737Y-37314633D01*
X34650479Y-37374209D01*
X34565971Y-37427309D01*
X34498734Y-37446309D01*
X34434029Y-37427309D01*
X34349520Y-37374209D01*
X34179262Y-37314633D01*
X34179249Y-37314630D01*
X34000004Y-37294435D01*
X33999996Y-37294435D01*
X33820750Y-37314630D01*
X33820745Y-37314631D01*
X33650476Y-37374211D01*
X33497737Y-37470184D01*
X33370184Y-37597737D01*
X33274211Y-37750476D01*
X33214631Y-37920745D01*
X33214630Y-37920750D01*
X33194435Y-38099996D01*
X31232619Y-38099996D01*
X31225788Y-38080475D01*
X31181957Y-38010720D01*
X31141272Y-37945970D01*
X31122272Y-37878736D01*
X31141273Y-37814028D01*
X31205667Y-37711545D01*
X31225788Y-37679524D01*
X31254406Y-37597738D01*
X31285368Y-37509255D01*
X31285369Y-37509249D01*
X31305565Y-37330003D01*
X31305565Y-37329996D01*
X31285369Y-37150750D01*
X31285368Y-37150745D01*
X31225788Y-36980476D01*
X31129815Y-36827737D01*
X31069759Y-36767681D01*
X31036274Y-36706358D01*
X31041258Y-36636666D01*
X31069759Y-36592319D01*
X31097055Y-36565023D01*
X31129816Y-36532262D01*
X31225789Y-36379522D01*
X31285368Y-36209255D01*
X31290308Y-36165413D01*
X31305565Y-36030003D01*
X31305565Y-36029996D01*
X31285369Y-35850750D01*
X31285368Y-35850745D01*
X31230729Y-35694596D01*
X31225789Y-35680478D01*
X31129816Y-35527738D01*
X31119759Y-35517681D01*
X31086274Y-35456358D01*
X31091258Y-35386666D01*
X31119759Y-35342319D01*
X31129816Y-35332262D01*
X31225789Y-35179522D01*
X31285368Y-35009255D01*
X31285369Y-35009249D01*
X31305565Y-34830003D01*
X31305565Y-34829996D01*
X31285369Y-34650750D01*
X31285368Y-34650745D01*
X31265840Y-34594937D01*
X31225789Y-34480478D01*
X31129816Y-34327738D01*
X31002262Y-34200184D01*
X30849523Y-34104211D01*
X30679254Y-34044631D01*
X30679249Y-34044630D01*
X30500004Y-34024435D01*
X30499996Y-34024435D01*
X30320750Y-34044630D01*
X30320745Y-34044631D01*
X30150476Y-34104211D01*
X29997737Y-34200184D01*
X29987681Y-34210241D01*
X29926358Y-34243726D01*
X29856666Y-34238742D01*
X29812319Y-34210241D01*
X29802262Y-34200184D01*
X29649523Y-34104211D01*
X29479254Y-34044631D01*
X29479249Y-34044630D01*
X29300004Y-34024435D01*
X29299996Y-34024435D01*
X29120750Y-34044630D01*
X29120745Y-34044631D01*
X28950476Y-34104211D01*
X28797737Y-34200184D01*
X28670184Y-34327737D01*
X28574211Y-34480476D01*
X28514631Y-34650745D01*
X28514630Y-34650750D01*
X28494435Y-34829996D01*
X28494435Y-34830003D01*
X28514630Y-35009249D01*
X28514631Y-35009254D01*
X28574211Y-35179523D01*
X28670184Y-35332262D01*
X28680241Y-35342319D01*
X28713726Y-35403642D01*
X28708742Y-35473334D01*
X28680241Y-35517681D01*
X28670184Y-35527737D01*
X28574211Y-35680476D01*
X28514631Y-35850745D01*
X28514630Y-35850750D01*
X28494435Y-36029996D01*
X28494435Y-36030003D01*
X28514630Y-36209249D01*
X28514631Y-36209254D01*
X28574211Y-36379523D01*
X28670184Y-36532262D01*
X28730241Y-36592319D01*
X28763726Y-36653642D01*
X28758742Y-36723334D01*
X28730241Y-36767681D01*
X28670184Y-36827737D01*
X28574211Y-36980476D01*
X28514631Y-37150745D01*
X28514630Y-37150750D01*
X28494435Y-37329996D01*
X28494435Y-37330003D01*
X28514630Y-37509249D01*
X28514631Y-37509254D01*
X28574211Y-37679523D01*
X28658727Y-37814028D01*
X28677727Y-37881264D01*
X28658727Y-37945972D01*
X28574211Y-38080476D01*
X28514631Y-38250745D01*
X28514630Y-38250750D01*
X28494435Y-38429996D01*
X28494435Y-38430003D01*
X28514630Y-38609249D01*
X28514631Y-38609254D01*
X28574211Y-38779523D01*
X28640719Y-38885369D01*
X28670184Y-38932262D01*
X28797738Y-39059816D01*
X28886320Y-39115476D01*
X28956374Y-39159494D01*
X28955195Y-39161370D01*
X28999201Y-39201098D01*
X29017516Y-39268525D01*
X28996471Y-39335150D01*
X28942746Y-39379820D01*
X28893542Y-39390000D01*
X25624500Y-39390000D01*
X25557461Y-39370315D01*
X25511706Y-39317511D01*
X25500500Y-39266000D01*
X25500500Y-38779094D01*
X25520185Y-38712055D01*
X25572989Y-38666300D01*
X25642147Y-38656356D01*
X25690471Y-38674100D01*
X25728193Y-38697802D01*
X25820475Y-38755788D01*
X25990745Y-38815368D01*
X25990750Y-38815369D01*
X26169996Y-38835565D01*
X26170000Y-38835565D01*
X26170004Y-38835565D01*
X26349249Y-38815369D01*
X26349252Y-38815368D01*
X26349255Y-38815368D01*
X26519522Y-38755789D01*
X26672262Y-38659816D01*
X26799816Y-38532262D01*
X26895789Y-38379522D01*
X26955368Y-38209255D01*
X26967678Y-38100000D01*
X26975565Y-38030003D01*
X26975565Y-38029996D01*
X26955369Y-37850750D01*
X26955368Y-37850745D01*
X26895789Y-37680478D01*
X26895188Y-37679522D01*
X26843799Y-37597737D01*
X26799816Y-37527738D01*
X26672262Y-37400184D01*
X26649528Y-37385899D01*
X26519523Y-37304211D01*
X26349254Y-37244631D01*
X26349249Y-37244630D01*
X26170004Y-37224435D01*
X26169996Y-37224435D01*
X25990750Y-37244630D01*
X25990745Y-37244631D01*
X25820476Y-37304211D01*
X25690472Y-37385899D01*
X25623235Y-37404899D01*
X25556400Y-37384531D01*
X25511186Y-37331263D01*
X25500500Y-37280905D01*
X25500500Y-35219094D01*
X25520185Y-35152055D01*
X25572989Y-35106300D01*
X25642147Y-35096356D01*
X25690471Y-35114100D01*
X25728193Y-35137802D01*
X25820475Y-35195788D01*
X25990745Y-35255368D01*
X25990750Y-35255369D01*
X26169996Y-35275565D01*
X26170000Y-35275565D01*
X26170004Y-35275565D01*
X26349249Y-35255369D01*
X26349252Y-35255368D01*
X26349255Y-35255368D01*
X26519522Y-35195789D01*
X26672262Y-35099816D01*
X26799816Y-34972262D01*
X26895789Y-34819522D01*
X26955368Y-34649255D01*
X26955369Y-34649249D01*
X26975565Y-34470003D01*
X26975565Y-34469996D01*
X26955369Y-34290750D01*
X26955368Y-34290745D01*
X26895788Y-34120476D01*
X26848130Y-34044630D01*
X26799816Y-33967738D01*
X26672262Y-33840184D01*
X26649528Y-33825899D01*
X26519523Y-33744211D01*
X26349254Y-33684631D01*
X26349249Y-33684630D01*
X26170004Y-33664435D01*
X26169996Y-33664435D01*
X25990750Y-33684630D01*
X25990745Y-33684631D01*
X25820476Y-33744211D01*
X25690472Y-33825899D01*
X25623235Y-33844899D01*
X25556400Y-33824531D01*
X25511186Y-33771263D01*
X25500500Y-33720905D01*
X25500500Y-25624500D01*
X25520185Y-25557461D01*
X25572989Y-25511706D01*
X25624500Y-25500500D01*
X27800999Y-25500500D01*
X27868038Y-25520185D01*
G37*
%TD.AperFunction*%
%TD*%
M02*
