%TF.GenerationSoftware,KiCad,Pcbnew,8.0.2-1*%
%TF.CreationDate,2024-06-01T00:53:28-04:00*%
%TF.ProjectId,ez-servo,657a2d73-6572-4766-9f2e-6b696361645f,v0.0.0*%
%TF.SameCoordinates,Original*%
%TF.FileFunction,Legend,Bot*%
%TF.FilePolarity,Positive*%
%FSLAX46Y46*%
G04 Gerber Fmt 4.6, Leading zero omitted, Abs format (unit mm)*
G04 Created by KiCad (PCBNEW 8.0.2-1) date 2024-06-01 00:53:28*
%MOMM*%
%LPD*%
G01*
G04 APERTURE LIST*
G04 Aperture macros list*
%AMRoundRect*
0 Rectangle with rounded corners*
0 $1 Rounding radius*
0 $2 $3 $4 $5 $6 $7 $8 $9 X,Y pos of 4 corners*
0 Add a 4 corners polygon primitive as box body*
4,1,4,$2,$3,$4,$5,$6,$7,$8,$9,$2,$3,0*
0 Add four circle primitives for the rounded corners*
1,1,$1+$1,$2,$3*
1,1,$1+$1,$4,$5*
1,1,$1+$1,$6,$7*
1,1,$1+$1,$8,$9*
0 Add four rect primitives between the rounded corners*
20,1,$1+$1,$2,$3,$4,$5,0*
20,1,$1+$1,$4,$5,$6,$7,0*
20,1,$1+$1,$6,$7,$8,$9,0*
20,1,$1+$1,$8,$9,$2,$3,0*%
G04 Aperture macros list end*
%ADD10C,0.100000*%
%ADD11C,0.120000*%
%ADD12RoundRect,0.250000X-0.250000X-0.475000X0.250000X-0.475000X0.250000X0.475000X-0.250000X0.475000X0*%
%ADD13RoundRect,0.250000X-0.450000X0.350000X-0.450000X-0.350000X0.450000X-0.350000X0.450000X0.350000X0*%
%ADD14RoundRect,0.250000X0.650000X-1.000000X0.650000X1.000000X-0.650000X1.000000X-0.650000X-1.000000X0*%
%ADD15R,1.500000X4.000000*%
%ADD16R,1.700000X1.700000*%
%ADD17O,1.700000X1.700000*%
G04 APERTURE END LIST*
D10*
X16800990Y-946741D02*
X16753371Y-851503D01*
X16753371Y-851503D02*
X16705752Y-803884D01*
X16705752Y-803884D02*
X16610514Y-756265D01*
X16610514Y-756265D02*
X16562895Y-756265D01*
X16562895Y-756265D02*
X16467657Y-803884D01*
X16467657Y-803884D02*
X16420038Y-851503D01*
X16420038Y-851503D02*
X16372419Y-946741D01*
X16372419Y-946741D02*
X16372419Y-1137217D01*
X16372419Y-1137217D02*
X16420038Y-1232455D01*
X16420038Y-1232455D02*
X16467657Y-1280074D01*
X16467657Y-1280074D02*
X16562895Y-1327693D01*
X16562895Y-1327693D02*
X16610514Y-1327693D01*
X16610514Y-1327693D02*
X16705752Y-1280074D01*
X16705752Y-1280074D02*
X16753371Y-1232455D01*
X16753371Y-1232455D02*
X16800990Y-1137217D01*
X16800990Y-1137217D02*
X16800990Y-946741D01*
X16800990Y-946741D02*
X16848609Y-851503D01*
X16848609Y-851503D02*
X16896228Y-803884D01*
X16896228Y-803884D02*
X16991466Y-756265D01*
X16991466Y-756265D02*
X17181942Y-756265D01*
X17181942Y-756265D02*
X17277180Y-803884D01*
X17277180Y-803884D02*
X17324800Y-851503D01*
X17324800Y-851503D02*
X17372419Y-946741D01*
X17372419Y-946741D02*
X17372419Y-1137217D01*
X17372419Y-1137217D02*
X17324800Y-1232455D01*
X17324800Y-1232455D02*
X17277180Y-1280074D01*
X17277180Y-1280074D02*
X17181942Y-1327693D01*
X17181942Y-1327693D02*
X16991466Y-1327693D01*
X16991466Y-1327693D02*
X16896228Y-1280074D01*
X16896228Y-1280074D02*
X16848609Y-1232455D01*
X16848609Y-1232455D02*
X16800990Y-1137217D01*
X17277180Y-1756265D02*
X17324800Y-1803884D01*
X17324800Y-1803884D02*
X17372419Y-1756265D01*
X17372419Y-1756265D02*
X17324800Y-1708646D01*
X17324800Y-1708646D02*
X17277180Y-1756265D01*
X17277180Y-1756265D02*
X17372419Y-1756265D01*
X16705752Y-2661026D02*
X17372419Y-2661026D01*
X16324800Y-2422931D02*
X17039085Y-2184836D01*
X17039085Y-2184836D02*
X17039085Y-2803883D01*
X16372419Y-3041979D02*
X17372419Y-3375312D01*
X17372419Y-3375312D02*
X16372419Y-3708645D01*
X13872419Y-1232455D02*
X13872419Y-1041979D01*
X13872419Y-1041979D02*
X13920038Y-946741D01*
X13920038Y-946741D02*
X13967657Y-899122D01*
X13967657Y-899122D02*
X14110514Y-803884D01*
X14110514Y-803884D02*
X14300990Y-756265D01*
X14300990Y-756265D02*
X14681942Y-756265D01*
X14681942Y-756265D02*
X14777180Y-803884D01*
X14777180Y-803884D02*
X14824800Y-851503D01*
X14824800Y-851503D02*
X14872419Y-946741D01*
X14872419Y-946741D02*
X14872419Y-1137217D01*
X14872419Y-1137217D02*
X14824800Y-1232455D01*
X14824800Y-1232455D02*
X14777180Y-1280074D01*
X14777180Y-1280074D02*
X14681942Y-1327693D01*
X14681942Y-1327693D02*
X14443847Y-1327693D01*
X14443847Y-1327693D02*
X14348609Y-1280074D01*
X14348609Y-1280074D02*
X14300990Y-1232455D01*
X14300990Y-1232455D02*
X14253371Y-1137217D01*
X14253371Y-1137217D02*
X14253371Y-946741D01*
X14253371Y-946741D02*
X14300990Y-851503D01*
X14300990Y-851503D02*
X14348609Y-803884D01*
X14348609Y-803884D02*
X14443847Y-756265D01*
X13872419Y-1613408D02*
X14872419Y-1946741D01*
X14872419Y-1946741D02*
X13872419Y-2280074D01*
D11*
%TO.C,C2*%
X9911252Y-7505000D02*
X9388748Y-7505000D01*
X9911252Y-8975000D02*
X9388748Y-8975000D01*
%TO.C,R2*%
X9665000Y-11297064D02*
X9665000Y-10842936D01*
X11135000Y-11297064D02*
X11135000Y-10842936D01*
%TO.C,D1*%
X7760000Y-1760000D02*
X7760000Y-7270000D01*
X7760000Y-7270000D02*
X11060000Y-7270000D01*
X11060000Y-1760000D02*
X11060000Y-7270000D01*
%TO.C,J2*%
X2820000Y-3120000D02*
X5480000Y-3120000D01*
X2820000Y-8260000D02*
X2820000Y-3120000D01*
X2820000Y-8260000D02*
X5480000Y-8260000D01*
X4150000Y-520000D02*
X5480000Y-520000D01*
X5480000Y-520000D02*
X5480000Y-1850000D01*
X5480000Y-8260000D02*
X5480000Y-3120000D01*
%TO.C,J3*%
X11790000Y-6830000D02*
X11790000Y-9490000D01*
X11790000Y-9490000D02*
X19530000Y-9490000D01*
X12740000Y-830000D02*
X13500000Y-830000D01*
X12740000Y-6830000D02*
X12740000Y-830000D01*
X12740000Y-9490000D02*
X12740000Y-9887071D01*
X13500000Y-830000D02*
X13500000Y-6830000D01*
X13500000Y-9490000D02*
X13500000Y-9887071D01*
X14390000Y-6830000D02*
X14390000Y-9490000D01*
X15280000Y-830000D02*
X16040000Y-830000D01*
X15280000Y-6830000D02*
X15280000Y-830000D01*
X15280000Y-9490000D02*
X15280000Y-9887071D01*
X16040000Y-830000D02*
X16040000Y-6830000D01*
X16040000Y-9490000D02*
X16040000Y-9887071D01*
X16930000Y-6830000D02*
X16930000Y-9490000D01*
X17820000Y-830000D02*
X18580000Y-830000D01*
X17820000Y-6830000D02*
X17820000Y-830000D01*
X17820000Y-9490000D02*
X17820000Y-9820000D01*
X17920000Y-830000D02*
X17920000Y-6830000D01*
X18040000Y-830000D02*
X18040000Y-6830000D01*
X18160000Y-830000D02*
X18160000Y-6830000D01*
X18280000Y-830000D02*
X18280000Y-6830000D01*
X18400000Y-830000D02*
X18400000Y-6830000D01*
X18520000Y-830000D02*
X18520000Y-6830000D01*
X18580000Y-830000D02*
X18580000Y-6830000D01*
X18580000Y-9490000D02*
X18580000Y-9820000D01*
X19470000Y-10930000D02*
X19470000Y-12200000D01*
X19470000Y-12200000D02*
X18200000Y-12200000D01*
X19530000Y-6830000D02*
X11790000Y-6830000D01*
X19530000Y-9490000D02*
X19530000Y-6830000D01*
%TD*%
%LPC*%
D12*
%TO.C,C2*%
X8700000Y-8240000D03*
X10600000Y-8240000D03*
%TD*%
D13*
%TO.C,R2*%
X10400000Y-10070000D03*
X10400000Y-12070000D03*
%TD*%
D14*
%TO.C,D1*%
X9410000Y-5760000D03*
X9410000Y-1760000D03*
%TD*%
D15*
%TO.C,J1*%
X17250000Y-17000000D03*
X15250000Y-17000000D03*
X13250000Y-17000000D03*
X11250000Y-17000000D03*
X9250000Y-17000000D03*
X7250000Y-17000000D03*
X5250000Y-17000000D03*
X3250000Y-17000000D03*
%TD*%
D16*
%TO.C,J2*%
X4150000Y-1850000D03*
D17*
X4150000Y-4390000D03*
X4150000Y-6930000D03*
%TD*%
D16*
%TO.C,J3*%
X18200000Y-10930000D03*
D17*
X15660000Y-10930000D03*
X13120000Y-10930000D03*
%TD*%
%LPD*%
M02*
