%TF.GenerationSoftware,KiCad,Pcbnew,8.0.2-1*%
%TF.CreationDate,2024-05-31T20:19:27-04:00*%
%TF.ProjectId,ez-servo,657a2d73-6572-4766-9f2e-6b696361645f,rev?*%
%TF.SameCoordinates,Original*%
%TF.FileFunction,Profile,NP*%
%FSLAX46Y46*%
G04 Gerber Fmt 4.6, Leading zero omitted, Abs format (unit mm)*
G04 Created by KiCad (PCBNEW 8.0.2-1) date 2024-05-31 20:19:27*
%MOMM*%
%LPD*%
G01*
G04 APERTURE LIST*
%TA.AperFunction,Profile*%
%ADD10C,0.050000*%
%TD*%
%ADD11C,0.150000*%
G04 APERTURE END LIST*
D10*
X45000000Y-25000000D02*
X45000000Y-40000000D01*
X43515000Y-45000000D02*
X26515000Y-45000000D01*
X25000000Y-40000000D02*
X26515000Y-42000000D01*
X43515000Y-40000000D02*
X45000000Y-40000000D01*
X25000000Y-40000000D02*
X25000000Y-25000000D01*
X25000000Y-25000000D02*
X45000000Y-25000000D01*
X26515000Y-42000000D02*
X26515000Y-45000000D01*
X43515000Y-40000000D02*
X43515000Y-45000000D01*
D11*
X56120588Y-33750155D02*
X55549160Y-33750155D01*
X55834874Y-33750155D02*
X55834874Y-32750155D01*
X55834874Y-32750155D02*
X55739636Y-32893012D01*
X55739636Y-32893012D02*
X55644398Y-32988250D01*
X55644398Y-32988250D02*
X55549160Y-33035869D01*
X56549160Y-33654916D02*
X56596779Y-33702536D01*
X56596779Y-33702536D02*
X56549160Y-33750155D01*
X56549160Y-33750155D02*
X56501541Y-33702536D01*
X56501541Y-33702536D02*
X56549160Y-33654916D01*
X56549160Y-33654916D02*
X56549160Y-33750155D01*
X57501540Y-32750155D02*
X57025350Y-32750155D01*
X57025350Y-32750155D02*
X56977731Y-33226345D01*
X56977731Y-33226345D02*
X57025350Y-33178726D01*
X57025350Y-33178726D02*
X57120588Y-33131107D01*
X57120588Y-33131107D02*
X57358683Y-33131107D01*
X57358683Y-33131107D02*
X57453921Y-33178726D01*
X57453921Y-33178726D02*
X57501540Y-33226345D01*
X57501540Y-33226345D02*
X57549159Y-33321583D01*
X57549159Y-33321583D02*
X57549159Y-33559678D01*
X57549159Y-33559678D02*
X57501540Y-33654916D01*
X57501540Y-33654916D02*
X57453921Y-33702536D01*
X57453921Y-33702536D02*
X57358683Y-33750155D01*
X57358683Y-33750155D02*
X57120588Y-33750155D01*
X57120588Y-33750155D02*
X57025350Y-33702536D01*
X57025350Y-33702536D02*
X56977731Y-33654916D01*
X57977731Y-33750155D02*
X57977731Y-33083488D01*
X57977731Y-33178726D02*
X58025350Y-33131107D01*
X58025350Y-33131107D02*
X58120588Y-33083488D01*
X58120588Y-33083488D02*
X58263445Y-33083488D01*
X58263445Y-33083488D02*
X58358683Y-33131107D01*
X58358683Y-33131107D02*
X58406302Y-33226345D01*
X58406302Y-33226345D02*
X58406302Y-33750155D01*
X58406302Y-33226345D02*
X58453921Y-33131107D01*
X58453921Y-33131107D02*
X58549159Y-33083488D01*
X58549159Y-33083488D02*
X58692016Y-33083488D01*
X58692016Y-33083488D02*
X58787255Y-33131107D01*
X58787255Y-33131107D02*
X58834874Y-33226345D01*
X58834874Y-33226345D02*
X58834874Y-33750155D01*
X59311064Y-33750155D02*
X59311064Y-33083488D01*
X59311064Y-33178726D02*
X59358683Y-33131107D01*
X59358683Y-33131107D02*
X59453921Y-33083488D01*
X59453921Y-33083488D02*
X59596778Y-33083488D01*
X59596778Y-33083488D02*
X59692016Y-33131107D01*
X59692016Y-33131107D02*
X59739635Y-33226345D01*
X59739635Y-33226345D02*
X59739635Y-33750155D01*
X59739635Y-33226345D02*
X59787254Y-33131107D01*
X59787254Y-33131107D02*
X59882492Y-33083488D01*
X59882492Y-33083488D02*
X60025349Y-33083488D01*
X60025349Y-33083488D02*
X60120588Y-33131107D01*
X60120588Y-33131107D02*
X60168207Y-33226345D01*
X60168207Y-33226345D02*
X60168207Y-33750155D01*
X61406302Y-33083488D02*
X61406302Y-34083488D01*
X61406302Y-33131107D02*
X61501540Y-33083488D01*
X61501540Y-33083488D02*
X61692016Y-33083488D01*
X61692016Y-33083488D02*
X61787254Y-33131107D01*
X61787254Y-33131107D02*
X61834873Y-33178726D01*
X61834873Y-33178726D02*
X61882492Y-33273964D01*
X61882492Y-33273964D02*
X61882492Y-33559678D01*
X61882492Y-33559678D02*
X61834873Y-33654916D01*
X61834873Y-33654916D02*
X61787254Y-33702536D01*
X61787254Y-33702536D02*
X61692016Y-33750155D01*
X61692016Y-33750155D02*
X61501540Y-33750155D01*
X61501540Y-33750155D02*
X61406302Y-33702536D01*
X62311064Y-33750155D02*
X62311064Y-33083488D01*
X62311064Y-32750155D02*
X62263445Y-32797774D01*
X62263445Y-32797774D02*
X62311064Y-32845393D01*
X62311064Y-32845393D02*
X62358683Y-32797774D01*
X62358683Y-32797774D02*
X62311064Y-32750155D01*
X62311064Y-32750155D02*
X62311064Y-32845393D01*
X62787254Y-33083488D02*
X62787254Y-33750155D01*
X62787254Y-33178726D02*
X62834873Y-33131107D01*
X62834873Y-33131107D02*
X62930111Y-33083488D01*
X62930111Y-33083488D02*
X63072968Y-33083488D01*
X63072968Y-33083488D02*
X63168206Y-33131107D01*
X63168206Y-33131107D02*
X63215825Y-33226345D01*
X63215825Y-33226345D02*
X63215825Y-33750155D01*
X63644397Y-33702536D02*
X63739635Y-33750155D01*
X63739635Y-33750155D02*
X63930111Y-33750155D01*
X63930111Y-33750155D02*
X64025349Y-33702536D01*
X64025349Y-33702536D02*
X64072968Y-33607297D01*
X64072968Y-33607297D02*
X64072968Y-33559678D01*
X64072968Y-33559678D02*
X64025349Y-33464440D01*
X64025349Y-33464440D02*
X63930111Y-33416821D01*
X63930111Y-33416821D02*
X63787254Y-33416821D01*
X63787254Y-33416821D02*
X63692016Y-33369202D01*
X63692016Y-33369202D02*
X63644397Y-33273964D01*
X63644397Y-33273964D02*
X63644397Y-33226345D01*
X63644397Y-33226345D02*
X63692016Y-33131107D01*
X63692016Y-33131107D02*
X63787254Y-33083488D01*
X63787254Y-33083488D02*
X63930111Y-33083488D01*
X63930111Y-33083488D02*
X64025349Y-33131107D01*
X55787255Y-34360099D02*
X55882493Y-34360099D01*
X55882493Y-34360099D02*
X55977731Y-34407718D01*
X55977731Y-34407718D02*
X56025350Y-34455337D01*
X56025350Y-34455337D02*
X56072969Y-34550575D01*
X56072969Y-34550575D02*
X56120588Y-34741051D01*
X56120588Y-34741051D02*
X56120588Y-34979146D01*
X56120588Y-34979146D02*
X56072969Y-35169622D01*
X56072969Y-35169622D02*
X56025350Y-35264860D01*
X56025350Y-35264860D02*
X55977731Y-35312480D01*
X55977731Y-35312480D02*
X55882493Y-35360099D01*
X55882493Y-35360099D02*
X55787255Y-35360099D01*
X55787255Y-35360099D02*
X55692017Y-35312480D01*
X55692017Y-35312480D02*
X55644398Y-35264860D01*
X55644398Y-35264860D02*
X55596779Y-35169622D01*
X55596779Y-35169622D02*
X55549160Y-34979146D01*
X55549160Y-34979146D02*
X55549160Y-34741051D01*
X55549160Y-34741051D02*
X55596779Y-34550575D01*
X55596779Y-34550575D02*
X55644398Y-34455337D01*
X55644398Y-34455337D02*
X55692017Y-34407718D01*
X55692017Y-34407718D02*
X55787255Y-34360099D01*
X56549160Y-35264860D02*
X56596779Y-35312480D01*
X56596779Y-35312480D02*
X56549160Y-35360099D01*
X56549160Y-35360099D02*
X56501541Y-35312480D01*
X56501541Y-35312480D02*
X56549160Y-35264860D01*
X56549160Y-35264860D02*
X56549160Y-35360099D01*
X57501540Y-34360099D02*
X57025350Y-34360099D01*
X57025350Y-34360099D02*
X56977731Y-34836289D01*
X56977731Y-34836289D02*
X57025350Y-34788670D01*
X57025350Y-34788670D02*
X57120588Y-34741051D01*
X57120588Y-34741051D02*
X57358683Y-34741051D01*
X57358683Y-34741051D02*
X57453921Y-34788670D01*
X57453921Y-34788670D02*
X57501540Y-34836289D01*
X57501540Y-34836289D02*
X57549159Y-34931527D01*
X57549159Y-34931527D02*
X57549159Y-35169622D01*
X57549159Y-35169622D02*
X57501540Y-35264860D01*
X57501540Y-35264860D02*
X57453921Y-35312480D01*
X57453921Y-35312480D02*
X57358683Y-35360099D01*
X57358683Y-35360099D02*
X57120588Y-35360099D01*
X57120588Y-35360099D02*
X57025350Y-35312480D01*
X57025350Y-35312480D02*
X56977731Y-35264860D01*
X57977731Y-35360099D02*
X57977731Y-34693432D01*
X57977731Y-34788670D02*
X58025350Y-34741051D01*
X58025350Y-34741051D02*
X58120588Y-34693432D01*
X58120588Y-34693432D02*
X58263445Y-34693432D01*
X58263445Y-34693432D02*
X58358683Y-34741051D01*
X58358683Y-34741051D02*
X58406302Y-34836289D01*
X58406302Y-34836289D02*
X58406302Y-35360099D01*
X58406302Y-34836289D02*
X58453921Y-34741051D01*
X58453921Y-34741051D02*
X58549159Y-34693432D01*
X58549159Y-34693432D02*
X58692016Y-34693432D01*
X58692016Y-34693432D02*
X58787255Y-34741051D01*
X58787255Y-34741051D02*
X58834874Y-34836289D01*
X58834874Y-34836289D02*
X58834874Y-35360099D01*
X59311064Y-35360099D02*
X59311064Y-34693432D01*
X59311064Y-34788670D02*
X59358683Y-34741051D01*
X59358683Y-34741051D02*
X59453921Y-34693432D01*
X59453921Y-34693432D02*
X59596778Y-34693432D01*
X59596778Y-34693432D02*
X59692016Y-34741051D01*
X59692016Y-34741051D02*
X59739635Y-34836289D01*
X59739635Y-34836289D02*
X59739635Y-35360099D01*
X59739635Y-34836289D02*
X59787254Y-34741051D01*
X59787254Y-34741051D02*
X59882492Y-34693432D01*
X59882492Y-34693432D02*
X60025349Y-34693432D01*
X60025349Y-34693432D02*
X60120588Y-34741051D01*
X60120588Y-34741051D02*
X60168207Y-34836289D01*
X60168207Y-34836289D02*
X60168207Y-35360099D01*
X61358683Y-35312480D02*
X61453921Y-35360099D01*
X61453921Y-35360099D02*
X61644397Y-35360099D01*
X61644397Y-35360099D02*
X61739635Y-35312480D01*
X61739635Y-35312480D02*
X61787254Y-35217241D01*
X61787254Y-35217241D02*
X61787254Y-35169622D01*
X61787254Y-35169622D02*
X61739635Y-35074384D01*
X61739635Y-35074384D02*
X61644397Y-35026765D01*
X61644397Y-35026765D02*
X61501540Y-35026765D01*
X61501540Y-35026765D02*
X61406302Y-34979146D01*
X61406302Y-34979146D02*
X61358683Y-34883908D01*
X61358683Y-34883908D02*
X61358683Y-34836289D01*
X61358683Y-34836289D02*
X61406302Y-34741051D01*
X61406302Y-34741051D02*
X61501540Y-34693432D01*
X61501540Y-34693432D02*
X61644397Y-34693432D01*
X61644397Y-34693432D02*
X61739635Y-34741051D01*
X62215826Y-34693432D02*
X62215826Y-35693432D01*
X62215826Y-34741051D02*
X62311064Y-34693432D01*
X62311064Y-34693432D02*
X62501540Y-34693432D01*
X62501540Y-34693432D02*
X62596778Y-34741051D01*
X62596778Y-34741051D02*
X62644397Y-34788670D01*
X62644397Y-34788670D02*
X62692016Y-34883908D01*
X62692016Y-34883908D02*
X62692016Y-35169622D01*
X62692016Y-35169622D02*
X62644397Y-35264860D01*
X62644397Y-35264860D02*
X62596778Y-35312480D01*
X62596778Y-35312480D02*
X62501540Y-35360099D01*
X62501540Y-35360099D02*
X62311064Y-35360099D01*
X62311064Y-35360099D02*
X62215826Y-35312480D01*
X63549159Y-35360099D02*
X63549159Y-34836289D01*
X63549159Y-34836289D02*
X63501540Y-34741051D01*
X63501540Y-34741051D02*
X63406302Y-34693432D01*
X63406302Y-34693432D02*
X63215826Y-34693432D01*
X63215826Y-34693432D02*
X63120588Y-34741051D01*
X63549159Y-35312480D02*
X63453921Y-35360099D01*
X63453921Y-35360099D02*
X63215826Y-35360099D01*
X63215826Y-35360099D02*
X63120588Y-35312480D01*
X63120588Y-35312480D02*
X63072969Y-35217241D01*
X63072969Y-35217241D02*
X63072969Y-35122003D01*
X63072969Y-35122003D02*
X63120588Y-35026765D01*
X63120588Y-35026765D02*
X63215826Y-34979146D01*
X63215826Y-34979146D02*
X63453921Y-34979146D01*
X63453921Y-34979146D02*
X63549159Y-34931527D01*
X64453921Y-35312480D02*
X64358683Y-35360099D01*
X64358683Y-35360099D02*
X64168207Y-35360099D01*
X64168207Y-35360099D02*
X64072969Y-35312480D01*
X64072969Y-35312480D02*
X64025350Y-35264860D01*
X64025350Y-35264860D02*
X63977731Y-35169622D01*
X63977731Y-35169622D02*
X63977731Y-34883908D01*
X63977731Y-34883908D02*
X64025350Y-34788670D01*
X64025350Y-34788670D02*
X64072969Y-34741051D01*
X64072969Y-34741051D02*
X64168207Y-34693432D01*
X64168207Y-34693432D02*
X64358683Y-34693432D01*
X64358683Y-34693432D02*
X64453921Y-34741051D01*
X64882493Y-35360099D02*
X64882493Y-34693432D01*
X64882493Y-34360099D02*
X64834874Y-34407718D01*
X64834874Y-34407718D02*
X64882493Y-34455337D01*
X64882493Y-34455337D02*
X64930112Y-34407718D01*
X64930112Y-34407718D02*
X64882493Y-34360099D01*
X64882493Y-34360099D02*
X64882493Y-34455337D01*
X65358683Y-34693432D02*
X65358683Y-35360099D01*
X65358683Y-34788670D02*
X65406302Y-34741051D01*
X65406302Y-34741051D02*
X65501540Y-34693432D01*
X65501540Y-34693432D02*
X65644397Y-34693432D01*
X65644397Y-34693432D02*
X65739635Y-34741051D01*
X65739635Y-34741051D02*
X65787254Y-34836289D01*
X65787254Y-34836289D02*
X65787254Y-35360099D01*
X66692016Y-34693432D02*
X66692016Y-35502956D01*
X66692016Y-35502956D02*
X66644397Y-35598194D01*
X66644397Y-35598194D02*
X66596778Y-35645813D01*
X66596778Y-35645813D02*
X66501540Y-35693432D01*
X66501540Y-35693432D02*
X66358683Y-35693432D01*
X66358683Y-35693432D02*
X66263445Y-35645813D01*
X66692016Y-35312480D02*
X66596778Y-35360099D01*
X66596778Y-35360099D02*
X66406302Y-35360099D01*
X66406302Y-35360099D02*
X66311064Y-35312480D01*
X66311064Y-35312480D02*
X66263445Y-35264860D01*
X66263445Y-35264860D02*
X66215826Y-35169622D01*
X66215826Y-35169622D02*
X66215826Y-34883908D01*
X66215826Y-34883908D02*
X66263445Y-34788670D01*
X66263445Y-34788670D02*
X66311064Y-34741051D01*
X66311064Y-34741051D02*
X66406302Y-34693432D01*
X66406302Y-34693432D02*
X66596778Y-34693432D01*
X66596778Y-34693432D02*
X66692016Y-34741051D01*
X55739636Y-36398614D02*
X55644398Y-36350995D01*
X55644398Y-36350995D02*
X55596779Y-36303376D01*
X55596779Y-36303376D02*
X55549160Y-36208138D01*
X55549160Y-36208138D02*
X55549160Y-36160519D01*
X55549160Y-36160519D02*
X55596779Y-36065281D01*
X55596779Y-36065281D02*
X55644398Y-36017662D01*
X55644398Y-36017662D02*
X55739636Y-35970043D01*
X55739636Y-35970043D02*
X55930112Y-35970043D01*
X55930112Y-35970043D02*
X56025350Y-36017662D01*
X56025350Y-36017662D02*
X56072969Y-36065281D01*
X56072969Y-36065281D02*
X56120588Y-36160519D01*
X56120588Y-36160519D02*
X56120588Y-36208138D01*
X56120588Y-36208138D02*
X56072969Y-36303376D01*
X56072969Y-36303376D02*
X56025350Y-36350995D01*
X56025350Y-36350995D02*
X55930112Y-36398614D01*
X55930112Y-36398614D02*
X55739636Y-36398614D01*
X55739636Y-36398614D02*
X55644398Y-36446233D01*
X55644398Y-36446233D02*
X55596779Y-36493852D01*
X55596779Y-36493852D02*
X55549160Y-36589090D01*
X55549160Y-36589090D02*
X55549160Y-36779566D01*
X55549160Y-36779566D02*
X55596779Y-36874804D01*
X55596779Y-36874804D02*
X55644398Y-36922424D01*
X55644398Y-36922424D02*
X55739636Y-36970043D01*
X55739636Y-36970043D02*
X55930112Y-36970043D01*
X55930112Y-36970043D02*
X56025350Y-36922424D01*
X56025350Y-36922424D02*
X56072969Y-36874804D01*
X56072969Y-36874804D02*
X56120588Y-36779566D01*
X56120588Y-36779566D02*
X56120588Y-36589090D01*
X56120588Y-36589090D02*
X56072969Y-36493852D01*
X56072969Y-36493852D02*
X56025350Y-36446233D01*
X56025350Y-36446233D02*
X55930112Y-36398614D01*
X56453922Y-36970043D02*
X56977731Y-36303376D01*
X56453922Y-36303376D02*
X56977731Y-36970043D01*
X58501541Y-36922424D02*
X58406303Y-36970043D01*
X58406303Y-36970043D02*
X58215827Y-36970043D01*
X58215827Y-36970043D02*
X58120589Y-36922424D01*
X58120589Y-36922424D02*
X58072970Y-36827185D01*
X58072970Y-36827185D02*
X58072970Y-36446233D01*
X58072970Y-36446233D02*
X58120589Y-36350995D01*
X58120589Y-36350995D02*
X58215827Y-36303376D01*
X58215827Y-36303376D02*
X58406303Y-36303376D01*
X58406303Y-36303376D02*
X58501541Y-36350995D01*
X58501541Y-36350995D02*
X58549160Y-36446233D01*
X58549160Y-36446233D02*
X58549160Y-36541471D01*
X58549160Y-36541471D02*
X58072970Y-36636709D01*
X59406303Y-36970043D02*
X59406303Y-36446233D01*
X59406303Y-36446233D02*
X59358684Y-36350995D01*
X59358684Y-36350995D02*
X59263446Y-36303376D01*
X59263446Y-36303376D02*
X59072970Y-36303376D01*
X59072970Y-36303376D02*
X58977732Y-36350995D01*
X59406303Y-36922424D02*
X59311065Y-36970043D01*
X59311065Y-36970043D02*
X59072970Y-36970043D01*
X59072970Y-36970043D02*
X58977732Y-36922424D01*
X58977732Y-36922424D02*
X58930113Y-36827185D01*
X58930113Y-36827185D02*
X58930113Y-36731947D01*
X58930113Y-36731947D02*
X58977732Y-36636709D01*
X58977732Y-36636709D02*
X59072970Y-36589090D01*
X59072970Y-36589090D02*
X59311065Y-36589090D01*
X59311065Y-36589090D02*
X59406303Y-36541471D01*
X60311065Y-36922424D02*
X60215827Y-36970043D01*
X60215827Y-36970043D02*
X60025351Y-36970043D01*
X60025351Y-36970043D02*
X59930113Y-36922424D01*
X59930113Y-36922424D02*
X59882494Y-36874804D01*
X59882494Y-36874804D02*
X59834875Y-36779566D01*
X59834875Y-36779566D02*
X59834875Y-36493852D01*
X59834875Y-36493852D02*
X59882494Y-36398614D01*
X59882494Y-36398614D02*
X59930113Y-36350995D01*
X59930113Y-36350995D02*
X60025351Y-36303376D01*
X60025351Y-36303376D02*
X60215827Y-36303376D01*
X60215827Y-36303376D02*
X60311065Y-36350995D01*
X60739637Y-36970043D02*
X60739637Y-35970043D01*
X61168208Y-36970043D02*
X61168208Y-36446233D01*
X61168208Y-36446233D02*
X61120589Y-36350995D01*
X61120589Y-36350995D02*
X61025351Y-36303376D01*
X61025351Y-36303376D02*
X60882494Y-36303376D01*
X60882494Y-36303376D02*
X60787256Y-36350995D01*
X60787256Y-36350995D02*
X60739637Y-36398614D01*
X62358685Y-36922424D02*
X62453923Y-36970043D01*
X62453923Y-36970043D02*
X62644399Y-36970043D01*
X62644399Y-36970043D02*
X62739637Y-36922424D01*
X62739637Y-36922424D02*
X62787256Y-36827185D01*
X62787256Y-36827185D02*
X62787256Y-36779566D01*
X62787256Y-36779566D02*
X62739637Y-36684328D01*
X62739637Y-36684328D02*
X62644399Y-36636709D01*
X62644399Y-36636709D02*
X62501542Y-36636709D01*
X62501542Y-36636709D02*
X62406304Y-36589090D01*
X62406304Y-36589090D02*
X62358685Y-36493852D01*
X62358685Y-36493852D02*
X62358685Y-36446233D01*
X62358685Y-36446233D02*
X62406304Y-36350995D01*
X62406304Y-36350995D02*
X62501542Y-36303376D01*
X62501542Y-36303376D02*
X62644399Y-36303376D01*
X62644399Y-36303376D02*
X62739637Y-36350995D01*
X63215828Y-36970043D02*
X63215828Y-36303376D01*
X63215828Y-35970043D02*
X63168209Y-36017662D01*
X63168209Y-36017662D02*
X63215828Y-36065281D01*
X63215828Y-36065281D02*
X63263447Y-36017662D01*
X63263447Y-36017662D02*
X63215828Y-35970043D01*
X63215828Y-35970043D02*
X63215828Y-36065281D01*
X64120589Y-36970043D02*
X64120589Y-35970043D01*
X64120589Y-36922424D02*
X64025351Y-36970043D01*
X64025351Y-36970043D02*
X63834875Y-36970043D01*
X63834875Y-36970043D02*
X63739637Y-36922424D01*
X63739637Y-36922424D02*
X63692018Y-36874804D01*
X63692018Y-36874804D02*
X63644399Y-36779566D01*
X63644399Y-36779566D02*
X63644399Y-36493852D01*
X63644399Y-36493852D02*
X63692018Y-36398614D01*
X63692018Y-36398614D02*
X63739637Y-36350995D01*
X63739637Y-36350995D02*
X63834875Y-36303376D01*
X63834875Y-36303376D02*
X64025351Y-36303376D01*
X64025351Y-36303376D02*
X64120589Y-36350995D01*
X64977732Y-36922424D02*
X64882494Y-36970043D01*
X64882494Y-36970043D02*
X64692018Y-36970043D01*
X64692018Y-36970043D02*
X64596780Y-36922424D01*
X64596780Y-36922424D02*
X64549161Y-36827185D01*
X64549161Y-36827185D02*
X64549161Y-36446233D01*
X64549161Y-36446233D02*
X64596780Y-36350995D01*
X64596780Y-36350995D02*
X64692018Y-36303376D01*
X64692018Y-36303376D02*
X64882494Y-36303376D01*
X64882494Y-36303376D02*
X64977732Y-36350995D01*
X64977732Y-36350995D02*
X65025351Y-36446233D01*
X65025351Y-36446233D02*
X65025351Y-36541471D01*
X65025351Y-36541471D02*
X64549161Y-36636709D01*
X56025350Y-37913320D02*
X56025350Y-38579987D01*
X55787255Y-37532368D02*
X55549160Y-38246653D01*
X55549160Y-38246653D02*
X56168207Y-38246653D01*
X56549160Y-38579987D02*
X56549160Y-37913320D01*
X56549160Y-38008558D02*
X56596779Y-37960939D01*
X56596779Y-37960939D02*
X56692017Y-37913320D01*
X56692017Y-37913320D02*
X56834874Y-37913320D01*
X56834874Y-37913320D02*
X56930112Y-37960939D01*
X56930112Y-37960939D02*
X56977731Y-38056177D01*
X56977731Y-38056177D02*
X56977731Y-38579987D01*
X56977731Y-38056177D02*
X57025350Y-37960939D01*
X57025350Y-37960939D02*
X57120588Y-37913320D01*
X57120588Y-37913320D02*
X57263445Y-37913320D01*
X57263445Y-37913320D02*
X57358684Y-37960939D01*
X57358684Y-37960939D02*
X57406303Y-38056177D01*
X57406303Y-38056177D02*
X57406303Y-38579987D01*
X57882493Y-38579987D02*
X57882493Y-37913320D01*
X57882493Y-38008558D02*
X57930112Y-37960939D01*
X57930112Y-37960939D02*
X58025350Y-37913320D01*
X58025350Y-37913320D02*
X58168207Y-37913320D01*
X58168207Y-37913320D02*
X58263445Y-37960939D01*
X58263445Y-37960939D02*
X58311064Y-38056177D01*
X58311064Y-38056177D02*
X58311064Y-38579987D01*
X58311064Y-38056177D02*
X58358683Y-37960939D01*
X58358683Y-37960939D02*
X58453921Y-37913320D01*
X58453921Y-37913320D02*
X58596778Y-37913320D01*
X58596778Y-37913320D02*
X58692017Y-37960939D01*
X58692017Y-37960939D02*
X58739636Y-38056177D01*
X58739636Y-38056177D02*
X58739636Y-38579987D01*
X59834874Y-37913320D02*
X60215826Y-37913320D01*
X59977731Y-37579987D02*
X59977731Y-38437129D01*
X59977731Y-38437129D02*
X60025350Y-38532368D01*
X60025350Y-38532368D02*
X60120588Y-38579987D01*
X60120588Y-38579987D02*
X60215826Y-38579987D01*
X60977731Y-38579987D02*
X60977731Y-38056177D01*
X60977731Y-38056177D02*
X60930112Y-37960939D01*
X60930112Y-37960939D02*
X60834874Y-37913320D01*
X60834874Y-37913320D02*
X60644398Y-37913320D01*
X60644398Y-37913320D02*
X60549160Y-37960939D01*
X60977731Y-38532368D02*
X60882493Y-38579987D01*
X60882493Y-38579987D02*
X60644398Y-38579987D01*
X60644398Y-38579987D02*
X60549160Y-38532368D01*
X60549160Y-38532368D02*
X60501541Y-38437129D01*
X60501541Y-38437129D02*
X60501541Y-38341891D01*
X60501541Y-38341891D02*
X60549160Y-38246653D01*
X60549160Y-38246653D02*
X60644398Y-38199034D01*
X60644398Y-38199034D02*
X60882493Y-38199034D01*
X60882493Y-38199034D02*
X60977731Y-38151415D01*
X61596779Y-38579987D02*
X61501541Y-38532368D01*
X61501541Y-38532368D02*
X61453922Y-38437129D01*
X61453922Y-38437129D02*
X61453922Y-37579987D01*
X62120589Y-38579987D02*
X62025351Y-38532368D01*
X62025351Y-38532368D02*
X61977732Y-38437129D01*
X61977732Y-38437129D02*
X61977732Y-37579987D01*
X56120588Y-40189931D02*
X55549160Y-40189931D01*
X55834874Y-40189931D02*
X55834874Y-39189931D01*
X55834874Y-39189931D02*
X55739636Y-39332788D01*
X55739636Y-39332788D02*
X55644398Y-39428026D01*
X55644398Y-39428026D02*
X55549160Y-39475645D01*
X56549160Y-40189931D02*
X56549160Y-39523264D01*
X56549160Y-39618502D02*
X56596779Y-39570883D01*
X56596779Y-39570883D02*
X56692017Y-39523264D01*
X56692017Y-39523264D02*
X56834874Y-39523264D01*
X56834874Y-39523264D02*
X56930112Y-39570883D01*
X56930112Y-39570883D02*
X56977731Y-39666121D01*
X56977731Y-39666121D02*
X56977731Y-40189931D01*
X56977731Y-39666121D02*
X57025350Y-39570883D01*
X57025350Y-39570883D02*
X57120588Y-39523264D01*
X57120588Y-39523264D02*
X57263445Y-39523264D01*
X57263445Y-39523264D02*
X57358684Y-39570883D01*
X57358684Y-39570883D02*
X57406303Y-39666121D01*
X57406303Y-39666121D02*
X57406303Y-40189931D01*
X57882493Y-40189931D02*
X57882493Y-39523264D01*
X57882493Y-39618502D02*
X57930112Y-39570883D01*
X57930112Y-39570883D02*
X58025350Y-39523264D01*
X58025350Y-39523264D02*
X58168207Y-39523264D01*
X58168207Y-39523264D02*
X58263445Y-39570883D01*
X58263445Y-39570883D02*
X58311064Y-39666121D01*
X58311064Y-39666121D02*
X58311064Y-40189931D01*
X58311064Y-39666121D02*
X58358683Y-39570883D01*
X58358683Y-39570883D02*
X58453921Y-39523264D01*
X58453921Y-39523264D02*
X58596778Y-39523264D01*
X58596778Y-39523264D02*
X58692017Y-39570883D01*
X58692017Y-39570883D02*
X58739636Y-39666121D01*
X58739636Y-39666121D02*
X58739636Y-40189931D01*
X59834874Y-39523264D02*
X60215826Y-39523264D01*
X59977731Y-40189931D02*
X59977731Y-39332788D01*
X59977731Y-39332788D02*
X60025350Y-39237550D01*
X60025350Y-39237550D02*
X60120588Y-39189931D01*
X60120588Y-39189931D02*
X60215826Y-39189931D01*
X60549160Y-40189931D02*
X60549160Y-39523264D01*
X60549160Y-39713740D02*
X60596779Y-39618502D01*
X60596779Y-39618502D02*
X60644398Y-39570883D01*
X60644398Y-39570883D02*
X60739636Y-39523264D01*
X60739636Y-39523264D02*
X60834874Y-39523264D01*
X61311065Y-40189931D02*
X61215827Y-40142312D01*
X61215827Y-40142312D02*
X61168208Y-40094692D01*
X61168208Y-40094692D02*
X61120589Y-39999454D01*
X61120589Y-39999454D02*
X61120589Y-39713740D01*
X61120589Y-39713740D02*
X61168208Y-39618502D01*
X61168208Y-39618502D02*
X61215827Y-39570883D01*
X61215827Y-39570883D02*
X61311065Y-39523264D01*
X61311065Y-39523264D02*
X61453922Y-39523264D01*
X61453922Y-39523264D02*
X61549160Y-39570883D01*
X61549160Y-39570883D02*
X61596779Y-39618502D01*
X61596779Y-39618502D02*
X61644398Y-39713740D01*
X61644398Y-39713740D02*
X61644398Y-39999454D01*
X61644398Y-39999454D02*
X61596779Y-40094692D01*
X61596779Y-40094692D02*
X61549160Y-40142312D01*
X61549160Y-40142312D02*
X61453922Y-40189931D01*
X61453922Y-40189931D02*
X61311065Y-40189931D01*
X62072970Y-40189931D02*
X62072970Y-39523264D01*
X62072970Y-39618502D02*
X62120589Y-39570883D01*
X62120589Y-39570883D02*
X62215827Y-39523264D01*
X62215827Y-39523264D02*
X62358684Y-39523264D01*
X62358684Y-39523264D02*
X62453922Y-39570883D01*
X62453922Y-39570883D02*
X62501541Y-39666121D01*
X62501541Y-39666121D02*
X62501541Y-40189931D01*
X62501541Y-39666121D02*
X62549160Y-39570883D01*
X62549160Y-39570883D02*
X62644398Y-39523264D01*
X62644398Y-39523264D02*
X62787255Y-39523264D01*
X62787255Y-39523264D02*
X62882494Y-39570883D01*
X62882494Y-39570883D02*
X62930113Y-39666121D01*
X62930113Y-39666121D02*
X62930113Y-40189931D01*
X64168208Y-40189931D02*
X64168208Y-39189931D01*
X64168208Y-39570883D02*
X64263446Y-39523264D01*
X64263446Y-39523264D02*
X64453922Y-39523264D01*
X64453922Y-39523264D02*
X64549160Y-39570883D01*
X64549160Y-39570883D02*
X64596779Y-39618502D01*
X64596779Y-39618502D02*
X64644398Y-39713740D01*
X64644398Y-39713740D02*
X64644398Y-39999454D01*
X64644398Y-39999454D02*
X64596779Y-40094692D01*
X64596779Y-40094692D02*
X64549160Y-40142312D01*
X64549160Y-40142312D02*
X64453922Y-40189931D01*
X64453922Y-40189931D02*
X64263446Y-40189931D01*
X64263446Y-40189931D02*
X64168208Y-40142312D01*
X65215827Y-40189931D02*
X65120589Y-40142312D01*
X65120589Y-40142312D02*
X65072970Y-40094692D01*
X65072970Y-40094692D02*
X65025351Y-39999454D01*
X65025351Y-39999454D02*
X65025351Y-39713740D01*
X65025351Y-39713740D02*
X65072970Y-39618502D01*
X65072970Y-39618502D02*
X65120589Y-39570883D01*
X65120589Y-39570883D02*
X65215827Y-39523264D01*
X65215827Y-39523264D02*
X65358684Y-39523264D01*
X65358684Y-39523264D02*
X65453922Y-39570883D01*
X65453922Y-39570883D02*
X65501541Y-39618502D01*
X65501541Y-39618502D02*
X65549160Y-39713740D01*
X65549160Y-39713740D02*
X65549160Y-39999454D01*
X65549160Y-39999454D02*
X65501541Y-40094692D01*
X65501541Y-40094692D02*
X65453922Y-40142312D01*
X65453922Y-40142312D02*
X65358684Y-40189931D01*
X65358684Y-40189931D02*
X65215827Y-40189931D01*
X65834875Y-39523264D02*
X66215827Y-39523264D01*
X65977732Y-39189931D02*
X65977732Y-40047073D01*
X65977732Y-40047073D02*
X66025351Y-40142312D01*
X66025351Y-40142312D02*
X66120589Y-40189931D01*
X66120589Y-40189931D02*
X66215827Y-40189931D01*
X66406304Y-39523264D02*
X66787256Y-39523264D01*
X66549161Y-39189931D02*
X66549161Y-40047073D01*
X66549161Y-40047073D02*
X66596780Y-40142312D01*
X66596780Y-40142312D02*
X66692018Y-40189931D01*
X66692018Y-40189931D02*
X66787256Y-40189931D01*
X67263447Y-40189931D02*
X67168209Y-40142312D01*
X67168209Y-40142312D02*
X67120590Y-40094692D01*
X67120590Y-40094692D02*
X67072971Y-39999454D01*
X67072971Y-39999454D02*
X67072971Y-39713740D01*
X67072971Y-39713740D02*
X67120590Y-39618502D01*
X67120590Y-39618502D02*
X67168209Y-39570883D01*
X67168209Y-39570883D02*
X67263447Y-39523264D01*
X67263447Y-39523264D02*
X67406304Y-39523264D01*
X67406304Y-39523264D02*
X67501542Y-39570883D01*
X67501542Y-39570883D02*
X67549161Y-39618502D01*
X67549161Y-39618502D02*
X67596780Y-39713740D01*
X67596780Y-39713740D02*
X67596780Y-39999454D01*
X67596780Y-39999454D02*
X67549161Y-40094692D01*
X67549161Y-40094692D02*
X67501542Y-40142312D01*
X67501542Y-40142312D02*
X67406304Y-40189931D01*
X67406304Y-40189931D02*
X67263447Y-40189931D01*
X68025352Y-40189931D02*
X68025352Y-39523264D01*
X68025352Y-39618502D02*
X68072971Y-39570883D01*
X68072971Y-39570883D02*
X68168209Y-39523264D01*
X68168209Y-39523264D02*
X68311066Y-39523264D01*
X68311066Y-39523264D02*
X68406304Y-39570883D01*
X68406304Y-39570883D02*
X68453923Y-39666121D01*
X68453923Y-39666121D02*
X68453923Y-40189931D01*
X68453923Y-39666121D02*
X68501542Y-39570883D01*
X68501542Y-39570883D02*
X68596780Y-39523264D01*
X68596780Y-39523264D02*
X68739637Y-39523264D01*
X68739637Y-39523264D02*
X68834876Y-39570883D01*
X68834876Y-39570883D02*
X68882495Y-39666121D01*
X68882495Y-39666121D02*
X68882495Y-40189931D01*
X56120588Y-41799875D02*
X55549160Y-41799875D01*
X55834874Y-41799875D02*
X55834874Y-40799875D01*
X55834874Y-40799875D02*
X55739636Y-40942732D01*
X55739636Y-40942732D02*
X55644398Y-41037970D01*
X55644398Y-41037970D02*
X55549160Y-41085589D01*
X56549160Y-41799875D02*
X56549160Y-41133208D01*
X56549160Y-41228446D02*
X56596779Y-41180827D01*
X56596779Y-41180827D02*
X56692017Y-41133208D01*
X56692017Y-41133208D02*
X56834874Y-41133208D01*
X56834874Y-41133208D02*
X56930112Y-41180827D01*
X56930112Y-41180827D02*
X56977731Y-41276065D01*
X56977731Y-41276065D02*
X56977731Y-41799875D01*
X56977731Y-41276065D02*
X57025350Y-41180827D01*
X57025350Y-41180827D02*
X57120588Y-41133208D01*
X57120588Y-41133208D02*
X57263445Y-41133208D01*
X57263445Y-41133208D02*
X57358684Y-41180827D01*
X57358684Y-41180827D02*
X57406303Y-41276065D01*
X57406303Y-41276065D02*
X57406303Y-41799875D01*
X57882493Y-41799875D02*
X57882493Y-41133208D01*
X57882493Y-41228446D02*
X57930112Y-41180827D01*
X57930112Y-41180827D02*
X58025350Y-41133208D01*
X58025350Y-41133208D02*
X58168207Y-41133208D01*
X58168207Y-41133208D02*
X58263445Y-41180827D01*
X58263445Y-41180827D02*
X58311064Y-41276065D01*
X58311064Y-41276065D02*
X58311064Y-41799875D01*
X58311064Y-41276065D02*
X58358683Y-41180827D01*
X58358683Y-41180827D02*
X58453921Y-41133208D01*
X58453921Y-41133208D02*
X58596778Y-41133208D01*
X58596778Y-41133208D02*
X58692017Y-41180827D01*
X58692017Y-41180827D02*
X58739636Y-41276065D01*
X58739636Y-41276065D02*
X58739636Y-41799875D01*
X59834874Y-41133208D02*
X60215826Y-41133208D01*
X59977731Y-41799875D02*
X59977731Y-40942732D01*
X59977731Y-40942732D02*
X60025350Y-40847494D01*
X60025350Y-40847494D02*
X60120588Y-40799875D01*
X60120588Y-40799875D02*
X60215826Y-40799875D01*
X60549160Y-41799875D02*
X60549160Y-41133208D01*
X60549160Y-41323684D02*
X60596779Y-41228446D01*
X60596779Y-41228446D02*
X60644398Y-41180827D01*
X60644398Y-41180827D02*
X60739636Y-41133208D01*
X60739636Y-41133208D02*
X60834874Y-41133208D01*
X61311065Y-41799875D02*
X61215827Y-41752256D01*
X61215827Y-41752256D02*
X61168208Y-41704636D01*
X61168208Y-41704636D02*
X61120589Y-41609398D01*
X61120589Y-41609398D02*
X61120589Y-41323684D01*
X61120589Y-41323684D02*
X61168208Y-41228446D01*
X61168208Y-41228446D02*
X61215827Y-41180827D01*
X61215827Y-41180827D02*
X61311065Y-41133208D01*
X61311065Y-41133208D02*
X61453922Y-41133208D01*
X61453922Y-41133208D02*
X61549160Y-41180827D01*
X61549160Y-41180827D02*
X61596779Y-41228446D01*
X61596779Y-41228446D02*
X61644398Y-41323684D01*
X61644398Y-41323684D02*
X61644398Y-41609398D01*
X61644398Y-41609398D02*
X61596779Y-41704636D01*
X61596779Y-41704636D02*
X61549160Y-41752256D01*
X61549160Y-41752256D02*
X61453922Y-41799875D01*
X61453922Y-41799875D02*
X61311065Y-41799875D01*
X62072970Y-41799875D02*
X62072970Y-41133208D01*
X62072970Y-41228446D02*
X62120589Y-41180827D01*
X62120589Y-41180827D02*
X62215827Y-41133208D01*
X62215827Y-41133208D02*
X62358684Y-41133208D01*
X62358684Y-41133208D02*
X62453922Y-41180827D01*
X62453922Y-41180827D02*
X62501541Y-41276065D01*
X62501541Y-41276065D02*
X62501541Y-41799875D01*
X62501541Y-41276065D02*
X62549160Y-41180827D01*
X62549160Y-41180827D02*
X62644398Y-41133208D01*
X62644398Y-41133208D02*
X62787255Y-41133208D01*
X62787255Y-41133208D02*
X62882494Y-41180827D01*
X62882494Y-41180827D02*
X62930113Y-41276065D01*
X62930113Y-41276065D02*
X62930113Y-41799875D01*
X64168208Y-41799875D02*
X64168208Y-40799875D01*
X64263446Y-41418922D02*
X64549160Y-41799875D01*
X64549160Y-41133208D02*
X64168208Y-41514160D01*
X65358684Y-41752256D02*
X65263446Y-41799875D01*
X65263446Y-41799875D02*
X65072970Y-41799875D01*
X65072970Y-41799875D02*
X64977732Y-41752256D01*
X64977732Y-41752256D02*
X64930113Y-41657017D01*
X64930113Y-41657017D02*
X64930113Y-41276065D01*
X64930113Y-41276065D02*
X64977732Y-41180827D01*
X64977732Y-41180827D02*
X65072970Y-41133208D01*
X65072970Y-41133208D02*
X65263446Y-41133208D01*
X65263446Y-41133208D02*
X65358684Y-41180827D01*
X65358684Y-41180827D02*
X65406303Y-41276065D01*
X65406303Y-41276065D02*
X65406303Y-41371303D01*
X65406303Y-41371303D02*
X64930113Y-41466541D01*
X65739637Y-41133208D02*
X65977732Y-41799875D01*
X66215827Y-41133208D02*
X65977732Y-41799875D01*
X65977732Y-41799875D02*
X65882494Y-42037970D01*
X65882494Y-42037970D02*
X65834875Y-42085589D01*
X65834875Y-42085589D02*
X65739637Y-42133208D01*
X66977732Y-41752256D02*
X66882494Y-41799875D01*
X66882494Y-41799875D02*
X66692018Y-41799875D01*
X66692018Y-41799875D02*
X66596780Y-41752256D01*
X66596780Y-41752256D02*
X66549161Y-41657017D01*
X66549161Y-41657017D02*
X66549161Y-41276065D01*
X66549161Y-41276065D02*
X66596780Y-41180827D01*
X66596780Y-41180827D02*
X66692018Y-41133208D01*
X66692018Y-41133208D02*
X66882494Y-41133208D01*
X66882494Y-41133208D02*
X66977732Y-41180827D01*
X66977732Y-41180827D02*
X67025351Y-41276065D01*
X67025351Y-41276065D02*
X67025351Y-41371303D01*
X67025351Y-41371303D02*
X66549161Y-41466541D01*
X67882494Y-41799875D02*
X67882494Y-40799875D01*
X67882494Y-41752256D02*
X67787256Y-41799875D01*
X67787256Y-41799875D02*
X67596780Y-41799875D01*
X67596780Y-41799875D02*
X67501542Y-41752256D01*
X67501542Y-41752256D02*
X67453923Y-41704636D01*
X67453923Y-41704636D02*
X67406304Y-41609398D01*
X67406304Y-41609398D02*
X67406304Y-41323684D01*
X67406304Y-41323684D02*
X67453923Y-41228446D01*
X67453923Y-41228446D02*
X67501542Y-41180827D01*
X67501542Y-41180827D02*
X67596780Y-41133208D01*
X67596780Y-41133208D02*
X67787256Y-41133208D01*
X67787256Y-41133208D02*
X67882494Y-41180827D01*
X69501542Y-41752256D02*
X69406304Y-41799875D01*
X69406304Y-41799875D02*
X69215828Y-41799875D01*
X69215828Y-41799875D02*
X69120590Y-41752256D01*
X69120590Y-41752256D02*
X69072971Y-41657017D01*
X69072971Y-41657017D02*
X69072971Y-41276065D01*
X69072971Y-41276065D02*
X69120590Y-41180827D01*
X69120590Y-41180827D02*
X69215828Y-41133208D01*
X69215828Y-41133208D02*
X69406304Y-41133208D01*
X69406304Y-41133208D02*
X69501542Y-41180827D01*
X69501542Y-41180827D02*
X69549161Y-41276065D01*
X69549161Y-41276065D02*
X69549161Y-41371303D01*
X69549161Y-41371303D02*
X69072971Y-41466541D01*
X70406304Y-41799875D02*
X70406304Y-40799875D01*
X70406304Y-41752256D02*
X70311066Y-41799875D01*
X70311066Y-41799875D02*
X70120590Y-41799875D01*
X70120590Y-41799875D02*
X70025352Y-41752256D01*
X70025352Y-41752256D02*
X69977733Y-41704636D01*
X69977733Y-41704636D02*
X69930114Y-41609398D01*
X69930114Y-41609398D02*
X69930114Y-41323684D01*
X69930114Y-41323684D02*
X69977733Y-41228446D01*
X69977733Y-41228446D02*
X70025352Y-41180827D01*
X70025352Y-41180827D02*
X70120590Y-41133208D01*
X70120590Y-41133208D02*
X70311066Y-41133208D01*
X70311066Y-41133208D02*
X70406304Y-41180827D01*
X71311066Y-41133208D02*
X71311066Y-41942732D01*
X71311066Y-41942732D02*
X71263447Y-42037970D01*
X71263447Y-42037970D02*
X71215828Y-42085589D01*
X71215828Y-42085589D02*
X71120590Y-42133208D01*
X71120590Y-42133208D02*
X70977733Y-42133208D01*
X70977733Y-42133208D02*
X70882495Y-42085589D01*
X71311066Y-41752256D02*
X71215828Y-41799875D01*
X71215828Y-41799875D02*
X71025352Y-41799875D01*
X71025352Y-41799875D02*
X70930114Y-41752256D01*
X70930114Y-41752256D02*
X70882495Y-41704636D01*
X70882495Y-41704636D02*
X70834876Y-41609398D01*
X70834876Y-41609398D02*
X70834876Y-41323684D01*
X70834876Y-41323684D02*
X70882495Y-41228446D01*
X70882495Y-41228446D02*
X70930114Y-41180827D01*
X70930114Y-41180827D02*
X71025352Y-41133208D01*
X71025352Y-41133208D02*
X71215828Y-41133208D01*
X71215828Y-41133208D02*
X71311066Y-41180827D01*
X72168209Y-41752256D02*
X72072971Y-41799875D01*
X72072971Y-41799875D02*
X71882495Y-41799875D01*
X71882495Y-41799875D02*
X71787257Y-41752256D01*
X71787257Y-41752256D02*
X71739638Y-41657017D01*
X71739638Y-41657017D02*
X71739638Y-41276065D01*
X71739638Y-41276065D02*
X71787257Y-41180827D01*
X71787257Y-41180827D02*
X71882495Y-41133208D01*
X71882495Y-41133208D02*
X72072971Y-41133208D01*
X72072971Y-41133208D02*
X72168209Y-41180827D01*
X72168209Y-41180827D02*
X72215828Y-41276065D01*
X72215828Y-41276065D02*
X72215828Y-41371303D01*
X72215828Y-41371303D02*
X71739638Y-41466541D01*
X55501541Y-42409819D02*
X56168207Y-42409819D01*
X56168207Y-42409819D02*
X55739636Y-43409819D01*
X56549160Y-43314580D02*
X56596779Y-43362200D01*
X56596779Y-43362200D02*
X56549160Y-43409819D01*
X56549160Y-43409819D02*
X56501541Y-43362200D01*
X56501541Y-43362200D02*
X56549160Y-43314580D01*
X56549160Y-43314580D02*
X56549160Y-43409819D01*
X57501540Y-42409819D02*
X57025350Y-42409819D01*
X57025350Y-42409819D02*
X56977731Y-42886009D01*
X56977731Y-42886009D02*
X57025350Y-42838390D01*
X57025350Y-42838390D02*
X57120588Y-42790771D01*
X57120588Y-42790771D02*
X57358683Y-42790771D01*
X57358683Y-42790771D02*
X57453921Y-42838390D01*
X57453921Y-42838390D02*
X57501540Y-42886009D01*
X57501540Y-42886009D02*
X57549159Y-42981247D01*
X57549159Y-42981247D02*
X57549159Y-43219342D01*
X57549159Y-43219342D02*
X57501540Y-43314580D01*
X57501540Y-43314580D02*
X57453921Y-43362200D01*
X57453921Y-43362200D02*
X57358683Y-43409819D01*
X57358683Y-43409819D02*
X57120588Y-43409819D01*
X57120588Y-43409819D02*
X57025350Y-43362200D01*
X57025350Y-43362200D02*
X56977731Y-43314580D01*
X57977731Y-43409819D02*
X57977731Y-42743152D01*
X57977731Y-42838390D02*
X58025350Y-42790771D01*
X58025350Y-42790771D02*
X58120588Y-42743152D01*
X58120588Y-42743152D02*
X58263445Y-42743152D01*
X58263445Y-42743152D02*
X58358683Y-42790771D01*
X58358683Y-42790771D02*
X58406302Y-42886009D01*
X58406302Y-42886009D02*
X58406302Y-43409819D01*
X58406302Y-42886009D02*
X58453921Y-42790771D01*
X58453921Y-42790771D02*
X58549159Y-42743152D01*
X58549159Y-42743152D02*
X58692016Y-42743152D01*
X58692016Y-42743152D02*
X58787255Y-42790771D01*
X58787255Y-42790771D02*
X58834874Y-42886009D01*
X58834874Y-42886009D02*
X58834874Y-43409819D01*
X59311064Y-43409819D02*
X59311064Y-42743152D01*
X59311064Y-42838390D02*
X59358683Y-42790771D01*
X59358683Y-42790771D02*
X59453921Y-42743152D01*
X59453921Y-42743152D02*
X59596778Y-42743152D01*
X59596778Y-42743152D02*
X59692016Y-42790771D01*
X59692016Y-42790771D02*
X59739635Y-42886009D01*
X59739635Y-42886009D02*
X59739635Y-43409819D01*
X59739635Y-42886009D02*
X59787254Y-42790771D01*
X59787254Y-42790771D02*
X59882492Y-42743152D01*
X59882492Y-42743152D02*
X60025349Y-42743152D01*
X60025349Y-42743152D02*
X60120588Y-42790771D01*
X60120588Y-42790771D02*
X60168207Y-42886009D01*
X60168207Y-42886009D02*
X60168207Y-43409819D01*
X61263445Y-42743152D02*
X61644397Y-42743152D01*
X61406302Y-42409819D02*
X61406302Y-43266961D01*
X61406302Y-43266961D02*
X61453921Y-43362200D01*
X61453921Y-43362200D02*
X61549159Y-43409819D01*
X61549159Y-43409819D02*
X61644397Y-43409819D01*
X61977731Y-43409819D02*
X61977731Y-42409819D01*
X62406302Y-43409819D02*
X62406302Y-42886009D01*
X62406302Y-42886009D02*
X62358683Y-42790771D01*
X62358683Y-42790771D02*
X62263445Y-42743152D01*
X62263445Y-42743152D02*
X62120588Y-42743152D01*
X62120588Y-42743152D02*
X62025350Y-42790771D01*
X62025350Y-42790771D02*
X61977731Y-42838390D01*
X62882493Y-43409819D02*
X62882493Y-42743152D01*
X62882493Y-42409819D02*
X62834874Y-42457438D01*
X62834874Y-42457438D02*
X62882493Y-42505057D01*
X62882493Y-42505057D02*
X62930112Y-42457438D01*
X62930112Y-42457438D02*
X62882493Y-42409819D01*
X62882493Y-42409819D02*
X62882493Y-42505057D01*
X63787254Y-43362200D02*
X63692016Y-43409819D01*
X63692016Y-43409819D02*
X63501540Y-43409819D01*
X63501540Y-43409819D02*
X63406302Y-43362200D01*
X63406302Y-43362200D02*
X63358683Y-43314580D01*
X63358683Y-43314580D02*
X63311064Y-43219342D01*
X63311064Y-43219342D02*
X63311064Y-42933628D01*
X63311064Y-42933628D02*
X63358683Y-42838390D01*
X63358683Y-42838390D02*
X63406302Y-42790771D01*
X63406302Y-42790771D02*
X63501540Y-42743152D01*
X63501540Y-42743152D02*
X63692016Y-42743152D01*
X63692016Y-42743152D02*
X63787254Y-42790771D01*
X64215826Y-43409819D02*
X64215826Y-42409819D01*
X64311064Y-43028866D02*
X64596778Y-43409819D01*
X64596778Y-42743152D02*
X64215826Y-43124104D01*
M02*
