M48
; DRILL file {KiCad 8.0.2-1} date 2024-05-31T21:31:19-0400
; FORMAT={-:-/ absolute / inch / decimal}
; #@! TF.CreationDate,2024-05-31T21:31:19-04:00
; #@! TF.GenerationSoftware,Kicad,Pcbnew,8.0.2-1
; #@! TF.FileFunction,Plated,1,4,PTH
FMAT,2
INCH
; #@! TA.AperFunction,Plated,PTH,ViaDrill
T1C0.0118
; #@! TA.AperFunction,Plated,PTH,ComponentDrill
T2C0.0118
; #@! TA.AperFunction,Plated,PTH,ComponentDrill
T3C0.0394
%
G90
G05
T1
X1.0303Y-1.3571
X1.0303Y-1.4972
X1.302Y-1.0512
X1.3352Y-1.4081
X1.3921Y-1.1724
X1.4889Y-1.3085
X1.563Y-1.3692
X1.5866Y-1.5551
X1.6295Y-1.3358
X1.6299Y-1.2965
X1.6654Y-1.5276
X1.6654Y-1.5551
X1.7287Y-1.2236
T2
X1.1535Y-1.3713
X1.1535Y-1.4185
X1.1535Y-1.4697
X1.1535Y-1.513
X1.2008Y-1.3713
X1.2008Y-1.4185
X1.2008Y-1.4697
X1.2008Y-1.513
T3
X1.1476Y-1.0571
X1.1476Y-1.1571
X1.1476Y-1.2571
X1.5008Y-1.4146
X1.6008Y-1.4146
X1.7008Y-1.4146
M30
