%TF.GenerationSoftware,KiCad,Pcbnew,8.0.2-1*%
%TF.CreationDate,2024-06-01T01:17:10-04:00*%
%TF.ProjectId,ez-servo,657a2d73-6572-4766-9f2e-6b696361645f,v0.0.0*%
%TF.SameCoordinates,Original*%
%TF.FileFunction,Copper,L2,Inr*%
%TF.FilePolarity,Positive*%
%FSLAX46Y46*%
G04 Gerber Fmt 4.6, Leading zero omitted, Abs format (unit mm)*
G04 Created by KiCad (PCBNEW 8.0.2-1) date 2024-06-01 01:17:10*
%MOMM*%
%LPD*%
G01*
G04 APERTURE LIST*
%TA.AperFunction,ComponentPad*%
%ADD10C,0.600000*%
%TD*%
%TA.AperFunction,ComponentPad*%
%ADD11R,1.700000X1.700000*%
%TD*%
%TA.AperFunction,ComponentPad*%
%ADD12O,1.700000X1.700000*%
%TD*%
%TA.AperFunction,ViaPad*%
%ADD13C,0.600000*%
%TD*%
%TA.AperFunction,Conductor*%
%ADD14C,0.200000*%
%TD*%
G04 APERTURE END LIST*
D10*
%TO.N,GND*%
%TO.C,U1*%
X4300000Y-9830000D03*
X4300000Y-11030000D03*
X4300000Y-12330000D03*
X4300000Y-13430000D03*
X5500000Y-9830000D03*
X5500000Y-11030000D03*
X5500000Y-12330000D03*
X5500000Y-13430000D03*
%TD*%
D11*
%TO.N,SERVO_PWM*%
%TO.C,J2*%
X4150000Y-1850000D03*
D12*
%TO.N,VOUT*%
X4150000Y-4390000D03*
%TO.N,GND*%
X4150000Y-6930000D03*
%TD*%
D11*
%TO.N,8_4V*%
%TO.C,J3*%
X18200000Y-10930000D03*
D12*
%TO.N,SENSE*%
X15660000Y-10930000D03*
%TO.N,6V*%
X13120000Y-10930000D03*
%TD*%
D13*
%TO.N,VOUT*%
X11270000Y-13890000D03*
X10750000Y-14500000D03*
X10360000Y-4780000D03*
X16159265Y-8950735D03*
X11750000Y-14500000D03*
%TO.N,GND*%
X1900000Y-15600000D03*
X11600000Y-7640000D03*
X1283883Y-15016117D03*
X13280000Y-14250000D03*
X15250000Y-14250000D03*
X8070000Y-1700000D03*
%TO.N,SERVO_PWM*%
X9280000Y-14499998D03*
%TO.N,SENSE*%
X14290000Y-9930000D03*
X1170000Y-13030000D03*
%TO.N,Net-(C2-Pad2)*%
X14190001Y-8122829D03*
X18910000Y-6080000D03*
X16050000Y-7930823D03*
%TO.N,Net-(U1-BOOT)*%
X1170000Y-9470000D03*
%TO.N,+24V*%
X9319216Y-10825929D03*
X17300000Y-14250000D03*
%TD*%
D14*
%TO.N,VOUT*%
X16159265Y-8950735D02*
X15620735Y-8950735D01*
X12150000Y-4780000D02*
X10360000Y-4780000D01*
X15620735Y-8950735D02*
X14860000Y-8190000D01*
X14860000Y-7490000D02*
X12150000Y-4780000D01*
X14860000Y-8190000D02*
X14860000Y-7490000D01*
%TO.N,+24V*%
X10935929Y-10825929D02*
X9319216Y-10825929D01*
X9323287Y-10830000D02*
X9319216Y-10825929D01*
X17300000Y-14250000D02*
X15320000Y-12270000D01*
X15320000Y-12270000D02*
X12380000Y-12270000D01*
X12380000Y-12270000D02*
X10935929Y-10825929D01*
%TD*%
%TA.AperFunction,Conductor*%
%TO.N,VOUT*%
G36*
X2868038Y-520185D02*
G01*
X2913793Y-572989D01*
X2923737Y-642147D01*
X2900265Y-698810D01*
X2880238Y-725562D01*
X2856204Y-757668D01*
X2856202Y-757671D01*
X2805908Y-892517D01*
X2803531Y-914631D01*
X2799501Y-952123D01*
X2799500Y-952135D01*
X2799500Y-2747870D01*
X2799501Y-2747876D01*
X2805908Y-2807483D01*
X2856202Y-2942328D01*
X2856206Y-2942335D01*
X2942452Y-3057544D01*
X2942455Y-3057547D01*
X3057664Y-3143793D01*
X3057671Y-3143797D01*
X3192517Y-3194091D01*
X3192516Y-3194091D01*
X3199444Y-3194835D01*
X3252127Y-3200500D01*
X5047872Y-3200499D01*
X5107483Y-3194091D01*
X5242331Y-3143796D01*
X5357546Y-3057546D01*
X5443796Y-2942331D01*
X5494091Y-2807483D01*
X5500500Y-2747873D01*
X5500499Y-1699996D01*
X7264435Y-1699996D01*
X7264435Y-1700003D01*
X7284630Y-1879249D01*
X7284631Y-1879254D01*
X7344211Y-2049523D01*
X7440184Y-2202262D01*
X7567738Y-2329816D01*
X7720478Y-2425789D01*
X7890745Y-2485368D01*
X7890750Y-2485369D01*
X8069996Y-2505565D01*
X8070000Y-2505565D01*
X8070004Y-2505565D01*
X8249249Y-2485369D01*
X8249252Y-2485368D01*
X8249255Y-2485368D01*
X8419522Y-2425789D01*
X8572262Y-2329816D01*
X8699816Y-2202262D01*
X8795789Y-2049522D01*
X8855368Y-1879255D01*
X8875565Y-1700000D01*
X8855368Y-1520745D01*
X8795789Y-1350478D01*
X8699816Y-1197738D01*
X8572262Y-1070184D01*
X8419523Y-974211D01*
X8249254Y-914631D01*
X8249249Y-914630D01*
X8070004Y-894435D01*
X8069996Y-894435D01*
X7890750Y-914630D01*
X7890745Y-914631D01*
X7720476Y-974211D01*
X7567737Y-1070184D01*
X7440184Y-1197737D01*
X7344211Y-1350476D01*
X7284631Y-1520745D01*
X7284630Y-1520750D01*
X7264435Y-1699996D01*
X5500499Y-1699996D01*
X5500499Y-952128D01*
X5494091Y-892517D01*
X5443796Y-757669D01*
X5399734Y-698810D01*
X5375317Y-633348D01*
X5390168Y-565075D01*
X5439573Y-515669D01*
X5499001Y-500500D01*
X19375500Y-500500D01*
X19442539Y-520185D01*
X19488294Y-572989D01*
X19499500Y-624500D01*
X19499500Y-5280637D01*
X19479815Y-5347676D01*
X19427011Y-5393431D01*
X19357853Y-5403375D01*
X19309529Y-5385631D01*
X19259525Y-5354212D01*
X19089254Y-5294631D01*
X19089249Y-5294630D01*
X18910004Y-5274435D01*
X18909996Y-5274435D01*
X18730750Y-5294630D01*
X18730745Y-5294631D01*
X18560476Y-5354211D01*
X18407737Y-5450184D01*
X18280184Y-5577737D01*
X18184211Y-5730476D01*
X18124631Y-5900745D01*
X18124630Y-5900750D01*
X18104435Y-6079996D01*
X18104435Y-6080003D01*
X18124630Y-6259249D01*
X18124631Y-6259254D01*
X18184211Y-6429523D01*
X18280184Y-6582262D01*
X18407738Y-6709816D01*
X18560478Y-6805789D01*
X18700063Y-6854632D01*
X18730745Y-6865368D01*
X18730750Y-6865369D01*
X18909996Y-6885565D01*
X18910000Y-6885565D01*
X18910004Y-6885565D01*
X19089249Y-6865369D01*
X19089252Y-6865368D01*
X19089255Y-6865368D01*
X19259522Y-6805789D01*
X19309527Y-6774369D01*
X19376764Y-6755368D01*
X19443599Y-6775735D01*
X19488814Y-6829003D01*
X19499500Y-6879362D01*
X19499500Y-9543568D01*
X19479815Y-9610607D01*
X19427011Y-9656362D01*
X19357853Y-9666306D01*
X19301190Y-9642835D01*
X19292334Y-9636206D01*
X19292328Y-9636202D01*
X19157482Y-9585908D01*
X19157483Y-9585908D01*
X19097883Y-9579501D01*
X19097881Y-9579500D01*
X19097873Y-9579500D01*
X19097864Y-9579500D01*
X17302129Y-9579500D01*
X17302123Y-9579501D01*
X17242516Y-9585908D01*
X17107671Y-9636202D01*
X17107664Y-9636206D01*
X16992455Y-9722452D01*
X16992452Y-9722455D01*
X16906206Y-9837664D01*
X16906203Y-9837669D01*
X16857189Y-9969083D01*
X16815317Y-10025016D01*
X16749853Y-10049433D01*
X16681580Y-10034581D01*
X16653326Y-10013430D01*
X16531402Y-9891506D01*
X16531395Y-9891501D01*
X16337834Y-9755967D01*
X16337830Y-9755965D01*
X16337828Y-9755964D01*
X16123663Y-9656097D01*
X16123659Y-9656096D01*
X16123655Y-9656094D01*
X15895413Y-9594938D01*
X15895403Y-9594936D01*
X15660001Y-9574341D01*
X15659999Y-9574341D01*
X15424596Y-9594936D01*
X15424586Y-9594938D01*
X15196344Y-9656094D01*
X15196329Y-9656100D01*
X15188049Y-9659961D01*
X15118972Y-9670450D01*
X15055189Y-9641928D01*
X15018608Y-9588533D01*
X15015789Y-9580479D01*
X15015789Y-9580477D01*
X14952955Y-9480478D01*
X14919816Y-9427738D01*
X14792262Y-9300184D01*
X14694478Y-9238742D01*
X14639523Y-9204211D01*
X14469254Y-9144631D01*
X14469250Y-9144630D01*
X14422364Y-9139348D01*
X14357950Y-9112281D01*
X14318395Y-9054686D01*
X14316258Y-8984849D01*
X14352216Y-8924943D01*
X14395294Y-8899086D01*
X14424863Y-8888739D01*
X14539523Y-8848618D01*
X14692263Y-8752645D01*
X14819817Y-8625091D01*
X14915790Y-8472351D01*
X14975369Y-8302084D01*
X14977220Y-8285659D01*
X14995566Y-8122832D01*
X14995566Y-8122825D01*
X14975370Y-7943579D01*
X14975369Y-7943574D01*
X14970906Y-7930819D01*
X15244435Y-7930819D01*
X15244435Y-7930826D01*
X15264630Y-8110072D01*
X15264631Y-8110077D01*
X15324211Y-8280346D01*
X15377898Y-8365788D01*
X15420184Y-8433085D01*
X15547738Y-8560639D01*
X15700478Y-8656612D01*
X15780549Y-8684630D01*
X15870745Y-8716191D01*
X15870750Y-8716192D01*
X16049996Y-8736388D01*
X16050000Y-8736388D01*
X16050004Y-8736388D01*
X16229249Y-8716192D01*
X16229252Y-8716191D01*
X16229255Y-8716191D01*
X16399522Y-8656612D01*
X16552262Y-8560639D01*
X16679816Y-8433085D01*
X16775789Y-8280345D01*
X16835368Y-8110078D01*
X16836049Y-8104034D01*
X16855565Y-7930826D01*
X16855565Y-7930819D01*
X16835369Y-7751573D01*
X16835368Y-7751568D01*
X16796330Y-7640003D01*
X16775789Y-7581301D01*
X16679816Y-7428561D01*
X16552262Y-7301007D01*
X16535502Y-7290476D01*
X16399523Y-7205034D01*
X16229254Y-7145454D01*
X16229249Y-7145453D01*
X16050004Y-7125258D01*
X16049996Y-7125258D01*
X15870750Y-7145453D01*
X15870745Y-7145454D01*
X15700476Y-7205034D01*
X15547737Y-7301007D01*
X15420184Y-7428560D01*
X15324211Y-7581299D01*
X15264631Y-7751568D01*
X15264630Y-7751573D01*
X15244435Y-7930819D01*
X14970906Y-7930819D01*
X14931868Y-7819255D01*
X14915790Y-7773307D01*
X14902130Y-7751568D01*
X14832029Y-7640003D01*
X14819817Y-7620567D01*
X14692263Y-7493013D01*
X14640909Y-7460745D01*
X14539524Y-7397040D01*
X14369255Y-7337460D01*
X14369250Y-7337459D01*
X14190005Y-7317264D01*
X14189997Y-7317264D01*
X14010751Y-7337459D01*
X14010746Y-7337460D01*
X13840477Y-7397040D01*
X13687738Y-7493013D01*
X13560185Y-7620566D01*
X13464212Y-7773305D01*
X13404632Y-7943574D01*
X13404631Y-7943579D01*
X13384436Y-8122825D01*
X13384436Y-8122832D01*
X13404631Y-8302078D01*
X13404632Y-8302083D01*
X13464212Y-8472352D01*
X13519686Y-8560638D01*
X13560185Y-8625091D01*
X13687739Y-8752645D01*
X13840479Y-8848618D01*
X14010746Y-8908197D01*
X14057637Y-8913480D01*
X14122048Y-8940545D01*
X14161604Y-8998140D01*
X14163743Y-9067977D01*
X14127785Y-9127883D01*
X14084707Y-9153741D01*
X13940480Y-9204208D01*
X13787737Y-9300184D01*
X13660182Y-9427739D01*
X13575034Y-9563251D01*
X13522699Y-9609541D01*
X13453646Y-9620189D01*
X13437948Y-9617053D01*
X13355413Y-9594938D01*
X13355403Y-9594936D01*
X13120001Y-9574341D01*
X13119999Y-9574341D01*
X12884596Y-9594936D01*
X12884586Y-9594938D01*
X12656344Y-9656094D01*
X12656335Y-9656098D01*
X12442171Y-9755964D01*
X12442169Y-9755965D01*
X12248597Y-9891505D01*
X12081505Y-10058597D01*
X11945965Y-10252169D01*
X11945964Y-10252171D01*
X11846098Y-10466335D01*
X11846095Y-10466341D01*
X11812817Y-10590539D01*
X11776452Y-10650199D01*
X11713605Y-10680728D01*
X11644229Y-10672433D01*
X11605361Y-10646126D01*
X11423519Y-10464284D01*
X11423517Y-10464281D01*
X11304646Y-10345410D01*
X11304638Y-10345404D01*
X11202865Y-10286646D01*
X11202863Y-10286645D01*
X11167719Y-10266354D01*
X11167718Y-10266353D01*
X11155192Y-10262996D01*
X11014986Y-10225428D01*
X10856872Y-10225428D01*
X10849276Y-10225428D01*
X10849260Y-10225429D01*
X9901628Y-10225429D01*
X9834589Y-10205744D01*
X9824313Y-10198374D01*
X9821479Y-10196114D01*
X9821478Y-10196113D01*
X9751360Y-10152055D01*
X9668739Y-10100140D01*
X9498470Y-10040560D01*
X9498465Y-10040559D01*
X9319220Y-10020364D01*
X9319212Y-10020364D01*
X9139966Y-10040559D01*
X9139961Y-10040560D01*
X8969692Y-10100140D01*
X8816953Y-10196113D01*
X8689400Y-10323666D01*
X8593427Y-10476405D01*
X8533847Y-10646674D01*
X8533846Y-10646679D01*
X8513651Y-10825925D01*
X8513651Y-10825932D01*
X8533846Y-11005178D01*
X8533847Y-11005183D01*
X8593427Y-11175452D01*
X8614667Y-11209255D01*
X8689400Y-11328191D01*
X8816954Y-11455745D01*
X8969694Y-11551718D01*
X9085725Y-11592319D01*
X9139961Y-11611297D01*
X9139966Y-11611298D01*
X9319212Y-11631494D01*
X9319216Y-11631494D01*
X9319220Y-11631494D01*
X9498465Y-11611298D01*
X9498468Y-11611297D01*
X9498471Y-11611297D01*
X9668738Y-11551718D01*
X9821478Y-11455745D01*
X9821483Y-11455739D01*
X9824313Y-11453484D01*
X9826491Y-11452594D01*
X9827374Y-11452040D01*
X9827471Y-11452194D01*
X9888999Y-11427074D01*
X9901628Y-11426429D01*
X10635832Y-11426429D01*
X10702871Y-11446114D01*
X10723512Y-11462747D01*
X12011284Y-12750520D01*
X12148215Y-12829577D01*
X12300943Y-12870501D01*
X12300946Y-12870501D01*
X12466654Y-12870501D01*
X12466670Y-12870500D01*
X15019903Y-12870500D01*
X15086942Y-12890185D01*
X15107584Y-12906819D01*
X15444803Y-13244038D01*
X15478288Y-13305361D01*
X15473304Y-13375053D01*
X15431432Y-13430986D01*
X15365968Y-13455403D01*
X15343240Y-13454939D01*
X15250005Y-13444435D01*
X15249996Y-13444435D01*
X15070750Y-13464630D01*
X15070745Y-13464631D01*
X14900476Y-13524211D01*
X14747737Y-13620184D01*
X14620184Y-13747737D01*
X14524211Y-13900476D01*
X14464631Y-14070745D01*
X14464630Y-14070750D01*
X14444435Y-14249996D01*
X14444435Y-14250003D01*
X14464630Y-14429249D01*
X14464631Y-14429254D01*
X14524211Y-14599523D01*
X14587363Y-14700028D01*
X14606363Y-14767265D01*
X14585995Y-14834100D01*
X14532727Y-14879314D01*
X14482369Y-14890000D01*
X14047631Y-14890000D01*
X13980592Y-14870315D01*
X13934837Y-14817511D01*
X13924893Y-14748353D01*
X13942637Y-14700028D01*
X14005788Y-14599523D01*
X14005789Y-14599522D01*
X14065368Y-14429255D01*
X14070208Y-14386301D01*
X14085565Y-14250003D01*
X14085565Y-14249996D01*
X14065369Y-14070750D01*
X14065368Y-14070745D01*
X14058025Y-14049759D01*
X14005789Y-13900478D01*
X13909816Y-13747738D01*
X13782262Y-13620184D01*
X13764859Y-13609249D01*
X13629523Y-13524211D01*
X13459254Y-13464631D01*
X13459249Y-13464630D01*
X13280004Y-13444435D01*
X13279996Y-13444435D01*
X13100750Y-13464630D01*
X13100745Y-13464631D01*
X12930476Y-13524211D01*
X12777737Y-13620184D01*
X12650184Y-13747737D01*
X12554211Y-13900476D01*
X12494631Y-14070745D01*
X12494630Y-14070750D01*
X12474435Y-14249996D01*
X12474435Y-14250003D01*
X12494630Y-14429249D01*
X12494631Y-14429254D01*
X12554211Y-14599523D01*
X12617363Y-14700028D01*
X12636363Y-14767265D01*
X12615995Y-14834100D01*
X12562727Y-14879314D01*
X12512369Y-14890000D01*
X10166387Y-14890000D01*
X10099348Y-14870315D01*
X10053593Y-14817511D01*
X10043649Y-14748353D01*
X10049345Y-14725046D01*
X10065367Y-14679255D01*
X10065368Y-14679253D01*
X10065369Y-14679247D01*
X10085565Y-14500001D01*
X10085565Y-14499994D01*
X10065369Y-14320748D01*
X10065368Y-14320743D01*
X10040614Y-14250000D01*
X10005789Y-14150476D01*
X9909816Y-13997736D01*
X9782262Y-13870182D01*
X9629523Y-13774209D01*
X9459254Y-13714629D01*
X9459249Y-13714628D01*
X9280004Y-13694433D01*
X9279996Y-13694433D01*
X9100750Y-13714628D01*
X9100745Y-13714629D01*
X8930476Y-13774209D01*
X8777737Y-13870182D01*
X8650184Y-13997735D01*
X8554211Y-14150474D01*
X8494631Y-14320743D01*
X8494630Y-14320748D01*
X8474435Y-14499994D01*
X8474435Y-14500001D01*
X8494630Y-14679247D01*
X8494632Y-14679255D01*
X8510655Y-14725046D01*
X8514216Y-14794825D01*
X8479487Y-14855452D01*
X8417493Y-14887679D01*
X8393613Y-14890000D01*
X2310375Y-14890000D01*
X2257042Y-14874640D01*
X2255795Y-14877231D01*
X2249529Y-14874213D01*
X2115355Y-14827264D01*
X2058579Y-14786542D01*
X2039268Y-14751176D01*
X2030125Y-14725046D01*
X2009672Y-14666595D01*
X1913699Y-14513855D01*
X1786145Y-14386301D01*
X1716166Y-14342330D01*
X1633406Y-14290328D01*
X1463137Y-14230748D01*
X1463132Y-14230747D01*
X1283887Y-14210552D01*
X1283879Y-14210552D01*
X1104633Y-14230747D01*
X1104628Y-14230748D01*
X934359Y-14290328D01*
X781620Y-14386301D01*
X712181Y-14455741D01*
X650858Y-14489226D01*
X581166Y-14484242D01*
X525233Y-14442370D01*
X500816Y-14376906D01*
X500500Y-14368060D01*
X500500Y-13779094D01*
X520185Y-13712055D01*
X572989Y-13666300D01*
X642147Y-13656356D01*
X690471Y-13674100D01*
X722831Y-13694433D01*
X820475Y-13755788D01*
X990745Y-13815368D01*
X990750Y-13815369D01*
X1169996Y-13835565D01*
X1170000Y-13835565D01*
X1170004Y-13835565D01*
X1349249Y-13815369D01*
X1349252Y-13815368D01*
X1349255Y-13815368D01*
X1519522Y-13755789D01*
X1672262Y-13659816D01*
X1799816Y-13532262D01*
X1895789Y-13379522D01*
X1955368Y-13209255D01*
X1975565Y-13030000D01*
X1966097Y-12945972D01*
X1955369Y-12850750D01*
X1955368Y-12850745D01*
X1895789Y-12680478D01*
X1895188Y-12679522D01*
X1856582Y-12618080D01*
X1799816Y-12527738D01*
X1672262Y-12400184D01*
X1649528Y-12385899D01*
X1519523Y-12304211D01*
X1349254Y-12244631D01*
X1349249Y-12244630D01*
X1170004Y-12224435D01*
X1169996Y-12224435D01*
X990750Y-12244630D01*
X990745Y-12244631D01*
X820476Y-12304211D01*
X690472Y-12385899D01*
X623235Y-12404899D01*
X556400Y-12384531D01*
X511186Y-12331263D01*
X500500Y-12280905D01*
X500500Y-10219094D01*
X520185Y-10152055D01*
X572989Y-10106300D01*
X642147Y-10096356D01*
X690471Y-10114100D01*
X728193Y-10137802D01*
X820475Y-10195788D01*
X990745Y-10255368D01*
X990750Y-10255369D01*
X1169996Y-10275565D01*
X1170000Y-10275565D01*
X1170004Y-10275565D01*
X1349249Y-10255369D01*
X1349252Y-10255368D01*
X1349255Y-10255368D01*
X1519522Y-10195789D01*
X1672262Y-10099816D01*
X1799816Y-9972262D01*
X1889208Y-9829996D01*
X3494435Y-9829996D01*
X3494435Y-9830003D01*
X3514630Y-10009249D01*
X3514631Y-10009254D01*
X3574211Y-10179523D01*
X3670184Y-10332262D01*
X3680241Y-10342319D01*
X3713726Y-10403642D01*
X3708742Y-10473334D01*
X3680241Y-10517681D01*
X3670184Y-10527737D01*
X3574211Y-10680476D01*
X3514631Y-10850745D01*
X3514630Y-10850750D01*
X3494435Y-11029996D01*
X3494435Y-11030003D01*
X3514630Y-11209249D01*
X3514631Y-11209254D01*
X3574211Y-11379523D01*
X3670184Y-11532262D01*
X3730241Y-11592319D01*
X3763726Y-11653642D01*
X3758742Y-11723334D01*
X3730241Y-11767681D01*
X3670184Y-11827737D01*
X3574211Y-11980476D01*
X3514631Y-12150745D01*
X3514630Y-12150750D01*
X3494435Y-12329996D01*
X3494435Y-12330003D01*
X3514630Y-12509249D01*
X3514631Y-12509254D01*
X3574211Y-12679523D01*
X3658727Y-12814028D01*
X3677727Y-12881264D01*
X3658727Y-12945972D01*
X3574211Y-13080476D01*
X3514631Y-13250745D01*
X3514630Y-13250750D01*
X3494435Y-13429996D01*
X3494435Y-13430003D01*
X3514630Y-13609249D01*
X3514631Y-13609254D01*
X3574211Y-13779523D01*
X3650213Y-13900478D01*
X3670184Y-13932262D01*
X3797738Y-14059816D01*
X3950478Y-14155789D01*
X4106982Y-14210552D01*
X4120745Y-14215368D01*
X4120750Y-14215369D01*
X4299996Y-14235565D01*
X4300000Y-14235565D01*
X4300004Y-14235565D01*
X4479249Y-14215369D01*
X4479252Y-14215368D01*
X4479255Y-14215368D01*
X4649522Y-14155789D01*
X4802262Y-14059816D01*
X4812319Y-14049759D01*
X4873642Y-14016274D01*
X4943334Y-14021258D01*
X4987681Y-14049759D01*
X4997738Y-14059816D01*
X5150478Y-14155789D01*
X5306982Y-14210552D01*
X5320745Y-14215368D01*
X5320750Y-14215369D01*
X5499996Y-14235565D01*
X5500000Y-14235565D01*
X5500004Y-14235565D01*
X5679249Y-14215369D01*
X5679252Y-14215368D01*
X5679255Y-14215368D01*
X5849522Y-14155789D01*
X6002262Y-14059816D01*
X6129816Y-13932262D01*
X6225789Y-13779522D01*
X6285368Y-13609255D01*
X6294950Y-13524211D01*
X6305565Y-13430003D01*
X6305565Y-13429996D01*
X6285369Y-13250750D01*
X6285368Y-13250745D01*
X6225788Y-13080475D01*
X6181957Y-13010720D01*
X6141272Y-12945970D01*
X6122272Y-12878736D01*
X6141273Y-12814028D01*
X6205667Y-12711545D01*
X6225788Y-12679524D01*
X6256801Y-12590894D01*
X6285368Y-12509255D01*
X6297126Y-12404899D01*
X6305565Y-12330003D01*
X6305565Y-12329996D01*
X6285369Y-12150750D01*
X6285368Y-12150745D01*
X6225788Y-11980476D01*
X6129815Y-11827737D01*
X6069759Y-11767681D01*
X6036274Y-11706358D01*
X6041258Y-11636666D01*
X6069759Y-11592319D01*
X6087415Y-11574663D01*
X6129816Y-11532262D01*
X6225789Y-11379522D01*
X6285368Y-11209255D01*
X6305565Y-11030000D01*
X6302768Y-11005178D01*
X6285369Y-10850750D01*
X6285368Y-10850745D01*
X6276686Y-10825932D01*
X6225789Y-10680478D01*
X6206763Y-10650199D01*
X6186582Y-10618080D01*
X6129816Y-10527738D01*
X6119759Y-10517681D01*
X6086274Y-10456358D01*
X6091258Y-10386666D01*
X6119759Y-10342319D01*
X6129816Y-10332262D01*
X6225789Y-10179522D01*
X6285368Y-10009255D01*
X6285369Y-10009249D01*
X6305565Y-9830003D01*
X6305565Y-9829996D01*
X6285369Y-9650750D01*
X6285368Y-9650745D01*
X6265840Y-9594937D01*
X6225789Y-9480478D01*
X6129816Y-9327738D01*
X6002262Y-9200184D01*
X5849523Y-9104211D01*
X5679254Y-9044631D01*
X5679249Y-9044630D01*
X5500004Y-9024435D01*
X5499996Y-9024435D01*
X5320750Y-9044630D01*
X5320745Y-9044631D01*
X5150476Y-9104211D01*
X4997737Y-9200184D01*
X4987681Y-9210241D01*
X4926358Y-9243726D01*
X4856666Y-9238742D01*
X4812319Y-9210241D01*
X4802262Y-9200184D01*
X4649523Y-9104211D01*
X4479254Y-9044631D01*
X4479249Y-9044630D01*
X4300004Y-9024435D01*
X4299996Y-9024435D01*
X4120750Y-9044630D01*
X4120745Y-9044631D01*
X3950476Y-9104211D01*
X3797737Y-9200184D01*
X3670184Y-9327737D01*
X3574211Y-9480476D01*
X3514631Y-9650745D01*
X3514630Y-9650750D01*
X3494435Y-9829996D01*
X1889208Y-9829996D01*
X1895789Y-9819522D01*
X1955368Y-9649255D01*
X1955369Y-9649249D01*
X1975565Y-9470003D01*
X1975565Y-9469996D01*
X1955369Y-9290750D01*
X1955368Y-9290745D01*
X1904241Y-9144632D01*
X1895789Y-9120478D01*
X1890638Y-9112281D01*
X1848130Y-9044630D01*
X1799816Y-8967738D01*
X1672262Y-8840184D01*
X1649528Y-8825899D01*
X1519523Y-8744211D01*
X1349254Y-8684631D01*
X1349249Y-8684630D01*
X1170004Y-8664435D01*
X1169996Y-8664435D01*
X990750Y-8684630D01*
X990745Y-8684631D01*
X820476Y-8744211D01*
X690472Y-8825899D01*
X623235Y-8844899D01*
X556400Y-8824531D01*
X511186Y-8771263D01*
X500500Y-8720905D01*
X500500Y-6929999D01*
X2794341Y-6929999D01*
X2794341Y-6930000D01*
X2814936Y-7165403D01*
X2814938Y-7165413D01*
X2876094Y-7393655D01*
X2876096Y-7393659D01*
X2876097Y-7393663D01*
X2922425Y-7493013D01*
X2975965Y-7607830D01*
X2975967Y-7607834D01*
X3076615Y-7751573D01*
X3111505Y-7801401D01*
X3278599Y-7968495D01*
X3375384Y-8036265D01*
X3472165Y-8104032D01*
X3472167Y-8104033D01*
X3472170Y-8104035D01*
X3686337Y-8203903D01*
X3914592Y-8265063D01*
X4089262Y-8280345D01*
X4149999Y-8285659D01*
X4150000Y-8285659D01*
X4150001Y-8285659D01*
X4210726Y-8280346D01*
X4385408Y-8265063D01*
X4613663Y-8203903D01*
X4827830Y-8104035D01*
X5021401Y-7968495D01*
X5188495Y-7801401D01*
X5301512Y-7639996D01*
X10794435Y-7639996D01*
X10794435Y-7640003D01*
X10814630Y-7819249D01*
X10814631Y-7819254D01*
X10874211Y-7989523D01*
X10946162Y-8104032D01*
X10970184Y-8142262D01*
X11097738Y-8269816D01*
X11250478Y-8365789D01*
X11420745Y-8425368D01*
X11420750Y-8425369D01*
X11599996Y-8445565D01*
X11600000Y-8445565D01*
X11600004Y-8445565D01*
X11779249Y-8425369D01*
X11779252Y-8425368D01*
X11779255Y-8425368D01*
X11949522Y-8365789D01*
X12102262Y-8269816D01*
X12229816Y-8142262D01*
X12325789Y-7989522D01*
X12385368Y-7819255D01*
X12387380Y-7801401D01*
X12405565Y-7640003D01*
X12405565Y-7639996D01*
X12385369Y-7460750D01*
X12385368Y-7460745D01*
X12342229Y-7337461D01*
X12325789Y-7290478D01*
X12229816Y-7137738D01*
X12102262Y-7010184D01*
X11949523Y-6914211D01*
X11779254Y-6854631D01*
X11779249Y-6854630D01*
X11600004Y-6834435D01*
X11599996Y-6834435D01*
X11420750Y-6854630D01*
X11420745Y-6854631D01*
X11250476Y-6914211D01*
X11097737Y-7010184D01*
X10970184Y-7137737D01*
X10874211Y-7290476D01*
X10814631Y-7460745D01*
X10814630Y-7460750D01*
X10794435Y-7639996D01*
X5301512Y-7639996D01*
X5324035Y-7607830D01*
X5423903Y-7393663D01*
X5485063Y-7165408D01*
X5505659Y-6930000D01*
X5485063Y-6694592D01*
X5423903Y-6466337D01*
X5324035Y-6252171D01*
X5203483Y-6080003D01*
X5188494Y-6058597D01*
X5021402Y-5891506D01*
X5021395Y-5891501D01*
X4827834Y-5755967D01*
X4827830Y-5755965D01*
X4773169Y-5730476D01*
X4613663Y-5656097D01*
X4613659Y-5656096D01*
X4613655Y-5656094D01*
X4385413Y-5594938D01*
X4385403Y-5594936D01*
X4150001Y-5574341D01*
X4149999Y-5574341D01*
X3914596Y-5594936D01*
X3914586Y-5594938D01*
X3686344Y-5656094D01*
X3686335Y-5656098D01*
X3472171Y-5755964D01*
X3472169Y-5755965D01*
X3278597Y-5891505D01*
X3111505Y-6058597D01*
X2975965Y-6252169D01*
X2975964Y-6252171D01*
X2876098Y-6466335D01*
X2876094Y-6466344D01*
X2814938Y-6694586D01*
X2814936Y-6694596D01*
X2794341Y-6929999D01*
X500500Y-6929999D01*
X500500Y-624500D01*
X520185Y-557461D01*
X572989Y-511706D01*
X624500Y-500500D01*
X2800999Y-500500D01*
X2868038Y-520185D01*
G37*
%TD.AperFunction*%
%TD*%
M02*
