%TF.GenerationSoftware,KiCad,Pcbnew,8.0.2-1*%
%TF.CreationDate,2024-05-31T22:32:28-04:00*%
%TF.ProjectId,ez-servo,657a2d73-6572-4766-9f2e-6b696361645f,v0.0.0*%
%TF.SameCoordinates,Original*%
%TF.FileFunction,Copper,L1,Top*%
%TF.FilePolarity,Positive*%
%FSLAX46Y46*%
G04 Gerber Fmt 4.6, Leading zero omitted, Abs format (unit mm)*
G04 Created by KiCad (PCBNEW 8.0.2-1) date 2024-05-31 22:32:28*
%MOMM*%
%LPD*%
G01*
G04 APERTURE LIST*
G04 Aperture macros list*
%AMRoundRect*
0 Rectangle with rounded corners*
0 $1 Rounding radius*
0 $2 $3 $4 $5 $6 $7 $8 $9 X,Y pos of 4 corners*
0 Add a 4 corners polygon primitive as box body*
4,1,4,$2,$3,$4,$5,$6,$7,$8,$9,$2,$3,0*
0 Add four circle primitives for the rounded corners*
1,1,$1+$1,$2,$3*
1,1,$1+$1,$4,$5*
1,1,$1+$1,$6,$7*
1,1,$1+$1,$8,$9*
0 Add four rect primitives between the rounded corners*
20,1,$1+$1,$2,$3,$4,$5,0*
20,1,$1+$1,$4,$5,$6,$7,0*
20,1,$1+$1,$6,$7,$8,$9,0*
20,1,$1+$1,$8,$9,$2,$3,0*%
G04 Aperture macros list end*
%TA.AperFunction,SMDPad,CuDef*%
%ADD10R,3.000000X3.500000*%
%TD*%
%TA.AperFunction,SMDPad,CuDef*%
%ADD11RoundRect,0.250000X0.475000X-0.250000X0.475000X0.250000X-0.475000X0.250000X-0.475000X-0.250000X0*%
%TD*%
%TA.AperFunction,SMDPad,CuDef*%
%ADD12RoundRect,0.250000X0.650000X-0.325000X0.650000X0.325000X-0.650000X0.325000X-0.650000X-0.325000X0*%
%TD*%
%TA.AperFunction,SMDPad,CuDef*%
%ADD13RoundRect,0.250000X-0.250000X-0.475000X0.250000X-0.475000X0.250000X0.475000X-0.250000X0.475000X0*%
%TD*%
%TA.AperFunction,SMDPad,CuDef*%
%ADD14R,1.550000X0.600000*%
%TD*%
%TA.AperFunction,ComponentPad*%
%ADD15C,0.600000*%
%TD*%
%TA.AperFunction,SMDPad,CuDef*%
%ADD16R,2.600000X3.100000*%
%TD*%
%TA.AperFunction,SMDPad,CuDef*%
%ADD17R,2.950000X4.500000*%
%TD*%
%TA.AperFunction,ComponentPad*%
%ADD18O,1.700000X1.700000*%
%TD*%
%TA.AperFunction,ComponentPad*%
%ADD19R,1.700000X1.700000*%
%TD*%
%TA.AperFunction,SMDPad,CuDef*%
%ADD20RoundRect,0.250000X-0.350000X-0.450000X0.350000X-0.450000X0.350000X0.450000X-0.350000X0.450000X0*%
%TD*%
%TA.AperFunction,SMDPad,CuDef*%
%ADD21RoundRect,0.250000X0.350000X0.450000X-0.350000X0.450000X-0.350000X-0.450000X0.350000X-0.450000X0*%
%TD*%
%TA.AperFunction,ViaPad*%
%ADD22C,0.600000*%
%TD*%
%TA.AperFunction,Conductor*%
%ADD23C,0.200000*%
%TD*%
%TA.AperFunction,Conductor*%
%ADD24C,1.000000*%
%TD*%
G04 APERTURE END LIST*
D10*
%TO.P,L1,1,1*%
%TO.N,Net-(C2-Pad2)*%
X43000000Y-29100000D03*
%TO.P,L1,2,2*%
%TO.N,VOUT*%
X37000000Y-29100000D03*
%TD*%
D11*
%TO.P,C1,1*%
%TO.N,+24V*%
X34630000Y-36520000D03*
%TO.P,C1,2*%
%TO.N,GND*%
X34630000Y-34620000D03*
%TD*%
D12*
%TO.P,C4,1*%
%TO.N,VOUT*%
X34090000Y-29095000D03*
%TO.P,C4,2*%
%TO.N,GND*%
X34090000Y-26145000D03*
%TD*%
D13*
%TO.P,C5,1*%
%TO.N,VOUT*%
X32580000Y-30920000D03*
%TO.P,C5,2*%
%TO.N,GND*%
X34480000Y-30920000D03*
%TD*%
D12*
%TO.P,C3,1*%
%TO.N,VOUT*%
X31780000Y-29095000D03*
%TO.P,C3,2*%
%TO.N,GND*%
X31780000Y-26145000D03*
%TD*%
D14*
%TO.P,U1,1,BOOT*%
%TO.N,Net-(U1-BOOT)*%
X27200000Y-34725000D03*
%TO.P,U1,2,NC*%
%TO.N,unconnected-(U1-NC-Pad2)*%
X27200000Y-35995000D03*
%TO.P,U1,3,NC*%
%TO.N,unconnected-(U1-NC-Pad3)*%
X27200000Y-37265000D03*
%TO.P,U1,4,VSENSE*%
%TO.N,SENSE*%
X27200000Y-38535000D03*
%TO.P,U1,5,EN*%
%TO.N,unconnected-(U1-EN-Pad5)*%
X32600000Y-38535000D03*
%TO.P,U1,6,GND*%
%TO.N,GND*%
X32600000Y-37265000D03*
%TO.P,U1,7,VIN*%
%TO.N,+24V*%
X32600000Y-35995000D03*
%TO.P,U1,8,PH*%
%TO.N,VOUT*%
X32600000Y-34725000D03*
D15*
%TO.P,U1,9,GNDPAD*%
%TO.N,GND*%
X29300000Y-34830000D03*
X29300000Y-36030000D03*
X29300000Y-37330000D03*
X29300000Y-38430000D03*
D16*
X29900000Y-36630000D03*
D17*
X29900000Y-36630000D03*
D15*
X30500000Y-34830000D03*
X30500000Y-36030000D03*
X30500000Y-37330000D03*
X30500000Y-38430000D03*
%TD*%
D13*
%TO.P,C6,1*%
%TO.N,VOUT*%
X32580000Y-32890000D03*
%TO.P,C6,2*%
%TO.N,GND*%
X34480000Y-32890000D03*
%TD*%
D18*
%TO.P,J2,3,Pin_3*%
%TO.N,GND*%
X29150000Y-31930000D03*
%TO.P,J2,2,Pin_2*%
%TO.N,VOUT*%
X29150000Y-29390000D03*
D19*
%TO.P,J2,1,Pin_1*%
%TO.N,SERVO_PWM*%
X29150000Y-26850000D03*
%TD*%
%TO.P,J3,1,Pin_1*%
%TO.N,8_4V*%
X43200000Y-35930000D03*
D18*
%TO.P,J3,2,Pin_2*%
%TO.N,SENSE*%
X40660000Y-35930000D03*
%TO.P,J3,3,Pin_3*%
%TO.N,6V*%
X38120000Y-35930000D03*
%TD*%
D20*
%TO.P,R1,1*%
%TO.N,VOUT*%
X41900000Y-33950000D03*
%TO.P,R1,2*%
%TO.N,8_4V*%
X43900000Y-33950000D03*
%TD*%
D21*
%TO.P,R3,2*%
%TO.N,6V*%
X38190000Y-33950000D03*
%TO.P,R3,1*%
%TO.N,VOUT*%
X40190000Y-33950000D03*
%TD*%
D22*
%TO.N,GND*%
X36600000Y-32640000D03*
X36560000Y-37080000D03*
%TO.N,VOUT*%
X35360000Y-29780000D03*
X41159265Y-33950735D03*
%TO.N,GND*%
X40300000Y-39500000D03*
X33070000Y-26700000D03*
%TO.N,SENSE*%
X39290000Y-34930000D03*
X26170000Y-38030000D03*
%TO.N,Net-(C2-Pad2)*%
X39190001Y-33122829D03*
X43910000Y-31080000D03*
X41050000Y-32930823D03*
%TO.N,Net-(U1-BOOT)*%
X26170000Y-34470000D03*
%TO.N,+24V*%
X42300000Y-38800000D03*
X42300000Y-39500000D03*
X33640000Y-36170000D03*
%TD*%
D23*
%TO.N,Net-(C2-Pad2)*%
X41050000Y-32930823D02*
X39382007Y-32930823D01*
X39382007Y-32930823D02*
X39190001Y-33122829D01*
%TO.N,SENSE*%
X39290000Y-34930000D02*
X39660000Y-34930000D01*
X39660000Y-34930000D02*
X40660000Y-35930000D01*
%TO.N,6V*%
X38190000Y-33950000D02*
X38120000Y-34020000D01*
X38120000Y-34020000D02*
X38120000Y-35930000D01*
%TO.N,+24V*%
X34320000Y-36170000D02*
X34700000Y-36550000D01*
X33640000Y-36170000D02*
X33465000Y-35995000D01*
X33640000Y-36170000D02*
X34320000Y-36170000D01*
X33465000Y-35995000D02*
X32600000Y-35995000D01*
D24*
%TO.N,VOUT*%
X37000000Y-29100000D02*
X29440000Y-29100000D01*
D23*
X35360000Y-29780000D02*
X36320000Y-29780000D01*
D24*
X31940000Y-29175000D02*
X31860000Y-29095000D01*
D23*
X42137500Y-33930000D02*
X42157500Y-33950000D01*
D24*
X29440000Y-29100000D02*
X29150000Y-29390000D01*
X32580000Y-32890000D02*
X32580000Y-29155000D01*
D23*
X40612500Y-33950000D02*
X42157500Y-33950000D01*
D24*
X32580000Y-34705000D02*
X32600000Y-34725000D01*
X32580000Y-32890000D02*
X32580000Y-34705000D01*
X31860000Y-29095000D02*
X31780000Y-29095000D01*
D23*
X36320000Y-29780000D02*
X37000000Y-29100000D01*
%TO.N,GND*%
X34480000Y-30920000D02*
X35030000Y-31470000D01*
X35030000Y-31470000D02*
X35820000Y-31470000D01*
D24*
X29300000Y-36030000D02*
X29260000Y-35990000D01*
X29260000Y-35990000D02*
X29260000Y-35460000D01*
D23*
%TO.N,8_4V*%
X43982500Y-35147500D02*
X43200000Y-35930000D01*
X43982500Y-33950000D02*
X43982500Y-35147500D01*
%TO.N,SENSE*%
X26675000Y-38535000D02*
X27200000Y-38535000D01*
X26170000Y-38030000D02*
X26675000Y-38535000D01*
%TO.N,Net-(C2-Pad2)*%
X43910000Y-30010000D02*
X43000000Y-29100000D01*
X43910000Y-31080000D02*
X43910000Y-30010000D01*
%TO.N,Net-(U1-BOOT)*%
X26170000Y-34470000D02*
X26425000Y-34725000D01*
X26425000Y-34725000D02*
X27200000Y-34725000D01*
%TD*%
%TA.AperFunction,Conductor*%
%TO.N,GND*%
G36*
X29015000Y-39410000D02*
G01*
X29015000Y-43876000D01*
X28995315Y-43943039D01*
X28942511Y-43988794D01*
X28891000Y-44000000D01*
X27639000Y-44000000D01*
X27571961Y-43980315D01*
X27526206Y-43927511D01*
X27515000Y-43876000D01*
X27515000Y-39410000D01*
X27515000Y-39400000D01*
X29015000Y-39400000D01*
X29015000Y-39410000D01*
G37*
%TD.AperFunction*%
%TD*%
%TA.AperFunction,Conductor*%
%TO.N,GND*%
G36*
X41015000Y-39390000D02*
G01*
X41015000Y-43876000D01*
X40995315Y-43943039D01*
X40942511Y-43988794D01*
X40891000Y-44000000D01*
X39639000Y-44000000D01*
X39571961Y-43980315D01*
X39526206Y-43927511D01*
X39515000Y-43876000D01*
X39515000Y-39390000D01*
X39515000Y-39300000D01*
X41015000Y-39300000D01*
X41015000Y-39390000D01*
G37*
%TD.AperFunction*%
%TD*%
%TA.AperFunction,Conductor*%
%TO.N,+24V*%
G36*
X42958039Y-38319685D02*
G01*
X43003794Y-38372489D01*
X43015000Y-38424000D01*
X43015000Y-39922185D01*
X43014500Y-39929815D01*
X43014500Y-43876000D01*
X42994815Y-43943039D01*
X42942011Y-43988794D01*
X42890500Y-44000000D01*
X41639000Y-44000000D01*
X41571961Y-43980315D01*
X41526206Y-43927511D01*
X41515000Y-43876000D01*
X41515000Y-38424000D01*
X41534685Y-38356961D01*
X41587489Y-38311206D01*
X41639000Y-38300000D01*
X42891000Y-38300000D01*
X42958039Y-38319685D01*
G37*
%TD.AperFunction*%
%TD*%
%TA.AperFunction,Conductor*%
%TO.N,GND*%
G36*
X44442539Y-25520185D02*
G01*
X44488294Y-25572989D01*
X44499500Y-25624500D01*
X44499500Y-26725500D01*
X44479815Y-26792539D01*
X44427011Y-26838294D01*
X44375500Y-26849500D01*
X41452129Y-26849500D01*
X41452123Y-26849501D01*
X41392516Y-26855908D01*
X41257671Y-26906202D01*
X41257664Y-26906206D01*
X41142455Y-26992452D01*
X41142452Y-26992455D01*
X41056206Y-27107664D01*
X41056202Y-27107671D01*
X41005908Y-27242517D01*
X41002610Y-27273200D01*
X40999501Y-27302123D01*
X40999500Y-27302135D01*
X40999500Y-30897870D01*
X40999501Y-30897876D01*
X41005908Y-30957483D01*
X41056202Y-31092328D01*
X41056206Y-31092335D01*
X41142452Y-31207544D01*
X41142455Y-31207547D01*
X41257664Y-31293793D01*
X41257671Y-31293797D01*
X41392517Y-31344091D01*
X41392516Y-31344091D01*
X41399444Y-31344835D01*
X41452127Y-31350500D01*
X43068577Y-31350499D01*
X43135616Y-31370184D01*
X43181371Y-31422987D01*
X43182930Y-31426861D01*
X43184210Y-31429521D01*
X43184211Y-31429522D01*
X43280184Y-31582262D01*
X43407738Y-31709816D01*
X43560478Y-31805789D01*
X43727333Y-31864174D01*
X43730745Y-31865368D01*
X43730750Y-31865369D01*
X43909996Y-31885565D01*
X43910000Y-31885565D01*
X43910004Y-31885565D01*
X44089249Y-31865369D01*
X44089252Y-31865368D01*
X44089255Y-31865368D01*
X44259522Y-31805789D01*
X44309527Y-31774369D01*
X44376764Y-31755368D01*
X44443599Y-31775735D01*
X44488814Y-31829003D01*
X44499500Y-31879362D01*
X44499500Y-32632566D01*
X44479815Y-32699605D01*
X44427011Y-32745360D01*
X44362899Y-32755924D01*
X44300012Y-32749500D01*
X43499998Y-32749500D01*
X43499980Y-32749501D01*
X43397203Y-32760000D01*
X43397200Y-32760001D01*
X43230668Y-32815185D01*
X43230663Y-32815187D01*
X43081342Y-32907289D01*
X42987681Y-33000951D01*
X42926358Y-33034436D01*
X42856666Y-33029452D01*
X42812319Y-33000951D01*
X42718657Y-32907289D01*
X42718656Y-32907288D01*
X42569334Y-32815186D01*
X42402797Y-32760001D01*
X42402795Y-32760000D01*
X42300016Y-32749500D01*
X42300009Y-32749500D01*
X41922627Y-32749500D01*
X41855588Y-32729815D01*
X41809833Y-32677011D01*
X41805585Y-32666454D01*
X41775789Y-32581301D01*
X41679816Y-32428561D01*
X41552262Y-32301007D01*
X41399523Y-32205034D01*
X41229254Y-32145454D01*
X41229249Y-32145453D01*
X41050004Y-32125258D01*
X41049996Y-32125258D01*
X40870750Y-32145453D01*
X40870745Y-32145454D01*
X40700476Y-32205034D01*
X40547736Y-32301008D01*
X40544903Y-32303268D01*
X40542724Y-32304157D01*
X40541842Y-32304712D01*
X40541744Y-32304557D01*
X40480217Y-32329678D01*
X40467588Y-32330323D01*
X39312864Y-32330323D01*
X39298982Y-32329543D01*
X39267133Y-32325954D01*
X39190004Y-32317264D01*
X39189997Y-32317264D01*
X39010751Y-32337459D01*
X39010746Y-32337460D01*
X38840477Y-32397040D01*
X38687738Y-32493013D01*
X38560183Y-32620568D01*
X38560182Y-32620570D01*
X38515630Y-32691473D01*
X38463295Y-32737764D01*
X38410637Y-32749500D01*
X37789998Y-32749500D01*
X37789980Y-32749501D01*
X37687203Y-32760000D01*
X37687200Y-32760001D01*
X37520668Y-32815185D01*
X37520663Y-32815187D01*
X37371342Y-32907289D01*
X37247289Y-33031342D01*
X37155187Y-33180663D01*
X37155185Y-33180668D01*
X37128687Y-33260634D01*
X37100001Y-33347203D01*
X37100001Y-33347204D01*
X37100000Y-33347204D01*
X37089500Y-33449983D01*
X37089500Y-34450001D01*
X37089501Y-34450019D01*
X37100000Y-34552796D01*
X37100001Y-34552799D01*
X37155185Y-34719331D01*
X37155189Y-34719340D01*
X37205033Y-34800150D01*
X37223473Y-34867542D01*
X37202550Y-34934206D01*
X37187176Y-34952927D01*
X37081503Y-35058600D01*
X36945965Y-35252169D01*
X36945964Y-35252171D01*
X36846098Y-35466335D01*
X36846094Y-35466344D01*
X36784938Y-35694586D01*
X36784936Y-35694596D01*
X36764341Y-35929999D01*
X36764341Y-35930000D01*
X36784936Y-36165403D01*
X36784938Y-36165413D01*
X36846094Y-36393655D01*
X36846096Y-36393659D01*
X36846097Y-36393663D01*
X36850000Y-36402032D01*
X36945965Y-36607830D01*
X36945967Y-36607834D01*
X37037668Y-36738796D01*
X37081505Y-36801401D01*
X37248599Y-36968495D01*
X37337354Y-37030642D01*
X37442165Y-37104032D01*
X37442167Y-37104033D01*
X37442170Y-37104035D01*
X37656337Y-37203903D01*
X37656343Y-37203904D01*
X37656344Y-37203905D01*
X37711285Y-37218626D01*
X37884592Y-37265063D01*
X38061034Y-37280500D01*
X38119999Y-37285659D01*
X38120000Y-37285659D01*
X38120001Y-37285659D01*
X38178966Y-37280500D01*
X38355408Y-37265063D01*
X38583663Y-37203903D01*
X38797830Y-37104035D01*
X38991401Y-36968495D01*
X39158495Y-36801401D01*
X39288425Y-36615842D01*
X39343002Y-36572217D01*
X39412500Y-36565023D01*
X39474855Y-36596546D01*
X39491575Y-36615842D01*
X39621500Y-36801395D01*
X39621505Y-36801401D01*
X39788599Y-36968495D01*
X39877354Y-37030642D01*
X39982165Y-37104032D01*
X39982167Y-37104033D01*
X39982170Y-37104035D01*
X40196337Y-37203903D01*
X40196343Y-37203904D01*
X40196344Y-37203905D01*
X40251285Y-37218626D01*
X40424592Y-37265063D01*
X40601034Y-37280500D01*
X40659999Y-37285659D01*
X40660000Y-37285659D01*
X40660001Y-37285659D01*
X40718966Y-37280500D01*
X40895408Y-37265063D01*
X41123663Y-37203903D01*
X41337830Y-37104035D01*
X41531401Y-36968495D01*
X41653329Y-36846566D01*
X41714648Y-36813084D01*
X41784340Y-36818068D01*
X41840274Y-36859939D01*
X41857189Y-36890917D01*
X41906202Y-37022328D01*
X41906206Y-37022335D01*
X41992452Y-37137544D01*
X41992455Y-37137547D01*
X42107664Y-37223793D01*
X42107671Y-37223797D01*
X42242517Y-37274091D01*
X42242516Y-37274091D01*
X42249444Y-37274835D01*
X42302127Y-37280500D01*
X44097872Y-37280499D01*
X44157483Y-37274091D01*
X44292331Y-37223796D01*
X44301186Y-37217166D01*
X44366649Y-37192747D01*
X44434923Y-37207596D01*
X44484330Y-37257000D01*
X44499500Y-37316431D01*
X44499500Y-39266000D01*
X44479815Y-39333039D01*
X44427011Y-39378794D01*
X44375500Y-39390000D01*
X43644500Y-39390000D01*
X43577461Y-39370315D01*
X43531706Y-39317511D01*
X43520500Y-39266000D01*
X43520500Y-38424010D01*
X43520500Y-38424000D01*
X43508947Y-38316544D01*
X43497741Y-38265033D01*
X43497637Y-38264722D01*
X43463616Y-38162502D01*
X43463613Y-38162496D01*
X43385828Y-38041462D01*
X43385825Y-38041457D01*
X43382000Y-38037043D01*
X43340076Y-37988659D01*
X43340072Y-37988656D01*
X43340070Y-37988653D01*
X43231336Y-37894433D01*
X43231333Y-37894431D01*
X43231331Y-37894430D01*
X43100465Y-37834664D01*
X43100460Y-37834662D01*
X43100459Y-37834662D01*
X43033420Y-37814977D01*
X43033422Y-37814977D01*
X43033417Y-37814976D01*
X42971347Y-37806052D01*
X42891000Y-37794500D01*
X41639000Y-37794500D01*
X41638991Y-37794500D01*
X41638990Y-37794501D01*
X41531549Y-37806052D01*
X41531537Y-37806054D01*
X41480027Y-37817260D01*
X41377502Y-37851383D01*
X41377496Y-37851386D01*
X41256462Y-37929171D01*
X41256451Y-37929179D01*
X41203659Y-37974923D01*
X41109433Y-38083664D01*
X41109430Y-38083668D01*
X41049664Y-38214534D01*
X41029976Y-38281582D01*
X41024949Y-38316549D01*
X41009502Y-38423990D01*
X41009500Y-38424001D01*
X41009500Y-39300000D01*
X39515000Y-39300000D01*
X39515000Y-39390000D01*
X33832454Y-39390000D01*
X33765415Y-39370315D01*
X33719660Y-39317511D01*
X33709716Y-39248353D01*
X33733188Y-39191689D01*
X33818793Y-39077335D01*
X33818792Y-39077335D01*
X33818796Y-39077331D01*
X33869091Y-38942483D01*
X33875500Y-38882873D01*
X33875499Y-38187128D01*
X33869091Y-38127517D01*
X33869091Y-38127516D01*
X33818797Y-37992670D01*
X33818796Y-37992669D01*
X33812551Y-37984327D01*
X33804741Y-37973894D01*
X33780323Y-37908432D01*
X33795173Y-37840159D01*
X33804742Y-37825270D01*
X33818351Y-37807091D01*
X33868596Y-37672378D01*
X33874131Y-37620902D01*
X33900869Y-37556350D01*
X33958261Y-37516502D01*
X34010024Y-37510798D01*
X34104991Y-37520500D01*
X35155008Y-37520499D01*
X35155016Y-37520498D01*
X35155019Y-37520498D01*
X35211302Y-37514748D01*
X35257797Y-37509999D01*
X35424334Y-37454814D01*
X35573656Y-37362712D01*
X35697712Y-37238656D01*
X35789814Y-37089334D01*
X35844999Y-36922797D01*
X35855500Y-36820009D01*
X35855499Y-36219992D01*
X35844999Y-36117203D01*
X35789814Y-35950666D01*
X35697712Y-35801344D01*
X35573656Y-35677288D01*
X35570342Y-35675243D01*
X35568546Y-35673248D01*
X35567989Y-35672807D01*
X35568064Y-35672711D01*
X35523618Y-35623297D01*
X35512397Y-35554334D01*
X35540240Y-35490252D01*
X35570348Y-35464165D01*
X35573342Y-35462318D01*
X35697315Y-35338345D01*
X35789356Y-35189124D01*
X35789358Y-35189119D01*
X35844505Y-35022697D01*
X35844506Y-35022690D01*
X35854999Y-34919986D01*
X35855000Y-34919973D01*
X35855000Y-34870000D01*
X34504000Y-34870000D01*
X34436961Y-34850315D01*
X34391206Y-34797511D01*
X34380000Y-34746000D01*
X34380000Y-34158000D01*
X34354000Y-34158000D01*
X34286961Y-34138315D01*
X34241206Y-34085511D01*
X34230000Y-34034000D01*
X34230000Y-33577000D01*
X34730000Y-33577000D01*
X34756000Y-33577000D01*
X34823039Y-33596685D01*
X34868794Y-33649489D01*
X34880000Y-33701000D01*
X34880000Y-34370000D01*
X35854999Y-34370000D01*
X35854999Y-34320028D01*
X35854998Y-34320013D01*
X35844505Y-34217302D01*
X35789358Y-34050880D01*
X35789356Y-34050875D01*
X35697315Y-33901654D01*
X35573343Y-33777682D01*
X35499045Y-33731854D01*
X35452321Y-33679906D01*
X35441100Y-33610943D01*
X35446437Y-33587312D01*
X35469505Y-33517697D01*
X35469506Y-33517690D01*
X35479999Y-33414986D01*
X35480000Y-33414973D01*
X35480000Y-33140000D01*
X34730000Y-33140000D01*
X34730000Y-33577000D01*
X34230000Y-33577000D01*
X34230000Y-30794000D01*
X34249685Y-30726961D01*
X34302489Y-30681206D01*
X34354000Y-30670000D01*
X34606000Y-30670000D01*
X34673039Y-30689685D01*
X34718794Y-30742489D01*
X34730000Y-30794000D01*
X34730000Y-32640000D01*
X35479999Y-32640000D01*
X35479999Y-32365028D01*
X35479998Y-32365013D01*
X35469505Y-32262302D01*
X35414358Y-32095880D01*
X35414356Y-32095875D01*
X35336775Y-31970097D01*
X35318335Y-31902704D01*
X35336775Y-31839903D01*
X35414356Y-31714124D01*
X35414358Y-31714119D01*
X35469505Y-31547697D01*
X35469506Y-31547690D01*
X35478272Y-31461896D01*
X35504668Y-31397204D01*
X35561849Y-31357053D01*
X35601624Y-31350499D01*
X38547872Y-31350499D01*
X38607483Y-31344091D01*
X38742331Y-31293796D01*
X38857546Y-31207546D01*
X38943796Y-31092331D01*
X38994091Y-30957483D01*
X39000500Y-30897873D01*
X39000499Y-27302128D01*
X38994091Y-27242517D01*
X38985692Y-27219999D01*
X38943797Y-27107671D01*
X38943793Y-27107664D01*
X38857547Y-26992455D01*
X38857544Y-26992452D01*
X38742335Y-26906206D01*
X38742328Y-26906202D01*
X38607482Y-26855908D01*
X38607483Y-26855908D01*
X38547883Y-26849501D01*
X38547881Y-26849500D01*
X38547873Y-26849500D01*
X38547865Y-26849500D01*
X35576070Y-26849500D01*
X35509031Y-26829815D01*
X35463276Y-26777011D01*
X35453332Y-26707853D01*
X35458364Y-26686495D01*
X35479505Y-26622694D01*
X35479506Y-26622690D01*
X35489999Y-26519986D01*
X35490000Y-26519973D01*
X35490000Y-26395000D01*
X34340000Y-26395000D01*
X34340000Y-27219999D01*
X34789972Y-27219999D01*
X34789986Y-27219998D01*
X34862898Y-27212550D01*
X34931591Y-27225320D01*
X34982475Y-27273200D01*
X34999500Y-27335908D01*
X34999500Y-27903588D01*
X34979815Y-27970627D01*
X34927011Y-28016382D01*
X34862898Y-28026946D01*
X34790011Y-28019500D01*
X33389998Y-28019500D01*
X33389981Y-28019501D01*
X33287203Y-28030000D01*
X33287200Y-28030001D01*
X33163397Y-28071026D01*
X33120666Y-28085186D01*
X33120664Y-28085186D01*
X33120661Y-28085188D01*
X33114879Y-28087884D01*
X33062479Y-28099500D01*
X32807521Y-28099500D01*
X32755121Y-28087884D01*
X32749339Y-28085188D01*
X32749335Y-28085186D01*
X32749334Y-28085186D01*
X32582797Y-28030001D01*
X32582795Y-28030000D01*
X32480010Y-28019500D01*
X31079998Y-28019500D01*
X31079981Y-28019501D01*
X30977203Y-28030000D01*
X30977200Y-28030001D01*
X30853397Y-28071026D01*
X30810666Y-28085186D01*
X30810664Y-28085186D01*
X30810661Y-28085188D01*
X30804879Y-28087884D01*
X30752479Y-28099500D01*
X30563769Y-28099500D01*
X30496730Y-28079815D01*
X30450975Y-28027011D01*
X30441031Y-27957853D01*
X30447587Y-27932167D01*
X30494091Y-27807482D01*
X30500500Y-27747873D01*
X30500499Y-27185086D01*
X30520183Y-27118050D01*
X30572987Y-27072295D01*
X30642146Y-27062351D01*
X30689596Y-27079550D01*
X30810875Y-27154356D01*
X30810880Y-27154358D01*
X30977302Y-27209505D01*
X30977309Y-27209506D01*
X31080019Y-27219999D01*
X31529999Y-27219999D01*
X32030000Y-27219999D01*
X32479972Y-27219999D01*
X32479986Y-27219998D01*
X32582697Y-27209505D01*
X32749119Y-27154358D01*
X32749124Y-27154356D01*
X32869903Y-27079859D01*
X32937295Y-27061419D01*
X33000097Y-27079859D01*
X33120875Y-27154356D01*
X33120880Y-27154358D01*
X33287302Y-27209505D01*
X33287309Y-27209506D01*
X33390019Y-27219999D01*
X33839999Y-27219999D01*
X33840000Y-27219998D01*
X33840000Y-26395000D01*
X32030000Y-26395000D01*
X32030000Y-27219999D01*
X31529999Y-27219999D01*
X31530000Y-27219998D01*
X31530000Y-26019000D01*
X31549685Y-25951961D01*
X31602489Y-25906206D01*
X31654000Y-25895000D01*
X35489999Y-25895000D01*
X35489999Y-25770028D01*
X35489998Y-25770013D01*
X35479506Y-25667304D01*
X35478247Y-25663505D01*
X35478161Y-25661019D01*
X35478089Y-25660681D01*
X35478149Y-25660668D01*
X35475845Y-25593677D01*
X35511576Y-25533634D01*
X35574096Y-25502441D01*
X35595953Y-25500500D01*
X44375500Y-25500500D01*
X44442539Y-25520185D01*
G37*
%TD.AperFunction*%
%TA.AperFunction,Conductor*%
G36*
X27868038Y-25520185D02*
G01*
X27913793Y-25572989D01*
X27923737Y-25642147D01*
X27900265Y-25698810D01*
X27880238Y-25725562D01*
X27856204Y-25757668D01*
X27856202Y-25757671D01*
X27805908Y-25892517D01*
X27799501Y-25952116D01*
X27799500Y-25952135D01*
X27799500Y-27747870D01*
X27799501Y-27747876D01*
X27805908Y-27807483D01*
X27856202Y-27942328D01*
X27856206Y-27942335D01*
X27942452Y-28057544D01*
X27942455Y-28057547D01*
X28057664Y-28143793D01*
X28057671Y-28143797D01*
X28189081Y-28192810D01*
X28245015Y-28234681D01*
X28269432Y-28300145D01*
X28254580Y-28368418D01*
X28233430Y-28396673D01*
X28111503Y-28518600D01*
X27975965Y-28712169D01*
X27975964Y-28712171D01*
X27876098Y-28926335D01*
X27876094Y-28926344D01*
X27814938Y-29154586D01*
X27814936Y-29154596D01*
X27794341Y-29389999D01*
X27794341Y-29390000D01*
X27814936Y-29625403D01*
X27814938Y-29625413D01*
X27876094Y-29853655D01*
X27876096Y-29853659D01*
X27876097Y-29853663D01*
X27975965Y-30067830D01*
X27975967Y-30067834D01*
X28084281Y-30222521D01*
X28111501Y-30261396D01*
X28111506Y-30261402D01*
X28278597Y-30428493D01*
X28278603Y-30428498D01*
X28464594Y-30558730D01*
X28508219Y-30613307D01*
X28515413Y-30682805D01*
X28483890Y-30745160D01*
X28464595Y-30761880D01*
X28278922Y-30891890D01*
X28278920Y-30891891D01*
X28111891Y-31058920D01*
X28111886Y-31058926D01*
X27976400Y-31252420D01*
X27976399Y-31252422D01*
X27876570Y-31466507D01*
X27876567Y-31466513D01*
X27819364Y-31679999D01*
X27819364Y-31680000D01*
X28716988Y-31680000D01*
X28684075Y-31737007D01*
X28650000Y-31864174D01*
X28650000Y-31995826D01*
X28684075Y-32122993D01*
X28716988Y-32180000D01*
X27819364Y-32180000D01*
X27876567Y-32393486D01*
X27876570Y-32393492D01*
X27976399Y-32607578D01*
X28111894Y-32801082D01*
X28278917Y-32968105D01*
X28472421Y-33103600D01*
X28686507Y-33203429D01*
X28686516Y-33203433D01*
X28900000Y-33260634D01*
X28900000Y-32363012D01*
X28957007Y-32395925D01*
X29084174Y-32430000D01*
X29215826Y-32430000D01*
X29342993Y-32395925D01*
X29400000Y-32363012D01*
X29400000Y-33260633D01*
X29613483Y-33203433D01*
X29613492Y-33203429D01*
X29827578Y-33103600D01*
X30021082Y-32968105D01*
X30188105Y-32801082D01*
X30323600Y-32607578D01*
X30423429Y-32393492D01*
X30423432Y-32393486D01*
X30480636Y-32180000D01*
X29583012Y-32180000D01*
X29615925Y-32122993D01*
X29650000Y-31995826D01*
X29650000Y-31864174D01*
X29615925Y-31737007D01*
X29583012Y-31680000D01*
X30480636Y-31680000D01*
X30480635Y-31679999D01*
X30423432Y-31466513D01*
X30423429Y-31466507D01*
X30323600Y-31252422D01*
X30323599Y-31252420D01*
X30188113Y-31058926D01*
X30188108Y-31058920D01*
X30021078Y-30891890D01*
X29835405Y-30761879D01*
X29791780Y-30707302D01*
X29784588Y-30637804D01*
X29816110Y-30575449D01*
X29835406Y-30558730D01*
X29920865Y-30498891D01*
X30021401Y-30428495D01*
X30188495Y-30261401D01*
X30264134Y-30153376D01*
X30318711Y-30109752D01*
X30365709Y-30100500D01*
X30777638Y-30100500D01*
X30816640Y-30106793D01*
X30977203Y-30159999D01*
X31079991Y-30170500D01*
X31455500Y-30170499D01*
X31522539Y-30190183D01*
X31568294Y-30242987D01*
X31579500Y-30294499D01*
X31579500Y-33600000D01*
X26730000Y-33600000D01*
X26730000Y-33896030D01*
X26720259Y-33888181D01*
X26672262Y-33840184D01*
X26519523Y-33744211D01*
X26349254Y-33684631D01*
X26349249Y-33684630D01*
X26170004Y-33664435D01*
X26169996Y-33664435D01*
X25990750Y-33684630D01*
X25990745Y-33684631D01*
X25820476Y-33744211D01*
X25690472Y-33825899D01*
X25623235Y-33844899D01*
X25556400Y-33824531D01*
X25511186Y-33771263D01*
X25500500Y-33720905D01*
X25500500Y-25624500D01*
X25520185Y-25557461D01*
X25572989Y-25511706D01*
X25624500Y-25500500D01*
X27800999Y-25500500D01*
X27868038Y-25520185D01*
G37*
%TD.AperFunction*%
%TD*%
%TA.AperFunction,NonConductor*%
G36*
X38958039Y-40019685D02*
G01*
X39003794Y-40072489D01*
X39015000Y-40124000D01*
X39015000Y-43876000D01*
X38995315Y-43943039D01*
X38942511Y-43988794D01*
X38891000Y-44000000D01*
X37639000Y-44000000D01*
X37571961Y-43980315D01*
X37526206Y-43927511D01*
X37515000Y-43876000D01*
X37515000Y-40124000D01*
X37534685Y-40056961D01*
X37587489Y-40011206D01*
X37639000Y-40000000D01*
X38891000Y-40000000D01*
X38958039Y-40019685D01*
G37*
%TD.AperFunction*%
%TA.AperFunction,Conductor*%
%TO.N,GND*%
G36*
X31579500Y-33921506D02*
G01*
X31559815Y-33988545D01*
X31529811Y-34020772D01*
X31467460Y-34067448D01*
X31467451Y-34067457D01*
X31381206Y-34182664D01*
X31381202Y-34182671D01*
X31340894Y-34290745D01*
X31330909Y-34317517D01*
X31324500Y-34377127D01*
X31324500Y-34377134D01*
X31324500Y-34377135D01*
X31324500Y-35072870D01*
X31324501Y-35072876D01*
X31330908Y-35132483D01*
X31381202Y-35267328D01*
X31381205Y-35267334D01*
X31394947Y-35285691D01*
X31419363Y-35351156D01*
X31404510Y-35419429D01*
X31394947Y-35434309D01*
X31381205Y-35452665D01*
X31381202Y-35452671D01*
X31330910Y-35587513D01*
X31330909Y-35587517D01*
X31324500Y-35647127D01*
X31324500Y-35647134D01*
X31324500Y-35647135D01*
X31324500Y-36342870D01*
X31324501Y-36342876D01*
X31330908Y-36402483D01*
X31381202Y-36537328D01*
X31381206Y-36537335D01*
X31467452Y-36652544D01*
X31467455Y-36652547D01*
X31582664Y-36738793D01*
X31582671Y-36738797D01*
X31717517Y-36789091D01*
X31717516Y-36789091D01*
X31724444Y-36789835D01*
X31777127Y-36795500D01*
X33095143Y-36795499D01*
X33161115Y-36814505D01*
X33280000Y-36889205D01*
X33280000Y-37734500D01*
X31777129Y-37734500D01*
X31777123Y-37734501D01*
X31717516Y-37740908D01*
X31582671Y-37791202D01*
X31582664Y-37791206D01*
X31467455Y-37877452D01*
X31467452Y-37877455D01*
X31381206Y-37992664D01*
X31381202Y-37992671D01*
X31330910Y-38127513D01*
X31330909Y-38127517D01*
X31324500Y-38187127D01*
X31324500Y-38187134D01*
X31324500Y-38187135D01*
X31324500Y-38882870D01*
X31324501Y-38882876D01*
X31330908Y-38942483D01*
X31381202Y-39077328D01*
X31381206Y-39077335D01*
X31467452Y-39192544D01*
X31473227Y-39198319D01*
X31506712Y-39259642D01*
X31501728Y-39329334D01*
X31459856Y-39385267D01*
X31394392Y-39409684D01*
X31385546Y-39410000D01*
X29015000Y-39410000D01*
X29015000Y-39400000D01*
X27532471Y-39400000D01*
X27534685Y-39392460D01*
X27587489Y-39346705D01*
X27638998Y-39335499D01*
X28022872Y-39335499D01*
X28082483Y-39329091D01*
X28217331Y-39278796D01*
X28332546Y-39192546D01*
X28418796Y-39077331D01*
X28469091Y-38942483D01*
X28475500Y-38882873D01*
X28475499Y-38187128D01*
X28469091Y-38127517D01*
X28418797Y-37992671D01*
X28418797Y-37992670D01*
X28418796Y-37992669D01*
X28418792Y-37992664D01*
X28405053Y-37974311D01*
X28380635Y-37908850D01*
X28395485Y-37840576D01*
X28405050Y-37825691D01*
X28418796Y-37807331D01*
X28469091Y-37672483D01*
X28475500Y-37612873D01*
X28475499Y-36917128D01*
X28469091Y-36857517D01*
X28447570Y-36799816D01*
X28418797Y-36722670D01*
X28418796Y-36722669D01*
X28405053Y-36704311D01*
X28380635Y-36638850D01*
X28395485Y-36570576D01*
X28405050Y-36555691D01*
X28418796Y-36537331D01*
X28469091Y-36402483D01*
X28475500Y-36342873D01*
X28475499Y-35647128D01*
X28469091Y-35587517D01*
X28469090Y-35587513D01*
X28418797Y-35452670D01*
X28418796Y-35452669D01*
X28412464Y-35444211D01*
X28405053Y-35434311D01*
X28380635Y-35368850D01*
X28395485Y-35300576D01*
X28405050Y-35285691D01*
X28418796Y-35267331D01*
X28469091Y-35132483D01*
X28475500Y-35072873D01*
X28475499Y-34377128D01*
X28469091Y-34317517D01*
X28418796Y-34182669D01*
X28418795Y-34182668D01*
X28418793Y-34182664D01*
X28332547Y-34067455D01*
X28332544Y-34067452D01*
X28217335Y-33981206D01*
X28217328Y-33981202D01*
X28082482Y-33930908D01*
X28082483Y-33930908D01*
X28022883Y-33924501D01*
X28022881Y-33924500D01*
X28022873Y-33924500D01*
X28022865Y-33924500D01*
X26807940Y-33924500D01*
X26740901Y-33904815D01*
X26730000Y-33896030D01*
X26730000Y-33600000D01*
X31579500Y-33600000D01*
X31579500Y-33921506D01*
G37*
%TD.AperFunction*%
%TD*%
%TA.AperFunction,NonConductor*%
G36*
X34958039Y-40019685D02*
G01*
X35003794Y-40072489D01*
X35015000Y-40124000D01*
X35015000Y-43876000D01*
X34995315Y-43943039D01*
X34942511Y-43988794D01*
X34891000Y-44000000D01*
X33639000Y-44000000D01*
X33571961Y-43980315D01*
X33526206Y-43927511D01*
X33515000Y-43876000D01*
X33515000Y-40124000D01*
X33534685Y-40056961D01*
X33587489Y-40011206D01*
X33639000Y-40000000D01*
X34891000Y-40000000D01*
X34958039Y-40019685D01*
G37*
%TD.AperFunction*%
%TA.AperFunction,NonConductor*%
G36*
X36958039Y-40019685D02*
G01*
X37003794Y-40072489D01*
X37015000Y-40124000D01*
X37015000Y-43876000D01*
X36995315Y-43943039D01*
X36942511Y-43988794D01*
X36891000Y-44000000D01*
X35639000Y-44000000D01*
X35571961Y-43980315D01*
X35526206Y-43927511D01*
X35515000Y-43876000D01*
X35515000Y-40124000D01*
X35534685Y-40056961D01*
X35587489Y-40011206D01*
X35639000Y-40000000D01*
X36891000Y-40000000D01*
X36958039Y-40019685D01*
G37*
%TD.AperFunction*%
%TA.AperFunction,NonConductor*%
G36*
X30958039Y-40019685D02*
G01*
X31003794Y-40072489D01*
X31015000Y-40124000D01*
X31015000Y-43876000D01*
X30995315Y-43943039D01*
X30942511Y-43988794D01*
X30891000Y-44000000D01*
X29639000Y-44000000D01*
X29571961Y-43980315D01*
X29526206Y-43927511D01*
X29515000Y-43876000D01*
X29515000Y-40124000D01*
X29534685Y-40056961D01*
X29587489Y-40011206D01*
X29639000Y-40000000D01*
X30891000Y-40000000D01*
X30958039Y-40019685D01*
G37*
%TD.AperFunction*%
%TA.AperFunction,NonConductor*%
G36*
X32958039Y-40019685D02*
G01*
X33003794Y-40072489D01*
X33015000Y-40124000D01*
X33015000Y-43876000D01*
X32995315Y-43943039D01*
X32942511Y-43988794D01*
X32891000Y-44000000D01*
X31639000Y-44000000D01*
X31571961Y-43980315D01*
X31526206Y-43927511D01*
X31515000Y-43876000D01*
X31515000Y-40124000D01*
X31534685Y-40056961D01*
X31587489Y-40011206D01*
X31639000Y-40000000D01*
X32891000Y-40000000D01*
X32958039Y-40019685D01*
G37*
%TD.AperFunction*%
M02*
