%TF.GenerationSoftware,KiCad,Pcbnew,8.0.2-1*%
%TF.CreationDate,2024-05-31T22:44:38-04:00*%
%TF.ProjectId,ez-servo,657a2d73-6572-4766-9f2e-6b696361645f,v0.0.0*%
%TF.SameCoordinates,Original*%
%TF.FileFunction,Copper,L3,Inr*%
%TF.FilePolarity,Positive*%
%FSLAX46Y46*%
G04 Gerber Fmt 4.6, Leading zero omitted, Abs format (unit mm)*
G04 Created by KiCad (PCBNEW 8.0.2-1) date 2024-05-31 22:44:38*
%MOMM*%
%LPD*%
G01*
G04 APERTURE LIST*
%TA.AperFunction,ComponentPad*%
%ADD10C,0.600000*%
%TD*%
%TA.AperFunction,ComponentPad*%
%ADD11R,1.700000X1.700000*%
%TD*%
%TA.AperFunction,ComponentPad*%
%ADD12O,1.700000X1.700000*%
%TD*%
%TA.AperFunction,ViaPad*%
%ADD13C,0.600000*%
%TD*%
G04 APERTURE END LIST*
D10*
%TO.N,GND*%
%TO.C,U1*%
X4300000Y-9830000D03*
X4300000Y-11030000D03*
X4300000Y-12330000D03*
X4300000Y-13430000D03*
X5500000Y-9830000D03*
X5500000Y-11030000D03*
X5500000Y-12330000D03*
X5500000Y-13430000D03*
%TD*%
D11*
%TO.N,SERVO_PWM*%
%TO.C,J2*%
X4150000Y-1850000D03*
D12*
%TO.N,VOUT*%
X4150000Y-4390000D03*
%TO.N,GND*%
X4150000Y-6930000D03*
%TD*%
D11*
%TO.N,8_4V*%
%TO.C,J3*%
X18200000Y-10930000D03*
D12*
%TO.N,SENSE*%
X15660000Y-10930000D03*
%TO.N,6V*%
X13120000Y-10930000D03*
%TD*%
D13*
%TO.N,VOUT*%
X10360000Y-4780000D03*
X16159265Y-8950735D03*
%TO.N,GND*%
X15300000Y-14500000D03*
X11600000Y-7640000D03*
X11560000Y-12080000D03*
X8070000Y-1700000D03*
%TO.N,SENSE*%
X14290000Y-9930000D03*
X1170000Y-13030000D03*
%TO.N,Net-(C2-Pad2)*%
X14190001Y-8122829D03*
X18910000Y-6080000D03*
X16050000Y-7930823D03*
%TO.N,Net-(U1-BOOT)*%
X1170000Y-9470000D03*
%TO.N,+24V*%
X17300000Y-13800000D03*
X17300000Y-14500000D03*
X8640000Y-11170000D03*
%TD*%
%TA.AperFunction,Conductor*%
%TO.N,GND*%
G36*
X2868038Y-520185D02*
G01*
X2913793Y-572989D01*
X2923737Y-642147D01*
X2900265Y-698810D01*
X2880238Y-725562D01*
X2856204Y-757668D01*
X2856202Y-757671D01*
X2805908Y-892517D01*
X2799501Y-952116D01*
X2799501Y-952123D01*
X2799500Y-952135D01*
X2799500Y-2747870D01*
X2799501Y-2747876D01*
X2805908Y-2807483D01*
X2856202Y-2942328D01*
X2856206Y-2942335D01*
X2942452Y-3057544D01*
X2942455Y-3057547D01*
X3057664Y-3143793D01*
X3057671Y-3143797D01*
X3189081Y-3192810D01*
X3245015Y-3234681D01*
X3269432Y-3300145D01*
X3254580Y-3368418D01*
X3233430Y-3396673D01*
X3111503Y-3518600D01*
X2975965Y-3712169D01*
X2975964Y-3712171D01*
X2876098Y-3926335D01*
X2876094Y-3926344D01*
X2814938Y-4154586D01*
X2814936Y-4154596D01*
X2794341Y-4389999D01*
X2794341Y-4390000D01*
X2814936Y-4625403D01*
X2814938Y-4625413D01*
X2876094Y-4853655D01*
X2876096Y-4853659D01*
X2876097Y-4853663D01*
X2925333Y-4959249D01*
X2975965Y-5067830D01*
X2975967Y-5067834D01*
X3111501Y-5261395D01*
X3111506Y-5261402D01*
X3278597Y-5428493D01*
X3278603Y-5428498D01*
X3464594Y-5558730D01*
X3508219Y-5613307D01*
X3515413Y-5682805D01*
X3483890Y-5745160D01*
X3464595Y-5761880D01*
X3278922Y-5891890D01*
X3278920Y-5891891D01*
X3111891Y-6058920D01*
X3111886Y-6058926D01*
X2976400Y-6252420D01*
X2976399Y-6252422D01*
X2876570Y-6466507D01*
X2876567Y-6466513D01*
X2819364Y-6679999D01*
X2819364Y-6680000D01*
X3716988Y-6680000D01*
X3684075Y-6737007D01*
X3650000Y-6864174D01*
X3650000Y-6995826D01*
X3684075Y-7122993D01*
X3716988Y-7180000D01*
X2819364Y-7180000D01*
X2876567Y-7393486D01*
X2876570Y-7393492D01*
X2976399Y-7607578D01*
X3111894Y-7801082D01*
X3278917Y-7968105D01*
X3472421Y-8103600D01*
X3686507Y-8203429D01*
X3686516Y-8203433D01*
X3900000Y-8260634D01*
X3900000Y-7363012D01*
X3957007Y-7395925D01*
X4084174Y-7430000D01*
X4215826Y-7430000D01*
X4342993Y-7395925D01*
X4400000Y-7363012D01*
X4400000Y-8260633D01*
X4613483Y-8203433D01*
X4613492Y-8203429D01*
X4827578Y-8103600D01*
X5021082Y-7968105D01*
X5188105Y-7801082D01*
X5323600Y-7607578D01*
X5423429Y-7393492D01*
X5423432Y-7393486D01*
X5480636Y-7180000D01*
X4583012Y-7180000D01*
X4615925Y-7122993D01*
X4650000Y-6995826D01*
X4650000Y-6864174D01*
X4615925Y-6737007D01*
X4583012Y-6680000D01*
X5480636Y-6680000D01*
X5480635Y-6679999D01*
X5423432Y-6466513D01*
X5423429Y-6466507D01*
X5323600Y-6252422D01*
X5323599Y-6252420D01*
X5188113Y-6058926D01*
X5188108Y-6058920D01*
X5021078Y-5891890D01*
X4835405Y-5761879D01*
X4791780Y-5707302D01*
X4784588Y-5637804D01*
X4816110Y-5575449D01*
X4835406Y-5558730D01*
X4865837Y-5537422D01*
X5021401Y-5428495D01*
X5188495Y-5261401D01*
X5324035Y-5067830D01*
X5423903Y-4853663D01*
X5443642Y-4779996D01*
X9554435Y-4779996D01*
X9554435Y-4780003D01*
X9574630Y-4959249D01*
X9574631Y-4959254D01*
X9634211Y-5129523D01*
X9717072Y-5261395D01*
X9730184Y-5282262D01*
X9857738Y-5409816D01*
X10010478Y-5505789D01*
X10100880Y-5537422D01*
X10180745Y-5565368D01*
X10180750Y-5565369D01*
X10359996Y-5585565D01*
X10360000Y-5585565D01*
X10360004Y-5585565D01*
X10539249Y-5565369D01*
X10539252Y-5565368D01*
X10539255Y-5565368D01*
X10709522Y-5505789D01*
X10862262Y-5409816D01*
X10989816Y-5282262D01*
X11085789Y-5129522D01*
X11145368Y-4959255D01*
X11157265Y-4853664D01*
X11165565Y-4780003D01*
X11165565Y-4779996D01*
X11145369Y-4600750D01*
X11145368Y-4600745D01*
X11085788Y-4430476D01*
X10989815Y-4277737D01*
X10862262Y-4150184D01*
X10709523Y-4054211D01*
X10539254Y-3994631D01*
X10539249Y-3994630D01*
X10360004Y-3974435D01*
X10359996Y-3974435D01*
X10180750Y-3994630D01*
X10180745Y-3994631D01*
X10010476Y-4054211D01*
X9857737Y-4150184D01*
X9730184Y-4277737D01*
X9634211Y-4430476D01*
X9574631Y-4600745D01*
X9574630Y-4600750D01*
X9554435Y-4779996D01*
X5443642Y-4779996D01*
X5485063Y-4625408D01*
X5505659Y-4390000D01*
X5485063Y-4154592D01*
X5423903Y-3926337D01*
X5324035Y-3712171D01*
X5188495Y-3518599D01*
X5066567Y-3396671D01*
X5033084Y-3335351D01*
X5038068Y-3265659D01*
X5079939Y-3209725D01*
X5110915Y-3192810D01*
X5242331Y-3143796D01*
X5357546Y-3057546D01*
X5443796Y-2942331D01*
X5494091Y-2807483D01*
X5500500Y-2747873D01*
X5500499Y-952128D01*
X5494091Y-892517D01*
X5443796Y-757669D01*
X5399734Y-698810D01*
X5375317Y-633348D01*
X5390168Y-565075D01*
X5439573Y-515669D01*
X5499001Y-500500D01*
X19375500Y-500500D01*
X19442539Y-520185D01*
X19488294Y-572989D01*
X19499500Y-624500D01*
X19499500Y-5280637D01*
X19479815Y-5347676D01*
X19427011Y-5393431D01*
X19357853Y-5403375D01*
X19309529Y-5385631D01*
X19259525Y-5354212D01*
X19089254Y-5294631D01*
X19089249Y-5294630D01*
X18910004Y-5274435D01*
X18909996Y-5274435D01*
X18730750Y-5294630D01*
X18730745Y-5294631D01*
X18560476Y-5354211D01*
X18407737Y-5450184D01*
X18280184Y-5577737D01*
X18184211Y-5730476D01*
X18124631Y-5900745D01*
X18124630Y-5900750D01*
X18104435Y-6079996D01*
X18104435Y-6080003D01*
X18124630Y-6259249D01*
X18124631Y-6259254D01*
X18184211Y-6429523D01*
X18184511Y-6430000D01*
X18280184Y-6582262D01*
X18407738Y-6709816D01*
X18560478Y-6805789D01*
X18626820Y-6829003D01*
X18730745Y-6865368D01*
X18730750Y-6865369D01*
X18909996Y-6885565D01*
X18910000Y-6885565D01*
X18910004Y-6885565D01*
X19089249Y-6865369D01*
X19089252Y-6865368D01*
X19089255Y-6865368D01*
X19259522Y-6805789D01*
X19309527Y-6774369D01*
X19376764Y-6755368D01*
X19443599Y-6775735D01*
X19488814Y-6829003D01*
X19499500Y-6879362D01*
X19499500Y-9543568D01*
X19479815Y-9610607D01*
X19427011Y-9656362D01*
X19357853Y-9666306D01*
X19301190Y-9642835D01*
X19292334Y-9636206D01*
X19292328Y-9636202D01*
X19157482Y-9585908D01*
X19157483Y-9585908D01*
X19097883Y-9579501D01*
X19097881Y-9579500D01*
X19097873Y-9579500D01*
X19097864Y-9579500D01*
X17302129Y-9579500D01*
X17302123Y-9579501D01*
X17242516Y-9585908D01*
X17107671Y-9636202D01*
X17107664Y-9636206D01*
X16992455Y-9722452D01*
X16992452Y-9722455D01*
X16906206Y-9837664D01*
X16906203Y-9837669D01*
X16857189Y-9969083D01*
X16815317Y-10025016D01*
X16749853Y-10049433D01*
X16681580Y-10034581D01*
X16653326Y-10013430D01*
X16531398Y-9891502D01*
X16511936Y-9877875D01*
X16468312Y-9823298D01*
X16461120Y-9753799D01*
X16492643Y-9691445D01*
X16517086Y-9671309D01*
X16661527Y-9580551D01*
X16789081Y-9452997D01*
X16885054Y-9300257D01*
X16944633Y-9129990D01*
X16944634Y-9129984D01*
X16964830Y-8950738D01*
X16964830Y-8950731D01*
X16944634Y-8771485D01*
X16944633Y-8771480D01*
X16926936Y-8720905D01*
X16885054Y-8601213D01*
X16789081Y-8448473D01*
X16785964Y-8445356D01*
X16752479Y-8384033D01*
X16757463Y-8314341D01*
X16768653Y-8291700D01*
X16775789Y-8280345D01*
X16835368Y-8110078D01*
X16836098Y-8103600D01*
X16855565Y-7930826D01*
X16855565Y-7930819D01*
X16835369Y-7751573D01*
X16835368Y-7751568D01*
X16789528Y-7620566D01*
X16775789Y-7581301D01*
X16679816Y-7428561D01*
X16552262Y-7301007D01*
X16450407Y-7237007D01*
X16399523Y-7205034D01*
X16229254Y-7145454D01*
X16229249Y-7145453D01*
X16050004Y-7125258D01*
X16049996Y-7125258D01*
X15870750Y-7145453D01*
X15870745Y-7145454D01*
X15700476Y-7205034D01*
X15547737Y-7301007D01*
X15420184Y-7428560D01*
X15324211Y-7581299D01*
X15264631Y-7751568D01*
X15264630Y-7751573D01*
X15244435Y-7930819D01*
X15244435Y-7930826D01*
X15264630Y-8110072D01*
X15264631Y-8110077D01*
X15324211Y-8280346D01*
X15420184Y-8433085D01*
X15423300Y-8436201D01*
X15456785Y-8497524D01*
X15451801Y-8567216D01*
X15440615Y-8589851D01*
X15433474Y-8601216D01*
X15373898Y-8771472D01*
X15373895Y-8771485D01*
X15353700Y-8950731D01*
X15353700Y-8950738D01*
X15373895Y-9129984D01*
X15373896Y-9129989D01*
X15433476Y-9300258D01*
X15501284Y-9408174D01*
X15520284Y-9475411D01*
X15499916Y-9542246D01*
X15446648Y-9587460D01*
X15428383Y-9593921D01*
X15196344Y-9656094D01*
X15196329Y-9656100D01*
X15188049Y-9659961D01*
X15118972Y-9670450D01*
X15055189Y-9641928D01*
X15018608Y-9588533D01*
X15016865Y-9583553D01*
X15015789Y-9580478D01*
X15015789Y-9580477D01*
X14935687Y-9452997D01*
X14919816Y-9427738D01*
X14792262Y-9300184D01*
X14777240Y-9290745D01*
X14639523Y-9204211D01*
X14469254Y-9144631D01*
X14469250Y-9144630D01*
X14422364Y-9139348D01*
X14357950Y-9112281D01*
X14318395Y-9054686D01*
X14316258Y-8984849D01*
X14352216Y-8924943D01*
X14395294Y-8899086D01*
X14424863Y-8888739D01*
X14539523Y-8848618D01*
X14692263Y-8752645D01*
X14819817Y-8625091D01*
X14915790Y-8472351D01*
X14975369Y-8302084D01*
X14975370Y-8302078D01*
X14995566Y-8122832D01*
X14995566Y-8122825D01*
X14975370Y-7943579D01*
X14975369Y-7943574D01*
X14915789Y-7773305D01*
X14819816Y-7620566D01*
X14692263Y-7493013D01*
X14539524Y-7397040D01*
X14369255Y-7337460D01*
X14369250Y-7337459D01*
X14190005Y-7317264D01*
X14189997Y-7317264D01*
X14010751Y-7337459D01*
X14010746Y-7337460D01*
X13840477Y-7397040D01*
X13687738Y-7493013D01*
X13560185Y-7620566D01*
X13464212Y-7773305D01*
X13404632Y-7943574D01*
X13404631Y-7943579D01*
X13384436Y-8122825D01*
X13384436Y-8122832D01*
X13404631Y-8302078D01*
X13404632Y-8302083D01*
X13464212Y-8472352D01*
X13538042Y-8589851D01*
X13560185Y-8625091D01*
X13687739Y-8752645D01*
X13840479Y-8848618D01*
X14010746Y-8908197D01*
X14057637Y-8913480D01*
X14122048Y-8940545D01*
X14161604Y-8998140D01*
X14163743Y-9067977D01*
X14127785Y-9127883D01*
X14084707Y-9153741D01*
X13940480Y-9204208D01*
X13787737Y-9300184D01*
X13660182Y-9427739D01*
X13575034Y-9563251D01*
X13522699Y-9609541D01*
X13453646Y-9620189D01*
X13437948Y-9617053D01*
X13355413Y-9594938D01*
X13355403Y-9594936D01*
X13120001Y-9574341D01*
X13119999Y-9574341D01*
X12884596Y-9594936D01*
X12884586Y-9594938D01*
X12656344Y-9656094D01*
X12656335Y-9656098D01*
X12442171Y-9755964D01*
X12442169Y-9755965D01*
X12248597Y-9891505D01*
X12081505Y-10058597D01*
X11945965Y-10252169D01*
X11945964Y-10252171D01*
X11846098Y-10466335D01*
X11846094Y-10466344D01*
X11784938Y-10694586D01*
X11784936Y-10694596D01*
X11764341Y-10929999D01*
X11764341Y-10930000D01*
X11784936Y-11165403D01*
X11784938Y-11165413D01*
X11846094Y-11393655D01*
X11846096Y-11393659D01*
X11846097Y-11393663D01*
X11850000Y-11402032D01*
X11945965Y-11607830D01*
X11945967Y-11607834D01*
X11996499Y-11680000D01*
X12081505Y-11801401D01*
X12248599Y-11968495D01*
X12345384Y-12036265D01*
X12442165Y-12104032D01*
X12442167Y-12104033D01*
X12442170Y-12104035D01*
X12656337Y-12203903D01*
X12656343Y-12203904D01*
X12656344Y-12203905D01*
X12711285Y-12218626D01*
X12884592Y-12265063D01*
X13061034Y-12280500D01*
X13119999Y-12285659D01*
X13120000Y-12285659D01*
X13120001Y-12285659D01*
X13178966Y-12280500D01*
X13355408Y-12265063D01*
X13583663Y-12203903D01*
X13797830Y-12104035D01*
X13991401Y-11968495D01*
X14158495Y-11801401D01*
X14288425Y-11615842D01*
X14343002Y-11572217D01*
X14412500Y-11565023D01*
X14474855Y-11596546D01*
X14491575Y-11615842D01*
X14621500Y-11801395D01*
X14621505Y-11801401D01*
X14788599Y-11968495D01*
X14885384Y-12036265D01*
X14982165Y-12104032D01*
X14982167Y-12104033D01*
X14982170Y-12104035D01*
X15196337Y-12203903D01*
X15196343Y-12203904D01*
X15196344Y-12203905D01*
X15251285Y-12218626D01*
X15424592Y-12265063D01*
X15601034Y-12280500D01*
X15659999Y-12285659D01*
X15660000Y-12285659D01*
X15660001Y-12285659D01*
X15718966Y-12280500D01*
X15895408Y-12265063D01*
X16123663Y-12203903D01*
X16337830Y-12104035D01*
X16531401Y-11968495D01*
X16653329Y-11846566D01*
X16714648Y-11813084D01*
X16784340Y-11818068D01*
X16840274Y-11859939D01*
X16857189Y-11890917D01*
X16906202Y-12022328D01*
X16906206Y-12022335D01*
X16992452Y-12137544D01*
X16992455Y-12137547D01*
X17107664Y-12223793D01*
X17107671Y-12223797D01*
X17242517Y-12274091D01*
X17242516Y-12274091D01*
X17249444Y-12274835D01*
X17302127Y-12280500D01*
X19097872Y-12280499D01*
X19157483Y-12274091D01*
X19292331Y-12223796D01*
X19301186Y-12217166D01*
X19366649Y-12192747D01*
X19434923Y-12207596D01*
X19484330Y-12257000D01*
X19499500Y-12316431D01*
X19499500Y-14266000D01*
X19479815Y-14333039D01*
X19427011Y-14378794D01*
X19375500Y-14390000D01*
X18197585Y-14390000D01*
X18130546Y-14370315D01*
X18084791Y-14317511D01*
X18080544Y-14306955D01*
X18039953Y-14190955D01*
X18036390Y-14121177D01*
X18039953Y-14109045D01*
X18085366Y-13979262D01*
X18085369Y-13979249D01*
X18105565Y-13800003D01*
X18105565Y-13799996D01*
X18085369Y-13620750D01*
X18085368Y-13620745D01*
X18025788Y-13450476D01*
X17929815Y-13297737D01*
X17802262Y-13170184D01*
X17649523Y-13074211D01*
X17479254Y-13014631D01*
X17479249Y-13014630D01*
X17300004Y-12994435D01*
X17299996Y-12994435D01*
X17120750Y-13014630D01*
X17120745Y-13014631D01*
X16950476Y-13074211D01*
X16797737Y-13170184D01*
X16670184Y-13297737D01*
X16574211Y-13450476D01*
X16514631Y-13620745D01*
X16514630Y-13620750D01*
X16494435Y-13799996D01*
X16494435Y-13800003D01*
X16514630Y-13979249D01*
X16514632Y-13979257D01*
X16560047Y-14109046D01*
X16563608Y-14178825D01*
X16560047Y-14190954D01*
X16519457Y-14306954D01*
X16478735Y-14363731D01*
X16413782Y-14389478D01*
X16402415Y-14390000D01*
X5905298Y-14390000D01*
X5838259Y-14370315D01*
X5792504Y-14317511D01*
X5782560Y-14248353D01*
X5811585Y-14184797D01*
X5844008Y-14160003D01*
X5843405Y-14159043D01*
X5863106Y-14146661D01*
X5863106Y-14146660D01*
X5500001Y-13783553D01*
X5500000Y-13783553D01*
X5136892Y-14146660D01*
X5136892Y-14146661D01*
X5156594Y-14159042D01*
X5155574Y-14160664D01*
X5200361Y-14201097D01*
X5218677Y-14268524D01*
X5197632Y-14335149D01*
X5143908Y-14379819D01*
X5094703Y-14390000D01*
X4705298Y-14390000D01*
X4638259Y-14370315D01*
X4592504Y-14317511D01*
X4582560Y-14248353D01*
X4611585Y-14184797D01*
X4644008Y-14160003D01*
X4643405Y-14159043D01*
X4663106Y-14146661D01*
X4663106Y-14146660D01*
X4300001Y-13783553D01*
X4300000Y-13783553D01*
X3936892Y-14146660D01*
X3936892Y-14146661D01*
X3956594Y-14159042D01*
X3955574Y-14160664D01*
X4000361Y-14201097D01*
X4018677Y-14268524D01*
X3997632Y-14335149D01*
X3943908Y-14379819D01*
X3894703Y-14390000D01*
X624500Y-14390000D01*
X557461Y-14370315D01*
X511706Y-14317511D01*
X500500Y-14266000D01*
X500500Y-13779094D01*
X520185Y-13712055D01*
X572989Y-13666300D01*
X642147Y-13656356D01*
X690471Y-13674100D01*
X728193Y-13697802D01*
X820475Y-13755788D01*
X990745Y-13815368D01*
X990750Y-13815369D01*
X1169996Y-13835565D01*
X1170000Y-13835565D01*
X1170004Y-13835565D01*
X1349249Y-13815369D01*
X1349252Y-13815368D01*
X1349255Y-13815368D01*
X1519522Y-13755789D01*
X1672262Y-13659816D01*
X1799816Y-13532262D01*
X1864073Y-13429997D01*
X3494938Y-13429997D01*
X3494938Y-13430002D01*
X3515121Y-13609138D01*
X3574665Y-13779304D01*
X3583338Y-13793107D01*
X3946446Y-13430000D01*
X3946446Y-13429999D01*
X3916610Y-13400163D01*
X4150000Y-13400163D01*
X4150000Y-13459837D01*
X4172836Y-13514968D01*
X4215032Y-13557164D01*
X4270163Y-13580000D01*
X4329837Y-13580000D01*
X4384968Y-13557164D01*
X4427164Y-13514968D01*
X4450000Y-13459837D01*
X4450000Y-13429999D01*
X4653553Y-13429999D01*
X4900000Y-13676446D01*
X5146446Y-13430001D01*
X5146446Y-13430000D01*
X5116609Y-13400163D01*
X5350000Y-13400163D01*
X5350000Y-13459837D01*
X5372836Y-13514968D01*
X5415032Y-13557164D01*
X5470163Y-13580000D01*
X5529837Y-13580000D01*
X5584968Y-13557164D01*
X5627164Y-13514968D01*
X5650000Y-13459837D01*
X5650000Y-13430000D01*
X5853553Y-13430000D01*
X6216660Y-13793106D01*
X6216661Y-13793106D01*
X6225334Y-13779306D01*
X6225334Y-13779305D01*
X6284877Y-13609141D01*
X6284878Y-13609138D01*
X6305062Y-13430002D01*
X6305062Y-13429997D01*
X6284878Y-13250861D01*
X6225333Y-13080692D01*
X6216661Y-13066892D01*
X6216660Y-13066892D01*
X5853553Y-13430000D01*
X5650000Y-13430000D01*
X5650000Y-13400163D01*
X5627164Y-13345032D01*
X5584968Y-13302836D01*
X5529837Y-13280000D01*
X5470163Y-13280000D01*
X5415032Y-13302836D01*
X5372836Y-13345032D01*
X5350000Y-13400163D01*
X5116609Y-13400163D01*
X4900000Y-13183553D01*
X4653553Y-13429999D01*
X4450000Y-13429999D01*
X4450000Y-13400163D01*
X4427164Y-13345032D01*
X4384968Y-13302836D01*
X4329837Y-13280000D01*
X4270163Y-13280000D01*
X4215032Y-13302836D01*
X4172836Y-13345032D01*
X4150000Y-13400163D01*
X3916610Y-13400163D01*
X3583338Y-13066891D01*
X3583337Y-13066891D01*
X3574667Y-13080691D01*
X3574662Y-13080701D01*
X3515122Y-13250858D01*
X3515121Y-13250861D01*
X3494938Y-13429997D01*
X1864073Y-13429997D01*
X1895789Y-13379522D01*
X1955368Y-13209255D01*
X1958264Y-13183553D01*
X1975565Y-13030003D01*
X1975565Y-13029996D01*
X1958665Y-12879999D01*
X4103553Y-12879999D01*
X4300000Y-13076446D01*
X4496446Y-12880001D01*
X4496446Y-12880000D01*
X4496445Y-12879999D01*
X5303553Y-12879999D01*
X5500000Y-13076446D01*
X5696446Y-12880001D01*
X5696446Y-12880000D01*
X5500000Y-12683553D01*
X5303553Y-12879999D01*
X4496445Y-12879999D01*
X4300000Y-12683553D01*
X4103553Y-12879999D01*
X1958665Y-12879999D01*
X1955369Y-12850750D01*
X1955368Y-12850745D01*
X1900208Y-12693107D01*
X1895789Y-12680478D01*
X1895051Y-12679304D01*
X1856582Y-12618080D01*
X1799816Y-12527738D01*
X1672262Y-12400184D01*
X1649528Y-12385899D01*
X1560561Y-12329997D01*
X3494938Y-12329997D01*
X3494938Y-12330002D01*
X3515121Y-12509138D01*
X3574665Y-12679304D01*
X3583338Y-12693107D01*
X3946446Y-12330000D01*
X3946446Y-12329999D01*
X3916610Y-12300163D01*
X4150000Y-12300163D01*
X4150000Y-12359837D01*
X4172836Y-12414968D01*
X4215032Y-12457164D01*
X4270163Y-12480000D01*
X4329837Y-12480000D01*
X4384968Y-12457164D01*
X4427164Y-12414968D01*
X4450000Y-12359837D01*
X4450000Y-12300163D01*
X4427164Y-12245032D01*
X4384968Y-12202836D01*
X4329837Y-12180000D01*
X4270163Y-12180000D01*
X4215032Y-12202836D01*
X4172836Y-12245032D01*
X4150000Y-12300163D01*
X3916610Y-12300163D01*
X3583338Y-11966891D01*
X3583337Y-11966891D01*
X3574667Y-11980691D01*
X3574662Y-11980701D01*
X3515122Y-12150858D01*
X3515121Y-12150861D01*
X3494938Y-12329997D01*
X1560561Y-12329997D01*
X1519523Y-12304211D01*
X1349254Y-12244631D01*
X1349249Y-12244630D01*
X1170004Y-12224435D01*
X1169996Y-12224435D01*
X990750Y-12244630D01*
X990745Y-12244631D01*
X820476Y-12304211D01*
X690472Y-12385899D01*
X623235Y-12404899D01*
X556400Y-12384531D01*
X511186Y-12331263D01*
X500500Y-12280905D01*
X500500Y-11680000D01*
X4003553Y-11680000D01*
X4300000Y-11976447D01*
X4900000Y-12576446D01*
X5176283Y-12300163D01*
X5350000Y-12300163D01*
X5350000Y-12359837D01*
X5372836Y-12414968D01*
X5415032Y-12457164D01*
X5470163Y-12480000D01*
X5529837Y-12480000D01*
X5584968Y-12457164D01*
X5627164Y-12414968D01*
X5650000Y-12359837D01*
X5650000Y-12330000D01*
X5853553Y-12330000D01*
X6216660Y-12693106D01*
X6216661Y-12693106D01*
X6225334Y-12679306D01*
X6225334Y-12679305D01*
X6284877Y-12509141D01*
X6284878Y-12509138D01*
X6305062Y-12330002D01*
X6305062Y-12329997D01*
X6284878Y-12150861D01*
X6225333Y-11980692D01*
X6216661Y-11966892D01*
X6216660Y-11966892D01*
X5853553Y-12330000D01*
X5650000Y-12330000D01*
X5650000Y-12300163D01*
X5627164Y-12245032D01*
X5584968Y-12202836D01*
X5529837Y-12180000D01*
X5470163Y-12180000D01*
X5415032Y-12202836D01*
X5372836Y-12245032D01*
X5350000Y-12300163D01*
X5176283Y-12300163D01*
X5500000Y-11976447D01*
X5796446Y-11680000D01*
X5234127Y-11117681D01*
X5200642Y-11056358D01*
X5204661Y-11000163D01*
X5350000Y-11000163D01*
X5350000Y-11059837D01*
X5372836Y-11114968D01*
X5415032Y-11157164D01*
X5470163Y-11180000D01*
X5529837Y-11180000D01*
X5584968Y-11157164D01*
X5627164Y-11114968D01*
X5650000Y-11059837D01*
X5650000Y-11030000D01*
X5853553Y-11030000D01*
X6216660Y-11393106D01*
X6216661Y-11393106D01*
X6225334Y-11379306D01*
X6225334Y-11379305D01*
X6284877Y-11209141D01*
X6284878Y-11209138D01*
X6289288Y-11169996D01*
X7834435Y-11169996D01*
X7834435Y-11170003D01*
X7854630Y-11349249D01*
X7854631Y-11349254D01*
X7914211Y-11519523D01*
X7969701Y-11607834D01*
X8010184Y-11672262D01*
X8137738Y-11799816D01*
X8290478Y-11895789D01*
X8460745Y-11955368D01*
X8460750Y-11955369D01*
X8639996Y-11975565D01*
X8640000Y-11975565D01*
X8640004Y-11975565D01*
X8819249Y-11955369D01*
X8819252Y-11955368D01*
X8819255Y-11955368D01*
X8989522Y-11895789D01*
X9142262Y-11799816D01*
X9269816Y-11672262D01*
X9365789Y-11519522D01*
X9425368Y-11349255D01*
X9441155Y-11209141D01*
X9445565Y-11170003D01*
X9445565Y-11169996D01*
X9425369Y-10990750D01*
X9425368Y-10990745D01*
X9394607Y-10902836D01*
X9365789Y-10820478D01*
X9269816Y-10667738D01*
X9142262Y-10540184D01*
X8989523Y-10444211D01*
X8819254Y-10384631D01*
X8819249Y-10384630D01*
X8640004Y-10364435D01*
X8639996Y-10364435D01*
X8460750Y-10384630D01*
X8460745Y-10384631D01*
X8290476Y-10444211D01*
X8137737Y-10540184D01*
X8010184Y-10667737D01*
X7914211Y-10820476D01*
X7854631Y-10990745D01*
X7854630Y-10990750D01*
X7834435Y-11169996D01*
X6289288Y-11169996D01*
X6305062Y-11030002D01*
X6305062Y-11029997D01*
X6284878Y-10850861D01*
X6225333Y-10680692D01*
X6216661Y-10666892D01*
X6216660Y-10666892D01*
X5853553Y-11030000D01*
X5650000Y-11030000D01*
X5650000Y-11000163D01*
X5627164Y-10945032D01*
X5584968Y-10902836D01*
X5529837Y-10880000D01*
X5470163Y-10880000D01*
X5415032Y-10902836D01*
X5372836Y-10945032D01*
X5350000Y-11000163D01*
X5204661Y-11000163D01*
X5205626Y-10986666D01*
X5234127Y-10942319D01*
X5500000Y-10676447D01*
X5746446Y-10430000D01*
X5746446Y-10429999D01*
X5116610Y-9800163D01*
X5350000Y-9800163D01*
X5350000Y-9859837D01*
X5372836Y-9914968D01*
X5415032Y-9957164D01*
X5470163Y-9980000D01*
X5529837Y-9980000D01*
X5584968Y-9957164D01*
X5627164Y-9914968D01*
X5650000Y-9859837D01*
X5650000Y-9830000D01*
X5853553Y-9830000D01*
X6216660Y-10193106D01*
X6216661Y-10193106D01*
X6225334Y-10179306D01*
X6225334Y-10179305D01*
X6284877Y-10009141D01*
X6284878Y-10009138D01*
X6305062Y-9830002D01*
X6305062Y-9829997D01*
X6284878Y-9650861D01*
X6225333Y-9480692D01*
X6216661Y-9466892D01*
X6216660Y-9466892D01*
X5853553Y-9830000D01*
X5650000Y-9830000D01*
X5650000Y-9800163D01*
X5627164Y-9745032D01*
X5584968Y-9702836D01*
X5529837Y-9680000D01*
X5470163Y-9680000D01*
X5415032Y-9702836D01*
X5372836Y-9745032D01*
X5350000Y-9800163D01*
X5116610Y-9800163D01*
X4900000Y-9583553D01*
X4053553Y-10430000D01*
X4565872Y-10942319D01*
X4599357Y-11003642D01*
X4594373Y-11073334D01*
X4565872Y-11117681D01*
X4003553Y-11680000D01*
X500500Y-11680000D01*
X500500Y-11029997D01*
X3494938Y-11029997D01*
X3494938Y-11030002D01*
X3515121Y-11209138D01*
X3574665Y-11379304D01*
X3583338Y-11393107D01*
X3946446Y-11030000D01*
X3946446Y-11029999D01*
X3916610Y-11000163D01*
X4150000Y-11000163D01*
X4150000Y-11059837D01*
X4172836Y-11114968D01*
X4215032Y-11157164D01*
X4270163Y-11180000D01*
X4329837Y-11180000D01*
X4384968Y-11157164D01*
X4427164Y-11114968D01*
X4450000Y-11059837D01*
X4450000Y-11000163D01*
X4427164Y-10945032D01*
X4384968Y-10902836D01*
X4329837Y-10880000D01*
X4270163Y-10880000D01*
X4215032Y-10902836D01*
X4172836Y-10945032D01*
X4150000Y-11000163D01*
X3916610Y-11000163D01*
X3583338Y-10666891D01*
X3583337Y-10666891D01*
X3574667Y-10680691D01*
X3574662Y-10680701D01*
X3515122Y-10850858D01*
X3515121Y-10850861D01*
X3494938Y-11029997D01*
X500500Y-11029997D01*
X500500Y-10219094D01*
X520185Y-10152055D01*
X572989Y-10106300D01*
X642147Y-10096356D01*
X690471Y-10114100D01*
X728193Y-10137802D01*
X820475Y-10195788D01*
X990745Y-10255368D01*
X990750Y-10255369D01*
X1169996Y-10275565D01*
X1170000Y-10275565D01*
X1170004Y-10275565D01*
X1349249Y-10255369D01*
X1349252Y-10255368D01*
X1349255Y-10255368D01*
X1519522Y-10195789D01*
X1672262Y-10099816D01*
X1799816Y-9972262D01*
X1889207Y-9829997D01*
X3494938Y-9829997D01*
X3494938Y-9830002D01*
X3515121Y-10009138D01*
X3574665Y-10179304D01*
X3583338Y-10193107D01*
X3946446Y-9830000D01*
X3946446Y-9829999D01*
X3916610Y-9800163D01*
X4150000Y-9800163D01*
X4150000Y-9859837D01*
X4172836Y-9914968D01*
X4215032Y-9957164D01*
X4270163Y-9980000D01*
X4329837Y-9980000D01*
X4384968Y-9957164D01*
X4427164Y-9914968D01*
X4450000Y-9859837D01*
X4450000Y-9800163D01*
X4427164Y-9745032D01*
X4384968Y-9702836D01*
X4329837Y-9680000D01*
X4270163Y-9680000D01*
X4215032Y-9702836D01*
X4172836Y-9745032D01*
X4150000Y-9800163D01*
X3916610Y-9800163D01*
X3583338Y-9466891D01*
X3583337Y-9466891D01*
X3574667Y-9480691D01*
X3574662Y-9480701D01*
X3515122Y-9650858D01*
X3515121Y-9650861D01*
X3494938Y-9829997D01*
X1889207Y-9829997D01*
X1895789Y-9819522D01*
X1955368Y-9649255D01*
X1955369Y-9649249D01*
X1975565Y-9470003D01*
X1975565Y-9469996D01*
X1955369Y-9290750D01*
X1955368Y-9290745D01*
X1904241Y-9144632D01*
X1895789Y-9120478D01*
X1891302Y-9113337D01*
X3936891Y-9113337D01*
X3936891Y-9113338D01*
X4300000Y-9476446D01*
X4300001Y-9476446D01*
X4663107Y-9113338D01*
X4663105Y-9113337D01*
X5136891Y-9113337D01*
X5136891Y-9113338D01*
X5500000Y-9476446D01*
X5500001Y-9476446D01*
X5863107Y-9113338D01*
X5849304Y-9104665D01*
X5679138Y-9045121D01*
X5500003Y-9024938D01*
X5499997Y-9024938D01*
X5320861Y-9045121D01*
X5320858Y-9045122D01*
X5150701Y-9104662D01*
X5150691Y-9104667D01*
X5136891Y-9113337D01*
X4663105Y-9113337D01*
X4649304Y-9104665D01*
X4479138Y-9045121D01*
X4300003Y-9024938D01*
X4299997Y-9024938D01*
X4120861Y-9045121D01*
X4120858Y-9045122D01*
X3950701Y-9104662D01*
X3950691Y-9104667D01*
X3936891Y-9113337D01*
X1891302Y-9113337D01*
X1890638Y-9112281D01*
X1848439Y-9045121D01*
X1799816Y-8967738D01*
X1672262Y-8840184D01*
X1649528Y-8825899D01*
X1519523Y-8744211D01*
X1349254Y-8684631D01*
X1349249Y-8684630D01*
X1170004Y-8664435D01*
X1169996Y-8664435D01*
X990750Y-8684630D01*
X990745Y-8684631D01*
X820476Y-8744211D01*
X690472Y-8825899D01*
X623235Y-8844899D01*
X556400Y-8824531D01*
X511186Y-8771263D01*
X500500Y-8720905D01*
X500500Y-624500D01*
X520185Y-557461D01*
X572989Y-511706D01*
X624500Y-500500D01*
X2800999Y-500500D01*
X2868038Y-520185D01*
G37*
%TD.AperFunction*%
%TD*%
M02*
