%TF.GenerationSoftware,KiCad,Pcbnew,8.0.2-1*%
%TF.CreationDate,2024-05-31T22:44:38-04:00*%
%TF.ProjectId,ez-servo,657a2d73-6572-4766-9f2e-6b696361645f,v0.0.0*%
%TF.SameCoordinates,Original*%
%TF.FileFunction,Legend,Top*%
%TF.FilePolarity,Positive*%
%FSLAX46Y46*%
G04 Gerber Fmt 4.6, Leading zero omitted, Abs format (unit mm)*
G04 Created by KiCad (PCBNEW 8.0.2-1) date 2024-05-31 22:44:38*
%MOMM*%
%LPD*%
G01*
G04 APERTURE LIST*
G04 Aperture macros list*
%AMRoundRect*
0 Rectangle with rounded corners*
0 $1 Rounding radius*
0 $2 $3 $4 $5 $6 $7 $8 $9 X,Y pos of 4 corners*
0 Add a 4 corners polygon primitive as box body*
4,1,4,$2,$3,$4,$5,$6,$7,$8,$9,$2,$3,0*
0 Add four circle primitives for the rounded corners*
1,1,$1+$1,$2,$3*
1,1,$1+$1,$4,$5*
1,1,$1+$1,$6,$7*
1,1,$1+$1,$8,$9*
0 Add four rect primitives between the rounded corners*
20,1,$1+$1,$2,$3,$4,$5,0*
20,1,$1+$1,$4,$5,$6,$7,0*
20,1,$1+$1,$6,$7,$8,$9,0*
20,1,$1+$1,$8,$9,$2,$3,0*%
G04 Aperture macros list end*
%ADD10C,0.100000*%
%ADD11C,0.120000*%
%ADD12C,0.150000*%
%ADD13RoundRect,0.250000X0.350000X0.450000X-0.350000X0.450000X-0.350000X-0.450000X0.350000X-0.450000X0*%
%ADD14RoundRect,0.250000X-0.350000X-0.450000X0.350000X-0.450000X0.350000X0.450000X-0.350000X0.450000X0*%
%ADD15R,3.000000X3.500000*%
%ADD16RoundRect,0.250000X0.475000X-0.250000X0.475000X0.250000X-0.475000X0.250000X-0.475000X-0.250000X0*%
%ADD17RoundRect,0.250000X0.650000X-0.325000X0.650000X0.325000X-0.650000X0.325000X-0.650000X-0.325000X0*%
%ADD18RoundRect,0.250000X-0.250000X-0.475000X0.250000X-0.475000X0.250000X0.475000X-0.250000X0.475000X0*%
%ADD19R,1.550000X0.600000*%
%ADD20R,2.600000X3.100000*%
%ADD21R,1.700000X1.700000*%
%ADD22O,1.700000X1.700000*%
G04 APERTURE END LIST*
D10*
X1227321Y-3704908D02*
X1362008Y-3637564D01*
X1362008Y-3637564D02*
X1530367Y-3469205D01*
X1530367Y-3469205D02*
X1564039Y-3368190D01*
X1564039Y-3368190D02*
X1564039Y-3300847D01*
X1564039Y-3300847D02*
X1530367Y-3199831D01*
X1530367Y-3199831D02*
X1463024Y-3132488D01*
X1463024Y-3132488D02*
X1362008Y-3098816D01*
X1362008Y-3098816D02*
X1294665Y-3098816D01*
X1294665Y-3098816D02*
X1193649Y-3132488D01*
X1193649Y-3132488D02*
X1025291Y-3233503D01*
X1025291Y-3233503D02*
X924275Y-3267175D01*
X924275Y-3267175D02*
X856932Y-3267175D01*
X856932Y-3267175D02*
X755917Y-3233503D01*
X755917Y-3233503D02*
X688573Y-3166160D01*
X688573Y-3166160D02*
X654901Y-3065144D01*
X654901Y-3065144D02*
X654901Y-2997801D01*
X654901Y-2997801D02*
X688573Y-2896786D01*
X688573Y-2896786D02*
X856932Y-2728427D01*
X856932Y-2728427D02*
X991619Y-2661083D01*
X1968100Y-3031472D02*
X1260993Y-2324366D01*
X2001771Y-1650931D02*
X1900756Y-1684603D01*
X1900756Y-1684603D02*
X1799741Y-1785618D01*
X1799741Y-1785618D02*
X1732397Y-1920305D01*
X1732397Y-1920305D02*
X1732397Y-2054992D01*
X1732397Y-2054992D02*
X1766069Y-2156007D01*
X1766069Y-2156007D02*
X1867084Y-2324366D01*
X1867084Y-2324366D02*
X1968099Y-2425381D01*
X1968099Y-2425381D02*
X2136458Y-2526397D01*
X2136458Y-2526397D02*
X2237473Y-2560068D01*
X2237473Y-2560068D02*
X2372160Y-2560068D01*
X2372160Y-2560068D02*
X2506847Y-2492725D01*
X2506847Y-2492725D02*
X2574191Y-2425381D01*
X2574191Y-2425381D02*
X2641535Y-2290694D01*
X2641535Y-2290694D02*
X2641535Y-2223351D01*
X2641535Y-2223351D02*
X2405832Y-1987649D01*
X2405832Y-1987649D02*
X2271145Y-2122336D01*
X506543Y-5448816D02*
X1449352Y-5920221D01*
X1449352Y-5920221D02*
X977947Y-4977411D01*
X1348337Y-4607022D02*
X1483024Y-4472335D01*
X1483024Y-4472335D02*
X1584039Y-4438663D01*
X1584039Y-4438663D02*
X1718726Y-4438663D01*
X1718726Y-4438663D02*
X1887085Y-4539679D01*
X1887085Y-4539679D02*
X2122787Y-4775381D01*
X2122787Y-4775381D02*
X2223802Y-4943740D01*
X2223802Y-4943740D02*
X2223802Y-5078427D01*
X2223802Y-5078427D02*
X2190130Y-5179442D01*
X2190130Y-5179442D02*
X2055443Y-5314129D01*
X2055443Y-5314129D02*
X1954428Y-5347801D01*
X1954428Y-5347801D02*
X1819741Y-5347801D01*
X1819741Y-5347801D02*
X1651382Y-5246785D01*
X1651382Y-5246785D02*
X1415680Y-5011083D01*
X1415680Y-5011083D02*
X1314665Y-4842724D01*
X1314665Y-4842724D02*
X1314665Y-4708037D01*
X1314665Y-4708037D02*
X1348337Y-4607022D01*
X2998252Y-4371320D02*
X2661535Y-4708037D01*
X2661535Y-4708037D02*
X1954428Y-4000931D01*
X8753884Y-12898609D02*
X9087217Y-12898609D01*
X9230074Y-13422419D02*
X8753884Y-13422419D01*
X8753884Y-13422419D02*
X8753884Y-12422419D01*
X8753884Y-12422419D02*
X9230074Y-12422419D01*
X9563408Y-12422419D02*
X10230074Y-12422419D01*
X10230074Y-12422419D02*
X9563408Y-13422419D01*
X9563408Y-13422419D02*
X10230074Y-13422419D01*
X10563408Y-13374800D02*
X10706265Y-13422419D01*
X10706265Y-13422419D02*
X10944360Y-13422419D01*
X10944360Y-13422419D02*
X11039598Y-13374800D01*
X11039598Y-13374800D02*
X11087217Y-13327180D01*
X11087217Y-13327180D02*
X11134836Y-13231942D01*
X11134836Y-13231942D02*
X11134836Y-13136704D01*
X11134836Y-13136704D02*
X11087217Y-13041466D01*
X11087217Y-13041466D02*
X11039598Y-12993847D01*
X11039598Y-12993847D02*
X10944360Y-12946228D01*
X10944360Y-12946228D02*
X10753884Y-12898609D01*
X10753884Y-12898609D02*
X10658646Y-12850990D01*
X10658646Y-12850990D02*
X10611027Y-12803371D01*
X10611027Y-12803371D02*
X10563408Y-12708133D01*
X10563408Y-12708133D02*
X10563408Y-12612895D01*
X10563408Y-12612895D02*
X10611027Y-12517657D01*
X10611027Y-12517657D02*
X10658646Y-12470038D01*
X10658646Y-12470038D02*
X10753884Y-12422419D01*
X10753884Y-12422419D02*
X10991979Y-12422419D01*
X10991979Y-12422419D02*
X11134836Y-12470038D01*
X11944360Y-13374800D02*
X11849122Y-13422419D01*
X11849122Y-13422419D02*
X11658646Y-13422419D01*
X11658646Y-13422419D02*
X11563408Y-13374800D01*
X11563408Y-13374800D02*
X11515789Y-13279561D01*
X11515789Y-13279561D02*
X11515789Y-12898609D01*
X11515789Y-12898609D02*
X11563408Y-12803371D01*
X11563408Y-12803371D02*
X11658646Y-12755752D01*
X11658646Y-12755752D02*
X11849122Y-12755752D01*
X11849122Y-12755752D02*
X11944360Y-12803371D01*
X11944360Y-12803371D02*
X11991979Y-12898609D01*
X11991979Y-12898609D02*
X11991979Y-12993847D01*
X11991979Y-12993847D02*
X11515789Y-13089085D01*
X12420551Y-13422419D02*
X12420551Y-12755752D01*
X12420551Y-12946228D02*
X12468170Y-12850990D01*
X12468170Y-12850990D02*
X12515789Y-12803371D01*
X12515789Y-12803371D02*
X12611027Y-12755752D01*
X12611027Y-12755752D02*
X12706265Y-12755752D01*
X12944361Y-12755752D02*
X13182456Y-13422419D01*
X13182456Y-13422419D02*
X13420551Y-12755752D01*
X13944361Y-13422419D02*
X13849123Y-13374800D01*
X13849123Y-13374800D02*
X13801504Y-13327180D01*
X13801504Y-13327180D02*
X13753885Y-13231942D01*
X13753885Y-13231942D02*
X13753885Y-12946228D01*
X13753885Y-12946228D02*
X13801504Y-12850990D01*
X13801504Y-12850990D02*
X13849123Y-12803371D01*
X13849123Y-12803371D02*
X13944361Y-12755752D01*
X13944361Y-12755752D02*
X14087218Y-12755752D01*
X14087218Y-12755752D02*
X14182456Y-12803371D01*
X14182456Y-12803371D02*
X14230075Y-12850990D01*
X14230075Y-12850990D02*
X14277694Y-12946228D01*
X14277694Y-12946228D02*
X14277694Y-13231942D01*
X14277694Y-13231942D02*
X14230075Y-13327180D01*
X14230075Y-13327180D02*
X14182456Y-13374800D01*
X14182456Y-13374800D02*
X14087218Y-13422419D01*
X14087218Y-13422419D02*
X13944361Y-13422419D01*
X15372933Y-12755752D02*
X15611028Y-13422419D01*
X15611028Y-13422419D02*
X15849123Y-12755752D01*
X16420552Y-12422419D02*
X16515790Y-12422419D01*
X16515790Y-12422419D02*
X16611028Y-12470038D01*
X16611028Y-12470038D02*
X16658647Y-12517657D01*
X16658647Y-12517657D02*
X16706266Y-12612895D01*
X16706266Y-12612895D02*
X16753885Y-12803371D01*
X16753885Y-12803371D02*
X16753885Y-13041466D01*
X16753885Y-13041466D02*
X16706266Y-13231942D01*
X16706266Y-13231942D02*
X16658647Y-13327180D01*
X16658647Y-13327180D02*
X16611028Y-13374800D01*
X16611028Y-13374800D02*
X16515790Y-13422419D01*
X16515790Y-13422419D02*
X16420552Y-13422419D01*
X16420552Y-13422419D02*
X16325314Y-13374800D01*
X16325314Y-13374800D02*
X16277695Y-13327180D01*
X16277695Y-13327180D02*
X16230076Y-13231942D01*
X16230076Y-13231942D02*
X16182457Y-13041466D01*
X16182457Y-13041466D02*
X16182457Y-12803371D01*
X16182457Y-12803371D02*
X16230076Y-12612895D01*
X16230076Y-12612895D02*
X16277695Y-12517657D01*
X16277695Y-12517657D02*
X16325314Y-12470038D01*
X16325314Y-12470038D02*
X16420552Y-12422419D01*
X17182457Y-13327180D02*
X17230076Y-13374800D01*
X17230076Y-13374800D02*
X17182457Y-13422419D01*
X17182457Y-13422419D02*
X17134838Y-13374800D01*
X17134838Y-13374800D02*
X17182457Y-13327180D01*
X17182457Y-13327180D02*
X17182457Y-13422419D01*
X17849123Y-12422419D02*
X17944361Y-12422419D01*
X17944361Y-12422419D02*
X18039599Y-12470038D01*
X18039599Y-12470038D02*
X18087218Y-12517657D01*
X18087218Y-12517657D02*
X18134837Y-12612895D01*
X18134837Y-12612895D02*
X18182456Y-12803371D01*
X18182456Y-12803371D02*
X18182456Y-13041466D01*
X18182456Y-13041466D02*
X18134837Y-13231942D01*
X18134837Y-13231942D02*
X18087218Y-13327180D01*
X18087218Y-13327180D02*
X18039599Y-13374800D01*
X18039599Y-13374800D02*
X17944361Y-13422419D01*
X17944361Y-13422419D02*
X17849123Y-13422419D01*
X17849123Y-13422419D02*
X17753885Y-13374800D01*
X17753885Y-13374800D02*
X17706266Y-13327180D01*
X17706266Y-13327180D02*
X17658647Y-13231942D01*
X17658647Y-13231942D02*
X17611028Y-13041466D01*
X17611028Y-13041466D02*
X17611028Y-12803371D01*
X17611028Y-12803371D02*
X17658647Y-12612895D01*
X17658647Y-12612895D02*
X17706266Y-12517657D01*
X17706266Y-12517657D02*
X17753885Y-12470038D01*
X17753885Y-12470038D02*
X17849123Y-12422419D01*
X18611028Y-13327180D02*
X18658647Y-13374800D01*
X18658647Y-13374800D02*
X18611028Y-13422419D01*
X18611028Y-13422419D02*
X18563409Y-13374800D01*
X18563409Y-13374800D02*
X18611028Y-13327180D01*
X18611028Y-13327180D02*
X18611028Y-13422419D01*
X19277694Y-12422419D02*
X19372932Y-12422419D01*
X19372932Y-12422419D02*
X19468170Y-12470038D01*
X19468170Y-12470038D02*
X19515789Y-12517657D01*
X19515789Y-12517657D02*
X19563408Y-12612895D01*
X19563408Y-12612895D02*
X19611027Y-12803371D01*
X19611027Y-12803371D02*
X19611027Y-13041466D01*
X19611027Y-13041466D02*
X19563408Y-13231942D01*
X19563408Y-13231942D02*
X19515789Y-13327180D01*
X19515789Y-13327180D02*
X19468170Y-13374800D01*
X19468170Y-13374800D02*
X19372932Y-13422419D01*
X19372932Y-13422419D02*
X19277694Y-13422419D01*
X19277694Y-13422419D02*
X19182456Y-13374800D01*
X19182456Y-13374800D02*
X19134837Y-13327180D01*
X19134837Y-13327180D02*
X19087218Y-13231942D01*
X19087218Y-13231942D02*
X19039599Y-13041466D01*
X19039599Y-13041466D02*
X19039599Y-12803371D01*
X19039599Y-12803371D02*
X19087218Y-12612895D01*
X19087218Y-12612895D02*
X19134837Y-12517657D01*
X19134837Y-12517657D02*
X19182456Y-12470038D01*
X19182456Y-12470038D02*
X19277694Y-12422419D01*
X831619Y-7631083D02*
X730604Y-7664755D01*
X730604Y-7664755D02*
X629588Y-7765770D01*
X629588Y-7765770D02*
X562245Y-7900457D01*
X562245Y-7900457D02*
X562245Y-8035144D01*
X562245Y-8035144D02*
X595917Y-8136160D01*
X595917Y-8136160D02*
X696932Y-8304518D01*
X696932Y-8304518D02*
X797947Y-8405534D01*
X797947Y-8405534D02*
X966306Y-8506549D01*
X966306Y-8506549D02*
X1067321Y-8540221D01*
X1067321Y-8540221D02*
X1202008Y-8540221D01*
X1202008Y-8540221D02*
X1336695Y-8472877D01*
X1336695Y-8472877D02*
X1404039Y-8405534D01*
X1404039Y-8405534D02*
X1471382Y-8270847D01*
X1471382Y-8270847D02*
X1471382Y-8203503D01*
X1471382Y-8203503D02*
X1235680Y-7967801D01*
X1235680Y-7967801D02*
X1100993Y-8102488D01*
X1841772Y-7967801D02*
X1134665Y-7260694D01*
X1134665Y-7260694D02*
X2245833Y-7563740D01*
X2245833Y-7563740D02*
X1538726Y-6856633D01*
X2582550Y-7227022D02*
X1875443Y-6519915D01*
X1875443Y-6519915D02*
X2043802Y-6351557D01*
X2043802Y-6351557D02*
X2178489Y-6284213D01*
X2178489Y-6284213D02*
X2313176Y-6284213D01*
X2313176Y-6284213D02*
X2414191Y-6317885D01*
X2414191Y-6317885D02*
X2582550Y-6418900D01*
X2582550Y-6418900D02*
X2683565Y-6519915D01*
X2683565Y-6519915D02*
X2784581Y-6688274D01*
X2784581Y-6688274D02*
X2818252Y-6789289D01*
X2818252Y-6789289D02*
X2818252Y-6923976D01*
X2818252Y-6923976D02*
X2750909Y-7058664D01*
X2750909Y-7058664D02*
X2582550Y-7227022D01*
D11*
%TO.C,R3*%
X14417064Y-8215000D02*
X13962936Y-8215000D01*
X14417064Y-9685000D02*
X13962936Y-9685000D01*
%TO.C,R1*%
X17672936Y-8215000D02*
X18127064Y-8215000D01*
X17672936Y-9685000D02*
X18127064Y-9685000D01*
%TO.C,L1*%
X11240000Y-2150000D02*
X11240000Y-1000000D01*
X11240000Y-7260000D02*
X11240000Y-6050000D01*
X11840000Y-340000D02*
X18160000Y-340000D01*
X18160000Y-7860000D02*
X11840000Y-7860000D01*
X18760000Y-950000D02*
X18760000Y-2150000D01*
X18760000Y-6050000D02*
X18760000Y-7260000D01*
X11240000Y-1000000D02*
G75*
G02*
X11840000Y-340000I630000J30000D01*
G01*
X11840000Y-7860000D02*
G75*
G02*
X11240000Y-7260000I0J600000D01*
G01*
X18160000Y-340000D02*
G75*
G02*
X18760000Y-950000I-5004J-605004D01*
G01*
X18760000Y-7260000D02*
G75*
G02*
X18160000Y-7860000I-600000J0D01*
G01*
%TO.C,C1*%
X8895000Y-10831252D02*
X8895000Y-10308748D01*
X10365000Y-10831252D02*
X10365000Y-10308748D01*
%TO.C,C4*%
X8180000Y-3331252D02*
X8180000Y-1908748D01*
X10000000Y-3331252D02*
X10000000Y-1908748D01*
%TO.C,C5*%
X8268748Y-5185000D02*
X8791252Y-5185000D01*
X8268748Y-6655000D02*
X8791252Y-6655000D01*
%TO.C,C3*%
X5870000Y-3331252D02*
X5870000Y-1908748D01*
X7690000Y-3331252D02*
X7690000Y-1908748D01*
D12*
%TO.C,U1*%
X2825000Y-9055000D02*
X6975000Y-9055000D01*
X2825000Y-14205000D02*
X6975000Y-14205000D01*
D11*
X2400000Y-9130000D02*
X2160000Y-8800000D01*
X2640000Y-8800000D01*
X2400000Y-9130000D01*
G36*
X2400000Y-9130000D02*
G01*
X2160000Y-8800000D01*
X2640000Y-8800000D01*
X2400000Y-9130000D01*
G37*
%TO.C,C6*%
X8268748Y-7155000D02*
X8791252Y-7155000D01*
X8268748Y-8625000D02*
X8791252Y-8625000D01*
%TD*%
%LPC*%
D13*
%TO.C,R3*%
X15190000Y-8950000D03*
X13190000Y-8950000D03*
%TD*%
D14*
%TO.C,R1*%
X16900000Y-8950000D03*
X18900000Y-8950000D03*
%TD*%
D15*
%TO.C,L1*%
X18000000Y-4100000D03*
X12000000Y-4100000D03*
%TD*%
D16*
%TO.C,C1*%
X9630000Y-11520000D03*
X9630000Y-9620000D03*
%TD*%
D17*
%TO.C,C4*%
X9090000Y-4095000D03*
X9090000Y-1145000D03*
%TD*%
D18*
%TO.C,C5*%
X7580000Y-5920000D03*
X9480000Y-5920000D03*
%TD*%
D17*
%TO.C,C3*%
X6780000Y-4095000D03*
X6780000Y-1145000D03*
%TD*%
D19*
%TO.C,U1*%
X2200000Y-9725000D03*
X2200000Y-10995000D03*
X2200000Y-12265000D03*
X2200000Y-13535000D03*
X7600000Y-13535000D03*
X7600000Y-12265000D03*
X7600000Y-10995000D03*
X7600000Y-9725000D03*
D20*
X4900000Y-11630000D03*
%TD*%
D18*
%TO.C,C6*%
X7580000Y-7890000D03*
X9480000Y-7890000D03*
%TD*%
D21*
%TO.C,J2*%
X4150000Y-1850000D03*
D22*
X4150000Y-4390000D03*
X4150000Y-6930000D03*
%TD*%
D21*
%TO.C,J3*%
X18200000Y-10930000D03*
D22*
X15660000Y-10930000D03*
X13120000Y-10930000D03*
%TD*%
G36*
X17943039Y-15019685D02*
G01*
X17988794Y-15072489D01*
X18000000Y-15124000D01*
X18000000Y-18876000D01*
X17980315Y-18943039D01*
X17927511Y-18988794D01*
X17876000Y-19000000D01*
X16624000Y-19000000D01*
X16556961Y-18980315D01*
X16511206Y-18927511D01*
X16500000Y-18876000D01*
X16500000Y-15124000D01*
X16519685Y-15056961D01*
X16572489Y-15011206D01*
X16624000Y-15000000D01*
X17876000Y-15000000D01*
X17943039Y-15019685D01*
G37*
G36*
X3943039Y-15019685D02*
G01*
X3988794Y-15072489D01*
X4000000Y-15124000D01*
X4000000Y-18876000D01*
X3980315Y-18943039D01*
X3927511Y-18988794D01*
X3876000Y-19000000D01*
X2624000Y-19000000D01*
X2556961Y-18980315D01*
X2511206Y-18927511D01*
X2500000Y-18876000D01*
X2500000Y-15124000D01*
X2519685Y-15056961D01*
X2572489Y-15011206D01*
X2624000Y-15000000D01*
X3876000Y-15000000D01*
X3943039Y-15019685D01*
G37*
G36*
X7943039Y-15019685D02*
G01*
X7988794Y-15072489D01*
X8000000Y-15124000D01*
X8000000Y-18876000D01*
X7980315Y-18943039D01*
X7927511Y-18988794D01*
X7876000Y-19000000D01*
X6624000Y-19000000D01*
X6556961Y-18980315D01*
X6511206Y-18927511D01*
X6500000Y-18876000D01*
X6500000Y-15124000D01*
X6519685Y-15056961D01*
X6572489Y-15011206D01*
X6624000Y-15000000D01*
X7876000Y-15000000D01*
X7943039Y-15019685D01*
G37*
G36*
X13943039Y-15019685D02*
G01*
X13988794Y-15072489D01*
X14000000Y-15124000D01*
X14000000Y-18876000D01*
X13980315Y-18943039D01*
X13927511Y-18988794D01*
X13876000Y-19000000D01*
X12624000Y-19000000D01*
X12556961Y-18980315D01*
X12511206Y-18927511D01*
X12500000Y-18876000D01*
X12500000Y-15124000D01*
X12519685Y-15056961D01*
X12572489Y-15011206D01*
X12624000Y-15000000D01*
X13876000Y-15000000D01*
X13943039Y-15019685D01*
G37*
G36*
X15943039Y-15019685D02*
G01*
X15988794Y-15072489D01*
X16000000Y-15124000D01*
X16000000Y-18876000D01*
X15980315Y-18943039D01*
X15927511Y-18988794D01*
X15876000Y-19000000D01*
X14624000Y-19000000D01*
X14556961Y-18980315D01*
X14511206Y-18927511D01*
X14500000Y-18876000D01*
X14500000Y-15124000D01*
X14519685Y-15056961D01*
X14572489Y-15011206D01*
X14624000Y-15000000D01*
X15876000Y-15000000D01*
X15943039Y-15019685D01*
G37*
G36*
X5943039Y-15019685D02*
G01*
X5988794Y-15072489D01*
X6000000Y-15124000D01*
X6000000Y-18876000D01*
X5980315Y-18943039D01*
X5927511Y-18988794D01*
X5876000Y-19000000D01*
X4624000Y-19000000D01*
X4556961Y-18980315D01*
X4511206Y-18927511D01*
X4500000Y-18876000D01*
X4500000Y-15124000D01*
X4519685Y-15056961D01*
X4572489Y-15011206D01*
X4624000Y-15000000D01*
X5876000Y-15000000D01*
X5943039Y-15019685D01*
G37*
G36*
X9943039Y-15019685D02*
G01*
X9988794Y-15072489D01*
X10000000Y-15124000D01*
X10000000Y-18876000D01*
X9980315Y-18943039D01*
X9927511Y-18988794D01*
X9876000Y-19000000D01*
X8624000Y-19000000D01*
X8556961Y-18980315D01*
X8511206Y-18927511D01*
X8500000Y-18876000D01*
X8500000Y-15124000D01*
X8519685Y-15056961D01*
X8572489Y-15011206D01*
X8624000Y-15000000D01*
X9876000Y-15000000D01*
X9943039Y-15019685D01*
G37*
G36*
X11943039Y-15019685D02*
G01*
X11988794Y-15072489D01*
X12000000Y-15124000D01*
X12000000Y-18876000D01*
X11980315Y-18943039D01*
X11927511Y-18988794D01*
X11876000Y-19000000D01*
X10624000Y-19000000D01*
X10556961Y-18980315D01*
X10511206Y-18927511D01*
X10500000Y-18876000D01*
X10500000Y-15124000D01*
X10519685Y-15056961D01*
X10572489Y-15011206D01*
X10624000Y-15000000D01*
X11876000Y-15000000D01*
X11943039Y-15019685D01*
G37*
%LPD*%
M02*
