M48
; DRILL file {KiCad 8.0.2-1} date 2024-05-31T22:44:38-0400
; FORMAT={-:-/ absolute / inch / decimal}
; #@! TF.CreationDate,2024-05-31T22:44:38-04:00
; #@! TF.GenerationSoftware,Kicad,Pcbnew,8.0.2-1
; #@! TF.FileFunction,Plated,1,4,PTH
FMAT,2
INCH
; #@! TA.AperFunction,Plated,PTH,ViaDrill
T1C0.0118
; #@! TA.AperFunction,Plated,PTH,ComponentDrill
T2C0.0118
; #@! TA.AperFunction,Plated,PTH,ComponentDrill
T3C0.0394
%
G90
G05
T1
X0.0461Y-0.3728
X0.0461Y-0.513
X0.3177Y-0.0669
X0.3402Y-0.4398
X0.4079Y-0.1882
X0.4551Y-0.4756
X0.4567Y-0.3008
X0.5587Y-0.3198
X0.5626Y-0.3909
X0.6024Y-0.5709
X0.6319Y-0.3122
X0.6362Y-0.3524
X0.6811Y-0.5433
X0.6811Y-0.5709
X0.7445Y-0.2394
T2
X0.1693Y-0.387
X0.1693Y-0.4343
X0.1693Y-0.4854
X0.1693Y-0.5287
X0.2165Y-0.387
X0.2165Y-0.4343
X0.2165Y-0.4854
X0.2165Y-0.5287
T3
X0.1634Y-0.0728
X0.1634Y-0.1728
X0.1634Y-0.2728
X0.5165Y-0.4303
X0.6165Y-0.4303
X0.7165Y-0.4303
M30
