%TF.GenerationSoftware,KiCad,Pcbnew,8.0.2-1*%
%TF.CreationDate,2024-05-31T22:44:38-04:00*%
%TF.ProjectId,ez-servo,657a2d73-6572-4766-9f2e-6b696361645f,v0.0.0*%
%TF.SameCoordinates,Original*%
%TF.FileFunction,Soldermask,Top*%
%TF.FilePolarity,Negative*%
%FSLAX46Y46*%
G04 Gerber Fmt 4.6, Leading zero omitted, Abs format (unit mm)*
G04 Created by KiCad (PCBNEW 8.0.2-1) date 2024-05-31 22:44:38*
%MOMM*%
%LPD*%
G01*
G04 APERTURE LIST*
G04 Aperture macros list*
%AMRoundRect*
0 Rectangle with rounded corners*
0 $1 Rounding radius*
0 $2 $3 $4 $5 $6 $7 $8 $9 X,Y pos of 4 corners*
0 Add a 4 corners polygon primitive as box body*
4,1,4,$2,$3,$4,$5,$6,$7,$8,$9,$2,$3,0*
0 Add four circle primitives for the rounded corners*
1,1,$1+$1,$2,$3*
1,1,$1+$1,$4,$5*
1,1,$1+$1,$6,$7*
1,1,$1+$1,$8,$9*
0 Add four rect primitives between the rounded corners*
20,1,$1+$1,$2,$3,$4,$5,0*
20,1,$1+$1,$4,$5,$6,$7,0*
20,1,$1+$1,$6,$7,$8,$9,0*
20,1,$1+$1,$8,$9,$2,$3,0*%
G04 Aperture macros list end*
%ADD10RoundRect,0.250000X0.350000X0.450000X-0.350000X0.450000X-0.350000X-0.450000X0.350000X-0.450000X0*%
%ADD11RoundRect,0.250000X-0.350000X-0.450000X0.350000X-0.450000X0.350000X0.450000X-0.350000X0.450000X0*%
%ADD12R,3.000000X3.500000*%
%ADD13RoundRect,0.250000X0.475000X-0.250000X0.475000X0.250000X-0.475000X0.250000X-0.475000X-0.250000X0*%
%ADD14RoundRect,0.250000X0.650000X-0.325000X0.650000X0.325000X-0.650000X0.325000X-0.650000X-0.325000X0*%
%ADD15RoundRect,0.250000X-0.250000X-0.475000X0.250000X-0.475000X0.250000X0.475000X-0.250000X0.475000X0*%
%ADD16R,1.550000X0.600000*%
%ADD17R,2.600000X3.100000*%
%ADD18R,1.700000X1.700000*%
%ADD19O,1.700000X1.700000*%
G04 APERTURE END LIST*
D10*
%TO.C,R3*%
X15190000Y-8950000D03*
X13190000Y-8950000D03*
%TD*%
D11*
%TO.C,R1*%
X16900000Y-8950000D03*
X18900000Y-8950000D03*
%TD*%
D12*
%TO.C,L1*%
X18000000Y-4100000D03*
X12000000Y-4100000D03*
%TD*%
D13*
%TO.C,C1*%
X9630000Y-11520000D03*
X9630000Y-9620000D03*
%TD*%
D14*
%TO.C,C4*%
X9090000Y-4095000D03*
X9090000Y-1145000D03*
%TD*%
D15*
%TO.C,C5*%
X7580000Y-5920000D03*
X9480000Y-5920000D03*
%TD*%
D14*
%TO.C,C3*%
X6780000Y-4095000D03*
X6780000Y-1145000D03*
%TD*%
D16*
%TO.C,U1*%
X2200000Y-9725000D03*
X2200000Y-10995000D03*
X2200000Y-12265000D03*
X2200000Y-13535000D03*
X7600000Y-13535000D03*
X7600000Y-12265000D03*
X7600000Y-10995000D03*
X7600000Y-9725000D03*
D17*
X4900000Y-11630000D03*
%TD*%
D15*
%TO.C,C6*%
X7580000Y-7890000D03*
X9480000Y-7890000D03*
%TD*%
D18*
%TO.C,J2*%
X4150000Y-1850000D03*
D19*
X4150000Y-4390000D03*
X4150000Y-6930000D03*
%TD*%
D18*
%TO.C,J3*%
X18200000Y-10930000D03*
D19*
X15660000Y-10930000D03*
X13120000Y-10930000D03*
%TD*%
G36*
X17943039Y-15019685D02*
G01*
X17988794Y-15072489D01*
X18000000Y-15124000D01*
X18000000Y-18876000D01*
X17980315Y-18943039D01*
X17927511Y-18988794D01*
X17876000Y-19000000D01*
X16624000Y-19000000D01*
X16556961Y-18980315D01*
X16511206Y-18927511D01*
X16500000Y-18876000D01*
X16500000Y-15124000D01*
X16519685Y-15056961D01*
X16572489Y-15011206D01*
X16624000Y-15000000D01*
X17876000Y-15000000D01*
X17943039Y-15019685D01*
G37*
G36*
X3943039Y-15019685D02*
G01*
X3988794Y-15072489D01*
X4000000Y-15124000D01*
X4000000Y-18876000D01*
X3980315Y-18943039D01*
X3927511Y-18988794D01*
X3876000Y-19000000D01*
X2624000Y-19000000D01*
X2556961Y-18980315D01*
X2511206Y-18927511D01*
X2500000Y-18876000D01*
X2500000Y-15124000D01*
X2519685Y-15056961D01*
X2572489Y-15011206D01*
X2624000Y-15000000D01*
X3876000Y-15000000D01*
X3943039Y-15019685D01*
G37*
G36*
X7943039Y-15019685D02*
G01*
X7988794Y-15072489D01*
X8000000Y-15124000D01*
X8000000Y-18876000D01*
X7980315Y-18943039D01*
X7927511Y-18988794D01*
X7876000Y-19000000D01*
X6624000Y-19000000D01*
X6556961Y-18980315D01*
X6511206Y-18927511D01*
X6500000Y-18876000D01*
X6500000Y-15124000D01*
X6519685Y-15056961D01*
X6572489Y-15011206D01*
X6624000Y-15000000D01*
X7876000Y-15000000D01*
X7943039Y-15019685D01*
G37*
G36*
X13943039Y-15019685D02*
G01*
X13988794Y-15072489D01*
X14000000Y-15124000D01*
X14000000Y-18876000D01*
X13980315Y-18943039D01*
X13927511Y-18988794D01*
X13876000Y-19000000D01*
X12624000Y-19000000D01*
X12556961Y-18980315D01*
X12511206Y-18927511D01*
X12500000Y-18876000D01*
X12500000Y-15124000D01*
X12519685Y-15056961D01*
X12572489Y-15011206D01*
X12624000Y-15000000D01*
X13876000Y-15000000D01*
X13943039Y-15019685D01*
G37*
G36*
X15943039Y-15019685D02*
G01*
X15988794Y-15072489D01*
X16000000Y-15124000D01*
X16000000Y-18876000D01*
X15980315Y-18943039D01*
X15927511Y-18988794D01*
X15876000Y-19000000D01*
X14624000Y-19000000D01*
X14556961Y-18980315D01*
X14511206Y-18927511D01*
X14500000Y-18876000D01*
X14500000Y-15124000D01*
X14519685Y-15056961D01*
X14572489Y-15011206D01*
X14624000Y-15000000D01*
X15876000Y-15000000D01*
X15943039Y-15019685D01*
G37*
G36*
X5943039Y-15019685D02*
G01*
X5988794Y-15072489D01*
X6000000Y-15124000D01*
X6000000Y-18876000D01*
X5980315Y-18943039D01*
X5927511Y-18988794D01*
X5876000Y-19000000D01*
X4624000Y-19000000D01*
X4556961Y-18980315D01*
X4511206Y-18927511D01*
X4500000Y-18876000D01*
X4500000Y-15124000D01*
X4519685Y-15056961D01*
X4572489Y-15011206D01*
X4624000Y-15000000D01*
X5876000Y-15000000D01*
X5943039Y-15019685D01*
G37*
G36*
X9943039Y-15019685D02*
G01*
X9988794Y-15072489D01*
X10000000Y-15124000D01*
X10000000Y-18876000D01*
X9980315Y-18943039D01*
X9927511Y-18988794D01*
X9876000Y-19000000D01*
X8624000Y-19000000D01*
X8556961Y-18980315D01*
X8511206Y-18927511D01*
X8500000Y-18876000D01*
X8500000Y-15124000D01*
X8519685Y-15056961D01*
X8572489Y-15011206D01*
X8624000Y-15000000D01*
X9876000Y-15000000D01*
X9943039Y-15019685D01*
G37*
G36*
X11943039Y-15019685D02*
G01*
X11988794Y-15072489D01*
X12000000Y-15124000D01*
X12000000Y-18876000D01*
X11980315Y-18943039D01*
X11927511Y-18988794D01*
X11876000Y-19000000D01*
X10624000Y-19000000D01*
X10556961Y-18980315D01*
X10511206Y-18927511D01*
X10500000Y-18876000D01*
X10500000Y-15124000D01*
X10519685Y-15056961D01*
X10572489Y-15011206D01*
X10624000Y-15000000D01*
X11876000Y-15000000D01*
X11943039Y-15019685D01*
G37*
M02*
