%TF.GenerationSoftware,KiCad,Pcbnew,8.0.2-1*%
%TF.CreationDate,2024-05-31T21:31:19-04:00*%
%TF.ProjectId,ez-servo,657a2d73-6572-4766-9f2e-6b696361645f,v0.0.0*%
%TF.SameCoordinates,Original*%
%TF.FileFunction,Copper,L4,Bot*%
%TF.FilePolarity,Positive*%
%FSLAX46Y46*%
G04 Gerber Fmt 4.6, Leading zero omitted, Abs format (unit mm)*
G04 Created by KiCad (PCBNEW 8.0.2-1) date 2024-05-31 21:31:19*
%MOMM*%
%LPD*%
G01*
G04 APERTURE LIST*
G04 Aperture macros list*
%AMRoundRect*
0 Rectangle with rounded corners*
0 $1 Rounding radius*
0 $2 $3 $4 $5 $6 $7 $8 $9 X,Y pos of 4 corners*
0 Add a 4 corners polygon primitive as box body*
4,1,4,$2,$3,$4,$5,$6,$7,$8,$9,$2,$3,0*
0 Add four circle primitives for the rounded corners*
1,1,$1+$1,$2,$3*
1,1,$1+$1,$4,$5*
1,1,$1+$1,$6,$7*
1,1,$1+$1,$8,$9*
0 Add four rect primitives between the rounded corners*
20,1,$1+$1,$2,$3,$4,$5,0*
20,1,$1+$1,$4,$5,$6,$7,0*
20,1,$1+$1,$6,$7,$8,$9,0*
20,1,$1+$1,$8,$9,$2,$3,0*%
G04 Aperture macros list end*
%TA.AperFunction,ComponentPad*%
%ADD10C,0.600000*%
%TD*%
%TA.AperFunction,SMDPad,CuDef*%
%ADD11R,2.950000X4.500000*%
%TD*%
%TA.AperFunction,SMDPad,CuDef*%
%ADD12RoundRect,0.250000X-0.250000X-0.475000X0.250000X-0.475000X0.250000X0.475000X-0.250000X0.475000X0*%
%TD*%
%TA.AperFunction,SMDPad,CuDef*%
%ADD13RoundRect,0.250000X-0.450000X0.262500X-0.450000X-0.262500X0.450000X-0.262500X0.450000X0.262500X0*%
%TD*%
%TA.AperFunction,SMDPad,CuDef*%
%ADD14RoundRect,0.250000X0.650000X-1.000000X0.650000X1.000000X-0.650000X1.000000X-0.650000X-1.000000X0*%
%TD*%
%TA.AperFunction,ComponentPad*%
%ADD15R,1.700000X1.700000*%
%TD*%
%TA.AperFunction,ComponentPad*%
%ADD16O,1.700000X1.700000*%
%TD*%
%TA.AperFunction,ViaPad*%
%ADD17C,0.600000*%
%TD*%
%TA.AperFunction,Conductor*%
%ADD18C,0.200000*%
%TD*%
%TA.AperFunction,Conductor*%
%ADD19C,1.000000*%
%TD*%
G04 APERTURE END LIST*
D10*
%TO.P,U1,9,GNDPAD*%
%TO.N,GND*%
X29300000Y-34830000D03*
X29300000Y-36030000D03*
X29300000Y-37330000D03*
X29300000Y-38430000D03*
D11*
X29900000Y-36630000D03*
D10*
X30500000Y-34830000D03*
X30500000Y-36030000D03*
X30500000Y-37330000D03*
X30500000Y-38430000D03*
%TD*%
D12*
%TO.P,C2,1*%
%TO.N,Net-(U1-BOOT)*%
X33700000Y-33240000D03*
%TO.P,C2,2*%
%TO.N,Net-(C2-Pad2)*%
X35600000Y-33240000D03*
%TD*%
D13*
%TO.P,R2,1*%
%TO.N,SENSE*%
X35400000Y-34987500D03*
%TO.P,R2,2*%
%TO.N,GND*%
X35400000Y-36812500D03*
%TD*%
D14*
%TO.P,D1,1,K*%
%TO.N,VOUT*%
X34410000Y-30760000D03*
%TO.P,D1,2,A*%
%TO.N,GND*%
X34410000Y-26760000D03*
%TD*%
D15*
%TO.P,J2,1,Pin_1*%
%TO.N,SERVO_PWM*%
X29150000Y-26850000D03*
D16*
%TO.P,J2,2,Pin_2*%
%TO.N,VOUT*%
X29150000Y-29390000D03*
%TO.P,J2,3,Pin_3*%
%TO.N,GND*%
X29150000Y-31930000D03*
%TD*%
D15*
%TO.P,J3,1,Pin_1*%
%TO.N,8_4V*%
X43200000Y-35930000D03*
D16*
%TO.P,J3,2,Pin_2*%
%TO.N,SENSE*%
X40660000Y-35930000D03*
%TO.P,J3,3,Pin_3*%
%TO.N,6V*%
X38120000Y-35930000D03*
%TD*%
D17*
%TO.N,Net-(C2-Pad2)*%
X43910000Y-31080000D03*
X41400549Y-32930823D03*
%TO.N,SENSE*%
X39700000Y-34777171D03*
%TO.N,VOUT*%
X41390000Y-33930000D03*
X35360000Y-29780000D03*
%TO.N,GND*%
X40300000Y-39500000D03*
%TO.N,SENSE*%
X26170000Y-38030000D03*
%TO.N,Net-(C2-Pad2)*%
X37818099Y-33235792D03*
%TO.N,Net-(U1-BOOT)*%
X26170000Y-34470000D03*
%TO.N,+24V*%
X42300000Y-38800000D03*
X42300000Y-39500000D03*
X33915000Y-35765000D03*
%TO.N,GND*%
X33070000Y-26700000D03*
%TD*%
D18*
%TO.N,SERVO_PWM*%
X29150000Y-26850000D02*
X31260000Y-26850000D01*
X35130000Y-28640000D02*
X41940000Y-35450000D01*
X31260000Y-26850000D02*
X33050000Y-28640000D01*
X41940000Y-37010000D02*
X40900000Y-38050000D01*
X33050000Y-28640000D02*
X35130000Y-28640000D01*
X41940000Y-35450000D02*
X41940000Y-37010000D01*
X40900000Y-38050000D02*
X40900000Y-40300000D01*
%TO.N,Net-(C2-Pad2)*%
X43840000Y-31150000D02*
X43910000Y-31080000D01*
X43840000Y-32520000D02*
X43840000Y-31150000D01*
X41400549Y-32930823D02*
X41430828Y-32900544D01*
X41430828Y-32900544D02*
X43459456Y-32900544D01*
X43459456Y-32900544D02*
X43840000Y-32520000D01*
%TO.N,SENSE*%
X39700000Y-34777171D02*
X35761483Y-34777171D01*
X35761483Y-34777171D02*
X35551154Y-34987500D01*
X35551154Y-34987500D02*
X35400000Y-34987500D01*
%TO.N,Net-(C2-Pad2)*%
X37813891Y-33240000D02*
X35600000Y-33240000D01*
X37818099Y-33235792D02*
X37813891Y-33240000D01*
X35600000Y-33230000D02*
X35620000Y-33210000D01*
X35600000Y-33240000D02*
X35600000Y-33230000D01*
D19*
%TO.N,VOUT*%
X31965000Y-29390000D02*
X33335000Y-30760000D01*
X29150000Y-29390000D02*
X31965000Y-29390000D01*
X33335000Y-30760000D02*
X34410000Y-30760000D01*
D18*
%TO.N,SENSE*%
X27925686Y-33610000D02*
X32550000Y-33610000D01*
X32550000Y-33610000D02*
X33907500Y-34967500D01*
X33907500Y-34967500D02*
X35400000Y-34967500D01*
X26170000Y-38030000D02*
X26170000Y-35365686D01*
X26170000Y-35365686D02*
X27925686Y-33610000D01*
%TO.N,Net-(U1-BOOT)*%
X26170000Y-34460000D02*
X27420000Y-33210000D01*
X26170000Y-34470000D02*
X26170000Y-34460000D01*
X27420000Y-33210000D02*
X33720000Y-33210000D01*
%TD*%
%TA.AperFunction,Conductor*%
%TO.N,GND*%
G36*
X26730000Y-39390000D02*
G01*
X25624500Y-39390000D01*
X25557461Y-39370315D01*
X25511706Y-39317511D01*
X25500500Y-39266000D01*
X25500500Y-38779094D01*
X25520185Y-38712055D01*
X25572989Y-38666300D01*
X25642147Y-38656356D01*
X25690471Y-38674100D01*
X25725121Y-38695872D01*
X25820475Y-38755788D01*
X25990745Y-38815368D01*
X25990750Y-38815369D01*
X26169996Y-38835565D01*
X26170000Y-38835565D01*
X26170004Y-38835565D01*
X26349249Y-38815369D01*
X26349252Y-38815368D01*
X26349255Y-38815368D01*
X26519522Y-38755789D01*
X26672262Y-38659816D01*
X26730000Y-38602078D01*
X26730000Y-39390000D01*
G37*
%TD.AperFunction*%
%TA.AperFunction,Conductor*%
G36*
X36775294Y-35397356D02*
G01*
X36821049Y-35450160D01*
X36830993Y-35519318D01*
X36828030Y-35533764D01*
X36784938Y-35694586D01*
X36784936Y-35694596D01*
X36764341Y-35929999D01*
X36764341Y-35930000D01*
X36784936Y-36165403D01*
X36784938Y-36165413D01*
X36846094Y-36393655D01*
X36846096Y-36393659D01*
X36846097Y-36393663D01*
X36919584Y-36551256D01*
X36945965Y-36607830D01*
X36945967Y-36607834D01*
X37054281Y-36762521D01*
X37081505Y-36801401D01*
X37248599Y-36968495D01*
X37303643Y-37007037D01*
X37442165Y-37104032D01*
X37442167Y-37104033D01*
X37442170Y-37104035D01*
X37656337Y-37203903D01*
X37656343Y-37203904D01*
X37656344Y-37203905D01*
X37711285Y-37218626D01*
X37884592Y-37265063D01*
X38072918Y-37281539D01*
X38119999Y-37285659D01*
X38120000Y-37285659D01*
X38120001Y-37285659D01*
X38159234Y-37282226D01*
X38355408Y-37265063D01*
X38583663Y-37203903D01*
X38797830Y-37104035D01*
X38991401Y-36968495D01*
X39158495Y-36801401D01*
X39288425Y-36615842D01*
X39343002Y-36572217D01*
X39412500Y-36565023D01*
X39474855Y-36596546D01*
X39491575Y-36615842D01*
X39621500Y-36801395D01*
X39621505Y-36801401D01*
X39788599Y-36968495D01*
X39843643Y-37007037D01*
X39982165Y-37104032D01*
X39982167Y-37104033D01*
X39982170Y-37104035D01*
X40196337Y-37203903D01*
X40196343Y-37203904D01*
X40196344Y-37203905D01*
X40251285Y-37218626D01*
X40424592Y-37265063D01*
X40537722Y-37274960D01*
X40602789Y-37300412D01*
X40643768Y-37357003D01*
X40647646Y-37426765D01*
X40614595Y-37486169D01*
X40531286Y-37569478D01*
X40419481Y-37681282D01*
X40419480Y-37681284D01*
X40374405Y-37759358D01*
X40369361Y-37768094D01*
X40369359Y-37768096D01*
X40340425Y-37818209D01*
X40340424Y-37818210D01*
X40340423Y-37818215D01*
X40299499Y-37970943D01*
X40299499Y-37970945D01*
X40299499Y-38139046D01*
X40299500Y-38139059D01*
X40299500Y-39266000D01*
X40279815Y-39333039D01*
X40227011Y-39378794D01*
X40175500Y-39390000D01*
X33280000Y-39390000D01*
X33280000Y-37124986D01*
X34200001Y-37124986D01*
X34210494Y-37227697D01*
X34265641Y-37394119D01*
X34265643Y-37394124D01*
X34357684Y-37543345D01*
X34481654Y-37667315D01*
X34630875Y-37759356D01*
X34630880Y-37759358D01*
X34797302Y-37814505D01*
X34797309Y-37814506D01*
X34900019Y-37824999D01*
X35149999Y-37824999D01*
X35650000Y-37824999D01*
X35899972Y-37824999D01*
X35899986Y-37824998D01*
X36002697Y-37814505D01*
X36169119Y-37759358D01*
X36169124Y-37759356D01*
X36318345Y-37667315D01*
X36442315Y-37543345D01*
X36534356Y-37394124D01*
X36534358Y-37394119D01*
X36589505Y-37227697D01*
X36589506Y-37227690D01*
X36599999Y-37124986D01*
X36600000Y-37124973D01*
X36600000Y-37062500D01*
X35650000Y-37062500D01*
X35650000Y-37824999D01*
X35149999Y-37824999D01*
X35150000Y-37824998D01*
X35150000Y-37062500D01*
X34200001Y-37062500D01*
X34200001Y-37124986D01*
X33280000Y-37124986D01*
X33280000Y-36259011D01*
X33285184Y-36267262D01*
X33412738Y-36394816D01*
X33565478Y-36490789D01*
X33591839Y-36500013D01*
X33735745Y-36550368D01*
X33735750Y-36550369D01*
X33914996Y-36570565D01*
X33915000Y-36570565D01*
X33915004Y-36570565D01*
X34094246Y-36550369D01*
X34094245Y-36550369D01*
X34094255Y-36550368D01*
X34094263Y-36550364D01*
X34101039Y-36548819D01*
X34101595Y-36551256D01*
X34159782Y-36548259D01*
X34185255Y-36562500D01*
X36599999Y-36562500D01*
X36599999Y-36500028D01*
X36599998Y-36500013D01*
X36589505Y-36397302D01*
X36534358Y-36230880D01*
X36534356Y-36230875D01*
X36442315Y-36081654D01*
X36348695Y-35988034D01*
X36315210Y-35926711D01*
X36320194Y-35857019D01*
X36348691Y-35812676D01*
X36442712Y-35718656D01*
X36534814Y-35569334D01*
X36570160Y-35462666D01*
X36609933Y-35405222D01*
X36674449Y-35378399D01*
X36687866Y-35377671D01*
X36708255Y-35377671D01*
X36775294Y-35397356D01*
G37*
%TD.AperFunction*%
%TA.AperFunction,Conductor*%
G36*
X27868038Y-25520185D02*
G01*
X27913793Y-25572989D01*
X27923737Y-25642147D01*
X27900265Y-25698810D01*
X27891877Y-25710016D01*
X27856204Y-25757668D01*
X27856202Y-25757671D01*
X27805908Y-25892517D01*
X27799501Y-25952116D01*
X27799501Y-25952123D01*
X27799500Y-25952135D01*
X27799500Y-27747870D01*
X27799501Y-27747876D01*
X27805908Y-27807483D01*
X27856202Y-27942328D01*
X27856206Y-27942335D01*
X27942452Y-28057544D01*
X27942455Y-28057547D01*
X28057664Y-28143793D01*
X28057671Y-28143797D01*
X28189081Y-28192810D01*
X28245015Y-28234681D01*
X28269432Y-28300145D01*
X28254580Y-28368418D01*
X28233430Y-28396673D01*
X28111503Y-28518600D01*
X27975965Y-28712169D01*
X27975964Y-28712171D01*
X27876098Y-28926335D01*
X27876094Y-28926344D01*
X27814938Y-29154586D01*
X27814936Y-29154596D01*
X27794341Y-29389999D01*
X27794341Y-29390000D01*
X27814936Y-29625403D01*
X27814938Y-29625413D01*
X27876094Y-29853655D01*
X27876096Y-29853659D01*
X27876097Y-29853663D01*
X27975965Y-30067830D01*
X27975967Y-30067834D01*
X28111501Y-30261395D01*
X28111506Y-30261402D01*
X28278597Y-30428493D01*
X28278603Y-30428498D01*
X28464594Y-30558730D01*
X28508219Y-30613307D01*
X28515413Y-30682805D01*
X28483890Y-30745160D01*
X28464595Y-30761880D01*
X28278922Y-30891890D01*
X28278920Y-30891891D01*
X28111891Y-31058920D01*
X28111886Y-31058926D01*
X27976400Y-31252420D01*
X27976399Y-31252422D01*
X27876570Y-31466507D01*
X27876567Y-31466513D01*
X27819364Y-31679999D01*
X27819364Y-31680000D01*
X28716988Y-31680000D01*
X28684075Y-31737007D01*
X28650000Y-31864174D01*
X28650000Y-31995826D01*
X28684075Y-32122993D01*
X28716988Y-32180000D01*
X27819364Y-32180000D01*
X27876567Y-32393486D01*
X27876569Y-32393492D01*
X27895037Y-32433095D01*
X27905529Y-32502172D01*
X27877009Y-32565956D01*
X27818533Y-32604196D01*
X27782655Y-32609500D01*
X27506669Y-32609500D01*
X27506653Y-32609499D01*
X27499057Y-32609499D01*
X27340943Y-32609499D01*
X27239556Y-32636666D01*
X27188210Y-32650424D01*
X27188209Y-32650425D01*
X27138096Y-32679359D01*
X27138095Y-32679360D01*
X27094689Y-32704420D01*
X27051285Y-32729479D01*
X27051282Y-32729481D01*
X26939478Y-32841286D01*
X26140195Y-33640568D01*
X26078872Y-33674053D01*
X26066398Y-33676107D01*
X25990750Y-33684630D01*
X25820478Y-33744210D01*
X25690472Y-33825899D01*
X25623235Y-33844899D01*
X25556400Y-33824531D01*
X25511186Y-33771263D01*
X25500500Y-33720905D01*
X25500500Y-25624500D01*
X25520185Y-25557461D01*
X25572989Y-25511706D01*
X25624500Y-25500500D01*
X27800999Y-25500500D01*
X27868038Y-25520185D01*
G37*
%TD.AperFunction*%
%TA.AperFunction,Conductor*%
G36*
X32961131Y-25520185D02*
G01*
X33006886Y-25572989D01*
X33017450Y-25637104D01*
X33010000Y-25710016D01*
X33010000Y-26510000D01*
X35809999Y-26510000D01*
X35809999Y-25710028D01*
X35809998Y-25710013D01*
X35802550Y-25637102D01*
X35815320Y-25568409D01*
X35863200Y-25517525D01*
X35925908Y-25500500D01*
X44375500Y-25500500D01*
X44442539Y-25520185D01*
X44488294Y-25572989D01*
X44499500Y-25624500D01*
X44499500Y-30280637D01*
X44479815Y-30347676D01*
X44427011Y-30393431D01*
X44357853Y-30403375D01*
X44309529Y-30385631D01*
X44259525Y-30354212D01*
X44089254Y-30294631D01*
X44089249Y-30294630D01*
X43910004Y-30274435D01*
X43909996Y-30274435D01*
X43730750Y-30294630D01*
X43730745Y-30294631D01*
X43560476Y-30354211D01*
X43407737Y-30450184D01*
X43280184Y-30577737D01*
X43184211Y-30730476D01*
X43124631Y-30900745D01*
X43124630Y-30900750D01*
X43104435Y-31079996D01*
X43104435Y-31080003D01*
X43124630Y-31259249D01*
X43124631Y-31259254D01*
X43184210Y-31429520D01*
X43184211Y-31429522D01*
X43220493Y-31487265D01*
X43239500Y-31553235D01*
X43239500Y-32176044D01*
X43219815Y-32243083D01*
X43167011Y-32288838D01*
X43115500Y-32300044D01*
X41937002Y-32300044D01*
X41871030Y-32281038D01*
X41855476Y-32271265D01*
X41750071Y-32205034D01*
X41579803Y-32145454D01*
X41579798Y-32145453D01*
X41400553Y-32125258D01*
X41400545Y-32125258D01*
X41221299Y-32145453D01*
X41221294Y-32145454D01*
X41051025Y-32205034D01*
X40898286Y-32301007D01*
X40770733Y-32428560D01*
X40674760Y-32581299D01*
X40615180Y-32751568D01*
X40615179Y-32751573D01*
X40594984Y-32930819D01*
X40594984Y-32930823D01*
X40596566Y-32944869D01*
X40584509Y-33013690D01*
X40537158Y-33065068D01*
X40469547Y-33082690D01*
X40403142Y-33060961D01*
X40385664Y-33046429D01*
X35689318Y-28350083D01*
X35655833Y-28288760D01*
X35660817Y-28219068D01*
X35671461Y-28197304D01*
X35744355Y-28079126D01*
X35744358Y-28079119D01*
X35799505Y-27912697D01*
X35799506Y-27912690D01*
X35809999Y-27809986D01*
X35810000Y-27809973D01*
X35810000Y-27010000D01*
X33010000Y-27010000D01*
X33010000Y-27451403D01*
X32990315Y-27518443D01*
X32937511Y-27564197D01*
X32868353Y-27574141D01*
X32804797Y-27545116D01*
X32798319Y-27539084D01*
X31747590Y-26488355D01*
X31747588Y-26488352D01*
X31628717Y-26369481D01*
X31628716Y-26369480D01*
X31541904Y-26319360D01*
X31541904Y-26319359D01*
X31541900Y-26319358D01*
X31491785Y-26290423D01*
X31339057Y-26249499D01*
X31180943Y-26249499D01*
X31173347Y-26249499D01*
X31173331Y-26249500D01*
X30624499Y-26249500D01*
X30557460Y-26229815D01*
X30511705Y-26177011D01*
X30500499Y-26125500D01*
X30500499Y-25952129D01*
X30500498Y-25952123D01*
X30500497Y-25952116D01*
X30494091Y-25892517D01*
X30443796Y-25757669D01*
X30399734Y-25698810D01*
X30375317Y-25633348D01*
X30390168Y-25565075D01*
X30439573Y-25515669D01*
X30499001Y-25500500D01*
X32894092Y-25500500D01*
X32961131Y-25520185D01*
G37*
%TD.AperFunction*%
%TA.AperFunction,Conductor*%
G36*
X31566257Y-30410185D02*
G01*
X31586899Y-30426819D01*
X32697215Y-31537137D01*
X32697223Y-31537143D01*
X32861084Y-31646631D01*
X32861087Y-31646633D01*
X32932952Y-31676400D01*
X32987356Y-31720240D01*
X33009421Y-31786534D01*
X33009500Y-31790955D01*
X33009500Y-31809998D01*
X33009501Y-31810019D01*
X33020000Y-31912796D01*
X33037451Y-31965460D01*
X33053995Y-32015384D01*
X33056397Y-32085211D01*
X33020666Y-32145253D01*
X33001387Y-32159925D01*
X32981344Y-32172287D01*
X32857289Y-32296342D01*
X32765187Y-32445663D01*
X32765185Y-32445668D01*
X32739062Y-32524504D01*
X32699289Y-32581949D01*
X32634773Y-32608772D01*
X32621356Y-32609500D01*
X30517345Y-32609500D01*
X30450306Y-32589815D01*
X30404551Y-32537011D01*
X30394607Y-32467853D01*
X30404963Y-32433095D01*
X30423430Y-32393492D01*
X30423432Y-32393486D01*
X30480636Y-32180000D01*
X29583012Y-32180000D01*
X29615925Y-32122993D01*
X29650000Y-31995826D01*
X29650000Y-31864174D01*
X29615925Y-31737007D01*
X29583012Y-31680000D01*
X30480636Y-31680000D01*
X30480635Y-31679999D01*
X30423432Y-31466513D01*
X30423429Y-31466507D01*
X30323600Y-31252422D01*
X30323599Y-31252420D01*
X30188113Y-31058926D01*
X30188108Y-31058920D01*
X30021078Y-30891890D01*
X29835405Y-30761879D01*
X29791780Y-30707302D01*
X29784588Y-30637804D01*
X29816110Y-30575449D01*
X29835406Y-30558730D01*
X29903843Y-30510810D01*
X30021401Y-30428495D01*
X30023077Y-30426819D01*
X30023995Y-30426317D01*
X30025544Y-30425018D01*
X30025805Y-30425329D01*
X30084400Y-30393334D01*
X30110758Y-30390500D01*
X31499218Y-30390500D01*
X31566257Y-30410185D01*
G37*
%TD.AperFunction*%
%TD*%
%TA.AperFunction,NonConductor*%
G36*
X38958039Y-40019685D02*
G01*
X39003794Y-40072489D01*
X39015000Y-40124000D01*
X39015000Y-43876000D01*
X38995315Y-43943039D01*
X38942511Y-43988794D01*
X38891000Y-44000000D01*
X37639000Y-44000000D01*
X37571961Y-43980315D01*
X37526206Y-43927511D01*
X37515000Y-43876000D01*
X37515000Y-40124000D01*
X37534685Y-40056961D01*
X37587489Y-40011206D01*
X37639000Y-40000000D01*
X38891000Y-40000000D01*
X38958039Y-40019685D01*
G37*
%TD.AperFunction*%
%TA.AperFunction,Conductor*%
%TO.N,GND*%
G36*
X32316942Y-34230185D02*
G01*
X32337584Y-34246819D01*
X33241623Y-35150858D01*
X33275108Y-35212181D01*
X33270124Y-35281873D01*
X33258936Y-35304511D01*
X33189211Y-35415476D01*
X33129631Y-35585745D01*
X33129630Y-35585750D01*
X33109435Y-35764996D01*
X33109435Y-35765003D01*
X33129630Y-35944249D01*
X33129631Y-35944254D01*
X33189211Y-36114523D01*
X33280000Y-36259011D01*
X33280000Y-39390000D01*
X33266433Y-39390000D01*
X33234996Y-39407166D01*
X33208638Y-39410000D01*
X26801362Y-39410000D01*
X26734323Y-39390315D01*
X26733932Y-39390000D01*
X26730000Y-39390000D01*
X26730000Y-38602078D01*
X26799816Y-38532262D01*
X26895789Y-38379522D01*
X26955368Y-38209255D01*
X26975565Y-38030000D01*
X26955368Y-37850745D01*
X26895789Y-37680478D01*
X26799816Y-37527738D01*
X26799814Y-37527736D01*
X26799813Y-37527734D01*
X26797550Y-37524896D01*
X26796659Y-37522715D01*
X26796111Y-37521842D01*
X26796264Y-37521745D01*
X26771144Y-37460209D01*
X26770500Y-37447587D01*
X26770500Y-35665783D01*
X26790185Y-35598744D01*
X26806819Y-35578102D01*
X28138102Y-34246819D01*
X28199425Y-34213334D01*
X28225783Y-34210500D01*
X32249903Y-34210500D01*
X32316942Y-34230185D01*
G37*
%TD.AperFunction*%
%TD*%
%TA.AperFunction,NonConductor*%
G36*
X34958039Y-40019685D02*
G01*
X35003794Y-40072489D01*
X35015000Y-40124000D01*
X35015000Y-43876000D01*
X34995315Y-43943039D01*
X34942511Y-43988794D01*
X34891000Y-44000000D01*
X33639000Y-44000000D01*
X33571961Y-43980315D01*
X33526206Y-43927511D01*
X33515000Y-43876000D01*
X33515000Y-40124000D01*
X33534685Y-40056961D01*
X33587489Y-40011206D01*
X33639000Y-40000000D01*
X34891000Y-40000000D01*
X34958039Y-40019685D01*
G37*
%TD.AperFunction*%
%TA.AperFunction,NonConductor*%
G36*
X36958039Y-40019685D02*
G01*
X37003794Y-40072489D01*
X37015000Y-40124000D01*
X37015000Y-43876000D01*
X36995315Y-43943039D01*
X36942511Y-43988794D01*
X36891000Y-44000000D01*
X35639000Y-44000000D01*
X35571961Y-43980315D01*
X35526206Y-43927511D01*
X35515000Y-43876000D01*
X35515000Y-40124000D01*
X35534685Y-40056961D01*
X35587489Y-40011206D01*
X35639000Y-40000000D01*
X36891000Y-40000000D01*
X36958039Y-40019685D01*
G37*
%TD.AperFunction*%
%TA.AperFunction,NonConductor*%
G36*
X30958039Y-40019685D02*
G01*
X31003794Y-40072489D01*
X31015000Y-40124000D01*
X31015000Y-43876000D01*
X30995315Y-43943039D01*
X30942511Y-43988794D01*
X30891000Y-44000000D01*
X29639000Y-44000000D01*
X29571961Y-43980315D01*
X29526206Y-43927511D01*
X29515000Y-43876000D01*
X29515000Y-40124000D01*
X29534685Y-40056961D01*
X29587489Y-40011206D01*
X29639000Y-40000000D01*
X30891000Y-40000000D01*
X30958039Y-40019685D01*
G37*
%TD.AperFunction*%
%TA.AperFunction,NonConductor*%
G36*
X32958039Y-40019685D02*
G01*
X33003794Y-40072489D01*
X33015000Y-40124000D01*
X33015000Y-43876000D01*
X32995315Y-43943039D01*
X32942511Y-43988794D01*
X32891000Y-44000000D01*
X31639000Y-44000000D01*
X31571961Y-43980315D01*
X31526206Y-43927511D01*
X31515000Y-43876000D01*
X31515000Y-40124000D01*
X31534685Y-40056961D01*
X31587489Y-40011206D01*
X31639000Y-40000000D01*
X32891000Y-40000000D01*
X32958039Y-40019685D01*
G37*
%TD.AperFunction*%
%TA.AperFunction,NonConductor*%
G36*
X28943039Y-40019685D02*
G01*
X28988794Y-40072489D01*
X29000000Y-40124000D01*
X29000000Y-43876000D01*
X28980315Y-43943039D01*
X28927511Y-43988794D01*
X28876000Y-44000000D01*
X27624000Y-44000000D01*
X27556961Y-43980315D01*
X27511206Y-43927511D01*
X27500000Y-43876000D01*
X27500000Y-40124000D01*
X27519685Y-40056961D01*
X27572489Y-40011206D01*
X27624000Y-40000000D01*
X28876000Y-40000000D01*
X28943039Y-40019685D01*
G37*
%TD.AperFunction*%
%TA.AperFunction,Conductor*%
%TO.N,SERVO_PWM*%
G36*
X40222684Y-40000500D02*
G01*
X40228039Y-40000500D01*
X40377316Y-40000500D01*
X40384307Y-40000000D01*
X40891000Y-40000000D01*
X40958039Y-40019685D01*
X41003794Y-40072489D01*
X41015000Y-40124000D01*
X41015000Y-43876000D01*
X40995315Y-43943039D01*
X40942511Y-43988794D01*
X40891000Y-44000000D01*
X39639000Y-44000000D01*
X39571961Y-43980315D01*
X39526206Y-43927511D01*
X39515000Y-43876000D01*
X39515000Y-40124000D01*
X39534685Y-40056961D01*
X39587489Y-40011206D01*
X39639000Y-40000000D01*
X40215693Y-40000000D01*
X40222684Y-40000500D01*
G37*
%TD.AperFunction*%
%TD*%
%TA.AperFunction,NonConductor*%
G36*
X42222684Y-40000500D02*
G01*
X42228039Y-40000500D01*
X42377316Y-40000500D01*
X42384307Y-40000000D01*
X42890500Y-40000000D01*
X42957539Y-40019685D01*
X43003294Y-40072489D01*
X43014500Y-40124000D01*
X43014500Y-43876000D01*
X42994815Y-43943039D01*
X42942011Y-43988794D01*
X42890500Y-44000000D01*
X41639000Y-44000000D01*
X41571961Y-43980315D01*
X41526206Y-43927511D01*
X41515000Y-43876000D01*
X41515000Y-40124000D01*
X41534685Y-40056961D01*
X41587489Y-40011206D01*
X41639000Y-40000000D01*
X42215693Y-40000000D01*
X42222684Y-40000500D01*
G37*
%TD.AperFunction*%
M02*
