%TF.GenerationSoftware,KiCad,Pcbnew,8.0.2-1*%
%TF.CreationDate,2024-05-31T22:44:38-04:00*%
%TF.ProjectId,ez-servo,657a2d73-6572-4766-9f2e-6b696361645f,v0.0.0*%
%TF.SameCoordinates,Original*%
%TF.FileFunction,Legend,Bot*%
%TF.FilePolarity,Positive*%
%FSLAX46Y46*%
G04 Gerber Fmt 4.6, Leading zero omitted, Abs format (unit mm)*
G04 Created by KiCad (PCBNEW 8.0.2-1) date 2024-05-31 22:44:38*
%MOMM*%
%LPD*%
G01*
G04 APERTURE LIST*
G04 Aperture macros list*
%AMRoundRect*
0 Rectangle with rounded corners*
0 $1 Rounding radius*
0 $2 $3 $4 $5 $6 $7 $8 $9 X,Y pos of 4 corners*
0 Add a 4 corners polygon primitive as box body*
4,1,4,$2,$3,$4,$5,$6,$7,$8,$9,$2,$3,0*
0 Add four circle primitives for the rounded corners*
1,1,$1+$1,$2,$3*
1,1,$1+$1,$4,$5*
1,1,$1+$1,$6,$7*
1,1,$1+$1,$8,$9*
0 Add four rect primitives between the rounded corners*
20,1,$1+$1,$2,$3,$4,$5,0*
20,1,$1+$1,$4,$5,$6,$7,0*
20,1,$1+$1,$6,$7,$8,$9,0*
20,1,$1+$1,$8,$9,$2,$3,0*%
G04 Aperture macros list end*
%ADD10C,0.100000*%
%ADD11C,0.120000*%
%ADD12RoundRect,0.250000X-0.250000X-0.475000X0.250000X-0.475000X0.250000X0.475000X-0.250000X0.475000X0*%
%ADD13RoundRect,0.250000X-0.450000X0.350000X-0.450000X-0.350000X0.450000X-0.350000X0.450000X0.350000X0*%
%ADD14RoundRect,0.250000X0.650000X-1.000000X0.650000X1.000000X-0.650000X1.000000X-0.650000X-1.000000X0*%
%ADD15R,1.700000X1.700000*%
%ADD16O,1.700000X1.700000*%
G04 APERTURE END LIST*
D10*
X16800990Y-946741D02*
X16753371Y-851503D01*
X16753371Y-851503D02*
X16705752Y-803884D01*
X16705752Y-803884D02*
X16610514Y-756265D01*
X16610514Y-756265D02*
X16562895Y-756265D01*
X16562895Y-756265D02*
X16467657Y-803884D01*
X16467657Y-803884D02*
X16420038Y-851503D01*
X16420038Y-851503D02*
X16372419Y-946741D01*
X16372419Y-946741D02*
X16372419Y-1137217D01*
X16372419Y-1137217D02*
X16420038Y-1232455D01*
X16420038Y-1232455D02*
X16467657Y-1280074D01*
X16467657Y-1280074D02*
X16562895Y-1327693D01*
X16562895Y-1327693D02*
X16610514Y-1327693D01*
X16610514Y-1327693D02*
X16705752Y-1280074D01*
X16705752Y-1280074D02*
X16753371Y-1232455D01*
X16753371Y-1232455D02*
X16800990Y-1137217D01*
X16800990Y-1137217D02*
X16800990Y-946741D01*
X16800990Y-946741D02*
X16848609Y-851503D01*
X16848609Y-851503D02*
X16896228Y-803884D01*
X16896228Y-803884D02*
X16991466Y-756265D01*
X16991466Y-756265D02*
X17181942Y-756265D01*
X17181942Y-756265D02*
X17277180Y-803884D01*
X17277180Y-803884D02*
X17324800Y-851503D01*
X17324800Y-851503D02*
X17372419Y-946741D01*
X17372419Y-946741D02*
X17372419Y-1137217D01*
X17372419Y-1137217D02*
X17324800Y-1232455D01*
X17324800Y-1232455D02*
X17277180Y-1280074D01*
X17277180Y-1280074D02*
X17181942Y-1327693D01*
X17181942Y-1327693D02*
X16991466Y-1327693D01*
X16991466Y-1327693D02*
X16896228Y-1280074D01*
X16896228Y-1280074D02*
X16848609Y-1232455D01*
X16848609Y-1232455D02*
X16800990Y-1137217D01*
X17277180Y-1756265D02*
X17324800Y-1803884D01*
X17324800Y-1803884D02*
X17372419Y-1756265D01*
X17372419Y-1756265D02*
X17324800Y-1708646D01*
X17324800Y-1708646D02*
X17277180Y-1756265D01*
X17277180Y-1756265D02*
X17372419Y-1756265D01*
X16705752Y-2661026D02*
X17372419Y-2661026D01*
X16324800Y-2422931D02*
X17039085Y-2184836D01*
X17039085Y-2184836D02*
X17039085Y-2803883D01*
X16372419Y-3041979D02*
X17372419Y-3375312D01*
X17372419Y-3375312D02*
X16372419Y-3708645D01*
X13872419Y-1232455D02*
X13872419Y-1041979D01*
X13872419Y-1041979D02*
X13920038Y-946741D01*
X13920038Y-946741D02*
X13967657Y-899122D01*
X13967657Y-899122D02*
X14110514Y-803884D01*
X14110514Y-803884D02*
X14300990Y-756265D01*
X14300990Y-756265D02*
X14681942Y-756265D01*
X14681942Y-756265D02*
X14777180Y-803884D01*
X14777180Y-803884D02*
X14824800Y-851503D01*
X14824800Y-851503D02*
X14872419Y-946741D01*
X14872419Y-946741D02*
X14872419Y-1137217D01*
X14872419Y-1137217D02*
X14824800Y-1232455D01*
X14824800Y-1232455D02*
X14777180Y-1280074D01*
X14777180Y-1280074D02*
X14681942Y-1327693D01*
X14681942Y-1327693D02*
X14443847Y-1327693D01*
X14443847Y-1327693D02*
X14348609Y-1280074D01*
X14348609Y-1280074D02*
X14300990Y-1232455D01*
X14300990Y-1232455D02*
X14253371Y-1137217D01*
X14253371Y-1137217D02*
X14253371Y-946741D01*
X14253371Y-946741D02*
X14300990Y-851503D01*
X14300990Y-851503D02*
X14348609Y-803884D01*
X14348609Y-803884D02*
X14443847Y-756265D01*
X13872419Y-1613408D02*
X14872419Y-1946741D01*
X14872419Y-1946741D02*
X13872419Y-2280074D01*
D11*
%TO.C,C2*%
X9911252Y-7505000D02*
X9388748Y-7505000D01*
X9911252Y-8975000D02*
X9388748Y-8975000D01*
%TO.C,R2*%
X9665000Y-11297064D02*
X9665000Y-10842936D01*
X11135000Y-11297064D02*
X11135000Y-10842936D01*
%TO.C,D1*%
X7760000Y-1760000D02*
X7760000Y-7270000D01*
X7760000Y-7270000D02*
X11060000Y-7270000D01*
X11060000Y-1760000D02*
X11060000Y-7270000D01*
%TO.C,J2*%
X2820000Y-3120000D02*
X5480000Y-3120000D01*
X2820000Y-8260000D02*
X2820000Y-3120000D01*
X2820000Y-8260000D02*
X5480000Y-8260000D01*
X4150000Y-520000D02*
X5480000Y-520000D01*
X5480000Y-520000D02*
X5480000Y-1850000D01*
X5480000Y-8260000D02*
X5480000Y-3120000D01*
%TO.C,J3*%
X11790000Y-6830000D02*
X11790000Y-9490000D01*
X11790000Y-9490000D02*
X19530000Y-9490000D01*
X12740000Y-830000D02*
X13500000Y-830000D01*
X12740000Y-6830000D02*
X12740000Y-830000D01*
X12740000Y-9490000D02*
X12740000Y-9887071D01*
X13500000Y-830000D02*
X13500000Y-6830000D01*
X13500000Y-9490000D02*
X13500000Y-9887071D01*
X14390000Y-6830000D02*
X14390000Y-9490000D01*
X15280000Y-830000D02*
X16040000Y-830000D01*
X15280000Y-6830000D02*
X15280000Y-830000D01*
X15280000Y-9490000D02*
X15280000Y-9887071D01*
X16040000Y-830000D02*
X16040000Y-6830000D01*
X16040000Y-9490000D02*
X16040000Y-9887071D01*
X16930000Y-6830000D02*
X16930000Y-9490000D01*
X17820000Y-830000D02*
X18580000Y-830000D01*
X17820000Y-6830000D02*
X17820000Y-830000D01*
X17820000Y-9490000D02*
X17820000Y-9820000D01*
X17920000Y-830000D02*
X17920000Y-6830000D01*
X18040000Y-830000D02*
X18040000Y-6830000D01*
X18160000Y-830000D02*
X18160000Y-6830000D01*
X18280000Y-830000D02*
X18280000Y-6830000D01*
X18400000Y-830000D02*
X18400000Y-6830000D01*
X18520000Y-830000D02*
X18520000Y-6830000D01*
X18580000Y-830000D02*
X18580000Y-6830000D01*
X18580000Y-9490000D02*
X18580000Y-9820000D01*
X19470000Y-10930000D02*
X19470000Y-12200000D01*
X19470000Y-12200000D02*
X18200000Y-12200000D01*
X19530000Y-6830000D02*
X11790000Y-6830000D01*
X19530000Y-9490000D02*
X19530000Y-6830000D01*
%TD*%
%LPC*%
D12*
%TO.C,C2*%
X8700000Y-8240000D03*
X10600000Y-8240000D03*
%TD*%
D13*
%TO.C,R2*%
X10400000Y-10070000D03*
X10400000Y-12070000D03*
%TD*%
D14*
%TO.C,D1*%
X9410000Y-5760000D03*
X9410000Y-1760000D03*
%TD*%
D15*
%TO.C,J2*%
X4150000Y-1850000D03*
D16*
X4150000Y-4390000D03*
X4150000Y-6930000D03*
%TD*%
D15*
%TO.C,J3*%
X18200000Y-10930000D03*
D16*
X15660000Y-10930000D03*
X13120000Y-10930000D03*
%TD*%
G36*
X17943039Y-15019685D02*
G01*
X17988794Y-15072489D01*
X18000000Y-15124000D01*
X18000000Y-18876000D01*
X17980315Y-18943039D01*
X17927511Y-18988794D01*
X17876000Y-19000000D01*
X16624000Y-19000000D01*
X16556961Y-18980315D01*
X16511206Y-18927511D01*
X16500000Y-18876000D01*
X16500000Y-15124000D01*
X16519685Y-15056961D01*
X16572489Y-15011206D01*
X16624000Y-15000000D01*
X17876000Y-15000000D01*
X17943039Y-15019685D01*
G37*
G36*
X3943039Y-15019685D02*
G01*
X3988794Y-15072489D01*
X4000000Y-15124000D01*
X4000000Y-18876000D01*
X3980315Y-18943039D01*
X3927511Y-18988794D01*
X3876000Y-19000000D01*
X2624000Y-19000000D01*
X2556961Y-18980315D01*
X2511206Y-18927511D01*
X2500000Y-18876000D01*
X2500000Y-15124000D01*
X2519685Y-15056961D01*
X2572489Y-15011206D01*
X2624000Y-15000000D01*
X3876000Y-15000000D01*
X3943039Y-15019685D01*
G37*
G36*
X7943039Y-15019685D02*
G01*
X7988794Y-15072489D01*
X8000000Y-15124000D01*
X8000000Y-18876000D01*
X7980315Y-18943039D01*
X7927511Y-18988794D01*
X7876000Y-19000000D01*
X6624000Y-19000000D01*
X6556961Y-18980315D01*
X6511206Y-18927511D01*
X6500000Y-18876000D01*
X6500000Y-15124000D01*
X6519685Y-15056961D01*
X6572489Y-15011206D01*
X6624000Y-15000000D01*
X7876000Y-15000000D01*
X7943039Y-15019685D01*
G37*
G36*
X13943039Y-15019685D02*
G01*
X13988794Y-15072489D01*
X14000000Y-15124000D01*
X14000000Y-18876000D01*
X13980315Y-18943039D01*
X13927511Y-18988794D01*
X13876000Y-19000000D01*
X12624000Y-19000000D01*
X12556961Y-18980315D01*
X12511206Y-18927511D01*
X12500000Y-18876000D01*
X12500000Y-15124000D01*
X12519685Y-15056961D01*
X12572489Y-15011206D01*
X12624000Y-15000000D01*
X13876000Y-15000000D01*
X13943039Y-15019685D01*
G37*
G36*
X15943039Y-15019685D02*
G01*
X15988794Y-15072489D01*
X16000000Y-15124000D01*
X16000000Y-18876000D01*
X15980315Y-18943039D01*
X15927511Y-18988794D01*
X15876000Y-19000000D01*
X14624000Y-19000000D01*
X14556961Y-18980315D01*
X14511206Y-18927511D01*
X14500000Y-18876000D01*
X14500000Y-15124000D01*
X14519685Y-15056961D01*
X14572489Y-15011206D01*
X14624000Y-15000000D01*
X15876000Y-15000000D01*
X15943039Y-15019685D01*
G37*
G36*
X5943039Y-15019685D02*
G01*
X5988794Y-15072489D01*
X6000000Y-15124000D01*
X6000000Y-18876000D01*
X5980315Y-18943039D01*
X5927511Y-18988794D01*
X5876000Y-19000000D01*
X4624000Y-19000000D01*
X4556961Y-18980315D01*
X4511206Y-18927511D01*
X4500000Y-18876000D01*
X4500000Y-15124000D01*
X4519685Y-15056961D01*
X4572489Y-15011206D01*
X4624000Y-15000000D01*
X5876000Y-15000000D01*
X5943039Y-15019685D01*
G37*
G36*
X9943039Y-15019685D02*
G01*
X9988794Y-15072489D01*
X10000000Y-15124000D01*
X10000000Y-18876000D01*
X9980315Y-18943039D01*
X9927511Y-18988794D01*
X9876000Y-19000000D01*
X8624000Y-19000000D01*
X8556961Y-18980315D01*
X8511206Y-18927511D01*
X8500000Y-18876000D01*
X8500000Y-15124000D01*
X8519685Y-15056961D01*
X8572489Y-15011206D01*
X8624000Y-15000000D01*
X9876000Y-15000000D01*
X9943039Y-15019685D01*
G37*
G36*
X11943039Y-15019685D02*
G01*
X11988794Y-15072489D01*
X12000000Y-15124000D01*
X12000000Y-18876000D01*
X11980315Y-18943039D01*
X11927511Y-18988794D01*
X11876000Y-19000000D01*
X10624000Y-19000000D01*
X10556961Y-18980315D01*
X10511206Y-18927511D01*
X10500000Y-18876000D01*
X10500000Y-15124000D01*
X10519685Y-15056961D01*
X10572489Y-15011206D01*
X10624000Y-15000000D01*
X11876000Y-15000000D01*
X11943039Y-15019685D01*
G37*
%LPD*%
M02*
