%TF.GenerationSoftware,KiCad,Pcbnew,8.0.2-1*%
%TF.CreationDate,2024-06-01T01:17:10-04:00*%
%TF.ProjectId,ez-servo,657a2d73-6572-4766-9f2e-6b696361645f,v0.0.0*%
%TF.SameCoordinates,Original*%
%TF.FileFunction,Copper,L1,Top*%
%TF.FilePolarity,Positive*%
%FSLAX46Y46*%
G04 Gerber Fmt 4.6, Leading zero omitted, Abs format (unit mm)*
G04 Created by KiCad (PCBNEW 8.0.2-1) date 2024-06-01 01:17:10*
%MOMM*%
%LPD*%
G01*
G04 APERTURE LIST*
G04 Aperture macros list*
%AMRoundRect*
0 Rectangle with rounded corners*
0 $1 Rounding radius*
0 $2 $3 $4 $5 $6 $7 $8 $9 X,Y pos of 4 corners*
0 Add a 4 corners polygon primitive as box body*
4,1,4,$2,$3,$4,$5,$6,$7,$8,$9,$2,$3,0*
0 Add four circle primitives for the rounded corners*
1,1,$1+$1,$2,$3*
1,1,$1+$1,$4,$5*
1,1,$1+$1,$6,$7*
1,1,$1+$1,$8,$9*
0 Add four rect primitives between the rounded corners*
20,1,$1+$1,$2,$3,$4,$5,0*
20,1,$1+$1,$4,$5,$6,$7,0*
20,1,$1+$1,$6,$7,$8,$9,0*
20,1,$1+$1,$8,$9,$2,$3,0*%
G04 Aperture macros list end*
%TA.AperFunction,ConnectorPad*%
%ADD10R,1.500000X4.000000*%
%TD*%
%TA.AperFunction,SMDPad,CuDef*%
%ADD11RoundRect,0.250000X0.350000X0.450000X-0.350000X0.450000X-0.350000X-0.450000X0.350000X-0.450000X0*%
%TD*%
%TA.AperFunction,SMDPad,CuDef*%
%ADD12RoundRect,0.250000X-0.350000X-0.450000X0.350000X-0.450000X0.350000X0.450000X-0.350000X0.450000X0*%
%TD*%
%TA.AperFunction,SMDPad,CuDef*%
%ADD13R,3.000000X3.500000*%
%TD*%
%TA.AperFunction,SMDPad,CuDef*%
%ADD14RoundRect,0.250000X0.475000X-0.250000X0.475000X0.250000X-0.475000X0.250000X-0.475000X-0.250000X0*%
%TD*%
%TA.AperFunction,SMDPad,CuDef*%
%ADD15RoundRect,0.250000X0.650000X-0.325000X0.650000X0.325000X-0.650000X0.325000X-0.650000X-0.325000X0*%
%TD*%
%TA.AperFunction,SMDPad,CuDef*%
%ADD16RoundRect,0.250000X-0.250000X-0.475000X0.250000X-0.475000X0.250000X0.475000X-0.250000X0.475000X0*%
%TD*%
%TA.AperFunction,SMDPad,CuDef*%
%ADD17R,1.550000X0.600000*%
%TD*%
%TA.AperFunction,ComponentPad*%
%ADD18C,0.600000*%
%TD*%
%TA.AperFunction,SMDPad,CuDef*%
%ADD19R,2.600000X3.100000*%
%TD*%
%TA.AperFunction,SMDPad,CuDef*%
%ADD20R,2.950000X4.500000*%
%TD*%
%TA.AperFunction,ComponentPad*%
%ADD21R,1.700000X1.700000*%
%TD*%
%TA.AperFunction,ComponentPad*%
%ADD22O,1.700000X1.700000*%
%TD*%
%TA.AperFunction,ViaPad*%
%ADD23C,0.600000*%
%TD*%
%TA.AperFunction,Conductor*%
%ADD24C,1.000000*%
%TD*%
%TA.AperFunction,Conductor*%
%ADD25C,1.500000*%
%TD*%
%TA.AperFunction,Conductor*%
%ADD26C,0.200000*%
%TD*%
G04 APERTURE END LIST*
D10*
%TO.P,J1,9,Pin_9*%
%TO.N,GND*%
X3250000Y-17000000D03*
%TO.P,J1,10,Pin_10*%
%TO.N,unconnected-(J1-Pin_10-Pad10)*%
X5250000Y-17000000D03*
%TO.P,J1,11,Pin_11*%
%TO.N,unconnected-(J1-Pin_11-Pad11)*%
X7250000Y-17000000D03*
%TO.P,J1,12,Pin_12*%
%TO.N,SERVO_PWM*%
X9250000Y-17000000D03*
%TO.P,J1,13,Pin_13*%
%TO.N,VOUT*%
X11250000Y-17000000D03*
%TO.P,J1,14,Pin_14*%
%TO.N,GND*%
X13250000Y-17000000D03*
%TO.P,J1,15,Pin_15*%
X15250000Y-17000000D03*
%TO.P,J1,16,Pin_16*%
%TO.N,+24V*%
X17250000Y-17000000D03*
%TD*%
D11*
%TO.P,R3,1*%
%TO.N,VOUT*%
X15190000Y-8950000D03*
%TO.P,R3,2*%
%TO.N,6V*%
X13190000Y-8950000D03*
%TD*%
D12*
%TO.P,R1,1*%
%TO.N,VOUT*%
X16900000Y-8950000D03*
%TO.P,R1,2*%
%TO.N,8_4V*%
X18900000Y-8950000D03*
%TD*%
D13*
%TO.P,L1,1,1*%
%TO.N,Net-(C2-Pad2)*%
X18000000Y-4100000D03*
%TO.P,L1,2,2*%
%TO.N,VOUT*%
X12000000Y-4100000D03*
%TD*%
D14*
%TO.P,C1,1*%
%TO.N,+24V*%
X9630000Y-11520000D03*
%TO.P,C1,2*%
%TO.N,GND*%
X9630000Y-9620000D03*
%TD*%
D15*
%TO.P,C4,1*%
%TO.N,VOUT*%
X9090000Y-4095000D03*
%TO.P,C4,2*%
%TO.N,GND*%
X9090000Y-1145000D03*
%TD*%
D16*
%TO.P,C5,1*%
%TO.N,VOUT*%
X7580000Y-5920000D03*
%TO.P,C5,2*%
%TO.N,GND*%
X9480000Y-5920000D03*
%TD*%
D15*
%TO.P,C3,1*%
%TO.N,VOUT*%
X6780000Y-4095000D03*
%TO.P,C3,2*%
%TO.N,GND*%
X6780000Y-1145000D03*
%TD*%
D17*
%TO.P,U1,1,BOOT*%
%TO.N,Net-(U1-BOOT)*%
X2200000Y-9725000D03*
%TO.P,U1,2,NC*%
%TO.N,unconnected-(U1-NC-Pad2)*%
X2200000Y-10995000D03*
%TO.P,U1,3,NC*%
%TO.N,unconnected-(U1-NC-Pad3)*%
X2200000Y-12265000D03*
%TO.P,U1,4,VSENSE*%
%TO.N,SENSE*%
X2200000Y-13535000D03*
%TO.P,U1,5,EN*%
%TO.N,unconnected-(U1-EN-Pad5)*%
X7600000Y-13535000D03*
%TO.P,U1,6,GND*%
%TO.N,GND*%
X7600000Y-12265000D03*
%TO.P,U1,7,VIN*%
%TO.N,+24V*%
X7600000Y-10995000D03*
%TO.P,U1,8,PH*%
%TO.N,VOUT*%
X7600000Y-9725000D03*
D18*
%TO.P,U1,9,GNDPAD*%
%TO.N,GND*%
X4300000Y-9830000D03*
X4300000Y-11030000D03*
X4300000Y-12330000D03*
X4300000Y-13430000D03*
D19*
X4900000Y-11630000D03*
D20*
X4900000Y-11630000D03*
D18*
X5500000Y-9830000D03*
X5500000Y-11030000D03*
X5500000Y-12330000D03*
X5500000Y-13430000D03*
%TD*%
D16*
%TO.P,C6,1*%
%TO.N,VOUT*%
X7580000Y-7890000D03*
%TO.P,C6,2*%
%TO.N,GND*%
X9480000Y-7890000D03*
%TD*%
D21*
%TO.P,J2,1,Pin_1*%
%TO.N,SERVO_PWM*%
X4150000Y-1850000D03*
D22*
%TO.P,J2,2,Pin_2*%
%TO.N,VOUT*%
X4150000Y-4390000D03*
%TO.P,J2,3,Pin_3*%
%TO.N,GND*%
X4150000Y-6930000D03*
%TD*%
D21*
%TO.P,J3,1,Pin_1*%
%TO.N,8_4V*%
X18200000Y-10930000D03*
D22*
%TO.P,J3,2,Pin_2*%
%TO.N,SENSE*%
X15660000Y-10930000D03*
%TO.P,J3,3,Pin_3*%
%TO.N,6V*%
X13120000Y-10930000D03*
%TD*%
D23*
%TO.N,VOUT*%
X11270000Y-13890000D03*
X10750000Y-14500000D03*
X10360000Y-4780000D03*
X16159265Y-8950735D03*
X11750000Y-14500000D03*
%TO.N,GND*%
X1900000Y-15600000D03*
X11600000Y-7640000D03*
X1283883Y-15016117D03*
X13280000Y-14250000D03*
X15250000Y-14250000D03*
X8070000Y-1700000D03*
%TO.N,SERVO_PWM*%
X9280000Y-14499998D03*
%TO.N,SENSE*%
X14290000Y-9930000D03*
X1170000Y-13030000D03*
%TO.N,Net-(C2-Pad2)*%
X14190001Y-8122829D03*
X18910000Y-6080000D03*
X16050000Y-7930823D03*
%TO.N,Net-(U1-BOOT)*%
X1170000Y-9470000D03*
%TO.N,+24V*%
X9319216Y-10825929D03*
X17300000Y-14250000D03*
%TD*%
D24*
%TO.N,VOUT*%
X12000000Y-4100000D02*
X4440000Y-4100000D01*
D25*
X11270000Y-13890000D02*
X11250000Y-14500000D01*
D26*
X10360000Y-4780000D02*
X11320000Y-4780000D01*
D24*
X6940000Y-4175000D02*
X6860000Y-4095000D01*
D25*
X11250000Y-17000000D02*
X11270000Y-13890000D01*
D26*
X17137500Y-8930000D02*
X17157500Y-8950000D01*
D24*
X4440000Y-4100000D02*
X4150000Y-4390000D01*
X7580000Y-7890000D02*
X7580000Y-4155000D01*
D26*
X15612500Y-8950000D02*
X17157500Y-8950000D01*
D24*
X7580000Y-9705000D02*
X7600000Y-9725000D01*
X7580000Y-7890000D02*
X7580000Y-9705000D01*
X6860000Y-4095000D02*
X6780000Y-4095000D01*
D26*
X11320000Y-4780000D02*
X12000000Y-4100000D01*
%TO.N,GND*%
X9480000Y-5920000D02*
X10030000Y-6470000D01*
D25*
X15250000Y-14250000D02*
X15250000Y-14500000D01*
D24*
X4300000Y-13430000D02*
X4300000Y-13950000D01*
D26*
X10030000Y-6470000D02*
X10820000Y-6470000D01*
D24*
X1900000Y-15600000D02*
X1900000Y-15650000D01*
X4300000Y-11030000D02*
X4260000Y-10990000D01*
X1900000Y-15600000D02*
X2650000Y-15600000D01*
D25*
X15250000Y-17000000D02*
X15250000Y-14250000D01*
D24*
X1283883Y-15016117D02*
X3233883Y-15016117D01*
X4260000Y-10990000D02*
X4260000Y-10460000D01*
D25*
X3250000Y-17000000D02*
X3250000Y-16982234D01*
X3250000Y-17000000D02*
X3250000Y-15000000D01*
D24*
X1900000Y-15650000D02*
X3250000Y-17000000D01*
X3233883Y-15016117D02*
X3250000Y-15000000D01*
D25*
X13280000Y-14250000D02*
X15250000Y-14250000D01*
X13250000Y-14250000D02*
X13280000Y-14250000D01*
X13250000Y-17000000D02*
X13250000Y-14250000D01*
D24*
X2650000Y-15600000D02*
X3250000Y-15000000D01*
X4300000Y-13950000D02*
X3250000Y-15000000D01*
D26*
%TO.N,SERVO_PWM*%
X9250000Y-14529998D02*
X9280000Y-14499998D01*
X9250000Y-17000000D02*
X9250000Y-14529998D01*
%TO.N,8_4V*%
X18982500Y-10147500D02*
X18200000Y-10930000D01*
X18982500Y-8950000D02*
X18982500Y-10147500D01*
%TO.N,6V*%
X13190000Y-8950000D02*
X13120000Y-9020000D01*
X13120000Y-9020000D02*
X13120000Y-10930000D01*
%TO.N,SENSE*%
X14290000Y-9930000D02*
X14660000Y-9930000D01*
X1675000Y-13535000D02*
X2200000Y-13535000D01*
X14660000Y-9930000D02*
X15660000Y-10930000D01*
X1170000Y-13030000D02*
X1675000Y-13535000D01*
%TO.N,Net-(C2-Pad2)*%
X16050000Y-7930823D02*
X14382007Y-7930823D01*
X18910000Y-5010000D02*
X18000000Y-4100000D01*
X14382007Y-7930823D02*
X14190001Y-8122829D01*
X18910000Y-6080000D02*
X18910000Y-5010000D01*
%TO.N,Net-(U1-BOOT)*%
X1170000Y-9470000D02*
X1425000Y-9725000D01*
X1425000Y-9725000D02*
X2200000Y-9725000D01*
%TO.N,+24V*%
X8385000Y-10995000D02*
X8910000Y-11520000D01*
X7600000Y-10995000D02*
X8385000Y-10995000D01*
X8910000Y-11520000D02*
X9630000Y-11520000D01*
D25*
X17250000Y-17000000D02*
X17250000Y-14300000D01*
%TD*%
%TA.AperFunction,Conductor*%
%TO.N,GND*%
G36*
X2056649Y-14757906D02*
G01*
X2056645Y-14757913D01*
X2006403Y-14892620D01*
X2006401Y-14892627D01*
X2000000Y-14952155D01*
X2000000Y-16492824D01*
X1980315Y-16559863D01*
X1927511Y-16605618D01*
X1858353Y-16615562D01*
X1794797Y-16586537D01*
X1788319Y-16580505D01*
X536819Y-15329005D01*
X503334Y-15267682D01*
X500500Y-15241324D01*
X500500Y-14750000D01*
X2062568Y-14750000D01*
X2056649Y-14757906D01*
G37*
%TD.AperFunction*%
%TD*%
%TA.AperFunction,Conductor*%
%TO.N,GND*%
G36*
X19442539Y-520185D02*
G01*
X19488294Y-572989D01*
X19499500Y-624500D01*
X19499500Y-1725500D01*
X19479815Y-1792539D01*
X19427011Y-1838294D01*
X19375500Y-1849500D01*
X16452129Y-1849500D01*
X16452123Y-1849501D01*
X16392516Y-1855908D01*
X16257671Y-1906202D01*
X16257664Y-1906206D01*
X16142455Y-1992452D01*
X16142452Y-1992455D01*
X16056206Y-2107664D01*
X16056202Y-2107671D01*
X16005908Y-2242517D01*
X16002610Y-2273200D01*
X15999501Y-2302123D01*
X15999500Y-2302135D01*
X15999500Y-5897870D01*
X15999501Y-5897876D01*
X16005908Y-5957483D01*
X16056202Y-6092328D01*
X16056206Y-6092335D01*
X16142452Y-6207544D01*
X16142455Y-6207547D01*
X16257664Y-6293793D01*
X16257671Y-6293797D01*
X16392517Y-6344091D01*
X16392516Y-6344091D01*
X16399444Y-6344835D01*
X16452127Y-6350500D01*
X18068577Y-6350499D01*
X18135616Y-6370184D01*
X18181371Y-6422987D01*
X18182930Y-6426861D01*
X18184210Y-6429521D01*
X18184211Y-6429522D01*
X18280184Y-6582262D01*
X18407738Y-6709816D01*
X18560478Y-6805789D01*
X18727333Y-6864174D01*
X18730745Y-6865368D01*
X18730750Y-6865369D01*
X18909996Y-6885565D01*
X18910000Y-6885565D01*
X18910004Y-6885565D01*
X19089249Y-6865369D01*
X19089252Y-6865368D01*
X19089255Y-6865368D01*
X19259522Y-6805789D01*
X19309527Y-6774369D01*
X19376764Y-6755368D01*
X19443599Y-6775735D01*
X19488814Y-6829003D01*
X19499500Y-6879362D01*
X19499500Y-7632566D01*
X19479815Y-7699605D01*
X19427011Y-7745360D01*
X19362899Y-7755924D01*
X19300012Y-7749500D01*
X18499998Y-7749500D01*
X18499980Y-7749501D01*
X18397203Y-7760000D01*
X18397200Y-7760001D01*
X18230668Y-7815185D01*
X18230663Y-7815187D01*
X18081342Y-7907289D01*
X17987681Y-8000951D01*
X17926358Y-8034436D01*
X17856666Y-8029452D01*
X17812319Y-8000951D01*
X17718657Y-7907289D01*
X17718656Y-7907288D01*
X17569334Y-7815186D01*
X17402797Y-7760001D01*
X17402795Y-7760000D01*
X17300016Y-7749500D01*
X17300009Y-7749500D01*
X16922627Y-7749500D01*
X16855588Y-7729815D01*
X16809833Y-7677011D01*
X16805585Y-7666454D01*
X16775789Y-7581301D01*
X16679816Y-7428561D01*
X16552262Y-7301007D01*
X16399523Y-7205034D01*
X16229254Y-7145454D01*
X16229249Y-7145453D01*
X16050004Y-7125258D01*
X16049996Y-7125258D01*
X15870750Y-7145453D01*
X15870745Y-7145454D01*
X15700476Y-7205034D01*
X15547736Y-7301008D01*
X15544903Y-7303268D01*
X15542724Y-7304157D01*
X15541842Y-7304712D01*
X15541744Y-7304557D01*
X15480217Y-7329678D01*
X15467588Y-7330323D01*
X14312864Y-7330323D01*
X14298982Y-7329543D01*
X14267133Y-7325954D01*
X14190004Y-7317264D01*
X14189997Y-7317264D01*
X14010751Y-7337459D01*
X14010746Y-7337460D01*
X13840477Y-7397040D01*
X13687738Y-7493013D01*
X13560183Y-7620568D01*
X13560182Y-7620570D01*
X13515630Y-7691473D01*
X13463295Y-7737764D01*
X13410637Y-7749500D01*
X12789998Y-7749500D01*
X12789980Y-7749501D01*
X12687203Y-7760000D01*
X12687200Y-7760001D01*
X12520668Y-7815185D01*
X12520663Y-7815187D01*
X12371342Y-7907289D01*
X12247289Y-8031342D01*
X12155187Y-8180663D01*
X12155185Y-8180668D01*
X12128687Y-8260634D01*
X12100001Y-8347203D01*
X12100001Y-8347204D01*
X12100000Y-8347204D01*
X12089500Y-8449983D01*
X12089500Y-9450001D01*
X12089501Y-9450019D01*
X12100000Y-9552796D01*
X12100001Y-9552799D01*
X12155185Y-9719331D01*
X12155189Y-9719340D01*
X12205033Y-9800150D01*
X12223473Y-9867542D01*
X12202550Y-9934206D01*
X12187176Y-9952927D01*
X12081503Y-10058600D01*
X11945965Y-10252169D01*
X11945964Y-10252171D01*
X11846098Y-10466335D01*
X11846094Y-10466344D01*
X11784938Y-10694586D01*
X11784936Y-10694596D01*
X11764341Y-10929999D01*
X11764341Y-10930000D01*
X11784936Y-11165403D01*
X11784938Y-11165413D01*
X11846094Y-11393655D01*
X11846096Y-11393659D01*
X11846097Y-11393663D01*
X11850000Y-11402032D01*
X11945965Y-11607830D01*
X11945967Y-11607834D01*
X12037668Y-11738796D01*
X12081505Y-11801401D01*
X12248599Y-11968495D01*
X12337354Y-12030642D01*
X12442165Y-12104032D01*
X12442167Y-12104033D01*
X12442170Y-12104035D01*
X12656337Y-12203903D01*
X12656343Y-12203904D01*
X12656344Y-12203905D01*
X12711285Y-12218626D01*
X12884592Y-12265063D01*
X13061034Y-12280500D01*
X13119999Y-12285659D01*
X13120000Y-12285659D01*
X13120001Y-12285659D01*
X13178966Y-12280500D01*
X13355408Y-12265063D01*
X13583663Y-12203903D01*
X13797830Y-12104035D01*
X13991401Y-11968495D01*
X14158495Y-11801401D01*
X14288425Y-11615842D01*
X14343002Y-11572217D01*
X14412500Y-11565023D01*
X14474855Y-11596546D01*
X14491575Y-11615842D01*
X14621500Y-11801395D01*
X14621505Y-11801401D01*
X14788599Y-11968495D01*
X14877354Y-12030642D01*
X14982165Y-12104032D01*
X14982167Y-12104033D01*
X14982170Y-12104035D01*
X15196337Y-12203903D01*
X15196343Y-12203904D01*
X15196344Y-12203905D01*
X15251285Y-12218626D01*
X15424592Y-12265063D01*
X15601034Y-12280500D01*
X15659999Y-12285659D01*
X15660000Y-12285659D01*
X15660001Y-12285659D01*
X15718966Y-12280500D01*
X15895408Y-12265063D01*
X16123663Y-12203903D01*
X16337830Y-12104035D01*
X16531401Y-11968495D01*
X16653329Y-11846566D01*
X16714648Y-11813084D01*
X16784340Y-11818068D01*
X16840274Y-11859939D01*
X16857189Y-11890917D01*
X16906202Y-12022328D01*
X16906206Y-12022335D01*
X16992452Y-12137544D01*
X16992455Y-12137547D01*
X17107664Y-12223793D01*
X17107671Y-12223797D01*
X17242517Y-12274091D01*
X17242516Y-12274091D01*
X17249444Y-12274835D01*
X17302127Y-12280500D01*
X19097872Y-12280499D01*
X19157483Y-12274091D01*
X19292331Y-12223796D01*
X19301186Y-12217166D01*
X19366649Y-12192747D01*
X19434923Y-12207596D01*
X19484330Y-12257000D01*
X19499500Y-12316431D01*
X19499500Y-14375500D01*
X19479815Y-14442539D01*
X19427011Y-14488294D01*
X19375500Y-14499500D01*
X18624500Y-14499500D01*
X18557461Y-14479815D01*
X18511706Y-14427011D01*
X18500500Y-14375500D01*
X18500500Y-14201577D01*
X18469709Y-14007173D01*
X18429321Y-13882873D01*
X18408884Y-13819975D01*
X18408882Y-13819972D01*
X18408882Y-13819970D01*
X18345651Y-13695872D01*
X18319524Y-13644595D01*
X18203828Y-13485354D01*
X18064646Y-13346172D01*
X17905405Y-13230476D01*
X17873850Y-13214398D01*
X17730029Y-13141117D01*
X17542826Y-13080290D01*
X17348422Y-13049500D01*
X17348417Y-13049500D01*
X17151583Y-13049500D01*
X17151578Y-13049500D01*
X16957173Y-13080290D01*
X16769970Y-13141117D01*
X16594594Y-13230476D01*
X16526431Y-13280000D01*
X16435354Y-13346172D01*
X16435352Y-13346174D01*
X16435351Y-13346174D01*
X16296174Y-13485351D01*
X16296174Y-13485352D01*
X16296172Y-13485354D01*
X16274656Y-13514968D01*
X16180476Y-13644594D01*
X16091117Y-13819970D01*
X16030290Y-14007173D01*
X15999500Y-14201577D01*
X15999500Y-14376000D01*
X15979815Y-14443039D01*
X15927011Y-14488794D01*
X15875500Y-14500000D01*
X15500000Y-14500000D01*
X15500000Y-14890000D01*
X15000000Y-14890000D01*
X15000000Y-14500000D01*
X14452155Y-14500000D01*
X14392627Y-14506401D01*
X14392616Y-14506403D01*
X14293332Y-14543434D01*
X14223640Y-14548418D01*
X14206668Y-14543434D01*
X14107383Y-14506403D01*
X14107372Y-14506401D01*
X14047844Y-14500000D01*
X13500000Y-14500000D01*
X13500000Y-14890000D01*
X13000000Y-14890000D01*
X13000000Y-14500000D01*
X12666378Y-14500000D01*
X12599339Y-14480315D01*
X12553584Y-14427511D01*
X12543158Y-14389882D01*
X12535369Y-14320751D01*
X12535368Y-14320749D01*
X12535368Y-14320745D01*
X12525165Y-14291589D01*
X12518211Y-14249840D01*
X12520357Y-13916097D01*
X12520420Y-13912904D01*
X12523053Y-13832614D01*
X12522006Y-13824242D01*
X12521052Y-13808062D01*
X12521107Y-13799627D01*
X12509044Y-13720163D01*
X12508620Y-13717105D01*
X12498650Y-13637300D01*
X12496306Y-13629193D01*
X12492832Y-13613363D01*
X12491567Y-13605024D01*
X12467226Y-13528438D01*
X12466293Y-13525360D01*
X12443995Y-13448218D01*
X12443994Y-13448216D01*
X12443992Y-13448208D01*
X12440405Y-13440559D01*
X12434501Y-13425475D01*
X12431947Y-13417438D01*
X12395936Y-13345626D01*
X12394545Y-13342756D01*
X12360428Y-13269996D01*
X12360424Y-13269989D01*
X12355691Y-13263005D01*
X12347495Y-13249021D01*
X12343719Y-13241491D01*
X12343714Y-13241482D01*
X12296927Y-13176207D01*
X12295059Y-13173527D01*
X12250014Y-13107052D01*
X12250012Y-13107050D01*
X12250011Y-13107048D01*
X12244238Y-13100884D01*
X12233957Y-13088356D01*
X12229047Y-13081504D01*
X12172632Y-13024360D01*
X12170367Y-13022004D01*
X12115470Y-12963384D01*
X12115458Y-12963373D01*
X12108797Y-12958192D01*
X12096688Y-12947432D01*
X12090769Y-12941436D01*
X12090755Y-12941424D01*
X12026148Y-12893847D01*
X12023544Y-12891876D01*
X11960104Y-12842529D01*
X11960095Y-12842523D01*
X11952705Y-12838448D01*
X11939053Y-12829709D01*
X11932273Y-12824716D01*
X11932269Y-12824713D01*
X11932265Y-12824711D01*
X11932262Y-12824709D01*
X11860973Y-12787806D01*
X11858093Y-12786267D01*
X11787746Y-12747469D01*
X11787740Y-12747466D01*
X11779796Y-12744594D01*
X11764967Y-12738108D01*
X11757470Y-12734227D01*
X11681249Y-12708918D01*
X11678166Y-12707849D01*
X11602633Y-12680540D01*
X11594341Y-12678947D01*
X11578674Y-12674859D01*
X11570674Y-12672203D01*
X11570669Y-12672201D01*
X11570664Y-12672200D01*
X11570660Y-12672199D01*
X11570659Y-12672199D01*
X11491440Y-12659128D01*
X11488228Y-12658554D01*
X11409337Y-12643395D01*
X11400893Y-12643118D01*
X11384783Y-12641532D01*
X11376467Y-12640160D01*
X11376458Y-12640159D01*
X11376457Y-12640159D01*
X11376455Y-12640158D01*
X11376444Y-12640158D01*
X11296175Y-12639642D01*
X11292910Y-12639578D01*
X11212622Y-12636945D01*
X11212609Y-12636946D01*
X11204217Y-12637994D01*
X11188066Y-12638946D01*
X11179638Y-12638892D01*
X11179622Y-12638893D01*
X11100232Y-12650943D01*
X11097001Y-12651390D01*
X11017305Y-12661349D01*
X11017293Y-12661351D01*
X11009186Y-12663695D01*
X10993376Y-12667164D01*
X10985033Y-12668430D01*
X10985021Y-12668433D01*
X10908477Y-12692761D01*
X10905352Y-12693709D01*
X10828216Y-12716005D01*
X10828201Y-12716010D01*
X10820552Y-12719597D01*
X10805484Y-12725495D01*
X10797437Y-12728053D01*
X10797433Y-12728054D01*
X10725660Y-12764044D01*
X10722725Y-12765468D01*
X10649998Y-12799571D01*
X10649993Y-12799574D01*
X10642994Y-12804316D01*
X10629038Y-12812496D01*
X10621493Y-12816279D01*
X10621475Y-12816290D01*
X10556201Y-12863075D01*
X10553526Y-12864940D01*
X10487053Y-12909984D01*
X10487047Y-12909989D01*
X10480877Y-12915767D01*
X10468374Y-12926029D01*
X10461505Y-12930953D01*
X10404335Y-12987389D01*
X10401985Y-12989649D01*
X10343377Y-13044537D01*
X10338191Y-13051204D01*
X10327449Y-13063293D01*
X10321432Y-13069233D01*
X10273790Y-13133926D01*
X10271821Y-13136527D01*
X10222531Y-13199895D01*
X10222520Y-13199910D01*
X10218442Y-13207304D01*
X10209729Y-13220918D01*
X10204712Y-13227732D01*
X10167795Y-13299047D01*
X10166256Y-13301925D01*
X10127470Y-13372251D01*
X10124595Y-13380203D01*
X10118107Y-13395036D01*
X10114230Y-13402525D01*
X10114223Y-13402541D01*
X10088923Y-13478732D01*
X10087855Y-13481811D01*
X10060544Y-13557352D01*
X10060539Y-13557372D01*
X10058946Y-13565661D01*
X10054864Y-13581308D01*
X10052200Y-13589333D01*
X10052198Y-13589340D01*
X10039123Y-13668589D01*
X10038549Y-13671800D01*
X10023396Y-13750660D01*
X10023396Y-13750663D01*
X10023119Y-13759099D01*
X10021534Y-13775202D01*
X10020158Y-13783543D01*
X10019992Y-13809353D01*
X9999876Y-13876264D01*
X9946777Y-13921677D01*
X9877556Y-13931174D01*
X9814189Y-13901740D01*
X9808314Y-13896234D01*
X9782262Y-13870182D01*
X9629523Y-13774209D01*
X9459254Y-13714629D01*
X9459249Y-13714628D01*
X9280004Y-13694433D01*
X9279996Y-13694433D01*
X9100750Y-13714628D01*
X9100739Y-13714631D01*
X9040452Y-13735726D01*
X8970674Y-13739287D01*
X8910047Y-13704558D01*
X8877820Y-13642564D01*
X8875499Y-13618684D01*
X8875499Y-13187129D01*
X8875498Y-13187123D01*
X8875114Y-13183553D01*
X8869091Y-13127517D01*
X8861458Y-13107052D01*
X8818797Y-12992670D01*
X8818796Y-12992669D01*
X8812551Y-12984327D01*
X8804741Y-12973894D01*
X8780323Y-12908432D01*
X8795173Y-12840159D01*
X8804742Y-12825270D01*
X8818351Y-12807091D01*
X8868596Y-12672378D01*
X8874131Y-12620902D01*
X8900869Y-12556350D01*
X8958261Y-12516502D01*
X9010024Y-12510798D01*
X9104991Y-12520500D01*
X10155008Y-12520499D01*
X10155016Y-12520498D01*
X10155019Y-12520498D01*
X10211302Y-12514748D01*
X10257797Y-12509999D01*
X10424334Y-12454814D01*
X10573656Y-12362712D01*
X10697712Y-12238656D01*
X10789814Y-12089334D01*
X10844999Y-11922797D01*
X10855500Y-11820009D01*
X10855499Y-11219992D01*
X10844999Y-11117203D01*
X10789814Y-10950666D01*
X10697712Y-10801344D01*
X10573656Y-10677288D01*
X10570342Y-10675243D01*
X10568546Y-10673248D01*
X10567989Y-10672807D01*
X10568064Y-10672711D01*
X10523618Y-10623297D01*
X10512397Y-10554334D01*
X10540240Y-10490252D01*
X10570348Y-10464165D01*
X10573342Y-10462318D01*
X10697315Y-10338345D01*
X10789356Y-10189124D01*
X10789358Y-10189119D01*
X10844505Y-10022697D01*
X10844506Y-10022690D01*
X10854999Y-9919986D01*
X10855000Y-9919973D01*
X10855000Y-9870000D01*
X9504000Y-9870000D01*
X9436961Y-9850315D01*
X9391206Y-9797511D01*
X9380000Y-9746000D01*
X9380000Y-9158000D01*
X9354000Y-9158000D01*
X9286961Y-9138315D01*
X9241206Y-9085511D01*
X9230000Y-9034000D01*
X9230000Y-8577000D01*
X9730000Y-8577000D01*
X9756000Y-8577000D01*
X9823039Y-8596685D01*
X9868794Y-8649489D01*
X9880000Y-8701000D01*
X9880000Y-9370000D01*
X10854999Y-9370000D01*
X10854999Y-9320028D01*
X10854998Y-9320013D01*
X10844505Y-9217302D01*
X10789358Y-9050880D01*
X10789356Y-9050875D01*
X10697315Y-8901654D01*
X10573343Y-8777682D01*
X10499045Y-8731854D01*
X10452321Y-8679906D01*
X10441100Y-8610943D01*
X10446437Y-8587312D01*
X10469505Y-8517697D01*
X10469506Y-8517690D01*
X10479999Y-8414986D01*
X10480000Y-8414973D01*
X10480000Y-8140000D01*
X9730000Y-8140000D01*
X9730000Y-8577000D01*
X9230000Y-8577000D01*
X9230000Y-5794000D01*
X9249685Y-5726961D01*
X9302489Y-5681206D01*
X9354000Y-5670000D01*
X9606000Y-5670000D01*
X9673039Y-5689685D01*
X9718794Y-5742489D01*
X9730000Y-5794000D01*
X9730000Y-7640000D01*
X10479999Y-7640000D01*
X10479999Y-7365028D01*
X10479998Y-7365013D01*
X10469505Y-7262302D01*
X10414358Y-7095880D01*
X10414356Y-7095875D01*
X10336775Y-6970097D01*
X10318335Y-6902704D01*
X10336775Y-6839903D01*
X10414356Y-6714124D01*
X10414358Y-6714119D01*
X10469505Y-6547697D01*
X10469506Y-6547690D01*
X10478272Y-6461896D01*
X10504668Y-6397204D01*
X10561849Y-6357053D01*
X10601624Y-6350499D01*
X13547872Y-6350499D01*
X13607483Y-6344091D01*
X13742331Y-6293796D01*
X13857546Y-6207546D01*
X13943796Y-6092331D01*
X13994091Y-5957483D01*
X14000500Y-5897873D01*
X14000499Y-2302128D01*
X13994091Y-2242517D01*
X13985692Y-2219999D01*
X13943797Y-2107671D01*
X13943793Y-2107664D01*
X13857547Y-1992455D01*
X13857544Y-1992452D01*
X13742335Y-1906206D01*
X13742328Y-1906202D01*
X13607482Y-1855908D01*
X13607483Y-1855908D01*
X13547883Y-1849501D01*
X13547881Y-1849500D01*
X13547873Y-1849500D01*
X13547865Y-1849500D01*
X10576070Y-1849500D01*
X10509031Y-1829815D01*
X10463276Y-1777011D01*
X10453332Y-1707853D01*
X10458364Y-1686495D01*
X10479505Y-1622694D01*
X10479506Y-1622690D01*
X10489999Y-1519986D01*
X10490000Y-1519973D01*
X10490000Y-1395000D01*
X9340000Y-1395000D01*
X9340000Y-2219999D01*
X9789972Y-2219999D01*
X9789986Y-2219998D01*
X9862898Y-2212550D01*
X9931591Y-2225320D01*
X9982475Y-2273200D01*
X9999500Y-2335908D01*
X9999500Y-2903588D01*
X9979815Y-2970627D01*
X9927011Y-3016382D01*
X9862898Y-3026946D01*
X9790011Y-3019500D01*
X8389998Y-3019500D01*
X8389981Y-3019501D01*
X8287203Y-3030000D01*
X8287200Y-3030001D01*
X8163397Y-3071026D01*
X8120666Y-3085186D01*
X8120664Y-3085186D01*
X8120661Y-3085188D01*
X8114879Y-3087884D01*
X8062479Y-3099500D01*
X7807521Y-3099500D01*
X7755121Y-3087884D01*
X7749339Y-3085188D01*
X7749335Y-3085186D01*
X7749334Y-3085186D01*
X7582797Y-3030001D01*
X7582795Y-3030000D01*
X7480010Y-3019500D01*
X6079998Y-3019500D01*
X6079981Y-3019501D01*
X5977203Y-3030000D01*
X5977200Y-3030001D01*
X5853397Y-3071026D01*
X5810666Y-3085186D01*
X5810664Y-3085186D01*
X5810661Y-3085188D01*
X5804879Y-3087884D01*
X5752479Y-3099500D01*
X5563769Y-3099500D01*
X5496730Y-3079815D01*
X5450975Y-3027011D01*
X5441031Y-2957853D01*
X5447587Y-2932167D01*
X5494091Y-2807482D01*
X5500500Y-2747873D01*
X5500499Y-2185086D01*
X5520183Y-2118050D01*
X5572987Y-2072295D01*
X5642146Y-2062351D01*
X5689596Y-2079550D01*
X5810875Y-2154356D01*
X5810880Y-2154358D01*
X5977302Y-2209505D01*
X5977309Y-2209506D01*
X6080019Y-2219999D01*
X6529999Y-2219999D01*
X7030000Y-2219999D01*
X7479972Y-2219999D01*
X7479986Y-2219998D01*
X7582697Y-2209505D01*
X7749119Y-2154358D01*
X7749124Y-2154356D01*
X7869903Y-2079859D01*
X7937295Y-2061419D01*
X8000097Y-2079859D01*
X8120875Y-2154356D01*
X8120880Y-2154358D01*
X8287302Y-2209505D01*
X8287309Y-2209506D01*
X8390019Y-2219999D01*
X8839999Y-2219999D01*
X8840000Y-2219998D01*
X8840000Y-1395000D01*
X7030000Y-1395000D01*
X7030000Y-2219999D01*
X6529999Y-2219999D01*
X6530000Y-2219998D01*
X6530000Y-1019000D01*
X6549685Y-951961D01*
X6602489Y-906206D01*
X6654000Y-895000D01*
X10489999Y-895000D01*
X10489999Y-770028D01*
X10489998Y-770013D01*
X10479506Y-667304D01*
X10478247Y-663505D01*
X10478161Y-661019D01*
X10478089Y-660681D01*
X10478149Y-660668D01*
X10475845Y-593677D01*
X10511576Y-533634D01*
X10574096Y-502441D01*
X10595953Y-500500D01*
X19375500Y-500500D01*
X19442539Y-520185D01*
G37*
%TD.AperFunction*%
%TA.AperFunction,Conductor*%
G36*
X690471Y-13674100D02*
G01*
X820478Y-13755789D01*
X834329Y-13760636D01*
X841454Y-13763129D01*
X898230Y-13803851D01*
X923978Y-13868803D01*
X924500Y-13880150D01*
X924500Y-13882859D01*
X924501Y-13882876D01*
X930908Y-13942483D01*
X981202Y-14077328D01*
X981206Y-14077335D01*
X1067452Y-14192544D01*
X1067455Y-14192547D01*
X1182664Y-14278793D01*
X1182671Y-14278797D01*
X1317517Y-14329091D01*
X1317516Y-14329091D01*
X1324444Y-14329835D01*
X1377127Y-14335500D01*
X1730000Y-14335499D01*
X1730000Y-14410000D01*
X2293851Y-14410000D01*
X2303506Y-14477146D01*
X2274481Y-14540702D01*
X2255080Y-14558765D01*
X2142809Y-14642812D01*
X2062567Y-14750000D01*
X500500Y-14750000D01*
X500500Y-13779094D01*
X520185Y-13712055D01*
X572989Y-13666300D01*
X642147Y-13656356D01*
X690471Y-13674100D01*
G37*
%TD.AperFunction*%
%TA.AperFunction,Conductor*%
G36*
X2868038Y-520185D02*
G01*
X2913793Y-572989D01*
X2923737Y-642147D01*
X2900265Y-698810D01*
X2880238Y-725562D01*
X2856204Y-757668D01*
X2856202Y-757671D01*
X2805908Y-892517D01*
X2799501Y-952116D01*
X2799500Y-952135D01*
X2799500Y-2747870D01*
X2799501Y-2747876D01*
X2805908Y-2807483D01*
X2856202Y-2942328D01*
X2856206Y-2942335D01*
X2942452Y-3057544D01*
X2942455Y-3057547D01*
X3057664Y-3143793D01*
X3057671Y-3143797D01*
X3189081Y-3192810D01*
X3245015Y-3234681D01*
X3269432Y-3300145D01*
X3254580Y-3368418D01*
X3233430Y-3396673D01*
X3111503Y-3518600D01*
X2975965Y-3712169D01*
X2975964Y-3712171D01*
X2876098Y-3926335D01*
X2876094Y-3926344D01*
X2814938Y-4154586D01*
X2814936Y-4154596D01*
X2794341Y-4389999D01*
X2794341Y-4390000D01*
X2814936Y-4625403D01*
X2814938Y-4625413D01*
X2876094Y-4853655D01*
X2876096Y-4853659D01*
X2876097Y-4853663D01*
X2975965Y-5067830D01*
X2975967Y-5067834D01*
X3084281Y-5222521D01*
X3111501Y-5261396D01*
X3111506Y-5261402D01*
X3278597Y-5428493D01*
X3278603Y-5428498D01*
X3464594Y-5558730D01*
X3508219Y-5613307D01*
X3515413Y-5682805D01*
X3483890Y-5745160D01*
X3464595Y-5761880D01*
X3278922Y-5891890D01*
X3278920Y-5891891D01*
X3111891Y-6058920D01*
X3111886Y-6058926D01*
X2976400Y-6252420D01*
X2976399Y-6252422D01*
X2876570Y-6466507D01*
X2876567Y-6466513D01*
X2819364Y-6679999D01*
X2819364Y-6680000D01*
X3716988Y-6680000D01*
X3684075Y-6737007D01*
X3650000Y-6864174D01*
X3650000Y-6995826D01*
X3684075Y-7122993D01*
X3716988Y-7180000D01*
X2819364Y-7180000D01*
X2876567Y-7393486D01*
X2876570Y-7393492D01*
X2976399Y-7607578D01*
X3111894Y-7801082D01*
X3278917Y-7968105D01*
X3472421Y-8103600D01*
X3686507Y-8203429D01*
X3686516Y-8203433D01*
X3900000Y-8260634D01*
X3900000Y-7363012D01*
X3957007Y-7395925D01*
X4084174Y-7430000D01*
X4215826Y-7430000D01*
X4342993Y-7395925D01*
X4400000Y-7363012D01*
X4400000Y-8260633D01*
X4613483Y-8203433D01*
X4613492Y-8203429D01*
X4827578Y-8103600D01*
X5021082Y-7968105D01*
X5188105Y-7801082D01*
X5323600Y-7607578D01*
X5423429Y-7393492D01*
X5423432Y-7393486D01*
X5480636Y-7180000D01*
X4583012Y-7180000D01*
X4615925Y-7122993D01*
X4650000Y-6995826D01*
X4650000Y-6864174D01*
X4615925Y-6737007D01*
X4583012Y-6680000D01*
X5480636Y-6680000D01*
X5480635Y-6679999D01*
X5423432Y-6466513D01*
X5423429Y-6466507D01*
X5323600Y-6252422D01*
X5323599Y-6252420D01*
X5188113Y-6058926D01*
X5188108Y-6058920D01*
X5021078Y-5891890D01*
X4835405Y-5761879D01*
X4791780Y-5707302D01*
X4784588Y-5637804D01*
X4816110Y-5575449D01*
X4835406Y-5558730D01*
X4920865Y-5498891D01*
X5021401Y-5428495D01*
X5188495Y-5261401D01*
X5264134Y-5153376D01*
X5318711Y-5109752D01*
X5365709Y-5100500D01*
X5777638Y-5100500D01*
X5816640Y-5106793D01*
X5977203Y-5159999D01*
X6079991Y-5170500D01*
X6455500Y-5170499D01*
X6522539Y-5190183D01*
X6568294Y-5242987D01*
X6579500Y-5294499D01*
X6579500Y-8600000D01*
X1730000Y-8600000D01*
X1730000Y-8896030D01*
X1720259Y-8888181D01*
X1672262Y-8840184D01*
X1519523Y-8744211D01*
X1349254Y-8684631D01*
X1349249Y-8684630D01*
X1170004Y-8664435D01*
X1169996Y-8664435D01*
X990750Y-8684630D01*
X990745Y-8684631D01*
X820476Y-8744211D01*
X690472Y-8825899D01*
X623235Y-8844899D01*
X556400Y-8824531D01*
X511186Y-8771263D01*
X500500Y-8720905D01*
X500500Y-624500D01*
X520185Y-557461D01*
X572989Y-511706D01*
X624500Y-500500D01*
X2800999Y-500500D01*
X2868038Y-520185D01*
G37*
%TD.AperFunction*%
%TD*%
%TA.AperFunction,Conductor*%
%TO.N,GND*%
G36*
X6579500Y-8921506D02*
G01*
X6559815Y-8988545D01*
X6529811Y-9020772D01*
X6467460Y-9067448D01*
X6467451Y-9067457D01*
X6381206Y-9182664D01*
X6381202Y-9182671D01*
X6340894Y-9290745D01*
X6330909Y-9317517D01*
X6324500Y-9377127D01*
X6324500Y-9377134D01*
X6324500Y-9377135D01*
X6324500Y-10072870D01*
X6324501Y-10072876D01*
X6330908Y-10132483D01*
X6381202Y-10267328D01*
X6381205Y-10267334D01*
X6394947Y-10285691D01*
X6419363Y-10351156D01*
X6404510Y-10419429D01*
X6394947Y-10434309D01*
X6381205Y-10452665D01*
X6381202Y-10452671D01*
X6330910Y-10587513D01*
X6330909Y-10587517D01*
X6324500Y-10647127D01*
X6324500Y-10647134D01*
X6324500Y-10647135D01*
X6324500Y-11342870D01*
X6324501Y-11342876D01*
X6330908Y-11402483D01*
X6381202Y-11537328D01*
X6381206Y-11537335D01*
X6467452Y-11652544D01*
X6467455Y-11652547D01*
X6582664Y-11738793D01*
X6582671Y-11738797D01*
X6717517Y-11789091D01*
X6717516Y-11789091D01*
X6724444Y-11789835D01*
X6777127Y-11795500D01*
X8280000Y-11795499D01*
X8280000Y-12734500D01*
X6777129Y-12734500D01*
X6777123Y-12734501D01*
X6717516Y-12740908D01*
X6582671Y-12791202D01*
X6582664Y-12791206D01*
X6467455Y-12877452D01*
X6467452Y-12877455D01*
X6381206Y-12992664D01*
X6381202Y-12992671D01*
X6330910Y-13127513D01*
X6330909Y-13127517D01*
X6324500Y-13187127D01*
X6324500Y-13187134D01*
X6324500Y-13187135D01*
X6324500Y-13882870D01*
X6324501Y-13882876D01*
X6330908Y-13942483D01*
X6381202Y-14077328D01*
X6381206Y-14077335D01*
X6467452Y-14192544D01*
X6467455Y-14192547D01*
X6582664Y-14278793D01*
X6582671Y-14278797D01*
X6717517Y-14329091D01*
X6717516Y-14329091D01*
X6724444Y-14329835D01*
X6777127Y-14335500D01*
X8280000Y-14335499D01*
X8280000Y-14410000D01*
X1730000Y-14410000D01*
X1730000Y-14335499D01*
X3022872Y-14335499D01*
X3082483Y-14329091D01*
X3217331Y-14278796D01*
X3332546Y-14192546D01*
X3418796Y-14077331D01*
X3469091Y-13942483D01*
X3475500Y-13882873D01*
X3475499Y-13187128D01*
X3469091Y-13127517D01*
X3418797Y-12992671D01*
X3418797Y-12992670D01*
X3418796Y-12992669D01*
X3418792Y-12992664D01*
X3405053Y-12974311D01*
X3380635Y-12908850D01*
X3395485Y-12840576D01*
X3405050Y-12825691D01*
X3418796Y-12807331D01*
X3469091Y-12672483D01*
X3475500Y-12612873D01*
X3475499Y-11917128D01*
X3469091Y-11857517D01*
X3469091Y-11857516D01*
X3418797Y-11722670D01*
X3418796Y-11722669D01*
X3405053Y-11704311D01*
X3380635Y-11638850D01*
X3395485Y-11570576D01*
X3405050Y-11555691D01*
X3418796Y-11537331D01*
X3469091Y-11402483D01*
X3475500Y-11342873D01*
X3475499Y-10647128D01*
X3469091Y-10587517D01*
X3418797Y-10452671D01*
X3418797Y-10452670D01*
X3418796Y-10452669D01*
X3418793Y-10452665D01*
X3405053Y-10434311D01*
X3380635Y-10368850D01*
X3395485Y-10300576D01*
X3405050Y-10285691D01*
X3418796Y-10267331D01*
X3469091Y-10132483D01*
X3475500Y-10072873D01*
X3475499Y-9377128D01*
X3469091Y-9317517D01*
X3418796Y-9182669D01*
X3418795Y-9182668D01*
X3418793Y-9182664D01*
X3332547Y-9067455D01*
X3332544Y-9067452D01*
X3217335Y-8981206D01*
X3217328Y-8981202D01*
X3082482Y-8930908D01*
X3082483Y-8930908D01*
X3022883Y-8924501D01*
X3022881Y-8924500D01*
X3022873Y-8924500D01*
X3022865Y-8924500D01*
X1807940Y-8924500D01*
X1740901Y-8904815D01*
X1730000Y-8896030D01*
X1730000Y-8600000D01*
X6579500Y-8600000D01*
X6579500Y-8921506D01*
G37*
%TD.AperFunction*%
%TD*%
M02*
