%TF.GenerationSoftware,KiCad,Pcbnew,8.0.2-1*%
%TF.CreationDate,2024-05-31T22:44:38-04:00*%
%TF.ProjectId,ez-servo,657a2d73-6572-4766-9f2e-6b696361645f,v0.0.0*%
%TF.SameCoordinates,Original*%
%TF.FileFunction,Copper,L2,Inr*%
%TF.FilePolarity,Positive*%
%FSLAX46Y46*%
G04 Gerber Fmt 4.6, Leading zero omitted, Abs format (unit mm)*
G04 Created by KiCad (PCBNEW 8.0.2-1) date 2024-05-31 22:44:38*
%MOMM*%
%LPD*%
G01*
G04 APERTURE LIST*
%TA.AperFunction,ComponentPad*%
%ADD10C,0.600000*%
%TD*%
%TA.AperFunction,ComponentPad*%
%ADD11R,1.700000X1.700000*%
%TD*%
%TA.AperFunction,ComponentPad*%
%ADD12O,1.700000X1.700000*%
%TD*%
%TA.AperFunction,ViaPad*%
%ADD13C,0.600000*%
%TD*%
%TA.AperFunction,Conductor*%
%ADD14C,0.200000*%
%TD*%
G04 APERTURE END LIST*
D10*
%TO.N,GND*%
%TO.C,U1*%
X4300000Y-9830000D03*
X4300000Y-11030000D03*
X4300000Y-12330000D03*
X4300000Y-13430000D03*
X5500000Y-9830000D03*
X5500000Y-11030000D03*
X5500000Y-12330000D03*
X5500000Y-13430000D03*
%TD*%
D11*
%TO.N,SERVO_PWM*%
%TO.C,J2*%
X4150000Y-1850000D03*
D12*
%TO.N,VOUT*%
X4150000Y-4390000D03*
%TO.N,GND*%
X4150000Y-6930000D03*
%TD*%
D11*
%TO.N,8_4V*%
%TO.C,J3*%
X18200000Y-10930000D03*
D12*
%TO.N,SENSE*%
X15660000Y-10930000D03*
%TO.N,6V*%
X13120000Y-10930000D03*
%TD*%
D13*
%TO.N,VOUT*%
X10360000Y-4780000D03*
X16159265Y-8950735D03*
%TO.N,GND*%
X15300000Y-14500000D03*
X11600000Y-7640000D03*
X11560000Y-12080000D03*
X8070000Y-1700000D03*
%TO.N,SENSE*%
X14290000Y-9930000D03*
X1170000Y-13030000D03*
%TO.N,Net-(C2-Pad2)*%
X14190001Y-8122829D03*
X18910000Y-6080000D03*
X16050000Y-7930823D03*
%TO.N,Net-(U1-BOOT)*%
X1170000Y-9470000D03*
%TO.N,+24V*%
X17300000Y-13800000D03*
X17300000Y-14500000D03*
X8640000Y-11170000D03*
%TD*%
D14*
%TO.N,VOUT*%
X16159265Y-8950735D02*
X15620735Y-8950735D01*
X12150000Y-4780000D02*
X10360000Y-4780000D01*
X15620735Y-8950735D02*
X14860000Y-8190000D01*
X14860000Y-7490000D02*
X12150000Y-4780000D01*
X14860000Y-8190000D02*
X14860000Y-7490000D01*
%TD*%
%TA.AperFunction,Conductor*%
%TO.N,+24V*%
G36*
X18015000Y-14922185D02*
G01*
X18014500Y-14929815D01*
X18014500Y-18876000D01*
X17994815Y-18943039D01*
X17942011Y-18988794D01*
X17890500Y-19000000D01*
X16639000Y-19000000D01*
X16571961Y-18980315D01*
X16526206Y-18927511D01*
X16515000Y-18876000D01*
X16515000Y-14390000D01*
X18015000Y-14390000D01*
X18015000Y-14922185D01*
G37*
%TD.AperFunction*%
%TD*%
%TA.AperFunction,Conductor*%
%TO.N,+24V*%
G36*
X2868038Y-520185D02*
G01*
X2913793Y-572989D01*
X2923737Y-642147D01*
X2900265Y-698810D01*
X2880238Y-725562D01*
X2856204Y-757668D01*
X2856202Y-757671D01*
X2805908Y-892517D01*
X2803531Y-914631D01*
X2799501Y-952123D01*
X2799500Y-952135D01*
X2799500Y-2747870D01*
X2799501Y-2747876D01*
X2805908Y-2807483D01*
X2856202Y-2942328D01*
X2856206Y-2942335D01*
X2942452Y-3057544D01*
X2942455Y-3057547D01*
X3057664Y-3143793D01*
X3057671Y-3143797D01*
X3189081Y-3192810D01*
X3245015Y-3234681D01*
X3269432Y-3300145D01*
X3254580Y-3368418D01*
X3233430Y-3396673D01*
X3111503Y-3518600D01*
X2975965Y-3712169D01*
X2975964Y-3712171D01*
X2876098Y-3926335D01*
X2876094Y-3926344D01*
X2814938Y-4154586D01*
X2814936Y-4154596D01*
X2794341Y-4389999D01*
X2794341Y-4390000D01*
X2814936Y-4625403D01*
X2814938Y-4625413D01*
X2876094Y-4853655D01*
X2876096Y-4853659D01*
X2876097Y-4853663D01*
X2925333Y-4959249D01*
X2975965Y-5067830D01*
X2975967Y-5067834D01*
X3111501Y-5261395D01*
X3111506Y-5261402D01*
X3278597Y-5428493D01*
X3278603Y-5428498D01*
X3464158Y-5558425D01*
X3507783Y-5613002D01*
X3514977Y-5682500D01*
X3483454Y-5744855D01*
X3464158Y-5761575D01*
X3278597Y-5891505D01*
X3111505Y-6058597D01*
X2975965Y-6252169D01*
X2975964Y-6252171D01*
X2876098Y-6466335D01*
X2876094Y-6466344D01*
X2814938Y-6694586D01*
X2814936Y-6694596D01*
X2794341Y-6929999D01*
X2794341Y-6930000D01*
X2814936Y-7165403D01*
X2814938Y-7165413D01*
X2876094Y-7393655D01*
X2876096Y-7393659D01*
X2876097Y-7393663D01*
X2922424Y-7493011D01*
X2975965Y-7607830D01*
X2975967Y-7607834D01*
X3076615Y-7751573D01*
X3111505Y-7801401D01*
X3278599Y-7968495D01*
X3375384Y-8036265D01*
X3472165Y-8104032D01*
X3472167Y-8104033D01*
X3472170Y-8104035D01*
X3686337Y-8203903D01*
X3914592Y-8265063D01*
X4089262Y-8280345D01*
X4149999Y-8285659D01*
X4150000Y-8285659D01*
X4150001Y-8285659D01*
X4210726Y-8280346D01*
X4385408Y-8265063D01*
X4613663Y-8203903D01*
X4827830Y-8104035D01*
X5021401Y-7968495D01*
X5188495Y-7801401D01*
X5301512Y-7639996D01*
X10794435Y-7639996D01*
X10794435Y-7640003D01*
X10814630Y-7819249D01*
X10814631Y-7819254D01*
X10874211Y-7989523D01*
X10946162Y-8104032D01*
X10970184Y-8142262D01*
X11097738Y-8269816D01*
X11250478Y-8365789D01*
X11420745Y-8425368D01*
X11420750Y-8425369D01*
X11599996Y-8445565D01*
X11600000Y-8445565D01*
X11600004Y-8445565D01*
X11779249Y-8425369D01*
X11779252Y-8425368D01*
X11779255Y-8425368D01*
X11949522Y-8365789D01*
X12102262Y-8269816D01*
X12229816Y-8142262D01*
X12325789Y-7989522D01*
X12385368Y-7819255D01*
X12387380Y-7801401D01*
X12405565Y-7640003D01*
X12405565Y-7639996D01*
X12385369Y-7460750D01*
X12385368Y-7460745D01*
X12325788Y-7290476D01*
X12234664Y-7145454D01*
X12229816Y-7137738D01*
X12102262Y-7010184D01*
X11949523Y-6914211D01*
X11779254Y-6854631D01*
X11779249Y-6854630D01*
X11600004Y-6834435D01*
X11599996Y-6834435D01*
X11420750Y-6854630D01*
X11420745Y-6854631D01*
X11250476Y-6914211D01*
X11097737Y-7010184D01*
X10970184Y-7137737D01*
X10874211Y-7290476D01*
X10814631Y-7460745D01*
X10814630Y-7460750D01*
X10794435Y-7639996D01*
X5301512Y-7639996D01*
X5324035Y-7607830D01*
X5423903Y-7393663D01*
X5485063Y-7165408D01*
X5505659Y-6930000D01*
X5485063Y-6694592D01*
X5423903Y-6466337D01*
X5324035Y-6252171D01*
X5203483Y-6080003D01*
X5188494Y-6058597D01*
X5021402Y-5891506D01*
X5021396Y-5891501D01*
X4835842Y-5761575D01*
X4792217Y-5706998D01*
X4785023Y-5637500D01*
X4816546Y-5575145D01*
X4835842Y-5558425D01*
X4911015Y-5505788D01*
X5021401Y-5428495D01*
X5188495Y-5261401D01*
X5324035Y-5067830D01*
X5423903Y-4853663D01*
X5485063Y-4625408D01*
X5505659Y-4390000D01*
X5485063Y-4154592D01*
X5423903Y-3926337D01*
X5324035Y-3712171D01*
X5188495Y-3518599D01*
X5066567Y-3396671D01*
X5033084Y-3335351D01*
X5038068Y-3265659D01*
X5079939Y-3209725D01*
X5110915Y-3192810D01*
X5242331Y-3143796D01*
X5357546Y-3057546D01*
X5443796Y-2942331D01*
X5494091Y-2807483D01*
X5500500Y-2747873D01*
X5500499Y-1699996D01*
X7264435Y-1699996D01*
X7264435Y-1700003D01*
X7284630Y-1879249D01*
X7284631Y-1879254D01*
X7344211Y-2049523D01*
X7440184Y-2202262D01*
X7567738Y-2329816D01*
X7720478Y-2425789D01*
X7890745Y-2485368D01*
X7890750Y-2485369D01*
X8069996Y-2505565D01*
X8070000Y-2505565D01*
X8070004Y-2505565D01*
X8249249Y-2485369D01*
X8249252Y-2485368D01*
X8249255Y-2485368D01*
X8419522Y-2425789D01*
X8572262Y-2329816D01*
X8699816Y-2202262D01*
X8795789Y-2049522D01*
X8855368Y-1879255D01*
X8875565Y-1700000D01*
X8855368Y-1520745D01*
X8795789Y-1350478D01*
X8699816Y-1197738D01*
X8572262Y-1070184D01*
X8419523Y-974211D01*
X8249254Y-914631D01*
X8249249Y-914630D01*
X8070004Y-894435D01*
X8069996Y-894435D01*
X7890750Y-914630D01*
X7890745Y-914631D01*
X7720476Y-974211D01*
X7567737Y-1070184D01*
X7440184Y-1197737D01*
X7344211Y-1350476D01*
X7284631Y-1520745D01*
X7284630Y-1520750D01*
X7264435Y-1699996D01*
X5500499Y-1699996D01*
X5500499Y-952128D01*
X5494091Y-892517D01*
X5443796Y-757669D01*
X5399734Y-698810D01*
X5375317Y-633348D01*
X5390168Y-565075D01*
X5439573Y-515669D01*
X5499001Y-500500D01*
X19375500Y-500500D01*
X19442539Y-520185D01*
X19488294Y-572989D01*
X19499500Y-624500D01*
X19499500Y-5280637D01*
X19479815Y-5347676D01*
X19427011Y-5393431D01*
X19357853Y-5403375D01*
X19309529Y-5385631D01*
X19259525Y-5354212D01*
X19089254Y-5294631D01*
X19089249Y-5294630D01*
X18910004Y-5274435D01*
X18909996Y-5274435D01*
X18730750Y-5294630D01*
X18730745Y-5294631D01*
X18560476Y-5354211D01*
X18407737Y-5450184D01*
X18280184Y-5577737D01*
X18184211Y-5730476D01*
X18124631Y-5900745D01*
X18124630Y-5900750D01*
X18104435Y-6079996D01*
X18104435Y-6080003D01*
X18124630Y-6259249D01*
X18124631Y-6259254D01*
X18184211Y-6429523D01*
X18280184Y-6582262D01*
X18407738Y-6709816D01*
X18560478Y-6805789D01*
X18700063Y-6854632D01*
X18730745Y-6865368D01*
X18730750Y-6865369D01*
X18909996Y-6885565D01*
X18910000Y-6885565D01*
X18910004Y-6885565D01*
X19089249Y-6865369D01*
X19089252Y-6865368D01*
X19089255Y-6865368D01*
X19259522Y-6805789D01*
X19309527Y-6774369D01*
X19376764Y-6755368D01*
X19443599Y-6775735D01*
X19488814Y-6829003D01*
X19499500Y-6879362D01*
X19499500Y-9543568D01*
X19479815Y-9610607D01*
X19427011Y-9656362D01*
X19357853Y-9666306D01*
X19301190Y-9642835D01*
X19292334Y-9636206D01*
X19292328Y-9636202D01*
X19157482Y-9585908D01*
X19157483Y-9585908D01*
X19097883Y-9579501D01*
X19097881Y-9579500D01*
X19097873Y-9579500D01*
X19097864Y-9579500D01*
X17302129Y-9579500D01*
X17302123Y-9579501D01*
X17242516Y-9585908D01*
X17107671Y-9636202D01*
X17107664Y-9636206D01*
X16992455Y-9722452D01*
X16992452Y-9722455D01*
X16906206Y-9837664D01*
X16906203Y-9837669D01*
X16857189Y-9969083D01*
X16815317Y-10025016D01*
X16749853Y-10049433D01*
X16681580Y-10034581D01*
X16653326Y-10013430D01*
X16531398Y-9891502D01*
X16511936Y-9877875D01*
X16468312Y-9823298D01*
X16461120Y-9753799D01*
X16492643Y-9691445D01*
X16517086Y-9671309D01*
X16661527Y-9580551D01*
X16789081Y-9452997D01*
X16885054Y-9300257D01*
X16944633Y-9129990D01*
X16944634Y-9129984D01*
X16964830Y-8950738D01*
X16964830Y-8950731D01*
X16944634Y-8771485D01*
X16944633Y-8771480D01*
X16926936Y-8720905D01*
X16885054Y-8601213D01*
X16789081Y-8448473D01*
X16785964Y-8445356D01*
X16752479Y-8384033D01*
X16757463Y-8314341D01*
X16768653Y-8291700D01*
X16775789Y-8280345D01*
X16835368Y-8110078D01*
X16836049Y-8104034D01*
X16855565Y-7930826D01*
X16855565Y-7930819D01*
X16835369Y-7751573D01*
X16835368Y-7751568D01*
X16796330Y-7640003D01*
X16775789Y-7581301D01*
X16679816Y-7428561D01*
X16552262Y-7301007D01*
X16535502Y-7290476D01*
X16399523Y-7205034D01*
X16229254Y-7145454D01*
X16229249Y-7145453D01*
X16050004Y-7125258D01*
X16049996Y-7125258D01*
X15870750Y-7145453D01*
X15870745Y-7145454D01*
X15700476Y-7205034D01*
X15580818Y-7280221D01*
X15513581Y-7299221D01*
X15446746Y-7278853D01*
X15407459Y-7237227D01*
X15340520Y-7121284D01*
X12637589Y-4418354D01*
X12637588Y-4418352D01*
X12518717Y-4299481D01*
X12518709Y-4299475D01*
X12416936Y-4240717D01*
X12416934Y-4240716D01*
X12381790Y-4220425D01*
X12381789Y-4220424D01*
X12369263Y-4217067D01*
X12229057Y-4179499D01*
X12070943Y-4179499D01*
X12063347Y-4179499D01*
X12063331Y-4179500D01*
X10942412Y-4179500D01*
X10875373Y-4159815D01*
X10865097Y-4152445D01*
X10862263Y-4150185D01*
X10862262Y-4150184D01*
X10805496Y-4114515D01*
X10709523Y-4054211D01*
X10539254Y-3994631D01*
X10539249Y-3994630D01*
X10360004Y-3974435D01*
X10359996Y-3974435D01*
X10180750Y-3994630D01*
X10180745Y-3994631D01*
X10010476Y-4054211D01*
X9857737Y-4150184D01*
X9730184Y-4277737D01*
X9634211Y-4430476D01*
X9574631Y-4600745D01*
X9574630Y-4600750D01*
X9554435Y-4779996D01*
X9554435Y-4780003D01*
X9574630Y-4959249D01*
X9574631Y-4959254D01*
X9634211Y-5129523D01*
X9717072Y-5261395D01*
X9730184Y-5282262D01*
X9857738Y-5409816D01*
X10010478Y-5505789D01*
X10100880Y-5537422D01*
X10180745Y-5565368D01*
X10180750Y-5565369D01*
X10359996Y-5585565D01*
X10360000Y-5585565D01*
X10360004Y-5585565D01*
X10539249Y-5565369D01*
X10539252Y-5565368D01*
X10539255Y-5565368D01*
X10709522Y-5505789D01*
X10862262Y-5409816D01*
X10862267Y-5409810D01*
X10865097Y-5407555D01*
X10867275Y-5406665D01*
X10868158Y-5406111D01*
X10868255Y-5406265D01*
X10929783Y-5381145D01*
X10942412Y-5380500D01*
X11849903Y-5380500D01*
X11916942Y-5400185D01*
X11937584Y-5416819D01*
X13778017Y-7257253D01*
X13811502Y-7318576D01*
X13806518Y-7388268D01*
X13764646Y-7444201D01*
X13756309Y-7449927D01*
X13687740Y-7493011D01*
X13560185Y-7620566D01*
X13464212Y-7773305D01*
X13404632Y-7943574D01*
X13404631Y-7943579D01*
X13384436Y-8122825D01*
X13384436Y-8122832D01*
X13404631Y-8302078D01*
X13404632Y-8302083D01*
X13464212Y-8472352D01*
X13545180Y-8601211D01*
X13560185Y-8625091D01*
X13687739Y-8752645D01*
X13717715Y-8771480D01*
X13839353Y-8847911D01*
X13840479Y-8848618D01*
X14010746Y-8908197D01*
X14057637Y-8913480D01*
X14122048Y-8940545D01*
X14161604Y-8998140D01*
X14163743Y-9067977D01*
X14127785Y-9127883D01*
X14084707Y-9153741D01*
X13940480Y-9204208D01*
X13787737Y-9300184D01*
X13660182Y-9427739D01*
X13575034Y-9563251D01*
X13522699Y-9609541D01*
X13453646Y-9620189D01*
X13437948Y-9617053D01*
X13355413Y-9594938D01*
X13355403Y-9594936D01*
X13120001Y-9574341D01*
X13119999Y-9574341D01*
X12884596Y-9594936D01*
X12884586Y-9594938D01*
X12656344Y-9656094D01*
X12656335Y-9656098D01*
X12442171Y-9755964D01*
X12442169Y-9755965D01*
X12248597Y-9891505D01*
X12081505Y-10058597D01*
X11945965Y-10252169D01*
X11945964Y-10252171D01*
X11846098Y-10466335D01*
X11846094Y-10466344D01*
X11784938Y-10694586D01*
X11784936Y-10694596D01*
X11764341Y-10929999D01*
X11764341Y-10930001D01*
X11783599Y-11150118D01*
X11769832Y-11218618D01*
X11721217Y-11268801D01*
X11653189Y-11284734D01*
X11646188Y-11284145D01*
X11560004Y-11274435D01*
X11559996Y-11274435D01*
X11380750Y-11294630D01*
X11380745Y-11294631D01*
X11210476Y-11354211D01*
X11057737Y-11450184D01*
X10930184Y-11577737D01*
X10834211Y-11730476D01*
X10774631Y-11900745D01*
X10774630Y-11900750D01*
X10754435Y-12079996D01*
X10754435Y-12080003D01*
X10774630Y-12259249D01*
X10774631Y-12259254D01*
X10834211Y-12429523D01*
X10895924Y-12527738D01*
X10930184Y-12582262D01*
X11057738Y-12709816D01*
X11210478Y-12805789D01*
X11338955Y-12850745D01*
X11380745Y-12865368D01*
X11380750Y-12865369D01*
X11559996Y-12885565D01*
X11560000Y-12885565D01*
X11560004Y-12885565D01*
X11739249Y-12865369D01*
X11739252Y-12865368D01*
X11739255Y-12865368D01*
X11909522Y-12805789D01*
X12062262Y-12709816D01*
X12189816Y-12582262D01*
X12285789Y-12429522D01*
X12345368Y-12259255D01*
X12347505Y-12240287D01*
X12374569Y-12175875D01*
X12432162Y-12136318D01*
X12501999Y-12134178D01*
X12523126Y-12141785D01*
X12656337Y-12203903D01*
X12656343Y-12203904D01*
X12656344Y-12203905D01*
X12711285Y-12218626D01*
X12884592Y-12265063D01*
X13061034Y-12280500D01*
X13119999Y-12285659D01*
X13120000Y-12285659D01*
X13120001Y-12285659D01*
X13178966Y-12280500D01*
X13355408Y-12265063D01*
X13583663Y-12203903D01*
X13797830Y-12104035D01*
X13991401Y-11968495D01*
X14158495Y-11801401D01*
X14288425Y-11615842D01*
X14343002Y-11572217D01*
X14412500Y-11565023D01*
X14474855Y-11596546D01*
X14491575Y-11615842D01*
X14619068Y-11797922D01*
X14621505Y-11801401D01*
X14788599Y-11968495D01*
X14885384Y-12036265D01*
X14982165Y-12104032D01*
X14982167Y-12104033D01*
X14982170Y-12104035D01*
X15196337Y-12203903D01*
X15196343Y-12203904D01*
X15196344Y-12203905D01*
X15251285Y-12218626D01*
X15424592Y-12265063D01*
X15601034Y-12280500D01*
X15659999Y-12285659D01*
X15660000Y-12285659D01*
X15660001Y-12285659D01*
X15718966Y-12280500D01*
X15895408Y-12265063D01*
X16123663Y-12203903D01*
X16337830Y-12104035D01*
X16531401Y-11968495D01*
X16653329Y-11846566D01*
X16714648Y-11813084D01*
X16784340Y-11818068D01*
X16840274Y-11859939D01*
X16857189Y-11890917D01*
X16906202Y-12022328D01*
X16906206Y-12022335D01*
X16992452Y-12137544D01*
X16992455Y-12137547D01*
X17107664Y-12223793D01*
X17107671Y-12223797D01*
X17242517Y-12274091D01*
X17242516Y-12274091D01*
X17249444Y-12274835D01*
X17302127Y-12280500D01*
X19097872Y-12280499D01*
X19157483Y-12274091D01*
X19292331Y-12223796D01*
X19301186Y-12217166D01*
X19366649Y-12192747D01*
X19434923Y-12207596D01*
X19484330Y-12257000D01*
X19499500Y-12316431D01*
X19499500Y-14266000D01*
X19479815Y-14333039D01*
X19427011Y-14378794D01*
X19375500Y-14390000D01*
X16197585Y-14390000D01*
X16130546Y-14370315D01*
X16084791Y-14317511D01*
X16080544Y-14306955D01*
X16025790Y-14150480D01*
X15968822Y-14059816D01*
X15929816Y-13997738D01*
X15802262Y-13870184D01*
X15649523Y-13774211D01*
X15479254Y-13714631D01*
X15479249Y-13714630D01*
X15300004Y-13694435D01*
X15299996Y-13694435D01*
X15120750Y-13714630D01*
X15120745Y-13714631D01*
X14950476Y-13774211D01*
X14797737Y-13870184D01*
X14670184Y-13997737D01*
X14574209Y-14150480D01*
X14519456Y-14306955D01*
X14478735Y-14363731D01*
X14413782Y-14389478D01*
X14402415Y-14390000D01*
X5906458Y-14390000D01*
X5839419Y-14370315D01*
X5793664Y-14317511D01*
X5783720Y-14248353D01*
X5812745Y-14184797D01*
X5844344Y-14160636D01*
X5843626Y-14159494D01*
X5879660Y-14136851D01*
X6002262Y-14059816D01*
X6129816Y-13932262D01*
X6225789Y-13779522D01*
X6285368Y-13609255D01*
X6305565Y-13430000D01*
X6285368Y-13250745D01*
X6225789Y-13080478D01*
X6225788Y-13080476D01*
X6225788Y-13080475D01*
X6181957Y-13010720D01*
X6141272Y-12945970D01*
X6122272Y-12878736D01*
X6141273Y-12814028D01*
X6206755Y-12709815D01*
X6225788Y-12679524D01*
X6256801Y-12590894D01*
X6285368Y-12509255D01*
X6297126Y-12404899D01*
X6305565Y-12330003D01*
X6305565Y-12329996D01*
X6285369Y-12150750D01*
X6285368Y-12150745D01*
X6260612Y-12079996D01*
X6225789Y-11980478D01*
X6218261Y-11968498D01*
X6186582Y-11918080D01*
X6129816Y-11827738D01*
X6069759Y-11767681D01*
X6036274Y-11706358D01*
X6041258Y-11636666D01*
X6069759Y-11592319D01*
X6097055Y-11565023D01*
X6129816Y-11532262D01*
X6225789Y-11379522D01*
X6285368Y-11209255D01*
X6285369Y-11209249D01*
X6305565Y-11030003D01*
X6305565Y-11029996D01*
X6285369Y-10850750D01*
X6285368Y-10850745D01*
X6230729Y-10694596D01*
X6225789Y-10680478D01*
X6129816Y-10527738D01*
X6119759Y-10517681D01*
X6086274Y-10456358D01*
X6091258Y-10386666D01*
X6119759Y-10342319D01*
X6129816Y-10332262D01*
X6225789Y-10179522D01*
X6285368Y-10009255D01*
X6285369Y-10009249D01*
X6305565Y-9830003D01*
X6305565Y-9829996D01*
X6285369Y-9650750D01*
X6285368Y-9650745D01*
X6265840Y-9594937D01*
X6225789Y-9480478D01*
X6129816Y-9327738D01*
X6002262Y-9200184D01*
X5849523Y-9104211D01*
X5679254Y-9044631D01*
X5679249Y-9044630D01*
X5500004Y-9024435D01*
X5499996Y-9024435D01*
X5320750Y-9044630D01*
X5320745Y-9044631D01*
X5150476Y-9104211D01*
X4997737Y-9200184D01*
X4987681Y-9210241D01*
X4926358Y-9243726D01*
X4856666Y-9238742D01*
X4812319Y-9210241D01*
X4802262Y-9200184D01*
X4649523Y-9104211D01*
X4479254Y-9044631D01*
X4479249Y-9044630D01*
X4300004Y-9024435D01*
X4299996Y-9024435D01*
X4120750Y-9044630D01*
X4120745Y-9044631D01*
X3950476Y-9104211D01*
X3797737Y-9200184D01*
X3670184Y-9327737D01*
X3574211Y-9480476D01*
X3514631Y-9650745D01*
X3514630Y-9650750D01*
X3494435Y-9829996D01*
X3494435Y-9830003D01*
X3514630Y-10009249D01*
X3514631Y-10009254D01*
X3574211Y-10179523D01*
X3670184Y-10332262D01*
X3680241Y-10342319D01*
X3713726Y-10403642D01*
X3708742Y-10473334D01*
X3680241Y-10517681D01*
X3670184Y-10527737D01*
X3574211Y-10680476D01*
X3514631Y-10850745D01*
X3514630Y-10850750D01*
X3494435Y-11029996D01*
X3494435Y-11030003D01*
X3514630Y-11209249D01*
X3514631Y-11209254D01*
X3574211Y-11379523D01*
X3670184Y-11532262D01*
X3730241Y-11592319D01*
X3763726Y-11653642D01*
X3758742Y-11723334D01*
X3730241Y-11767681D01*
X3670184Y-11827737D01*
X3574211Y-11980476D01*
X3514631Y-12150745D01*
X3514630Y-12150750D01*
X3494435Y-12329996D01*
X3494435Y-12330003D01*
X3514630Y-12509249D01*
X3514631Y-12509254D01*
X3574211Y-12679523D01*
X3658727Y-12814028D01*
X3677727Y-12881264D01*
X3658727Y-12945972D01*
X3574211Y-13080476D01*
X3514631Y-13250745D01*
X3514630Y-13250750D01*
X3494435Y-13429996D01*
X3494435Y-13430003D01*
X3514630Y-13609249D01*
X3514631Y-13609254D01*
X3574211Y-13779523D01*
X3596735Y-13815369D01*
X3670184Y-13932262D01*
X3797738Y-14059816D01*
X3886320Y-14115476D01*
X3956374Y-14159494D01*
X3955195Y-14161370D01*
X3999201Y-14201098D01*
X4017516Y-14268525D01*
X3996471Y-14335150D01*
X3942746Y-14379820D01*
X3893542Y-14390000D01*
X624500Y-14390000D01*
X557461Y-14370315D01*
X511706Y-14317511D01*
X500500Y-14266000D01*
X500500Y-13779094D01*
X520185Y-13712055D01*
X572989Y-13666300D01*
X642147Y-13656356D01*
X690471Y-13674100D01*
X722834Y-13694435D01*
X820475Y-13755788D01*
X990745Y-13815368D01*
X990750Y-13815369D01*
X1169996Y-13835565D01*
X1170000Y-13835565D01*
X1170004Y-13835565D01*
X1349249Y-13815369D01*
X1349252Y-13815368D01*
X1349255Y-13815368D01*
X1519522Y-13755789D01*
X1672262Y-13659816D01*
X1799816Y-13532262D01*
X1895789Y-13379522D01*
X1955368Y-13209255D01*
X1975565Y-13030000D01*
X1966097Y-12945972D01*
X1955369Y-12850750D01*
X1955368Y-12850745D01*
X1895789Y-12680478D01*
X1895188Y-12679522D01*
X1856582Y-12618080D01*
X1799816Y-12527738D01*
X1672262Y-12400184D01*
X1649528Y-12385899D01*
X1519523Y-12304211D01*
X1349254Y-12244631D01*
X1349249Y-12244630D01*
X1170004Y-12224435D01*
X1169996Y-12224435D01*
X990750Y-12244630D01*
X990745Y-12244631D01*
X820476Y-12304211D01*
X690472Y-12385899D01*
X623235Y-12404899D01*
X556400Y-12384531D01*
X511186Y-12331263D01*
X500500Y-12280905D01*
X500500Y-10219094D01*
X520185Y-10152055D01*
X572989Y-10106300D01*
X642147Y-10096356D01*
X690471Y-10114100D01*
X728193Y-10137802D01*
X820475Y-10195788D01*
X990745Y-10255368D01*
X990750Y-10255369D01*
X1169996Y-10275565D01*
X1170000Y-10275565D01*
X1170004Y-10275565D01*
X1349249Y-10255369D01*
X1349252Y-10255368D01*
X1349255Y-10255368D01*
X1519522Y-10195789D01*
X1672262Y-10099816D01*
X1799816Y-9972262D01*
X1895789Y-9819522D01*
X1955368Y-9649255D01*
X1955369Y-9649249D01*
X1975565Y-9470003D01*
X1975565Y-9469996D01*
X1955369Y-9290750D01*
X1955368Y-9290745D01*
X1927198Y-9210241D01*
X1895789Y-9120478D01*
X1799816Y-8967738D01*
X1672262Y-8840184D01*
X1649528Y-8825899D01*
X1519523Y-8744211D01*
X1349254Y-8684631D01*
X1349249Y-8684630D01*
X1170004Y-8664435D01*
X1169996Y-8664435D01*
X990750Y-8684630D01*
X990745Y-8684631D01*
X820476Y-8744211D01*
X690472Y-8825899D01*
X623235Y-8844899D01*
X556400Y-8824531D01*
X511186Y-8771263D01*
X500500Y-8720905D01*
X500500Y-624500D01*
X520185Y-557461D01*
X572989Y-511706D01*
X624500Y-500500D01*
X2800999Y-500500D01*
X2868038Y-520185D01*
G37*
%TD.AperFunction*%
%TD*%
M02*
