%TF.GenerationSoftware,KiCad,Pcbnew,8.0.2-1*%
%TF.CreationDate,2024-05-31T22:32:28-04:00*%
%TF.ProjectId,ez-servo,657a2d73-6572-4766-9f2e-6b696361645f,v0.0.0*%
%TF.SameCoordinates,Original*%
%TF.FileFunction,Soldermask,Top*%
%TF.FilePolarity,Negative*%
%FSLAX46Y46*%
G04 Gerber Fmt 4.6, Leading zero omitted, Abs format (unit mm)*
G04 Created by KiCad (PCBNEW 8.0.2-1) date 2024-05-31 22:32:28*
%MOMM*%
%LPD*%
G01*
G04 APERTURE LIST*
G04 Aperture macros list*
%AMRoundRect*
0 Rectangle with rounded corners*
0 $1 Rounding radius*
0 $2 $3 $4 $5 $6 $7 $8 $9 X,Y pos of 4 corners*
0 Add a 4 corners polygon primitive as box body*
4,1,4,$2,$3,$4,$5,$6,$7,$8,$9,$2,$3,0*
0 Add four circle primitives for the rounded corners*
1,1,$1+$1,$2,$3*
1,1,$1+$1,$4,$5*
1,1,$1+$1,$6,$7*
1,1,$1+$1,$8,$9*
0 Add four rect primitives between the rounded corners*
20,1,$1+$1,$2,$3,$4,$5,0*
20,1,$1+$1,$4,$5,$6,$7,0*
20,1,$1+$1,$6,$7,$8,$9,0*
20,1,$1+$1,$8,$9,$2,$3,0*%
G04 Aperture macros list end*
%ADD10R,3.000000X3.500000*%
%ADD11RoundRect,0.250000X0.475000X-0.250000X0.475000X0.250000X-0.475000X0.250000X-0.475000X-0.250000X0*%
%ADD12RoundRect,0.250000X0.650000X-0.325000X0.650000X0.325000X-0.650000X0.325000X-0.650000X-0.325000X0*%
%ADD13RoundRect,0.250000X-0.250000X-0.475000X0.250000X-0.475000X0.250000X0.475000X-0.250000X0.475000X0*%
%ADD14R,1.550000X0.600000*%
%ADD15R,2.600000X3.100000*%
%ADD16O,1.700000X1.700000*%
%ADD17R,1.700000X1.700000*%
%ADD18RoundRect,0.250000X-0.350000X-0.450000X0.350000X-0.450000X0.350000X0.450000X-0.350000X0.450000X0*%
%ADD19RoundRect,0.250000X0.350000X0.450000X-0.350000X0.450000X-0.350000X-0.450000X0.350000X-0.450000X0*%
G04 APERTURE END LIST*
D10*
%TO.C,L1*%
X43000000Y-29100000D03*
X37000000Y-29100000D03*
%TD*%
D11*
%TO.C,C1*%
X34630000Y-36520000D03*
X34630000Y-34620000D03*
%TD*%
D12*
%TO.C,C4*%
X34090000Y-29095000D03*
X34090000Y-26145000D03*
%TD*%
D13*
%TO.C,C5*%
X32580000Y-30920000D03*
X34480000Y-30920000D03*
%TD*%
D12*
%TO.C,C3*%
X31780000Y-29095000D03*
X31780000Y-26145000D03*
%TD*%
D14*
%TO.C,U1*%
X27200000Y-34725000D03*
X27200000Y-35995000D03*
X27200000Y-37265000D03*
X27200000Y-38535000D03*
X32600000Y-38535000D03*
X32600000Y-37265000D03*
X32600000Y-35995000D03*
X32600000Y-34725000D03*
D15*
X29900000Y-36630000D03*
%TD*%
D13*
%TO.C,C6*%
X32580000Y-32890000D03*
X34480000Y-32890000D03*
%TD*%
D16*
%TO.C,J2*%
X29150000Y-31930000D03*
X29150000Y-29390000D03*
D17*
X29150000Y-26850000D03*
%TD*%
%TO.C,J3*%
X43200000Y-35930000D03*
D16*
X40660000Y-35930000D03*
X38120000Y-35930000D03*
%TD*%
D18*
%TO.C,R1*%
X41900000Y-33950000D03*
X43900000Y-33950000D03*
%TD*%
D19*
%TO.C,R3*%
X38190000Y-33950000D03*
X40190000Y-33950000D03*
%TD*%
G36*
X28943039Y-40019685D02*
G01*
X28988794Y-40072489D01*
X29000000Y-40124000D01*
X29000000Y-43876000D01*
X28980315Y-43943039D01*
X28927511Y-43988794D01*
X28876000Y-44000000D01*
X27624000Y-44000000D01*
X27556961Y-43980315D01*
X27511206Y-43927511D01*
X27500000Y-43876000D01*
X27500000Y-40124000D01*
X27519685Y-40056961D01*
X27572489Y-40011206D01*
X27624000Y-40000000D01*
X28876000Y-40000000D01*
X28943039Y-40019685D01*
G37*
G36*
X30943039Y-40019685D02*
G01*
X30988794Y-40072489D01*
X31000000Y-40124000D01*
X31000000Y-43876000D01*
X30980315Y-43943039D01*
X30927511Y-43988794D01*
X30876000Y-44000000D01*
X29624000Y-44000000D01*
X29556961Y-43980315D01*
X29511206Y-43927511D01*
X29500000Y-43876000D01*
X29500000Y-40124000D01*
X29519685Y-40056961D01*
X29572489Y-40011206D01*
X29624000Y-40000000D01*
X30876000Y-40000000D01*
X30943039Y-40019685D01*
G37*
G36*
X32943039Y-40019685D02*
G01*
X32988794Y-40072489D01*
X33000000Y-40124000D01*
X33000000Y-43876000D01*
X32980315Y-43943039D01*
X32927511Y-43988794D01*
X32876000Y-44000000D01*
X31624000Y-44000000D01*
X31556961Y-43980315D01*
X31511206Y-43927511D01*
X31500000Y-43876000D01*
X31500000Y-40124000D01*
X31519685Y-40056961D01*
X31572489Y-40011206D01*
X31624000Y-40000000D01*
X32876000Y-40000000D01*
X32943039Y-40019685D01*
G37*
G36*
X34943039Y-40019685D02*
G01*
X34988794Y-40072489D01*
X35000000Y-40124000D01*
X35000000Y-43876000D01*
X34980315Y-43943039D01*
X34927511Y-43988794D01*
X34876000Y-44000000D01*
X33624000Y-44000000D01*
X33556961Y-43980315D01*
X33511206Y-43927511D01*
X33500000Y-43876000D01*
X33500000Y-40124000D01*
X33519685Y-40056961D01*
X33572489Y-40011206D01*
X33624000Y-40000000D01*
X34876000Y-40000000D01*
X34943039Y-40019685D01*
G37*
G36*
X36943039Y-40019685D02*
G01*
X36988794Y-40072489D01*
X37000000Y-40124000D01*
X37000000Y-43876000D01*
X36980315Y-43943039D01*
X36927511Y-43988794D01*
X36876000Y-44000000D01*
X35624000Y-44000000D01*
X35556961Y-43980315D01*
X35511206Y-43927511D01*
X35500000Y-43876000D01*
X35500000Y-40124000D01*
X35519685Y-40056961D01*
X35572489Y-40011206D01*
X35624000Y-40000000D01*
X36876000Y-40000000D01*
X36943039Y-40019685D01*
G37*
G36*
X38943039Y-40019685D02*
G01*
X38988794Y-40072489D01*
X39000000Y-40124000D01*
X39000000Y-43876000D01*
X38980315Y-43943039D01*
X38927511Y-43988794D01*
X38876000Y-44000000D01*
X37624000Y-44000000D01*
X37556961Y-43980315D01*
X37511206Y-43927511D01*
X37500000Y-43876000D01*
X37500000Y-40124000D01*
X37519685Y-40056961D01*
X37572489Y-40011206D01*
X37624000Y-40000000D01*
X38876000Y-40000000D01*
X38943039Y-40019685D01*
G37*
G36*
X40943039Y-40019685D02*
G01*
X40988794Y-40072489D01*
X41000000Y-40124000D01*
X41000000Y-43876000D01*
X40980315Y-43943039D01*
X40927511Y-43988794D01*
X40876000Y-44000000D01*
X39624000Y-44000000D01*
X39556961Y-43980315D01*
X39511206Y-43927511D01*
X39500000Y-43876000D01*
X39500000Y-40124000D01*
X39519685Y-40056961D01*
X39572489Y-40011206D01*
X39624000Y-40000000D01*
X40876000Y-40000000D01*
X40943039Y-40019685D01*
G37*
G36*
X42943039Y-40019685D02*
G01*
X42988794Y-40072489D01*
X43000000Y-40124000D01*
X43000000Y-43876000D01*
X42980315Y-43943039D01*
X42927511Y-43988794D01*
X42876000Y-44000000D01*
X41624000Y-44000000D01*
X41556961Y-43980315D01*
X41511206Y-43927511D01*
X41500000Y-43876000D01*
X41500000Y-40124000D01*
X41519685Y-40056961D01*
X41572489Y-40011206D01*
X41624000Y-40000000D01*
X42876000Y-40000000D01*
X42943039Y-40019685D01*
G37*
M02*
