%TF.GenerationSoftware,KiCad,Pcbnew,8.0.2-1*%
%TF.CreationDate,2024-05-31T21:31:19-04:00*%
%TF.ProjectId,ez-servo,657a2d73-6572-4766-9f2e-6b696361645f,v0.0.0*%
%TF.SameCoordinates,Original*%
%TF.FileFunction,Copper,L3,Inr*%
%TF.FilePolarity,Positive*%
%FSLAX46Y46*%
G04 Gerber Fmt 4.6, Leading zero omitted, Abs format (unit mm)*
G04 Created by KiCad (PCBNEW 8.0.2-1) date 2024-05-31 21:31:19*
%MOMM*%
%LPD*%
G01*
G04 APERTURE LIST*
%TA.AperFunction,ComponentPad*%
%ADD10C,0.600000*%
%TD*%
%TA.AperFunction,ComponentPad*%
%ADD11R,1.700000X1.700000*%
%TD*%
%TA.AperFunction,ComponentPad*%
%ADD12O,1.700000X1.700000*%
%TD*%
%TA.AperFunction,ViaPad*%
%ADD13C,0.600000*%
%TD*%
G04 APERTURE END LIST*
D10*
%TO.N,GND*%
%TO.C,U1*%
X29300000Y-34830000D03*
X29300000Y-36030000D03*
X29300000Y-37330000D03*
X29300000Y-38430000D03*
X30500000Y-34830000D03*
X30500000Y-36030000D03*
X30500000Y-37330000D03*
X30500000Y-38430000D03*
%TD*%
D11*
%TO.N,SERVO_PWM*%
%TO.C,J2*%
X29150000Y-26850000D03*
D12*
%TO.N,VOUT*%
X29150000Y-29390000D03*
%TO.N,GND*%
X29150000Y-31930000D03*
%TD*%
D11*
%TO.N,8_4V*%
%TO.C,J3*%
X43200000Y-35930000D03*
D12*
%TO.N,SENSE*%
X40660000Y-35930000D03*
%TO.N,6V*%
X38120000Y-35930000D03*
%TD*%
D13*
%TO.N,Net-(C2-Pad2)*%
X43910000Y-31080000D03*
X41400549Y-32930823D03*
%TO.N,SENSE*%
X39700000Y-34777171D03*
%TO.N,VOUT*%
X41390000Y-33930000D03*
X35360000Y-29780000D03*
%TO.N,GND*%
X40300000Y-39500000D03*
%TO.N,SENSE*%
X26170000Y-38030000D03*
%TO.N,Net-(C2-Pad2)*%
X37818099Y-33235792D03*
%TO.N,Net-(U1-BOOT)*%
X26170000Y-34470000D03*
%TO.N,+24V*%
X42300000Y-38800000D03*
X42300000Y-39500000D03*
X33915000Y-35765000D03*
%TO.N,GND*%
X33070000Y-26700000D03*
%TD*%
%TA.AperFunction,Conductor*%
%TO.N,GND*%
G36*
X27868038Y-25520185D02*
G01*
X27913793Y-25572989D01*
X27923737Y-25642147D01*
X27900265Y-25698810D01*
X27880238Y-25725562D01*
X27856204Y-25757668D01*
X27856202Y-25757671D01*
X27805908Y-25892517D01*
X27799501Y-25952116D01*
X27799501Y-25952123D01*
X27799500Y-25952135D01*
X27799500Y-27747870D01*
X27799501Y-27747876D01*
X27805908Y-27807483D01*
X27856202Y-27942328D01*
X27856206Y-27942335D01*
X27942452Y-28057544D01*
X27942455Y-28057547D01*
X28057664Y-28143793D01*
X28057671Y-28143797D01*
X28189081Y-28192810D01*
X28245015Y-28234681D01*
X28269432Y-28300145D01*
X28254580Y-28368418D01*
X28233430Y-28396673D01*
X28111503Y-28518600D01*
X27975965Y-28712169D01*
X27975964Y-28712171D01*
X27876098Y-28926335D01*
X27876094Y-28926344D01*
X27814938Y-29154586D01*
X27814936Y-29154596D01*
X27794341Y-29389999D01*
X27794341Y-29390000D01*
X27814936Y-29625403D01*
X27814938Y-29625413D01*
X27876094Y-29853655D01*
X27876096Y-29853659D01*
X27876097Y-29853663D01*
X27925333Y-29959249D01*
X27975965Y-30067830D01*
X27975967Y-30067834D01*
X28111501Y-30261395D01*
X28111506Y-30261402D01*
X28278597Y-30428493D01*
X28278603Y-30428498D01*
X28464594Y-30558730D01*
X28508219Y-30613307D01*
X28515413Y-30682805D01*
X28483890Y-30745160D01*
X28464595Y-30761880D01*
X28278922Y-30891890D01*
X28278920Y-30891891D01*
X28111891Y-31058920D01*
X28111886Y-31058926D01*
X27976400Y-31252420D01*
X27976399Y-31252422D01*
X27876570Y-31466507D01*
X27876567Y-31466513D01*
X27819364Y-31679999D01*
X27819364Y-31680000D01*
X28716988Y-31680000D01*
X28684075Y-31737007D01*
X28650000Y-31864174D01*
X28650000Y-31995826D01*
X28684075Y-32122993D01*
X28716988Y-32180000D01*
X27819364Y-32180000D01*
X27876567Y-32393486D01*
X27876570Y-32393492D01*
X27976399Y-32607578D01*
X28111894Y-32801082D01*
X28278917Y-32968105D01*
X28472421Y-33103600D01*
X28686507Y-33203429D01*
X28686516Y-33203433D01*
X28900000Y-33260634D01*
X28900000Y-32363012D01*
X28957007Y-32395925D01*
X29084174Y-32430000D01*
X29215826Y-32430000D01*
X29342993Y-32395925D01*
X29400000Y-32363012D01*
X29400000Y-33260633D01*
X29492727Y-33235788D01*
X37012534Y-33235788D01*
X37012534Y-33235795D01*
X37032729Y-33415041D01*
X37032730Y-33415046D01*
X37092310Y-33585315D01*
X37188283Y-33738054D01*
X37315837Y-33865608D01*
X37468577Y-33961581D01*
X37554941Y-33991801D01*
X37638844Y-34021160D01*
X37638849Y-34021161D01*
X37818095Y-34041357D01*
X37818099Y-34041357D01*
X37818103Y-34041357D01*
X37997348Y-34021161D01*
X37997351Y-34021160D01*
X37997354Y-34021160D01*
X38167621Y-33961581D01*
X38320361Y-33865608D01*
X38447915Y-33738054D01*
X38543888Y-33585314D01*
X38603467Y-33415047D01*
X38603468Y-33415041D01*
X38623664Y-33235795D01*
X38623664Y-33235788D01*
X38603468Y-33056542D01*
X38603467Y-33056537D01*
X38543887Y-32886268D01*
X38447914Y-32733529D01*
X38320361Y-32605976D01*
X38167622Y-32510003D01*
X37997353Y-32450423D01*
X37997348Y-32450422D01*
X37818103Y-32430227D01*
X37818095Y-32430227D01*
X37638849Y-32450422D01*
X37638844Y-32450423D01*
X37468575Y-32510003D01*
X37315836Y-32605976D01*
X37188283Y-32733529D01*
X37092310Y-32886268D01*
X37032730Y-33056537D01*
X37032729Y-33056542D01*
X37012534Y-33235788D01*
X29492727Y-33235788D01*
X29613483Y-33203433D01*
X29613492Y-33203429D01*
X29827578Y-33103600D01*
X30021082Y-32968105D01*
X30188105Y-32801082D01*
X30323600Y-32607578D01*
X30423429Y-32393492D01*
X30423432Y-32393486D01*
X30480636Y-32180000D01*
X29583012Y-32180000D01*
X29615925Y-32122993D01*
X29650000Y-31995826D01*
X29650000Y-31864174D01*
X29615925Y-31737007D01*
X29583012Y-31680000D01*
X30480636Y-31680000D01*
X30480635Y-31679999D01*
X30423432Y-31466513D01*
X30423429Y-31466507D01*
X30323600Y-31252422D01*
X30323599Y-31252420D01*
X30188113Y-31058926D01*
X30188108Y-31058920D01*
X30021078Y-30891890D01*
X29835405Y-30761879D01*
X29791780Y-30707302D01*
X29784588Y-30637804D01*
X29816110Y-30575449D01*
X29835406Y-30558730D01*
X29865837Y-30537422D01*
X30021401Y-30428495D01*
X30188495Y-30261401D01*
X30324035Y-30067830D01*
X30423903Y-29853663D01*
X30443642Y-29779996D01*
X34554435Y-29779996D01*
X34554435Y-29780003D01*
X34574630Y-29959249D01*
X34574631Y-29959254D01*
X34634211Y-30129523D01*
X34717072Y-30261395D01*
X34730184Y-30282262D01*
X34857738Y-30409816D01*
X35010478Y-30505789D01*
X35100880Y-30537422D01*
X35180745Y-30565368D01*
X35180750Y-30565369D01*
X35359996Y-30585565D01*
X35360000Y-30585565D01*
X35360004Y-30585565D01*
X35539249Y-30565369D01*
X35539252Y-30565368D01*
X35539255Y-30565368D01*
X35709522Y-30505789D01*
X35862262Y-30409816D01*
X35989816Y-30282262D01*
X36085789Y-30129522D01*
X36145368Y-29959255D01*
X36157265Y-29853664D01*
X36165565Y-29780003D01*
X36165565Y-29779996D01*
X36145369Y-29600750D01*
X36145368Y-29600745D01*
X36085788Y-29430476D01*
X35989815Y-29277737D01*
X35862262Y-29150184D01*
X35709523Y-29054211D01*
X35539254Y-28994631D01*
X35539249Y-28994630D01*
X35360004Y-28974435D01*
X35359996Y-28974435D01*
X35180750Y-28994630D01*
X35180745Y-28994631D01*
X35010476Y-29054211D01*
X34857737Y-29150184D01*
X34730184Y-29277737D01*
X34634211Y-29430476D01*
X34574631Y-29600745D01*
X34574630Y-29600750D01*
X34554435Y-29779996D01*
X30443642Y-29779996D01*
X30485063Y-29625408D01*
X30505659Y-29390000D01*
X30485063Y-29154592D01*
X30423903Y-28926337D01*
X30324035Y-28712171D01*
X30188495Y-28518599D01*
X30066567Y-28396671D01*
X30033084Y-28335351D01*
X30038068Y-28265659D01*
X30079939Y-28209725D01*
X30110915Y-28192810D01*
X30242331Y-28143796D01*
X30357546Y-28057546D01*
X30443796Y-27942331D01*
X30494091Y-27807483D01*
X30500500Y-27747873D01*
X30500499Y-25952128D01*
X30494091Y-25892517D01*
X30443796Y-25757669D01*
X30399734Y-25698810D01*
X30375317Y-25633348D01*
X30390168Y-25565075D01*
X30439573Y-25515669D01*
X30499001Y-25500500D01*
X44375500Y-25500500D01*
X44442539Y-25520185D01*
X44488294Y-25572989D01*
X44499500Y-25624500D01*
X44499500Y-30280637D01*
X44479815Y-30347676D01*
X44427011Y-30393431D01*
X44357853Y-30403375D01*
X44309529Y-30385631D01*
X44259525Y-30354212D01*
X44089254Y-30294631D01*
X44089249Y-30294630D01*
X43910004Y-30274435D01*
X43909996Y-30274435D01*
X43730750Y-30294630D01*
X43730745Y-30294631D01*
X43560476Y-30354211D01*
X43407737Y-30450184D01*
X43280184Y-30577737D01*
X43184211Y-30730476D01*
X43124631Y-30900745D01*
X43124630Y-30900750D01*
X43104435Y-31079996D01*
X43104435Y-31080003D01*
X43124630Y-31259249D01*
X43124631Y-31259254D01*
X43184211Y-31429523D01*
X43184511Y-31430000D01*
X43280184Y-31582262D01*
X43407738Y-31709816D01*
X43560478Y-31805789D01*
X43626820Y-31829003D01*
X43730745Y-31865368D01*
X43730750Y-31865369D01*
X43909996Y-31885565D01*
X43910000Y-31885565D01*
X43910004Y-31885565D01*
X44089249Y-31865369D01*
X44089252Y-31865368D01*
X44089255Y-31865368D01*
X44259522Y-31805789D01*
X44309527Y-31774369D01*
X44376764Y-31755368D01*
X44443599Y-31775735D01*
X44488814Y-31829003D01*
X44499500Y-31879362D01*
X44499500Y-34543568D01*
X44479815Y-34610607D01*
X44427011Y-34656362D01*
X44357853Y-34666306D01*
X44301190Y-34642835D01*
X44292334Y-34636206D01*
X44292328Y-34636202D01*
X44157482Y-34585908D01*
X44157483Y-34585908D01*
X44097883Y-34579501D01*
X44097881Y-34579500D01*
X44097873Y-34579500D01*
X44097864Y-34579500D01*
X42302129Y-34579500D01*
X42302123Y-34579501D01*
X42242514Y-34585909D01*
X42168771Y-34613413D01*
X42099079Y-34618397D01*
X42037757Y-34584911D01*
X42004272Y-34523587D01*
X42009258Y-34453896D01*
X42020442Y-34431264D01*
X42115789Y-34279522D01*
X42175368Y-34109255D01*
X42182594Y-34045121D01*
X42195565Y-33930003D01*
X42195565Y-33929996D01*
X42175369Y-33750750D01*
X42175368Y-33750745D01*
X42170927Y-33738054D01*
X42115789Y-33580478D01*
X42068222Y-33504777D01*
X42049222Y-33437542D01*
X42068222Y-33372835D01*
X42126338Y-33280345D01*
X42185917Y-33110078D01*
X42191950Y-33056537D01*
X42206114Y-32930826D01*
X42206114Y-32930819D01*
X42185918Y-32751573D01*
X42185917Y-32751568D01*
X42179605Y-32733529D01*
X42126338Y-32581301D01*
X42030365Y-32428561D01*
X41902811Y-32301007D01*
X41800956Y-32237007D01*
X41750072Y-32205034D01*
X41579803Y-32145454D01*
X41579798Y-32145453D01*
X41400553Y-32125258D01*
X41400545Y-32125258D01*
X41221299Y-32145453D01*
X41221294Y-32145454D01*
X41051025Y-32205034D01*
X40898286Y-32301007D01*
X40770733Y-32428560D01*
X40674760Y-32581299D01*
X40615180Y-32751568D01*
X40615179Y-32751573D01*
X40594984Y-32930819D01*
X40594984Y-32930826D01*
X40615179Y-33110072D01*
X40615180Y-33110077D01*
X40674760Y-33280346D01*
X40722325Y-33356045D01*
X40741325Y-33423282D01*
X40722325Y-33487989D01*
X40664211Y-33580476D01*
X40604631Y-33750745D01*
X40604630Y-33750750D01*
X40584435Y-33929996D01*
X40584435Y-33930003D01*
X40604630Y-34109249D01*
X40604631Y-34109254D01*
X40664211Y-34279523D01*
X40731627Y-34386814D01*
X40750627Y-34454051D01*
X40730259Y-34520886D01*
X40676991Y-34566100D01*
X40637441Y-34576314D01*
X40578567Y-34581465D01*
X40510067Y-34567699D01*
X40459884Y-34519083D01*
X40450719Y-34498896D01*
X40425789Y-34427649D01*
X40329816Y-34274909D01*
X40202262Y-34147355D01*
X40159488Y-34120478D01*
X40049523Y-34051382D01*
X39879254Y-33991802D01*
X39879249Y-33991801D01*
X39700004Y-33971606D01*
X39699996Y-33971606D01*
X39520750Y-33991801D01*
X39520745Y-33991802D01*
X39350476Y-34051382D01*
X39197737Y-34147355D01*
X39070184Y-34274908D01*
X38974211Y-34427647D01*
X38914631Y-34597916D01*
X38914631Y-34597919D01*
X38911192Y-34628436D01*
X38884123Y-34692849D01*
X38826528Y-34732403D01*
X38756691Y-34734538D01*
X38735567Y-34726931D01*
X38683895Y-34702836D01*
X38583663Y-34656097D01*
X38583659Y-34656096D01*
X38583655Y-34656094D01*
X38355413Y-34594938D01*
X38355403Y-34594936D01*
X38120001Y-34574341D01*
X38119999Y-34574341D01*
X37884596Y-34594936D01*
X37884586Y-34594938D01*
X37656344Y-34656094D01*
X37656335Y-34656098D01*
X37442171Y-34755964D01*
X37442169Y-34755965D01*
X37248597Y-34891505D01*
X37081505Y-35058597D01*
X36945965Y-35252169D01*
X36945964Y-35252171D01*
X36846098Y-35466335D01*
X36846094Y-35466344D01*
X36784938Y-35694586D01*
X36784936Y-35694596D01*
X36764341Y-35929999D01*
X36764341Y-35930000D01*
X36784936Y-36165403D01*
X36784938Y-36165413D01*
X36846094Y-36393655D01*
X36846096Y-36393659D01*
X36846097Y-36393663D01*
X36926004Y-36565023D01*
X36945965Y-36607830D01*
X36945967Y-36607834D01*
X36996499Y-36680000D01*
X37081505Y-36801401D01*
X37248599Y-36968495D01*
X37345384Y-37036265D01*
X37442165Y-37104032D01*
X37442167Y-37104033D01*
X37442170Y-37104035D01*
X37656337Y-37203903D01*
X37656343Y-37203904D01*
X37656344Y-37203905D01*
X37711285Y-37218626D01*
X37884592Y-37265063D01*
X38061034Y-37280500D01*
X38119999Y-37285659D01*
X38120000Y-37285659D01*
X38120001Y-37285659D01*
X38178966Y-37280500D01*
X38355408Y-37265063D01*
X38583663Y-37203903D01*
X38797830Y-37104035D01*
X38991401Y-36968495D01*
X39158495Y-36801401D01*
X39288425Y-36615842D01*
X39343002Y-36572217D01*
X39412500Y-36565023D01*
X39474855Y-36596546D01*
X39491575Y-36615842D01*
X39621500Y-36801395D01*
X39621505Y-36801401D01*
X39788599Y-36968495D01*
X39885384Y-37036265D01*
X39982165Y-37104032D01*
X39982167Y-37104033D01*
X39982170Y-37104035D01*
X40196337Y-37203903D01*
X40196343Y-37203904D01*
X40196344Y-37203905D01*
X40251285Y-37218626D01*
X40424592Y-37265063D01*
X40601034Y-37280500D01*
X40659999Y-37285659D01*
X40660000Y-37285659D01*
X40660001Y-37285659D01*
X40718966Y-37280500D01*
X40895408Y-37265063D01*
X41123663Y-37203903D01*
X41337830Y-37104035D01*
X41531401Y-36968495D01*
X41653329Y-36846566D01*
X41714648Y-36813084D01*
X41784340Y-36818068D01*
X41840274Y-36859939D01*
X41857189Y-36890917D01*
X41906202Y-37022328D01*
X41906206Y-37022335D01*
X41992452Y-37137544D01*
X41992455Y-37137547D01*
X42107664Y-37223793D01*
X42107671Y-37223797D01*
X42242517Y-37274091D01*
X42242516Y-37274091D01*
X42249444Y-37274835D01*
X42302127Y-37280500D01*
X44097872Y-37280499D01*
X44157483Y-37274091D01*
X44292331Y-37223796D01*
X44301186Y-37217166D01*
X44366649Y-37192747D01*
X44434923Y-37207596D01*
X44484330Y-37257000D01*
X44499500Y-37316431D01*
X44499500Y-39266000D01*
X44479815Y-39333039D01*
X44427011Y-39378794D01*
X44375500Y-39390000D01*
X43197585Y-39390000D01*
X43130546Y-39370315D01*
X43084791Y-39317511D01*
X43080544Y-39306955D01*
X43039953Y-39190955D01*
X43036390Y-39121177D01*
X43039953Y-39109045D01*
X43085366Y-38979262D01*
X43085369Y-38979249D01*
X43105565Y-38800003D01*
X43105565Y-38799996D01*
X43085369Y-38620750D01*
X43085368Y-38620745D01*
X43025788Y-38450476D01*
X42929815Y-38297737D01*
X42802262Y-38170184D01*
X42649523Y-38074211D01*
X42479254Y-38014631D01*
X42479249Y-38014630D01*
X42300004Y-37994435D01*
X42299996Y-37994435D01*
X42120750Y-38014630D01*
X42120745Y-38014631D01*
X41950476Y-38074211D01*
X41797737Y-38170184D01*
X41670184Y-38297737D01*
X41574211Y-38450476D01*
X41514631Y-38620745D01*
X41514630Y-38620750D01*
X41494435Y-38799996D01*
X41494435Y-38800003D01*
X41514630Y-38979249D01*
X41514632Y-38979257D01*
X41560047Y-39109046D01*
X41563608Y-39178825D01*
X41560047Y-39190954D01*
X41519457Y-39306954D01*
X41478735Y-39363731D01*
X41413782Y-39389478D01*
X41402415Y-39390000D01*
X30905298Y-39390000D01*
X30838259Y-39370315D01*
X30792504Y-39317511D01*
X30782560Y-39248353D01*
X30811585Y-39184797D01*
X30844008Y-39160003D01*
X30843405Y-39159043D01*
X30863106Y-39146661D01*
X30863106Y-39146660D01*
X30500001Y-38783553D01*
X30500000Y-38783553D01*
X30136892Y-39146660D01*
X30136892Y-39146661D01*
X30156594Y-39159042D01*
X30155574Y-39160664D01*
X30200361Y-39201097D01*
X30218677Y-39268524D01*
X30197632Y-39335149D01*
X30143908Y-39379819D01*
X30094703Y-39390000D01*
X29705298Y-39390000D01*
X29638259Y-39370315D01*
X29592504Y-39317511D01*
X29582560Y-39248353D01*
X29611585Y-39184797D01*
X29644008Y-39160003D01*
X29643405Y-39159043D01*
X29663106Y-39146661D01*
X29663106Y-39146660D01*
X29300001Y-38783553D01*
X29300000Y-38783553D01*
X28936892Y-39146660D01*
X28936892Y-39146661D01*
X28956594Y-39159042D01*
X28955574Y-39160664D01*
X29000361Y-39201097D01*
X29018677Y-39268524D01*
X28997632Y-39335149D01*
X28943908Y-39379819D01*
X28894703Y-39390000D01*
X25624500Y-39390000D01*
X25557461Y-39370315D01*
X25511706Y-39317511D01*
X25500500Y-39266000D01*
X25500500Y-38779094D01*
X25520185Y-38712055D01*
X25572989Y-38666300D01*
X25642147Y-38656356D01*
X25690471Y-38674100D01*
X25728193Y-38697802D01*
X25820475Y-38755788D01*
X25990745Y-38815368D01*
X25990750Y-38815369D01*
X26169996Y-38835565D01*
X26170000Y-38835565D01*
X26170004Y-38835565D01*
X26349249Y-38815369D01*
X26349252Y-38815368D01*
X26349255Y-38815368D01*
X26519522Y-38755789D01*
X26672262Y-38659816D01*
X26799816Y-38532262D01*
X26864073Y-38429997D01*
X28494938Y-38429997D01*
X28494938Y-38430002D01*
X28515121Y-38609138D01*
X28574665Y-38779304D01*
X28583338Y-38793107D01*
X28946446Y-38430000D01*
X28946446Y-38429999D01*
X28916610Y-38400163D01*
X29150000Y-38400163D01*
X29150000Y-38459837D01*
X29172836Y-38514968D01*
X29215032Y-38557164D01*
X29270163Y-38580000D01*
X29329837Y-38580000D01*
X29384968Y-38557164D01*
X29427164Y-38514968D01*
X29450000Y-38459837D01*
X29450000Y-38429999D01*
X29653553Y-38429999D01*
X29900000Y-38676446D01*
X30146446Y-38430001D01*
X30146446Y-38430000D01*
X30116609Y-38400163D01*
X30350000Y-38400163D01*
X30350000Y-38459837D01*
X30372836Y-38514968D01*
X30415032Y-38557164D01*
X30470163Y-38580000D01*
X30529837Y-38580000D01*
X30584968Y-38557164D01*
X30627164Y-38514968D01*
X30650000Y-38459837D01*
X30650000Y-38430000D01*
X30853553Y-38430000D01*
X31216660Y-38793106D01*
X31216661Y-38793106D01*
X31225334Y-38779306D01*
X31225334Y-38779305D01*
X31284877Y-38609141D01*
X31284878Y-38609138D01*
X31305062Y-38430002D01*
X31305062Y-38429997D01*
X31284878Y-38250861D01*
X31225333Y-38080692D01*
X31216661Y-38066892D01*
X31216660Y-38066892D01*
X30853553Y-38430000D01*
X30650000Y-38430000D01*
X30650000Y-38400163D01*
X30627164Y-38345032D01*
X30584968Y-38302836D01*
X30529837Y-38280000D01*
X30470163Y-38280000D01*
X30415032Y-38302836D01*
X30372836Y-38345032D01*
X30350000Y-38400163D01*
X30116609Y-38400163D01*
X29900000Y-38183553D01*
X29653553Y-38429999D01*
X29450000Y-38429999D01*
X29450000Y-38400163D01*
X29427164Y-38345032D01*
X29384968Y-38302836D01*
X29329837Y-38280000D01*
X29270163Y-38280000D01*
X29215032Y-38302836D01*
X29172836Y-38345032D01*
X29150000Y-38400163D01*
X28916610Y-38400163D01*
X28583338Y-38066891D01*
X28583337Y-38066891D01*
X28574667Y-38080691D01*
X28574662Y-38080701D01*
X28515122Y-38250858D01*
X28515121Y-38250861D01*
X28494938Y-38429997D01*
X26864073Y-38429997D01*
X26895789Y-38379522D01*
X26955368Y-38209255D01*
X26958264Y-38183553D01*
X26975565Y-38030003D01*
X26975565Y-38029996D01*
X26958665Y-37879999D01*
X29103553Y-37879999D01*
X29300000Y-38076446D01*
X29496446Y-37880001D01*
X29496446Y-37880000D01*
X29496445Y-37879999D01*
X30303553Y-37879999D01*
X30500000Y-38076446D01*
X30696446Y-37880001D01*
X30696446Y-37880000D01*
X30500000Y-37683553D01*
X30303553Y-37879999D01*
X29496445Y-37879999D01*
X29300000Y-37683553D01*
X29103553Y-37879999D01*
X26958665Y-37879999D01*
X26955369Y-37850750D01*
X26955368Y-37850745D01*
X26900208Y-37693107D01*
X26895789Y-37680478D01*
X26895051Y-37679304D01*
X26856582Y-37618080D01*
X26799816Y-37527738D01*
X26672262Y-37400184D01*
X26649528Y-37385899D01*
X26560561Y-37329997D01*
X28494938Y-37329997D01*
X28494938Y-37330002D01*
X28515121Y-37509138D01*
X28574665Y-37679304D01*
X28583338Y-37693107D01*
X28946446Y-37330000D01*
X28946446Y-37329999D01*
X28916610Y-37300163D01*
X29150000Y-37300163D01*
X29150000Y-37359837D01*
X29172836Y-37414968D01*
X29215032Y-37457164D01*
X29270163Y-37480000D01*
X29329837Y-37480000D01*
X29384968Y-37457164D01*
X29427164Y-37414968D01*
X29450000Y-37359837D01*
X29450000Y-37300163D01*
X29427164Y-37245032D01*
X29384968Y-37202836D01*
X29329837Y-37180000D01*
X29270163Y-37180000D01*
X29215032Y-37202836D01*
X29172836Y-37245032D01*
X29150000Y-37300163D01*
X28916610Y-37300163D01*
X28583338Y-36966891D01*
X28583337Y-36966891D01*
X28574667Y-36980691D01*
X28574662Y-36980701D01*
X28515122Y-37150858D01*
X28515121Y-37150861D01*
X28494938Y-37329997D01*
X26560561Y-37329997D01*
X26519523Y-37304211D01*
X26349254Y-37244631D01*
X26349249Y-37244630D01*
X26170004Y-37224435D01*
X26169996Y-37224435D01*
X25990750Y-37244630D01*
X25990745Y-37244631D01*
X25820476Y-37304211D01*
X25690472Y-37385899D01*
X25623235Y-37404899D01*
X25556400Y-37384531D01*
X25511186Y-37331263D01*
X25500500Y-37280905D01*
X25500500Y-36680000D01*
X29003553Y-36680000D01*
X29300000Y-36976447D01*
X29900000Y-37576446D01*
X30176283Y-37300163D01*
X30350000Y-37300163D01*
X30350000Y-37359837D01*
X30372836Y-37414968D01*
X30415032Y-37457164D01*
X30470163Y-37480000D01*
X30529837Y-37480000D01*
X30584968Y-37457164D01*
X30627164Y-37414968D01*
X30650000Y-37359837D01*
X30650000Y-37330000D01*
X30853553Y-37330000D01*
X31216660Y-37693106D01*
X31216661Y-37693106D01*
X31225334Y-37679306D01*
X31225334Y-37679305D01*
X31284877Y-37509141D01*
X31284878Y-37509138D01*
X31305062Y-37330002D01*
X31305062Y-37329997D01*
X31284878Y-37150861D01*
X31225333Y-36980692D01*
X31216661Y-36966892D01*
X31216660Y-36966892D01*
X30853553Y-37330000D01*
X30650000Y-37330000D01*
X30650000Y-37300163D01*
X30627164Y-37245032D01*
X30584968Y-37202836D01*
X30529837Y-37180000D01*
X30470163Y-37180000D01*
X30415032Y-37202836D01*
X30372836Y-37245032D01*
X30350000Y-37300163D01*
X30176283Y-37300163D01*
X30500000Y-36976447D01*
X30796446Y-36680000D01*
X30234127Y-36117681D01*
X30200642Y-36056358D01*
X30204661Y-36000163D01*
X30350000Y-36000163D01*
X30350000Y-36059837D01*
X30372836Y-36114968D01*
X30415032Y-36157164D01*
X30470163Y-36180000D01*
X30529837Y-36180000D01*
X30584968Y-36157164D01*
X30627164Y-36114968D01*
X30650000Y-36059837D01*
X30650000Y-36030000D01*
X30853553Y-36030000D01*
X31216660Y-36393106D01*
X31216661Y-36393106D01*
X31225334Y-36379306D01*
X31225334Y-36379305D01*
X31284877Y-36209141D01*
X31284878Y-36209138D01*
X31305062Y-36030002D01*
X31305062Y-36029997D01*
X31284878Y-35850861D01*
X31254832Y-35764996D01*
X33109435Y-35764996D01*
X33109435Y-35765003D01*
X33129630Y-35944249D01*
X33129631Y-35944254D01*
X33189211Y-36114523D01*
X33248662Y-36209138D01*
X33285184Y-36267262D01*
X33412738Y-36394816D01*
X33565478Y-36490789D01*
X33735745Y-36550368D01*
X33735750Y-36550369D01*
X33914996Y-36570565D01*
X33915000Y-36570565D01*
X33915004Y-36570565D01*
X34094249Y-36550369D01*
X34094252Y-36550368D01*
X34094255Y-36550368D01*
X34264522Y-36490789D01*
X34417262Y-36394816D01*
X34544816Y-36267262D01*
X34640789Y-36114522D01*
X34700368Y-35944255D01*
X34701974Y-35930000D01*
X34720565Y-35765003D01*
X34720565Y-35764996D01*
X34700369Y-35585750D01*
X34700368Y-35585745D01*
X34658585Y-35466337D01*
X34640789Y-35415478D01*
X34544816Y-35262738D01*
X34417262Y-35135184D01*
X34383709Y-35114101D01*
X34264523Y-35039211D01*
X34094254Y-34979631D01*
X34094249Y-34979630D01*
X33915004Y-34959435D01*
X33914996Y-34959435D01*
X33735750Y-34979630D01*
X33735745Y-34979631D01*
X33565476Y-35039211D01*
X33412737Y-35135184D01*
X33285184Y-35262737D01*
X33189211Y-35415476D01*
X33129631Y-35585745D01*
X33129630Y-35585750D01*
X33109435Y-35764996D01*
X31254832Y-35764996D01*
X31225333Y-35680692D01*
X31216661Y-35666892D01*
X31216660Y-35666892D01*
X30853553Y-36030000D01*
X30650000Y-36030000D01*
X30650000Y-36000163D01*
X30627164Y-35945032D01*
X30584968Y-35902836D01*
X30529837Y-35880000D01*
X30470163Y-35880000D01*
X30415032Y-35902836D01*
X30372836Y-35945032D01*
X30350000Y-36000163D01*
X30204661Y-36000163D01*
X30205626Y-35986666D01*
X30234127Y-35942319D01*
X30500000Y-35676447D01*
X30746446Y-35430000D01*
X30746446Y-35429999D01*
X30116610Y-34800163D01*
X30350000Y-34800163D01*
X30350000Y-34859837D01*
X30372836Y-34914968D01*
X30415032Y-34957164D01*
X30470163Y-34980000D01*
X30529837Y-34980000D01*
X30584968Y-34957164D01*
X30627164Y-34914968D01*
X30650000Y-34859837D01*
X30650000Y-34830000D01*
X30853553Y-34830000D01*
X31216660Y-35193106D01*
X31216661Y-35193106D01*
X31225334Y-35179306D01*
X31225334Y-35179305D01*
X31284877Y-35009141D01*
X31284878Y-35009138D01*
X31305062Y-34830002D01*
X31305062Y-34829997D01*
X31284878Y-34650861D01*
X31225333Y-34480692D01*
X31216661Y-34466892D01*
X31216660Y-34466892D01*
X30853553Y-34830000D01*
X30650000Y-34830000D01*
X30650000Y-34800163D01*
X30627164Y-34745032D01*
X30584968Y-34702836D01*
X30529837Y-34680000D01*
X30470163Y-34680000D01*
X30415032Y-34702836D01*
X30372836Y-34745032D01*
X30350000Y-34800163D01*
X30116610Y-34800163D01*
X29900000Y-34583553D01*
X29053553Y-35430000D01*
X29565872Y-35942319D01*
X29599357Y-36003642D01*
X29594373Y-36073334D01*
X29565872Y-36117681D01*
X29003553Y-36680000D01*
X25500500Y-36680000D01*
X25500500Y-36029997D01*
X28494938Y-36029997D01*
X28494938Y-36030002D01*
X28515121Y-36209138D01*
X28574665Y-36379304D01*
X28583338Y-36393107D01*
X28946446Y-36030000D01*
X28946446Y-36029999D01*
X28916610Y-36000163D01*
X29150000Y-36000163D01*
X29150000Y-36059837D01*
X29172836Y-36114968D01*
X29215032Y-36157164D01*
X29270163Y-36180000D01*
X29329837Y-36180000D01*
X29384968Y-36157164D01*
X29427164Y-36114968D01*
X29450000Y-36059837D01*
X29450000Y-36000163D01*
X29427164Y-35945032D01*
X29384968Y-35902836D01*
X29329837Y-35880000D01*
X29270163Y-35880000D01*
X29215032Y-35902836D01*
X29172836Y-35945032D01*
X29150000Y-36000163D01*
X28916610Y-36000163D01*
X28583338Y-35666891D01*
X28583337Y-35666891D01*
X28574667Y-35680691D01*
X28574662Y-35680701D01*
X28515122Y-35850858D01*
X28515121Y-35850861D01*
X28494938Y-36029997D01*
X25500500Y-36029997D01*
X25500500Y-35219094D01*
X25520185Y-35152055D01*
X25572989Y-35106300D01*
X25642147Y-35096356D01*
X25690471Y-35114100D01*
X25724026Y-35135184D01*
X25820475Y-35195788D01*
X25990745Y-35255368D01*
X25990750Y-35255369D01*
X26169996Y-35275565D01*
X26170000Y-35275565D01*
X26170004Y-35275565D01*
X26349249Y-35255369D01*
X26349252Y-35255368D01*
X26349255Y-35255368D01*
X26519522Y-35195789D01*
X26672262Y-35099816D01*
X26799816Y-34972262D01*
X26889207Y-34829997D01*
X28494938Y-34829997D01*
X28494938Y-34830002D01*
X28515121Y-35009138D01*
X28574665Y-35179304D01*
X28583338Y-35193107D01*
X28946446Y-34830000D01*
X28946446Y-34829999D01*
X28916610Y-34800163D01*
X29150000Y-34800163D01*
X29150000Y-34859837D01*
X29172836Y-34914968D01*
X29215032Y-34957164D01*
X29270163Y-34980000D01*
X29329837Y-34980000D01*
X29384968Y-34957164D01*
X29427164Y-34914968D01*
X29450000Y-34859837D01*
X29450000Y-34800163D01*
X29427164Y-34745032D01*
X29384968Y-34702836D01*
X29329837Y-34680000D01*
X29270163Y-34680000D01*
X29215032Y-34702836D01*
X29172836Y-34745032D01*
X29150000Y-34800163D01*
X28916610Y-34800163D01*
X28583338Y-34466891D01*
X28583337Y-34466891D01*
X28574667Y-34480691D01*
X28574662Y-34480701D01*
X28515122Y-34650858D01*
X28515121Y-34650861D01*
X28494938Y-34829997D01*
X26889207Y-34829997D01*
X26895789Y-34819522D01*
X26955368Y-34649255D01*
X26955369Y-34649249D01*
X26975565Y-34470003D01*
X26975565Y-34469996D01*
X26955369Y-34290750D01*
X26955368Y-34290745D01*
X26949826Y-34274908D01*
X26895789Y-34120478D01*
X26891302Y-34113337D01*
X28936891Y-34113337D01*
X28936891Y-34113338D01*
X29300000Y-34476446D01*
X29300001Y-34476446D01*
X29663107Y-34113338D01*
X29663105Y-34113337D01*
X30136891Y-34113337D01*
X30136891Y-34113338D01*
X30500000Y-34476446D01*
X30500001Y-34476446D01*
X30863107Y-34113338D01*
X30849304Y-34104665D01*
X30679138Y-34045121D01*
X30500003Y-34024938D01*
X30499997Y-34024938D01*
X30320861Y-34045121D01*
X30320858Y-34045122D01*
X30150701Y-34104662D01*
X30150691Y-34104667D01*
X30136891Y-34113337D01*
X29663105Y-34113337D01*
X29649304Y-34104665D01*
X29479138Y-34045121D01*
X29300003Y-34024938D01*
X29299997Y-34024938D01*
X29120861Y-34045121D01*
X29120858Y-34045122D01*
X28950701Y-34104662D01*
X28950691Y-34104667D01*
X28936891Y-34113337D01*
X26891302Y-34113337D01*
X26888736Y-34109254D01*
X26846074Y-34041357D01*
X26799816Y-33967738D01*
X26672262Y-33840184D01*
X26649528Y-33825899D01*
X26519523Y-33744211D01*
X26349254Y-33684631D01*
X26349249Y-33684630D01*
X26170004Y-33664435D01*
X26169996Y-33664435D01*
X25990750Y-33684630D01*
X25990745Y-33684631D01*
X25820476Y-33744211D01*
X25690472Y-33825899D01*
X25623235Y-33844899D01*
X25556400Y-33824531D01*
X25511186Y-33771263D01*
X25500500Y-33720905D01*
X25500500Y-25624500D01*
X25520185Y-25557461D01*
X25572989Y-25511706D01*
X25624500Y-25500500D01*
X27800999Y-25500500D01*
X27868038Y-25520185D01*
G37*
%TD.AperFunction*%
%TD*%
M02*
