%TF.GenerationSoftware,KiCad,Pcbnew,8.0.2-1*%
%TF.CreationDate,2024-06-01T01:17:10-04:00*%
%TF.ProjectId,ez-servo,657a2d73-6572-4766-9f2e-6b696361645f,v0.0.0*%
%TF.SameCoordinates,Original*%
%TF.FileFunction,Profile,NP*%
%FSLAX46Y46*%
G04 Gerber Fmt 4.6, Leading zero omitted, Abs format (unit mm)*
G04 Created by KiCad (PCBNEW 8.0.2-1) date 2024-06-01 01:17:10*
%MOMM*%
%LPD*%
G01*
G04 APERTURE LIST*
%TA.AperFunction,Profile*%
%ADD10C,0.050000*%
%TD*%
%ADD11C,0.150000*%
G04 APERTURE END LIST*
D10*
X20000000Y0D02*
X20000000Y-15000000D01*
X18500000Y-15000000D02*
X20000000Y-15000000D01*
X0Y-15000000D02*
X0Y0D01*
X0Y0D02*
X20000000Y0D01*
D11*
X31120588Y-8750155D02*
X30549160Y-8750155D01*
X30834874Y-8750155D02*
X30834874Y-7750155D01*
X30834874Y-7750155D02*
X30739636Y-7893012D01*
X30739636Y-7893012D02*
X30644398Y-7988250D01*
X30644398Y-7988250D02*
X30549160Y-8035869D01*
X31549160Y-8654916D02*
X31596779Y-8702536D01*
X31596779Y-8702536D02*
X31549160Y-8750155D01*
X31549160Y-8750155D02*
X31501541Y-8702536D01*
X31501541Y-8702536D02*
X31549160Y-8654916D01*
X31549160Y-8654916D02*
X31549160Y-8750155D01*
X32501540Y-7750155D02*
X32025350Y-7750155D01*
X32025350Y-7750155D02*
X31977731Y-8226345D01*
X31977731Y-8226345D02*
X32025350Y-8178726D01*
X32025350Y-8178726D02*
X32120588Y-8131107D01*
X32120588Y-8131107D02*
X32358683Y-8131107D01*
X32358683Y-8131107D02*
X32453921Y-8178726D01*
X32453921Y-8178726D02*
X32501540Y-8226345D01*
X32501540Y-8226345D02*
X32549159Y-8321583D01*
X32549159Y-8321583D02*
X32549159Y-8559678D01*
X32549159Y-8559678D02*
X32501540Y-8654916D01*
X32501540Y-8654916D02*
X32453921Y-8702536D01*
X32453921Y-8702536D02*
X32358683Y-8750155D01*
X32358683Y-8750155D02*
X32120588Y-8750155D01*
X32120588Y-8750155D02*
X32025350Y-8702536D01*
X32025350Y-8702536D02*
X31977731Y-8654916D01*
X32977731Y-8750155D02*
X32977731Y-8083488D01*
X32977731Y-8178726D02*
X33025350Y-8131107D01*
X33025350Y-8131107D02*
X33120588Y-8083488D01*
X33120588Y-8083488D02*
X33263445Y-8083488D01*
X33263445Y-8083488D02*
X33358683Y-8131107D01*
X33358683Y-8131107D02*
X33406302Y-8226345D01*
X33406302Y-8226345D02*
X33406302Y-8750155D01*
X33406302Y-8226345D02*
X33453921Y-8131107D01*
X33453921Y-8131107D02*
X33549159Y-8083488D01*
X33549159Y-8083488D02*
X33692016Y-8083488D01*
X33692016Y-8083488D02*
X33787255Y-8131107D01*
X33787255Y-8131107D02*
X33834874Y-8226345D01*
X33834874Y-8226345D02*
X33834874Y-8750155D01*
X34311064Y-8750155D02*
X34311064Y-8083488D01*
X34311064Y-8178726D02*
X34358683Y-8131107D01*
X34358683Y-8131107D02*
X34453921Y-8083488D01*
X34453921Y-8083488D02*
X34596778Y-8083488D01*
X34596778Y-8083488D02*
X34692016Y-8131107D01*
X34692016Y-8131107D02*
X34739635Y-8226345D01*
X34739635Y-8226345D02*
X34739635Y-8750155D01*
X34739635Y-8226345D02*
X34787254Y-8131107D01*
X34787254Y-8131107D02*
X34882492Y-8083488D01*
X34882492Y-8083488D02*
X35025349Y-8083488D01*
X35025349Y-8083488D02*
X35120588Y-8131107D01*
X35120588Y-8131107D02*
X35168207Y-8226345D01*
X35168207Y-8226345D02*
X35168207Y-8750155D01*
X36406302Y-8083488D02*
X36406302Y-9083488D01*
X36406302Y-8131107D02*
X36501540Y-8083488D01*
X36501540Y-8083488D02*
X36692016Y-8083488D01*
X36692016Y-8083488D02*
X36787254Y-8131107D01*
X36787254Y-8131107D02*
X36834873Y-8178726D01*
X36834873Y-8178726D02*
X36882492Y-8273964D01*
X36882492Y-8273964D02*
X36882492Y-8559678D01*
X36882492Y-8559678D02*
X36834873Y-8654916D01*
X36834873Y-8654916D02*
X36787254Y-8702536D01*
X36787254Y-8702536D02*
X36692016Y-8750155D01*
X36692016Y-8750155D02*
X36501540Y-8750155D01*
X36501540Y-8750155D02*
X36406302Y-8702536D01*
X37311064Y-8750155D02*
X37311064Y-8083488D01*
X37311064Y-7750155D02*
X37263445Y-7797774D01*
X37263445Y-7797774D02*
X37311064Y-7845393D01*
X37311064Y-7845393D02*
X37358683Y-7797774D01*
X37358683Y-7797774D02*
X37311064Y-7750155D01*
X37311064Y-7750155D02*
X37311064Y-7845393D01*
X37787254Y-8083488D02*
X37787254Y-8750155D01*
X37787254Y-8178726D02*
X37834873Y-8131107D01*
X37834873Y-8131107D02*
X37930111Y-8083488D01*
X37930111Y-8083488D02*
X38072968Y-8083488D01*
X38072968Y-8083488D02*
X38168206Y-8131107D01*
X38168206Y-8131107D02*
X38215825Y-8226345D01*
X38215825Y-8226345D02*
X38215825Y-8750155D01*
X38644397Y-8702536D02*
X38739635Y-8750155D01*
X38739635Y-8750155D02*
X38930111Y-8750155D01*
X38930111Y-8750155D02*
X39025349Y-8702536D01*
X39025349Y-8702536D02*
X39072968Y-8607297D01*
X39072968Y-8607297D02*
X39072968Y-8559678D01*
X39072968Y-8559678D02*
X39025349Y-8464440D01*
X39025349Y-8464440D02*
X38930111Y-8416821D01*
X38930111Y-8416821D02*
X38787254Y-8416821D01*
X38787254Y-8416821D02*
X38692016Y-8369202D01*
X38692016Y-8369202D02*
X38644397Y-8273964D01*
X38644397Y-8273964D02*
X38644397Y-8226345D01*
X38644397Y-8226345D02*
X38692016Y-8131107D01*
X38692016Y-8131107D02*
X38787254Y-8083488D01*
X38787254Y-8083488D02*
X38930111Y-8083488D01*
X38930111Y-8083488D02*
X39025349Y-8131107D01*
X30787255Y-9360099D02*
X30882493Y-9360099D01*
X30882493Y-9360099D02*
X30977731Y-9407718D01*
X30977731Y-9407718D02*
X31025350Y-9455337D01*
X31025350Y-9455337D02*
X31072969Y-9550575D01*
X31072969Y-9550575D02*
X31120588Y-9741051D01*
X31120588Y-9741051D02*
X31120588Y-9979146D01*
X31120588Y-9979146D02*
X31072969Y-10169622D01*
X31072969Y-10169622D02*
X31025350Y-10264860D01*
X31025350Y-10264860D02*
X30977731Y-10312480D01*
X30977731Y-10312480D02*
X30882493Y-10360099D01*
X30882493Y-10360099D02*
X30787255Y-10360099D01*
X30787255Y-10360099D02*
X30692017Y-10312480D01*
X30692017Y-10312480D02*
X30644398Y-10264860D01*
X30644398Y-10264860D02*
X30596779Y-10169622D01*
X30596779Y-10169622D02*
X30549160Y-9979146D01*
X30549160Y-9979146D02*
X30549160Y-9741051D01*
X30549160Y-9741051D02*
X30596779Y-9550575D01*
X30596779Y-9550575D02*
X30644398Y-9455337D01*
X30644398Y-9455337D02*
X30692017Y-9407718D01*
X30692017Y-9407718D02*
X30787255Y-9360099D01*
X31549160Y-10264860D02*
X31596779Y-10312480D01*
X31596779Y-10312480D02*
X31549160Y-10360099D01*
X31549160Y-10360099D02*
X31501541Y-10312480D01*
X31501541Y-10312480D02*
X31549160Y-10264860D01*
X31549160Y-10264860D02*
X31549160Y-10360099D01*
X32501540Y-9360099D02*
X32025350Y-9360099D01*
X32025350Y-9360099D02*
X31977731Y-9836289D01*
X31977731Y-9836289D02*
X32025350Y-9788670D01*
X32025350Y-9788670D02*
X32120588Y-9741051D01*
X32120588Y-9741051D02*
X32358683Y-9741051D01*
X32358683Y-9741051D02*
X32453921Y-9788670D01*
X32453921Y-9788670D02*
X32501540Y-9836289D01*
X32501540Y-9836289D02*
X32549159Y-9931527D01*
X32549159Y-9931527D02*
X32549159Y-10169622D01*
X32549159Y-10169622D02*
X32501540Y-10264860D01*
X32501540Y-10264860D02*
X32453921Y-10312480D01*
X32453921Y-10312480D02*
X32358683Y-10360099D01*
X32358683Y-10360099D02*
X32120588Y-10360099D01*
X32120588Y-10360099D02*
X32025350Y-10312480D01*
X32025350Y-10312480D02*
X31977731Y-10264860D01*
X32977731Y-10360099D02*
X32977731Y-9693432D01*
X32977731Y-9788670D02*
X33025350Y-9741051D01*
X33025350Y-9741051D02*
X33120588Y-9693432D01*
X33120588Y-9693432D02*
X33263445Y-9693432D01*
X33263445Y-9693432D02*
X33358683Y-9741051D01*
X33358683Y-9741051D02*
X33406302Y-9836289D01*
X33406302Y-9836289D02*
X33406302Y-10360099D01*
X33406302Y-9836289D02*
X33453921Y-9741051D01*
X33453921Y-9741051D02*
X33549159Y-9693432D01*
X33549159Y-9693432D02*
X33692016Y-9693432D01*
X33692016Y-9693432D02*
X33787255Y-9741051D01*
X33787255Y-9741051D02*
X33834874Y-9836289D01*
X33834874Y-9836289D02*
X33834874Y-10360099D01*
X34311064Y-10360099D02*
X34311064Y-9693432D01*
X34311064Y-9788670D02*
X34358683Y-9741051D01*
X34358683Y-9741051D02*
X34453921Y-9693432D01*
X34453921Y-9693432D02*
X34596778Y-9693432D01*
X34596778Y-9693432D02*
X34692016Y-9741051D01*
X34692016Y-9741051D02*
X34739635Y-9836289D01*
X34739635Y-9836289D02*
X34739635Y-10360099D01*
X34739635Y-9836289D02*
X34787254Y-9741051D01*
X34787254Y-9741051D02*
X34882492Y-9693432D01*
X34882492Y-9693432D02*
X35025349Y-9693432D01*
X35025349Y-9693432D02*
X35120588Y-9741051D01*
X35120588Y-9741051D02*
X35168207Y-9836289D01*
X35168207Y-9836289D02*
X35168207Y-10360099D01*
X36358683Y-10312480D02*
X36453921Y-10360099D01*
X36453921Y-10360099D02*
X36644397Y-10360099D01*
X36644397Y-10360099D02*
X36739635Y-10312480D01*
X36739635Y-10312480D02*
X36787254Y-10217241D01*
X36787254Y-10217241D02*
X36787254Y-10169622D01*
X36787254Y-10169622D02*
X36739635Y-10074384D01*
X36739635Y-10074384D02*
X36644397Y-10026765D01*
X36644397Y-10026765D02*
X36501540Y-10026765D01*
X36501540Y-10026765D02*
X36406302Y-9979146D01*
X36406302Y-9979146D02*
X36358683Y-9883908D01*
X36358683Y-9883908D02*
X36358683Y-9836289D01*
X36358683Y-9836289D02*
X36406302Y-9741051D01*
X36406302Y-9741051D02*
X36501540Y-9693432D01*
X36501540Y-9693432D02*
X36644397Y-9693432D01*
X36644397Y-9693432D02*
X36739635Y-9741051D01*
X37215826Y-9693432D02*
X37215826Y-10693432D01*
X37215826Y-9741051D02*
X37311064Y-9693432D01*
X37311064Y-9693432D02*
X37501540Y-9693432D01*
X37501540Y-9693432D02*
X37596778Y-9741051D01*
X37596778Y-9741051D02*
X37644397Y-9788670D01*
X37644397Y-9788670D02*
X37692016Y-9883908D01*
X37692016Y-9883908D02*
X37692016Y-10169622D01*
X37692016Y-10169622D02*
X37644397Y-10264860D01*
X37644397Y-10264860D02*
X37596778Y-10312480D01*
X37596778Y-10312480D02*
X37501540Y-10360099D01*
X37501540Y-10360099D02*
X37311064Y-10360099D01*
X37311064Y-10360099D02*
X37215826Y-10312480D01*
X38549159Y-10360099D02*
X38549159Y-9836289D01*
X38549159Y-9836289D02*
X38501540Y-9741051D01*
X38501540Y-9741051D02*
X38406302Y-9693432D01*
X38406302Y-9693432D02*
X38215826Y-9693432D01*
X38215826Y-9693432D02*
X38120588Y-9741051D01*
X38549159Y-10312480D02*
X38453921Y-10360099D01*
X38453921Y-10360099D02*
X38215826Y-10360099D01*
X38215826Y-10360099D02*
X38120588Y-10312480D01*
X38120588Y-10312480D02*
X38072969Y-10217241D01*
X38072969Y-10217241D02*
X38072969Y-10122003D01*
X38072969Y-10122003D02*
X38120588Y-10026765D01*
X38120588Y-10026765D02*
X38215826Y-9979146D01*
X38215826Y-9979146D02*
X38453921Y-9979146D01*
X38453921Y-9979146D02*
X38549159Y-9931527D01*
X39453921Y-10312480D02*
X39358683Y-10360099D01*
X39358683Y-10360099D02*
X39168207Y-10360099D01*
X39168207Y-10360099D02*
X39072969Y-10312480D01*
X39072969Y-10312480D02*
X39025350Y-10264860D01*
X39025350Y-10264860D02*
X38977731Y-10169622D01*
X38977731Y-10169622D02*
X38977731Y-9883908D01*
X38977731Y-9883908D02*
X39025350Y-9788670D01*
X39025350Y-9788670D02*
X39072969Y-9741051D01*
X39072969Y-9741051D02*
X39168207Y-9693432D01*
X39168207Y-9693432D02*
X39358683Y-9693432D01*
X39358683Y-9693432D02*
X39453921Y-9741051D01*
X39882493Y-10360099D02*
X39882493Y-9693432D01*
X39882493Y-9360099D02*
X39834874Y-9407718D01*
X39834874Y-9407718D02*
X39882493Y-9455337D01*
X39882493Y-9455337D02*
X39930112Y-9407718D01*
X39930112Y-9407718D02*
X39882493Y-9360099D01*
X39882493Y-9360099D02*
X39882493Y-9455337D01*
X40358683Y-9693432D02*
X40358683Y-10360099D01*
X40358683Y-9788670D02*
X40406302Y-9741051D01*
X40406302Y-9741051D02*
X40501540Y-9693432D01*
X40501540Y-9693432D02*
X40644397Y-9693432D01*
X40644397Y-9693432D02*
X40739635Y-9741051D01*
X40739635Y-9741051D02*
X40787254Y-9836289D01*
X40787254Y-9836289D02*
X40787254Y-10360099D01*
X41692016Y-9693432D02*
X41692016Y-10502956D01*
X41692016Y-10502956D02*
X41644397Y-10598194D01*
X41644397Y-10598194D02*
X41596778Y-10645813D01*
X41596778Y-10645813D02*
X41501540Y-10693432D01*
X41501540Y-10693432D02*
X41358683Y-10693432D01*
X41358683Y-10693432D02*
X41263445Y-10645813D01*
X41692016Y-10312480D02*
X41596778Y-10360099D01*
X41596778Y-10360099D02*
X41406302Y-10360099D01*
X41406302Y-10360099D02*
X41311064Y-10312480D01*
X41311064Y-10312480D02*
X41263445Y-10264860D01*
X41263445Y-10264860D02*
X41215826Y-10169622D01*
X41215826Y-10169622D02*
X41215826Y-9883908D01*
X41215826Y-9883908D02*
X41263445Y-9788670D01*
X41263445Y-9788670D02*
X41311064Y-9741051D01*
X41311064Y-9741051D02*
X41406302Y-9693432D01*
X41406302Y-9693432D02*
X41596778Y-9693432D01*
X41596778Y-9693432D02*
X41692016Y-9741051D01*
X30739636Y-11398614D02*
X30644398Y-11350995D01*
X30644398Y-11350995D02*
X30596779Y-11303376D01*
X30596779Y-11303376D02*
X30549160Y-11208138D01*
X30549160Y-11208138D02*
X30549160Y-11160519D01*
X30549160Y-11160519D02*
X30596779Y-11065281D01*
X30596779Y-11065281D02*
X30644398Y-11017662D01*
X30644398Y-11017662D02*
X30739636Y-10970043D01*
X30739636Y-10970043D02*
X30930112Y-10970043D01*
X30930112Y-10970043D02*
X31025350Y-11017662D01*
X31025350Y-11017662D02*
X31072969Y-11065281D01*
X31072969Y-11065281D02*
X31120588Y-11160519D01*
X31120588Y-11160519D02*
X31120588Y-11208138D01*
X31120588Y-11208138D02*
X31072969Y-11303376D01*
X31072969Y-11303376D02*
X31025350Y-11350995D01*
X31025350Y-11350995D02*
X30930112Y-11398614D01*
X30930112Y-11398614D02*
X30739636Y-11398614D01*
X30739636Y-11398614D02*
X30644398Y-11446233D01*
X30644398Y-11446233D02*
X30596779Y-11493852D01*
X30596779Y-11493852D02*
X30549160Y-11589090D01*
X30549160Y-11589090D02*
X30549160Y-11779566D01*
X30549160Y-11779566D02*
X30596779Y-11874804D01*
X30596779Y-11874804D02*
X30644398Y-11922424D01*
X30644398Y-11922424D02*
X30739636Y-11970043D01*
X30739636Y-11970043D02*
X30930112Y-11970043D01*
X30930112Y-11970043D02*
X31025350Y-11922424D01*
X31025350Y-11922424D02*
X31072969Y-11874804D01*
X31072969Y-11874804D02*
X31120588Y-11779566D01*
X31120588Y-11779566D02*
X31120588Y-11589090D01*
X31120588Y-11589090D02*
X31072969Y-11493852D01*
X31072969Y-11493852D02*
X31025350Y-11446233D01*
X31025350Y-11446233D02*
X30930112Y-11398614D01*
X31453922Y-11970043D02*
X31977731Y-11303376D01*
X31453922Y-11303376D02*
X31977731Y-11970043D01*
X33501541Y-11922424D02*
X33406303Y-11970043D01*
X33406303Y-11970043D02*
X33215827Y-11970043D01*
X33215827Y-11970043D02*
X33120589Y-11922424D01*
X33120589Y-11922424D02*
X33072970Y-11827185D01*
X33072970Y-11827185D02*
X33072970Y-11446233D01*
X33072970Y-11446233D02*
X33120589Y-11350995D01*
X33120589Y-11350995D02*
X33215827Y-11303376D01*
X33215827Y-11303376D02*
X33406303Y-11303376D01*
X33406303Y-11303376D02*
X33501541Y-11350995D01*
X33501541Y-11350995D02*
X33549160Y-11446233D01*
X33549160Y-11446233D02*
X33549160Y-11541471D01*
X33549160Y-11541471D02*
X33072970Y-11636709D01*
X34406303Y-11970043D02*
X34406303Y-11446233D01*
X34406303Y-11446233D02*
X34358684Y-11350995D01*
X34358684Y-11350995D02*
X34263446Y-11303376D01*
X34263446Y-11303376D02*
X34072970Y-11303376D01*
X34072970Y-11303376D02*
X33977732Y-11350995D01*
X34406303Y-11922424D02*
X34311065Y-11970043D01*
X34311065Y-11970043D02*
X34072970Y-11970043D01*
X34072970Y-11970043D02*
X33977732Y-11922424D01*
X33977732Y-11922424D02*
X33930113Y-11827185D01*
X33930113Y-11827185D02*
X33930113Y-11731947D01*
X33930113Y-11731947D02*
X33977732Y-11636709D01*
X33977732Y-11636709D02*
X34072970Y-11589090D01*
X34072970Y-11589090D02*
X34311065Y-11589090D01*
X34311065Y-11589090D02*
X34406303Y-11541471D01*
X35311065Y-11922424D02*
X35215827Y-11970043D01*
X35215827Y-11970043D02*
X35025351Y-11970043D01*
X35025351Y-11970043D02*
X34930113Y-11922424D01*
X34930113Y-11922424D02*
X34882494Y-11874804D01*
X34882494Y-11874804D02*
X34834875Y-11779566D01*
X34834875Y-11779566D02*
X34834875Y-11493852D01*
X34834875Y-11493852D02*
X34882494Y-11398614D01*
X34882494Y-11398614D02*
X34930113Y-11350995D01*
X34930113Y-11350995D02*
X35025351Y-11303376D01*
X35025351Y-11303376D02*
X35215827Y-11303376D01*
X35215827Y-11303376D02*
X35311065Y-11350995D01*
X35739637Y-11970043D02*
X35739637Y-10970043D01*
X36168208Y-11970043D02*
X36168208Y-11446233D01*
X36168208Y-11446233D02*
X36120589Y-11350995D01*
X36120589Y-11350995D02*
X36025351Y-11303376D01*
X36025351Y-11303376D02*
X35882494Y-11303376D01*
X35882494Y-11303376D02*
X35787256Y-11350995D01*
X35787256Y-11350995D02*
X35739637Y-11398614D01*
X37358685Y-11922424D02*
X37453923Y-11970043D01*
X37453923Y-11970043D02*
X37644399Y-11970043D01*
X37644399Y-11970043D02*
X37739637Y-11922424D01*
X37739637Y-11922424D02*
X37787256Y-11827185D01*
X37787256Y-11827185D02*
X37787256Y-11779566D01*
X37787256Y-11779566D02*
X37739637Y-11684328D01*
X37739637Y-11684328D02*
X37644399Y-11636709D01*
X37644399Y-11636709D02*
X37501542Y-11636709D01*
X37501542Y-11636709D02*
X37406304Y-11589090D01*
X37406304Y-11589090D02*
X37358685Y-11493852D01*
X37358685Y-11493852D02*
X37358685Y-11446233D01*
X37358685Y-11446233D02*
X37406304Y-11350995D01*
X37406304Y-11350995D02*
X37501542Y-11303376D01*
X37501542Y-11303376D02*
X37644399Y-11303376D01*
X37644399Y-11303376D02*
X37739637Y-11350995D01*
X38215828Y-11970043D02*
X38215828Y-11303376D01*
X38215828Y-10970043D02*
X38168209Y-11017662D01*
X38168209Y-11017662D02*
X38215828Y-11065281D01*
X38215828Y-11065281D02*
X38263447Y-11017662D01*
X38263447Y-11017662D02*
X38215828Y-10970043D01*
X38215828Y-10970043D02*
X38215828Y-11065281D01*
X39120589Y-11970043D02*
X39120589Y-10970043D01*
X39120589Y-11922424D02*
X39025351Y-11970043D01*
X39025351Y-11970043D02*
X38834875Y-11970043D01*
X38834875Y-11970043D02*
X38739637Y-11922424D01*
X38739637Y-11922424D02*
X38692018Y-11874804D01*
X38692018Y-11874804D02*
X38644399Y-11779566D01*
X38644399Y-11779566D02*
X38644399Y-11493852D01*
X38644399Y-11493852D02*
X38692018Y-11398614D01*
X38692018Y-11398614D02*
X38739637Y-11350995D01*
X38739637Y-11350995D02*
X38834875Y-11303376D01*
X38834875Y-11303376D02*
X39025351Y-11303376D01*
X39025351Y-11303376D02*
X39120589Y-11350995D01*
X39977732Y-11922424D02*
X39882494Y-11970043D01*
X39882494Y-11970043D02*
X39692018Y-11970043D01*
X39692018Y-11970043D02*
X39596780Y-11922424D01*
X39596780Y-11922424D02*
X39549161Y-11827185D01*
X39549161Y-11827185D02*
X39549161Y-11446233D01*
X39549161Y-11446233D02*
X39596780Y-11350995D01*
X39596780Y-11350995D02*
X39692018Y-11303376D01*
X39692018Y-11303376D02*
X39882494Y-11303376D01*
X39882494Y-11303376D02*
X39977732Y-11350995D01*
X39977732Y-11350995D02*
X40025351Y-11446233D01*
X40025351Y-11446233D02*
X40025351Y-11541471D01*
X40025351Y-11541471D02*
X39549161Y-11636709D01*
X31025350Y-12913320D02*
X31025350Y-13579987D01*
X30787255Y-12532368D02*
X30549160Y-13246653D01*
X30549160Y-13246653D02*
X31168207Y-13246653D01*
X31549160Y-13579987D02*
X31549160Y-12913320D01*
X31549160Y-13008558D02*
X31596779Y-12960939D01*
X31596779Y-12960939D02*
X31692017Y-12913320D01*
X31692017Y-12913320D02*
X31834874Y-12913320D01*
X31834874Y-12913320D02*
X31930112Y-12960939D01*
X31930112Y-12960939D02*
X31977731Y-13056177D01*
X31977731Y-13056177D02*
X31977731Y-13579987D01*
X31977731Y-13056177D02*
X32025350Y-12960939D01*
X32025350Y-12960939D02*
X32120588Y-12913320D01*
X32120588Y-12913320D02*
X32263445Y-12913320D01*
X32263445Y-12913320D02*
X32358684Y-12960939D01*
X32358684Y-12960939D02*
X32406303Y-13056177D01*
X32406303Y-13056177D02*
X32406303Y-13579987D01*
X32882493Y-13579987D02*
X32882493Y-12913320D01*
X32882493Y-13008558D02*
X32930112Y-12960939D01*
X32930112Y-12960939D02*
X33025350Y-12913320D01*
X33025350Y-12913320D02*
X33168207Y-12913320D01*
X33168207Y-12913320D02*
X33263445Y-12960939D01*
X33263445Y-12960939D02*
X33311064Y-13056177D01*
X33311064Y-13056177D02*
X33311064Y-13579987D01*
X33311064Y-13056177D02*
X33358683Y-12960939D01*
X33358683Y-12960939D02*
X33453921Y-12913320D01*
X33453921Y-12913320D02*
X33596778Y-12913320D01*
X33596778Y-12913320D02*
X33692017Y-12960939D01*
X33692017Y-12960939D02*
X33739636Y-13056177D01*
X33739636Y-13056177D02*
X33739636Y-13579987D01*
X34834874Y-12913320D02*
X35215826Y-12913320D01*
X34977731Y-12579987D02*
X34977731Y-13437129D01*
X34977731Y-13437129D02*
X35025350Y-13532368D01*
X35025350Y-13532368D02*
X35120588Y-13579987D01*
X35120588Y-13579987D02*
X35215826Y-13579987D01*
X35977731Y-13579987D02*
X35977731Y-13056177D01*
X35977731Y-13056177D02*
X35930112Y-12960939D01*
X35930112Y-12960939D02*
X35834874Y-12913320D01*
X35834874Y-12913320D02*
X35644398Y-12913320D01*
X35644398Y-12913320D02*
X35549160Y-12960939D01*
X35977731Y-13532368D02*
X35882493Y-13579987D01*
X35882493Y-13579987D02*
X35644398Y-13579987D01*
X35644398Y-13579987D02*
X35549160Y-13532368D01*
X35549160Y-13532368D02*
X35501541Y-13437129D01*
X35501541Y-13437129D02*
X35501541Y-13341891D01*
X35501541Y-13341891D02*
X35549160Y-13246653D01*
X35549160Y-13246653D02*
X35644398Y-13199034D01*
X35644398Y-13199034D02*
X35882493Y-13199034D01*
X35882493Y-13199034D02*
X35977731Y-13151415D01*
X36596779Y-13579987D02*
X36501541Y-13532368D01*
X36501541Y-13532368D02*
X36453922Y-13437129D01*
X36453922Y-13437129D02*
X36453922Y-12579987D01*
X37120589Y-13579987D02*
X37025351Y-13532368D01*
X37025351Y-13532368D02*
X36977732Y-13437129D01*
X36977732Y-13437129D02*
X36977732Y-12579987D01*
X31120588Y-15189931D02*
X30549160Y-15189931D01*
X30834874Y-15189931D02*
X30834874Y-14189931D01*
X30834874Y-14189931D02*
X30739636Y-14332788D01*
X30739636Y-14332788D02*
X30644398Y-14428026D01*
X30644398Y-14428026D02*
X30549160Y-14475645D01*
X31549160Y-15189931D02*
X31549160Y-14523264D01*
X31549160Y-14618502D02*
X31596779Y-14570883D01*
X31596779Y-14570883D02*
X31692017Y-14523264D01*
X31692017Y-14523264D02*
X31834874Y-14523264D01*
X31834874Y-14523264D02*
X31930112Y-14570883D01*
X31930112Y-14570883D02*
X31977731Y-14666121D01*
X31977731Y-14666121D02*
X31977731Y-15189931D01*
X31977731Y-14666121D02*
X32025350Y-14570883D01*
X32025350Y-14570883D02*
X32120588Y-14523264D01*
X32120588Y-14523264D02*
X32263445Y-14523264D01*
X32263445Y-14523264D02*
X32358684Y-14570883D01*
X32358684Y-14570883D02*
X32406303Y-14666121D01*
X32406303Y-14666121D02*
X32406303Y-15189931D01*
X32882493Y-15189931D02*
X32882493Y-14523264D01*
X32882493Y-14618502D02*
X32930112Y-14570883D01*
X32930112Y-14570883D02*
X33025350Y-14523264D01*
X33025350Y-14523264D02*
X33168207Y-14523264D01*
X33168207Y-14523264D02*
X33263445Y-14570883D01*
X33263445Y-14570883D02*
X33311064Y-14666121D01*
X33311064Y-14666121D02*
X33311064Y-15189931D01*
X33311064Y-14666121D02*
X33358683Y-14570883D01*
X33358683Y-14570883D02*
X33453921Y-14523264D01*
X33453921Y-14523264D02*
X33596778Y-14523264D01*
X33596778Y-14523264D02*
X33692017Y-14570883D01*
X33692017Y-14570883D02*
X33739636Y-14666121D01*
X33739636Y-14666121D02*
X33739636Y-15189931D01*
X34834874Y-14523264D02*
X35215826Y-14523264D01*
X34977731Y-15189931D02*
X34977731Y-14332788D01*
X34977731Y-14332788D02*
X35025350Y-14237550D01*
X35025350Y-14237550D02*
X35120588Y-14189931D01*
X35120588Y-14189931D02*
X35215826Y-14189931D01*
X35549160Y-15189931D02*
X35549160Y-14523264D01*
X35549160Y-14713740D02*
X35596779Y-14618502D01*
X35596779Y-14618502D02*
X35644398Y-14570883D01*
X35644398Y-14570883D02*
X35739636Y-14523264D01*
X35739636Y-14523264D02*
X35834874Y-14523264D01*
X36311065Y-15189931D02*
X36215827Y-15142312D01*
X36215827Y-15142312D02*
X36168208Y-15094692D01*
X36168208Y-15094692D02*
X36120589Y-14999454D01*
X36120589Y-14999454D02*
X36120589Y-14713740D01*
X36120589Y-14713740D02*
X36168208Y-14618502D01*
X36168208Y-14618502D02*
X36215827Y-14570883D01*
X36215827Y-14570883D02*
X36311065Y-14523264D01*
X36311065Y-14523264D02*
X36453922Y-14523264D01*
X36453922Y-14523264D02*
X36549160Y-14570883D01*
X36549160Y-14570883D02*
X36596779Y-14618502D01*
X36596779Y-14618502D02*
X36644398Y-14713740D01*
X36644398Y-14713740D02*
X36644398Y-14999454D01*
X36644398Y-14999454D02*
X36596779Y-15094692D01*
X36596779Y-15094692D02*
X36549160Y-15142312D01*
X36549160Y-15142312D02*
X36453922Y-15189931D01*
X36453922Y-15189931D02*
X36311065Y-15189931D01*
X37072970Y-15189931D02*
X37072970Y-14523264D01*
X37072970Y-14618502D02*
X37120589Y-14570883D01*
X37120589Y-14570883D02*
X37215827Y-14523264D01*
X37215827Y-14523264D02*
X37358684Y-14523264D01*
X37358684Y-14523264D02*
X37453922Y-14570883D01*
X37453922Y-14570883D02*
X37501541Y-14666121D01*
X37501541Y-14666121D02*
X37501541Y-15189931D01*
X37501541Y-14666121D02*
X37549160Y-14570883D01*
X37549160Y-14570883D02*
X37644398Y-14523264D01*
X37644398Y-14523264D02*
X37787255Y-14523264D01*
X37787255Y-14523264D02*
X37882494Y-14570883D01*
X37882494Y-14570883D02*
X37930113Y-14666121D01*
X37930113Y-14666121D02*
X37930113Y-15189931D01*
X39168208Y-15189931D02*
X39168208Y-14189931D01*
X39168208Y-14570883D02*
X39263446Y-14523264D01*
X39263446Y-14523264D02*
X39453922Y-14523264D01*
X39453922Y-14523264D02*
X39549160Y-14570883D01*
X39549160Y-14570883D02*
X39596779Y-14618502D01*
X39596779Y-14618502D02*
X39644398Y-14713740D01*
X39644398Y-14713740D02*
X39644398Y-14999454D01*
X39644398Y-14999454D02*
X39596779Y-15094692D01*
X39596779Y-15094692D02*
X39549160Y-15142312D01*
X39549160Y-15142312D02*
X39453922Y-15189931D01*
X39453922Y-15189931D02*
X39263446Y-15189931D01*
X39263446Y-15189931D02*
X39168208Y-15142312D01*
X40215827Y-15189931D02*
X40120589Y-15142312D01*
X40120589Y-15142312D02*
X40072970Y-15094692D01*
X40072970Y-15094692D02*
X40025351Y-14999454D01*
X40025351Y-14999454D02*
X40025351Y-14713740D01*
X40025351Y-14713740D02*
X40072970Y-14618502D01*
X40072970Y-14618502D02*
X40120589Y-14570883D01*
X40120589Y-14570883D02*
X40215827Y-14523264D01*
X40215827Y-14523264D02*
X40358684Y-14523264D01*
X40358684Y-14523264D02*
X40453922Y-14570883D01*
X40453922Y-14570883D02*
X40501541Y-14618502D01*
X40501541Y-14618502D02*
X40549160Y-14713740D01*
X40549160Y-14713740D02*
X40549160Y-14999454D01*
X40549160Y-14999454D02*
X40501541Y-15094692D01*
X40501541Y-15094692D02*
X40453922Y-15142312D01*
X40453922Y-15142312D02*
X40358684Y-15189931D01*
X40358684Y-15189931D02*
X40215827Y-15189931D01*
X40834875Y-14523264D02*
X41215827Y-14523264D01*
X40977732Y-14189931D02*
X40977732Y-15047073D01*
X40977732Y-15047073D02*
X41025351Y-15142312D01*
X41025351Y-15142312D02*
X41120589Y-15189931D01*
X41120589Y-15189931D02*
X41215827Y-15189931D01*
X41406304Y-14523264D02*
X41787256Y-14523264D01*
X41549161Y-14189931D02*
X41549161Y-15047073D01*
X41549161Y-15047073D02*
X41596780Y-15142312D01*
X41596780Y-15142312D02*
X41692018Y-15189931D01*
X41692018Y-15189931D02*
X41787256Y-15189931D01*
X42263447Y-15189931D02*
X42168209Y-15142312D01*
X42168209Y-15142312D02*
X42120590Y-15094692D01*
X42120590Y-15094692D02*
X42072971Y-14999454D01*
X42072971Y-14999454D02*
X42072971Y-14713740D01*
X42072971Y-14713740D02*
X42120590Y-14618502D01*
X42120590Y-14618502D02*
X42168209Y-14570883D01*
X42168209Y-14570883D02*
X42263447Y-14523264D01*
X42263447Y-14523264D02*
X42406304Y-14523264D01*
X42406304Y-14523264D02*
X42501542Y-14570883D01*
X42501542Y-14570883D02*
X42549161Y-14618502D01*
X42549161Y-14618502D02*
X42596780Y-14713740D01*
X42596780Y-14713740D02*
X42596780Y-14999454D01*
X42596780Y-14999454D02*
X42549161Y-15094692D01*
X42549161Y-15094692D02*
X42501542Y-15142312D01*
X42501542Y-15142312D02*
X42406304Y-15189931D01*
X42406304Y-15189931D02*
X42263447Y-15189931D01*
X43025352Y-15189931D02*
X43025352Y-14523264D01*
X43025352Y-14618502D02*
X43072971Y-14570883D01*
X43072971Y-14570883D02*
X43168209Y-14523264D01*
X43168209Y-14523264D02*
X43311066Y-14523264D01*
X43311066Y-14523264D02*
X43406304Y-14570883D01*
X43406304Y-14570883D02*
X43453923Y-14666121D01*
X43453923Y-14666121D02*
X43453923Y-15189931D01*
X43453923Y-14666121D02*
X43501542Y-14570883D01*
X43501542Y-14570883D02*
X43596780Y-14523264D01*
X43596780Y-14523264D02*
X43739637Y-14523264D01*
X43739637Y-14523264D02*
X43834876Y-14570883D01*
X43834876Y-14570883D02*
X43882495Y-14666121D01*
X43882495Y-14666121D02*
X43882495Y-15189931D01*
X31120588Y-16799875D02*
X30549160Y-16799875D01*
X30834874Y-16799875D02*
X30834874Y-15799875D01*
X30834874Y-15799875D02*
X30739636Y-15942732D01*
X30739636Y-15942732D02*
X30644398Y-16037970D01*
X30644398Y-16037970D02*
X30549160Y-16085589D01*
X31549160Y-16799875D02*
X31549160Y-16133208D01*
X31549160Y-16228446D02*
X31596779Y-16180827D01*
X31596779Y-16180827D02*
X31692017Y-16133208D01*
X31692017Y-16133208D02*
X31834874Y-16133208D01*
X31834874Y-16133208D02*
X31930112Y-16180827D01*
X31930112Y-16180827D02*
X31977731Y-16276065D01*
X31977731Y-16276065D02*
X31977731Y-16799875D01*
X31977731Y-16276065D02*
X32025350Y-16180827D01*
X32025350Y-16180827D02*
X32120588Y-16133208D01*
X32120588Y-16133208D02*
X32263445Y-16133208D01*
X32263445Y-16133208D02*
X32358684Y-16180827D01*
X32358684Y-16180827D02*
X32406303Y-16276065D01*
X32406303Y-16276065D02*
X32406303Y-16799875D01*
X32882493Y-16799875D02*
X32882493Y-16133208D01*
X32882493Y-16228446D02*
X32930112Y-16180827D01*
X32930112Y-16180827D02*
X33025350Y-16133208D01*
X33025350Y-16133208D02*
X33168207Y-16133208D01*
X33168207Y-16133208D02*
X33263445Y-16180827D01*
X33263445Y-16180827D02*
X33311064Y-16276065D01*
X33311064Y-16276065D02*
X33311064Y-16799875D01*
X33311064Y-16276065D02*
X33358683Y-16180827D01*
X33358683Y-16180827D02*
X33453921Y-16133208D01*
X33453921Y-16133208D02*
X33596778Y-16133208D01*
X33596778Y-16133208D02*
X33692017Y-16180827D01*
X33692017Y-16180827D02*
X33739636Y-16276065D01*
X33739636Y-16276065D02*
X33739636Y-16799875D01*
X34834874Y-16133208D02*
X35215826Y-16133208D01*
X34977731Y-16799875D02*
X34977731Y-15942732D01*
X34977731Y-15942732D02*
X35025350Y-15847494D01*
X35025350Y-15847494D02*
X35120588Y-15799875D01*
X35120588Y-15799875D02*
X35215826Y-15799875D01*
X35549160Y-16799875D02*
X35549160Y-16133208D01*
X35549160Y-16323684D02*
X35596779Y-16228446D01*
X35596779Y-16228446D02*
X35644398Y-16180827D01*
X35644398Y-16180827D02*
X35739636Y-16133208D01*
X35739636Y-16133208D02*
X35834874Y-16133208D01*
X36311065Y-16799875D02*
X36215827Y-16752256D01*
X36215827Y-16752256D02*
X36168208Y-16704636D01*
X36168208Y-16704636D02*
X36120589Y-16609398D01*
X36120589Y-16609398D02*
X36120589Y-16323684D01*
X36120589Y-16323684D02*
X36168208Y-16228446D01*
X36168208Y-16228446D02*
X36215827Y-16180827D01*
X36215827Y-16180827D02*
X36311065Y-16133208D01*
X36311065Y-16133208D02*
X36453922Y-16133208D01*
X36453922Y-16133208D02*
X36549160Y-16180827D01*
X36549160Y-16180827D02*
X36596779Y-16228446D01*
X36596779Y-16228446D02*
X36644398Y-16323684D01*
X36644398Y-16323684D02*
X36644398Y-16609398D01*
X36644398Y-16609398D02*
X36596779Y-16704636D01*
X36596779Y-16704636D02*
X36549160Y-16752256D01*
X36549160Y-16752256D02*
X36453922Y-16799875D01*
X36453922Y-16799875D02*
X36311065Y-16799875D01*
X37072970Y-16799875D02*
X37072970Y-16133208D01*
X37072970Y-16228446D02*
X37120589Y-16180827D01*
X37120589Y-16180827D02*
X37215827Y-16133208D01*
X37215827Y-16133208D02*
X37358684Y-16133208D01*
X37358684Y-16133208D02*
X37453922Y-16180827D01*
X37453922Y-16180827D02*
X37501541Y-16276065D01*
X37501541Y-16276065D02*
X37501541Y-16799875D01*
X37501541Y-16276065D02*
X37549160Y-16180827D01*
X37549160Y-16180827D02*
X37644398Y-16133208D01*
X37644398Y-16133208D02*
X37787255Y-16133208D01*
X37787255Y-16133208D02*
X37882494Y-16180827D01*
X37882494Y-16180827D02*
X37930113Y-16276065D01*
X37930113Y-16276065D02*
X37930113Y-16799875D01*
X39168208Y-16799875D02*
X39168208Y-15799875D01*
X39263446Y-16418922D02*
X39549160Y-16799875D01*
X39549160Y-16133208D02*
X39168208Y-16514160D01*
X40358684Y-16752256D02*
X40263446Y-16799875D01*
X40263446Y-16799875D02*
X40072970Y-16799875D01*
X40072970Y-16799875D02*
X39977732Y-16752256D01*
X39977732Y-16752256D02*
X39930113Y-16657017D01*
X39930113Y-16657017D02*
X39930113Y-16276065D01*
X39930113Y-16276065D02*
X39977732Y-16180827D01*
X39977732Y-16180827D02*
X40072970Y-16133208D01*
X40072970Y-16133208D02*
X40263446Y-16133208D01*
X40263446Y-16133208D02*
X40358684Y-16180827D01*
X40358684Y-16180827D02*
X40406303Y-16276065D01*
X40406303Y-16276065D02*
X40406303Y-16371303D01*
X40406303Y-16371303D02*
X39930113Y-16466541D01*
X40739637Y-16133208D02*
X40977732Y-16799875D01*
X41215827Y-16133208D02*
X40977732Y-16799875D01*
X40977732Y-16799875D02*
X40882494Y-17037970D01*
X40882494Y-17037970D02*
X40834875Y-17085589D01*
X40834875Y-17085589D02*
X40739637Y-17133208D01*
X41977732Y-16752256D02*
X41882494Y-16799875D01*
X41882494Y-16799875D02*
X41692018Y-16799875D01*
X41692018Y-16799875D02*
X41596780Y-16752256D01*
X41596780Y-16752256D02*
X41549161Y-16657017D01*
X41549161Y-16657017D02*
X41549161Y-16276065D01*
X41549161Y-16276065D02*
X41596780Y-16180827D01*
X41596780Y-16180827D02*
X41692018Y-16133208D01*
X41692018Y-16133208D02*
X41882494Y-16133208D01*
X41882494Y-16133208D02*
X41977732Y-16180827D01*
X41977732Y-16180827D02*
X42025351Y-16276065D01*
X42025351Y-16276065D02*
X42025351Y-16371303D01*
X42025351Y-16371303D02*
X41549161Y-16466541D01*
X42882494Y-16799875D02*
X42882494Y-15799875D01*
X42882494Y-16752256D02*
X42787256Y-16799875D01*
X42787256Y-16799875D02*
X42596780Y-16799875D01*
X42596780Y-16799875D02*
X42501542Y-16752256D01*
X42501542Y-16752256D02*
X42453923Y-16704636D01*
X42453923Y-16704636D02*
X42406304Y-16609398D01*
X42406304Y-16609398D02*
X42406304Y-16323684D01*
X42406304Y-16323684D02*
X42453923Y-16228446D01*
X42453923Y-16228446D02*
X42501542Y-16180827D01*
X42501542Y-16180827D02*
X42596780Y-16133208D01*
X42596780Y-16133208D02*
X42787256Y-16133208D01*
X42787256Y-16133208D02*
X42882494Y-16180827D01*
X44501542Y-16752256D02*
X44406304Y-16799875D01*
X44406304Y-16799875D02*
X44215828Y-16799875D01*
X44215828Y-16799875D02*
X44120590Y-16752256D01*
X44120590Y-16752256D02*
X44072971Y-16657017D01*
X44072971Y-16657017D02*
X44072971Y-16276065D01*
X44072971Y-16276065D02*
X44120590Y-16180827D01*
X44120590Y-16180827D02*
X44215828Y-16133208D01*
X44215828Y-16133208D02*
X44406304Y-16133208D01*
X44406304Y-16133208D02*
X44501542Y-16180827D01*
X44501542Y-16180827D02*
X44549161Y-16276065D01*
X44549161Y-16276065D02*
X44549161Y-16371303D01*
X44549161Y-16371303D02*
X44072971Y-16466541D01*
X45406304Y-16799875D02*
X45406304Y-15799875D01*
X45406304Y-16752256D02*
X45311066Y-16799875D01*
X45311066Y-16799875D02*
X45120590Y-16799875D01*
X45120590Y-16799875D02*
X45025352Y-16752256D01*
X45025352Y-16752256D02*
X44977733Y-16704636D01*
X44977733Y-16704636D02*
X44930114Y-16609398D01*
X44930114Y-16609398D02*
X44930114Y-16323684D01*
X44930114Y-16323684D02*
X44977733Y-16228446D01*
X44977733Y-16228446D02*
X45025352Y-16180827D01*
X45025352Y-16180827D02*
X45120590Y-16133208D01*
X45120590Y-16133208D02*
X45311066Y-16133208D01*
X45311066Y-16133208D02*
X45406304Y-16180827D01*
X46311066Y-16133208D02*
X46311066Y-16942732D01*
X46311066Y-16942732D02*
X46263447Y-17037970D01*
X46263447Y-17037970D02*
X46215828Y-17085589D01*
X46215828Y-17085589D02*
X46120590Y-17133208D01*
X46120590Y-17133208D02*
X45977733Y-17133208D01*
X45977733Y-17133208D02*
X45882495Y-17085589D01*
X46311066Y-16752256D02*
X46215828Y-16799875D01*
X46215828Y-16799875D02*
X46025352Y-16799875D01*
X46025352Y-16799875D02*
X45930114Y-16752256D01*
X45930114Y-16752256D02*
X45882495Y-16704636D01*
X45882495Y-16704636D02*
X45834876Y-16609398D01*
X45834876Y-16609398D02*
X45834876Y-16323684D01*
X45834876Y-16323684D02*
X45882495Y-16228446D01*
X45882495Y-16228446D02*
X45930114Y-16180827D01*
X45930114Y-16180827D02*
X46025352Y-16133208D01*
X46025352Y-16133208D02*
X46215828Y-16133208D01*
X46215828Y-16133208D02*
X46311066Y-16180827D01*
X47168209Y-16752256D02*
X47072971Y-16799875D01*
X47072971Y-16799875D02*
X46882495Y-16799875D01*
X46882495Y-16799875D02*
X46787257Y-16752256D01*
X46787257Y-16752256D02*
X46739638Y-16657017D01*
X46739638Y-16657017D02*
X46739638Y-16276065D01*
X46739638Y-16276065D02*
X46787257Y-16180827D01*
X46787257Y-16180827D02*
X46882495Y-16133208D01*
X46882495Y-16133208D02*
X47072971Y-16133208D01*
X47072971Y-16133208D02*
X47168209Y-16180827D01*
X47168209Y-16180827D02*
X47215828Y-16276065D01*
X47215828Y-16276065D02*
X47215828Y-16371303D01*
X47215828Y-16371303D02*
X46739638Y-16466541D01*
X30501541Y-17409819D02*
X31168207Y-17409819D01*
X31168207Y-17409819D02*
X30739636Y-18409819D01*
X31549160Y-18314580D02*
X31596779Y-18362200D01*
X31596779Y-18362200D02*
X31549160Y-18409819D01*
X31549160Y-18409819D02*
X31501541Y-18362200D01*
X31501541Y-18362200D02*
X31549160Y-18314580D01*
X31549160Y-18314580D02*
X31549160Y-18409819D01*
X32501540Y-17409819D02*
X32025350Y-17409819D01*
X32025350Y-17409819D02*
X31977731Y-17886009D01*
X31977731Y-17886009D02*
X32025350Y-17838390D01*
X32025350Y-17838390D02*
X32120588Y-17790771D01*
X32120588Y-17790771D02*
X32358683Y-17790771D01*
X32358683Y-17790771D02*
X32453921Y-17838390D01*
X32453921Y-17838390D02*
X32501540Y-17886009D01*
X32501540Y-17886009D02*
X32549159Y-17981247D01*
X32549159Y-17981247D02*
X32549159Y-18219342D01*
X32549159Y-18219342D02*
X32501540Y-18314580D01*
X32501540Y-18314580D02*
X32453921Y-18362200D01*
X32453921Y-18362200D02*
X32358683Y-18409819D01*
X32358683Y-18409819D02*
X32120588Y-18409819D01*
X32120588Y-18409819D02*
X32025350Y-18362200D01*
X32025350Y-18362200D02*
X31977731Y-18314580D01*
X32977731Y-18409819D02*
X32977731Y-17743152D01*
X32977731Y-17838390D02*
X33025350Y-17790771D01*
X33025350Y-17790771D02*
X33120588Y-17743152D01*
X33120588Y-17743152D02*
X33263445Y-17743152D01*
X33263445Y-17743152D02*
X33358683Y-17790771D01*
X33358683Y-17790771D02*
X33406302Y-17886009D01*
X33406302Y-17886009D02*
X33406302Y-18409819D01*
X33406302Y-17886009D02*
X33453921Y-17790771D01*
X33453921Y-17790771D02*
X33549159Y-17743152D01*
X33549159Y-17743152D02*
X33692016Y-17743152D01*
X33692016Y-17743152D02*
X33787255Y-17790771D01*
X33787255Y-17790771D02*
X33834874Y-17886009D01*
X33834874Y-17886009D02*
X33834874Y-18409819D01*
X34311064Y-18409819D02*
X34311064Y-17743152D01*
X34311064Y-17838390D02*
X34358683Y-17790771D01*
X34358683Y-17790771D02*
X34453921Y-17743152D01*
X34453921Y-17743152D02*
X34596778Y-17743152D01*
X34596778Y-17743152D02*
X34692016Y-17790771D01*
X34692016Y-17790771D02*
X34739635Y-17886009D01*
X34739635Y-17886009D02*
X34739635Y-18409819D01*
X34739635Y-17886009D02*
X34787254Y-17790771D01*
X34787254Y-17790771D02*
X34882492Y-17743152D01*
X34882492Y-17743152D02*
X35025349Y-17743152D01*
X35025349Y-17743152D02*
X35120588Y-17790771D01*
X35120588Y-17790771D02*
X35168207Y-17886009D01*
X35168207Y-17886009D02*
X35168207Y-18409819D01*
X36263445Y-17743152D02*
X36644397Y-17743152D01*
X36406302Y-17409819D02*
X36406302Y-18266961D01*
X36406302Y-18266961D02*
X36453921Y-18362200D01*
X36453921Y-18362200D02*
X36549159Y-18409819D01*
X36549159Y-18409819D02*
X36644397Y-18409819D01*
X36977731Y-18409819D02*
X36977731Y-17409819D01*
X37406302Y-18409819D02*
X37406302Y-17886009D01*
X37406302Y-17886009D02*
X37358683Y-17790771D01*
X37358683Y-17790771D02*
X37263445Y-17743152D01*
X37263445Y-17743152D02*
X37120588Y-17743152D01*
X37120588Y-17743152D02*
X37025350Y-17790771D01*
X37025350Y-17790771D02*
X36977731Y-17838390D01*
X37882493Y-18409819D02*
X37882493Y-17743152D01*
X37882493Y-17409819D02*
X37834874Y-17457438D01*
X37834874Y-17457438D02*
X37882493Y-17505057D01*
X37882493Y-17505057D02*
X37930112Y-17457438D01*
X37930112Y-17457438D02*
X37882493Y-17409819D01*
X37882493Y-17409819D02*
X37882493Y-17505057D01*
X38787254Y-18362200D02*
X38692016Y-18409819D01*
X38692016Y-18409819D02*
X38501540Y-18409819D01*
X38501540Y-18409819D02*
X38406302Y-18362200D01*
X38406302Y-18362200D02*
X38358683Y-18314580D01*
X38358683Y-18314580D02*
X38311064Y-18219342D01*
X38311064Y-18219342D02*
X38311064Y-17933628D01*
X38311064Y-17933628D02*
X38358683Y-17838390D01*
X38358683Y-17838390D02*
X38406302Y-17790771D01*
X38406302Y-17790771D02*
X38501540Y-17743152D01*
X38501540Y-17743152D02*
X38692016Y-17743152D01*
X38692016Y-17743152D02*
X38787254Y-17790771D01*
X39215826Y-18409819D02*
X39215826Y-17409819D01*
X39311064Y-18028866D02*
X39596778Y-18409819D01*
X39596778Y-17743152D02*
X39215826Y-18124104D01*
X41215826Y-18409819D02*
X41215826Y-17886009D01*
X41215826Y-17886009D02*
X41168207Y-17790771D01*
X41168207Y-17790771D02*
X41072969Y-17743152D01*
X41072969Y-17743152D02*
X40882493Y-17743152D01*
X40882493Y-17743152D02*
X40787255Y-17790771D01*
X41215826Y-18362200D02*
X41120588Y-18409819D01*
X41120588Y-18409819D02*
X40882493Y-18409819D01*
X40882493Y-18409819D02*
X40787255Y-18362200D01*
X40787255Y-18362200D02*
X40739636Y-18266961D01*
X40739636Y-18266961D02*
X40739636Y-18171723D01*
X40739636Y-18171723D02*
X40787255Y-18076485D01*
X40787255Y-18076485D02*
X40882493Y-18028866D01*
X40882493Y-18028866D02*
X41120588Y-18028866D01*
X41120588Y-18028866D02*
X41215826Y-17981247D01*
X41549160Y-17743152D02*
X41930112Y-17743152D01*
X41692017Y-17409819D02*
X41692017Y-18266961D01*
X41692017Y-18266961D02*
X41739636Y-18362200D01*
X41739636Y-18362200D02*
X41834874Y-18409819D01*
X41834874Y-18409819D02*
X41930112Y-18409819D01*
X43025351Y-18409819D02*
X43025351Y-17409819D01*
X43453922Y-18409819D02*
X43453922Y-17886009D01*
X43453922Y-17886009D02*
X43406303Y-17790771D01*
X43406303Y-17790771D02*
X43311065Y-17743152D01*
X43311065Y-17743152D02*
X43168208Y-17743152D01*
X43168208Y-17743152D02*
X43072970Y-17790771D01*
X43072970Y-17790771D02*
X43025351Y-17838390D01*
X44311065Y-18362200D02*
X44215827Y-18409819D01*
X44215827Y-18409819D02*
X44025351Y-18409819D01*
X44025351Y-18409819D02*
X43930113Y-18362200D01*
X43930113Y-18362200D02*
X43882494Y-18266961D01*
X43882494Y-18266961D02*
X43882494Y-17886009D01*
X43882494Y-17886009D02*
X43930113Y-17790771D01*
X43930113Y-17790771D02*
X44025351Y-17743152D01*
X44025351Y-17743152D02*
X44215827Y-17743152D01*
X44215827Y-17743152D02*
X44311065Y-17790771D01*
X44311065Y-17790771D02*
X44358684Y-17886009D01*
X44358684Y-17886009D02*
X44358684Y-17981247D01*
X44358684Y-17981247D02*
X43882494Y-18076485D01*
X45215827Y-18409819D02*
X45215827Y-17886009D01*
X45215827Y-17886009D02*
X45168208Y-17790771D01*
X45168208Y-17790771D02*
X45072970Y-17743152D01*
X45072970Y-17743152D02*
X44882494Y-17743152D01*
X44882494Y-17743152D02*
X44787256Y-17790771D01*
X45215827Y-18362200D02*
X45120589Y-18409819D01*
X45120589Y-18409819D02*
X44882494Y-18409819D01*
X44882494Y-18409819D02*
X44787256Y-18362200D01*
X44787256Y-18362200D02*
X44739637Y-18266961D01*
X44739637Y-18266961D02*
X44739637Y-18171723D01*
X44739637Y-18171723D02*
X44787256Y-18076485D01*
X44787256Y-18076485D02*
X44882494Y-18028866D01*
X44882494Y-18028866D02*
X45120589Y-18028866D01*
X45120589Y-18028866D02*
X45215827Y-17981247D01*
X45549161Y-17743152D02*
X45930113Y-17743152D01*
X45692018Y-17409819D02*
X45692018Y-18266961D01*
X45692018Y-18266961D02*
X45739637Y-18362200D01*
X45739637Y-18362200D02*
X45834875Y-18409819D01*
X45834875Y-18409819D02*
X45930113Y-18409819D01*
X46215828Y-18362200D02*
X46311066Y-18409819D01*
X46311066Y-18409819D02*
X46501542Y-18409819D01*
X46501542Y-18409819D02*
X46596780Y-18362200D01*
X46596780Y-18362200D02*
X46644399Y-18266961D01*
X46644399Y-18266961D02*
X46644399Y-18219342D01*
X46644399Y-18219342D02*
X46596780Y-18124104D01*
X46596780Y-18124104D02*
X46501542Y-18076485D01*
X46501542Y-18076485D02*
X46358685Y-18076485D01*
X46358685Y-18076485D02*
X46263447Y-18028866D01*
X46263447Y-18028866D02*
X46215828Y-17933628D01*
X46215828Y-17933628D02*
X46215828Y-17886009D01*
X46215828Y-17886009D02*
X46263447Y-17790771D01*
X46263447Y-17790771D02*
X46358685Y-17743152D01*
X46358685Y-17743152D02*
X46501542Y-17743152D01*
X46501542Y-17743152D02*
X46596780Y-17790771D01*
X47072971Y-18409819D02*
X47072971Y-17743152D01*
X47072971Y-17409819D02*
X47025352Y-17457438D01*
X47025352Y-17457438D02*
X47072971Y-17505057D01*
X47072971Y-17505057D02*
X47120590Y-17457438D01*
X47120590Y-17457438D02*
X47072971Y-17409819D01*
X47072971Y-17409819D02*
X47072971Y-17505057D01*
X47549161Y-17743152D02*
X47549161Y-18409819D01*
X47549161Y-17838390D02*
X47596780Y-17790771D01*
X47596780Y-17790771D02*
X47692018Y-17743152D01*
X47692018Y-17743152D02*
X47834875Y-17743152D01*
X47834875Y-17743152D02*
X47930113Y-17790771D01*
X47930113Y-17790771D02*
X47977732Y-17886009D01*
X47977732Y-17886009D02*
X47977732Y-18409819D01*
X48453923Y-18409819D02*
X48453923Y-17409819D01*
X48549161Y-18028866D02*
X48834875Y-18409819D01*
X48834875Y-17743152D02*
X48453923Y-18124104D01*
D10*
%TO.C,J1*%
X18500000Y-19500000D02*
X18500000Y-15000000D01*
X2000000Y-20000000D02*
X18000000Y-20000000D01*
X0Y-15500000D02*
X1500000Y-17000000D01*
X1500000Y-17000000D02*
X1500000Y-19500000D01*
X0Y-15000000D02*
X0Y-15500000D01*
X18500000Y-19500000D02*
G75*
G02*
X18000000Y-20000000I-500001J1D01*
G01*
X2000000Y-20000000D02*
G75*
G02*
X1500000Y-19500000I0J500000D01*
G01*
%TD*%
M02*
