%TF.GenerationSoftware,KiCad,Pcbnew,8.0.2-1*%
%TF.CreationDate,2024-05-31T21:31:19-04:00*%
%TF.ProjectId,ez-servo,657a2d73-6572-4766-9f2e-6b696361645f,v0.0.0*%
%TF.SameCoordinates,Original*%
%TF.FileFunction,Legend,Top*%
%TF.FilePolarity,Positive*%
%FSLAX46Y46*%
G04 Gerber Fmt 4.6, Leading zero omitted, Abs format (unit mm)*
G04 Created by KiCad (PCBNEW 8.0.2-1) date 2024-05-31 21:31:19*
%MOMM*%
%LPD*%
G01*
G04 APERTURE LIST*
G04 Aperture macros list*
%AMRoundRect*
0 Rectangle with rounded corners*
0 $1 Rounding radius*
0 $2 $3 $4 $5 $6 $7 $8 $9 X,Y pos of 4 corners*
0 Add a 4 corners polygon primitive as box body*
4,1,4,$2,$3,$4,$5,$6,$7,$8,$9,$2,$3,0*
0 Add four circle primitives for the rounded corners*
1,1,$1+$1,$2,$3*
1,1,$1+$1,$4,$5*
1,1,$1+$1,$6,$7*
1,1,$1+$1,$8,$9*
0 Add four rect primitives between the rounded corners*
20,1,$1+$1,$2,$3,$4,$5,0*
20,1,$1+$1,$4,$5,$6,$7,0*
20,1,$1+$1,$6,$7,$8,$9,0*
20,1,$1+$1,$8,$9,$2,$3,0*%
G04 Aperture macros list end*
%ADD10C,0.100000*%
%ADD11C,0.120000*%
%ADD12C,0.150000*%
%ADD13RoundRect,0.250000X0.262500X0.450000X-0.262500X0.450000X-0.262500X-0.450000X0.262500X-0.450000X0*%
%ADD14RoundRect,0.250000X-0.262500X-0.450000X0.262500X-0.450000X0.262500X0.450000X-0.262500X0.450000X0*%
%ADD15R,3.000000X3.500000*%
%ADD16RoundRect,0.250000X0.475000X-0.250000X0.475000X0.250000X-0.475000X0.250000X-0.475000X-0.250000X0*%
%ADD17RoundRect,0.250000X0.650000X-0.325000X0.650000X0.325000X-0.650000X0.325000X-0.650000X-0.325000X0*%
%ADD18RoundRect,0.250000X-0.250000X-0.475000X0.250000X-0.475000X0.250000X0.475000X-0.250000X0.475000X0*%
%ADD19R,1.550000X0.600000*%
%ADD20R,2.600000X3.100000*%
%ADD21R,1.700000X1.700000*%
%ADD22O,1.700000X1.700000*%
G04 APERTURE END LIST*
D10*
X33753884Y-37898609D02*
X34087217Y-37898609D01*
X34230074Y-38422419D02*
X33753884Y-38422419D01*
X33753884Y-38422419D02*
X33753884Y-37422419D01*
X33753884Y-37422419D02*
X34230074Y-37422419D01*
X34563408Y-37422419D02*
X35230074Y-37422419D01*
X35230074Y-37422419D02*
X34563408Y-38422419D01*
X34563408Y-38422419D02*
X35230074Y-38422419D01*
X35563408Y-38374800D02*
X35706265Y-38422419D01*
X35706265Y-38422419D02*
X35944360Y-38422419D01*
X35944360Y-38422419D02*
X36039598Y-38374800D01*
X36039598Y-38374800D02*
X36087217Y-38327180D01*
X36087217Y-38327180D02*
X36134836Y-38231942D01*
X36134836Y-38231942D02*
X36134836Y-38136704D01*
X36134836Y-38136704D02*
X36087217Y-38041466D01*
X36087217Y-38041466D02*
X36039598Y-37993847D01*
X36039598Y-37993847D02*
X35944360Y-37946228D01*
X35944360Y-37946228D02*
X35753884Y-37898609D01*
X35753884Y-37898609D02*
X35658646Y-37850990D01*
X35658646Y-37850990D02*
X35611027Y-37803371D01*
X35611027Y-37803371D02*
X35563408Y-37708133D01*
X35563408Y-37708133D02*
X35563408Y-37612895D01*
X35563408Y-37612895D02*
X35611027Y-37517657D01*
X35611027Y-37517657D02*
X35658646Y-37470038D01*
X35658646Y-37470038D02*
X35753884Y-37422419D01*
X35753884Y-37422419D02*
X35991979Y-37422419D01*
X35991979Y-37422419D02*
X36134836Y-37470038D01*
X36944360Y-38374800D02*
X36849122Y-38422419D01*
X36849122Y-38422419D02*
X36658646Y-38422419D01*
X36658646Y-38422419D02*
X36563408Y-38374800D01*
X36563408Y-38374800D02*
X36515789Y-38279561D01*
X36515789Y-38279561D02*
X36515789Y-37898609D01*
X36515789Y-37898609D02*
X36563408Y-37803371D01*
X36563408Y-37803371D02*
X36658646Y-37755752D01*
X36658646Y-37755752D02*
X36849122Y-37755752D01*
X36849122Y-37755752D02*
X36944360Y-37803371D01*
X36944360Y-37803371D02*
X36991979Y-37898609D01*
X36991979Y-37898609D02*
X36991979Y-37993847D01*
X36991979Y-37993847D02*
X36515789Y-38089085D01*
X37420551Y-38422419D02*
X37420551Y-37755752D01*
X37420551Y-37946228D02*
X37468170Y-37850990D01*
X37468170Y-37850990D02*
X37515789Y-37803371D01*
X37515789Y-37803371D02*
X37611027Y-37755752D01*
X37611027Y-37755752D02*
X37706265Y-37755752D01*
X37944361Y-37755752D02*
X38182456Y-38422419D01*
X38182456Y-38422419D02*
X38420551Y-37755752D01*
X38944361Y-38422419D02*
X38849123Y-38374800D01*
X38849123Y-38374800D02*
X38801504Y-38327180D01*
X38801504Y-38327180D02*
X38753885Y-38231942D01*
X38753885Y-38231942D02*
X38753885Y-37946228D01*
X38753885Y-37946228D02*
X38801504Y-37850990D01*
X38801504Y-37850990D02*
X38849123Y-37803371D01*
X38849123Y-37803371D02*
X38944361Y-37755752D01*
X38944361Y-37755752D02*
X39087218Y-37755752D01*
X39087218Y-37755752D02*
X39182456Y-37803371D01*
X39182456Y-37803371D02*
X39230075Y-37850990D01*
X39230075Y-37850990D02*
X39277694Y-37946228D01*
X39277694Y-37946228D02*
X39277694Y-38231942D01*
X39277694Y-38231942D02*
X39230075Y-38327180D01*
X39230075Y-38327180D02*
X39182456Y-38374800D01*
X39182456Y-38374800D02*
X39087218Y-38422419D01*
X39087218Y-38422419D02*
X38944361Y-38422419D01*
X40372933Y-37755752D02*
X40611028Y-38422419D01*
X40611028Y-38422419D02*
X40849123Y-37755752D01*
X41420552Y-37422419D02*
X41515790Y-37422419D01*
X41515790Y-37422419D02*
X41611028Y-37470038D01*
X41611028Y-37470038D02*
X41658647Y-37517657D01*
X41658647Y-37517657D02*
X41706266Y-37612895D01*
X41706266Y-37612895D02*
X41753885Y-37803371D01*
X41753885Y-37803371D02*
X41753885Y-38041466D01*
X41753885Y-38041466D02*
X41706266Y-38231942D01*
X41706266Y-38231942D02*
X41658647Y-38327180D01*
X41658647Y-38327180D02*
X41611028Y-38374800D01*
X41611028Y-38374800D02*
X41515790Y-38422419D01*
X41515790Y-38422419D02*
X41420552Y-38422419D01*
X41420552Y-38422419D02*
X41325314Y-38374800D01*
X41325314Y-38374800D02*
X41277695Y-38327180D01*
X41277695Y-38327180D02*
X41230076Y-38231942D01*
X41230076Y-38231942D02*
X41182457Y-38041466D01*
X41182457Y-38041466D02*
X41182457Y-37803371D01*
X41182457Y-37803371D02*
X41230076Y-37612895D01*
X41230076Y-37612895D02*
X41277695Y-37517657D01*
X41277695Y-37517657D02*
X41325314Y-37470038D01*
X41325314Y-37470038D02*
X41420552Y-37422419D01*
X42182457Y-38327180D02*
X42230076Y-38374800D01*
X42230076Y-38374800D02*
X42182457Y-38422419D01*
X42182457Y-38422419D02*
X42134838Y-38374800D01*
X42134838Y-38374800D02*
X42182457Y-38327180D01*
X42182457Y-38327180D02*
X42182457Y-38422419D01*
X42849123Y-37422419D02*
X42944361Y-37422419D01*
X42944361Y-37422419D02*
X43039599Y-37470038D01*
X43039599Y-37470038D02*
X43087218Y-37517657D01*
X43087218Y-37517657D02*
X43134837Y-37612895D01*
X43134837Y-37612895D02*
X43182456Y-37803371D01*
X43182456Y-37803371D02*
X43182456Y-38041466D01*
X43182456Y-38041466D02*
X43134837Y-38231942D01*
X43134837Y-38231942D02*
X43087218Y-38327180D01*
X43087218Y-38327180D02*
X43039599Y-38374800D01*
X43039599Y-38374800D02*
X42944361Y-38422419D01*
X42944361Y-38422419D02*
X42849123Y-38422419D01*
X42849123Y-38422419D02*
X42753885Y-38374800D01*
X42753885Y-38374800D02*
X42706266Y-38327180D01*
X42706266Y-38327180D02*
X42658647Y-38231942D01*
X42658647Y-38231942D02*
X42611028Y-38041466D01*
X42611028Y-38041466D02*
X42611028Y-37803371D01*
X42611028Y-37803371D02*
X42658647Y-37612895D01*
X42658647Y-37612895D02*
X42706266Y-37517657D01*
X42706266Y-37517657D02*
X42753885Y-37470038D01*
X42753885Y-37470038D02*
X42849123Y-37422419D01*
X43611028Y-38327180D02*
X43658647Y-38374800D01*
X43658647Y-38374800D02*
X43611028Y-38422419D01*
X43611028Y-38422419D02*
X43563409Y-38374800D01*
X43563409Y-38374800D02*
X43611028Y-38327180D01*
X43611028Y-38327180D02*
X43611028Y-38422419D01*
X44277694Y-37422419D02*
X44372932Y-37422419D01*
X44372932Y-37422419D02*
X44468170Y-37470038D01*
X44468170Y-37470038D02*
X44515789Y-37517657D01*
X44515789Y-37517657D02*
X44563408Y-37612895D01*
X44563408Y-37612895D02*
X44611027Y-37803371D01*
X44611027Y-37803371D02*
X44611027Y-38041466D01*
X44611027Y-38041466D02*
X44563408Y-38231942D01*
X44563408Y-38231942D02*
X44515789Y-38327180D01*
X44515789Y-38327180D02*
X44468170Y-38374800D01*
X44468170Y-38374800D02*
X44372932Y-38422419D01*
X44372932Y-38422419D02*
X44277694Y-38422419D01*
X44277694Y-38422419D02*
X44182456Y-38374800D01*
X44182456Y-38374800D02*
X44134837Y-38327180D01*
X44134837Y-38327180D02*
X44087218Y-38231942D01*
X44087218Y-38231942D02*
X44039599Y-38041466D01*
X44039599Y-38041466D02*
X44039599Y-37803371D01*
X44039599Y-37803371D02*
X44087218Y-37612895D01*
X44087218Y-37612895D02*
X44134837Y-37517657D01*
X44134837Y-37517657D02*
X44182456Y-37470038D01*
X44182456Y-37470038D02*
X44277694Y-37422419D01*
X26227321Y-28704908D02*
X26362008Y-28637564D01*
X26362008Y-28637564D02*
X26530367Y-28469205D01*
X26530367Y-28469205D02*
X26564039Y-28368190D01*
X26564039Y-28368190D02*
X26564039Y-28300847D01*
X26564039Y-28300847D02*
X26530367Y-28199831D01*
X26530367Y-28199831D02*
X26463024Y-28132488D01*
X26463024Y-28132488D02*
X26362008Y-28098816D01*
X26362008Y-28098816D02*
X26294665Y-28098816D01*
X26294665Y-28098816D02*
X26193649Y-28132488D01*
X26193649Y-28132488D02*
X26025291Y-28233503D01*
X26025291Y-28233503D02*
X25924275Y-28267175D01*
X25924275Y-28267175D02*
X25856932Y-28267175D01*
X25856932Y-28267175D02*
X25755917Y-28233503D01*
X25755917Y-28233503D02*
X25688573Y-28166160D01*
X25688573Y-28166160D02*
X25654901Y-28065144D01*
X25654901Y-28065144D02*
X25654901Y-27997801D01*
X25654901Y-27997801D02*
X25688573Y-27896786D01*
X25688573Y-27896786D02*
X25856932Y-27728427D01*
X25856932Y-27728427D02*
X25991619Y-27661083D01*
X26968100Y-28031472D02*
X26260993Y-27324366D01*
X27001771Y-26650931D02*
X26900756Y-26684603D01*
X26900756Y-26684603D02*
X26799741Y-26785618D01*
X26799741Y-26785618D02*
X26732397Y-26920305D01*
X26732397Y-26920305D02*
X26732397Y-27054992D01*
X26732397Y-27054992D02*
X26766069Y-27156007D01*
X26766069Y-27156007D02*
X26867084Y-27324366D01*
X26867084Y-27324366D02*
X26968099Y-27425381D01*
X26968099Y-27425381D02*
X27136458Y-27526397D01*
X27136458Y-27526397D02*
X27237473Y-27560068D01*
X27237473Y-27560068D02*
X27372160Y-27560068D01*
X27372160Y-27560068D02*
X27506847Y-27492725D01*
X27506847Y-27492725D02*
X27574191Y-27425381D01*
X27574191Y-27425381D02*
X27641535Y-27290694D01*
X27641535Y-27290694D02*
X27641535Y-27223351D01*
X27641535Y-27223351D02*
X27405832Y-26987649D01*
X27405832Y-26987649D02*
X27271145Y-27122336D01*
X25506543Y-30448816D02*
X26449352Y-30920221D01*
X26449352Y-30920221D02*
X25977947Y-29977411D01*
X26348337Y-29607022D02*
X26483024Y-29472335D01*
X26483024Y-29472335D02*
X26584039Y-29438663D01*
X26584039Y-29438663D02*
X26718726Y-29438663D01*
X26718726Y-29438663D02*
X26887085Y-29539679D01*
X26887085Y-29539679D02*
X27122787Y-29775381D01*
X27122787Y-29775381D02*
X27223802Y-29943740D01*
X27223802Y-29943740D02*
X27223802Y-30078427D01*
X27223802Y-30078427D02*
X27190130Y-30179442D01*
X27190130Y-30179442D02*
X27055443Y-30314129D01*
X27055443Y-30314129D02*
X26954428Y-30347801D01*
X26954428Y-30347801D02*
X26819741Y-30347801D01*
X26819741Y-30347801D02*
X26651382Y-30246785D01*
X26651382Y-30246785D02*
X26415680Y-30011083D01*
X26415680Y-30011083D02*
X26314665Y-29842724D01*
X26314665Y-29842724D02*
X26314665Y-29708037D01*
X26314665Y-29708037D02*
X26348337Y-29607022D01*
X27998252Y-29371320D02*
X27661535Y-29708037D01*
X27661535Y-29708037D02*
X26954428Y-29000931D01*
X25831619Y-32631083D02*
X25730604Y-32664755D01*
X25730604Y-32664755D02*
X25629588Y-32765770D01*
X25629588Y-32765770D02*
X25562245Y-32900457D01*
X25562245Y-32900457D02*
X25562245Y-33035144D01*
X25562245Y-33035144D02*
X25595917Y-33136160D01*
X25595917Y-33136160D02*
X25696932Y-33304518D01*
X25696932Y-33304518D02*
X25797947Y-33405534D01*
X25797947Y-33405534D02*
X25966306Y-33506549D01*
X25966306Y-33506549D02*
X26067321Y-33540221D01*
X26067321Y-33540221D02*
X26202008Y-33540221D01*
X26202008Y-33540221D02*
X26336695Y-33472877D01*
X26336695Y-33472877D02*
X26404039Y-33405534D01*
X26404039Y-33405534D02*
X26471382Y-33270847D01*
X26471382Y-33270847D02*
X26471382Y-33203503D01*
X26471382Y-33203503D02*
X26235680Y-32967801D01*
X26235680Y-32967801D02*
X26100993Y-33102488D01*
X26841772Y-32967801D02*
X26134665Y-32260694D01*
X26134665Y-32260694D02*
X27245833Y-32563740D01*
X27245833Y-32563740D02*
X26538726Y-31856633D01*
X27582550Y-32227022D02*
X26875443Y-31519915D01*
X26875443Y-31519915D02*
X27043802Y-31351557D01*
X27043802Y-31351557D02*
X27178489Y-31284213D01*
X27178489Y-31284213D02*
X27313176Y-31284213D01*
X27313176Y-31284213D02*
X27414191Y-31317885D01*
X27414191Y-31317885D02*
X27582550Y-31418900D01*
X27582550Y-31418900D02*
X27683565Y-31519915D01*
X27683565Y-31519915D02*
X27784581Y-31688274D01*
X27784581Y-31688274D02*
X27818252Y-31789289D01*
X27818252Y-31789289D02*
X27818252Y-31923976D01*
X27818252Y-31923976D02*
X27750909Y-32058664D01*
X27750909Y-32058664D02*
X27582550Y-32227022D01*
D11*
%TO.C,R3*%
X39927064Y-33215000D02*
X39472936Y-33215000D01*
X39927064Y-34685000D02*
X39472936Y-34685000D01*
%TO.C,R1*%
X42842936Y-33215000D02*
X43297064Y-33215000D01*
X42842936Y-34685000D02*
X43297064Y-34685000D01*
%TO.C,L1*%
X36240000Y-27150000D02*
X36240000Y-26000000D01*
X36240000Y-32260000D02*
X36240000Y-31050000D01*
X36840000Y-25340000D02*
X43160000Y-25340000D01*
X43160000Y-32860000D02*
X36840000Y-32860000D01*
X43760000Y-25950000D02*
X43760000Y-27150000D01*
X43760000Y-31050000D02*
X43760000Y-32260000D01*
X36240000Y-26000000D02*
G75*
G02*
X36840000Y-25340000I630000J30000D01*
G01*
X36840000Y-32860000D02*
G75*
G02*
X36240000Y-32260000I0J600000D01*
G01*
X43160000Y-25340000D02*
G75*
G02*
X43760000Y-25950000I-5004J-605004D01*
G01*
X43760000Y-32260000D02*
G75*
G02*
X43160000Y-32860000I-600000J0D01*
G01*
%TO.C,C1*%
X33965000Y-35861252D02*
X33965000Y-35338748D01*
X35435000Y-35861252D02*
X35435000Y-35338748D01*
%TO.C,C4*%
X33180000Y-28331252D02*
X33180000Y-26908748D01*
X35000000Y-28331252D02*
X35000000Y-26908748D01*
%TO.C,C5*%
X33268748Y-30185000D02*
X33791252Y-30185000D01*
X33268748Y-31655000D02*
X33791252Y-31655000D01*
%TO.C,C3*%
X30870000Y-28331252D02*
X30870000Y-26908748D01*
X32690000Y-28331252D02*
X32690000Y-26908748D01*
D12*
%TO.C,U1*%
X27825000Y-34055000D02*
X31975000Y-34055000D01*
X27825000Y-39205000D02*
X31975000Y-39205000D01*
D11*
X27400000Y-34130000D02*
X27160000Y-33800000D01*
X27640000Y-33800000D01*
X27400000Y-34130000D01*
G36*
X27400000Y-34130000D02*
G01*
X27160000Y-33800000D01*
X27640000Y-33800000D01*
X27400000Y-34130000D01*
G37*
%TO.C,C6*%
X33268748Y-32155000D02*
X33791252Y-32155000D01*
X33268748Y-33625000D02*
X33791252Y-33625000D01*
%TD*%
%LPC*%
D13*
%TO.C,R3*%
X40612500Y-33950000D03*
X38787500Y-33950000D03*
%TD*%
D14*
%TO.C,R1*%
X42157500Y-33950000D03*
X43982500Y-33950000D03*
%TD*%
D15*
%TO.C,L1*%
X43000000Y-29100000D03*
X37000000Y-29100000D03*
%TD*%
D16*
%TO.C,C1*%
X34700000Y-36550000D03*
X34700000Y-34650000D03*
%TD*%
D17*
%TO.C,C4*%
X34090000Y-29095000D03*
X34090000Y-26145000D03*
%TD*%
D18*
%TO.C,C5*%
X32580000Y-30920000D03*
X34480000Y-30920000D03*
%TD*%
D17*
%TO.C,C3*%
X31780000Y-29095000D03*
X31780000Y-26145000D03*
%TD*%
D19*
%TO.C,U1*%
X27200000Y-34725000D03*
X27200000Y-35995000D03*
X27200000Y-37265000D03*
X27200000Y-38535000D03*
X32600000Y-38535000D03*
X32600000Y-37265000D03*
X32600000Y-35995000D03*
X32600000Y-34725000D03*
D20*
X29900000Y-36630000D03*
%TD*%
D18*
%TO.C,C6*%
X32580000Y-32890000D03*
X34480000Y-32890000D03*
%TD*%
D21*
%TO.C,J2*%
X29150000Y-26850000D03*
D22*
X29150000Y-29390000D03*
X29150000Y-31930000D03*
%TD*%
D21*
%TO.C,J3*%
X43200000Y-35930000D03*
D22*
X40660000Y-35930000D03*
X38120000Y-35930000D03*
%TD*%
%LPD*%
M02*
