%TF.GenerationSoftware,KiCad,Pcbnew,8.0.2-1*%
%TF.CreationDate,2024-06-01T01:17:10-04:00*%
%TF.ProjectId,ez-servo,657a2d73-6572-4766-9f2e-6b696361645f,v0.0.0*%
%TF.SameCoordinates,Original*%
%TF.FileFunction,Copper,L4,Bot*%
%TF.FilePolarity,Positive*%
%FSLAX46Y46*%
G04 Gerber Fmt 4.6, Leading zero omitted, Abs format (unit mm)*
G04 Created by KiCad (PCBNEW 8.0.2-1) date 2024-06-01 01:17:10*
%MOMM*%
%LPD*%
G01*
G04 APERTURE LIST*
G04 Aperture macros list*
%AMRoundRect*
0 Rectangle with rounded corners*
0 $1 Rounding radius*
0 $2 $3 $4 $5 $6 $7 $8 $9 X,Y pos of 4 corners*
0 Add a 4 corners polygon primitive as box body*
4,1,4,$2,$3,$4,$5,$6,$7,$8,$9,$2,$3,0*
0 Add four circle primitives for the rounded corners*
1,1,$1+$1,$2,$3*
1,1,$1+$1,$4,$5*
1,1,$1+$1,$6,$7*
1,1,$1+$1,$8,$9*
0 Add four rect primitives between the rounded corners*
20,1,$1+$1,$2,$3,$4,$5,0*
20,1,$1+$1,$4,$5,$6,$7,0*
20,1,$1+$1,$6,$7,$8,$9,0*
20,1,$1+$1,$8,$9,$2,$3,0*%
G04 Aperture macros list end*
%TA.AperFunction,ConnectorPad*%
%ADD10R,1.500000X4.000000*%
%TD*%
%TA.AperFunction,ComponentPad*%
%ADD11C,0.600000*%
%TD*%
%TA.AperFunction,SMDPad,CuDef*%
%ADD12R,2.950000X4.500000*%
%TD*%
%TA.AperFunction,SMDPad,CuDef*%
%ADD13RoundRect,0.250000X-0.250000X-0.475000X0.250000X-0.475000X0.250000X0.475000X-0.250000X0.475000X0*%
%TD*%
%TA.AperFunction,SMDPad,CuDef*%
%ADD14RoundRect,0.250000X-0.450000X0.350000X-0.450000X-0.350000X0.450000X-0.350000X0.450000X0.350000X0*%
%TD*%
%TA.AperFunction,SMDPad,CuDef*%
%ADD15RoundRect,0.250000X0.650000X-1.000000X0.650000X1.000000X-0.650000X1.000000X-0.650000X-1.000000X0*%
%TD*%
%TA.AperFunction,ComponentPad*%
%ADD16R,1.700000X1.700000*%
%TD*%
%TA.AperFunction,ComponentPad*%
%ADD17O,1.700000X1.700000*%
%TD*%
%TA.AperFunction,ViaPad*%
%ADD18C,0.600000*%
%TD*%
%TA.AperFunction,Conductor*%
%ADD19C,1.000000*%
%TD*%
%TA.AperFunction,Conductor*%
%ADD20C,0.200000*%
%TD*%
G04 APERTURE END LIST*
D10*
%TO.P,J1,1,Pin_1*%
%TO.N,unconnected-(J1-Pin_1-Pad1)*%
X17250000Y-17000000D03*
%TO.P,J1,2,Pin_2*%
%TO.N,SERVO_PWM*%
X15250000Y-17000000D03*
%TO.P,J1,3,Pin_3*%
%TO.N,unconnected-(J1-Pin_3-Pad3)*%
X13250000Y-17000000D03*
%TO.P,J1,4,Pin_4*%
%TO.N,unconnected-(J1-Pin_4-Pad4)*%
X11250000Y-17000000D03*
%TO.P,J1,5,Pin_5*%
%TO.N,unconnected-(J1-Pin_5-Pad5)*%
X9250000Y-17000000D03*
%TO.P,J1,6,Pin_6*%
%TO.N,unconnected-(J1-Pin_6-Pad6)*%
X7250000Y-17000000D03*
%TO.P,J1,7,Pin_7*%
%TO.N,unconnected-(J1-Pin_7-Pad7)*%
X5250000Y-17000000D03*
%TO.P,J1,8,Pin_8*%
%TO.N,unconnected-(J1-Pin_8-Pad8)*%
X3250000Y-17000000D03*
%TD*%
D11*
%TO.P,U1,9,GNDPAD*%
%TO.N,GND*%
X4300000Y-9830000D03*
X4300000Y-11030000D03*
X4300000Y-12330000D03*
X4300000Y-13430000D03*
D12*
X4900000Y-11630000D03*
D11*
X5500000Y-9830000D03*
X5500000Y-11030000D03*
X5500000Y-12330000D03*
X5500000Y-13430000D03*
%TD*%
D13*
%TO.P,C2,1*%
%TO.N,Net-(U1-BOOT)*%
X8700000Y-8240000D03*
%TO.P,C2,2*%
%TO.N,Net-(C2-Pad2)*%
X10600000Y-8240000D03*
%TD*%
D14*
%TO.P,R2,1*%
%TO.N,SENSE*%
X10400000Y-10070000D03*
%TO.P,R2,2*%
%TO.N,GND*%
X10400000Y-12070000D03*
%TD*%
D15*
%TO.P,D1,1,K*%
%TO.N,VOUT*%
X9410000Y-5760000D03*
%TO.P,D1,2,A*%
%TO.N,GND*%
X9410000Y-1760000D03*
%TD*%
D16*
%TO.P,J2,1,Pin_1*%
%TO.N,SERVO_PWM*%
X4150000Y-1850000D03*
D17*
%TO.P,J2,2,Pin_2*%
%TO.N,VOUT*%
X4150000Y-4390000D03*
%TO.P,J2,3,Pin_3*%
%TO.N,GND*%
X4150000Y-6930000D03*
%TD*%
D16*
%TO.P,J3,1,Pin_1*%
%TO.N,8_4V*%
X18200000Y-10930000D03*
D17*
%TO.P,J3,2,Pin_2*%
%TO.N,SENSE*%
X15660000Y-10930000D03*
%TO.P,J3,3,Pin_3*%
%TO.N,6V*%
X13120000Y-10930000D03*
%TD*%
D18*
%TO.N,VOUT*%
X11270000Y-13890000D03*
X10750000Y-14500000D03*
X10360000Y-4780000D03*
X16159265Y-8950735D03*
X11750000Y-14500000D03*
%TO.N,GND*%
X1900000Y-15600000D03*
X11600000Y-7640000D03*
X1283883Y-15016117D03*
X13280000Y-14250000D03*
X15250000Y-14250000D03*
X8070000Y-1700000D03*
%TO.N,SERVO_PWM*%
X9280000Y-14499998D03*
%TO.N,SENSE*%
X14290000Y-9930000D03*
X1170000Y-13030000D03*
%TO.N,Net-(C2-Pad2)*%
X14190001Y-8122829D03*
X18910000Y-6080000D03*
X16050000Y-7930823D03*
%TO.N,Net-(U1-BOOT)*%
X1170000Y-9470000D03*
%TO.N,+24V*%
X9319216Y-10825929D03*
X17300000Y-14250000D03*
%TD*%
D19*
%TO.N,VOUT*%
X6965000Y-4390000D02*
X8335000Y-5760000D01*
X4150000Y-4390000D02*
X6965000Y-4390000D01*
X8335000Y-5760000D02*
X9410000Y-5760000D01*
D20*
%TO.N,SERVO_PWM*%
X15490000Y-13290000D02*
X15850000Y-13650000D01*
X16940000Y-10580000D02*
X16940000Y-12560000D01*
X6260000Y-1850000D02*
X8590000Y-4180000D01*
X11430000Y-4180000D02*
X15370000Y-8120000D01*
X4150000Y-1850000D02*
X6260000Y-1850000D01*
X10489998Y-13290000D02*
X15490000Y-13290000D01*
X15370000Y-9010000D02*
X16940000Y-10580000D01*
X15850000Y-13650000D02*
X15850000Y-16400000D01*
X9280000Y-14499998D02*
X10489998Y-13290000D01*
X8590000Y-4180000D02*
X11430000Y-4180000D01*
X16940000Y-12560000D02*
X15850000Y-13650000D01*
X15850000Y-16400000D02*
X15250000Y-17000000D01*
X15370000Y-8120000D02*
X15370000Y-9010000D01*
%TO.N,SENSE*%
X2925686Y-8610000D02*
X7550000Y-8610000D01*
X10551154Y-9987500D02*
X10400000Y-9987500D01*
X10761483Y-9777171D02*
X10551154Y-9987500D01*
X7550000Y-8610000D02*
X8907500Y-9967500D01*
X14290000Y-9930000D02*
X14137171Y-9777171D01*
X14137171Y-9777171D02*
X10761483Y-9777171D01*
X8907500Y-9967500D02*
X10400000Y-9967500D01*
X1170000Y-13030000D02*
X1170000Y-10365686D01*
X1170000Y-10365686D02*
X2925686Y-8610000D01*
%TO.N,Net-(C2-Pad2)*%
X18840000Y-7520000D02*
X18840000Y-6150000D01*
X18840000Y-6150000D02*
X18910000Y-6080000D01*
X10600000Y-8230000D02*
X10620000Y-8210000D01*
X16080279Y-7900544D02*
X18459456Y-7900544D01*
X18459456Y-7900544D02*
X18840000Y-7520000D01*
X16050000Y-7930823D02*
X16080279Y-7900544D01*
X14190001Y-8122829D02*
X14072830Y-8240000D01*
X14072830Y-8240000D02*
X10600000Y-8240000D01*
X10600000Y-8240000D02*
X10600000Y-8230000D01*
%TO.N,Net-(U1-BOOT)*%
X1170000Y-9460000D02*
X2420000Y-8210000D01*
X1170000Y-9470000D02*
X1170000Y-9460000D01*
X2420000Y-8210000D02*
X8720000Y-8210000D01*
%TD*%
%TA.AperFunction,Conductor*%
%TO.N,GND*%
G36*
X2250000Y-14890000D02*
G01*
X2250000Y-16723871D01*
X2230315Y-16790910D01*
X2177511Y-16836665D01*
X2108353Y-16846609D01*
X2044797Y-16817584D01*
X2043619Y-16816550D01*
X1873044Y-16664928D01*
X1867744Y-16659930D01*
X536819Y-15329005D01*
X503334Y-15267682D01*
X500500Y-15241324D01*
X500500Y-14750000D01*
X2250000Y-14750000D01*
X2250000Y-14890000D01*
G37*
%TD.AperFunction*%
%TD*%
%TA.AperFunction,Conductor*%
%TO.N,GND*%
G36*
X1730000Y-14410000D02*
G01*
X3162378Y-14410000D01*
X3133338Y-14463182D01*
X3072014Y-14496666D01*
X3045657Y-14499500D01*
X2452129Y-14499500D01*
X2452123Y-14499501D01*
X2392516Y-14505908D01*
X2257671Y-14556202D01*
X2257664Y-14556206D01*
X2142455Y-14642452D01*
X2142452Y-14642455D01*
X2061943Y-14750000D01*
X500500Y-14750000D01*
X500500Y-13779094D01*
X520185Y-13712055D01*
X572989Y-13666300D01*
X642147Y-13656356D01*
X690471Y-13674100D01*
X725121Y-13695872D01*
X820475Y-13755788D01*
X990745Y-13815368D01*
X990750Y-13815369D01*
X1169996Y-13835565D01*
X1170000Y-13835565D01*
X1170004Y-13835565D01*
X1349249Y-13815369D01*
X1349252Y-13815368D01*
X1349255Y-13815368D01*
X1519522Y-13755789D01*
X1672262Y-13659816D01*
X1730000Y-13602078D01*
X1730000Y-14410000D01*
G37*
%TD.AperFunction*%
%TA.AperFunction,Conductor*%
G36*
X8422639Y-10331874D02*
G01*
X8422649Y-10331885D01*
X8426979Y-10336215D01*
X8426980Y-10336216D01*
X8531527Y-10440763D01*
X8565011Y-10502084D01*
X8560887Y-10569396D01*
X8533847Y-10646674D01*
X8533847Y-10646675D01*
X8513651Y-10825925D01*
X8513651Y-10825932D01*
X8533846Y-11005178D01*
X8533847Y-11005183D01*
X8593427Y-11175452D01*
X8689400Y-11328191D01*
X8816954Y-11455745D01*
X8969694Y-11551718D01*
X9116955Y-11603246D01*
X9173730Y-11643968D01*
X9199478Y-11708920D01*
X9200000Y-11720288D01*
X9200000Y-11820000D01*
X11599999Y-11820000D01*
X11599999Y-11670028D01*
X11599998Y-11670013D01*
X11589505Y-11567302D01*
X11534358Y-11400880D01*
X11534356Y-11400875D01*
X11442315Y-11251654D01*
X11348695Y-11158034D01*
X11315210Y-11096711D01*
X11320194Y-11027019D01*
X11348691Y-10982676D01*
X11442712Y-10888656D01*
X11534814Y-10739334D01*
X11535650Y-10736811D01*
X11536690Y-10735308D01*
X11537864Y-10732791D01*
X11538294Y-10732991D01*
X11575415Y-10679366D01*
X11639929Y-10652537D01*
X11708706Y-10664846D01*
X11759910Y-10712385D01*
X11777284Y-10780060D01*
X11776885Y-10786615D01*
X11764341Y-10929997D01*
X11764341Y-10930000D01*
X11784936Y-11165403D01*
X11784938Y-11165413D01*
X11846094Y-11393655D01*
X11846096Y-11393659D01*
X11846097Y-11393663D01*
X11929358Y-11572217D01*
X11945965Y-11607830D01*
X11945967Y-11607834D01*
X12016749Y-11708920D01*
X12081505Y-11801401D01*
X12248599Y-11968495D01*
X12303643Y-12007037D01*
X12442165Y-12104032D01*
X12442167Y-12104033D01*
X12442170Y-12104035D01*
X12656337Y-12203903D01*
X12656343Y-12203904D01*
X12656344Y-12203905D01*
X12711285Y-12218626D01*
X12884592Y-12265063D01*
X13072918Y-12281539D01*
X13119999Y-12285659D01*
X13120000Y-12285659D01*
X13120001Y-12285659D01*
X13159234Y-12282226D01*
X13355408Y-12265063D01*
X13583663Y-12203903D01*
X13797830Y-12104035D01*
X13991401Y-11968495D01*
X14158495Y-11801401D01*
X14288425Y-11615842D01*
X14343002Y-11572217D01*
X14412500Y-11565023D01*
X14474855Y-11596546D01*
X14491575Y-11615842D01*
X14621500Y-11801395D01*
X14621505Y-11801401D01*
X14788599Y-11968495D01*
X14843643Y-12007037D01*
X14982165Y-12104032D01*
X14982167Y-12104033D01*
X14982170Y-12104035D01*
X15196337Y-12203903D01*
X15196343Y-12203904D01*
X15196344Y-12203905D01*
X15251285Y-12218626D01*
X15424592Y-12265063D01*
X15612918Y-12281539D01*
X15659999Y-12285659D01*
X15660000Y-12285659D01*
X15660001Y-12285659D01*
X15699234Y-12282226D01*
X15895408Y-12265063D01*
X16118154Y-12205379D01*
X16188004Y-12207042D01*
X16245866Y-12246205D01*
X16273370Y-12310433D01*
X16261783Y-12379335D01*
X16237928Y-12412835D01*
X15914943Y-12735819D01*
X15853620Y-12769304D01*
X15783928Y-12764320D01*
X15765261Y-12755524D01*
X15721787Y-12730424D01*
X15721786Y-12730423D01*
X15721785Y-12730423D01*
X15569057Y-12689499D01*
X15410943Y-12689499D01*
X15403347Y-12689499D01*
X15403331Y-12689500D01*
X11714887Y-12689500D01*
X11647848Y-12669815D01*
X11602093Y-12617011D01*
X11591529Y-12552897D01*
X11599999Y-12469986D01*
X11600000Y-12469973D01*
X11600000Y-12320000D01*
X9200001Y-12320000D01*
X9200001Y-12469986D01*
X9210494Y-12572697D01*
X9265641Y-12739119D01*
X9265643Y-12739124D01*
X9357684Y-12888345D01*
X9481654Y-13012315D01*
X9618335Y-13096621D01*
X9665059Y-13148569D01*
X9676282Y-13217532D01*
X9648438Y-13281614D01*
X9640919Y-13289841D01*
X9261465Y-13669296D01*
X9200142Y-13702781D01*
X9187668Y-13704835D01*
X9100750Y-13714628D01*
X8930478Y-13774208D01*
X8777737Y-13870182D01*
X8650184Y-13997735D01*
X8554210Y-14150476D01*
X8494630Y-14320748D01*
X8485761Y-14399461D01*
X8458694Y-14463875D01*
X8401098Y-14503429D01*
X8393234Y-14505640D01*
X8293332Y-14542901D01*
X8223640Y-14547885D01*
X8206668Y-14542901D01*
X8107485Y-14505909D01*
X8107483Y-14505908D01*
X8047883Y-14499501D01*
X8047881Y-14499500D01*
X8047873Y-14499500D01*
X8047865Y-14499500D01*
X6754342Y-14499500D01*
X6687303Y-14479815D01*
X6641548Y-14427011D01*
X6639102Y-14410000D01*
X8280000Y-14410000D01*
X8280000Y-10189235D01*
X8422639Y-10331874D01*
G37*
%TD.AperFunction*%
%TA.AperFunction,Conductor*%
G36*
X15192539Y-13910185D02*
G01*
X15238294Y-13962989D01*
X15249500Y-14014500D01*
X15249500Y-14375500D01*
X15229815Y-14442539D01*
X15177011Y-14488294D01*
X15125500Y-14499500D01*
X14452129Y-14499500D01*
X14452123Y-14499501D01*
X14392515Y-14505909D01*
X14293332Y-14542901D01*
X14223640Y-14547885D01*
X14206668Y-14542901D01*
X14107485Y-14505909D01*
X14107483Y-14505908D01*
X14047883Y-14499501D01*
X14047881Y-14499500D01*
X14047873Y-14499500D01*
X14047865Y-14499500D01*
X12666322Y-14499500D01*
X12599283Y-14479815D01*
X12553528Y-14427011D01*
X12543102Y-14389383D01*
X12535369Y-14320750D01*
X12535368Y-14320745D01*
X12475788Y-14150475D01*
X12431802Y-14080473D01*
X12412801Y-14013236D01*
X12433168Y-13946401D01*
X12486436Y-13901186D01*
X12536795Y-13890500D01*
X15125500Y-13890500D01*
X15192539Y-13910185D01*
G37*
%TD.AperFunction*%
%TA.AperFunction,Conductor*%
G36*
X2868038Y-520185D02*
G01*
X2913793Y-572989D01*
X2923737Y-642147D01*
X2900265Y-698810D01*
X2891877Y-710016D01*
X2856204Y-757668D01*
X2856202Y-757671D01*
X2805908Y-892517D01*
X2799501Y-952116D01*
X2799501Y-952123D01*
X2799500Y-952135D01*
X2799500Y-2747870D01*
X2799501Y-2747876D01*
X2805908Y-2807483D01*
X2856202Y-2942328D01*
X2856206Y-2942335D01*
X2942452Y-3057544D01*
X2942455Y-3057547D01*
X3057664Y-3143793D01*
X3057671Y-3143797D01*
X3189081Y-3192810D01*
X3245015Y-3234681D01*
X3269432Y-3300145D01*
X3254580Y-3368418D01*
X3233430Y-3396673D01*
X3111503Y-3518600D01*
X2975965Y-3712169D01*
X2975964Y-3712171D01*
X2876098Y-3926335D01*
X2876094Y-3926344D01*
X2814938Y-4154586D01*
X2814936Y-4154596D01*
X2794341Y-4389999D01*
X2794341Y-4390000D01*
X2814936Y-4625403D01*
X2814938Y-4625413D01*
X2876094Y-4853655D01*
X2876096Y-4853659D01*
X2876097Y-4853663D01*
X2925336Y-4959255D01*
X2975965Y-5067830D01*
X2975967Y-5067834D01*
X3111501Y-5261395D01*
X3111506Y-5261402D01*
X3278597Y-5428493D01*
X3278603Y-5428498D01*
X3464594Y-5558730D01*
X3508219Y-5613307D01*
X3515413Y-5682805D01*
X3483890Y-5745160D01*
X3464595Y-5761880D01*
X3278922Y-5891890D01*
X3278920Y-5891891D01*
X3111891Y-6058920D01*
X3111886Y-6058926D01*
X2976400Y-6252420D01*
X2976399Y-6252422D01*
X2876570Y-6466507D01*
X2876567Y-6466513D01*
X2819364Y-6679999D01*
X2819364Y-6680000D01*
X3716988Y-6680000D01*
X3684075Y-6737007D01*
X3650000Y-6864174D01*
X3650000Y-6995826D01*
X3684075Y-7122993D01*
X3716988Y-7180000D01*
X2819364Y-7180000D01*
X2876567Y-7393486D01*
X2876569Y-7393492D01*
X2895037Y-7433095D01*
X2905529Y-7502172D01*
X2877009Y-7565956D01*
X2818533Y-7604196D01*
X2782655Y-7609500D01*
X2506669Y-7609500D01*
X2506653Y-7609499D01*
X2499057Y-7609499D01*
X2340943Y-7609499D01*
X2239556Y-7636666D01*
X2188210Y-7650424D01*
X2188209Y-7650425D01*
X2138096Y-7679359D01*
X2138095Y-7679360D01*
X2094689Y-7704420D01*
X2051285Y-7729479D01*
X2051282Y-7729481D01*
X1939478Y-7841286D01*
X1140195Y-8640568D01*
X1078872Y-8674053D01*
X1066398Y-8676107D01*
X990750Y-8684630D01*
X820478Y-8744210D01*
X690472Y-8825899D01*
X623235Y-8844899D01*
X556400Y-8824531D01*
X511186Y-8771263D01*
X500500Y-8720905D01*
X500500Y-624500D01*
X520185Y-557461D01*
X572989Y-511706D01*
X624500Y-500500D01*
X2800999Y-500500D01*
X2868038Y-520185D01*
G37*
%TD.AperFunction*%
%TA.AperFunction,Conductor*%
G36*
X11310065Y-4917446D02*
G01*
X11340552Y-4939787D01*
X13704323Y-7303558D01*
X13737808Y-7364881D01*
X13732824Y-7434573D01*
X13692740Y-7488117D01*
X13693183Y-7488672D01*
X13691053Y-7490369D01*
X13690952Y-7490506D01*
X13690453Y-7490848D01*
X13687741Y-7493011D01*
X13577570Y-7603182D01*
X13516247Y-7636666D01*
X13489889Y-7639500D01*
X11688585Y-7639500D01*
X11621546Y-7619815D01*
X11575791Y-7567011D01*
X11570879Y-7554504D01*
X11534814Y-7445666D01*
X11442712Y-7296344D01*
X11318656Y-7172288D01*
X11169334Y-7080186D01*
X11002797Y-7025001D01*
X11002795Y-7025000D01*
X10914106Y-7015940D01*
X10849415Y-6989544D01*
X10809263Y-6932363D01*
X10803351Y-6879981D01*
X10810500Y-6810009D01*
X10810499Y-5510809D01*
X10830184Y-5443771D01*
X10857194Y-5413857D01*
X10862257Y-5409818D01*
X10862262Y-5409816D01*
X10989816Y-5282262D01*
X11085789Y-5129522D01*
X11135830Y-4986512D01*
X11176551Y-4929738D01*
X11241503Y-4903990D01*
X11310065Y-4917446D01*
G37*
%TD.AperFunction*%
%TA.AperFunction,Conductor*%
G36*
X6566257Y-5410185D02*
G01*
X6586899Y-5426819D01*
X7697215Y-6537137D01*
X7697223Y-6537143D01*
X7861084Y-6646631D01*
X7861087Y-6646633D01*
X7932952Y-6676400D01*
X7987356Y-6720240D01*
X8009421Y-6786534D01*
X8009500Y-6790955D01*
X8009500Y-6809998D01*
X8009501Y-6810019D01*
X8020000Y-6912796D01*
X8037451Y-6965460D01*
X8053995Y-7015384D01*
X8056397Y-7085211D01*
X8020666Y-7145253D01*
X8001387Y-7159925D01*
X7981344Y-7172287D01*
X7857289Y-7296342D01*
X7765187Y-7445663D01*
X7765185Y-7445668D01*
X7739062Y-7524504D01*
X7699289Y-7581949D01*
X7634773Y-7608772D01*
X7621356Y-7609500D01*
X5517345Y-7609500D01*
X5450306Y-7589815D01*
X5404551Y-7537011D01*
X5394607Y-7467853D01*
X5404963Y-7433095D01*
X5423430Y-7393492D01*
X5423432Y-7393486D01*
X5480636Y-7180000D01*
X4583012Y-7180000D01*
X4615925Y-7122993D01*
X4650000Y-6995826D01*
X4650000Y-6864174D01*
X4615925Y-6737007D01*
X4583012Y-6680000D01*
X5480636Y-6680000D01*
X5480635Y-6679999D01*
X5423432Y-6466513D01*
X5423429Y-6466507D01*
X5323600Y-6252422D01*
X5323599Y-6252420D01*
X5188113Y-6058926D01*
X5188108Y-6058920D01*
X5021078Y-5891890D01*
X4835405Y-5761879D01*
X4791780Y-5707302D01*
X4784588Y-5637804D01*
X4816110Y-5575449D01*
X4835406Y-5558730D01*
X4903843Y-5510810D01*
X5021401Y-5428495D01*
X5023077Y-5426819D01*
X5023995Y-5426317D01*
X5025544Y-5425018D01*
X5025805Y-5425329D01*
X5084400Y-5393334D01*
X5110758Y-5390500D01*
X6499218Y-5390500D01*
X6566257Y-5410185D01*
G37*
%TD.AperFunction*%
%TA.AperFunction,Conductor*%
G36*
X7961131Y-520185D02*
G01*
X8006886Y-572989D01*
X8017450Y-637104D01*
X8010000Y-710016D01*
X8010000Y-1510000D01*
X10809999Y-1510000D01*
X10809999Y-710028D01*
X10809998Y-710013D01*
X10802550Y-637102D01*
X10815320Y-568409D01*
X10863200Y-517525D01*
X10925908Y-500500D01*
X19375500Y-500500D01*
X19442539Y-520185D01*
X19488294Y-572989D01*
X19499500Y-624500D01*
X19499500Y-5280637D01*
X19479815Y-5347676D01*
X19427011Y-5393431D01*
X19357853Y-5403375D01*
X19309529Y-5385631D01*
X19259525Y-5354212D01*
X19089254Y-5294631D01*
X19089249Y-5294630D01*
X18910004Y-5274435D01*
X18909996Y-5274435D01*
X18730750Y-5294630D01*
X18730745Y-5294631D01*
X18560476Y-5354211D01*
X18407737Y-5450184D01*
X18280184Y-5577737D01*
X18184211Y-5730476D01*
X18124631Y-5900745D01*
X18124630Y-5900750D01*
X18104435Y-6079996D01*
X18104435Y-6080003D01*
X18124630Y-6259249D01*
X18124631Y-6259254D01*
X18184210Y-6429520D01*
X18184211Y-6429522D01*
X18220493Y-6487265D01*
X18239500Y-6553235D01*
X18239500Y-7176044D01*
X18219815Y-7243083D01*
X18167011Y-7288838D01*
X18115500Y-7300044D01*
X16586453Y-7300044D01*
X16520481Y-7281038D01*
X16504927Y-7271265D01*
X16399522Y-7205034D01*
X16229254Y-7145454D01*
X16229249Y-7145453D01*
X16050004Y-7125258D01*
X16049996Y-7125258D01*
X15870750Y-7145453D01*
X15870745Y-7145454D01*
X15700476Y-7205034D01*
X15595072Y-7271265D01*
X15555163Y-7296342D01*
X15541842Y-7304712D01*
X15540314Y-7302281D01*
X15487490Y-7323777D01*
X15418809Y-7310942D01*
X15387323Y-7288088D01*
X11917590Y-3818355D01*
X11917588Y-3818352D01*
X11798717Y-3699481D01*
X11798716Y-3699480D01*
X11711904Y-3649360D01*
X11711904Y-3649359D01*
X11711900Y-3649358D01*
X11661785Y-3620423D01*
X11509057Y-3579499D01*
X11350943Y-3579499D01*
X11343347Y-3579499D01*
X11343331Y-3579500D01*
X10597260Y-3579500D01*
X10530221Y-3559815D01*
X10484466Y-3507011D01*
X10474522Y-3437853D01*
X10503547Y-3374297D01*
X10523258Y-3357533D01*
X10522677Y-3356798D01*
X10528344Y-3352316D01*
X10652315Y-3228345D01*
X10744356Y-3079124D01*
X10744358Y-3079119D01*
X10799505Y-2912697D01*
X10799506Y-2912690D01*
X10809999Y-2809986D01*
X10810000Y-2809973D01*
X10810000Y-2010000D01*
X8010000Y-2010000D01*
X8010000Y-2451403D01*
X7990315Y-2518443D01*
X7937511Y-2564197D01*
X7868353Y-2574141D01*
X7804797Y-2545116D01*
X7798326Y-2539090D01*
X6747589Y-1488354D01*
X6747588Y-1488352D01*
X6628717Y-1369481D01*
X6628716Y-1369480D01*
X6541904Y-1319360D01*
X6541904Y-1319359D01*
X6541900Y-1319358D01*
X6491785Y-1290423D01*
X6339057Y-1249499D01*
X6180943Y-1249499D01*
X6173347Y-1249499D01*
X6173331Y-1249500D01*
X5624499Y-1249500D01*
X5557460Y-1229815D01*
X5511705Y-1177011D01*
X5500499Y-1125500D01*
X5500499Y-952129D01*
X5500498Y-952123D01*
X5500497Y-952116D01*
X5494091Y-892517D01*
X5443796Y-757669D01*
X5399734Y-698810D01*
X5375317Y-633348D01*
X5390168Y-565075D01*
X5439573Y-515669D01*
X5499001Y-500500D01*
X7894092Y-500500D01*
X7961131Y-520185D01*
G37*
%TD.AperFunction*%
%TD*%
%TA.AperFunction,Conductor*%
%TO.N,GND*%
G36*
X7316942Y-9230185D02*
G01*
X7337584Y-9246819D01*
X8280000Y-10189235D01*
X8280000Y-14410000D01*
X1730000Y-14410000D01*
X1730000Y-13602078D01*
X1799816Y-13532262D01*
X1895789Y-13379522D01*
X1955368Y-13209255D01*
X1975565Y-13030000D01*
X1955368Y-12850745D01*
X1895789Y-12680478D01*
X1799816Y-12527738D01*
X1799814Y-12527736D01*
X1799813Y-12527734D01*
X1797550Y-12524896D01*
X1796659Y-12522715D01*
X1796111Y-12521842D01*
X1796264Y-12521745D01*
X1771144Y-12460209D01*
X1770500Y-12447587D01*
X1770500Y-10665783D01*
X1790185Y-10598744D01*
X1806819Y-10578102D01*
X3138102Y-9246819D01*
X3199425Y-9213334D01*
X3225783Y-9210500D01*
X7249903Y-9210500D01*
X7316942Y-9230185D01*
G37*
%TD.AperFunction*%
%TD*%
M02*
