%TF.GenerationSoftware,KiCad,Pcbnew,8.0.2-1*%
%TF.CreationDate,2024-05-31T22:44:38-04:00*%
%TF.ProjectId,ez-servo,657a2d73-6572-4766-9f2e-6b696361645f,v0.0.0*%
%TF.SameCoordinates,Original*%
%TF.FileFunction,Copper,L1,Top*%
%TF.FilePolarity,Positive*%
%FSLAX46Y46*%
G04 Gerber Fmt 4.6, Leading zero omitted, Abs format (unit mm)*
G04 Created by KiCad (PCBNEW 8.0.2-1) date 2024-05-31 22:44:38*
%MOMM*%
%LPD*%
G01*
G04 APERTURE LIST*
G04 Aperture macros list*
%AMRoundRect*
0 Rectangle with rounded corners*
0 $1 Rounding radius*
0 $2 $3 $4 $5 $6 $7 $8 $9 X,Y pos of 4 corners*
0 Add a 4 corners polygon primitive as box body*
4,1,4,$2,$3,$4,$5,$6,$7,$8,$9,$2,$3,0*
0 Add four circle primitives for the rounded corners*
1,1,$1+$1,$2,$3*
1,1,$1+$1,$4,$5*
1,1,$1+$1,$6,$7*
1,1,$1+$1,$8,$9*
0 Add four rect primitives between the rounded corners*
20,1,$1+$1,$2,$3,$4,$5,0*
20,1,$1+$1,$4,$5,$6,$7,0*
20,1,$1+$1,$6,$7,$8,$9,0*
20,1,$1+$1,$8,$9,$2,$3,0*%
G04 Aperture macros list end*
%TA.AperFunction,SMDPad,CuDef*%
%ADD10RoundRect,0.250000X0.350000X0.450000X-0.350000X0.450000X-0.350000X-0.450000X0.350000X-0.450000X0*%
%TD*%
%TA.AperFunction,SMDPad,CuDef*%
%ADD11RoundRect,0.250000X-0.350000X-0.450000X0.350000X-0.450000X0.350000X0.450000X-0.350000X0.450000X0*%
%TD*%
%TA.AperFunction,SMDPad,CuDef*%
%ADD12R,3.000000X3.500000*%
%TD*%
%TA.AperFunction,SMDPad,CuDef*%
%ADD13RoundRect,0.250000X0.475000X-0.250000X0.475000X0.250000X-0.475000X0.250000X-0.475000X-0.250000X0*%
%TD*%
%TA.AperFunction,SMDPad,CuDef*%
%ADD14RoundRect,0.250000X0.650000X-0.325000X0.650000X0.325000X-0.650000X0.325000X-0.650000X-0.325000X0*%
%TD*%
%TA.AperFunction,SMDPad,CuDef*%
%ADD15RoundRect,0.250000X-0.250000X-0.475000X0.250000X-0.475000X0.250000X0.475000X-0.250000X0.475000X0*%
%TD*%
%TA.AperFunction,SMDPad,CuDef*%
%ADD16R,1.550000X0.600000*%
%TD*%
%TA.AperFunction,ComponentPad*%
%ADD17C,0.600000*%
%TD*%
%TA.AperFunction,SMDPad,CuDef*%
%ADD18R,2.600000X3.100000*%
%TD*%
%TA.AperFunction,SMDPad,CuDef*%
%ADD19R,2.950000X4.500000*%
%TD*%
%TA.AperFunction,ComponentPad*%
%ADD20R,1.700000X1.700000*%
%TD*%
%TA.AperFunction,ComponentPad*%
%ADD21O,1.700000X1.700000*%
%TD*%
%TA.AperFunction,ViaPad*%
%ADD22C,0.600000*%
%TD*%
%TA.AperFunction,Conductor*%
%ADD23C,1.000000*%
%TD*%
%TA.AperFunction,Conductor*%
%ADD24C,0.200000*%
%TD*%
G04 APERTURE END LIST*
D10*
%TO.P,R3,1*%
%TO.N,VOUT*%
X15190000Y-8950000D03*
%TO.P,R3,2*%
%TO.N,6V*%
X13190000Y-8950000D03*
%TD*%
D11*
%TO.P,R1,1*%
%TO.N,VOUT*%
X16900000Y-8950000D03*
%TO.P,R1,2*%
%TO.N,8_4V*%
X18900000Y-8950000D03*
%TD*%
D12*
%TO.P,L1,1,1*%
%TO.N,Net-(C2-Pad2)*%
X18000000Y-4100000D03*
%TO.P,L1,2,2*%
%TO.N,VOUT*%
X12000000Y-4100000D03*
%TD*%
D13*
%TO.P,C1,1*%
%TO.N,+24V*%
X9630000Y-11520000D03*
%TO.P,C1,2*%
%TO.N,GND*%
X9630000Y-9620000D03*
%TD*%
D14*
%TO.P,C4,1*%
%TO.N,VOUT*%
X9090000Y-4095000D03*
%TO.P,C4,2*%
%TO.N,GND*%
X9090000Y-1145000D03*
%TD*%
D15*
%TO.P,C5,1*%
%TO.N,VOUT*%
X7580000Y-5920000D03*
%TO.P,C5,2*%
%TO.N,GND*%
X9480000Y-5920000D03*
%TD*%
D14*
%TO.P,C3,1*%
%TO.N,VOUT*%
X6780000Y-4095000D03*
%TO.P,C3,2*%
%TO.N,GND*%
X6780000Y-1145000D03*
%TD*%
D16*
%TO.P,U1,1,BOOT*%
%TO.N,Net-(U1-BOOT)*%
X2200000Y-9725000D03*
%TO.P,U1,2,NC*%
%TO.N,unconnected-(U1-NC-Pad2)*%
X2200000Y-10995000D03*
%TO.P,U1,3,NC*%
%TO.N,unconnected-(U1-NC-Pad3)*%
X2200000Y-12265000D03*
%TO.P,U1,4,VSENSE*%
%TO.N,SENSE*%
X2200000Y-13535000D03*
%TO.P,U1,5,EN*%
%TO.N,unconnected-(U1-EN-Pad5)*%
X7600000Y-13535000D03*
%TO.P,U1,6,GND*%
%TO.N,GND*%
X7600000Y-12265000D03*
%TO.P,U1,7,VIN*%
%TO.N,+24V*%
X7600000Y-10995000D03*
%TO.P,U1,8,PH*%
%TO.N,VOUT*%
X7600000Y-9725000D03*
D17*
%TO.P,U1,9,GNDPAD*%
%TO.N,GND*%
X4300000Y-9830000D03*
X4300000Y-11030000D03*
X4300000Y-12330000D03*
X4300000Y-13430000D03*
D18*
X4900000Y-11630000D03*
D19*
X4900000Y-11630000D03*
D17*
X5500000Y-9830000D03*
X5500000Y-11030000D03*
X5500000Y-12330000D03*
X5500000Y-13430000D03*
%TD*%
D15*
%TO.P,C6,1*%
%TO.N,VOUT*%
X7580000Y-7890000D03*
%TO.P,C6,2*%
%TO.N,GND*%
X9480000Y-7890000D03*
%TD*%
D20*
%TO.P,J2,1,Pin_1*%
%TO.N,SERVO_PWM*%
X4150000Y-1850000D03*
D21*
%TO.P,J2,2,Pin_2*%
%TO.N,VOUT*%
X4150000Y-4390000D03*
%TO.P,J2,3,Pin_3*%
%TO.N,GND*%
X4150000Y-6930000D03*
%TD*%
D20*
%TO.P,J3,1,Pin_1*%
%TO.N,8_4V*%
X18200000Y-10930000D03*
D21*
%TO.P,J3,2,Pin_2*%
%TO.N,SENSE*%
X15660000Y-10930000D03*
%TO.P,J3,3,Pin_3*%
%TO.N,6V*%
X13120000Y-10930000D03*
%TD*%
D22*
%TO.N,VOUT*%
X10360000Y-4780000D03*
X16159265Y-8950735D03*
%TO.N,GND*%
X15300000Y-14500000D03*
X11600000Y-7640000D03*
X11560000Y-12080000D03*
X8070000Y-1700000D03*
%TO.N,SENSE*%
X14290000Y-9930000D03*
X1170000Y-13030000D03*
%TO.N,Net-(C2-Pad2)*%
X14190001Y-8122829D03*
X18910000Y-6080000D03*
X16050000Y-7930823D03*
%TO.N,Net-(U1-BOOT)*%
X1170000Y-9470000D03*
%TO.N,+24V*%
X17300000Y-13800000D03*
X17300000Y-14500000D03*
X8640000Y-11170000D03*
%TD*%
D23*
%TO.N,VOUT*%
X12000000Y-4100000D02*
X4440000Y-4100000D01*
D24*
X10360000Y-4780000D02*
X11320000Y-4780000D01*
D23*
X6940000Y-4175000D02*
X6860000Y-4095000D01*
D24*
X17137500Y-8930000D02*
X17157500Y-8950000D01*
D23*
X4440000Y-4100000D02*
X4150000Y-4390000D01*
X7580000Y-7890000D02*
X7580000Y-4155000D01*
D24*
X15612500Y-8950000D02*
X17157500Y-8950000D01*
D23*
X7580000Y-9705000D02*
X7600000Y-9725000D01*
X7580000Y-7890000D02*
X7580000Y-9705000D01*
X6860000Y-4095000D02*
X6780000Y-4095000D01*
D24*
X11320000Y-4780000D02*
X12000000Y-4100000D01*
%TO.N,GND*%
X9480000Y-5920000D02*
X10030000Y-6470000D01*
X10030000Y-6470000D02*
X10820000Y-6470000D01*
D23*
X4300000Y-11030000D02*
X4260000Y-10990000D01*
X4260000Y-10990000D02*
X4260000Y-10460000D01*
D24*
%TO.N,8_4V*%
X18982500Y-10147500D02*
X18200000Y-10930000D01*
X18982500Y-8950000D02*
X18982500Y-10147500D01*
%TO.N,6V*%
X13190000Y-8950000D02*
X13120000Y-9020000D01*
X13120000Y-9020000D02*
X13120000Y-10930000D01*
%TO.N,SENSE*%
X14290000Y-9930000D02*
X14660000Y-9930000D01*
X1675000Y-13535000D02*
X2200000Y-13535000D01*
X14660000Y-9930000D02*
X15660000Y-10930000D01*
X1170000Y-13030000D02*
X1675000Y-13535000D01*
%TO.N,Net-(C2-Pad2)*%
X16050000Y-7930823D02*
X14382007Y-7930823D01*
X18910000Y-5010000D02*
X18000000Y-4100000D01*
X14382007Y-7930823D02*
X14190001Y-8122829D01*
X18910000Y-6080000D02*
X18910000Y-5010000D01*
%TO.N,Net-(U1-BOOT)*%
X1170000Y-9470000D02*
X1425000Y-9725000D01*
X1425000Y-9725000D02*
X2200000Y-9725000D01*
%TO.N,+24V*%
X8640000Y-11170000D02*
X9320000Y-11170000D01*
X8465000Y-10995000D02*
X7600000Y-10995000D01*
X9320000Y-11170000D02*
X9700000Y-11550000D01*
X8640000Y-11170000D02*
X8465000Y-10995000D01*
%TD*%
%TA.AperFunction,Conductor*%
%TO.N,GND*%
G36*
X4015000Y-14410000D02*
G01*
X4015000Y-18876000D01*
X3995315Y-18943039D01*
X3942511Y-18988794D01*
X3891000Y-19000000D01*
X2639000Y-19000000D01*
X2571961Y-18980315D01*
X2526206Y-18927511D01*
X2515000Y-18876000D01*
X2515000Y-14410000D01*
X2515000Y-14400000D01*
X4015000Y-14400000D01*
X4015000Y-14410000D01*
G37*
%TD.AperFunction*%
%TD*%
%TA.AperFunction,Conductor*%
%TO.N,GND*%
G36*
X16015000Y-14390000D02*
G01*
X16015000Y-18876000D01*
X15995315Y-18943039D01*
X15942511Y-18988794D01*
X15891000Y-19000000D01*
X14639000Y-19000000D01*
X14571961Y-18980315D01*
X14526206Y-18927511D01*
X14515000Y-18876000D01*
X14515000Y-14390000D01*
X14515000Y-14300000D01*
X16015000Y-14300000D01*
X16015000Y-14390000D01*
G37*
%TD.AperFunction*%
%TD*%
%TA.AperFunction,Conductor*%
%TO.N,+24V*%
G36*
X17958039Y-13319685D02*
G01*
X18003794Y-13372489D01*
X18015000Y-13424000D01*
X18015000Y-14922185D01*
X18014500Y-14929815D01*
X18014500Y-18876000D01*
X17994815Y-18943039D01*
X17942011Y-18988794D01*
X17890500Y-19000000D01*
X16639000Y-19000000D01*
X16571961Y-18980315D01*
X16526206Y-18927511D01*
X16515000Y-18876000D01*
X16515000Y-13424000D01*
X16534685Y-13356961D01*
X16587489Y-13311206D01*
X16639000Y-13300000D01*
X17891000Y-13300000D01*
X17958039Y-13319685D01*
G37*
%TD.AperFunction*%
%TD*%
%TA.AperFunction,Conductor*%
%TO.N,GND*%
G36*
X19442539Y-520185D02*
G01*
X19488294Y-572989D01*
X19499500Y-624500D01*
X19499500Y-1725500D01*
X19479815Y-1792539D01*
X19427011Y-1838294D01*
X19375500Y-1849500D01*
X16452129Y-1849500D01*
X16452123Y-1849501D01*
X16392516Y-1855908D01*
X16257671Y-1906202D01*
X16257664Y-1906206D01*
X16142455Y-1992452D01*
X16142452Y-1992455D01*
X16056206Y-2107664D01*
X16056202Y-2107671D01*
X16005908Y-2242517D01*
X16002610Y-2273200D01*
X15999501Y-2302123D01*
X15999500Y-2302135D01*
X15999500Y-5897870D01*
X15999501Y-5897876D01*
X16005908Y-5957483D01*
X16056202Y-6092328D01*
X16056206Y-6092335D01*
X16142452Y-6207544D01*
X16142455Y-6207547D01*
X16257664Y-6293793D01*
X16257671Y-6293797D01*
X16392517Y-6344091D01*
X16392516Y-6344091D01*
X16399444Y-6344835D01*
X16452127Y-6350500D01*
X18068577Y-6350499D01*
X18135616Y-6370184D01*
X18181371Y-6422987D01*
X18182930Y-6426861D01*
X18184210Y-6429521D01*
X18184211Y-6429522D01*
X18280184Y-6582262D01*
X18407738Y-6709816D01*
X18560478Y-6805789D01*
X18727333Y-6864174D01*
X18730745Y-6865368D01*
X18730750Y-6865369D01*
X18909996Y-6885565D01*
X18910000Y-6885565D01*
X18910004Y-6885565D01*
X19089249Y-6865369D01*
X19089252Y-6865368D01*
X19089255Y-6865368D01*
X19259522Y-6805789D01*
X19309527Y-6774369D01*
X19376764Y-6755368D01*
X19443599Y-6775735D01*
X19488814Y-6829003D01*
X19499500Y-6879362D01*
X19499500Y-7632566D01*
X19479815Y-7699605D01*
X19427011Y-7745360D01*
X19362899Y-7755924D01*
X19300012Y-7749500D01*
X18499998Y-7749500D01*
X18499980Y-7749501D01*
X18397203Y-7760000D01*
X18397200Y-7760001D01*
X18230668Y-7815185D01*
X18230663Y-7815187D01*
X18081342Y-7907289D01*
X17987681Y-8000951D01*
X17926358Y-8034436D01*
X17856666Y-8029452D01*
X17812319Y-8000951D01*
X17718657Y-7907289D01*
X17718656Y-7907288D01*
X17569334Y-7815186D01*
X17402797Y-7760001D01*
X17402795Y-7760000D01*
X17300016Y-7749500D01*
X17300009Y-7749500D01*
X16922627Y-7749500D01*
X16855588Y-7729815D01*
X16809833Y-7677011D01*
X16805585Y-7666454D01*
X16775789Y-7581301D01*
X16679816Y-7428561D01*
X16552262Y-7301007D01*
X16399523Y-7205034D01*
X16229254Y-7145454D01*
X16229249Y-7145453D01*
X16050004Y-7125258D01*
X16049996Y-7125258D01*
X15870750Y-7145453D01*
X15870745Y-7145454D01*
X15700476Y-7205034D01*
X15547736Y-7301008D01*
X15544903Y-7303268D01*
X15542724Y-7304157D01*
X15541842Y-7304712D01*
X15541744Y-7304557D01*
X15480217Y-7329678D01*
X15467588Y-7330323D01*
X14312864Y-7330323D01*
X14298982Y-7329543D01*
X14267133Y-7325954D01*
X14190004Y-7317264D01*
X14189997Y-7317264D01*
X14010751Y-7337459D01*
X14010746Y-7337460D01*
X13840477Y-7397040D01*
X13687738Y-7493013D01*
X13560183Y-7620568D01*
X13560182Y-7620570D01*
X13515630Y-7691473D01*
X13463295Y-7737764D01*
X13410637Y-7749500D01*
X12789998Y-7749500D01*
X12789980Y-7749501D01*
X12687203Y-7760000D01*
X12687200Y-7760001D01*
X12520668Y-7815185D01*
X12520663Y-7815187D01*
X12371342Y-7907289D01*
X12247289Y-8031342D01*
X12155187Y-8180663D01*
X12155185Y-8180668D01*
X12128687Y-8260634D01*
X12100001Y-8347203D01*
X12100001Y-8347204D01*
X12100000Y-8347204D01*
X12089500Y-8449983D01*
X12089500Y-9450001D01*
X12089501Y-9450019D01*
X12100000Y-9552796D01*
X12100001Y-9552799D01*
X12155185Y-9719331D01*
X12155189Y-9719340D01*
X12205033Y-9800150D01*
X12223473Y-9867542D01*
X12202550Y-9934206D01*
X12187176Y-9952927D01*
X12081503Y-10058600D01*
X11945965Y-10252169D01*
X11945964Y-10252171D01*
X11846098Y-10466335D01*
X11846094Y-10466344D01*
X11784938Y-10694586D01*
X11784936Y-10694596D01*
X11764341Y-10929999D01*
X11764341Y-10930000D01*
X11784936Y-11165403D01*
X11784938Y-11165413D01*
X11846094Y-11393655D01*
X11846096Y-11393659D01*
X11846097Y-11393663D01*
X11850000Y-11402032D01*
X11945965Y-11607830D01*
X11945967Y-11607834D01*
X12037668Y-11738796D01*
X12081505Y-11801401D01*
X12248599Y-11968495D01*
X12337354Y-12030642D01*
X12442165Y-12104032D01*
X12442167Y-12104033D01*
X12442170Y-12104035D01*
X12656337Y-12203903D01*
X12656343Y-12203904D01*
X12656344Y-12203905D01*
X12711285Y-12218626D01*
X12884592Y-12265063D01*
X13061034Y-12280500D01*
X13119999Y-12285659D01*
X13120000Y-12285659D01*
X13120001Y-12285659D01*
X13178966Y-12280500D01*
X13355408Y-12265063D01*
X13583663Y-12203903D01*
X13797830Y-12104035D01*
X13991401Y-11968495D01*
X14158495Y-11801401D01*
X14288425Y-11615842D01*
X14343002Y-11572217D01*
X14412500Y-11565023D01*
X14474855Y-11596546D01*
X14491575Y-11615842D01*
X14621500Y-11801395D01*
X14621505Y-11801401D01*
X14788599Y-11968495D01*
X14877354Y-12030642D01*
X14982165Y-12104032D01*
X14982167Y-12104033D01*
X14982170Y-12104035D01*
X15196337Y-12203903D01*
X15196343Y-12203904D01*
X15196344Y-12203905D01*
X15251285Y-12218626D01*
X15424592Y-12265063D01*
X15601034Y-12280500D01*
X15659999Y-12285659D01*
X15660000Y-12285659D01*
X15660001Y-12285659D01*
X15718966Y-12280500D01*
X15895408Y-12265063D01*
X16123663Y-12203903D01*
X16337830Y-12104035D01*
X16531401Y-11968495D01*
X16653329Y-11846566D01*
X16714648Y-11813084D01*
X16784340Y-11818068D01*
X16840274Y-11859939D01*
X16857189Y-11890917D01*
X16906202Y-12022328D01*
X16906206Y-12022335D01*
X16992452Y-12137544D01*
X16992455Y-12137547D01*
X17107664Y-12223793D01*
X17107671Y-12223797D01*
X17242517Y-12274091D01*
X17242516Y-12274091D01*
X17249444Y-12274835D01*
X17302127Y-12280500D01*
X19097872Y-12280499D01*
X19157483Y-12274091D01*
X19292331Y-12223796D01*
X19301186Y-12217166D01*
X19366649Y-12192747D01*
X19434923Y-12207596D01*
X19484330Y-12257000D01*
X19499500Y-12316431D01*
X19499500Y-14266000D01*
X19479815Y-14333039D01*
X19427011Y-14378794D01*
X19375500Y-14390000D01*
X18644500Y-14390000D01*
X18577461Y-14370315D01*
X18531706Y-14317511D01*
X18520500Y-14266000D01*
X18520500Y-13424010D01*
X18520500Y-13424000D01*
X18508947Y-13316544D01*
X18497741Y-13265033D01*
X18497637Y-13264722D01*
X18463616Y-13162502D01*
X18463613Y-13162496D01*
X18385828Y-13041462D01*
X18385825Y-13041457D01*
X18382000Y-13037043D01*
X18340076Y-12988659D01*
X18340072Y-12988656D01*
X18340070Y-12988653D01*
X18231336Y-12894433D01*
X18231333Y-12894431D01*
X18231331Y-12894430D01*
X18100465Y-12834664D01*
X18100460Y-12834662D01*
X18100459Y-12834662D01*
X18033420Y-12814977D01*
X18033422Y-12814977D01*
X18033417Y-12814976D01*
X17971347Y-12806052D01*
X17891000Y-12794500D01*
X16639000Y-12794500D01*
X16638991Y-12794500D01*
X16638990Y-12794501D01*
X16531549Y-12806052D01*
X16531537Y-12806054D01*
X16480027Y-12817260D01*
X16377502Y-12851383D01*
X16377496Y-12851386D01*
X16256462Y-12929171D01*
X16256451Y-12929179D01*
X16203659Y-12974923D01*
X16109433Y-13083664D01*
X16109430Y-13083668D01*
X16049664Y-13214534D01*
X16029976Y-13281582D01*
X16024949Y-13316549D01*
X16009502Y-13423990D01*
X16009500Y-13424001D01*
X16009500Y-14300000D01*
X14515000Y-14300000D01*
X14515000Y-14390000D01*
X8832454Y-14390000D01*
X8765415Y-14370315D01*
X8719660Y-14317511D01*
X8709716Y-14248353D01*
X8733188Y-14191689D01*
X8818793Y-14077335D01*
X8818792Y-14077335D01*
X8818796Y-14077331D01*
X8869091Y-13942483D01*
X8875500Y-13882873D01*
X8875499Y-13187128D01*
X8869091Y-13127517D01*
X8869091Y-13127516D01*
X8818797Y-12992670D01*
X8818796Y-12992669D01*
X8812551Y-12984327D01*
X8804741Y-12973894D01*
X8780323Y-12908432D01*
X8795173Y-12840159D01*
X8804742Y-12825270D01*
X8818351Y-12807091D01*
X8868596Y-12672378D01*
X8874131Y-12620902D01*
X8900869Y-12556350D01*
X8958261Y-12516502D01*
X9010024Y-12510798D01*
X9104991Y-12520500D01*
X10155008Y-12520499D01*
X10155016Y-12520498D01*
X10155019Y-12520498D01*
X10211302Y-12514748D01*
X10257797Y-12509999D01*
X10424334Y-12454814D01*
X10573656Y-12362712D01*
X10697712Y-12238656D01*
X10789814Y-12089334D01*
X10844999Y-11922797D01*
X10855500Y-11820009D01*
X10855499Y-11219992D01*
X10844999Y-11117203D01*
X10789814Y-10950666D01*
X10697712Y-10801344D01*
X10573656Y-10677288D01*
X10570342Y-10675243D01*
X10568546Y-10673248D01*
X10567989Y-10672807D01*
X10568064Y-10672711D01*
X10523618Y-10623297D01*
X10512397Y-10554334D01*
X10540240Y-10490252D01*
X10570348Y-10464165D01*
X10573342Y-10462318D01*
X10697315Y-10338345D01*
X10789356Y-10189124D01*
X10789358Y-10189119D01*
X10844505Y-10022697D01*
X10844506Y-10022690D01*
X10854999Y-9919986D01*
X10855000Y-9919973D01*
X10855000Y-9870000D01*
X9504000Y-9870000D01*
X9436961Y-9850315D01*
X9391206Y-9797511D01*
X9380000Y-9746000D01*
X9380000Y-9158000D01*
X9354000Y-9158000D01*
X9286961Y-9138315D01*
X9241206Y-9085511D01*
X9230000Y-9034000D01*
X9230000Y-8577000D01*
X9730000Y-8577000D01*
X9756000Y-8577000D01*
X9823039Y-8596685D01*
X9868794Y-8649489D01*
X9880000Y-8701000D01*
X9880000Y-9370000D01*
X10854999Y-9370000D01*
X10854999Y-9320028D01*
X10854998Y-9320013D01*
X10844505Y-9217302D01*
X10789358Y-9050880D01*
X10789356Y-9050875D01*
X10697315Y-8901654D01*
X10573343Y-8777682D01*
X10499045Y-8731854D01*
X10452321Y-8679906D01*
X10441100Y-8610943D01*
X10446437Y-8587312D01*
X10469505Y-8517697D01*
X10469506Y-8517690D01*
X10479999Y-8414986D01*
X10480000Y-8414973D01*
X10480000Y-8140000D01*
X9730000Y-8140000D01*
X9730000Y-8577000D01*
X9230000Y-8577000D01*
X9230000Y-5794000D01*
X9249685Y-5726961D01*
X9302489Y-5681206D01*
X9354000Y-5670000D01*
X9606000Y-5670000D01*
X9673039Y-5689685D01*
X9718794Y-5742489D01*
X9730000Y-5794000D01*
X9730000Y-7640000D01*
X10479999Y-7640000D01*
X10479999Y-7365028D01*
X10479998Y-7365013D01*
X10469505Y-7262302D01*
X10414358Y-7095880D01*
X10414356Y-7095875D01*
X10336775Y-6970097D01*
X10318335Y-6902704D01*
X10336775Y-6839903D01*
X10414356Y-6714124D01*
X10414358Y-6714119D01*
X10469505Y-6547697D01*
X10469506Y-6547690D01*
X10478272Y-6461896D01*
X10504668Y-6397204D01*
X10561849Y-6357053D01*
X10601624Y-6350499D01*
X13547872Y-6350499D01*
X13607483Y-6344091D01*
X13742331Y-6293796D01*
X13857546Y-6207546D01*
X13943796Y-6092331D01*
X13994091Y-5957483D01*
X14000500Y-5897873D01*
X14000499Y-2302128D01*
X13994091Y-2242517D01*
X13985692Y-2219999D01*
X13943797Y-2107671D01*
X13943793Y-2107664D01*
X13857547Y-1992455D01*
X13857544Y-1992452D01*
X13742335Y-1906206D01*
X13742328Y-1906202D01*
X13607482Y-1855908D01*
X13607483Y-1855908D01*
X13547883Y-1849501D01*
X13547881Y-1849500D01*
X13547873Y-1849500D01*
X13547865Y-1849500D01*
X10576070Y-1849500D01*
X10509031Y-1829815D01*
X10463276Y-1777011D01*
X10453332Y-1707853D01*
X10458364Y-1686495D01*
X10479505Y-1622694D01*
X10479506Y-1622690D01*
X10489999Y-1519986D01*
X10490000Y-1519973D01*
X10490000Y-1395000D01*
X9340000Y-1395000D01*
X9340000Y-2219999D01*
X9789972Y-2219999D01*
X9789986Y-2219998D01*
X9862898Y-2212550D01*
X9931591Y-2225320D01*
X9982475Y-2273200D01*
X9999500Y-2335908D01*
X9999500Y-2903588D01*
X9979815Y-2970627D01*
X9927011Y-3016382D01*
X9862898Y-3026946D01*
X9790011Y-3019500D01*
X8389998Y-3019500D01*
X8389981Y-3019501D01*
X8287203Y-3030000D01*
X8287200Y-3030001D01*
X8163397Y-3071026D01*
X8120666Y-3085186D01*
X8120664Y-3085186D01*
X8120661Y-3085188D01*
X8114879Y-3087884D01*
X8062479Y-3099500D01*
X7807521Y-3099500D01*
X7755121Y-3087884D01*
X7749339Y-3085188D01*
X7749335Y-3085186D01*
X7749334Y-3085186D01*
X7582797Y-3030001D01*
X7582795Y-3030000D01*
X7480010Y-3019500D01*
X6079998Y-3019500D01*
X6079981Y-3019501D01*
X5977203Y-3030000D01*
X5977200Y-3030001D01*
X5853397Y-3071026D01*
X5810666Y-3085186D01*
X5810664Y-3085186D01*
X5810661Y-3085188D01*
X5804879Y-3087884D01*
X5752479Y-3099500D01*
X5563769Y-3099500D01*
X5496730Y-3079815D01*
X5450975Y-3027011D01*
X5441031Y-2957853D01*
X5447587Y-2932167D01*
X5494091Y-2807482D01*
X5500500Y-2747873D01*
X5500499Y-2185086D01*
X5520183Y-2118050D01*
X5572987Y-2072295D01*
X5642146Y-2062351D01*
X5689596Y-2079550D01*
X5810875Y-2154356D01*
X5810880Y-2154358D01*
X5977302Y-2209505D01*
X5977309Y-2209506D01*
X6080019Y-2219999D01*
X6529999Y-2219999D01*
X7030000Y-2219999D01*
X7479972Y-2219999D01*
X7479986Y-2219998D01*
X7582697Y-2209505D01*
X7749119Y-2154358D01*
X7749124Y-2154356D01*
X7869903Y-2079859D01*
X7937295Y-2061419D01*
X8000097Y-2079859D01*
X8120875Y-2154356D01*
X8120880Y-2154358D01*
X8287302Y-2209505D01*
X8287309Y-2209506D01*
X8390019Y-2219999D01*
X8839999Y-2219999D01*
X8840000Y-2219998D01*
X8840000Y-1395000D01*
X7030000Y-1395000D01*
X7030000Y-2219999D01*
X6529999Y-2219999D01*
X6530000Y-2219998D01*
X6530000Y-1019000D01*
X6549685Y-951961D01*
X6602489Y-906206D01*
X6654000Y-895000D01*
X10489999Y-895000D01*
X10489999Y-770028D01*
X10489998Y-770013D01*
X10479506Y-667304D01*
X10478247Y-663505D01*
X10478161Y-661019D01*
X10478089Y-660681D01*
X10478149Y-660668D01*
X10475845Y-593677D01*
X10511576Y-533634D01*
X10574096Y-502441D01*
X10595953Y-500500D01*
X19375500Y-500500D01*
X19442539Y-520185D01*
G37*
%TD.AperFunction*%
%TA.AperFunction,Conductor*%
G36*
X2868038Y-520185D02*
G01*
X2913793Y-572989D01*
X2923737Y-642147D01*
X2900265Y-698810D01*
X2880238Y-725562D01*
X2856204Y-757668D01*
X2856202Y-757671D01*
X2805908Y-892517D01*
X2799501Y-952116D01*
X2799500Y-952135D01*
X2799500Y-2747870D01*
X2799501Y-2747876D01*
X2805908Y-2807483D01*
X2856202Y-2942328D01*
X2856206Y-2942335D01*
X2942452Y-3057544D01*
X2942455Y-3057547D01*
X3057664Y-3143793D01*
X3057671Y-3143797D01*
X3189081Y-3192810D01*
X3245015Y-3234681D01*
X3269432Y-3300145D01*
X3254580Y-3368418D01*
X3233430Y-3396673D01*
X3111503Y-3518600D01*
X2975965Y-3712169D01*
X2975964Y-3712171D01*
X2876098Y-3926335D01*
X2876094Y-3926344D01*
X2814938Y-4154586D01*
X2814936Y-4154596D01*
X2794341Y-4389999D01*
X2794341Y-4390000D01*
X2814936Y-4625403D01*
X2814938Y-4625413D01*
X2876094Y-4853655D01*
X2876096Y-4853659D01*
X2876097Y-4853663D01*
X2975965Y-5067830D01*
X2975967Y-5067834D01*
X3084281Y-5222521D01*
X3111501Y-5261396D01*
X3111506Y-5261402D01*
X3278597Y-5428493D01*
X3278603Y-5428498D01*
X3464594Y-5558730D01*
X3508219Y-5613307D01*
X3515413Y-5682805D01*
X3483890Y-5745160D01*
X3464595Y-5761880D01*
X3278922Y-5891890D01*
X3278920Y-5891891D01*
X3111891Y-6058920D01*
X3111886Y-6058926D01*
X2976400Y-6252420D01*
X2976399Y-6252422D01*
X2876570Y-6466507D01*
X2876567Y-6466513D01*
X2819364Y-6679999D01*
X2819364Y-6680000D01*
X3716988Y-6680000D01*
X3684075Y-6737007D01*
X3650000Y-6864174D01*
X3650000Y-6995826D01*
X3684075Y-7122993D01*
X3716988Y-7180000D01*
X2819364Y-7180000D01*
X2876567Y-7393486D01*
X2876570Y-7393492D01*
X2976399Y-7607578D01*
X3111894Y-7801082D01*
X3278917Y-7968105D01*
X3472421Y-8103600D01*
X3686507Y-8203429D01*
X3686516Y-8203433D01*
X3900000Y-8260634D01*
X3900000Y-7363012D01*
X3957007Y-7395925D01*
X4084174Y-7430000D01*
X4215826Y-7430000D01*
X4342993Y-7395925D01*
X4400000Y-7363012D01*
X4400000Y-8260633D01*
X4613483Y-8203433D01*
X4613492Y-8203429D01*
X4827578Y-8103600D01*
X5021082Y-7968105D01*
X5188105Y-7801082D01*
X5323600Y-7607578D01*
X5423429Y-7393492D01*
X5423432Y-7393486D01*
X5480636Y-7180000D01*
X4583012Y-7180000D01*
X4615925Y-7122993D01*
X4650000Y-6995826D01*
X4650000Y-6864174D01*
X4615925Y-6737007D01*
X4583012Y-6680000D01*
X5480636Y-6680000D01*
X5480635Y-6679999D01*
X5423432Y-6466513D01*
X5423429Y-6466507D01*
X5323600Y-6252422D01*
X5323599Y-6252420D01*
X5188113Y-6058926D01*
X5188108Y-6058920D01*
X5021078Y-5891890D01*
X4835405Y-5761879D01*
X4791780Y-5707302D01*
X4784588Y-5637804D01*
X4816110Y-5575449D01*
X4835406Y-5558730D01*
X4920865Y-5498891D01*
X5021401Y-5428495D01*
X5188495Y-5261401D01*
X5264134Y-5153376D01*
X5318711Y-5109752D01*
X5365709Y-5100500D01*
X5777638Y-5100500D01*
X5816640Y-5106793D01*
X5977203Y-5159999D01*
X6079991Y-5170500D01*
X6455500Y-5170499D01*
X6522539Y-5190183D01*
X6568294Y-5242987D01*
X6579500Y-5294499D01*
X6579500Y-8600000D01*
X1730000Y-8600000D01*
X1730000Y-8896030D01*
X1720259Y-8888181D01*
X1672262Y-8840184D01*
X1519523Y-8744211D01*
X1349254Y-8684631D01*
X1349249Y-8684630D01*
X1170004Y-8664435D01*
X1169996Y-8664435D01*
X990750Y-8684630D01*
X990745Y-8684631D01*
X820476Y-8744211D01*
X690472Y-8825899D01*
X623235Y-8844899D01*
X556400Y-8824531D01*
X511186Y-8771263D01*
X500500Y-8720905D01*
X500500Y-624500D01*
X520185Y-557461D01*
X572989Y-511706D01*
X624500Y-500500D01*
X2800999Y-500500D01*
X2868038Y-520185D01*
G37*
%TD.AperFunction*%
%TD*%
%TA.AperFunction,NonConductor*%
G36*
X13958039Y-15019685D02*
G01*
X14003794Y-15072489D01*
X14015000Y-15124000D01*
X14015000Y-18876000D01*
X13995315Y-18943039D01*
X13942511Y-18988794D01*
X13891000Y-19000000D01*
X12639000Y-19000000D01*
X12571961Y-18980315D01*
X12526206Y-18927511D01*
X12515000Y-18876000D01*
X12515000Y-15124000D01*
X12534685Y-15056961D01*
X12587489Y-15011206D01*
X12639000Y-15000000D01*
X13891000Y-15000000D01*
X13958039Y-15019685D01*
G37*
%TD.AperFunction*%
%TA.AperFunction,Conductor*%
%TO.N,GND*%
G36*
X6579500Y-8921506D02*
G01*
X6559815Y-8988545D01*
X6529811Y-9020772D01*
X6467460Y-9067448D01*
X6467451Y-9067457D01*
X6381206Y-9182664D01*
X6381202Y-9182671D01*
X6340894Y-9290745D01*
X6330909Y-9317517D01*
X6324500Y-9377127D01*
X6324500Y-9377134D01*
X6324500Y-9377135D01*
X6324500Y-10072870D01*
X6324501Y-10072876D01*
X6330908Y-10132483D01*
X6381202Y-10267328D01*
X6381205Y-10267334D01*
X6394947Y-10285691D01*
X6419363Y-10351156D01*
X6404510Y-10419429D01*
X6394947Y-10434309D01*
X6381205Y-10452665D01*
X6381202Y-10452671D01*
X6330910Y-10587513D01*
X6330909Y-10587517D01*
X6324500Y-10647127D01*
X6324500Y-10647134D01*
X6324500Y-10647135D01*
X6324500Y-11342870D01*
X6324501Y-11342876D01*
X6330908Y-11402483D01*
X6381202Y-11537328D01*
X6381206Y-11537335D01*
X6467452Y-11652544D01*
X6467455Y-11652547D01*
X6582664Y-11738793D01*
X6582671Y-11738797D01*
X6717517Y-11789091D01*
X6717516Y-11789091D01*
X6724444Y-11789835D01*
X6777127Y-11795500D01*
X8095143Y-11795499D01*
X8161115Y-11814505D01*
X8280000Y-11889205D01*
X8280000Y-12734500D01*
X6777129Y-12734500D01*
X6777123Y-12734501D01*
X6717516Y-12740908D01*
X6582671Y-12791202D01*
X6582664Y-12791206D01*
X6467455Y-12877452D01*
X6467452Y-12877455D01*
X6381206Y-12992664D01*
X6381202Y-12992671D01*
X6330910Y-13127513D01*
X6330909Y-13127517D01*
X6324500Y-13187127D01*
X6324500Y-13187134D01*
X6324500Y-13187135D01*
X6324500Y-13882870D01*
X6324501Y-13882876D01*
X6330908Y-13942483D01*
X6381202Y-14077328D01*
X6381206Y-14077335D01*
X6467452Y-14192544D01*
X6473227Y-14198319D01*
X6506712Y-14259642D01*
X6501728Y-14329334D01*
X6459856Y-14385267D01*
X6394392Y-14409684D01*
X6385546Y-14410000D01*
X4015000Y-14410000D01*
X4015000Y-14400000D01*
X2532471Y-14400000D01*
X2534685Y-14392460D01*
X2587489Y-14346705D01*
X2638998Y-14335499D01*
X3022872Y-14335499D01*
X3082483Y-14329091D01*
X3217331Y-14278796D01*
X3332546Y-14192546D01*
X3418796Y-14077331D01*
X3469091Y-13942483D01*
X3475500Y-13882873D01*
X3475499Y-13187128D01*
X3469091Y-13127517D01*
X3418797Y-12992671D01*
X3418797Y-12992670D01*
X3418796Y-12992669D01*
X3418792Y-12992664D01*
X3405053Y-12974311D01*
X3380635Y-12908850D01*
X3395485Y-12840576D01*
X3405050Y-12825691D01*
X3418796Y-12807331D01*
X3469091Y-12672483D01*
X3475500Y-12612873D01*
X3475499Y-11917128D01*
X3469091Y-11857517D01*
X3447570Y-11799816D01*
X3418797Y-11722670D01*
X3418796Y-11722669D01*
X3405053Y-11704311D01*
X3380635Y-11638850D01*
X3395485Y-11570576D01*
X3405050Y-11555691D01*
X3418796Y-11537331D01*
X3469091Y-11402483D01*
X3475500Y-11342873D01*
X3475499Y-10647128D01*
X3469091Y-10587517D01*
X3469090Y-10587513D01*
X3418797Y-10452670D01*
X3418796Y-10452669D01*
X3412464Y-10444211D01*
X3405053Y-10434311D01*
X3380635Y-10368850D01*
X3395485Y-10300576D01*
X3405050Y-10285691D01*
X3418796Y-10267331D01*
X3469091Y-10132483D01*
X3475500Y-10072873D01*
X3475499Y-9377128D01*
X3469091Y-9317517D01*
X3418796Y-9182669D01*
X3418795Y-9182668D01*
X3418793Y-9182664D01*
X3332547Y-9067455D01*
X3332544Y-9067452D01*
X3217335Y-8981206D01*
X3217328Y-8981202D01*
X3082482Y-8930908D01*
X3082483Y-8930908D01*
X3022883Y-8924501D01*
X3022881Y-8924500D01*
X3022873Y-8924500D01*
X3022865Y-8924500D01*
X1807940Y-8924500D01*
X1740901Y-8904815D01*
X1730000Y-8896030D01*
X1730000Y-8600000D01*
X6579500Y-8600000D01*
X6579500Y-8921506D01*
G37*
%TD.AperFunction*%
%TD*%
%TA.AperFunction,NonConductor*%
G36*
X9958039Y-15019685D02*
G01*
X10003794Y-15072489D01*
X10015000Y-15124000D01*
X10015000Y-18876000D01*
X9995315Y-18943039D01*
X9942511Y-18988794D01*
X9891000Y-19000000D01*
X8639000Y-19000000D01*
X8571961Y-18980315D01*
X8526206Y-18927511D01*
X8515000Y-18876000D01*
X8515000Y-15124000D01*
X8534685Y-15056961D01*
X8587489Y-15011206D01*
X8639000Y-15000000D01*
X9891000Y-15000000D01*
X9958039Y-15019685D01*
G37*
%TD.AperFunction*%
%TA.AperFunction,NonConductor*%
G36*
X11958039Y-15019685D02*
G01*
X12003794Y-15072489D01*
X12015000Y-15124000D01*
X12015000Y-18876000D01*
X11995315Y-18943039D01*
X11942511Y-18988794D01*
X11891000Y-19000000D01*
X10639000Y-19000000D01*
X10571961Y-18980315D01*
X10526206Y-18927511D01*
X10515000Y-18876000D01*
X10515000Y-15124000D01*
X10534685Y-15056961D01*
X10587489Y-15011206D01*
X10639000Y-15000000D01*
X11891000Y-15000000D01*
X11958039Y-15019685D01*
G37*
%TD.AperFunction*%
%TA.AperFunction,NonConductor*%
G36*
X5958039Y-15019685D02*
G01*
X6003794Y-15072489D01*
X6015000Y-15124000D01*
X6015000Y-18876000D01*
X5995315Y-18943039D01*
X5942511Y-18988794D01*
X5891000Y-19000000D01*
X4639000Y-19000000D01*
X4571961Y-18980315D01*
X4526206Y-18927511D01*
X4515000Y-18876000D01*
X4515000Y-15124000D01*
X4534685Y-15056961D01*
X4587489Y-15011206D01*
X4639000Y-15000000D01*
X5891000Y-15000000D01*
X5958039Y-15019685D01*
G37*
%TD.AperFunction*%
%TA.AperFunction,NonConductor*%
G36*
X7958039Y-15019685D02*
G01*
X8003794Y-15072489D01*
X8015000Y-15124000D01*
X8015000Y-18876000D01*
X7995315Y-18943039D01*
X7942511Y-18988794D01*
X7891000Y-19000000D01*
X6639000Y-19000000D01*
X6571961Y-18980315D01*
X6526206Y-18927511D01*
X6515000Y-18876000D01*
X6515000Y-15124000D01*
X6534685Y-15056961D01*
X6587489Y-15011206D01*
X6639000Y-15000000D01*
X7891000Y-15000000D01*
X7958039Y-15019685D01*
G37*
%TD.AperFunction*%
M02*
