%TF.GenerationSoftware,KiCad,Pcbnew,8.0.2-1*%
%TF.CreationDate,2024-05-31T22:32:28-04:00*%
%TF.ProjectId,ez-servo,657a2d73-6572-4766-9f2e-6b696361645f,v0.0.0*%
%TF.SameCoordinates,Original*%
%TF.FileFunction,Copper,L4,Bot*%
%TF.FilePolarity,Positive*%
%FSLAX46Y46*%
G04 Gerber Fmt 4.6, Leading zero omitted, Abs format (unit mm)*
G04 Created by KiCad (PCBNEW 8.0.2-1) date 2024-05-31 22:32:28*
%MOMM*%
%LPD*%
G01*
G04 APERTURE LIST*
G04 Aperture macros list*
%AMRoundRect*
0 Rectangle with rounded corners*
0 $1 Rounding radius*
0 $2 $3 $4 $5 $6 $7 $8 $9 X,Y pos of 4 corners*
0 Add a 4 corners polygon primitive as box body*
4,1,4,$2,$3,$4,$5,$6,$7,$8,$9,$2,$3,0*
0 Add four circle primitives for the rounded corners*
1,1,$1+$1,$2,$3*
1,1,$1+$1,$4,$5*
1,1,$1+$1,$6,$7*
1,1,$1+$1,$8,$9*
0 Add four rect primitives between the rounded corners*
20,1,$1+$1,$2,$3,$4,$5,0*
20,1,$1+$1,$4,$5,$6,$7,0*
20,1,$1+$1,$6,$7,$8,$9,0*
20,1,$1+$1,$8,$9,$2,$3,0*%
G04 Aperture macros list end*
%TA.AperFunction,ComponentPad*%
%ADD10C,0.600000*%
%TD*%
%TA.AperFunction,SMDPad,CuDef*%
%ADD11R,2.950000X4.500000*%
%TD*%
%TA.AperFunction,SMDPad,CuDef*%
%ADD12RoundRect,0.250000X-0.250000X-0.475000X0.250000X-0.475000X0.250000X0.475000X-0.250000X0.475000X0*%
%TD*%
%TA.AperFunction,SMDPad,CuDef*%
%ADD13RoundRect,0.250000X0.650000X-1.000000X0.650000X1.000000X-0.650000X1.000000X-0.650000X-1.000000X0*%
%TD*%
%TA.AperFunction,ComponentPad*%
%ADD14O,1.700000X1.700000*%
%TD*%
%TA.AperFunction,ComponentPad*%
%ADD15R,1.700000X1.700000*%
%TD*%
%TA.AperFunction,SMDPad,CuDef*%
%ADD16RoundRect,0.250000X-0.450000X0.350000X-0.450000X-0.350000X0.450000X-0.350000X0.450000X0.350000X0*%
%TD*%
%TA.AperFunction,ViaPad*%
%ADD17C,0.600000*%
%TD*%
%TA.AperFunction,Conductor*%
%ADD18C,0.200000*%
%TD*%
%TA.AperFunction,Conductor*%
%ADD19C,1.000000*%
%TD*%
G04 APERTURE END LIST*
D10*
%TO.P,U1,9,GNDPAD*%
%TO.N,GND*%
X29300000Y-34830000D03*
X29300000Y-36030000D03*
X29300000Y-37330000D03*
X29300000Y-38430000D03*
D11*
X29900000Y-36630000D03*
D10*
X30500000Y-34830000D03*
X30500000Y-36030000D03*
X30500000Y-37330000D03*
X30500000Y-38430000D03*
%TD*%
D12*
%TO.P,C2,1*%
%TO.N,Net-(U1-BOOT)*%
X33700000Y-33240000D03*
%TO.P,C2,2*%
%TO.N,Net-(C2-Pad2)*%
X35600000Y-33240000D03*
%TD*%
D13*
%TO.P,D1,1,K*%
%TO.N,VOUT*%
X34410000Y-30760000D03*
%TO.P,D1,2,A*%
%TO.N,GND*%
X34410000Y-26760000D03*
%TD*%
D14*
%TO.P,J2,3,Pin_3*%
%TO.N,GND*%
X29150000Y-31930000D03*
%TO.P,J2,2,Pin_2*%
%TO.N,VOUT*%
X29150000Y-29390000D03*
D15*
%TO.P,J2,1,Pin_1*%
%TO.N,SERVO_PWM*%
X29150000Y-26850000D03*
%TD*%
%TO.P,J3,1,Pin_1*%
%TO.N,8_4V*%
X43200000Y-35930000D03*
D14*
%TO.P,J3,2,Pin_2*%
%TO.N,SENSE*%
X40660000Y-35930000D03*
%TO.P,J3,3,Pin_3*%
%TO.N,6V*%
X38120000Y-35930000D03*
%TD*%
D16*
%TO.P,R2,1*%
%TO.N,SENSE*%
X35400000Y-35070000D03*
%TO.P,R2,2*%
%TO.N,GND*%
X35400000Y-37070000D03*
%TD*%
D17*
%TO.N,GND*%
X36600000Y-32640000D03*
X36560000Y-37080000D03*
%TO.N,VOUT*%
X35360000Y-29780000D03*
X41159265Y-33950735D03*
%TO.N,GND*%
X40300000Y-39500000D03*
X33070000Y-26700000D03*
%TO.N,SENSE*%
X39290000Y-34930000D03*
X26170000Y-38030000D03*
%TO.N,Net-(C2-Pad2)*%
X39190001Y-33122829D03*
X43910000Y-31080000D03*
X41050000Y-32930823D03*
%TO.N,Net-(U1-BOOT)*%
X26170000Y-34470000D03*
%TO.N,+24V*%
X42300000Y-38800000D03*
X42300000Y-39500000D03*
X33640000Y-36170000D03*
%TD*%
D18*
%TO.N,Net-(C2-Pad2)*%
X43840000Y-32520000D02*
X43840000Y-31150000D01*
X41050000Y-32930823D02*
X41080279Y-32900544D01*
X41080279Y-32900544D02*
X43459456Y-32900544D01*
X43459456Y-32900544D02*
X43840000Y-32520000D01*
X43840000Y-31150000D02*
X43910000Y-31080000D01*
%TO.N,SENSE*%
X39290000Y-34930000D02*
X39137171Y-34777171D01*
X39137171Y-34777171D02*
X35761483Y-34777171D01*
X35761483Y-34777171D02*
X35551154Y-34987500D01*
X35551154Y-34987500D02*
X35400000Y-34987500D01*
%TO.N,SERVO_PWM*%
X29150000Y-26850000D02*
X31260000Y-26850000D01*
X31260000Y-26850000D02*
X33590000Y-29180000D01*
X41940000Y-35580000D02*
X41940000Y-37010000D01*
X33590000Y-29180000D02*
X36430000Y-29180000D01*
X41940000Y-37010000D02*
X40900000Y-38050000D01*
X40370000Y-33120000D02*
X40370000Y-34010000D01*
X36430000Y-29180000D02*
X40370000Y-33120000D01*
X40370000Y-34010000D02*
X41940000Y-35580000D01*
X40900000Y-38050000D02*
X40900000Y-40300000D01*
%TO.N,Net-(C2-Pad2)*%
X39190001Y-33122829D02*
X39072830Y-33240000D01*
X39072830Y-33240000D02*
X35600000Y-33240000D01*
D19*
%TO.N,VOUT*%
X31965000Y-29390000D02*
X33335000Y-30760000D01*
X29150000Y-29390000D02*
X31965000Y-29390000D01*
X33335000Y-30760000D02*
X34410000Y-30760000D01*
D18*
%TO.N,SENSE*%
X27925686Y-33610000D02*
X32550000Y-33610000D01*
X32550000Y-33610000D02*
X33907500Y-34967500D01*
X33907500Y-34967500D02*
X35400000Y-34967500D01*
X26170000Y-38030000D02*
X26170000Y-35365686D01*
X26170000Y-35365686D02*
X27925686Y-33610000D01*
%TO.N,Net-(C2-Pad2)*%
X35600000Y-33230000D02*
X35620000Y-33210000D01*
X35600000Y-33240000D02*
X35600000Y-33230000D01*
%TO.N,Net-(U1-BOOT)*%
X26170000Y-34460000D02*
X27420000Y-33210000D01*
X26170000Y-34470000D02*
X26170000Y-34460000D01*
X27420000Y-33210000D02*
X33720000Y-33210000D01*
%TD*%
%TA.AperFunction,Conductor*%
%TO.N,GND*%
G36*
X26730000Y-39390000D02*
G01*
X25624500Y-39390000D01*
X25557461Y-39370315D01*
X25511706Y-39317511D01*
X25500500Y-39266000D01*
X25500500Y-38779094D01*
X25520185Y-38712055D01*
X25572989Y-38666300D01*
X25642147Y-38656356D01*
X25690471Y-38674100D01*
X25725121Y-38695872D01*
X25820475Y-38755788D01*
X25990745Y-38815368D01*
X25990750Y-38815369D01*
X26169996Y-38835565D01*
X26170000Y-38835565D01*
X26170004Y-38835565D01*
X26349249Y-38815369D01*
X26349252Y-38815368D01*
X26349255Y-38815368D01*
X26519522Y-38755789D01*
X26672262Y-38659816D01*
X26730000Y-38602078D01*
X26730000Y-39390000D01*
G37*
%TD.AperFunction*%
%TA.AperFunction,Conductor*%
G36*
X36708706Y-35664846D02*
G01*
X36759910Y-35712385D01*
X36777284Y-35780060D01*
X36776885Y-35786615D01*
X36764341Y-35929997D01*
X36764341Y-35930000D01*
X36784936Y-36165403D01*
X36784938Y-36165413D01*
X36846094Y-36393655D01*
X36846096Y-36393659D01*
X36846097Y-36393663D01*
X36929358Y-36572217D01*
X36945965Y-36607830D01*
X36945967Y-36607834D01*
X37054281Y-36762521D01*
X37081505Y-36801401D01*
X37248599Y-36968495D01*
X37303643Y-37007037D01*
X37442165Y-37104032D01*
X37442167Y-37104033D01*
X37442170Y-37104035D01*
X37656337Y-37203903D01*
X37656343Y-37203904D01*
X37656344Y-37203905D01*
X37711285Y-37218626D01*
X37884592Y-37265063D01*
X38072918Y-37281539D01*
X38119999Y-37285659D01*
X38120000Y-37285659D01*
X38120001Y-37285659D01*
X38159234Y-37282226D01*
X38355408Y-37265063D01*
X38583663Y-37203903D01*
X38797830Y-37104035D01*
X38991401Y-36968495D01*
X39158495Y-36801401D01*
X39288425Y-36615842D01*
X39343002Y-36572217D01*
X39412500Y-36565023D01*
X39474855Y-36596546D01*
X39491575Y-36615842D01*
X39621500Y-36801395D01*
X39621505Y-36801401D01*
X39788599Y-36968495D01*
X39843643Y-37007037D01*
X39982165Y-37104032D01*
X39982167Y-37104033D01*
X39982170Y-37104035D01*
X40196337Y-37203903D01*
X40196343Y-37203904D01*
X40196344Y-37203905D01*
X40251285Y-37218626D01*
X40424592Y-37265063D01*
X40537722Y-37274960D01*
X40602789Y-37300412D01*
X40643768Y-37357003D01*
X40647646Y-37426765D01*
X40614595Y-37486169D01*
X40531286Y-37569478D01*
X40419481Y-37681282D01*
X40419479Y-37681285D01*
X40369361Y-37768094D01*
X40369359Y-37768096D01*
X40340425Y-37818209D01*
X40340424Y-37818210D01*
X40340423Y-37818215D01*
X40299499Y-37970943D01*
X40299499Y-37970945D01*
X40299499Y-38139046D01*
X40299500Y-38139059D01*
X40299500Y-39266000D01*
X40279815Y-39333039D01*
X40227011Y-39378794D01*
X40175500Y-39390000D01*
X33280000Y-39390000D01*
X33280000Y-37469986D01*
X34200001Y-37469986D01*
X34210494Y-37572697D01*
X34265641Y-37739119D01*
X34265643Y-37739124D01*
X34357684Y-37888345D01*
X34481654Y-38012315D01*
X34630875Y-38104356D01*
X34630880Y-38104358D01*
X34797302Y-38159505D01*
X34797309Y-38159506D01*
X34900019Y-38169999D01*
X35149999Y-38169999D01*
X35650000Y-38169999D01*
X35899972Y-38169999D01*
X35899986Y-38169998D01*
X36002697Y-38159505D01*
X36169119Y-38104358D01*
X36169124Y-38104356D01*
X36318345Y-38012315D01*
X36442315Y-37888345D01*
X36534356Y-37739124D01*
X36534358Y-37739119D01*
X36589505Y-37572697D01*
X36589506Y-37572690D01*
X36599999Y-37469986D01*
X36600000Y-37469973D01*
X36600000Y-37320000D01*
X35650000Y-37320000D01*
X35650000Y-38169999D01*
X35149999Y-38169999D01*
X35150000Y-38169998D01*
X35150000Y-37320000D01*
X34200001Y-37320000D01*
X34200001Y-37469986D01*
X33280000Y-37469986D01*
X33280000Y-36889205D01*
X33290478Y-36895789D01*
X33460745Y-36955368D01*
X33460750Y-36955369D01*
X33639996Y-36975565D01*
X33640000Y-36975565D01*
X33640004Y-36975565D01*
X33819249Y-36955369D01*
X33819252Y-36955368D01*
X33819255Y-36955368D01*
X33989522Y-36895789D01*
X34081594Y-36837935D01*
X34148831Y-36818935D01*
X34152326Y-36820000D01*
X36599999Y-36820000D01*
X36599999Y-36670028D01*
X36599998Y-36670013D01*
X36589505Y-36567302D01*
X36534358Y-36400880D01*
X36534356Y-36400875D01*
X36442315Y-36251654D01*
X36348695Y-36158034D01*
X36315210Y-36096711D01*
X36320194Y-36027019D01*
X36348691Y-35982676D01*
X36442712Y-35888656D01*
X36534814Y-35739334D01*
X36535650Y-35736811D01*
X36536690Y-35735308D01*
X36537864Y-35732791D01*
X36538294Y-35732991D01*
X36575415Y-35679366D01*
X36639929Y-35652537D01*
X36708706Y-35664846D01*
G37*
%TD.AperFunction*%
%TA.AperFunction,Conductor*%
G36*
X33332054Y-35241289D02*
G01*
X33365539Y-35302612D01*
X33360555Y-35372304D01*
X33318683Y-35428237D01*
X33296271Y-35440189D01*
X33296753Y-35441188D01*
X33290483Y-35444207D01*
X33280000Y-35450793D01*
X33280000Y-35189235D01*
X33332054Y-35241289D01*
G37*
%TD.AperFunction*%
%TA.AperFunction,Conductor*%
G36*
X27868038Y-25520185D02*
G01*
X27913793Y-25572989D01*
X27923737Y-25642147D01*
X27900265Y-25698810D01*
X27891877Y-25710016D01*
X27856204Y-25757668D01*
X27856202Y-25757671D01*
X27805908Y-25892517D01*
X27799501Y-25952116D01*
X27799501Y-25952123D01*
X27799500Y-25952135D01*
X27799500Y-27747870D01*
X27799501Y-27747876D01*
X27805908Y-27807483D01*
X27856202Y-27942328D01*
X27856206Y-27942335D01*
X27942452Y-28057544D01*
X27942455Y-28057547D01*
X28057664Y-28143793D01*
X28057671Y-28143797D01*
X28189081Y-28192810D01*
X28245015Y-28234681D01*
X28269432Y-28300145D01*
X28254580Y-28368418D01*
X28233430Y-28396673D01*
X28111503Y-28518600D01*
X27975965Y-28712169D01*
X27975964Y-28712171D01*
X27876098Y-28926335D01*
X27876094Y-28926344D01*
X27814938Y-29154586D01*
X27814936Y-29154596D01*
X27794341Y-29389999D01*
X27794341Y-29390000D01*
X27814936Y-29625403D01*
X27814938Y-29625413D01*
X27876094Y-29853655D01*
X27876096Y-29853659D01*
X27876097Y-29853663D01*
X27925336Y-29959255D01*
X27975965Y-30067830D01*
X27975967Y-30067834D01*
X28111501Y-30261395D01*
X28111506Y-30261402D01*
X28278597Y-30428493D01*
X28278603Y-30428498D01*
X28464594Y-30558730D01*
X28508219Y-30613307D01*
X28515413Y-30682805D01*
X28483890Y-30745160D01*
X28464595Y-30761880D01*
X28278922Y-30891890D01*
X28278920Y-30891891D01*
X28111891Y-31058920D01*
X28111886Y-31058926D01*
X27976400Y-31252420D01*
X27976399Y-31252422D01*
X27876570Y-31466507D01*
X27876567Y-31466513D01*
X27819364Y-31679999D01*
X27819364Y-31680000D01*
X28716988Y-31680000D01*
X28684075Y-31737007D01*
X28650000Y-31864174D01*
X28650000Y-31995826D01*
X28684075Y-32122993D01*
X28716988Y-32180000D01*
X27819364Y-32180000D01*
X27876567Y-32393486D01*
X27876569Y-32393492D01*
X27895037Y-32433095D01*
X27905529Y-32502172D01*
X27877009Y-32565956D01*
X27818533Y-32604196D01*
X27782655Y-32609500D01*
X27506669Y-32609500D01*
X27506653Y-32609499D01*
X27499057Y-32609499D01*
X27340943Y-32609499D01*
X27239556Y-32636666D01*
X27188210Y-32650424D01*
X27188209Y-32650425D01*
X27138096Y-32679359D01*
X27138095Y-32679360D01*
X27094689Y-32704420D01*
X27051285Y-32729479D01*
X27051282Y-32729481D01*
X26939478Y-32841286D01*
X26140195Y-33640568D01*
X26078872Y-33674053D01*
X26066398Y-33676107D01*
X25990750Y-33684630D01*
X25820478Y-33744210D01*
X25690472Y-33825899D01*
X25623235Y-33844899D01*
X25556400Y-33824531D01*
X25511186Y-33771263D01*
X25500500Y-33720905D01*
X25500500Y-25624500D01*
X25520185Y-25557461D01*
X25572989Y-25511706D01*
X25624500Y-25500500D01*
X27800999Y-25500500D01*
X27868038Y-25520185D01*
G37*
%TD.AperFunction*%
%TA.AperFunction,Conductor*%
G36*
X36310065Y-29917446D02*
G01*
X36340552Y-29939787D01*
X38704323Y-32303558D01*
X38737808Y-32364881D01*
X38732824Y-32434573D01*
X38692740Y-32488117D01*
X38693183Y-32488672D01*
X38691053Y-32490369D01*
X38690952Y-32490506D01*
X38690453Y-32490848D01*
X38687741Y-32493011D01*
X38577570Y-32603182D01*
X38516247Y-32636666D01*
X38489889Y-32639500D01*
X36688585Y-32639500D01*
X36621546Y-32619815D01*
X36575791Y-32567011D01*
X36570879Y-32554504D01*
X36534814Y-32445666D01*
X36442712Y-32296344D01*
X36318656Y-32172288D01*
X36169334Y-32080186D01*
X36002797Y-32025001D01*
X36002795Y-32025000D01*
X35914106Y-32015940D01*
X35849415Y-31989544D01*
X35809263Y-31932363D01*
X35803351Y-31879981D01*
X35810500Y-31810009D01*
X35810499Y-30510809D01*
X35830184Y-30443771D01*
X35857194Y-30413857D01*
X35862257Y-30409818D01*
X35862262Y-30409816D01*
X35989816Y-30282262D01*
X36085789Y-30129522D01*
X36135830Y-29986512D01*
X36176551Y-29929738D01*
X36241503Y-29903990D01*
X36310065Y-29917446D01*
G37*
%TD.AperFunction*%
%TA.AperFunction,Conductor*%
G36*
X31566257Y-30410185D02*
G01*
X31586899Y-30426819D01*
X32697215Y-31537137D01*
X32697223Y-31537143D01*
X32861084Y-31646631D01*
X32861087Y-31646633D01*
X32932952Y-31676400D01*
X32987356Y-31720240D01*
X33009421Y-31786534D01*
X33009500Y-31790955D01*
X33009500Y-31809998D01*
X33009501Y-31810019D01*
X33020000Y-31912796D01*
X33037451Y-31965460D01*
X33053995Y-32015384D01*
X33056397Y-32085211D01*
X33020666Y-32145253D01*
X33001387Y-32159925D01*
X32981344Y-32172287D01*
X32857289Y-32296342D01*
X32765187Y-32445663D01*
X32765185Y-32445668D01*
X32739062Y-32524504D01*
X32699289Y-32581949D01*
X32634773Y-32608772D01*
X32621356Y-32609500D01*
X30517345Y-32609500D01*
X30450306Y-32589815D01*
X30404551Y-32537011D01*
X30394607Y-32467853D01*
X30404963Y-32433095D01*
X30423430Y-32393492D01*
X30423432Y-32393486D01*
X30480636Y-32180000D01*
X29583012Y-32180000D01*
X29615925Y-32122993D01*
X29650000Y-31995826D01*
X29650000Y-31864174D01*
X29615925Y-31737007D01*
X29583012Y-31680000D01*
X30480636Y-31680000D01*
X30480635Y-31679999D01*
X30423432Y-31466513D01*
X30423429Y-31466507D01*
X30323600Y-31252422D01*
X30323599Y-31252420D01*
X30188113Y-31058926D01*
X30188108Y-31058920D01*
X30021078Y-30891890D01*
X29835405Y-30761879D01*
X29791780Y-30707302D01*
X29784588Y-30637804D01*
X29816110Y-30575449D01*
X29835406Y-30558730D01*
X29903843Y-30510810D01*
X30021401Y-30428495D01*
X30023077Y-30426819D01*
X30023995Y-30426317D01*
X30025544Y-30425018D01*
X30025805Y-30425329D01*
X30084400Y-30393334D01*
X30110758Y-30390500D01*
X31499218Y-30390500D01*
X31566257Y-30410185D01*
G37*
%TD.AperFunction*%
%TA.AperFunction,Conductor*%
G36*
X32961131Y-25520185D02*
G01*
X33006886Y-25572989D01*
X33017450Y-25637104D01*
X33010000Y-25710016D01*
X33010000Y-26510000D01*
X35809999Y-26510000D01*
X35809999Y-25710028D01*
X35809998Y-25710013D01*
X35802550Y-25637102D01*
X35815320Y-25568409D01*
X35863200Y-25517525D01*
X35925908Y-25500500D01*
X44375500Y-25500500D01*
X44442539Y-25520185D01*
X44488294Y-25572989D01*
X44499500Y-25624500D01*
X44499500Y-30280637D01*
X44479815Y-30347676D01*
X44427011Y-30393431D01*
X44357853Y-30403375D01*
X44309529Y-30385631D01*
X44259525Y-30354212D01*
X44089254Y-30294631D01*
X44089249Y-30294630D01*
X43910004Y-30274435D01*
X43909996Y-30274435D01*
X43730750Y-30294630D01*
X43730745Y-30294631D01*
X43560476Y-30354211D01*
X43407737Y-30450184D01*
X43280184Y-30577737D01*
X43184211Y-30730476D01*
X43124631Y-30900745D01*
X43124630Y-30900750D01*
X43104435Y-31079996D01*
X43104435Y-31080003D01*
X43124630Y-31259249D01*
X43124631Y-31259254D01*
X43184210Y-31429520D01*
X43184211Y-31429522D01*
X43220493Y-31487265D01*
X43239500Y-31553235D01*
X43239500Y-32176044D01*
X43219815Y-32243083D01*
X43167011Y-32288838D01*
X43115500Y-32300044D01*
X41586453Y-32300044D01*
X41520481Y-32281038D01*
X41504927Y-32271265D01*
X41399522Y-32205034D01*
X41229254Y-32145454D01*
X41229249Y-32145453D01*
X41050004Y-32125258D01*
X41049996Y-32125258D01*
X40870750Y-32145453D01*
X40870745Y-32145454D01*
X40700476Y-32205034D01*
X40595072Y-32271265D01*
X40555163Y-32296342D01*
X40541842Y-32304712D01*
X40540314Y-32302281D01*
X40487490Y-32323777D01*
X40418809Y-32310942D01*
X40387323Y-32288088D01*
X36917590Y-28818355D01*
X36917588Y-28818352D01*
X36798717Y-28699481D01*
X36798716Y-28699480D01*
X36711904Y-28649360D01*
X36711904Y-28649359D01*
X36711900Y-28649358D01*
X36661785Y-28620423D01*
X36509057Y-28579499D01*
X36350943Y-28579499D01*
X36343347Y-28579499D01*
X36343331Y-28579500D01*
X35597260Y-28579500D01*
X35530221Y-28559815D01*
X35484466Y-28507011D01*
X35474522Y-28437853D01*
X35503547Y-28374297D01*
X35523258Y-28357533D01*
X35522677Y-28356798D01*
X35528344Y-28352316D01*
X35652315Y-28228345D01*
X35744356Y-28079124D01*
X35744358Y-28079119D01*
X35799505Y-27912697D01*
X35799506Y-27912690D01*
X35809999Y-27809986D01*
X35810000Y-27809973D01*
X35810000Y-27010000D01*
X33010000Y-27010000D01*
X33010000Y-27451403D01*
X32990315Y-27518443D01*
X32937511Y-27564197D01*
X32868353Y-27574141D01*
X32804797Y-27545116D01*
X32798326Y-27539090D01*
X31747589Y-26488354D01*
X31747588Y-26488352D01*
X31628717Y-26369481D01*
X31628716Y-26369480D01*
X31541904Y-26319360D01*
X31541904Y-26319359D01*
X31541900Y-26319358D01*
X31491785Y-26290423D01*
X31339057Y-26249499D01*
X31180943Y-26249499D01*
X31173347Y-26249499D01*
X31173331Y-26249500D01*
X30624499Y-26249500D01*
X30557460Y-26229815D01*
X30511705Y-26177011D01*
X30500499Y-26125500D01*
X30500499Y-25952129D01*
X30500498Y-25952123D01*
X30500497Y-25952116D01*
X30494091Y-25892517D01*
X30443796Y-25757669D01*
X30399734Y-25698810D01*
X30375317Y-25633348D01*
X30390168Y-25565075D01*
X30439573Y-25515669D01*
X30499001Y-25500500D01*
X32894092Y-25500500D01*
X32961131Y-25520185D01*
G37*
%TD.AperFunction*%
%TD*%
%TA.AperFunction,NonConductor*%
G36*
X38958039Y-40019685D02*
G01*
X39003794Y-40072489D01*
X39015000Y-40124000D01*
X39015000Y-43876000D01*
X38995315Y-43943039D01*
X38942511Y-43988794D01*
X38891000Y-44000000D01*
X37639000Y-44000000D01*
X37571961Y-43980315D01*
X37526206Y-43927511D01*
X37515000Y-43876000D01*
X37515000Y-40124000D01*
X37534685Y-40056961D01*
X37587489Y-40011206D01*
X37639000Y-40000000D01*
X38891000Y-40000000D01*
X38958039Y-40019685D01*
G37*
%TD.AperFunction*%
%TA.AperFunction,Conductor*%
%TO.N,GND*%
G36*
X32316942Y-34230185D02*
G01*
X32337584Y-34246819D01*
X33280000Y-35189235D01*
X33280000Y-35450793D01*
X33137737Y-35540184D01*
X33010184Y-35667737D01*
X32914211Y-35820476D01*
X32854631Y-35990745D01*
X32854630Y-35990750D01*
X32834435Y-36169996D01*
X32834435Y-36170003D01*
X32854630Y-36349249D01*
X32854631Y-36349254D01*
X32914211Y-36519523D01*
X33010184Y-36672262D01*
X33137738Y-36799816D01*
X33280000Y-36889205D01*
X33280000Y-39390000D01*
X33266433Y-39390000D01*
X33234996Y-39407166D01*
X33208638Y-39410000D01*
X26801362Y-39410000D01*
X26734323Y-39390315D01*
X26733932Y-39390000D01*
X26730000Y-39390000D01*
X26730000Y-38602078D01*
X26799816Y-38532262D01*
X26895789Y-38379522D01*
X26955368Y-38209255D01*
X26975565Y-38030000D01*
X26955368Y-37850745D01*
X26895789Y-37680478D01*
X26799816Y-37527738D01*
X26799814Y-37527736D01*
X26799813Y-37527734D01*
X26797550Y-37524896D01*
X26796659Y-37522715D01*
X26796111Y-37521842D01*
X26796264Y-37521745D01*
X26771144Y-37460209D01*
X26770500Y-37447587D01*
X26770500Y-35665783D01*
X26790185Y-35598744D01*
X26806819Y-35578102D01*
X28138102Y-34246819D01*
X28199425Y-34213334D01*
X28225783Y-34210500D01*
X32249903Y-34210500D01*
X32316942Y-34230185D01*
G37*
%TD.AperFunction*%
%TD*%
%TA.AperFunction,NonConductor*%
G36*
X34958039Y-40019685D02*
G01*
X35003794Y-40072489D01*
X35015000Y-40124000D01*
X35015000Y-43876000D01*
X34995315Y-43943039D01*
X34942511Y-43988794D01*
X34891000Y-44000000D01*
X33639000Y-44000000D01*
X33571961Y-43980315D01*
X33526206Y-43927511D01*
X33515000Y-43876000D01*
X33515000Y-40124000D01*
X33534685Y-40056961D01*
X33587489Y-40011206D01*
X33639000Y-40000000D01*
X34891000Y-40000000D01*
X34958039Y-40019685D01*
G37*
%TD.AperFunction*%
%TA.AperFunction,NonConductor*%
G36*
X36958039Y-40019685D02*
G01*
X37003794Y-40072489D01*
X37015000Y-40124000D01*
X37015000Y-43876000D01*
X36995315Y-43943039D01*
X36942511Y-43988794D01*
X36891000Y-44000000D01*
X35639000Y-44000000D01*
X35571961Y-43980315D01*
X35526206Y-43927511D01*
X35515000Y-43876000D01*
X35515000Y-40124000D01*
X35534685Y-40056961D01*
X35587489Y-40011206D01*
X35639000Y-40000000D01*
X36891000Y-40000000D01*
X36958039Y-40019685D01*
G37*
%TD.AperFunction*%
%TA.AperFunction,NonConductor*%
G36*
X30958039Y-40019685D02*
G01*
X31003794Y-40072489D01*
X31015000Y-40124000D01*
X31015000Y-43876000D01*
X30995315Y-43943039D01*
X30942511Y-43988794D01*
X30891000Y-44000000D01*
X29639000Y-44000000D01*
X29571961Y-43980315D01*
X29526206Y-43927511D01*
X29515000Y-43876000D01*
X29515000Y-40124000D01*
X29534685Y-40056961D01*
X29587489Y-40011206D01*
X29639000Y-40000000D01*
X30891000Y-40000000D01*
X30958039Y-40019685D01*
G37*
%TD.AperFunction*%
%TA.AperFunction,NonConductor*%
G36*
X32958039Y-40019685D02*
G01*
X33003794Y-40072489D01*
X33015000Y-40124000D01*
X33015000Y-43876000D01*
X32995315Y-43943039D01*
X32942511Y-43988794D01*
X32891000Y-44000000D01*
X31639000Y-44000000D01*
X31571961Y-43980315D01*
X31526206Y-43927511D01*
X31515000Y-43876000D01*
X31515000Y-40124000D01*
X31534685Y-40056961D01*
X31587489Y-40011206D01*
X31639000Y-40000000D01*
X32891000Y-40000000D01*
X32958039Y-40019685D01*
G37*
%TD.AperFunction*%
%TA.AperFunction,NonConductor*%
G36*
X28943039Y-40019685D02*
G01*
X28988794Y-40072489D01*
X29000000Y-40124000D01*
X29000000Y-43876000D01*
X28980315Y-43943039D01*
X28927511Y-43988794D01*
X28876000Y-44000000D01*
X27624000Y-44000000D01*
X27556961Y-43980315D01*
X27511206Y-43927511D01*
X27500000Y-43876000D01*
X27500000Y-40124000D01*
X27519685Y-40056961D01*
X27572489Y-40011206D01*
X27624000Y-40000000D01*
X28876000Y-40000000D01*
X28943039Y-40019685D01*
G37*
%TD.AperFunction*%
%TA.AperFunction,Conductor*%
%TO.N,SERVO_PWM*%
G36*
X40222684Y-40000500D02*
G01*
X40228039Y-40000500D01*
X40377316Y-40000500D01*
X40384307Y-40000000D01*
X40891000Y-40000000D01*
X40958039Y-40019685D01*
X41003794Y-40072489D01*
X41015000Y-40124000D01*
X41015000Y-43876000D01*
X40995315Y-43943039D01*
X40942511Y-43988794D01*
X40891000Y-44000000D01*
X39639000Y-44000000D01*
X39571961Y-43980315D01*
X39526206Y-43927511D01*
X39515000Y-43876000D01*
X39515000Y-40124000D01*
X39534685Y-40056961D01*
X39587489Y-40011206D01*
X39639000Y-40000000D01*
X40215693Y-40000000D01*
X40222684Y-40000500D01*
G37*
%TD.AperFunction*%
%TD*%
%TA.AperFunction,NonConductor*%
G36*
X42222684Y-40000500D02*
G01*
X42228039Y-40000500D01*
X42377316Y-40000500D01*
X42384307Y-40000000D01*
X42890500Y-40000000D01*
X42957539Y-40019685D01*
X43003294Y-40072489D01*
X43014500Y-40124000D01*
X43014500Y-43876000D01*
X42994815Y-43943039D01*
X42942011Y-43988794D01*
X42890500Y-44000000D01*
X41639000Y-44000000D01*
X41571961Y-43980315D01*
X41526206Y-43927511D01*
X41515000Y-43876000D01*
X41515000Y-40124000D01*
X41534685Y-40056961D01*
X41587489Y-40011206D01*
X41639000Y-40000000D01*
X42215693Y-40000000D01*
X42222684Y-40000500D01*
G37*
%TD.AperFunction*%
M02*
