%TF.GenerationSoftware,KiCad,Pcbnew,8.0.2-1*%
%TF.CreationDate,2024-05-27T23:14:56-04:00*%
%TF.ProjectId,checkpoint,63686563-6b70-46f6-996e-742e6b696361,v1.1*%
%TF.SameCoordinates,Original*%
%TF.FileFunction,Legend,Top*%
%TF.FilePolarity,Positive*%
%FSLAX46Y46*%
G04 Gerber Fmt 4.6, Leading zero omitted, Abs format (unit mm)*
G04 Created by KiCad (PCBNEW 8.0.2-1) date 2024-05-27 23:14:56*
%MOMM*%
%LPD*%
G01*
G04 APERTURE LIST*
G04 Aperture macros list*
%AMRoundRect*
0 Rectangle with rounded corners*
0 $1 Rounding radius*
0 $2 $3 $4 $5 $6 $7 $8 $9 X,Y pos of 4 corners*
0 Add a 4 corners polygon primitive as box body*
4,1,4,$2,$3,$4,$5,$6,$7,$8,$9,$2,$3,0*
0 Add four circle primitives for the rounded corners*
1,1,$1+$1,$2,$3*
1,1,$1+$1,$4,$5*
1,1,$1+$1,$6,$7*
1,1,$1+$1,$8,$9*
0 Add four rect primitives between the rounded corners*
20,1,$1+$1,$2,$3,$4,$5,0*
20,1,$1+$1,$4,$5,$6,$7,0*
20,1,$1+$1,$6,$7,$8,$9,0*
20,1,$1+$1,$8,$9,$2,$3,0*%
%AMHorizOval*
0 Thick line with rounded ends*
0 $1 width*
0 $2 $3 position (X,Y) of the first rounded end (center of the circle)*
0 $4 $5 position (X,Y) of the second rounded end (center of the circle)*
0 Add line between two ends*
20,1,$1,$2,$3,$4,$5,0*
0 Add two circle primitives to create the rounded ends*
1,1,$1,$2,$3*
1,1,$1,$4,$5*%
G04 Aperture macros list end*
%ADD10C,0.200000*%
%ADD11C,0.150000*%
%ADD12C,0.120000*%
%ADD13C,0.100000*%
%ADD14RoundRect,0.250000X0.750000X-0.600000X0.750000X0.600000X-0.750000X0.600000X-0.750000X-0.600000X0*%
%ADD15O,2.000000X1.700000*%
%ADD16RoundRect,0.140000X0.140000X0.170000X-0.140000X0.170000X-0.140000X-0.170000X0.140000X-0.170000X0*%
%ADD17RoundRect,0.200000X0.275000X-0.200000X0.275000X0.200000X-0.275000X0.200000X-0.275000X-0.200000X0*%
%ADD18RoundRect,0.250000X0.475000X-0.250000X0.475000X0.250000X-0.475000X0.250000X-0.475000X-0.250000X0*%
%ADD19RoundRect,0.200000X0.200000X0.275000X-0.200000X0.275000X-0.200000X-0.275000X0.200000X-0.275000X0*%
%ADD20R,1.700000X1.700000*%
%ADD21O,1.700000X1.700000*%
%ADD22RoundRect,0.075000X-0.075000X0.337500X-0.075000X-0.337500X0.075000X-0.337500X0.075000X0.337500X0*%
%ADD23RoundRect,0.075000X-0.337500X0.075000X-0.337500X-0.075000X0.337500X-0.075000X0.337500X0.075000X0*%
%ADD24R,3.250000X3.250000*%
%ADD25RoundRect,0.250000X-0.475000X0.250000X-0.475000X-0.250000X0.475000X-0.250000X0.475000X0.250000X0*%
%ADD26RoundRect,0.093750X-0.093750X0.156250X-0.093750X-0.156250X0.093750X-0.156250X0.093750X0.156250X0*%
%ADD27RoundRect,0.075000X-0.075000X0.250000X-0.075000X-0.250000X0.075000X-0.250000X0.075000X0.250000X0*%
%ADD28RoundRect,0.225000X0.225000X0.250000X-0.225000X0.250000X-0.225000X-0.250000X0.225000X-0.250000X0*%
%ADD29RoundRect,0.140000X-0.170000X0.140000X-0.170000X-0.140000X0.170000X-0.140000X0.170000X0.140000X0*%
%ADD30RoundRect,0.250000X0.650000X-1.000000X0.650000X1.000000X-0.650000X1.000000X-0.650000X-1.000000X0*%
%ADD31RoundRect,0.200000X-0.200000X-0.275000X0.200000X-0.275000X0.200000X0.275000X-0.200000X0.275000X0*%
%ADD32RoundRect,0.150000X0.150000X-0.587500X0.150000X0.587500X-0.150000X0.587500X-0.150000X-0.587500X0*%
%ADD33RoundRect,0.243750X-0.456250X0.243750X-0.456250X-0.243750X0.456250X-0.243750X0.456250X0.243750X0*%
%ADD34RoundRect,0.140000X-0.140000X-0.170000X0.140000X-0.170000X0.140000X0.170000X-0.140000X0.170000X0*%
%ADD35RoundRect,0.250000X-0.650000X0.325000X-0.650000X-0.325000X0.650000X-0.325000X0.650000X0.325000X0*%
%ADD36RoundRect,0.250000X-0.750000X0.600000X-0.750000X-0.600000X0.750000X-0.600000X0.750000X0.600000X0*%
%ADD37RoundRect,0.218750X0.218750X0.256250X-0.218750X0.256250X-0.218750X-0.256250X0.218750X-0.256250X0*%
%ADD38RoundRect,0.075000X0.662500X0.075000X-0.662500X0.075000X-0.662500X-0.075000X0.662500X-0.075000X0*%
%ADD39RoundRect,0.075000X0.075000X0.662500X-0.075000X0.662500X-0.075000X-0.662500X0.075000X-0.662500X0*%
%ADD40R,2.600000X2.600000*%
%ADD41C,2.600000*%
%ADD42RoundRect,0.150000X-0.150000X0.587500X-0.150000X-0.587500X0.150000X-0.587500X0.150000X0.587500X0*%
%ADD43RoundRect,0.250000X-0.250000X-0.475000X0.250000X-0.475000X0.250000X0.475000X-0.250000X0.475000X0*%
%ADD44RoundRect,0.225000X-0.250000X0.225000X-0.250000X-0.225000X0.250000X-0.225000X0.250000X0.225000X0*%
%ADD45RoundRect,0.150000X-0.150000X0.825000X-0.150000X-0.825000X0.150000X-0.825000X0.150000X0.825000X0*%
%ADD46RoundRect,0.250000X0.600000X0.725000X-0.600000X0.725000X-0.600000X-0.725000X0.600000X-0.725000X0*%
%ADD47O,1.700000X1.950000*%
%ADD48RoundRect,0.200000X-0.275000X0.200000X-0.275000X-0.200000X0.275000X-0.200000X0.275000X0.200000X0*%
%ADD49R,1.550000X0.600000*%
%ADD50R,2.600000X3.100000*%
%ADD51RoundRect,0.375000X-0.625000X-0.375000X0.625000X-0.375000X0.625000X0.375000X-0.625000X0.375000X0*%
%ADD52RoundRect,0.500000X-0.500000X-1.400000X0.500000X-1.400000X0.500000X1.400000X-0.500000X1.400000X0*%
%ADD53R,4.240000X3.810000*%
%ADD54R,3.000000X3.500000*%
%ADD55RoundRect,0.225000X-0.225000X-0.250000X0.225000X-0.250000X0.225000X0.250000X-0.225000X0.250000X0*%
%ADD56R,2.400000X2.000000*%
%ADD57RoundRect,0.225000X0.250000X-0.225000X0.250000X0.225000X-0.250000X0.225000X-0.250000X-0.225000X0*%
%ADD58RoundRect,0.250000X0.725000X-0.600000X0.725000X0.600000X-0.725000X0.600000X-0.725000X-0.600000X0*%
%ADD59O,1.950000X1.700000*%
%ADD60R,0.750000X1.000000*%
%ADD61RoundRect,0.250000X1.000000X0.650000X-1.000000X0.650000X-1.000000X-0.650000X1.000000X-0.650000X0*%
%ADD62RoundRect,0.150000X-0.150000X-0.150000X0.150000X-0.150000X0.150000X0.150000X-0.150000X0.150000X0*%
%ADD63O,1.800000X0.900000*%
%ADD64RoundRect,0.250000X-0.300000X0.300000X-0.300000X-0.300000X0.300000X-0.300000X0.300000X0.300000X0*%
%ADD65RoundRect,0.150000X-0.587500X-0.150000X0.587500X-0.150000X0.587500X0.150000X-0.587500X0.150000X0*%
%ADD66C,1.020000*%
%ADD67RoundRect,0.250001X0.499999X0.499999X-0.499999X0.499999X-0.499999X-0.499999X0.499999X-0.499999X0*%
%ADD68C,1.500000*%
%ADD69RoundRect,0.250000X0.088388X-0.936916X0.936916X-0.088388X-0.088388X0.936916X-0.936916X0.088388X0*%
%ADD70HorizOval,1.700000X-0.088388X0.088388X0.088388X-0.088388X0*%
G04 APERTURE END LIST*
D10*
X12631101Y-25901980D02*
X12583482Y-25949600D01*
X12583482Y-25949600D02*
X12440625Y-25997219D01*
X12440625Y-25997219D02*
X12345387Y-25997219D01*
X12345387Y-25997219D02*
X12202530Y-25949600D01*
X12202530Y-25949600D02*
X12107292Y-25854361D01*
X12107292Y-25854361D02*
X12059673Y-25759123D01*
X12059673Y-25759123D02*
X12012054Y-25568647D01*
X12012054Y-25568647D02*
X12012054Y-25425790D01*
X12012054Y-25425790D02*
X12059673Y-25235314D01*
X12059673Y-25235314D02*
X12107292Y-25140076D01*
X12107292Y-25140076D02*
X12202530Y-25044838D01*
X12202530Y-25044838D02*
X12345387Y-24997219D01*
X12345387Y-24997219D02*
X12440625Y-24997219D01*
X12440625Y-24997219D02*
X12583482Y-25044838D01*
X12583482Y-25044838D02*
X12631101Y-25092457D01*
X13012054Y-25711504D02*
X13488244Y-25711504D01*
X12916816Y-25997219D02*
X13250149Y-24997219D01*
X13250149Y-24997219D02*
X13583482Y-25997219D01*
X13916816Y-25997219D02*
X13916816Y-24997219D01*
X13916816Y-24997219D02*
X14488244Y-25997219D01*
X14488244Y-25997219D02*
X14488244Y-24997219D01*
X14726340Y-26092457D02*
X15488244Y-26092457D01*
X16202530Y-25997219D02*
X15726340Y-25997219D01*
X15726340Y-25997219D02*
X15726340Y-24997219D01*
D11*
X5299819Y-17047506D02*
X6014104Y-17047506D01*
X6014104Y-17047506D02*
X6156961Y-17095125D01*
X6156961Y-17095125D02*
X6252200Y-17190363D01*
X6252200Y-17190363D02*
X6299819Y-17333220D01*
X6299819Y-17333220D02*
X6299819Y-17428458D01*
X6299819Y-16095125D02*
X6299819Y-16571315D01*
X6299819Y-16571315D02*
X5299819Y-16571315D01*
X6204580Y-15190363D02*
X6252200Y-15237982D01*
X6252200Y-15237982D02*
X6299819Y-15380839D01*
X6299819Y-15380839D02*
X6299819Y-15476077D01*
X6299819Y-15476077D02*
X6252200Y-15618934D01*
X6252200Y-15618934D02*
X6156961Y-15714172D01*
X6156961Y-15714172D02*
X6061723Y-15761791D01*
X6061723Y-15761791D02*
X5871247Y-15809410D01*
X5871247Y-15809410D02*
X5728390Y-15809410D01*
X5728390Y-15809410D02*
X5537914Y-15761791D01*
X5537914Y-15761791D02*
X5442676Y-15714172D01*
X5442676Y-15714172D02*
X5347438Y-15618934D01*
X5347438Y-15618934D02*
X5299819Y-15476077D01*
X5299819Y-15476077D02*
X5299819Y-15380839D01*
X5299819Y-15380839D02*
X5347438Y-15237982D01*
X5347438Y-15237982D02*
X5395057Y-15190363D01*
X5299819Y-14476077D02*
X6014104Y-14476077D01*
X6014104Y-14476077D02*
X6156961Y-14523696D01*
X6156961Y-14523696D02*
X6252200Y-14618934D01*
X6252200Y-14618934D02*
X6299819Y-14761791D01*
X6299819Y-14761791D02*
X6299819Y-14857029D01*
X6299819Y-13523696D02*
X6299819Y-13999886D01*
X6299819Y-13999886D02*
X5299819Y-13999886D01*
X6204580Y-12618934D02*
X6252200Y-12666553D01*
X6252200Y-12666553D02*
X6299819Y-12809410D01*
X6299819Y-12809410D02*
X6299819Y-12904648D01*
X6299819Y-12904648D02*
X6252200Y-13047505D01*
X6252200Y-13047505D02*
X6156961Y-13142743D01*
X6156961Y-13142743D02*
X6061723Y-13190362D01*
X6061723Y-13190362D02*
X5871247Y-13237981D01*
X5871247Y-13237981D02*
X5728390Y-13237981D01*
X5728390Y-13237981D02*
X5537914Y-13190362D01*
X5537914Y-13190362D02*
X5442676Y-13142743D01*
X5442676Y-13142743D02*
X5347438Y-13047505D01*
X5347438Y-13047505D02*
X5299819Y-12904648D01*
X5299819Y-12904648D02*
X5299819Y-12809410D01*
X5299819Y-12809410D02*
X5347438Y-12666553D01*
X5347438Y-12666553D02*
X5395057Y-12618934D01*
X5299819Y-11904648D02*
X6014104Y-11904648D01*
X6014104Y-11904648D02*
X6156961Y-11952267D01*
X6156961Y-11952267D02*
X6252200Y-12047505D01*
X6252200Y-12047505D02*
X6299819Y-12190362D01*
X6299819Y-12190362D02*
X6299819Y-12285600D01*
X6299819Y-10952267D02*
X6299819Y-11428457D01*
X6299819Y-11428457D02*
X5299819Y-11428457D01*
X6204580Y-10047505D02*
X6252200Y-10095124D01*
X6252200Y-10095124D02*
X6299819Y-10237981D01*
X6299819Y-10237981D02*
X6299819Y-10333219D01*
X6299819Y-10333219D02*
X6252200Y-10476076D01*
X6252200Y-10476076D02*
X6156961Y-10571314D01*
X6156961Y-10571314D02*
X6061723Y-10618933D01*
X6061723Y-10618933D02*
X5871247Y-10666552D01*
X5871247Y-10666552D02*
X5728390Y-10666552D01*
X5728390Y-10666552D02*
X5537914Y-10618933D01*
X5537914Y-10618933D02*
X5442676Y-10571314D01*
X5442676Y-10571314D02*
X5347438Y-10476076D01*
X5347438Y-10476076D02*
X5299819Y-10333219D01*
X5299819Y-10333219D02*
X5299819Y-10237981D01*
X5299819Y-10237981D02*
X5347438Y-10095124D01*
X5347438Y-10095124D02*
X5395057Y-10047505D01*
X5299819Y-9333219D02*
X6014104Y-9333219D01*
X6014104Y-9333219D02*
X6156961Y-9380838D01*
X6156961Y-9380838D02*
X6252200Y-9476076D01*
X6252200Y-9476076D02*
X6299819Y-9618933D01*
X6299819Y-9618933D02*
X6299819Y-9714171D01*
X6299819Y-8380838D02*
X6299819Y-8857028D01*
X6299819Y-8857028D02*
X5299819Y-8857028D01*
X6204580Y-7476076D02*
X6252200Y-7523695D01*
X6252200Y-7523695D02*
X6299819Y-7666552D01*
X6299819Y-7666552D02*
X6299819Y-7761790D01*
X6299819Y-7761790D02*
X6252200Y-7904647D01*
X6252200Y-7904647D02*
X6156961Y-7999885D01*
X6156961Y-7999885D02*
X6061723Y-8047504D01*
X6061723Y-8047504D02*
X5871247Y-8095123D01*
X5871247Y-8095123D02*
X5728390Y-8095123D01*
X5728390Y-8095123D02*
X5537914Y-8047504D01*
X5537914Y-8047504D02*
X5442676Y-7999885D01*
X5442676Y-7999885D02*
X5347438Y-7904647D01*
X5347438Y-7904647D02*
X5299819Y-7761790D01*
X5299819Y-7761790D02*
X5299819Y-7666552D01*
X5299819Y-7666552D02*
X5347438Y-7523695D01*
X5347438Y-7523695D02*
X5395057Y-7476076D01*
D10*
X37687219Y-3532065D02*
X37687219Y-2960637D01*
X38687219Y-3246351D02*
X37687219Y-3246351D01*
X38687219Y-2103494D02*
X38687219Y-2674922D01*
X38687219Y-2389208D02*
X37687219Y-2389208D01*
X37687219Y-2389208D02*
X37830076Y-2484446D01*
X37830076Y-2484446D02*
X37925314Y-2579684D01*
X37925314Y-2579684D02*
X37972933Y-2674922D01*
X12761101Y-35421980D02*
X12713482Y-35469600D01*
X12713482Y-35469600D02*
X12570625Y-35517219D01*
X12570625Y-35517219D02*
X12475387Y-35517219D01*
X12475387Y-35517219D02*
X12332530Y-35469600D01*
X12332530Y-35469600D02*
X12237292Y-35374361D01*
X12237292Y-35374361D02*
X12189673Y-35279123D01*
X12189673Y-35279123D02*
X12142054Y-35088647D01*
X12142054Y-35088647D02*
X12142054Y-34945790D01*
X12142054Y-34945790D02*
X12189673Y-34755314D01*
X12189673Y-34755314D02*
X12237292Y-34660076D01*
X12237292Y-34660076D02*
X12332530Y-34564838D01*
X12332530Y-34564838D02*
X12475387Y-34517219D01*
X12475387Y-34517219D02*
X12570625Y-34517219D01*
X12570625Y-34517219D02*
X12713482Y-34564838D01*
X12713482Y-34564838D02*
X12761101Y-34612457D01*
X13142054Y-35231504D02*
X13618244Y-35231504D01*
X13046816Y-35517219D02*
X13380149Y-34517219D01*
X13380149Y-34517219D02*
X13713482Y-35517219D01*
X14046816Y-35517219D02*
X14046816Y-34517219D01*
X14046816Y-34517219D02*
X14618244Y-35517219D01*
X14618244Y-35517219D02*
X14618244Y-34517219D01*
X14856340Y-35612457D02*
X15618244Y-35612457D01*
X15856340Y-35517219D02*
X15856340Y-34517219D01*
X15856340Y-34993409D02*
X16427768Y-34993409D01*
X16427768Y-35517219D02*
X16427768Y-34517219D01*
X54451101Y-14837219D02*
X54117768Y-14361028D01*
X53879673Y-14837219D02*
X53879673Y-13837219D01*
X53879673Y-13837219D02*
X54260625Y-13837219D01*
X54260625Y-13837219D02*
X54355863Y-13884838D01*
X54355863Y-13884838D02*
X54403482Y-13932457D01*
X54403482Y-13932457D02*
X54451101Y-14027695D01*
X54451101Y-14027695D02*
X54451101Y-14170552D01*
X54451101Y-14170552D02*
X54403482Y-14265790D01*
X54403482Y-14265790D02*
X54355863Y-14313409D01*
X54355863Y-14313409D02*
X54260625Y-14361028D01*
X54260625Y-14361028D02*
X53879673Y-14361028D01*
X54879673Y-14313409D02*
X55213006Y-14313409D01*
X55355863Y-14837219D02*
X54879673Y-14837219D01*
X54879673Y-14837219D02*
X54879673Y-13837219D01*
X54879673Y-13837219D02*
X55355863Y-13837219D01*
X55736816Y-14789600D02*
X55879673Y-14837219D01*
X55879673Y-14837219D02*
X56117768Y-14837219D01*
X56117768Y-14837219D02*
X56213006Y-14789600D01*
X56213006Y-14789600D02*
X56260625Y-14741980D01*
X56260625Y-14741980D02*
X56308244Y-14646742D01*
X56308244Y-14646742D02*
X56308244Y-14551504D01*
X56308244Y-14551504D02*
X56260625Y-14456266D01*
X56260625Y-14456266D02*
X56213006Y-14408647D01*
X56213006Y-14408647D02*
X56117768Y-14361028D01*
X56117768Y-14361028D02*
X55927292Y-14313409D01*
X55927292Y-14313409D02*
X55832054Y-14265790D01*
X55832054Y-14265790D02*
X55784435Y-14218171D01*
X55784435Y-14218171D02*
X55736816Y-14122933D01*
X55736816Y-14122933D02*
X55736816Y-14027695D01*
X55736816Y-14027695D02*
X55784435Y-13932457D01*
X55784435Y-13932457D02*
X55832054Y-13884838D01*
X55832054Y-13884838D02*
X55927292Y-13837219D01*
X55927292Y-13837219D02*
X56165387Y-13837219D01*
X56165387Y-13837219D02*
X56308244Y-13884838D01*
X56736816Y-14313409D02*
X57070149Y-14313409D01*
X57213006Y-14837219D02*
X56736816Y-14837219D01*
X56736816Y-14837219D02*
X56736816Y-13837219D01*
X56736816Y-13837219D02*
X57213006Y-13837219D01*
X57498721Y-13837219D02*
X58070149Y-13837219D01*
X57784435Y-14837219D02*
X57784435Y-13837219D01*
X23929673Y-15567219D02*
X23929673Y-14567219D01*
X23929673Y-14567219D02*
X24310625Y-14567219D01*
X24310625Y-14567219D02*
X24405863Y-14614838D01*
X24405863Y-14614838D02*
X24453482Y-14662457D01*
X24453482Y-14662457D02*
X24501101Y-14757695D01*
X24501101Y-14757695D02*
X24501101Y-14900552D01*
X24501101Y-14900552D02*
X24453482Y-14995790D01*
X24453482Y-14995790D02*
X24405863Y-15043409D01*
X24405863Y-15043409D02*
X24310625Y-15091028D01*
X24310625Y-15091028D02*
X23929673Y-15091028D01*
X24786816Y-14567219D02*
X25358244Y-14567219D01*
X25072530Y-15567219D02*
X25072530Y-14567219D01*
X26215387Y-15567219D02*
X25643959Y-15567219D01*
X25929673Y-15567219D02*
X25929673Y-14567219D01*
X25929673Y-14567219D02*
X25834435Y-14710076D01*
X25834435Y-14710076D02*
X25739197Y-14805314D01*
X25739197Y-14805314D02*
X25643959Y-14852933D01*
X26834435Y-14567219D02*
X26929673Y-14567219D01*
X26929673Y-14567219D02*
X27024911Y-14614838D01*
X27024911Y-14614838D02*
X27072530Y-14662457D01*
X27072530Y-14662457D02*
X27120149Y-14757695D01*
X27120149Y-14757695D02*
X27167768Y-14948171D01*
X27167768Y-14948171D02*
X27167768Y-15186266D01*
X27167768Y-15186266D02*
X27120149Y-15376742D01*
X27120149Y-15376742D02*
X27072530Y-15471980D01*
X27072530Y-15471980D02*
X27024911Y-15519600D01*
X27024911Y-15519600D02*
X26929673Y-15567219D01*
X26929673Y-15567219D02*
X26834435Y-15567219D01*
X26834435Y-15567219D02*
X26739197Y-15519600D01*
X26739197Y-15519600D02*
X26691578Y-15471980D01*
X26691578Y-15471980D02*
X26643959Y-15376742D01*
X26643959Y-15376742D02*
X26596340Y-15186266D01*
X26596340Y-15186266D02*
X26596340Y-14948171D01*
X26596340Y-14948171D02*
X26643959Y-14757695D01*
X26643959Y-14757695D02*
X26691578Y-14662457D01*
X26691578Y-14662457D02*
X26739197Y-14614838D01*
X26739197Y-14614838D02*
X26834435Y-14567219D01*
X27786816Y-14567219D02*
X27882054Y-14567219D01*
X27882054Y-14567219D02*
X27977292Y-14614838D01*
X27977292Y-14614838D02*
X28024911Y-14662457D01*
X28024911Y-14662457D02*
X28072530Y-14757695D01*
X28072530Y-14757695D02*
X28120149Y-14948171D01*
X28120149Y-14948171D02*
X28120149Y-15186266D01*
X28120149Y-15186266D02*
X28072530Y-15376742D01*
X28072530Y-15376742D02*
X28024911Y-15471980D01*
X28024911Y-15471980D02*
X27977292Y-15519600D01*
X27977292Y-15519600D02*
X27882054Y-15567219D01*
X27882054Y-15567219D02*
X27786816Y-15567219D01*
X27786816Y-15567219D02*
X27691578Y-15519600D01*
X27691578Y-15519600D02*
X27643959Y-15471980D01*
X27643959Y-15471980D02*
X27596340Y-15376742D01*
X27596340Y-15376742D02*
X27548721Y-15186266D01*
X27548721Y-15186266D02*
X27548721Y-14948171D01*
X27548721Y-14948171D02*
X27596340Y-14757695D01*
X27596340Y-14757695D02*
X27643959Y-14662457D01*
X27643959Y-14662457D02*
X27691578Y-14614838D01*
X27691578Y-14614838D02*
X27786816Y-14567219D01*
X70387219Y-22428898D02*
X69911028Y-22762231D01*
X70387219Y-23000326D02*
X69387219Y-23000326D01*
X69387219Y-23000326D02*
X69387219Y-22619374D01*
X69387219Y-22619374D02*
X69434838Y-22524136D01*
X69434838Y-22524136D02*
X69482457Y-22476517D01*
X69482457Y-22476517D02*
X69577695Y-22428898D01*
X69577695Y-22428898D02*
X69720552Y-22428898D01*
X69720552Y-22428898D02*
X69815790Y-22476517D01*
X69815790Y-22476517D02*
X69863409Y-22524136D01*
X69863409Y-22524136D02*
X69911028Y-22619374D01*
X69911028Y-22619374D02*
X69911028Y-23000326D01*
X69434838Y-21476517D02*
X69387219Y-21571755D01*
X69387219Y-21571755D02*
X69387219Y-21714612D01*
X69387219Y-21714612D02*
X69434838Y-21857469D01*
X69434838Y-21857469D02*
X69530076Y-21952707D01*
X69530076Y-21952707D02*
X69625314Y-22000326D01*
X69625314Y-22000326D02*
X69815790Y-22047945D01*
X69815790Y-22047945D02*
X69958647Y-22047945D01*
X69958647Y-22047945D02*
X70149123Y-22000326D01*
X70149123Y-22000326D02*
X70244361Y-21952707D01*
X70244361Y-21952707D02*
X70339600Y-21857469D01*
X70339600Y-21857469D02*
X70387219Y-21714612D01*
X70387219Y-21714612D02*
X70387219Y-21619374D01*
X70387219Y-21619374D02*
X70339600Y-21476517D01*
X70339600Y-21476517D02*
X70291980Y-21428898D01*
X70291980Y-21428898D02*
X69958647Y-21428898D01*
X69958647Y-21428898D02*
X69958647Y-21619374D01*
X69863409Y-20666993D02*
X69911028Y-20524136D01*
X69911028Y-20524136D02*
X69958647Y-20476517D01*
X69958647Y-20476517D02*
X70053885Y-20428898D01*
X70053885Y-20428898D02*
X70196742Y-20428898D01*
X70196742Y-20428898D02*
X70291980Y-20476517D01*
X70291980Y-20476517D02*
X70339600Y-20524136D01*
X70339600Y-20524136D02*
X70387219Y-20619374D01*
X70387219Y-20619374D02*
X70387219Y-21000326D01*
X70387219Y-21000326D02*
X69387219Y-21000326D01*
X69387219Y-21000326D02*
X69387219Y-20666993D01*
X69387219Y-20666993D02*
X69434838Y-20571755D01*
X69434838Y-20571755D02*
X69482457Y-20524136D01*
X69482457Y-20524136D02*
X69577695Y-20476517D01*
X69577695Y-20476517D02*
X69672933Y-20476517D01*
X69672933Y-20476517D02*
X69768171Y-20524136D01*
X69768171Y-20524136D02*
X69815790Y-20571755D01*
X69815790Y-20571755D02*
X69863409Y-20666993D01*
X69863409Y-20666993D02*
X69863409Y-21000326D01*
X46553006Y-25683409D02*
X46695863Y-25731028D01*
X46695863Y-25731028D02*
X46743482Y-25778647D01*
X46743482Y-25778647D02*
X46791101Y-25873885D01*
X46791101Y-25873885D02*
X46791101Y-26016742D01*
X46791101Y-26016742D02*
X46743482Y-26111980D01*
X46743482Y-26111980D02*
X46695863Y-26159600D01*
X46695863Y-26159600D02*
X46600625Y-26207219D01*
X46600625Y-26207219D02*
X46219673Y-26207219D01*
X46219673Y-26207219D02*
X46219673Y-25207219D01*
X46219673Y-25207219D02*
X46553006Y-25207219D01*
X46553006Y-25207219D02*
X46648244Y-25254838D01*
X46648244Y-25254838D02*
X46695863Y-25302457D01*
X46695863Y-25302457D02*
X46743482Y-25397695D01*
X46743482Y-25397695D02*
X46743482Y-25492933D01*
X46743482Y-25492933D02*
X46695863Y-25588171D01*
X46695863Y-25588171D02*
X46648244Y-25635790D01*
X46648244Y-25635790D02*
X46553006Y-25683409D01*
X46553006Y-25683409D02*
X46219673Y-25683409D01*
X47410149Y-25207219D02*
X47600625Y-25207219D01*
X47600625Y-25207219D02*
X47695863Y-25254838D01*
X47695863Y-25254838D02*
X47791101Y-25350076D01*
X47791101Y-25350076D02*
X47838720Y-25540552D01*
X47838720Y-25540552D02*
X47838720Y-25873885D01*
X47838720Y-25873885D02*
X47791101Y-26064361D01*
X47791101Y-26064361D02*
X47695863Y-26159600D01*
X47695863Y-26159600D02*
X47600625Y-26207219D01*
X47600625Y-26207219D02*
X47410149Y-26207219D01*
X47410149Y-26207219D02*
X47314911Y-26159600D01*
X47314911Y-26159600D02*
X47219673Y-26064361D01*
X47219673Y-26064361D02*
X47172054Y-25873885D01*
X47172054Y-25873885D02*
X47172054Y-25540552D01*
X47172054Y-25540552D02*
X47219673Y-25350076D01*
X47219673Y-25350076D02*
X47314911Y-25254838D01*
X47314911Y-25254838D02*
X47410149Y-25207219D01*
X48457768Y-25207219D02*
X48648244Y-25207219D01*
X48648244Y-25207219D02*
X48743482Y-25254838D01*
X48743482Y-25254838D02*
X48838720Y-25350076D01*
X48838720Y-25350076D02*
X48886339Y-25540552D01*
X48886339Y-25540552D02*
X48886339Y-25873885D01*
X48886339Y-25873885D02*
X48838720Y-26064361D01*
X48838720Y-26064361D02*
X48743482Y-26159600D01*
X48743482Y-26159600D02*
X48648244Y-26207219D01*
X48648244Y-26207219D02*
X48457768Y-26207219D01*
X48457768Y-26207219D02*
X48362530Y-26159600D01*
X48362530Y-26159600D02*
X48267292Y-26064361D01*
X48267292Y-26064361D02*
X48219673Y-25873885D01*
X48219673Y-25873885D02*
X48219673Y-25540552D01*
X48219673Y-25540552D02*
X48267292Y-25350076D01*
X48267292Y-25350076D02*
X48362530Y-25254838D01*
X48362530Y-25254838D02*
X48457768Y-25207219D01*
X49172054Y-25207219D02*
X49743482Y-25207219D01*
X49457768Y-26207219D02*
X49457768Y-25207219D01*
X24079673Y-11127219D02*
X24079673Y-10127219D01*
X24079673Y-10127219D02*
X24460625Y-10127219D01*
X24460625Y-10127219D02*
X24555863Y-10174838D01*
X24555863Y-10174838D02*
X24603482Y-10222457D01*
X24603482Y-10222457D02*
X24651101Y-10317695D01*
X24651101Y-10317695D02*
X24651101Y-10460552D01*
X24651101Y-10460552D02*
X24603482Y-10555790D01*
X24603482Y-10555790D02*
X24555863Y-10603409D01*
X24555863Y-10603409D02*
X24460625Y-10651028D01*
X24460625Y-10651028D02*
X24079673Y-10651028D01*
X24936816Y-10127219D02*
X25508244Y-10127219D01*
X25222530Y-11127219D02*
X25222530Y-10127219D01*
X26365387Y-11127219D02*
X25793959Y-11127219D01*
X26079673Y-11127219D02*
X26079673Y-10127219D01*
X26079673Y-10127219D02*
X25984435Y-10270076D01*
X25984435Y-10270076D02*
X25889197Y-10365314D01*
X25889197Y-10365314D02*
X25793959Y-10412933D01*
X26984435Y-10127219D02*
X27079673Y-10127219D01*
X27079673Y-10127219D02*
X27174911Y-10174838D01*
X27174911Y-10174838D02*
X27222530Y-10222457D01*
X27222530Y-10222457D02*
X27270149Y-10317695D01*
X27270149Y-10317695D02*
X27317768Y-10508171D01*
X27317768Y-10508171D02*
X27317768Y-10746266D01*
X27317768Y-10746266D02*
X27270149Y-10936742D01*
X27270149Y-10936742D02*
X27222530Y-11031980D01*
X27222530Y-11031980D02*
X27174911Y-11079600D01*
X27174911Y-11079600D02*
X27079673Y-11127219D01*
X27079673Y-11127219D02*
X26984435Y-11127219D01*
X26984435Y-11127219D02*
X26889197Y-11079600D01*
X26889197Y-11079600D02*
X26841578Y-11031980D01*
X26841578Y-11031980D02*
X26793959Y-10936742D01*
X26793959Y-10936742D02*
X26746340Y-10746266D01*
X26746340Y-10746266D02*
X26746340Y-10508171D01*
X26746340Y-10508171D02*
X26793959Y-10317695D01*
X26793959Y-10317695D02*
X26841578Y-10222457D01*
X26841578Y-10222457D02*
X26889197Y-10174838D01*
X26889197Y-10174838D02*
X26984435Y-10127219D01*
X27936816Y-10127219D02*
X28032054Y-10127219D01*
X28032054Y-10127219D02*
X28127292Y-10174838D01*
X28127292Y-10174838D02*
X28174911Y-10222457D01*
X28174911Y-10222457D02*
X28222530Y-10317695D01*
X28222530Y-10317695D02*
X28270149Y-10508171D01*
X28270149Y-10508171D02*
X28270149Y-10746266D01*
X28270149Y-10746266D02*
X28222530Y-10936742D01*
X28222530Y-10936742D02*
X28174911Y-11031980D01*
X28174911Y-11031980D02*
X28127292Y-11079600D01*
X28127292Y-11079600D02*
X28032054Y-11127219D01*
X28032054Y-11127219D02*
X27936816Y-11127219D01*
X27936816Y-11127219D02*
X27841578Y-11079600D01*
X27841578Y-11079600D02*
X27793959Y-11031980D01*
X27793959Y-11031980D02*
X27746340Y-10936742D01*
X27746340Y-10936742D02*
X27698721Y-10746266D01*
X27698721Y-10746266D02*
X27698721Y-10508171D01*
X27698721Y-10508171D02*
X27746340Y-10317695D01*
X27746340Y-10317695D02*
X27793959Y-10222457D01*
X27793959Y-10222457D02*
X27841578Y-10174838D01*
X27841578Y-10174838D02*
X27936816Y-10127219D01*
X28889197Y-10127219D02*
X28984435Y-10127219D01*
X28984435Y-10127219D02*
X29079673Y-10174838D01*
X29079673Y-10174838D02*
X29127292Y-10222457D01*
X29127292Y-10222457D02*
X29174911Y-10317695D01*
X29174911Y-10317695D02*
X29222530Y-10508171D01*
X29222530Y-10508171D02*
X29222530Y-10746266D01*
X29222530Y-10746266D02*
X29174911Y-10936742D01*
X29174911Y-10936742D02*
X29127292Y-11031980D01*
X29127292Y-11031980D02*
X29079673Y-11079600D01*
X29079673Y-11079600D02*
X28984435Y-11127219D01*
X28984435Y-11127219D02*
X28889197Y-11127219D01*
X28889197Y-11127219D02*
X28793959Y-11079600D01*
X28793959Y-11079600D02*
X28746340Y-11031980D01*
X28746340Y-11031980D02*
X28698721Y-10936742D01*
X28698721Y-10936742D02*
X28651102Y-10746266D01*
X28651102Y-10746266D02*
X28651102Y-10508171D01*
X28651102Y-10508171D02*
X28698721Y-10317695D01*
X28698721Y-10317695D02*
X28746340Y-10222457D01*
X28746340Y-10222457D02*
X28793959Y-10174838D01*
X28793959Y-10174838D02*
X28889197Y-10127219D01*
X23237219Y-3532065D02*
X23237219Y-2960637D01*
X24237219Y-3246351D02*
X23237219Y-3246351D01*
X23237219Y-2436827D02*
X23237219Y-2341589D01*
X23237219Y-2341589D02*
X23284838Y-2246351D01*
X23284838Y-2246351D02*
X23332457Y-2198732D01*
X23332457Y-2198732D02*
X23427695Y-2151113D01*
X23427695Y-2151113D02*
X23618171Y-2103494D01*
X23618171Y-2103494D02*
X23856266Y-2103494D01*
X23856266Y-2103494D02*
X24046742Y-2151113D01*
X24046742Y-2151113D02*
X24141980Y-2198732D01*
X24141980Y-2198732D02*
X24189600Y-2246351D01*
X24189600Y-2246351D02*
X24237219Y-2341589D01*
X24237219Y-2341589D02*
X24237219Y-2436827D01*
X24237219Y-2436827D02*
X24189600Y-2532065D01*
X24189600Y-2532065D02*
X24141980Y-2579684D01*
X24141980Y-2579684D02*
X24046742Y-2627303D01*
X24046742Y-2627303D02*
X23856266Y-2674922D01*
X23856266Y-2674922D02*
X23618171Y-2674922D01*
X23618171Y-2674922D02*
X23427695Y-2627303D01*
X23427695Y-2627303D02*
X23332457Y-2579684D01*
X23332457Y-2579684D02*
X23284838Y-2532065D01*
X23284838Y-2532065D02*
X23237219Y-2436827D01*
X70499600Y-17767945D02*
X70547219Y-17625088D01*
X70547219Y-17625088D02*
X70547219Y-17386993D01*
X70547219Y-17386993D02*
X70499600Y-17291755D01*
X70499600Y-17291755D02*
X70451980Y-17244136D01*
X70451980Y-17244136D02*
X70356742Y-17196517D01*
X70356742Y-17196517D02*
X70261504Y-17196517D01*
X70261504Y-17196517D02*
X70166266Y-17244136D01*
X70166266Y-17244136D02*
X70118647Y-17291755D01*
X70118647Y-17291755D02*
X70071028Y-17386993D01*
X70071028Y-17386993D02*
X70023409Y-17577469D01*
X70023409Y-17577469D02*
X69975790Y-17672707D01*
X69975790Y-17672707D02*
X69928171Y-17720326D01*
X69928171Y-17720326D02*
X69832933Y-17767945D01*
X69832933Y-17767945D02*
X69737695Y-17767945D01*
X69737695Y-17767945D02*
X69642457Y-17720326D01*
X69642457Y-17720326D02*
X69594838Y-17672707D01*
X69594838Y-17672707D02*
X69547219Y-17577469D01*
X69547219Y-17577469D02*
X69547219Y-17339374D01*
X69547219Y-17339374D02*
X69594838Y-17196517D01*
X70023409Y-16767945D02*
X70023409Y-16434612D01*
X70547219Y-16291755D02*
X70547219Y-16767945D01*
X70547219Y-16767945D02*
X69547219Y-16767945D01*
X69547219Y-16767945D02*
X69547219Y-16291755D01*
X70547219Y-15291755D02*
X70071028Y-15625088D01*
X70547219Y-15863183D02*
X69547219Y-15863183D01*
X69547219Y-15863183D02*
X69547219Y-15482231D01*
X69547219Y-15482231D02*
X69594838Y-15386993D01*
X69594838Y-15386993D02*
X69642457Y-15339374D01*
X69642457Y-15339374D02*
X69737695Y-15291755D01*
X69737695Y-15291755D02*
X69880552Y-15291755D01*
X69880552Y-15291755D02*
X69975790Y-15339374D01*
X69975790Y-15339374D02*
X70023409Y-15386993D01*
X70023409Y-15386993D02*
X70071028Y-15482231D01*
X70071028Y-15482231D02*
X70071028Y-15863183D01*
X69547219Y-15006040D02*
X70547219Y-14672707D01*
X70547219Y-14672707D02*
X69547219Y-14339374D01*
X69547219Y-13815564D02*
X69547219Y-13625088D01*
X69547219Y-13625088D02*
X69594838Y-13529850D01*
X69594838Y-13529850D02*
X69690076Y-13434612D01*
X69690076Y-13434612D02*
X69880552Y-13386993D01*
X69880552Y-13386993D02*
X70213885Y-13386993D01*
X70213885Y-13386993D02*
X70404361Y-13434612D01*
X70404361Y-13434612D02*
X70499600Y-13529850D01*
X70499600Y-13529850D02*
X70547219Y-13625088D01*
X70547219Y-13625088D02*
X70547219Y-13815564D01*
X70547219Y-13815564D02*
X70499600Y-13910802D01*
X70499600Y-13910802D02*
X70404361Y-14006040D01*
X70404361Y-14006040D02*
X70213885Y-14053659D01*
X70213885Y-14053659D02*
X69880552Y-14053659D01*
X69880552Y-14053659D02*
X69690076Y-14006040D01*
X69690076Y-14006040D02*
X69594838Y-13910802D01*
X69594838Y-13910802D02*
X69547219Y-13815564D01*
X38505161Y-31133482D02*
X38552780Y-31038244D01*
X38552780Y-31038244D02*
X38552780Y-30895387D01*
X38552780Y-30895387D02*
X38505161Y-30752530D01*
X38505161Y-30752530D02*
X38409923Y-30657292D01*
X38409923Y-30657292D02*
X38314685Y-30609673D01*
X38314685Y-30609673D02*
X38124209Y-30562054D01*
X38124209Y-30562054D02*
X37981352Y-30562054D01*
X37981352Y-30562054D02*
X37790876Y-30609673D01*
X37790876Y-30609673D02*
X37695638Y-30657292D01*
X37695638Y-30657292D02*
X37600400Y-30752530D01*
X37600400Y-30752530D02*
X37552780Y-30895387D01*
X37552780Y-30895387D02*
X37552780Y-30990625D01*
X37552780Y-30990625D02*
X37600400Y-31133482D01*
X37600400Y-31133482D02*
X37648019Y-31181101D01*
X37648019Y-31181101D02*
X37981352Y-31181101D01*
X37981352Y-31181101D02*
X37981352Y-30990625D01*
X37552780Y-31609673D02*
X38552780Y-31609673D01*
X38552780Y-31609673D02*
X37552780Y-32181101D01*
X37552780Y-32181101D02*
X38552780Y-32181101D01*
X37552780Y-32657292D02*
X38552780Y-32657292D01*
X38552780Y-32657292D02*
X38552780Y-32895387D01*
X38552780Y-32895387D02*
X38505161Y-33038244D01*
X38505161Y-33038244D02*
X38409923Y-33133482D01*
X38409923Y-33133482D02*
X38314685Y-33181101D01*
X38314685Y-33181101D02*
X38124209Y-33228720D01*
X38124209Y-33228720D02*
X37981352Y-33228720D01*
X37981352Y-33228720D02*
X37790876Y-33181101D01*
X37790876Y-33181101D02*
X37695638Y-33133482D01*
X37695638Y-33133482D02*
X37600400Y-33038244D01*
X37600400Y-33038244D02*
X37552780Y-32895387D01*
X37552780Y-32895387D02*
X37552780Y-32657292D01*
X79067219Y-11280326D02*
X78067219Y-11280326D01*
X78162457Y-10851755D02*
X78114838Y-10804136D01*
X78114838Y-10804136D02*
X78067219Y-10708898D01*
X78067219Y-10708898D02*
X78067219Y-10470803D01*
X78067219Y-10470803D02*
X78114838Y-10375565D01*
X78114838Y-10375565D02*
X78162457Y-10327946D01*
X78162457Y-10327946D02*
X78257695Y-10280327D01*
X78257695Y-10280327D02*
X78352933Y-10280327D01*
X78352933Y-10280327D02*
X78495790Y-10327946D01*
X78495790Y-10327946D02*
X79067219Y-10899374D01*
X79067219Y-10899374D02*
X79067219Y-10280327D01*
X78971980Y-9280327D02*
X79019600Y-9327946D01*
X79019600Y-9327946D02*
X79067219Y-9470803D01*
X79067219Y-9470803D02*
X79067219Y-9566041D01*
X79067219Y-9566041D02*
X79019600Y-9708898D01*
X79019600Y-9708898D02*
X78924361Y-9804136D01*
X78924361Y-9804136D02*
X78829123Y-9851755D01*
X78829123Y-9851755D02*
X78638647Y-9899374D01*
X78638647Y-9899374D02*
X78495790Y-9899374D01*
X78495790Y-9899374D02*
X78305314Y-9851755D01*
X78305314Y-9851755D02*
X78210076Y-9804136D01*
X78210076Y-9804136D02*
X78114838Y-9708898D01*
X78114838Y-9708898D02*
X78067219Y-9566041D01*
X78067219Y-9566041D02*
X78067219Y-9470803D01*
X78067219Y-9470803D02*
X78114838Y-9327946D01*
X78114838Y-9327946D02*
X78162457Y-9280327D01*
X79362730Y-33829431D02*
X79362730Y-33896775D01*
X79362730Y-33896775D02*
X79295386Y-34031462D01*
X79295386Y-34031462D02*
X79228043Y-34098805D01*
X79228043Y-34098805D02*
X79093356Y-34166149D01*
X79093356Y-34166149D02*
X78958669Y-34166149D01*
X78958669Y-34166149D02*
X78857654Y-34132477D01*
X78857654Y-34132477D02*
X78689295Y-34031462D01*
X78689295Y-34031462D02*
X78588280Y-33930447D01*
X78588280Y-33930447D02*
X78487264Y-33762088D01*
X78487264Y-33762088D02*
X78453593Y-33661073D01*
X78453593Y-33661073D02*
X78453593Y-33526386D01*
X78453593Y-33526386D02*
X78520936Y-33391699D01*
X78520936Y-33391699D02*
X78588280Y-33324355D01*
X78588280Y-33324355D02*
X78722967Y-33257012D01*
X78722967Y-33257012D02*
X78790310Y-33257012D01*
X79733119Y-33593729D02*
X79026012Y-32886622D01*
X80036165Y-33290683D02*
X79665776Y-32920294D01*
X79665776Y-32920294D02*
X79564760Y-32886622D01*
X79564760Y-32886622D02*
X79463745Y-32920294D01*
X79463745Y-32920294D02*
X79362730Y-33021309D01*
X79362730Y-33021309D02*
X79329058Y-33122325D01*
X79329058Y-33122325D02*
X79329058Y-33189668D01*
X80608585Y-32650920D02*
X80574913Y-32751935D01*
X80574913Y-32751935D02*
X80440226Y-32886622D01*
X80440226Y-32886622D02*
X80339211Y-32920294D01*
X80339211Y-32920294D02*
X80238195Y-32886622D01*
X80238195Y-32886622D02*
X79968821Y-32617248D01*
X79968821Y-32617248D02*
X79935150Y-32516233D01*
X79935150Y-32516233D02*
X79968821Y-32415218D01*
X79968821Y-32415218D02*
X80103508Y-32280531D01*
X80103508Y-32280531D02*
X80204524Y-32246859D01*
X80204524Y-32246859D02*
X80305539Y-32280531D01*
X80305539Y-32280531D02*
X80372882Y-32347874D01*
X80372882Y-32347874D02*
X80103508Y-32751935D01*
X81248348Y-32011157D02*
X81214676Y-32112172D01*
X81214676Y-32112172D02*
X81079989Y-32246859D01*
X81079989Y-32246859D02*
X80978974Y-32280531D01*
X80978974Y-32280531D02*
X80911631Y-32280531D01*
X80911631Y-32280531D02*
X80810615Y-32246859D01*
X80810615Y-32246859D02*
X80608585Y-32044828D01*
X80608585Y-32044828D02*
X80574913Y-31943813D01*
X80574913Y-31943813D02*
X80574913Y-31876470D01*
X80574913Y-31876470D02*
X80608585Y-31775454D01*
X80608585Y-31775454D02*
X80743272Y-31640767D01*
X80743272Y-31640767D02*
X80844287Y-31607096D01*
X81585066Y-31741783D02*
X80877959Y-31034676D01*
X81383035Y-31405065D02*
X81854440Y-31472409D01*
X81383035Y-31001004D02*
X81383035Y-31539752D01*
X81686081Y-30697958D02*
X82393188Y-31405065D01*
X81719753Y-30731630D02*
X81753425Y-30630615D01*
X81753425Y-30630615D02*
X81888112Y-30495928D01*
X81888112Y-30495928D02*
X81989127Y-30462256D01*
X81989127Y-30462256D02*
X82056470Y-30462256D01*
X82056470Y-30462256D02*
X82157486Y-30495928D01*
X82157486Y-30495928D02*
X82359516Y-30697958D01*
X82359516Y-30697958D02*
X82393188Y-30798973D01*
X82393188Y-30798973D02*
X82393188Y-30866317D01*
X82393188Y-30866317D02*
X82359516Y-30967332D01*
X82359516Y-30967332D02*
X82224829Y-31102019D01*
X82224829Y-31102019D02*
X82123814Y-31135691D01*
X82898264Y-30428584D02*
X82797249Y-30462256D01*
X82797249Y-30462256D02*
X82729905Y-30462256D01*
X82729905Y-30462256D02*
X82628890Y-30428584D01*
X82628890Y-30428584D02*
X82426860Y-30226554D01*
X82426860Y-30226554D02*
X82393188Y-30125538D01*
X82393188Y-30125538D02*
X82393188Y-30058195D01*
X82393188Y-30058195D02*
X82426860Y-29957180D01*
X82426860Y-29957180D02*
X82527875Y-29856164D01*
X82527875Y-29856164D02*
X82628890Y-29822493D01*
X82628890Y-29822493D02*
X82696234Y-29822493D01*
X82696234Y-29822493D02*
X82797249Y-29856164D01*
X82797249Y-29856164D02*
X82999279Y-30058195D01*
X82999279Y-30058195D02*
X83032951Y-30159210D01*
X83032951Y-30159210D02*
X83032951Y-30226554D01*
X83032951Y-30226554D02*
X82999279Y-30327569D01*
X82999279Y-30327569D02*
X82898264Y-30428584D01*
X83437012Y-29889836D02*
X82965608Y-29418431D01*
X82729906Y-29182729D02*
X82729906Y-29250073D01*
X82729906Y-29250073D02*
X82797249Y-29250073D01*
X82797249Y-29250073D02*
X82797249Y-29182729D01*
X82797249Y-29182729D02*
X82729906Y-29182729D01*
X82729906Y-29182729D02*
X82797249Y-29250073D01*
X83302325Y-29081714D02*
X83773729Y-29553119D01*
X83369668Y-29149058D02*
X83369668Y-29081714D01*
X83369668Y-29081714D02*
X83403340Y-28980699D01*
X83403340Y-28980699D02*
X83504355Y-28879684D01*
X83504355Y-28879684D02*
X83605371Y-28846012D01*
X83605371Y-28846012D02*
X83706386Y-28879684D01*
X83706386Y-28879684D02*
X84076775Y-29250073D01*
X83841073Y-28542966D02*
X84110447Y-28273592D01*
X83706386Y-28206249D02*
X84312478Y-28812340D01*
X84312478Y-28812340D02*
X84413493Y-28846012D01*
X84413493Y-28846012D02*
X84514508Y-28812340D01*
X84514508Y-28812340D02*
X84581852Y-28744997D01*
X81410269Y-33250574D02*
X82050033Y-33553620D01*
X82050033Y-33553620D02*
X81746987Y-32913856D01*
X82858155Y-32745497D02*
X82454094Y-33149558D01*
X82656124Y-32947528D02*
X81949018Y-32240421D01*
X81949018Y-32240421D02*
X81982689Y-32408780D01*
X81982689Y-32408780D02*
X81982689Y-32543467D01*
X81982689Y-32543467D02*
X81949018Y-32644482D01*
X83093857Y-32375108D02*
X83161201Y-32375108D01*
X83161201Y-32375108D02*
X83161201Y-32442452D01*
X83161201Y-32442452D02*
X83093857Y-32442452D01*
X83093857Y-32442452D02*
X83093857Y-32375108D01*
X83093857Y-32375108D02*
X83161201Y-32442452D01*
X83868307Y-31735345D02*
X83464246Y-32139406D01*
X83666277Y-31937376D02*
X82959170Y-31230269D01*
X82959170Y-31230269D02*
X82992842Y-31398628D01*
X82992842Y-31398628D02*
X82992842Y-31533315D01*
X82992842Y-31533315D02*
X82959170Y-31634330D01*
X67457219Y-3532065D02*
X67457219Y-2960637D01*
X68457219Y-3246351D02*
X67457219Y-3246351D01*
X67457219Y-2722541D02*
X67457219Y-2103494D01*
X67457219Y-2103494D02*
X67838171Y-2436827D01*
X67838171Y-2436827D02*
X67838171Y-2293970D01*
X67838171Y-2293970D02*
X67885790Y-2198732D01*
X67885790Y-2198732D02*
X67933409Y-2151113D01*
X67933409Y-2151113D02*
X68028647Y-2103494D01*
X68028647Y-2103494D02*
X68266742Y-2103494D01*
X68266742Y-2103494D02*
X68361980Y-2151113D01*
X68361980Y-2151113D02*
X68409600Y-2198732D01*
X68409600Y-2198732D02*
X68457219Y-2293970D01*
X68457219Y-2293970D02*
X68457219Y-2579684D01*
X68457219Y-2579684D02*
X68409600Y-2674922D01*
X68409600Y-2674922D02*
X68361980Y-2722541D01*
X38392780Y-35356816D02*
X37392780Y-35690149D01*
X37392780Y-35690149D02*
X38392780Y-36023482D01*
X38392780Y-36547292D02*
X38392780Y-36737768D01*
X38392780Y-36737768D02*
X38345161Y-36833006D01*
X38345161Y-36833006D02*
X38249923Y-36928244D01*
X38249923Y-36928244D02*
X38059447Y-36975863D01*
X38059447Y-36975863D02*
X37726114Y-36975863D01*
X37726114Y-36975863D02*
X37535638Y-36928244D01*
X37535638Y-36928244D02*
X37440400Y-36833006D01*
X37440400Y-36833006D02*
X37392780Y-36737768D01*
X37392780Y-36737768D02*
X37392780Y-36547292D01*
X37392780Y-36547292D02*
X37440400Y-36452054D01*
X37440400Y-36452054D02*
X37535638Y-36356816D01*
X37535638Y-36356816D02*
X37726114Y-36309197D01*
X37726114Y-36309197D02*
X38059447Y-36309197D01*
X38059447Y-36309197D02*
X38249923Y-36356816D01*
X38249923Y-36356816D02*
X38345161Y-36452054D01*
X38345161Y-36452054D02*
X38392780Y-36547292D01*
X38392780Y-37404435D02*
X37583257Y-37404435D01*
X37583257Y-37404435D02*
X37488019Y-37452054D01*
X37488019Y-37452054D02*
X37440400Y-37499673D01*
X37440400Y-37499673D02*
X37392780Y-37594911D01*
X37392780Y-37594911D02*
X37392780Y-37785387D01*
X37392780Y-37785387D02*
X37440400Y-37880625D01*
X37440400Y-37880625D02*
X37488019Y-37928244D01*
X37488019Y-37928244D02*
X37583257Y-37975863D01*
X37583257Y-37975863D02*
X38392780Y-37975863D01*
X38392780Y-38309197D02*
X38392780Y-38880625D01*
X37392780Y-38594911D02*
X38392780Y-38594911D01*
X44652054Y-10199600D02*
X44794911Y-10247219D01*
X44794911Y-10247219D02*
X45033006Y-10247219D01*
X45033006Y-10247219D02*
X45128244Y-10199600D01*
X45128244Y-10199600D02*
X45175863Y-10151980D01*
X45175863Y-10151980D02*
X45223482Y-10056742D01*
X45223482Y-10056742D02*
X45223482Y-9961504D01*
X45223482Y-9961504D02*
X45175863Y-9866266D01*
X45175863Y-9866266D02*
X45128244Y-9818647D01*
X45128244Y-9818647D02*
X45033006Y-9771028D01*
X45033006Y-9771028D02*
X44842530Y-9723409D01*
X44842530Y-9723409D02*
X44747292Y-9675790D01*
X44747292Y-9675790D02*
X44699673Y-9628171D01*
X44699673Y-9628171D02*
X44652054Y-9532933D01*
X44652054Y-9532933D02*
X44652054Y-9437695D01*
X44652054Y-9437695D02*
X44699673Y-9342457D01*
X44699673Y-9342457D02*
X44747292Y-9294838D01*
X44747292Y-9294838D02*
X44842530Y-9247219D01*
X44842530Y-9247219D02*
X45080625Y-9247219D01*
X45080625Y-9247219D02*
X45223482Y-9294838D01*
X45556816Y-9247219D02*
X45794911Y-10247219D01*
X45794911Y-10247219D02*
X45985387Y-9532933D01*
X45985387Y-9532933D02*
X46175863Y-10247219D01*
X46175863Y-10247219D02*
X46413959Y-9247219D01*
X46794911Y-10247219D02*
X46794911Y-9247219D01*
X46794911Y-9247219D02*
X47033006Y-9247219D01*
X47033006Y-9247219D02*
X47175863Y-9294838D01*
X47175863Y-9294838D02*
X47271101Y-9390076D01*
X47271101Y-9390076D02*
X47318720Y-9485314D01*
X47318720Y-9485314D02*
X47366339Y-9675790D01*
X47366339Y-9675790D02*
X47366339Y-9818647D01*
X47366339Y-9818647D02*
X47318720Y-10009123D01*
X47318720Y-10009123D02*
X47271101Y-10104361D01*
X47271101Y-10104361D02*
X47175863Y-10199600D01*
X47175863Y-10199600D02*
X47033006Y-10247219D01*
X47033006Y-10247219D02*
X46794911Y-10247219D01*
X4161101Y-5557219D02*
X3827768Y-5081028D01*
X3589673Y-5557219D02*
X3589673Y-4557219D01*
X3589673Y-4557219D02*
X3970625Y-4557219D01*
X3970625Y-4557219D02*
X4065863Y-4604838D01*
X4065863Y-4604838D02*
X4113482Y-4652457D01*
X4113482Y-4652457D02*
X4161101Y-4747695D01*
X4161101Y-4747695D02*
X4161101Y-4890552D01*
X4161101Y-4890552D02*
X4113482Y-4985790D01*
X4113482Y-4985790D02*
X4065863Y-5033409D01*
X4065863Y-5033409D02*
X3970625Y-5081028D01*
X3970625Y-5081028D02*
X3589673Y-5081028D01*
X4446816Y-4557219D02*
X5018244Y-4557219D01*
X4732530Y-5557219D02*
X4732530Y-4557219D01*
X5351578Y-5557219D02*
X5351578Y-4557219D01*
X5351578Y-4557219D02*
X5589673Y-4557219D01*
X5589673Y-4557219D02*
X5732530Y-4604838D01*
X5732530Y-4604838D02*
X5827768Y-4700076D01*
X5827768Y-4700076D02*
X5875387Y-4795314D01*
X5875387Y-4795314D02*
X5923006Y-4985790D01*
X5923006Y-4985790D02*
X5923006Y-5128647D01*
X5923006Y-5128647D02*
X5875387Y-5319123D01*
X5875387Y-5319123D02*
X5827768Y-5414361D01*
X5827768Y-5414361D02*
X5732530Y-5509600D01*
X5732530Y-5509600D02*
X5589673Y-5557219D01*
X5589673Y-5557219D02*
X5351578Y-5557219D01*
X75656816Y-27907219D02*
X75990149Y-28907219D01*
X75990149Y-28907219D02*
X76323482Y-27907219D01*
X76656816Y-27907219D02*
X76656816Y-28716742D01*
X76656816Y-28716742D02*
X76704435Y-28811980D01*
X76704435Y-28811980D02*
X76752054Y-28859600D01*
X76752054Y-28859600D02*
X76847292Y-28907219D01*
X76847292Y-28907219D02*
X77037768Y-28907219D01*
X77037768Y-28907219D02*
X77133006Y-28859600D01*
X77133006Y-28859600D02*
X77180625Y-28811980D01*
X77180625Y-28811980D02*
X77228244Y-28716742D01*
X77228244Y-28716742D02*
X77228244Y-27907219D01*
X77656816Y-28859600D02*
X77799673Y-28907219D01*
X77799673Y-28907219D02*
X78037768Y-28907219D01*
X78037768Y-28907219D02*
X78133006Y-28859600D01*
X78133006Y-28859600D02*
X78180625Y-28811980D01*
X78180625Y-28811980D02*
X78228244Y-28716742D01*
X78228244Y-28716742D02*
X78228244Y-28621504D01*
X78228244Y-28621504D02*
X78180625Y-28526266D01*
X78180625Y-28526266D02*
X78133006Y-28478647D01*
X78133006Y-28478647D02*
X78037768Y-28431028D01*
X78037768Y-28431028D02*
X77847292Y-28383409D01*
X77847292Y-28383409D02*
X77752054Y-28335790D01*
X77752054Y-28335790D02*
X77704435Y-28288171D01*
X77704435Y-28288171D02*
X77656816Y-28192933D01*
X77656816Y-28192933D02*
X77656816Y-28097695D01*
X77656816Y-28097695D02*
X77704435Y-28002457D01*
X77704435Y-28002457D02*
X77752054Y-27954838D01*
X77752054Y-27954838D02*
X77847292Y-27907219D01*
X77847292Y-27907219D02*
X78085387Y-27907219D01*
X78085387Y-27907219D02*
X78228244Y-27954838D01*
X78990149Y-28383409D02*
X79133006Y-28431028D01*
X79133006Y-28431028D02*
X79180625Y-28478647D01*
X79180625Y-28478647D02*
X79228244Y-28573885D01*
X79228244Y-28573885D02*
X79228244Y-28716742D01*
X79228244Y-28716742D02*
X79180625Y-28811980D01*
X79180625Y-28811980D02*
X79133006Y-28859600D01*
X79133006Y-28859600D02*
X79037768Y-28907219D01*
X79037768Y-28907219D02*
X78656816Y-28907219D01*
X78656816Y-28907219D02*
X78656816Y-27907219D01*
X78656816Y-27907219D02*
X78990149Y-27907219D01*
X78990149Y-27907219D02*
X79085387Y-27954838D01*
X79085387Y-27954838D02*
X79133006Y-28002457D01*
X79133006Y-28002457D02*
X79180625Y-28097695D01*
X79180625Y-28097695D02*
X79180625Y-28192933D01*
X79180625Y-28192933D02*
X79133006Y-28288171D01*
X79133006Y-28288171D02*
X79085387Y-28335790D01*
X79085387Y-28335790D02*
X78990149Y-28383409D01*
X78990149Y-28383409D02*
X78656816Y-28383409D01*
X52917219Y-3532065D02*
X52917219Y-2960637D01*
X53917219Y-3246351D02*
X52917219Y-3246351D01*
X53012457Y-2674922D02*
X52964838Y-2627303D01*
X52964838Y-2627303D02*
X52917219Y-2532065D01*
X52917219Y-2532065D02*
X52917219Y-2293970D01*
X52917219Y-2293970D02*
X52964838Y-2198732D01*
X52964838Y-2198732D02*
X53012457Y-2151113D01*
X53012457Y-2151113D02*
X53107695Y-2103494D01*
X53107695Y-2103494D02*
X53202933Y-2103494D01*
X53202933Y-2103494D02*
X53345790Y-2151113D01*
X53345790Y-2151113D02*
X53917219Y-2722541D01*
X53917219Y-2722541D02*
X53917219Y-2103494D01*
X21903482Y-18277219D02*
X21332054Y-18277219D01*
X21617768Y-18277219D02*
X21617768Y-17277219D01*
X21617768Y-17277219D02*
X21522530Y-17420076D01*
X21522530Y-17420076D02*
X21427292Y-17515314D01*
X21427292Y-17515314D02*
X21332054Y-17562933D01*
X22284435Y-17372457D02*
X22332054Y-17324838D01*
X22332054Y-17324838D02*
X22427292Y-17277219D01*
X22427292Y-17277219D02*
X22665387Y-17277219D01*
X22665387Y-17277219D02*
X22760625Y-17324838D01*
X22760625Y-17324838D02*
X22808244Y-17372457D01*
X22808244Y-17372457D02*
X22855863Y-17467695D01*
X22855863Y-17467695D02*
X22855863Y-17562933D01*
X22855863Y-17562933D02*
X22808244Y-17705790D01*
X22808244Y-17705790D02*
X22236816Y-18277219D01*
X22236816Y-18277219D02*
X22855863Y-18277219D01*
X23474911Y-17277219D02*
X23570149Y-17277219D01*
X23570149Y-17277219D02*
X23665387Y-17324838D01*
X23665387Y-17324838D02*
X23713006Y-17372457D01*
X23713006Y-17372457D02*
X23760625Y-17467695D01*
X23760625Y-17467695D02*
X23808244Y-17658171D01*
X23808244Y-17658171D02*
X23808244Y-17896266D01*
X23808244Y-17896266D02*
X23760625Y-18086742D01*
X23760625Y-18086742D02*
X23713006Y-18181980D01*
X23713006Y-18181980D02*
X23665387Y-18229600D01*
X23665387Y-18229600D02*
X23570149Y-18277219D01*
X23570149Y-18277219D02*
X23474911Y-18277219D01*
X23474911Y-18277219D02*
X23379673Y-18229600D01*
X23379673Y-18229600D02*
X23332054Y-18181980D01*
X23332054Y-18181980D02*
X23284435Y-18086742D01*
X23284435Y-18086742D02*
X23236816Y-17896266D01*
X23236816Y-17896266D02*
X23236816Y-17658171D01*
X23236816Y-17658171D02*
X23284435Y-17467695D01*
X23284435Y-17467695D02*
X23332054Y-17372457D01*
X23332054Y-17372457D02*
X23379673Y-17324838D01*
X23379673Y-17324838D02*
X23474911Y-17277219D01*
X24808244Y-18277219D02*
X24474911Y-17801028D01*
X24236816Y-18277219D02*
X24236816Y-17277219D01*
X24236816Y-17277219D02*
X24617768Y-17277219D01*
X24617768Y-17277219D02*
X24713006Y-17324838D01*
X24713006Y-17324838D02*
X24760625Y-17372457D01*
X24760625Y-17372457D02*
X24808244Y-17467695D01*
X24808244Y-17467695D02*
X24808244Y-17610552D01*
X24808244Y-17610552D02*
X24760625Y-17705790D01*
X24760625Y-17705790D02*
X24713006Y-17753409D01*
X24713006Y-17753409D02*
X24617768Y-17801028D01*
X24617768Y-17801028D02*
X24236816Y-17801028D01*
D11*
X46083333Y-38344819D02*
X45607143Y-38344819D01*
X45607143Y-38344819D02*
X45607143Y-37344819D01*
X46321429Y-37344819D02*
X46940476Y-37344819D01*
X46940476Y-37344819D02*
X46607143Y-37725771D01*
X46607143Y-37725771D02*
X46750000Y-37725771D01*
X46750000Y-37725771D02*
X46845238Y-37773390D01*
X46845238Y-37773390D02*
X46892857Y-37821009D01*
X46892857Y-37821009D02*
X46940476Y-37916247D01*
X46940476Y-37916247D02*
X46940476Y-38154342D01*
X46940476Y-38154342D02*
X46892857Y-38249580D01*
X46892857Y-38249580D02*
X46845238Y-38297200D01*
X46845238Y-38297200D02*
X46750000Y-38344819D01*
X46750000Y-38344819D02*
X46464286Y-38344819D01*
X46464286Y-38344819D02*
X46369048Y-38297200D01*
X46369048Y-38297200D02*
X46321429Y-38249580D01*
D12*
%TO.C,J1*%
X24289592Y-8708882D02*
X24289592Y-9958882D01*
X24289592Y-9958882D02*
X25539592Y-9958882D01*
X24579592Y-2048882D02*
X24579592Y-9668882D01*
X24579592Y-9668882D02*
X30549592Y-9668882D01*
X24589592Y-2058882D02*
X24589592Y-3858882D01*
X24589592Y-3858882D02*
X25339592Y-3858882D01*
X24589592Y-5358882D02*
X24589592Y-6358882D01*
X24589592Y-6358882D02*
X25339592Y-6358882D01*
X24589592Y-7858882D02*
X24589592Y-9658882D01*
X24589592Y-9658882D02*
X25339592Y-9658882D01*
X25339592Y-2058882D02*
X24589592Y-2058882D01*
X25339592Y-3858882D02*
X25339592Y-2058882D01*
X25339592Y-5358882D02*
X24589592Y-5358882D01*
X25339592Y-6358882D02*
X25339592Y-5358882D01*
X25339592Y-7858882D02*
X24589592Y-7858882D01*
X25339592Y-9658882D02*
X25339592Y-7858882D01*
X26839592Y-2058882D02*
X26839592Y-2808882D01*
X26839592Y-2808882D02*
X29789592Y-2808882D01*
X26839592Y-8908882D02*
X29789592Y-8908882D01*
X26839592Y-9658882D02*
X26839592Y-8908882D01*
X29789592Y-2808882D02*
X29789592Y-5858882D01*
X29789592Y-8908882D02*
X29789592Y-5858882D01*
X30549592Y-2048882D02*
X24579592Y-2048882D01*
X30549592Y-9668882D02*
X30549592Y-2048882D01*
%TO.C,C5*%
X19107428Y-5128882D02*
X18891756Y-5128882D01*
X19107428Y-5848882D02*
X18891756Y-5848882D01*
%TO.C,R23*%
X71287500Y-20297258D02*
X71287500Y-19822742D01*
X72332500Y-20297258D02*
X72332500Y-19822742D01*
%TO.C,C6*%
X16797836Y-7620000D02*
X16582164Y-7620000D01*
X16797836Y-8340000D02*
X16582164Y-8340000D01*
%TO.C,C27*%
X45405000Y-29520134D02*
X45405000Y-28997630D01*
X46875000Y-29520134D02*
X46875000Y-28997630D01*
%TO.C,R35*%
X55116850Y-25536382D02*
X54642334Y-25536382D01*
X55116850Y-26581382D02*
X54642334Y-26581382D01*
%TO.C,C4*%
X59197428Y-10028882D02*
X58981756Y-10028882D01*
X59197428Y-10748882D02*
X58981756Y-10748882D01*
%TO.C,JP1*%
X20274592Y-18528882D02*
X20274592Y-21188882D01*
X22874592Y-18528882D02*
X20274592Y-18528882D01*
X22874592Y-18528882D02*
X22874592Y-21188882D01*
X22874592Y-21188882D02*
X20274592Y-21188882D01*
X24144592Y-18528882D02*
X25474592Y-18528882D01*
X25474592Y-18528882D02*
X25474592Y-19858882D01*
%TO.C,U1*%
X13069592Y-10113293D02*
X13969592Y-10113293D01*
X13069592Y-11013293D02*
X13069592Y-10113293D01*
X13069592Y-14433293D02*
X13069592Y-15333293D01*
X13069592Y-15333293D02*
X13969592Y-15333293D01*
X17389592Y-10113293D02*
X18049592Y-10113293D01*
X18289592Y-11013293D02*
X18289592Y-10413293D01*
X18289592Y-14433293D02*
X18289592Y-15333293D01*
X18289592Y-15333293D02*
X17389592Y-15333293D01*
X18619592Y-10353293D02*
X18289592Y-10113293D01*
X18619592Y-9873293D01*
X18619592Y-10353293D01*
G36*
X18619592Y-10353293D02*
G01*
X18289592Y-10113293D01*
X18619592Y-9873293D01*
X18619592Y-10353293D01*
G37*
%TO.C,R10*%
X41217258Y-1625000D02*
X40742742Y-1625000D01*
X41217258Y-2670000D02*
X40742742Y-2670000D01*
%TO.C,C30*%
X61614592Y-36187630D02*
X61614592Y-36710134D01*
X63084592Y-36187630D02*
X63084592Y-36710134D01*
%TO.C,R13*%
X18397258Y-16037500D02*
X17922742Y-16037500D01*
X18397258Y-17082500D02*
X17922742Y-17082500D01*
%TO.C,R20*%
X23947092Y-23416140D02*
X23947092Y-22941624D01*
X24992092Y-23416140D02*
X24992092Y-22941624D01*
%TO.C,R26*%
X57097500Y-24137258D02*
X57097500Y-23662742D01*
X58142500Y-24137258D02*
X58142500Y-23662742D01*
%TO.C,R7*%
X49737500Y-3087258D02*
X49737500Y-2612742D01*
X50782500Y-3087258D02*
X50782500Y-2612742D01*
%TO.C,U4*%
X72104592Y-12448882D02*
X72104592Y-11148882D01*
X74084592Y-12448882D02*
X74084592Y-11398882D01*
X74364592Y-11028882D02*
X74084592Y-11028882D01*
X74084592Y-10748882D01*
X74364592Y-11028882D01*
G36*
X74364592Y-11028882D02*
G01*
X74084592Y-11028882D01*
X74084592Y-10748882D01*
X74364592Y-11028882D01*
G37*
%TO.C,C20*%
X50655172Y-11043882D02*
X50374012Y-11043882D01*
X50655172Y-12063882D02*
X50374012Y-12063882D01*
%TO.C,C3*%
X52820000Y-4802164D02*
X52820000Y-5017836D01*
X53540000Y-4802164D02*
X53540000Y-5017836D01*
%TO.C,D10*%
X41750000Y-32417500D02*
X41750000Y-26907500D01*
X41750000Y-32417500D02*
X45050000Y-32417500D01*
X45050000Y-32417500D02*
X45050000Y-26907500D01*
%TO.C,C1*%
X25247428Y-13020000D02*
X25031756Y-13020000D01*
X25247428Y-13740000D02*
X25031756Y-13740000D01*
%TO.C,C7*%
X11484592Y-12281046D02*
X11484592Y-12496718D01*
X12204592Y-12281046D02*
X12204592Y-12496718D01*
%TO.C,R8*%
X64212334Y-10126382D02*
X64686850Y-10126382D01*
X64212334Y-11171382D02*
X64686850Y-11171382D01*
%TO.C,C8*%
X31034248Y-11236607D02*
X30753088Y-11236607D01*
X31034248Y-12256607D02*
X30753088Y-12256607D01*
%TO.C,D5*%
X21334592Y-26833882D02*
X21334592Y-26183882D01*
X21334592Y-26833882D02*
X21334592Y-27483882D01*
X24454592Y-26833882D02*
X24454592Y-26183882D01*
X24454592Y-26833882D02*
X24454592Y-27483882D01*
X21384592Y-27996382D02*
X21054592Y-28236382D01*
X21054592Y-27756382D01*
X21384592Y-27996382D01*
G36*
X21384592Y-27996382D02*
G01*
X21054592Y-28236382D01*
X21054592Y-27756382D01*
X21384592Y-27996382D01*
G37*
%TO.C,D8*%
X60320000Y-29855000D02*
X60320000Y-32540000D01*
X62240000Y-29855000D02*
X60320000Y-29855000D01*
X62240000Y-32540000D02*
X62240000Y-29855000D01*
%TO.C,C18*%
X50482164Y-20500000D02*
X50697836Y-20500000D01*
X50482164Y-21220000D02*
X50697836Y-21220000D01*
%TO.C,C31*%
X59284592Y-36272630D02*
X59284592Y-37695134D01*
X61104592Y-36272630D02*
X61104592Y-37695134D01*
%TO.C,J2*%
X31074592Y-8708882D02*
X31074592Y-9958882D01*
X31074592Y-9958882D02*
X32324592Y-9958882D01*
X31364592Y-2048882D02*
X31364592Y-9668882D01*
X31364592Y-9668882D02*
X37334592Y-9668882D01*
X31374592Y-2058882D02*
X31374592Y-3858882D01*
X31374592Y-3858882D02*
X32124592Y-3858882D01*
X31374592Y-5358882D02*
X31374592Y-6358882D01*
X31374592Y-6358882D02*
X32124592Y-6358882D01*
X31374592Y-7858882D02*
X31374592Y-9658882D01*
X31374592Y-9658882D02*
X32124592Y-9658882D01*
X32124592Y-2058882D02*
X31374592Y-2058882D01*
X32124592Y-3858882D02*
X32124592Y-2058882D01*
X32124592Y-5358882D02*
X31374592Y-5358882D01*
X32124592Y-6358882D02*
X32124592Y-5358882D01*
X32124592Y-7858882D02*
X31374592Y-7858882D01*
X32124592Y-9658882D02*
X32124592Y-7858882D01*
X33624592Y-2058882D02*
X33624592Y-2808882D01*
X33624592Y-2808882D02*
X36574592Y-2808882D01*
X33624592Y-8908882D02*
X36574592Y-8908882D01*
X33624592Y-9658882D02*
X33624592Y-8908882D01*
X36574592Y-2808882D02*
X36574592Y-5858882D01*
X36574592Y-8908882D02*
X36574592Y-5858882D01*
X37334592Y-2048882D02*
X31364592Y-2048882D01*
X37334592Y-9668882D02*
X37334592Y-2048882D01*
%TO.C,R34*%
X61717258Y-33427500D02*
X61242742Y-33427500D01*
X61717258Y-34472500D02*
X61242742Y-34472500D01*
%TO.C,J10*%
X11005000Y-26630000D02*
X11005000Y-34250000D01*
X11005000Y-34250000D02*
X16975000Y-34250000D01*
X11765000Y-27390000D02*
X11765000Y-30440000D01*
X11765000Y-33490000D02*
X11765000Y-30440000D01*
X14715000Y-26640000D02*
X14715000Y-27390000D01*
X14715000Y-27390000D02*
X11765000Y-27390000D01*
X14715000Y-33490000D02*
X11765000Y-33490000D01*
X14715000Y-34240000D02*
X14715000Y-33490000D01*
X16215000Y-26640000D02*
X16215000Y-28440000D01*
X16215000Y-28440000D02*
X16965000Y-28440000D01*
X16215000Y-29940000D02*
X16215000Y-30940000D01*
X16215000Y-30940000D02*
X16965000Y-30940000D01*
X16215000Y-32440000D02*
X16215000Y-34240000D01*
X16215000Y-34240000D02*
X16965000Y-34240000D01*
X16965000Y-26640000D02*
X16215000Y-26640000D01*
X16965000Y-28440000D02*
X16965000Y-26640000D01*
X16965000Y-29940000D02*
X16215000Y-29940000D01*
X16965000Y-30940000D02*
X16965000Y-29940000D01*
X16965000Y-32440000D02*
X16215000Y-32440000D01*
X16965000Y-34240000D02*
X16965000Y-32440000D01*
X16975000Y-26630000D02*
X11005000Y-26630000D01*
X16975000Y-34250000D02*
X16975000Y-26630000D01*
X17265000Y-26340000D02*
X16015000Y-26340000D01*
X17265000Y-27590000D02*
X17265000Y-26340000D01*
%TO.C,C32*%
X56959592Y-36272630D02*
X56959592Y-37695134D01*
X58779592Y-36272630D02*
X58779592Y-37695134D01*
%TO.C,L2*%
X48362371Y-18768882D02*
X48036813Y-18768882D01*
X48362371Y-19788882D02*
X48036813Y-19788882D01*
%TO.C,R6*%
X41207258Y-3085000D02*
X40732742Y-3085000D01*
X41207258Y-4130000D02*
X40732742Y-4130000D01*
%TO.C,R21*%
X20847092Y-23396140D02*
X20847092Y-22921624D01*
X21892092Y-23396140D02*
X21892092Y-22921624D01*
%TO.C,U3*%
X37294592Y-12281382D02*
X37294592Y-12731382D01*
X37294592Y-19501382D02*
X37294592Y-19051382D01*
X37744592Y-12281382D02*
X37294592Y-12281382D01*
X37744592Y-19501382D02*
X37294592Y-19501382D01*
X44064592Y-12281382D02*
X44514592Y-12281382D01*
X44064592Y-19501382D02*
X44514592Y-19501382D01*
X44514592Y-12281382D02*
X44514592Y-12731382D01*
X44514592Y-19501382D02*
X44514592Y-19051382D01*
X45444592Y-19521382D02*
X44764592Y-19521382D01*
X45104592Y-19051382D01*
X45444592Y-19521382D01*
G36*
X45444592Y-19521382D02*
G01*
X44764592Y-19521382D01*
X45104592Y-19051382D01*
X45444592Y-19521382D01*
G37*
%TO.C,R28*%
X58757258Y-33427500D02*
X58282742Y-33427500D01*
X58757258Y-34472500D02*
X58282742Y-34472500D01*
%TO.C,R25*%
X51407500Y-23057258D02*
X51407500Y-22582742D01*
X52452500Y-23057258D02*
X52452500Y-22582742D01*
%TO.C,R29*%
X48436850Y-20216382D02*
X47962334Y-20216382D01*
X48436850Y-21261382D02*
X47962334Y-21261382D01*
%TO.C,D6*%
X58270000Y-29855000D02*
X58270000Y-32540000D01*
X60190000Y-29855000D02*
X58270000Y-29855000D01*
X60190000Y-32540000D02*
X60190000Y-29855000D01*
%TO.C,R12*%
X67647258Y-10307500D02*
X67172742Y-10307500D01*
X67647258Y-11352500D02*
X67172742Y-11352500D01*
%TO.C,J18*%
X26725000Y-29115000D02*
X26725000Y-29615000D01*
X26965000Y-29355000D02*
X26965000Y-39635000D01*
X27465000Y-29115000D02*
X26725000Y-29115000D01*
X27525000Y-29355000D02*
X27525000Y-39635000D01*
X29025000Y-29355000D02*
X29025000Y-39635000D01*
X30386000Y-36001000D02*
X30351000Y-35966000D01*
X30602000Y-35808000D02*
X30556000Y-35761000D01*
X32694000Y-38310000D02*
X32648000Y-38263000D01*
X32900000Y-38105000D02*
X32864000Y-38070000D01*
X33926000Y-29355000D02*
X33926000Y-39635000D01*
X36886000Y-29355000D02*
X26965000Y-29355000D01*
X36886000Y-29355000D02*
X36886000Y-39635000D01*
X36886000Y-39635000D02*
X26965000Y-39635000D01*
X29944747Y-31983805D02*
G75*
G02*
X30090000Y-31271000I1680254J28806D01*
G01*
X30090244Y-32638318D02*
G75*
G02*
X29945000Y-31955000I1534756J683318D01*
G01*
X30941958Y-30419573D02*
G75*
G02*
X32309000Y-30420000I683041J-1535420D01*
G01*
X32308042Y-33490427D02*
G75*
G02*
X30941000Y-33490000I-683042J1535427D01*
G01*
X33160427Y-31271958D02*
G75*
G02*
X33160000Y-32639000I-1535420J-683041D01*
G01*
X33305000Y-37035000D02*
G75*
G02*
X29945000Y-37035000I-1680000J0D01*
G01*
X29945000Y-37035000D02*
G75*
G02*
X33305000Y-37035000I1680000J0D01*
G01*
%TO.C,R31*%
X64687258Y-25377500D02*
X64212742Y-25377500D01*
X64687258Y-26422500D02*
X64212742Y-26422500D01*
%TO.C,R24*%
X80262742Y-20227500D02*
X80737258Y-20227500D01*
X80262742Y-21272500D02*
X80737258Y-21272500D01*
%TO.C,R11*%
X51457500Y-3077258D02*
X51457500Y-2602742D01*
X52502500Y-3077258D02*
X52502500Y-2602742D01*
%TO.C,R33*%
X73337258Y-2997500D02*
X72862742Y-2997500D01*
X73337258Y-4042500D02*
X72862742Y-4042500D01*
%TO.C,R5*%
X21696850Y-2746382D02*
X21222334Y-2746382D01*
X21696850Y-3791382D02*
X21222334Y-3791382D01*
%TO.C,D7*%
X75490000Y-20600000D02*
X75490000Y-15090000D01*
X75490000Y-20600000D02*
X78790000Y-20600000D01*
X78790000Y-20600000D02*
X78790000Y-15090000D01*
%TO.C,D2*%
X42610000Y-3337500D02*
X42610000Y-2687500D01*
X42610000Y-3337500D02*
X42610000Y-3987500D01*
X45730000Y-3337500D02*
X45730000Y-2687500D01*
X45730000Y-3337500D02*
X45730000Y-3987500D01*
X46010000Y-2415000D02*
X45680000Y-2175000D01*
X46010000Y-1935000D01*
X46010000Y-2415000D01*
G36*
X46010000Y-2415000D02*
G01*
X45680000Y-2175000D01*
X46010000Y-1935000D01*
X46010000Y-2415000D01*
G37*
%TO.C,C25*%
X73218748Y-32535000D02*
X73741252Y-32535000D01*
X73218748Y-34005000D02*
X73741252Y-34005000D01*
%TO.C,C17*%
X47329592Y-16288302D02*
X47329592Y-16569462D01*
X48349592Y-16288302D02*
X48349592Y-16569462D01*
%TO.C,C14*%
X56087836Y-22520000D02*
X55872164Y-22520000D01*
X56087836Y-23240000D02*
X55872164Y-23240000D01*
%TO.C,U2*%
X28300000Y-16180000D02*
X28300000Y-14230000D01*
X28300000Y-16180000D02*
X28300000Y-18130000D01*
X33420000Y-16180000D02*
X33420000Y-14230000D01*
X33420000Y-16180000D02*
X33420000Y-18130000D01*
X33655000Y-13720000D02*
X33325000Y-13480000D01*
X33655000Y-13240000D01*
X33655000Y-13720000D01*
G36*
X33655000Y-13720000D02*
G01*
X33325000Y-13480000D01*
X33655000Y-13240000D01*
X33655000Y-13720000D01*
G37*
%TO.C,JP2*%
X74083454Y-29160000D02*
X74083454Y-31820000D01*
X76683454Y-29160000D02*
X74083454Y-29160000D01*
X76683454Y-29160000D02*
X76683454Y-31820000D01*
X76683454Y-31820000D02*
X74083454Y-31820000D01*
X77953454Y-29160000D02*
X79283454Y-29160000D01*
X79283454Y-29160000D02*
X79283454Y-30490000D01*
%TO.C,D3*%
X46012500Y-3330000D02*
X46012500Y-2680000D01*
X46012500Y-3330000D02*
X46012500Y-3980000D01*
X49132500Y-3330000D02*
X49132500Y-2680000D01*
X49132500Y-3330000D02*
X49132500Y-3980000D01*
X49412500Y-2407500D02*
X49082500Y-2167500D01*
X49412500Y-1927500D01*
X49412500Y-2407500D01*
G36*
X49412500Y-2407500D02*
G01*
X49082500Y-2167500D01*
X49412500Y-1927500D01*
X49412500Y-2407500D01*
G37*
%TO.C,J8*%
X8209592Y-15518882D02*
X8209592Y-12918882D01*
X10869592Y-12918882D02*
X8209592Y-12918882D01*
X10869592Y-15518882D02*
X8209592Y-15518882D01*
X10869592Y-15518882D02*
X10869592Y-12918882D01*
X10869592Y-16788882D02*
X10869592Y-18118882D01*
X10869592Y-18118882D02*
X9539592Y-18118882D01*
%TO.C,C24*%
X73651756Y-13678882D02*
X73867428Y-13678882D01*
X73651756Y-14398882D02*
X73867428Y-14398882D01*
%TO.C,J15*%
X58740000Y-18810000D02*
X58740000Y-24780000D01*
X58740000Y-24780000D02*
X68860000Y-24780000D01*
X58750000Y-22520000D02*
X59500000Y-22520000D01*
X58750000Y-24020000D02*
X58750000Y-24770000D01*
X58750000Y-24770000D02*
X60550000Y-24770000D01*
X59500000Y-19570000D02*
X63800000Y-19570000D01*
X59500000Y-22520000D02*
X59500000Y-19570000D01*
X60550000Y-24020000D02*
X58750000Y-24020000D01*
X60550000Y-24770000D02*
X60550000Y-24020000D01*
X62050000Y-24020000D02*
X62050000Y-24770000D01*
X62050000Y-24770000D02*
X65550000Y-24770000D01*
X65550000Y-24020000D02*
X62050000Y-24020000D01*
X65550000Y-24770000D02*
X65550000Y-24020000D01*
X67050000Y-24020000D02*
X67050000Y-24770000D01*
X67050000Y-24770000D02*
X68850000Y-24770000D01*
X67900000Y-25070000D02*
X69150000Y-25070000D01*
X68100000Y-19570000D02*
X63800000Y-19570000D01*
X68100000Y-22520000D02*
X68100000Y-19570000D01*
X68850000Y-22520000D02*
X68100000Y-22520000D01*
X68850000Y-24020000D02*
X67050000Y-24020000D01*
X68850000Y-24770000D02*
X68850000Y-24020000D01*
X68860000Y-18810000D02*
X58740000Y-18810000D01*
X68860000Y-24780000D02*
X68860000Y-18810000D01*
X69150000Y-25070000D02*
X69150000Y-23820000D01*
%TO.C,C10*%
X27184592Y-18851046D02*
X27184592Y-19066718D01*
X27904592Y-18851046D02*
X27904592Y-19066718D01*
%TO.C,R22*%
X72747500Y-19812742D02*
X72747500Y-20287258D01*
X73792500Y-19812742D02*
X73792500Y-20287258D01*
%TO.C,R17*%
X19307500Y-10727258D02*
X19307500Y-10252742D01*
X20352500Y-10727258D02*
X20352500Y-10252742D01*
D11*
%TO.C,U6*%
X52954592Y-27003882D02*
X48804592Y-27003882D01*
X52954592Y-32153882D02*
X48804592Y-32153882D01*
D12*
X53619592Y-32408882D02*
X53139592Y-32408882D01*
X53379592Y-32078882D01*
X53619592Y-32408882D01*
G36*
X53619592Y-32408882D02*
G01*
X53139592Y-32408882D01*
X53379592Y-32078882D01*
X53619592Y-32408882D01*
G37*
%TO.C,C22*%
X50482164Y-18660000D02*
X50697836Y-18660000D01*
X50482164Y-19380000D02*
X50697836Y-19380000D01*
%TO.C,U5*%
X65529592Y-27708882D02*
X69289592Y-27708882D01*
X65529592Y-34528882D02*
X69289592Y-34528882D01*
X69289592Y-27708882D02*
X69289592Y-28968882D01*
X69289592Y-34528882D02*
X69289592Y-33268882D01*
X64249592Y-27808882D02*
X64009592Y-27478882D01*
X64489592Y-27478882D01*
X64249592Y-27808882D01*
G36*
X64249592Y-27808882D02*
G01*
X64009592Y-27478882D01*
X64489592Y-27478882D01*
X64249592Y-27808882D01*
G37*
%TO.C,J16*%
X39480000Y-8960000D02*
X39480000Y-7630000D01*
X40810000Y-8960000D02*
X39480000Y-8960000D01*
X42080000Y-6300000D02*
X52300000Y-6300000D01*
X42080000Y-8960000D02*
X42080000Y-6300000D01*
X42080000Y-8960000D02*
X52300000Y-8960000D01*
X52300000Y-8960000D02*
X52300000Y-6300000D01*
%TO.C,J6*%
X8204592Y-5688882D02*
X8204592Y-4358882D01*
X9534592Y-5688882D02*
X8204592Y-5688882D01*
X10804592Y-3028882D02*
X15944592Y-3028882D01*
X10804592Y-5688882D02*
X10804592Y-3028882D01*
X10804592Y-5688882D02*
X15944592Y-5688882D01*
X15944592Y-5688882D02*
X15944592Y-3028882D01*
%TO.C,C26*%
X72582164Y-31460000D02*
X72797836Y-31460000D01*
X72582164Y-32180000D02*
X72797836Y-32180000D01*
%TO.C,J3*%
X53989592Y-8508882D02*
X53989592Y-9758882D01*
X53989592Y-9758882D02*
X55239592Y-9758882D01*
X54279592Y-1848882D02*
X54279592Y-9468882D01*
X54279592Y-9468882D02*
X60249592Y-9468882D01*
X54289592Y-1858882D02*
X54289592Y-3658882D01*
X54289592Y-3658882D02*
X55039592Y-3658882D01*
X54289592Y-5158882D02*
X54289592Y-6158882D01*
X54289592Y-6158882D02*
X55039592Y-6158882D01*
X54289592Y-7658882D02*
X54289592Y-9458882D01*
X54289592Y-9458882D02*
X55039592Y-9458882D01*
X55039592Y-1858882D02*
X54289592Y-1858882D01*
X55039592Y-3658882D02*
X55039592Y-1858882D01*
X55039592Y-5158882D02*
X54289592Y-5158882D01*
X55039592Y-6158882D02*
X55039592Y-5158882D01*
X55039592Y-7658882D02*
X54289592Y-7658882D01*
X55039592Y-9458882D02*
X55039592Y-7658882D01*
X56539592Y-1858882D02*
X56539592Y-2608882D01*
X56539592Y-2608882D02*
X59489592Y-2608882D01*
X56539592Y-8708882D02*
X59489592Y-8708882D01*
X56539592Y-9458882D02*
X56539592Y-8708882D01*
X59489592Y-2608882D02*
X59489592Y-5658882D01*
X59489592Y-8708882D02*
X59489592Y-5658882D01*
X60249592Y-1848882D02*
X54279592Y-1848882D01*
X60249592Y-9468882D02*
X60249592Y-1848882D01*
%TO.C,C23*%
X76928748Y-11815000D02*
X77451252Y-11815000D01*
X76928748Y-13285000D02*
X77451252Y-13285000D01*
%TO.C,R18*%
X33847258Y-20127500D02*
X33372742Y-20127500D01*
X33847258Y-21172500D02*
X33372742Y-21172500D01*
%TO.C,C29*%
X63584592Y-36187630D02*
X63584592Y-36710134D01*
X65054592Y-36187630D02*
X65054592Y-36710134D01*
%TO.C,R16*%
X19322092Y-13212742D02*
X19322092Y-13687258D01*
X20367092Y-13212742D02*
X20367092Y-13687258D01*
%TO.C,F1*%
X31115000Y-23515000D02*
X31115000Y-23975000D01*
X31115000Y-28765000D02*
X31115000Y-28305000D01*
X41065000Y-23515000D02*
X31115000Y-23515000D01*
X41065000Y-23975000D02*
X41065000Y-23515000D01*
X41065000Y-28765000D02*
X31115000Y-28765000D01*
X41065000Y-28765000D02*
X41065000Y-28305000D01*
%TO.C,J5*%
X8219592Y-6689471D02*
X9549592Y-6689471D01*
X8219592Y-8019471D02*
X8219592Y-6689471D01*
X8219592Y-9289471D02*
X8219592Y-11889471D01*
X8219592Y-9289471D02*
X10879592Y-9289471D01*
X8219592Y-11889471D02*
X10879592Y-11889471D01*
X10879592Y-9289471D02*
X10879592Y-11889471D01*
%TO.C,R32*%
X47317092Y-13191624D02*
X47317092Y-13666140D01*
X48362092Y-13191624D02*
X48362092Y-13666140D01*
%TO.C,L3*%
X48180000Y-34380000D02*
X48180000Y-33170000D01*
X48180000Y-39480000D02*
X48180000Y-38280000D01*
X48780000Y-32570000D02*
X55100000Y-32570000D01*
X55100000Y-40090000D02*
X48780000Y-40090000D01*
X55700000Y-33170000D02*
X55700000Y-34380000D01*
X55700000Y-38280000D02*
X55700000Y-39430000D01*
X48180000Y-33170000D02*
G75*
G02*
X48780000Y-32570000I600000J0D01*
G01*
X48780000Y-40090000D02*
G75*
G02*
X48180000Y-39480000I5004J605004D01*
G01*
X55100000Y-32570000D02*
G75*
G02*
X55700000Y-33170000I0J-600000D01*
G01*
X55700000Y-39430000D02*
G75*
G02*
X55100000Y-40090000I-630000J-30000D01*
G01*
%TO.C,C28*%
X55451756Y-31598882D02*
X55667428Y-31598882D01*
X55451756Y-32318882D02*
X55667428Y-32318882D01*
%TO.C,C15*%
X80359420Y-17320000D02*
X80640580Y-17320000D01*
X80359420Y-18340000D02*
X80640580Y-18340000D01*
%TO.C,J11*%
X45389592Y-24608882D02*
X45389592Y-23278882D01*
X46719592Y-24608882D02*
X45389592Y-24608882D01*
X47989592Y-21948882D02*
X50589592Y-21948882D01*
X47989592Y-24608882D02*
X47989592Y-21948882D01*
X47989592Y-24608882D02*
X50589592Y-24608882D01*
X50589592Y-24608882D02*
X50589592Y-21948882D01*
%TO.C,Y1*%
X48739592Y-12728882D02*
X48739592Y-18478882D01*
X48739592Y-18478882D02*
X52339592Y-18478882D01*
X52339592Y-18478882D02*
X52339592Y-12728882D01*
%TO.C,C19*%
X38180000Y-7592164D02*
X38180000Y-7807836D01*
X38900000Y-7592164D02*
X38900000Y-7807836D01*
%TO.C,C13*%
X19799592Y-27409462D02*
X19799592Y-27128302D01*
X20819592Y-27409462D02*
X20819592Y-27128302D01*
%TO.C,R2*%
X40732742Y-4565000D02*
X41207258Y-4565000D01*
X40732742Y-5610000D02*
X41207258Y-5610000D01*
%TO.C,D1*%
X20749592Y-6148882D02*
X20749592Y-5498882D01*
X20749592Y-6148882D02*
X20749592Y-6798882D01*
X23869592Y-6148882D02*
X23869592Y-5498882D01*
X23869592Y-6148882D02*
X23869592Y-6798882D01*
X20799592Y-7311382D02*
X20469592Y-7551382D01*
X20469592Y-7071382D01*
X20799592Y-7311382D01*
G36*
X20799592Y-7311382D02*
G01*
X20469592Y-7551382D01*
X20469592Y-7071382D01*
X20799592Y-7311382D01*
G37*
%TO.C,C21*%
X50492164Y-19580000D02*
X50707836Y-19580000D01*
X50492164Y-20300000D02*
X50707836Y-20300000D01*
%TO.C,R3*%
X51007258Y-4537500D02*
X50532742Y-4537500D01*
X51007258Y-5582500D02*
X50532742Y-5582500D01*
%TO.C,J14*%
X58730000Y-12025000D02*
X58730000Y-17995000D01*
X58730000Y-17995000D02*
X68850000Y-17995000D01*
X58740000Y-15735000D02*
X59490000Y-15735000D01*
X58740000Y-17235000D02*
X58740000Y-17985000D01*
X58740000Y-17985000D02*
X60540000Y-17985000D01*
X59490000Y-12785000D02*
X63790000Y-12785000D01*
X59490000Y-15735000D02*
X59490000Y-12785000D01*
X60540000Y-17235000D02*
X58740000Y-17235000D01*
X60540000Y-17985000D02*
X60540000Y-17235000D01*
X62040000Y-17235000D02*
X62040000Y-17985000D01*
X62040000Y-17985000D02*
X65540000Y-17985000D01*
X65540000Y-17235000D02*
X62040000Y-17235000D01*
X65540000Y-17985000D02*
X65540000Y-17235000D01*
X67040000Y-17235000D02*
X67040000Y-17985000D01*
X67040000Y-17985000D02*
X68840000Y-17985000D01*
X67890000Y-18285000D02*
X69140000Y-18285000D01*
X68090000Y-12785000D02*
X63790000Y-12785000D01*
X68090000Y-15735000D02*
X68090000Y-12785000D01*
X68840000Y-15735000D02*
X68090000Y-15735000D01*
X68840000Y-17235000D02*
X67040000Y-17235000D01*
X68840000Y-17985000D02*
X68840000Y-17235000D01*
X68850000Y-12025000D02*
X58730000Y-12025000D01*
X68850000Y-17995000D02*
X68850000Y-12025000D01*
X69140000Y-18285000D02*
X69140000Y-17035000D01*
%TO.C,C16*%
X18570172Y-6168882D02*
X18289012Y-6168882D01*
X18570172Y-7188882D02*
X18289012Y-7188882D01*
%TO.C,J7*%
X1040000Y-17710000D02*
X1040000Y-18960000D01*
X1040000Y-18960000D02*
X2290000Y-18960000D01*
X1330000Y-6050000D02*
X1330000Y-18670000D01*
X1330000Y-18670000D02*
X7300000Y-18670000D01*
X1340000Y-6060000D02*
X1340000Y-7860000D01*
X1340000Y-7860000D02*
X2090000Y-7860000D01*
X1340000Y-9360000D02*
X1340000Y-15360000D01*
X1340000Y-15360000D02*
X2090000Y-15360000D01*
X1340000Y-16860000D02*
X1340000Y-18660000D01*
X1340000Y-18660000D02*
X2090000Y-18660000D01*
X2090000Y-6060000D02*
X1340000Y-6060000D01*
X2090000Y-7860000D02*
X2090000Y-6060000D01*
X2090000Y-9360000D02*
X1340000Y-9360000D01*
X2090000Y-15360000D02*
X2090000Y-9360000D01*
X2090000Y-16860000D02*
X1340000Y-16860000D01*
X2090000Y-18660000D02*
X2090000Y-16860000D01*
X3590000Y-6060000D02*
X3590000Y-6810000D01*
X3590000Y-6810000D02*
X6540000Y-6810000D01*
X3590000Y-17910000D02*
X6540000Y-17910000D01*
X3590000Y-18660000D02*
X3590000Y-17910000D01*
X6540000Y-6810000D02*
X6540000Y-12360000D01*
X6540000Y-17910000D02*
X6540000Y-12360000D01*
X7300000Y-6050000D02*
X1330000Y-6050000D01*
X7300000Y-18670000D02*
X7300000Y-6050000D01*
%TO.C,R4*%
X61242334Y-10126382D02*
X61716850Y-10126382D01*
X61242334Y-11171382D02*
X61716850Y-11171382D01*
%TO.C,SW1*%
X52790000Y-19968882D02*
X52790000Y-17368882D01*
X53240000Y-16918882D02*
X52790000Y-17368882D01*
X53240000Y-20418882D02*
X52790000Y-19968882D01*
X54540000Y-15918882D02*
X56540000Y-15918882D01*
X54540000Y-21418882D02*
X56540000Y-21418882D01*
X57840000Y-16918882D02*
X58290000Y-17368882D01*
X57840000Y-20418882D02*
X58290000Y-19968882D01*
X58290000Y-19968882D02*
X58290000Y-17368882D01*
%TO.C,R36*%
X52116850Y-25536382D02*
X51642334Y-25536382D01*
X52116850Y-26581382D02*
X51642334Y-26581382D01*
%TO.C,R30*%
X57877500Y-26752742D02*
X57877500Y-27227258D01*
X58922500Y-26752742D02*
X58922500Y-27227258D01*
%TO.C,C12*%
X24859592Y-27118302D02*
X24859592Y-27399462D01*
X25879592Y-27118302D02*
X25879592Y-27399462D01*
%TO.C,L1*%
X19260279Y-7750000D02*
X18934721Y-7750000D01*
X19260279Y-8770000D02*
X18934721Y-8770000D01*
%TO.C,C2*%
X38670000Y-4812164D02*
X38670000Y-5027836D01*
X39390000Y-4812164D02*
X39390000Y-5027836D01*
%TO.C,D4*%
X54650000Y-11780000D02*
X54650000Y-11130000D01*
X54650000Y-11780000D02*
X54650000Y-12430000D01*
X57770000Y-11780000D02*
X57770000Y-11130000D01*
X57770000Y-11780000D02*
X57770000Y-12430000D01*
X58050000Y-10857500D02*
X57720000Y-10617500D01*
X58050000Y-10377500D01*
X58050000Y-10857500D01*
G36*
X58050000Y-10857500D02*
G01*
X57720000Y-10617500D01*
X58050000Y-10377500D01*
X58050000Y-10857500D01*
G37*
%TO.C,J13*%
X79090000Y-15740000D02*
X79090000Y-16990000D01*
X79090000Y-16990000D02*
X80340000Y-16990000D01*
X79380000Y-4080000D02*
X79380000Y-16700000D01*
X79380000Y-16700000D02*
X85350000Y-16700000D01*
X79390000Y-4090000D02*
X79390000Y-5890000D01*
X79390000Y-5890000D02*
X80140000Y-5890000D01*
X79390000Y-7390000D02*
X79390000Y-13390000D01*
X79390000Y-13390000D02*
X80140000Y-13390000D01*
X79390000Y-14890000D02*
X79390000Y-16690000D01*
X79390000Y-16690000D02*
X80140000Y-16690000D01*
X80140000Y-4090000D02*
X79390000Y-4090000D01*
X80140000Y-5890000D02*
X80140000Y-4090000D01*
X80140000Y-7390000D02*
X79390000Y-7390000D01*
X80140000Y-13390000D02*
X80140000Y-7390000D01*
X80140000Y-14890000D02*
X79390000Y-14890000D01*
X80140000Y-16690000D02*
X80140000Y-14890000D01*
X81640000Y-4090000D02*
X81640000Y-4840000D01*
X81640000Y-4840000D02*
X84590000Y-4840000D01*
X81640000Y-15940000D02*
X84590000Y-15940000D01*
X81640000Y-16690000D02*
X81640000Y-15940000D01*
X84590000Y-4840000D02*
X84590000Y-10390000D01*
X84590000Y-15940000D02*
X84590000Y-10390000D01*
X85350000Y-4080000D02*
X79380000Y-4080000D01*
X85350000Y-16700000D02*
X85350000Y-4080000D01*
%TO.C,R15*%
X12657334Y-16061382D02*
X13131850Y-16061382D01*
X12657334Y-17106382D02*
X13131850Y-17106382D01*
%TO.C,C11*%
X22409592Y-23038302D02*
X22409592Y-23319462D01*
X23429592Y-23038302D02*
X23429592Y-23319462D01*
%TO.C,R19*%
X28327258Y-20107500D02*
X27852742Y-20107500D01*
X28327258Y-21152500D02*
X27852742Y-21152500D01*
%TO.C,D11*%
X47150000Y-33760000D02*
X41640000Y-33760000D01*
X47150000Y-37060000D02*
X41640000Y-37060000D01*
X47150000Y-37060000D02*
X47150000Y-33760000D01*
%TO.C,C9*%
X30952428Y-10173882D02*
X30736756Y-10173882D01*
X30952428Y-10893882D02*
X30736756Y-10893882D01*
D13*
%TO.C,J17*%
X68340000Y-5220000D02*
X68340000Y-9080000D01*
X68340000Y-5220000D02*
X69990000Y-5220000D01*
X68340000Y-9080000D02*
X69990000Y-9080000D01*
X77840000Y-5220000D02*
X76190000Y-5220000D01*
X77840000Y-5220000D02*
X77840000Y-9080000D01*
X77840000Y-9080000D02*
X76190000Y-9080000D01*
D12*
%TO.C,R27*%
X80737258Y-18767500D02*
X80262742Y-18767500D01*
X80737258Y-19812500D02*
X80262742Y-19812500D01*
%TO.C,R1*%
X25917258Y-11607500D02*
X25442742Y-11607500D01*
X25917258Y-12652500D02*
X25442742Y-12652500D01*
%TO.C,J9*%
X21049592Y-13688882D02*
X21049592Y-8548882D01*
X23709592Y-8548882D02*
X21049592Y-8548882D01*
X23709592Y-13688882D02*
X21049592Y-13688882D01*
X23709592Y-13688882D02*
X23709592Y-8548882D01*
X23709592Y-14958882D02*
X23709592Y-16288882D01*
X23709592Y-16288882D02*
X22379592Y-16288882D01*
%TO.C,R14*%
X12657334Y-17561382D02*
X13131850Y-17561382D01*
X12657334Y-18606382D02*
X13131850Y-18606382D01*
%TO.C,D9*%
X39440000Y-28962500D02*
X39440000Y-32822500D01*
X41440000Y-28962500D02*
X39440000Y-28962500D01*
X41440000Y-28962500D02*
X41440000Y-32822500D01*
%TO.C,R9*%
X18252742Y-2747500D02*
X18727258Y-2747500D01*
X18252742Y-3792500D02*
X18727258Y-3792500D01*
%TO.C,Q1*%
X61050000Y-25310000D02*
X60400000Y-25310000D01*
X61050000Y-25310000D02*
X61700000Y-25310000D01*
X61050000Y-28430000D02*
X60400000Y-28430000D01*
X61050000Y-28430000D02*
X61700000Y-28430000D01*
X59887500Y-25360000D02*
X59647500Y-25030000D01*
X60127500Y-25030000D01*
X59887500Y-25360000D01*
G36*
X59887500Y-25360000D02*
G01*
X59647500Y-25030000D01*
X60127500Y-25030000D01*
X59887500Y-25360000D01*
G37*
%TO.C,J4*%
X60759592Y-8508882D02*
X60759592Y-9758882D01*
X60759592Y-9758882D02*
X62009592Y-9758882D01*
X61049592Y-1848882D02*
X61049592Y-9468882D01*
X61049592Y-9468882D02*
X67019592Y-9468882D01*
X61059592Y-1858882D02*
X61059592Y-3658882D01*
X61059592Y-3658882D02*
X61809592Y-3658882D01*
X61059592Y-5158882D02*
X61059592Y-6158882D01*
X61059592Y-6158882D02*
X61809592Y-6158882D01*
X61059592Y-7658882D02*
X61059592Y-9458882D01*
X61059592Y-9458882D02*
X61809592Y-9458882D01*
X61809592Y-1858882D02*
X61059592Y-1858882D01*
X61809592Y-3658882D02*
X61809592Y-1858882D01*
X61809592Y-5158882D02*
X61059592Y-5158882D01*
X61809592Y-6158882D02*
X61809592Y-5158882D01*
X61809592Y-7658882D02*
X61059592Y-7658882D01*
X61809592Y-9458882D02*
X61809592Y-7658882D01*
X63309592Y-1858882D02*
X63309592Y-2608882D01*
X63309592Y-2608882D02*
X66259592Y-2608882D01*
X63309592Y-8708882D02*
X66259592Y-8708882D01*
X63309592Y-9458882D02*
X63309592Y-8708882D01*
X66259592Y-2608882D02*
X66259592Y-5658882D01*
X66259592Y-8708882D02*
X66259592Y-5658882D01*
X67019592Y-1848882D02*
X61049592Y-1848882D01*
X67019592Y-9468882D02*
X67019592Y-1848882D01*
%TD*%
%LPC*%
D14*
%TO.C,J1*%
X27039592Y-7108882D03*
D15*
X27039592Y-4608882D03*
%TD*%
D16*
%TO.C,C5*%
X19479592Y-5488882D03*
X18519592Y-5488882D03*
%TD*%
D17*
%TO.C,R23*%
X71810000Y-20885000D03*
X71810000Y-19235000D03*
%TD*%
D16*
%TO.C,C6*%
X17170000Y-7980000D03*
X16210000Y-7980000D03*
%TD*%
D18*
%TO.C,C27*%
X46140000Y-30208882D03*
X46140000Y-28308882D03*
%TD*%
D19*
%TO.C,R35*%
X55704592Y-26058882D03*
X54054592Y-26058882D03*
%TD*%
D16*
%TO.C,C4*%
X59569592Y-10388882D03*
X58609592Y-10388882D03*
%TD*%
D20*
%TO.C,JP1*%
X24144592Y-19858882D03*
D21*
X21604592Y-19858882D03*
%TD*%
D22*
%TO.C,U1*%
X16979592Y-10285793D03*
X16329592Y-10285793D03*
X15679592Y-10285793D03*
X15029592Y-10285793D03*
X14379592Y-10285793D03*
D23*
X13242092Y-11423293D03*
X13242092Y-12073293D03*
X13242092Y-12723293D03*
X13242092Y-13373293D03*
X13242092Y-14023293D03*
D22*
X14379592Y-15160793D03*
X15029592Y-15160793D03*
X15679592Y-15160793D03*
X16329592Y-15160793D03*
X16979592Y-15160793D03*
D23*
X18117092Y-14023293D03*
X18117092Y-13373293D03*
X18117092Y-12723293D03*
X18117092Y-12073293D03*
X18117092Y-11423293D03*
D24*
X15679592Y-12723293D03*
%TD*%
D19*
%TO.C,R10*%
X41805000Y-2147500D03*
X40155000Y-2147500D03*
%TD*%
D25*
%TO.C,C30*%
X62349592Y-35498882D03*
X62349592Y-37398882D03*
%TD*%
D19*
%TO.C,R13*%
X18985000Y-16560000D03*
X17335000Y-16560000D03*
%TD*%
D17*
%TO.C,R20*%
X24469592Y-24003882D03*
X24469592Y-22353882D03*
%TD*%
%TO.C,R26*%
X57620000Y-24725000D03*
X57620000Y-23075000D03*
%TD*%
%TO.C,R7*%
X50260000Y-3675000D03*
X50260000Y-2025000D03*
%TD*%
D26*
%TO.C,U4*%
X73632092Y-10948882D03*
D27*
X73094592Y-10873882D03*
D26*
X72557092Y-10948882D03*
X72557092Y-12648882D03*
D27*
X73094592Y-12723882D03*
D26*
X73632092Y-12648882D03*
%TD*%
D28*
%TO.C,C20*%
X51289592Y-11553882D03*
X49739592Y-11553882D03*
%TD*%
D29*
%TO.C,C3*%
X53180000Y-4430000D03*
X53180000Y-5390000D03*
%TD*%
D30*
%TO.C,D10*%
X43400000Y-30907500D03*
X43400000Y-26907500D03*
%TD*%
D16*
%TO.C,C1*%
X25619592Y-13380000D03*
X24659592Y-13380000D03*
%TD*%
D29*
%TO.C,C7*%
X11844592Y-11908882D03*
X11844592Y-12868882D03*
%TD*%
D31*
%TO.C,R8*%
X63624592Y-10648882D03*
X65274592Y-10648882D03*
%TD*%
D28*
%TO.C,C8*%
X31668668Y-11746607D03*
X30118668Y-11746607D03*
%TD*%
D32*
%TO.C,D5*%
X21944592Y-27771382D03*
X23844592Y-27771382D03*
X22894592Y-25896382D03*
%TD*%
D33*
%TO.C,D8*%
X61280000Y-30602500D03*
X61280000Y-32477500D03*
%TD*%
D34*
%TO.C,C18*%
X50110000Y-20860000D03*
X51070000Y-20860000D03*
%TD*%
D35*
%TO.C,C31*%
X60194592Y-35508882D03*
X60194592Y-38458882D03*
%TD*%
D14*
%TO.C,J2*%
X33824592Y-7108882D03*
D15*
X33824592Y-4608882D03*
%TD*%
D19*
%TO.C,R34*%
X62305000Y-33950000D03*
X60655000Y-33950000D03*
%TD*%
D36*
%TO.C,J10*%
X14515000Y-29190000D03*
D15*
X14515000Y-31690000D03*
%TD*%
D35*
%TO.C,C32*%
X57869592Y-35508882D03*
X57869592Y-38458882D03*
%TD*%
D37*
%TO.C,L2*%
X48987092Y-19278882D03*
X47412092Y-19278882D03*
%TD*%
D19*
%TO.C,R6*%
X41795000Y-3607500D03*
X40145000Y-3607500D03*
%TD*%
D17*
%TO.C,R21*%
X21369592Y-23983882D03*
X21369592Y-22333882D03*
%TD*%
D38*
%TO.C,U3*%
X45067092Y-18641382D03*
X45067092Y-18141382D03*
X45067092Y-17641382D03*
X45067092Y-17141382D03*
X45067092Y-16641382D03*
X45067092Y-16141382D03*
X45067092Y-15641382D03*
X45067092Y-15141382D03*
X45067092Y-14641382D03*
X45067092Y-14141382D03*
X45067092Y-13641382D03*
X45067092Y-13141382D03*
D39*
X43654592Y-11728882D03*
X43154592Y-11728882D03*
X42654592Y-11728882D03*
X42154592Y-11728882D03*
X41654592Y-11728882D03*
X41154592Y-11728882D03*
X40654592Y-11728882D03*
X40154592Y-11728882D03*
X39654592Y-11728882D03*
X39154592Y-11728882D03*
X38654592Y-11728882D03*
X38154592Y-11728882D03*
D38*
X36742092Y-13141382D03*
X36742092Y-13641382D03*
X36742092Y-14141382D03*
X36742092Y-14641382D03*
X36742092Y-15141382D03*
X36742092Y-15641382D03*
X36742092Y-16141382D03*
X36742092Y-16641382D03*
X36742092Y-17141382D03*
X36742092Y-17641382D03*
X36742092Y-18141382D03*
X36742092Y-18641382D03*
D39*
X38154592Y-20053882D03*
X38654592Y-20053882D03*
X39154592Y-20053882D03*
X39654592Y-20053882D03*
X40154592Y-20053882D03*
X40654592Y-20053882D03*
X41154592Y-20053882D03*
X41654592Y-20053882D03*
X42154592Y-20053882D03*
X42654592Y-20053882D03*
X43154592Y-20053882D03*
X43654592Y-20053882D03*
%TD*%
D19*
%TO.C,R28*%
X59345000Y-33950000D03*
X57695000Y-33950000D03*
%TD*%
D17*
%TO.C,R25*%
X51930000Y-23645000D03*
X51930000Y-21995000D03*
%TD*%
D19*
%TO.C,R29*%
X49024592Y-20738882D03*
X47374592Y-20738882D03*
%TD*%
D33*
%TO.C,D6*%
X59230000Y-30602500D03*
X59230000Y-32477500D03*
%TD*%
D19*
%TO.C,R12*%
X68235000Y-10830000D03*
X66585000Y-10830000D03*
%TD*%
D40*
%TO.C,J18*%
X31625000Y-31955000D03*
D41*
X31625000Y-37035000D03*
%TD*%
D19*
%TO.C,R31*%
X65275000Y-25900000D03*
X63625000Y-25900000D03*
%TD*%
D31*
%TO.C,R24*%
X79675000Y-20750000D03*
X81325000Y-20750000D03*
%TD*%
D17*
%TO.C,R11*%
X51980000Y-3665000D03*
X51980000Y-2015000D03*
%TD*%
D19*
%TO.C,R33*%
X73925000Y-3520000D03*
X72275000Y-3520000D03*
%TD*%
%TO.C,R5*%
X22284592Y-3268882D03*
X20634592Y-3268882D03*
%TD*%
D30*
%TO.C,D7*%
X77140000Y-19090000D03*
X77140000Y-15090000D03*
%TD*%
D42*
%TO.C,D2*%
X45120000Y-2400000D03*
X43220000Y-2400000D03*
X44170000Y-4275000D03*
%TD*%
D43*
%TO.C,C25*%
X72530000Y-33270000D03*
X74430000Y-33270000D03*
%TD*%
D44*
%TO.C,C17*%
X47839592Y-15653882D03*
X47839592Y-17203882D03*
%TD*%
D16*
%TO.C,C14*%
X56460000Y-22880000D03*
X55500000Y-22880000D03*
%TD*%
D45*
%TO.C,U2*%
X32765000Y-13705000D03*
X31495000Y-13705000D03*
X30225000Y-13705000D03*
X28955000Y-13705000D03*
X28955000Y-18655000D03*
X30225000Y-18655000D03*
X31495000Y-18655000D03*
X32765000Y-18655000D03*
%TD*%
D20*
%TO.C,JP2*%
X77953454Y-30490000D03*
D21*
X75413454Y-30490000D03*
%TD*%
D42*
%TO.C,D3*%
X48522500Y-2392500D03*
X46622500Y-2392500D03*
X47572500Y-4267500D03*
%TD*%
D20*
%TO.C,J8*%
X9539592Y-16788882D03*
D21*
X9539592Y-14248882D03*
%TD*%
D34*
%TO.C,C24*%
X73279592Y-14038882D03*
X74239592Y-14038882D03*
%TD*%
D46*
%TO.C,J15*%
X66300000Y-22320000D03*
D47*
X63800000Y-22320000D03*
X61300000Y-22320000D03*
%TD*%
D29*
%TO.C,C10*%
X27544592Y-18478882D03*
X27544592Y-19438882D03*
%TD*%
D48*
%TO.C,R22*%
X73270000Y-19225000D03*
X73270000Y-20875000D03*
%TD*%
D17*
%TO.C,R17*%
X19830000Y-11315000D03*
X19830000Y-9665000D03*
%TD*%
D49*
%TO.C,U6*%
X53579592Y-31483882D03*
X53579592Y-30213882D03*
X53579592Y-28943882D03*
X53579592Y-27673882D03*
X48179592Y-27673882D03*
X48179592Y-28943882D03*
X48179592Y-30213882D03*
X48179592Y-31483882D03*
D50*
X50879592Y-29578882D03*
%TD*%
D34*
%TO.C,C22*%
X50110000Y-19020000D03*
X51070000Y-19020000D03*
%TD*%
D51*
%TO.C,U5*%
X64229592Y-28818882D03*
X64229592Y-31118882D03*
D52*
X70529592Y-31118882D03*
D51*
X64229592Y-33418882D03*
%TD*%
D20*
%TO.C,J16*%
X40810000Y-7630000D03*
D21*
X43350000Y-7630000D03*
X45890000Y-7630000D03*
X48430000Y-7630000D03*
X50970000Y-7630000D03*
%TD*%
D20*
%TO.C,J6*%
X9534592Y-4358882D03*
D21*
X12074592Y-4358882D03*
X14614592Y-4358882D03*
%TD*%
D34*
%TO.C,C26*%
X72210000Y-31820000D03*
X73170000Y-31820000D03*
%TD*%
D14*
%TO.C,J3*%
X56739592Y-6908882D03*
D15*
X56739592Y-4408882D03*
%TD*%
D43*
%TO.C,C23*%
X76240000Y-12550000D03*
X78140000Y-12550000D03*
%TD*%
D19*
%TO.C,R18*%
X34435000Y-20650000D03*
X32785000Y-20650000D03*
%TD*%
D25*
%TO.C,C29*%
X64319592Y-35498882D03*
X64319592Y-37398882D03*
%TD*%
D48*
%TO.C,R16*%
X19844592Y-12625000D03*
X19844592Y-14275000D03*
%TD*%
D53*
%TO.C,F1*%
X39275000Y-26140000D03*
X32905000Y-26140000D03*
%TD*%
D20*
%TO.C,J5*%
X9549592Y-8019471D03*
D21*
X9549592Y-10559471D03*
%TD*%
D48*
%TO.C,R32*%
X47839592Y-12603882D03*
X47839592Y-14253882D03*
%TD*%
D54*
%TO.C,L3*%
X48940000Y-36330000D03*
X54940000Y-36330000D03*
%TD*%
D34*
%TO.C,C28*%
X55079592Y-31958882D03*
X56039592Y-31958882D03*
%TD*%
D55*
%TO.C,C15*%
X79725000Y-17830000D03*
X81275000Y-17830000D03*
%TD*%
D20*
%TO.C,J11*%
X46719592Y-23278882D03*
D21*
X49259592Y-23278882D03*
%TD*%
D56*
%TO.C,Y1*%
X50539592Y-17278882D03*
X50539592Y-13578882D03*
%TD*%
D29*
%TO.C,C19*%
X38540000Y-7220000D03*
X38540000Y-8180000D03*
%TD*%
D57*
%TO.C,C13*%
X20309592Y-28043882D03*
X20309592Y-26493882D03*
%TD*%
D31*
%TO.C,R2*%
X40145000Y-5087500D03*
X41795000Y-5087500D03*
%TD*%
D32*
%TO.C,D1*%
X21359592Y-7086382D03*
X23259592Y-7086382D03*
X22309592Y-5211382D03*
%TD*%
D34*
%TO.C,C21*%
X50120000Y-19940000D03*
X51080000Y-19940000D03*
%TD*%
D19*
%TO.C,R3*%
X51595000Y-5060000D03*
X49945000Y-5060000D03*
%TD*%
D46*
%TO.C,J14*%
X66290000Y-15535000D03*
D47*
X63790000Y-15535000D03*
X61290000Y-15535000D03*
%TD*%
D28*
%TO.C,C16*%
X19204592Y-6678882D03*
X17654592Y-6678882D03*
%TD*%
D58*
%TO.C,J7*%
X3790000Y-16110000D03*
D59*
X3790000Y-13610000D03*
X3790000Y-11110000D03*
X3790000Y-8610000D03*
%TD*%
D31*
%TO.C,R4*%
X60654592Y-10648882D03*
X62304592Y-10648882D03*
%TD*%
D60*
%TO.C,SW1*%
X53665000Y-21668882D03*
X53665000Y-15668882D03*
X57415000Y-21668882D03*
X57415000Y-15668882D03*
%TD*%
D19*
%TO.C,R36*%
X52704592Y-26058882D03*
X51054592Y-26058882D03*
%TD*%
D48*
%TO.C,R30*%
X58400000Y-26165000D03*
X58400000Y-27815000D03*
%TD*%
D44*
%TO.C,C12*%
X25369592Y-26483882D03*
X25369592Y-28033882D03*
%TD*%
D37*
%TO.C,L1*%
X19885000Y-8260000D03*
X18310000Y-8260000D03*
%TD*%
D29*
%TO.C,C2*%
X39030000Y-4440000D03*
X39030000Y-5400000D03*
%TD*%
D42*
%TO.C,D4*%
X57160000Y-10842500D03*
X55260000Y-10842500D03*
X56210000Y-12717500D03*
%TD*%
D58*
%TO.C,J13*%
X81840000Y-14140000D03*
D59*
X81840000Y-11640000D03*
X81840000Y-9140000D03*
X81840000Y-6640000D03*
%TD*%
D31*
%TO.C,R15*%
X12069592Y-16583882D03*
X13719592Y-16583882D03*
%TD*%
D44*
%TO.C,C11*%
X22919592Y-22403882D03*
X22919592Y-23953882D03*
%TD*%
D19*
%TO.C,R19*%
X28915000Y-20630000D03*
X27265000Y-20630000D03*
%TD*%
D61*
%TO.C,D11*%
X45640000Y-35410000D03*
X41640000Y-35410000D03*
%TD*%
D16*
%TO.C,C9*%
X31324592Y-10533882D03*
X30364592Y-10533882D03*
%TD*%
D62*
%TO.C,J17*%
X69840000Y-6450000D03*
X70790000Y-6450000D03*
X71740000Y-6450000D03*
X72640000Y-6450000D03*
X73540000Y-6450000D03*
X75390000Y-6450000D03*
X76340000Y-6450000D03*
X76340000Y-7850000D03*
X75390000Y-7850000D03*
X74440000Y-7850000D03*
X73540000Y-7850000D03*
X72640000Y-7850000D03*
X70790000Y-7850000D03*
X69840000Y-7850000D03*
D63*
X71090000Y-5220000D03*
X71090000Y-9080000D03*
X75090000Y-5220000D03*
X75090000Y-9080000D03*
%TD*%
D19*
%TO.C,R27*%
X81325000Y-19290000D03*
X79675000Y-19290000D03*
%TD*%
%TO.C,R1*%
X26505000Y-12130000D03*
X24855000Y-12130000D03*
%TD*%
D20*
%TO.C,J9*%
X22379592Y-14958882D03*
D21*
X22379592Y-12418882D03*
X22379592Y-9878882D03*
%TD*%
D31*
%TO.C,R14*%
X12069592Y-18083882D03*
X13719592Y-18083882D03*
%TD*%
D64*
%TO.C,D9*%
X40440000Y-29772500D03*
X40440000Y-32572500D03*
%TD*%
D31*
%TO.C,R9*%
X17665000Y-3270000D03*
X19315000Y-3270000D03*
%TD*%
D65*
%TO.C,Q1*%
X60112500Y-25920000D03*
X60112500Y-27820000D03*
X61987500Y-26870000D03*
%TD*%
D14*
%TO.C,J4*%
X63509592Y-6908882D03*
D15*
X63509592Y-4408882D03*
%TD*%
D66*
%TO.C,J19*%
X25519592Y-36578882D03*
X16519592Y-36578882D03*
D67*
X22519592Y-32638882D03*
D68*
X19519592Y-32638882D03*
X22519592Y-35638882D03*
X19519592Y-35638882D03*
%TD*%
D69*
%TO.C,J12*%
X80271752Y-25377286D03*
D70*
X82039519Y-23609519D03*
X83807286Y-21841752D03*
%TD*%
%LPD*%
M02*
