%TF.GenerationSoftware,KiCad,Pcbnew,8.0.2-1*%
%TF.CreationDate,2024-05-26T18:35:32-04:00*%
%TF.ProjectId,checkpoint,63686563-6b70-46f6-996e-742e6b696361,v1.1*%
%TF.SameCoordinates,Original*%
%TF.FileFunction,Soldermask,Bot*%
%TF.FilePolarity,Negative*%
%FSLAX46Y46*%
G04 Gerber Fmt 4.6, Leading zero omitted, Abs format (unit mm)*
G04 Created by KiCad (PCBNEW 8.0.2-1) date 2024-05-26 18:35:32*
%MOMM*%
%LPD*%
G01*
G04 APERTURE LIST*
G04 Aperture macros list*
%AMRoundRect*
0 Rectangle with rounded corners*
0 $1 Rounding radius*
0 $2 $3 $4 $5 $6 $7 $8 $9 X,Y pos of 4 corners*
0 Add a 4 corners polygon primitive as box body*
4,1,4,$2,$3,$4,$5,$6,$7,$8,$9,$2,$3,0*
0 Add four circle primitives for the rounded corners*
1,1,$1+$1,$2,$3*
1,1,$1+$1,$4,$5*
1,1,$1+$1,$6,$7*
1,1,$1+$1,$8,$9*
0 Add four rect primitives between the rounded corners*
20,1,$1+$1,$2,$3,$4,$5,0*
20,1,$1+$1,$4,$5,$6,$7,0*
20,1,$1+$1,$6,$7,$8,$9,0*
20,1,$1+$1,$8,$9,$2,$3,0*%
%AMHorizOval*
0 Thick line with rounded ends*
0 $1 width*
0 $2 $3 position (X,Y) of the first rounded end (center of the circle)*
0 $4 $5 position (X,Y) of the second rounded end (center of the circle)*
0 Add line between two ends*
20,1,$1,$2,$3,$4,$5,0*
0 Add two circle primitives to create the rounded ends*
1,1,$1,$2,$3*
1,1,$1,$4,$5*%
G04 Aperture macros list end*
%ADD10RoundRect,0.250000X0.750000X-0.600000X0.750000X0.600000X-0.750000X0.600000X-0.750000X-0.600000X0*%
%ADD11O,2.000000X1.700000*%
%ADD12R,1.700000X1.700000*%
%ADD13O,1.700000X1.700000*%
%ADD14RoundRect,0.250000X-0.750000X0.600000X-0.750000X-0.600000X0.750000X-0.600000X0.750000X0.600000X0*%
%ADD15R,2.600000X2.600000*%
%ADD16C,2.600000*%
%ADD17RoundRect,0.250000X0.600000X0.725000X-0.600000X0.725000X-0.600000X-0.725000X0.600000X-0.725000X0*%
%ADD18O,1.700000X1.950000*%
%ADD19RoundRect,0.250000X0.725000X-0.600000X0.725000X0.600000X-0.725000X0.600000X-0.725000X-0.600000X0*%
%ADD20O,1.950000X1.700000*%
%ADD21RoundRect,0.150000X-0.150000X-0.150000X0.150000X-0.150000X0.150000X0.150000X-0.150000X0.150000X0*%
%ADD22O,1.800000X0.900000*%
%ADD23C,1.020000*%
%ADD24RoundRect,0.250001X0.499999X0.499999X-0.499999X0.499999X-0.499999X-0.499999X0.499999X-0.499999X0*%
%ADD25C,1.500000*%
%ADD26RoundRect,0.250000X0.088388X-0.936916X0.936916X-0.088388X-0.088388X0.936916X-0.936916X0.088388X0*%
%ADD27HorizOval,1.700000X-0.088388X0.088388X0.088388X-0.088388X0*%
G04 APERTURE END LIST*
D10*
%TO.C,J1*%
X27039592Y-7108882D03*
D11*
X27039592Y-4608882D03*
%TD*%
D12*
%TO.C,JP1*%
X24144592Y-19858882D03*
D13*
X21604592Y-19858882D03*
%TD*%
D10*
%TO.C,J2*%
X33824592Y-7108882D03*
D11*
X33824592Y-4608882D03*
%TD*%
D14*
%TO.C,J10*%
X14515000Y-29190000D03*
D11*
X14515000Y-31690000D03*
%TD*%
D15*
%TO.C,J18*%
X31625000Y-31955000D03*
D16*
X31625000Y-37035000D03*
%TD*%
D12*
%TO.C,JP2*%
X77953454Y-30490000D03*
D13*
X75413454Y-30490000D03*
%TD*%
D12*
%TO.C,J8*%
X9539592Y-16788882D03*
D13*
X9539592Y-14248882D03*
%TD*%
D17*
%TO.C,J15*%
X66300000Y-22320000D03*
D18*
X63800000Y-22320000D03*
X61300000Y-22320000D03*
%TD*%
D12*
%TO.C,J16*%
X40810000Y-7630000D03*
D13*
X43350000Y-7630000D03*
X45890000Y-7630000D03*
X48430000Y-7630000D03*
X50970000Y-7630000D03*
%TD*%
D12*
%TO.C,J6*%
X9534592Y-4358882D03*
D13*
X12074592Y-4358882D03*
X14614592Y-4358882D03*
%TD*%
D10*
%TO.C,J3*%
X56739592Y-6908882D03*
D11*
X56739592Y-4408882D03*
%TD*%
D12*
%TO.C,J5*%
X9549592Y-8019471D03*
D13*
X9549592Y-10559471D03*
%TD*%
D12*
%TO.C,J11*%
X46719592Y-23278882D03*
D13*
X49259592Y-23278882D03*
%TD*%
D17*
%TO.C,J14*%
X66290000Y-15535000D03*
D18*
X63790000Y-15535000D03*
X61290000Y-15535000D03*
%TD*%
D19*
%TO.C,J7*%
X3790000Y-16110000D03*
D20*
X3790000Y-13610000D03*
X3790000Y-11110000D03*
X3790000Y-8610000D03*
%TD*%
D19*
%TO.C,J13*%
X81840000Y-14140000D03*
D20*
X81840000Y-11640000D03*
X81840000Y-9140000D03*
X81840000Y-6640000D03*
%TD*%
D21*
%TO.C,J17*%
X69840000Y-6450000D03*
X70790000Y-6450000D03*
X71740000Y-6450000D03*
X72640000Y-6450000D03*
X73540000Y-6450000D03*
X75390000Y-6450000D03*
X76340000Y-6450000D03*
X76340000Y-7850000D03*
X75390000Y-7850000D03*
X74440000Y-7850000D03*
X73540000Y-7850000D03*
X72640000Y-7850000D03*
X70790000Y-7850000D03*
X69840000Y-7850000D03*
D22*
X71090000Y-5220000D03*
X71090000Y-9080000D03*
X75090000Y-5220000D03*
X75090000Y-9080000D03*
%TD*%
D12*
%TO.C,J9*%
X22379592Y-14958882D03*
D13*
X22379592Y-12418882D03*
X22379592Y-9878882D03*
%TD*%
D10*
%TO.C,J4*%
X63509592Y-6908882D03*
D11*
X63509592Y-4408882D03*
%TD*%
D23*
%TO.C,J19*%
X25519592Y-36578882D03*
X16519592Y-36578882D03*
D24*
X22519592Y-32638882D03*
D25*
X19519592Y-32638882D03*
X22519592Y-35638882D03*
X19519592Y-35638882D03*
%TD*%
D26*
%TO.C,J12*%
X80271752Y-25377286D03*
D27*
X82039519Y-23609519D03*
X83807286Y-21841752D03*
%TD*%
M02*
