%TF.GenerationSoftware,KiCad,Pcbnew,8.0.2-1*%
%TF.CreationDate,2024-05-21T23:59:17-04:00*%
%TF.ProjectId,checkpoint,63686563-6b70-46f6-996e-742e6b696361,v1.1*%
%TF.SameCoordinates,Original*%
%TF.FileFunction,Legend,Bot*%
%TF.FilePolarity,Positive*%
%FSLAX46Y46*%
G04 Gerber Fmt 4.6, Leading zero omitted, Abs format (unit mm)*
G04 Created by KiCad (PCBNEW 8.0.2-1) date 2024-05-21 23:59:17*
%MOMM*%
%LPD*%
G01*
G04 APERTURE LIST*
G04 Aperture macros list*
%AMRoundRect*
0 Rectangle with rounded corners*
0 $1 Rounding radius*
0 $2 $3 $4 $5 $6 $7 $8 $9 X,Y pos of 4 corners*
0 Add a 4 corners polygon primitive as box body*
4,1,4,$2,$3,$4,$5,$6,$7,$8,$9,$2,$3,0*
0 Add four circle primitives for the rounded corners*
1,1,$1+$1,$2,$3*
1,1,$1+$1,$4,$5*
1,1,$1+$1,$6,$7*
1,1,$1+$1,$8,$9*
0 Add four rect primitives between the rounded corners*
20,1,$1+$1,$2,$3,$4,$5,0*
20,1,$1+$1,$4,$5,$6,$7,0*
20,1,$1+$1,$6,$7,$8,$9,0*
20,1,$1+$1,$8,$9,$2,$3,0*%
%AMHorizOval*
0 Thick line with rounded ends*
0 $1 width*
0 $2 $3 position (X,Y) of the first rounded end (center of the circle)*
0 $4 $5 position (X,Y) of the second rounded end (center of the circle)*
0 Add line between two ends*
20,1,$1,$2,$3,$4,$5,0*
0 Add two circle primitives to create the rounded ends*
1,1,$1,$2,$3*
1,1,$1,$4,$5*%
G04 Aperture macros list end*
%ADD10C,0.200000*%
%ADD11C,0.150000*%
%ADD12C,0.120000*%
%ADD13RoundRect,0.250000X0.750000X-0.600000X0.750000X0.600000X-0.750000X0.600000X-0.750000X-0.600000X0*%
%ADD14O,2.000000X1.700000*%
%ADD15R,1.700000X1.700000*%
%ADD16O,1.700000X1.700000*%
%ADD17R,2.600000X2.600000*%
%ADD18C,2.600000*%
%ADD19RoundRect,0.250000X0.600000X0.725000X-0.600000X0.725000X-0.600000X-0.725000X0.600000X-0.725000X0*%
%ADD20O,1.700000X1.950000*%
%ADD21RoundRect,0.250000X0.725000X-0.600000X0.725000X0.600000X-0.725000X0.600000X-0.725000X-0.600000X0*%
%ADD22O,1.950000X1.700000*%
%ADD23C,0.650000*%
%ADD24O,1.000000X2.100000*%
%ADD25O,1.000000X1.600000*%
%ADD26C,1.020000*%
%ADD27RoundRect,0.250001X0.499999X0.499999X-0.499999X0.499999X-0.499999X-0.499999X0.499999X-0.499999X0*%
%ADD28C,1.500000*%
%ADD29RoundRect,0.250000X0.088388X-0.936916X0.936916X-0.088388X-0.088388X0.936916X-0.936916X0.088388X0*%
%ADD30HorizOval,1.700000X-0.088388X0.088388X0.088388X-0.088388X0*%
G04 APERTURE END LIST*
D10*
X14948898Y-34101980D02*
X14996517Y-34149600D01*
X14996517Y-34149600D02*
X15139374Y-34197219D01*
X15139374Y-34197219D02*
X15234612Y-34197219D01*
X15234612Y-34197219D02*
X15377469Y-34149600D01*
X15377469Y-34149600D02*
X15472707Y-34054361D01*
X15472707Y-34054361D02*
X15520326Y-33959123D01*
X15520326Y-33959123D02*
X15567945Y-33768647D01*
X15567945Y-33768647D02*
X15567945Y-33625790D01*
X15567945Y-33625790D02*
X15520326Y-33435314D01*
X15520326Y-33435314D02*
X15472707Y-33340076D01*
X15472707Y-33340076D02*
X15377469Y-33244838D01*
X15377469Y-33244838D02*
X15234612Y-33197219D01*
X15234612Y-33197219D02*
X15139374Y-33197219D01*
X15139374Y-33197219D02*
X14996517Y-33244838D01*
X14996517Y-33244838D02*
X14948898Y-33292457D01*
X14567945Y-33911504D02*
X14091755Y-33911504D01*
X14663183Y-34197219D02*
X14329850Y-33197219D01*
X14329850Y-33197219D02*
X13996517Y-34197219D01*
X13663183Y-34197219D02*
X13663183Y-33197219D01*
X13663183Y-33197219D02*
X13091755Y-34197219D01*
X13091755Y-34197219D02*
X13091755Y-33197219D01*
X12853660Y-34292457D02*
X12091755Y-34292457D01*
X11853659Y-34197219D02*
X11853659Y-33197219D01*
X11853659Y-33673409D02*
X11282231Y-33673409D01*
X11282231Y-34197219D02*
X11282231Y-33197219D01*
X64007219Y-8129673D02*
X63007219Y-8129673D01*
X63007219Y-8129673D02*
X63007219Y-8510625D01*
X63007219Y-8510625D02*
X63054838Y-8605863D01*
X63054838Y-8605863D02*
X63102457Y-8653482D01*
X63102457Y-8653482D02*
X63197695Y-8701101D01*
X63197695Y-8701101D02*
X63340552Y-8701101D01*
X63340552Y-8701101D02*
X63435790Y-8653482D01*
X63435790Y-8653482D02*
X63483409Y-8605863D01*
X63483409Y-8605863D02*
X63531028Y-8510625D01*
X63531028Y-8510625D02*
X63531028Y-8129673D01*
X63721504Y-9082054D02*
X63721504Y-9558244D01*
X64007219Y-8986816D02*
X63007219Y-9320149D01*
X63007219Y-9320149D02*
X64007219Y-9653482D01*
X63102457Y-9939197D02*
X63054838Y-9986816D01*
X63054838Y-9986816D02*
X63007219Y-10082054D01*
X63007219Y-10082054D02*
X63007219Y-10320149D01*
X63007219Y-10320149D02*
X63054838Y-10415387D01*
X63054838Y-10415387D02*
X63102457Y-10463006D01*
X63102457Y-10463006D02*
X63197695Y-10510625D01*
X63197695Y-10510625D02*
X63292933Y-10510625D01*
X63292933Y-10510625D02*
X63435790Y-10463006D01*
X63435790Y-10463006D02*
X64007219Y-9891578D01*
X64007219Y-9891578D02*
X64007219Y-10510625D01*
X81312780Y-29660326D02*
X82312780Y-29660326D01*
X82312780Y-29660326D02*
X82312780Y-29279374D01*
X82312780Y-29279374D02*
X82265161Y-29184136D01*
X82265161Y-29184136D02*
X82217542Y-29136517D01*
X82217542Y-29136517D02*
X82122304Y-29088898D01*
X82122304Y-29088898D02*
X81979447Y-29088898D01*
X81979447Y-29088898D02*
X81884209Y-29136517D01*
X81884209Y-29136517D02*
X81836590Y-29184136D01*
X81836590Y-29184136D02*
X81788971Y-29279374D01*
X81788971Y-29279374D02*
X81788971Y-29660326D01*
X81598495Y-28707945D02*
X81598495Y-28231755D01*
X81312780Y-28803183D02*
X82312780Y-28469850D01*
X82312780Y-28469850D02*
X81312780Y-28136517D01*
X82312780Y-27374612D02*
X82312780Y-27565088D01*
X82312780Y-27565088D02*
X82265161Y-27660326D01*
X82265161Y-27660326D02*
X82217542Y-27707945D01*
X82217542Y-27707945D02*
X82074685Y-27803183D01*
X82074685Y-27803183D02*
X81884209Y-27850802D01*
X81884209Y-27850802D02*
X81503257Y-27850802D01*
X81503257Y-27850802D02*
X81408019Y-27803183D01*
X81408019Y-27803183D02*
X81360400Y-27755564D01*
X81360400Y-27755564D02*
X81312780Y-27660326D01*
X81312780Y-27660326D02*
X81312780Y-27469850D01*
X81312780Y-27469850D02*
X81360400Y-27374612D01*
X81360400Y-27374612D02*
X81408019Y-27326993D01*
X81408019Y-27326993D02*
X81503257Y-27279374D01*
X81503257Y-27279374D02*
X81741352Y-27279374D01*
X81741352Y-27279374D02*
X81836590Y-27326993D01*
X81836590Y-27326993D02*
X81884209Y-27374612D01*
X81884209Y-27374612D02*
X81931828Y-27469850D01*
X81931828Y-27469850D02*
X81931828Y-27660326D01*
X81931828Y-27660326D02*
X81884209Y-27755564D01*
X81884209Y-27755564D02*
X81836590Y-27803183D01*
X81836590Y-27803183D02*
X81741352Y-27850802D01*
X17777945Y-15002457D02*
X17730326Y-14954838D01*
X17730326Y-14954838D02*
X17635088Y-14907219D01*
X17635088Y-14907219D02*
X17396993Y-14907219D01*
X17396993Y-14907219D02*
X17301755Y-14954838D01*
X17301755Y-14954838D02*
X17254136Y-15002457D01*
X17254136Y-15002457D02*
X17206517Y-15097695D01*
X17206517Y-15097695D02*
X17206517Y-15192933D01*
X17206517Y-15192933D02*
X17254136Y-15335790D01*
X17254136Y-15335790D02*
X17825564Y-15907219D01*
X17825564Y-15907219D02*
X17206517Y-15907219D01*
X16063660Y-14859600D02*
X16920802Y-16145314D01*
X15825564Y-14907219D02*
X15206517Y-14907219D01*
X15206517Y-14907219D02*
X15539850Y-15288171D01*
X15539850Y-15288171D02*
X15396993Y-15288171D01*
X15396993Y-15288171D02*
X15301755Y-15335790D01*
X15301755Y-15335790D02*
X15254136Y-15383409D01*
X15254136Y-15383409D02*
X15206517Y-15478647D01*
X15206517Y-15478647D02*
X15206517Y-15716742D01*
X15206517Y-15716742D02*
X15254136Y-15811980D01*
X15254136Y-15811980D02*
X15301755Y-15859600D01*
X15301755Y-15859600D02*
X15396993Y-15907219D01*
X15396993Y-15907219D02*
X15682707Y-15907219D01*
X15682707Y-15907219D02*
X15777945Y-15859600D01*
X15777945Y-15859600D02*
X15825564Y-15811980D01*
X14111278Y-14907219D02*
X13873183Y-15907219D01*
X13873183Y-15907219D02*
X13682707Y-15192933D01*
X13682707Y-15192933D02*
X13492231Y-15907219D01*
X13492231Y-15907219D02*
X13254136Y-14907219D01*
X12873183Y-15907219D02*
X12873183Y-14907219D01*
X11825565Y-15907219D02*
X12158898Y-15431028D01*
X12396993Y-15907219D02*
X12396993Y-14907219D01*
X12396993Y-14907219D02*
X12016041Y-14907219D01*
X12016041Y-14907219D02*
X11920803Y-14954838D01*
X11920803Y-14954838D02*
X11873184Y-15002457D01*
X11873184Y-15002457D02*
X11825565Y-15097695D01*
X11825565Y-15097695D02*
X11825565Y-15240552D01*
X11825565Y-15240552D02*
X11873184Y-15335790D01*
X11873184Y-15335790D02*
X11920803Y-15383409D01*
X11920803Y-15383409D02*
X12016041Y-15431028D01*
X12016041Y-15431028D02*
X12396993Y-15431028D01*
X11396993Y-15383409D02*
X11063660Y-15383409D01*
X10920803Y-15907219D02*
X11396993Y-15907219D01*
X11396993Y-15907219D02*
X11396993Y-14907219D01*
X11396993Y-14907219D02*
X10920803Y-14907219D01*
X27753183Y-2107219D02*
X27181755Y-2107219D01*
X27467469Y-3107219D02*
X27467469Y-2107219D01*
X26657945Y-2107219D02*
X26562707Y-2107219D01*
X26562707Y-2107219D02*
X26467469Y-2154838D01*
X26467469Y-2154838D02*
X26419850Y-2202457D01*
X26419850Y-2202457D02*
X26372231Y-2297695D01*
X26372231Y-2297695D02*
X26324612Y-2488171D01*
X26324612Y-2488171D02*
X26324612Y-2726266D01*
X26324612Y-2726266D02*
X26372231Y-2916742D01*
X26372231Y-2916742D02*
X26419850Y-3011980D01*
X26419850Y-3011980D02*
X26467469Y-3059600D01*
X26467469Y-3059600D02*
X26562707Y-3107219D01*
X26562707Y-3107219D02*
X26657945Y-3107219D01*
X26657945Y-3107219D02*
X26753183Y-3059600D01*
X26753183Y-3059600D02*
X26800802Y-3011980D01*
X26800802Y-3011980D02*
X26848421Y-2916742D01*
X26848421Y-2916742D02*
X26896040Y-2726266D01*
X26896040Y-2726266D02*
X26896040Y-2488171D01*
X26896040Y-2488171D02*
X26848421Y-2297695D01*
X26848421Y-2297695D02*
X26800802Y-2202457D01*
X26800802Y-2202457D02*
X26753183Y-2154838D01*
X26753183Y-2154838D02*
X26657945Y-2107219D01*
X61657219Y-23669673D02*
X60657219Y-23669673D01*
X60657219Y-23669673D02*
X60657219Y-24050625D01*
X60657219Y-24050625D02*
X60704838Y-24145863D01*
X60704838Y-24145863D02*
X60752457Y-24193482D01*
X60752457Y-24193482D02*
X60847695Y-24241101D01*
X60847695Y-24241101D02*
X60990552Y-24241101D01*
X60990552Y-24241101D02*
X61085790Y-24193482D01*
X61085790Y-24193482D02*
X61133409Y-24145863D01*
X61133409Y-24145863D02*
X61181028Y-24050625D01*
X61181028Y-24050625D02*
X61181028Y-23669673D01*
X61133409Y-25003006D02*
X61181028Y-25145863D01*
X61181028Y-25145863D02*
X61228647Y-25193482D01*
X61228647Y-25193482D02*
X61323885Y-25241101D01*
X61323885Y-25241101D02*
X61466742Y-25241101D01*
X61466742Y-25241101D02*
X61561980Y-25193482D01*
X61561980Y-25193482D02*
X61609600Y-25145863D01*
X61609600Y-25145863D02*
X61657219Y-25050625D01*
X61657219Y-25050625D02*
X61657219Y-24669673D01*
X61657219Y-24669673D02*
X60657219Y-24669673D01*
X60657219Y-24669673D02*
X60657219Y-25003006D01*
X60657219Y-25003006D02*
X60704838Y-25098244D01*
X60704838Y-25098244D02*
X60752457Y-25145863D01*
X60752457Y-25145863D02*
X60847695Y-25193482D01*
X60847695Y-25193482D02*
X60942933Y-25193482D01*
X60942933Y-25193482D02*
X61038171Y-25145863D01*
X61038171Y-25145863D02*
X61085790Y-25098244D01*
X61085790Y-25098244D02*
X61133409Y-25003006D01*
X61133409Y-25003006D02*
X61133409Y-24669673D01*
X61657219Y-25717292D02*
X61657219Y-25907768D01*
X61657219Y-25907768D02*
X61609600Y-26003006D01*
X61609600Y-26003006D02*
X61561980Y-26050625D01*
X61561980Y-26050625D02*
X61419123Y-26145863D01*
X61419123Y-26145863D02*
X61228647Y-26193482D01*
X61228647Y-26193482D02*
X60847695Y-26193482D01*
X60847695Y-26193482D02*
X60752457Y-26145863D01*
X60752457Y-26145863D02*
X60704838Y-26098244D01*
X60704838Y-26098244D02*
X60657219Y-26003006D01*
X60657219Y-26003006D02*
X60657219Y-25812530D01*
X60657219Y-25812530D02*
X60704838Y-25717292D01*
X60704838Y-25717292D02*
X60752457Y-25669673D01*
X60752457Y-25669673D02*
X60847695Y-25622054D01*
X60847695Y-25622054D02*
X61085790Y-25622054D01*
X61085790Y-25622054D02*
X61181028Y-25669673D01*
X61181028Y-25669673D02*
X61228647Y-25717292D01*
X61228647Y-25717292D02*
X61276266Y-25812530D01*
X61276266Y-25812530D02*
X61276266Y-26003006D01*
X61276266Y-26003006D02*
X61228647Y-26098244D01*
X61228647Y-26098244D02*
X61181028Y-26145863D01*
X61181028Y-26145863D02*
X61085790Y-26193482D01*
X61181028Y-27241101D02*
X61133409Y-27193482D01*
X61133409Y-27193482D02*
X61085790Y-27098244D01*
X61085790Y-27098244D02*
X61085790Y-27003006D01*
X61085790Y-27003006D02*
X61133409Y-26907768D01*
X61133409Y-26907768D02*
X61181028Y-26860149D01*
X61181028Y-26860149D02*
X61276266Y-26812530D01*
X61276266Y-26812530D02*
X61371504Y-26812530D01*
X61371504Y-26812530D02*
X61466742Y-26860149D01*
X61466742Y-26860149D02*
X61514361Y-26907768D01*
X61514361Y-26907768D02*
X61561980Y-27003006D01*
X61561980Y-27003006D02*
X61561980Y-27098244D01*
X61561980Y-27098244D02*
X61514361Y-27193482D01*
X61514361Y-27193482D02*
X61466742Y-27241101D01*
X61085790Y-27241101D02*
X61466742Y-27241101D01*
X61466742Y-27241101D02*
X61514361Y-27288720D01*
X61514361Y-27288720D02*
X61514361Y-27336339D01*
X61514361Y-27336339D02*
X61466742Y-27431578D01*
X61466742Y-27431578D02*
X61371504Y-27479197D01*
X61371504Y-27479197D02*
X61133409Y-27479197D01*
X61133409Y-27479197D02*
X60990552Y-27383959D01*
X60990552Y-27383959D02*
X60895314Y-27241101D01*
X60895314Y-27241101D02*
X60847695Y-27050625D01*
X60847695Y-27050625D02*
X60895314Y-26860149D01*
X60895314Y-26860149D02*
X60990552Y-26717292D01*
X60990552Y-26717292D02*
X61133409Y-26622054D01*
X61133409Y-26622054D02*
X61323885Y-26574435D01*
X61323885Y-26574435D02*
X61514361Y-26622054D01*
X61514361Y-26622054D02*
X61657219Y-26717292D01*
X61657219Y-26717292D02*
X61752457Y-26860149D01*
X61752457Y-26860149D02*
X61800076Y-27050625D01*
X61800076Y-27050625D02*
X61752457Y-27241101D01*
X61752457Y-27241101D02*
X61657219Y-27383959D01*
X60657219Y-28383958D02*
X60657219Y-27907768D01*
X60657219Y-27907768D02*
X61133409Y-27860149D01*
X61133409Y-27860149D02*
X61085790Y-27907768D01*
X61085790Y-27907768D02*
X61038171Y-28003006D01*
X61038171Y-28003006D02*
X61038171Y-28241101D01*
X61038171Y-28241101D02*
X61085790Y-28336339D01*
X61085790Y-28336339D02*
X61133409Y-28383958D01*
X61133409Y-28383958D02*
X61228647Y-28431577D01*
X61228647Y-28431577D02*
X61466742Y-28431577D01*
X61466742Y-28431577D02*
X61561980Y-28383958D01*
X61561980Y-28383958D02*
X61609600Y-28336339D01*
X61609600Y-28336339D02*
X61657219Y-28241101D01*
X61657219Y-28241101D02*
X61657219Y-28003006D01*
X61657219Y-28003006D02*
X61609600Y-27907768D01*
X61609600Y-27907768D02*
X61561980Y-27860149D01*
X60657219Y-28717292D02*
X61657219Y-29050625D01*
X61657219Y-29050625D02*
X60657219Y-29383958D01*
X28556517Y-35154838D02*
X28651755Y-35107219D01*
X28651755Y-35107219D02*
X28794612Y-35107219D01*
X28794612Y-35107219D02*
X28937469Y-35154838D01*
X28937469Y-35154838D02*
X29032707Y-35250076D01*
X29032707Y-35250076D02*
X29080326Y-35345314D01*
X29080326Y-35345314D02*
X29127945Y-35535790D01*
X29127945Y-35535790D02*
X29127945Y-35678647D01*
X29127945Y-35678647D02*
X29080326Y-35869123D01*
X29080326Y-35869123D02*
X29032707Y-35964361D01*
X29032707Y-35964361D02*
X28937469Y-36059600D01*
X28937469Y-36059600D02*
X28794612Y-36107219D01*
X28794612Y-36107219D02*
X28699374Y-36107219D01*
X28699374Y-36107219D02*
X28556517Y-36059600D01*
X28556517Y-36059600D02*
X28508898Y-36011980D01*
X28508898Y-36011980D02*
X28508898Y-35678647D01*
X28508898Y-35678647D02*
X28699374Y-35678647D01*
X28080326Y-36107219D02*
X28080326Y-35107219D01*
X28080326Y-35107219D02*
X27508898Y-36107219D01*
X27508898Y-36107219D02*
X27508898Y-35107219D01*
X27032707Y-36107219D02*
X27032707Y-35107219D01*
X27032707Y-35107219D02*
X26794612Y-35107219D01*
X26794612Y-35107219D02*
X26651755Y-35154838D01*
X26651755Y-35154838D02*
X26556517Y-35250076D01*
X26556517Y-35250076D02*
X26508898Y-35345314D01*
X26508898Y-35345314D02*
X26461279Y-35535790D01*
X26461279Y-35535790D02*
X26461279Y-35678647D01*
X26461279Y-35678647D02*
X26508898Y-35869123D01*
X26508898Y-35869123D02*
X26556517Y-35964361D01*
X26556517Y-35964361D02*
X26651755Y-36059600D01*
X26651755Y-36059600D02*
X26794612Y-36107219D01*
X26794612Y-36107219D02*
X27032707Y-36107219D01*
X63437219Y-17365863D02*
X63437219Y-16889673D01*
X63437219Y-16889673D02*
X63913409Y-16842054D01*
X63913409Y-16842054D02*
X63865790Y-16889673D01*
X63865790Y-16889673D02*
X63818171Y-16984911D01*
X63818171Y-16984911D02*
X63818171Y-17223006D01*
X63818171Y-17223006D02*
X63865790Y-17318244D01*
X63865790Y-17318244D02*
X63913409Y-17365863D01*
X63913409Y-17365863D02*
X64008647Y-17413482D01*
X64008647Y-17413482D02*
X64246742Y-17413482D01*
X64246742Y-17413482D02*
X64341980Y-17365863D01*
X64341980Y-17365863D02*
X64389600Y-17318244D01*
X64389600Y-17318244D02*
X64437219Y-17223006D01*
X64437219Y-17223006D02*
X64437219Y-16984911D01*
X64437219Y-16984911D02*
X64389600Y-16889673D01*
X64389600Y-16889673D02*
X64341980Y-16842054D01*
X63437219Y-17699197D02*
X64437219Y-18032530D01*
X64437219Y-18032530D02*
X63437219Y-18365863D01*
X61767219Y-16879673D02*
X60767219Y-16879673D01*
X60767219Y-16879673D02*
X60767219Y-17260625D01*
X60767219Y-17260625D02*
X60814838Y-17355863D01*
X60814838Y-17355863D02*
X60862457Y-17403482D01*
X60862457Y-17403482D02*
X60957695Y-17451101D01*
X60957695Y-17451101D02*
X61100552Y-17451101D01*
X61100552Y-17451101D02*
X61195790Y-17403482D01*
X61195790Y-17403482D02*
X61243409Y-17355863D01*
X61243409Y-17355863D02*
X61291028Y-17260625D01*
X61291028Y-17260625D02*
X61291028Y-16879673D01*
X61481504Y-17832054D02*
X61481504Y-18308244D01*
X61767219Y-17736816D02*
X60767219Y-18070149D01*
X60767219Y-18070149D02*
X61767219Y-18403482D01*
X60767219Y-18927292D02*
X60767219Y-19022530D01*
X60767219Y-19022530D02*
X60814838Y-19117768D01*
X60814838Y-19117768D02*
X60862457Y-19165387D01*
X60862457Y-19165387D02*
X60957695Y-19213006D01*
X60957695Y-19213006D02*
X61148171Y-19260625D01*
X61148171Y-19260625D02*
X61386266Y-19260625D01*
X61386266Y-19260625D02*
X61576742Y-19213006D01*
X61576742Y-19213006D02*
X61671980Y-19165387D01*
X61671980Y-19165387D02*
X61719600Y-19117768D01*
X61719600Y-19117768D02*
X61767219Y-19022530D01*
X61767219Y-19022530D02*
X61767219Y-18927292D01*
X61767219Y-18927292D02*
X61719600Y-18832054D01*
X61719600Y-18832054D02*
X61671980Y-18784435D01*
X61671980Y-18784435D02*
X61576742Y-18736816D01*
X61576742Y-18736816D02*
X61386266Y-18689197D01*
X61386266Y-18689197D02*
X61148171Y-18689197D01*
X61148171Y-18689197D02*
X60957695Y-18736816D01*
X60957695Y-18736816D02*
X60862457Y-18784435D01*
X60862457Y-18784435D02*
X60814838Y-18832054D01*
X60814838Y-18832054D02*
X60767219Y-18927292D01*
X43000400Y-6257945D02*
X42952780Y-6115088D01*
X42952780Y-6115088D02*
X42952780Y-5876993D01*
X42952780Y-5876993D02*
X43000400Y-5781755D01*
X43000400Y-5781755D02*
X43048019Y-5734136D01*
X43048019Y-5734136D02*
X43143257Y-5686517D01*
X43143257Y-5686517D02*
X43238495Y-5686517D01*
X43238495Y-5686517D02*
X43333733Y-5734136D01*
X43333733Y-5734136D02*
X43381352Y-5781755D01*
X43381352Y-5781755D02*
X43428971Y-5876993D01*
X43428971Y-5876993D02*
X43476590Y-6067469D01*
X43476590Y-6067469D02*
X43524209Y-6162707D01*
X43524209Y-6162707D02*
X43571828Y-6210326D01*
X43571828Y-6210326D02*
X43667066Y-6257945D01*
X43667066Y-6257945D02*
X43762304Y-6257945D01*
X43762304Y-6257945D02*
X43857542Y-6210326D01*
X43857542Y-6210326D02*
X43905161Y-6162707D01*
X43905161Y-6162707D02*
X43952780Y-6067469D01*
X43952780Y-6067469D02*
X43952780Y-5829374D01*
X43952780Y-5829374D02*
X43905161Y-5686517D01*
X43952780Y-5353183D02*
X42952780Y-5115088D01*
X42952780Y-5115088D02*
X43667066Y-4924612D01*
X43667066Y-4924612D02*
X42952780Y-4734136D01*
X42952780Y-4734136D02*
X43952780Y-4496041D01*
X42952780Y-4115088D02*
X43952780Y-4115088D01*
X43952780Y-4115088D02*
X43952780Y-3876993D01*
X43952780Y-3876993D02*
X43905161Y-3734136D01*
X43905161Y-3734136D02*
X43809923Y-3638898D01*
X43809923Y-3638898D02*
X43714685Y-3591279D01*
X43714685Y-3591279D02*
X43524209Y-3543660D01*
X43524209Y-3543660D02*
X43381352Y-3543660D01*
X43381352Y-3543660D02*
X43190876Y-3591279D01*
X43190876Y-3591279D02*
X43095638Y-3638898D01*
X43095638Y-3638898D02*
X43000400Y-3734136D01*
X43000400Y-3734136D02*
X42952780Y-3876993D01*
X42952780Y-3876993D02*
X42952780Y-4115088D01*
X42952780Y-3115088D02*
X43952780Y-3115088D01*
X43952780Y-2448422D02*
X43952780Y-2257946D01*
X43952780Y-2257946D02*
X43905161Y-2162708D01*
X43905161Y-2162708D02*
X43809923Y-2067470D01*
X43809923Y-2067470D02*
X43619447Y-2019851D01*
X43619447Y-2019851D02*
X43286114Y-2019851D01*
X43286114Y-2019851D02*
X43095638Y-2067470D01*
X43095638Y-2067470D02*
X43000400Y-2162708D01*
X43000400Y-2162708D02*
X42952780Y-2257946D01*
X42952780Y-2257946D02*
X42952780Y-2448422D01*
X42952780Y-2448422D02*
X43000400Y-2543660D01*
X43000400Y-2543660D02*
X43095638Y-2638898D01*
X43095638Y-2638898D02*
X43286114Y-2686517D01*
X43286114Y-2686517D02*
X43619447Y-2686517D01*
X43619447Y-2686517D02*
X43809923Y-2638898D01*
X43809923Y-2638898D02*
X43905161Y-2543660D01*
X43905161Y-2543660D02*
X43952780Y-2448422D01*
X83635161Y-26756517D02*
X83682780Y-26851755D01*
X83682780Y-26851755D02*
X83682780Y-26994612D01*
X83682780Y-26994612D02*
X83635161Y-27137469D01*
X83635161Y-27137469D02*
X83539923Y-27232707D01*
X83539923Y-27232707D02*
X83444685Y-27280326D01*
X83444685Y-27280326D02*
X83254209Y-27327945D01*
X83254209Y-27327945D02*
X83111352Y-27327945D01*
X83111352Y-27327945D02*
X82920876Y-27280326D01*
X82920876Y-27280326D02*
X82825638Y-27232707D01*
X82825638Y-27232707D02*
X82730400Y-27137469D01*
X82730400Y-27137469D02*
X82682780Y-26994612D01*
X82682780Y-26994612D02*
X82682780Y-26899374D01*
X82682780Y-26899374D02*
X82730400Y-26756517D01*
X82730400Y-26756517D02*
X82778019Y-26708898D01*
X82778019Y-26708898D02*
X83111352Y-26708898D01*
X83111352Y-26708898D02*
X83111352Y-26899374D01*
X82682780Y-26280326D02*
X83682780Y-26280326D01*
X83682780Y-26280326D02*
X82682780Y-25708898D01*
X82682780Y-25708898D02*
X83682780Y-25708898D01*
X82682780Y-25232707D02*
X83682780Y-25232707D01*
X83682780Y-25232707D02*
X83682780Y-24994612D01*
X83682780Y-24994612D02*
X83635161Y-24851755D01*
X83635161Y-24851755D02*
X83539923Y-24756517D01*
X83539923Y-24756517D02*
X83444685Y-24708898D01*
X83444685Y-24708898D02*
X83254209Y-24661279D01*
X83254209Y-24661279D02*
X83111352Y-24661279D01*
X83111352Y-24661279D02*
X82920876Y-24708898D01*
X82920876Y-24708898D02*
X82825638Y-24756517D01*
X82825638Y-24756517D02*
X82730400Y-24851755D01*
X82730400Y-24851755D02*
X82682780Y-24994612D01*
X82682780Y-24994612D02*
X82682780Y-25232707D01*
X78077945Y-6669600D02*
X77935088Y-6717219D01*
X77935088Y-6717219D02*
X77696993Y-6717219D01*
X77696993Y-6717219D02*
X77601755Y-6669600D01*
X77601755Y-6669600D02*
X77554136Y-6621980D01*
X77554136Y-6621980D02*
X77506517Y-6526742D01*
X77506517Y-6526742D02*
X77506517Y-6431504D01*
X77506517Y-6431504D02*
X77554136Y-6336266D01*
X77554136Y-6336266D02*
X77601755Y-6288647D01*
X77601755Y-6288647D02*
X77696993Y-6241028D01*
X77696993Y-6241028D02*
X77887469Y-6193409D01*
X77887469Y-6193409D02*
X77982707Y-6145790D01*
X77982707Y-6145790D02*
X78030326Y-6098171D01*
X78030326Y-6098171D02*
X78077945Y-6002933D01*
X78077945Y-6002933D02*
X78077945Y-5907695D01*
X78077945Y-5907695D02*
X78030326Y-5812457D01*
X78030326Y-5812457D02*
X77982707Y-5764838D01*
X77982707Y-5764838D02*
X77887469Y-5717219D01*
X77887469Y-5717219D02*
X77649374Y-5717219D01*
X77649374Y-5717219D02*
X77506517Y-5764838D01*
X76506517Y-6621980D02*
X76554136Y-6669600D01*
X76554136Y-6669600D02*
X76696993Y-6717219D01*
X76696993Y-6717219D02*
X76792231Y-6717219D01*
X76792231Y-6717219D02*
X76935088Y-6669600D01*
X76935088Y-6669600D02*
X77030326Y-6574361D01*
X77030326Y-6574361D02*
X77077945Y-6479123D01*
X77077945Y-6479123D02*
X77125564Y-6288647D01*
X77125564Y-6288647D02*
X77125564Y-6145790D01*
X77125564Y-6145790D02*
X77077945Y-5955314D01*
X77077945Y-5955314D02*
X77030326Y-5860076D01*
X77030326Y-5860076D02*
X76935088Y-5764838D01*
X76935088Y-5764838D02*
X76792231Y-5717219D01*
X76792231Y-5717219D02*
X76696993Y-5717219D01*
X76696993Y-5717219D02*
X76554136Y-5764838D01*
X76554136Y-5764838D02*
X76506517Y-5812457D01*
X75601755Y-6717219D02*
X76077945Y-6717219D01*
X76077945Y-6717219D02*
X76077945Y-5717219D01*
X80355537Y-10160886D02*
X80456552Y-10194558D01*
X80456552Y-10194558D02*
X80557568Y-10295573D01*
X80557568Y-10295573D02*
X80624911Y-10430260D01*
X80624911Y-10430260D02*
X80624911Y-10564947D01*
X80624911Y-10564947D02*
X80591239Y-10665963D01*
X80591239Y-10665963D02*
X80490224Y-10834321D01*
X80490224Y-10834321D02*
X80389209Y-10935337D01*
X80389209Y-10935337D02*
X80220850Y-11036352D01*
X80220850Y-11036352D02*
X80119835Y-11070024D01*
X80119835Y-11070024D02*
X79985148Y-11070024D01*
X79985148Y-11070024D02*
X79850461Y-11002680D01*
X79850461Y-11002680D02*
X79783117Y-10935337D01*
X79783117Y-10935337D02*
X79715774Y-10800650D01*
X79715774Y-10800650D02*
X79715774Y-10733306D01*
X79715774Y-10733306D02*
X79951476Y-10497604D01*
X79951476Y-10497604D02*
X80086163Y-10632291D01*
X79345385Y-10497604D02*
X80052491Y-9790497D01*
X80052491Y-9790497D02*
X78941324Y-10093543D01*
X78941324Y-10093543D02*
X79648430Y-9386436D01*
X78604606Y-9756825D02*
X79311713Y-9049719D01*
X79311713Y-9049719D02*
X79143354Y-8881360D01*
X79143354Y-8881360D02*
X79008667Y-8814016D01*
X79008667Y-8814016D02*
X78873980Y-8814016D01*
X78873980Y-8814016D02*
X78772965Y-8847688D01*
X78772965Y-8847688D02*
X78604606Y-8948703D01*
X78604606Y-8948703D02*
X78503591Y-9049719D01*
X78503591Y-9049719D02*
X78402576Y-9218077D01*
X78402576Y-9218077D02*
X78368904Y-9319093D01*
X78368904Y-9319093D02*
X78368904Y-9453780D01*
X78368904Y-9453780D02*
X78436247Y-9588467D01*
X78436247Y-9588467D02*
X78604606Y-9756825D01*
X85052780Y-24334136D02*
X85052780Y-24810326D01*
X85052780Y-24810326D02*
X84576590Y-24857945D01*
X84576590Y-24857945D02*
X84624209Y-24810326D01*
X84624209Y-24810326D02*
X84671828Y-24715088D01*
X84671828Y-24715088D02*
X84671828Y-24476993D01*
X84671828Y-24476993D02*
X84624209Y-24381755D01*
X84624209Y-24381755D02*
X84576590Y-24334136D01*
X84576590Y-24334136D02*
X84481352Y-24286517D01*
X84481352Y-24286517D02*
X84243257Y-24286517D01*
X84243257Y-24286517D02*
X84148019Y-24334136D01*
X84148019Y-24334136D02*
X84100400Y-24381755D01*
X84100400Y-24381755D02*
X84052780Y-24476993D01*
X84052780Y-24476993D02*
X84052780Y-24715088D01*
X84052780Y-24715088D02*
X84100400Y-24810326D01*
X84100400Y-24810326D02*
X84148019Y-24857945D01*
X85052780Y-24000802D02*
X84052780Y-23667469D01*
X84052780Y-23667469D02*
X85052780Y-23334136D01*
X34533183Y-2097219D02*
X33961755Y-2097219D01*
X34247469Y-3097219D02*
X34247469Y-2097219D01*
X33104612Y-3097219D02*
X33676040Y-3097219D01*
X33390326Y-3097219D02*
X33390326Y-2097219D01*
X33390326Y-2097219D02*
X33485564Y-2240076D01*
X33485564Y-2240076D02*
X33580802Y-2335314D01*
X33580802Y-2335314D02*
X33676040Y-2382933D01*
X24036517Y-18347219D02*
X24607945Y-18347219D01*
X24322231Y-18347219D02*
X24322231Y-17347219D01*
X24322231Y-17347219D02*
X24417469Y-17490076D01*
X24417469Y-17490076D02*
X24512707Y-17585314D01*
X24512707Y-17585314D02*
X24607945Y-17632933D01*
X23655564Y-17442457D02*
X23607945Y-17394838D01*
X23607945Y-17394838D02*
X23512707Y-17347219D01*
X23512707Y-17347219D02*
X23274612Y-17347219D01*
X23274612Y-17347219D02*
X23179374Y-17394838D01*
X23179374Y-17394838D02*
X23131755Y-17442457D01*
X23131755Y-17442457D02*
X23084136Y-17537695D01*
X23084136Y-17537695D02*
X23084136Y-17632933D01*
X23084136Y-17632933D02*
X23131755Y-17775790D01*
X23131755Y-17775790D02*
X23703183Y-18347219D01*
X23703183Y-18347219D02*
X23084136Y-18347219D01*
X22465088Y-17347219D02*
X22369850Y-17347219D01*
X22369850Y-17347219D02*
X22274612Y-17394838D01*
X22274612Y-17394838D02*
X22226993Y-17442457D01*
X22226993Y-17442457D02*
X22179374Y-17537695D01*
X22179374Y-17537695D02*
X22131755Y-17728171D01*
X22131755Y-17728171D02*
X22131755Y-17966266D01*
X22131755Y-17966266D02*
X22179374Y-18156742D01*
X22179374Y-18156742D02*
X22226993Y-18251980D01*
X22226993Y-18251980D02*
X22274612Y-18299600D01*
X22274612Y-18299600D02*
X22369850Y-18347219D01*
X22369850Y-18347219D02*
X22465088Y-18347219D01*
X22465088Y-18347219D02*
X22560326Y-18299600D01*
X22560326Y-18299600D02*
X22607945Y-18251980D01*
X22607945Y-18251980D02*
X22655564Y-18156742D01*
X22655564Y-18156742D02*
X22703183Y-17966266D01*
X22703183Y-17966266D02*
X22703183Y-17728171D01*
X22703183Y-17728171D02*
X22655564Y-17537695D01*
X22655564Y-17537695D02*
X22607945Y-17442457D01*
X22607945Y-17442457D02*
X22560326Y-17394838D01*
X22560326Y-17394838D02*
X22465088Y-17347219D01*
X21131755Y-18347219D02*
X21465088Y-17871028D01*
X21703183Y-18347219D02*
X21703183Y-17347219D01*
X21703183Y-17347219D02*
X21322231Y-17347219D01*
X21322231Y-17347219D02*
X21226993Y-17394838D01*
X21226993Y-17394838D02*
X21179374Y-17442457D01*
X21179374Y-17442457D02*
X21131755Y-17537695D01*
X21131755Y-17537695D02*
X21131755Y-17680552D01*
X21131755Y-17680552D02*
X21179374Y-17775790D01*
X21179374Y-17775790D02*
X21226993Y-17823409D01*
X21226993Y-17823409D02*
X21322231Y-17871028D01*
X21322231Y-17871028D02*
X21703183Y-17871028D01*
X12127945Y-1892457D02*
X12080326Y-1844838D01*
X12080326Y-1844838D02*
X11985088Y-1797219D01*
X11985088Y-1797219D02*
X11746993Y-1797219D01*
X11746993Y-1797219D02*
X11651755Y-1844838D01*
X11651755Y-1844838D02*
X11604136Y-1892457D01*
X11604136Y-1892457D02*
X11556517Y-1987695D01*
X11556517Y-1987695D02*
X11556517Y-2082933D01*
X11556517Y-2082933D02*
X11604136Y-2225790D01*
X11604136Y-2225790D02*
X12175564Y-2797219D01*
X12175564Y-2797219D02*
X11556517Y-2797219D01*
X10413660Y-1749600D02*
X11270802Y-3035314D01*
X9651755Y-2130552D02*
X9651755Y-2797219D01*
X9889850Y-1749600D02*
X10127945Y-2463885D01*
X10127945Y-2463885D02*
X9508898Y-2463885D01*
X8461278Y-1797219D02*
X8223183Y-2797219D01*
X8223183Y-2797219D02*
X8032707Y-2082933D01*
X8032707Y-2082933D02*
X7842231Y-2797219D01*
X7842231Y-2797219D02*
X7604136Y-1797219D01*
X7223183Y-2797219D02*
X7223183Y-1797219D01*
X6175565Y-2797219D02*
X6508898Y-2321028D01*
X6746993Y-2797219D02*
X6746993Y-1797219D01*
X6746993Y-1797219D02*
X6366041Y-1797219D01*
X6366041Y-1797219D02*
X6270803Y-1844838D01*
X6270803Y-1844838D02*
X6223184Y-1892457D01*
X6223184Y-1892457D02*
X6175565Y-1987695D01*
X6175565Y-1987695D02*
X6175565Y-2130552D01*
X6175565Y-2130552D02*
X6223184Y-2225790D01*
X6223184Y-2225790D02*
X6270803Y-2273409D01*
X6270803Y-2273409D02*
X6366041Y-2321028D01*
X6366041Y-2321028D02*
X6746993Y-2321028D01*
X5746993Y-2273409D02*
X5413660Y-2273409D01*
X5270803Y-2797219D02*
X5746993Y-2797219D01*
X5746993Y-2797219D02*
X5746993Y-1797219D01*
X5746993Y-1797219D02*
X5270803Y-1797219D01*
X41352780Y-6305564D02*
X41352780Y-5686517D01*
X41352780Y-5686517D02*
X40971828Y-6019850D01*
X40971828Y-6019850D02*
X40971828Y-5876993D01*
X40971828Y-5876993D02*
X40924209Y-5781755D01*
X40924209Y-5781755D02*
X40876590Y-5734136D01*
X40876590Y-5734136D02*
X40781352Y-5686517D01*
X40781352Y-5686517D02*
X40543257Y-5686517D01*
X40543257Y-5686517D02*
X40448019Y-5734136D01*
X40448019Y-5734136D02*
X40400400Y-5781755D01*
X40400400Y-5781755D02*
X40352780Y-5876993D01*
X40352780Y-5876993D02*
X40352780Y-6162707D01*
X40352780Y-6162707D02*
X40400400Y-6257945D01*
X40400400Y-6257945D02*
X40448019Y-6305564D01*
X40448019Y-5257945D02*
X40400400Y-5210326D01*
X40400400Y-5210326D02*
X40352780Y-5257945D01*
X40352780Y-5257945D02*
X40400400Y-5305564D01*
X40400400Y-5305564D02*
X40448019Y-5257945D01*
X40448019Y-5257945D02*
X40352780Y-5257945D01*
X41352780Y-4876993D02*
X41352780Y-4257946D01*
X41352780Y-4257946D02*
X40971828Y-4591279D01*
X40971828Y-4591279D02*
X40971828Y-4448422D01*
X40971828Y-4448422D02*
X40924209Y-4353184D01*
X40924209Y-4353184D02*
X40876590Y-4305565D01*
X40876590Y-4305565D02*
X40781352Y-4257946D01*
X40781352Y-4257946D02*
X40543257Y-4257946D01*
X40543257Y-4257946D02*
X40448019Y-4305565D01*
X40448019Y-4305565D02*
X40400400Y-4353184D01*
X40400400Y-4353184D02*
X40352780Y-4448422D01*
X40352780Y-4448422D02*
X40352780Y-4734136D01*
X40352780Y-4734136D02*
X40400400Y-4829374D01*
X40400400Y-4829374D02*
X40448019Y-4876993D01*
X41352780Y-3972231D02*
X40352780Y-3638898D01*
X40352780Y-3638898D02*
X41352780Y-3305565D01*
X28663183Y-31947219D02*
X28329850Y-32947219D01*
X28329850Y-32947219D02*
X27996517Y-31947219D01*
X27663183Y-32947219D02*
X27663183Y-31947219D01*
X27186993Y-32947219D02*
X27186993Y-31947219D01*
X27186993Y-31947219D02*
X26615565Y-32947219D01*
X26615565Y-32947219D02*
X26615565Y-31947219D01*
X65854838Y-17393482D02*
X65807219Y-17298244D01*
X65807219Y-17298244D02*
X65807219Y-17155387D01*
X65807219Y-17155387D02*
X65854838Y-17012530D01*
X65854838Y-17012530D02*
X65950076Y-16917292D01*
X65950076Y-16917292D02*
X66045314Y-16869673D01*
X66045314Y-16869673D02*
X66235790Y-16822054D01*
X66235790Y-16822054D02*
X66378647Y-16822054D01*
X66378647Y-16822054D02*
X66569123Y-16869673D01*
X66569123Y-16869673D02*
X66664361Y-16917292D01*
X66664361Y-16917292D02*
X66759600Y-17012530D01*
X66759600Y-17012530D02*
X66807219Y-17155387D01*
X66807219Y-17155387D02*
X66807219Y-17250625D01*
X66807219Y-17250625D02*
X66759600Y-17393482D01*
X66759600Y-17393482D02*
X66711980Y-17441101D01*
X66711980Y-17441101D02*
X66378647Y-17441101D01*
X66378647Y-17441101D02*
X66378647Y-17250625D01*
X66807219Y-17869673D02*
X65807219Y-17869673D01*
X65807219Y-17869673D02*
X66807219Y-18441101D01*
X66807219Y-18441101D02*
X65807219Y-18441101D01*
X66807219Y-18917292D02*
X65807219Y-18917292D01*
X65807219Y-18917292D02*
X65807219Y-19155387D01*
X65807219Y-19155387D02*
X65854838Y-19298244D01*
X65854838Y-19298244D02*
X65950076Y-19393482D01*
X65950076Y-19393482D02*
X66045314Y-19441101D01*
X66045314Y-19441101D02*
X66235790Y-19488720D01*
X66235790Y-19488720D02*
X66378647Y-19488720D01*
X66378647Y-19488720D02*
X66569123Y-19441101D01*
X66569123Y-19441101D02*
X66664361Y-19393482D01*
X66664361Y-19393482D02*
X66759600Y-19298244D01*
X66759600Y-19298244D02*
X66807219Y-19155387D01*
X66807219Y-19155387D02*
X66807219Y-18917292D01*
X57463183Y-2037219D02*
X56891755Y-2037219D01*
X57177469Y-3037219D02*
X57177469Y-2037219D01*
X56606040Y-2132457D02*
X56558421Y-2084838D01*
X56558421Y-2084838D02*
X56463183Y-2037219D01*
X56463183Y-2037219D02*
X56225088Y-2037219D01*
X56225088Y-2037219D02*
X56129850Y-2084838D01*
X56129850Y-2084838D02*
X56082231Y-2132457D01*
X56082231Y-2132457D02*
X56034612Y-2227695D01*
X56034612Y-2227695D02*
X56034612Y-2322933D01*
X56034612Y-2322933D02*
X56082231Y-2465790D01*
X56082231Y-2465790D02*
X56653659Y-3037219D01*
X56653659Y-3037219D02*
X56034612Y-3037219D01*
X80442881Y-12510886D02*
X80779598Y-12847604D01*
X80779598Y-12847604D02*
X80476552Y-13217993D01*
X80476552Y-13217993D02*
X80476552Y-13150650D01*
X80476552Y-13150650D02*
X80442881Y-13049634D01*
X80442881Y-13049634D02*
X80274522Y-12881276D01*
X80274522Y-12881276D02*
X80173507Y-12847604D01*
X80173507Y-12847604D02*
X80106163Y-12847604D01*
X80106163Y-12847604D02*
X80005148Y-12881276D01*
X80005148Y-12881276D02*
X79836789Y-13049634D01*
X79836789Y-13049634D02*
X79803117Y-13150650D01*
X79803117Y-13150650D02*
X79803117Y-13217993D01*
X79803117Y-13217993D02*
X79836789Y-13319008D01*
X79836789Y-13319008D02*
X80005148Y-13487367D01*
X80005148Y-13487367D02*
X80106163Y-13521039D01*
X80106163Y-13521039D02*
X80173507Y-13521039D01*
X80207178Y-12275184D02*
X79264369Y-12746589D01*
X79264369Y-12746589D02*
X79735774Y-11803780D01*
X46385161Y-5716517D02*
X46432780Y-5811755D01*
X46432780Y-5811755D02*
X46432780Y-5954612D01*
X46432780Y-5954612D02*
X46385161Y-6097469D01*
X46385161Y-6097469D02*
X46289923Y-6192707D01*
X46289923Y-6192707D02*
X46194685Y-6240326D01*
X46194685Y-6240326D02*
X46004209Y-6287945D01*
X46004209Y-6287945D02*
X45861352Y-6287945D01*
X45861352Y-6287945D02*
X45670876Y-6240326D01*
X45670876Y-6240326D02*
X45575638Y-6192707D01*
X45575638Y-6192707D02*
X45480400Y-6097469D01*
X45480400Y-6097469D02*
X45432780Y-5954612D01*
X45432780Y-5954612D02*
X45432780Y-5859374D01*
X45432780Y-5859374D02*
X45480400Y-5716517D01*
X45480400Y-5716517D02*
X45528019Y-5668898D01*
X45528019Y-5668898D02*
X45861352Y-5668898D01*
X45861352Y-5668898D02*
X45861352Y-5859374D01*
X45432780Y-5240326D02*
X46432780Y-5240326D01*
X46432780Y-5240326D02*
X45432780Y-4668898D01*
X45432780Y-4668898D02*
X46432780Y-4668898D01*
X45432780Y-4192707D02*
X46432780Y-4192707D01*
X46432780Y-4192707D02*
X46432780Y-3954612D01*
X46432780Y-3954612D02*
X46385161Y-3811755D01*
X46385161Y-3811755D02*
X46289923Y-3716517D01*
X46289923Y-3716517D02*
X46194685Y-3668898D01*
X46194685Y-3668898D02*
X46004209Y-3621279D01*
X46004209Y-3621279D02*
X45861352Y-3621279D01*
X45861352Y-3621279D02*
X45670876Y-3668898D01*
X45670876Y-3668898D02*
X45575638Y-3716517D01*
X45575638Y-3716517D02*
X45480400Y-3811755D01*
X45480400Y-3811755D02*
X45432780Y-3954612D01*
X45432780Y-3954612D02*
X45432780Y-4192707D01*
X57267219Y-8139673D02*
X56267219Y-8139673D01*
X56267219Y-8139673D02*
X56267219Y-8520625D01*
X56267219Y-8520625D02*
X56314838Y-8615863D01*
X56314838Y-8615863D02*
X56362457Y-8663482D01*
X56362457Y-8663482D02*
X56457695Y-8711101D01*
X56457695Y-8711101D02*
X56600552Y-8711101D01*
X56600552Y-8711101D02*
X56695790Y-8663482D01*
X56695790Y-8663482D02*
X56743409Y-8615863D01*
X56743409Y-8615863D02*
X56791028Y-8520625D01*
X56791028Y-8520625D02*
X56791028Y-8139673D01*
X56981504Y-9092054D02*
X56981504Y-9568244D01*
X57267219Y-8996816D02*
X56267219Y-9330149D01*
X56267219Y-9330149D02*
X57267219Y-9663482D01*
X56267219Y-9901578D02*
X56267219Y-10520625D01*
X56267219Y-10520625D02*
X56648171Y-10187292D01*
X56648171Y-10187292D02*
X56648171Y-10330149D01*
X56648171Y-10330149D02*
X56695790Y-10425387D01*
X56695790Y-10425387D02*
X56743409Y-10473006D01*
X56743409Y-10473006D02*
X56838647Y-10520625D01*
X56838647Y-10520625D02*
X57076742Y-10520625D01*
X57076742Y-10520625D02*
X57171980Y-10473006D01*
X57171980Y-10473006D02*
X57219600Y-10425387D01*
X57219600Y-10425387D02*
X57267219Y-10330149D01*
X57267219Y-10330149D02*
X57267219Y-10044435D01*
X57267219Y-10044435D02*
X57219600Y-9949197D01*
X57219600Y-9949197D02*
X57171980Y-9901578D01*
X49266993Y-21443409D02*
X49124136Y-21491028D01*
X49124136Y-21491028D02*
X49076517Y-21538647D01*
X49076517Y-21538647D02*
X49028898Y-21633885D01*
X49028898Y-21633885D02*
X49028898Y-21776742D01*
X49028898Y-21776742D02*
X49076517Y-21871980D01*
X49076517Y-21871980D02*
X49124136Y-21919600D01*
X49124136Y-21919600D02*
X49219374Y-21967219D01*
X49219374Y-21967219D02*
X49600326Y-21967219D01*
X49600326Y-21967219D02*
X49600326Y-20967219D01*
X49600326Y-20967219D02*
X49266993Y-20967219D01*
X49266993Y-20967219D02*
X49171755Y-21014838D01*
X49171755Y-21014838D02*
X49124136Y-21062457D01*
X49124136Y-21062457D02*
X49076517Y-21157695D01*
X49076517Y-21157695D02*
X49076517Y-21252933D01*
X49076517Y-21252933D02*
X49124136Y-21348171D01*
X49124136Y-21348171D02*
X49171755Y-21395790D01*
X49171755Y-21395790D02*
X49266993Y-21443409D01*
X49266993Y-21443409D02*
X49600326Y-21443409D01*
X48409850Y-20967219D02*
X48219374Y-20967219D01*
X48219374Y-20967219D02*
X48124136Y-21014838D01*
X48124136Y-21014838D02*
X48028898Y-21110076D01*
X48028898Y-21110076D02*
X47981279Y-21300552D01*
X47981279Y-21300552D02*
X47981279Y-21633885D01*
X47981279Y-21633885D02*
X48028898Y-21824361D01*
X48028898Y-21824361D02*
X48124136Y-21919600D01*
X48124136Y-21919600D02*
X48219374Y-21967219D01*
X48219374Y-21967219D02*
X48409850Y-21967219D01*
X48409850Y-21967219D02*
X48505088Y-21919600D01*
X48505088Y-21919600D02*
X48600326Y-21824361D01*
X48600326Y-21824361D02*
X48647945Y-21633885D01*
X48647945Y-21633885D02*
X48647945Y-21300552D01*
X48647945Y-21300552D02*
X48600326Y-21110076D01*
X48600326Y-21110076D02*
X48505088Y-21014838D01*
X48505088Y-21014838D02*
X48409850Y-20967219D01*
X47362231Y-20967219D02*
X47171755Y-20967219D01*
X47171755Y-20967219D02*
X47076517Y-21014838D01*
X47076517Y-21014838D02*
X46981279Y-21110076D01*
X46981279Y-21110076D02*
X46933660Y-21300552D01*
X46933660Y-21300552D02*
X46933660Y-21633885D01*
X46933660Y-21633885D02*
X46981279Y-21824361D01*
X46981279Y-21824361D02*
X47076517Y-21919600D01*
X47076517Y-21919600D02*
X47171755Y-21967219D01*
X47171755Y-21967219D02*
X47362231Y-21967219D01*
X47362231Y-21967219D02*
X47457469Y-21919600D01*
X47457469Y-21919600D02*
X47552707Y-21824361D01*
X47552707Y-21824361D02*
X47600326Y-21633885D01*
X47600326Y-21633885D02*
X47600326Y-21300552D01*
X47600326Y-21300552D02*
X47552707Y-21110076D01*
X47552707Y-21110076D02*
X47457469Y-21014838D01*
X47457469Y-21014838D02*
X47362231Y-20967219D01*
X46647945Y-20967219D02*
X46076517Y-20967219D01*
X46362231Y-21967219D02*
X46362231Y-20967219D01*
X47970400Y-6287945D02*
X47922780Y-6145088D01*
X47922780Y-6145088D02*
X47922780Y-5906993D01*
X47922780Y-5906993D02*
X47970400Y-5811755D01*
X47970400Y-5811755D02*
X48018019Y-5764136D01*
X48018019Y-5764136D02*
X48113257Y-5716517D01*
X48113257Y-5716517D02*
X48208495Y-5716517D01*
X48208495Y-5716517D02*
X48303733Y-5764136D01*
X48303733Y-5764136D02*
X48351352Y-5811755D01*
X48351352Y-5811755D02*
X48398971Y-5906993D01*
X48398971Y-5906993D02*
X48446590Y-6097469D01*
X48446590Y-6097469D02*
X48494209Y-6192707D01*
X48494209Y-6192707D02*
X48541828Y-6240326D01*
X48541828Y-6240326D02*
X48637066Y-6287945D01*
X48637066Y-6287945D02*
X48732304Y-6287945D01*
X48732304Y-6287945D02*
X48827542Y-6240326D01*
X48827542Y-6240326D02*
X48875161Y-6192707D01*
X48875161Y-6192707D02*
X48922780Y-6097469D01*
X48922780Y-6097469D02*
X48922780Y-5859374D01*
X48922780Y-5859374D02*
X48875161Y-5716517D01*
X48922780Y-5383183D02*
X47922780Y-5145088D01*
X47922780Y-5145088D02*
X48637066Y-4954612D01*
X48637066Y-4954612D02*
X47922780Y-4764136D01*
X47922780Y-4764136D02*
X48922780Y-4526041D01*
X48018019Y-3573660D02*
X47970400Y-3621279D01*
X47970400Y-3621279D02*
X47922780Y-3764136D01*
X47922780Y-3764136D02*
X47922780Y-3859374D01*
X47922780Y-3859374D02*
X47970400Y-4002231D01*
X47970400Y-4002231D02*
X48065638Y-4097469D01*
X48065638Y-4097469D02*
X48160876Y-4145088D01*
X48160876Y-4145088D02*
X48351352Y-4192707D01*
X48351352Y-4192707D02*
X48494209Y-4192707D01*
X48494209Y-4192707D02*
X48684685Y-4145088D01*
X48684685Y-4145088D02*
X48779923Y-4097469D01*
X48779923Y-4097469D02*
X48875161Y-4002231D01*
X48875161Y-4002231D02*
X48922780Y-3859374D01*
X48922780Y-3859374D02*
X48922780Y-3764136D01*
X48922780Y-3764136D02*
X48875161Y-3621279D01*
X48875161Y-3621279D02*
X48827542Y-3573660D01*
X47922780Y-2668898D02*
X47922780Y-3145088D01*
X47922780Y-3145088D02*
X48922780Y-3145088D01*
X47922780Y-2335564D02*
X48922780Y-2335564D01*
X47922780Y-1764136D02*
X48494209Y-2192707D01*
X48922780Y-1764136D02*
X48351352Y-2335564D01*
X65814838Y-24193482D02*
X65767219Y-24098244D01*
X65767219Y-24098244D02*
X65767219Y-23955387D01*
X65767219Y-23955387D02*
X65814838Y-23812530D01*
X65814838Y-23812530D02*
X65910076Y-23717292D01*
X65910076Y-23717292D02*
X66005314Y-23669673D01*
X66005314Y-23669673D02*
X66195790Y-23622054D01*
X66195790Y-23622054D02*
X66338647Y-23622054D01*
X66338647Y-23622054D02*
X66529123Y-23669673D01*
X66529123Y-23669673D02*
X66624361Y-23717292D01*
X66624361Y-23717292D02*
X66719600Y-23812530D01*
X66719600Y-23812530D02*
X66767219Y-23955387D01*
X66767219Y-23955387D02*
X66767219Y-24050625D01*
X66767219Y-24050625D02*
X66719600Y-24193482D01*
X66719600Y-24193482D02*
X66671980Y-24241101D01*
X66671980Y-24241101D02*
X66338647Y-24241101D01*
X66338647Y-24241101D02*
X66338647Y-24050625D01*
X66767219Y-24669673D02*
X65767219Y-24669673D01*
X65767219Y-24669673D02*
X66767219Y-25241101D01*
X66767219Y-25241101D02*
X65767219Y-25241101D01*
X66767219Y-25717292D02*
X65767219Y-25717292D01*
X65767219Y-25717292D02*
X65767219Y-25955387D01*
X65767219Y-25955387D02*
X65814838Y-26098244D01*
X65814838Y-26098244D02*
X65910076Y-26193482D01*
X65910076Y-26193482D02*
X66005314Y-26241101D01*
X66005314Y-26241101D02*
X66195790Y-26288720D01*
X66195790Y-26288720D02*
X66338647Y-26288720D01*
X66338647Y-26288720D02*
X66529123Y-26241101D01*
X66529123Y-26241101D02*
X66624361Y-26193482D01*
X66624361Y-26193482D02*
X66719600Y-26098244D01*
X66719600Y-26098244D02*
X66767219Y-25955387D01*
X66767219Y-25955387D02*
X66767219Y-25717292D01*
X20792491Y-14124711D02*
X21499598Y-13417604D01*
X21499598Y-13417604D02*
X21230224Y-13148230D01*
X21230224Y-13148230D02*
X21129209Y-13114558D01*
X21129209Y-13114558D02*
X21061865Y-13114558D01*
X21061865Y-13114558D02*
X20960850Y-13148230D01*
X20960850Y-13148230D02*
X20859835Y-13249245D01*
X20859835Y-13249245D02*
X20826163Y-13350260D01*
X20826163Y-13350260D02*
X20826163Y-13417604D01*
X20826163Y-13417604D02*
X20859835Y-13518619D01*
X20859835Y-13518619D02*
X21129209Y-13787993D01*
X20893507Y-12811512D02*
X20489446Y-12407451D01*
X19984369Y-13316589D02*
X20691476Y-12609482D01*
X19176247Y-12508466D02*
X19580308Y-12912528D01*
X19378278Y-12710497D02*
X20085384Y-12003390D01*
X20085384Y-12003390D02*
X20051713Y-12171749D01*
X20051713Y-12171749D02*
X20051713Y-12306436D01*
X20051713Y-12306436D02*
X20085384Y-12407451D01*
X19445621Y-11363627D02*
X19378278Y-11296283D01*
X19378278Y-11296283D02*
X19277262Y-11262612D01*
X19277262Y-11262612D02*
X19209919Y-11262612D01*
X19209919Y-11262612D02*
X19108904Y-11296283D01*
X19108904Y-11296283D02*
X18940545Y-11397299D01*
X18940545Y-11397299D02*
X18772186Y-11565657D01*
X18772186Y-11565657D02*
X18671171Y-11734016D01*
X18671171Y-11734016D02*
X18637499Y-11835031D01*
X18637499Y-11835031D02*
X18637499Y-11902375D01*
X18637499Y-11902375D02*
X18671171Y-12003390D01*
X18671171Y-12003390D02*
X18738514Y-12070734D01*
X18738514Y-12070734D02*
X18839530Y-12104405D01*
X18839530Y-12104405D02*
X18906873Y-12104405D01*
X18906873Y-12104405D02*
X19007888Y-12070734D01*
X19007888Y-12070734D02*
X19176247Y-11969718D01*
X19176247Y-11969718D02*
X19344606Y-11801360D01*
X19344606Y-11801360D02*
X19445621Y-11633001D01*
X19445621Y-11633001D02*
X19479293Y-11531986D01*
X19479293Y-11531986D02*
X19479293Y-11464642D01*
X19479293Y-11464642D02*
X19445621Y-11363627D01*
X18772186Y-10690192D02*
X18704843Y-10622848D01*
X18704843Y-10622848D02*
X18603827Y-10589177D01*
X18603827Y-10589177D02*
X18536484Y-10589177D01*
X18536484Y-10589177D02*
X18435469Y-10622848D01*
X18435469Y-10622848D02*
X18267110Y-10723864D01*
X18267110Y-10723864D02*
X18098751Y-10892222D01*
X18098751Y-10892222D02*
X17997736Y-11060581D01*
X17997736Y-11060581D02*
X17964064Y-11161596D01*
X17964064Y-11161596D02*
X17964064Y-11228940D01*
X17964064Y-11228940D02*
X17997736Y-11329955D01*
X17997736Y-11329955D02*
X18065079Y-11397299D01*
X18065079Y-11397299D02*
X18166095Y-11430970D01*
X18166095Y-11430970D02*
X18233438Y-11430970D01*
X18233438Y-11430970D02*
X18334453Y-11397299D01*
X18334453Y-11397299D02*
X18502812Y-11296283D01*
X18502812Y-11296283D02*
X18671171Y-11127925D01*
X18671171Y-11127925D02*
X18772186Y-10959566D01*
X18772186Y-10959566D02*
X18805858Y-10858551D01*
X18805858Y-10858551D02*
X18805858Y-10791207D01*
X18805858Y-10791207D02*
X18772186Y-10690192D01*
X80242491Y-8524711D02*
X80949598Y-7817604D01*
X80949598Y-7817604D02*
X80680224Y-7548230D01*
X80680224Y-7548230D02*
X80579209Y-7514558D01*
X80579209Y-7514558D02*
X80511865Y-7514558D01*
X80511865Y-7514558D02*
X80410850Y-7548230D01*
X80410850Y-7548230D02*
X80309835Y-7649245D01*
X80309835Y-7649245D02*
X80276163Y-7750260D01*
X80276163Y-7750260D02*
X80276163Y-7817604D01*
X80276163Y-7817604D02*
X80309835Y-7918619D01*
X80309835Y-7918619D02*
X80579209Y-8187993D01*
X79670072Y-7211512D02*
X79535385Y-7144169D01*
X79535385Y-7144169D02*
X79468041Y-7144169D01*
X79468041Y-7144169D02*
X79367026Y-7177841D01*
X79367026Y-7177841D02*
X79266011Y-7278856D01*
X79266011Y-7278856D02*
X79232339Y-7379871D01*
X79232339Y-7379871D02*
X79232339Y-7447215D01*
X79232339Y-7447215D02*
X79266011Y-7548230D01*
X79266011Y-7548230D02*
X79535385Y-7817604D01*
X79535385Y-7817604D02*
X80242491Y-7110497D01*
X80242491Y-7110497D02*
X80006789Y-6874795D01*
X80006789Y-6874795D02*
X79905774Y-6841123D01*
X79905774Y-6841123D02*
X79838430Y-6841123D01*
X79838430Y-6841123D02*
X79737415Y-6874795D01*
X79737415Y-6874795D02*
X79670072Y-6942138D01*
X79670072Y-6942138D02*
X79636400Y-7043154D01*
X79636400Y-7043154D02*
X79636400Y-7110497D01*
X79636400Y-7110497D02*
X79670072Y-7211512D01*
X79670072Y-7211512D02*
X79905774Y-7447215D01*
X79602728Y-6470734D02*
X79164995Y-6033001D01*
X79164995Y-6033001D02*
X79131324Y-6538077D01*
X79131324Y-6538077D02*
X79030308Y-6437062D01*
X79030308Y-6437062D02*
X78929293Y-6403390D01*
X78929293Y-6403390D02*
X78861950Y-6403390D01*
X78861950Y-6403390D02*
X78760934Y-6437062D01*
X78760934Y-6437062D02*
X78592576Y-6605421D01*
X78592576Y-6605421D02*
X78558904Y-6706436D01*
X78558904Y-6706436D02*
X78558904Y-6773780D01*
X78558904Y-6773780D02*
X78592576Y-6874795D01*
X78592576Y-6874795D02*
X78794606Y-7076825D01*
X78794606Y-7076825D02*
X78895621Y-7110497D01*
X78895621Y-7110497D02*
X78962965Y-7110497D01*
X14898898Y-27721980D02*
X14946517Y-27769600D01*
X14946517Y-27769600D02*
X15089374Y-27817219D01*
X15089374Y-27817219D02*
X15184612Y-27817219D01*
X15184612Y-27817219D02*
X15327469Y-27769600D01*
X15327469Y-27769600D02*
X15422707Y-27674361D01*
X15422707Y-27674361D02*
X15470326Y-27579123D01*
X15470326Y-27579123D02*
X15517945Y-27388647D01*
X15517945Y-27388647D02*
X15517945Y-27245790D01*
X15517945Y-27245790D02*
X15470326Y-27055314D01*
X15470326Y-27055314D02*
X15422707Y-26960076D01*
X15422707Y-26960076D02*
X15327469Y-26864838D01*
X15327469Y-26864838D02*
X15184612Y-26817219D01*
X15184612Y-26817219D02*
X15089374Y-26817219D01*
X15089374Y-26817219D02*
X14946517Y-26864838D01*
X14946517Y-26864838D02*
X14898898Y-26912457D01*
X14517945Y-27531504D02*
X14041755Y-27531504D01*
X14613183Y-27817219D02*
X14279850Y-26817219D01*
X14279850Y-26817219D02*
X13946517Y-27817219D01*
X13613183Y-27817219D02*
X13613183Y-26817219D01*
X13613183Y-26817219D02*
X13041755Y-27817219D01*
X13041755Y-27817219D02*
X13041755Y-26817219D01*
X12803660Y-27912457D02*
X12041755Y-27912457D01*
X11327469Y-27817219D02*
X11803659Y-27817219D01*
X11803659Y-27817219D02*
X11803659Y-26817219D01*
X80332491Y-5924711D02*
X81039598Y-5217604D01*
X81039598Y-5217604D02*
X80770224Y-4948230D01*
X80770224Y-4948230D02*
X80669209Y-4914558D01*
X80669209Y-4914558D02*
X80601865Y-4914558D01*
X80601865Y-4914558D02*
X80500850Y-4948230D01*
X80500850Y-4948230D02*
X80399835Y-5049245D01*
X80399835Y-5049245D02*
X80366163Y-5150260D01*
X80366163Y-5150260D02*
X80366163Y-5217604D01*
X80366163Y-5217604D02*
X80399835Y-5318619D01*
X80399835Y-5318619D02*
X80669209Y-5587993D01*
X79760072Y-4611512D02*
X79625385Y-4544169D01*
X79625385Y-4544169D02*
X79558041Y-4544169D01*
X79558041Y-4544169D02*
X79457026Y-4577841D01*
X79457026Y-4577841D02*
X79356011Y-4678856D01*
X79356011Y-4678856D02*
X79322339Y-4779871D01*
X79322339Y-4779871D02*
X79322339Y-4847215D01*
X79322339Y-4847215D02*
X79356011Y-4948230D01*
X79356011Y-4948230D02*
X79625385Y-5217604D01*
X79625385Y-5217604D02*
X80332491Y-4510497D01*
X80332491Y-4510497D02*
X80096789Y-4274795D01*
X80096789Y-4274795D02*
X79995774Y-4241123D01*
X79995774Y-4241123D02*
X79928430Y-4241123D01*
X79928430Y-4241123D02*
X79827415Y-4274795D01*
X79827415Y-4274795D02*
X79760072Y-4342138D01*
X79760072Y-4342138D02*
X79726400Y-4443154D01*
X79726400Y-4443154D02*
X79726400Y-4510497D01*
X79726400Y-4510497D02*
X79760072Y-4611512D01*
X79760072Y-4611512D02*
X79995774Y-4847215D01*
X79086637Y-3736047D02*
X78615232Y-4207451D01*
X79524369Y-3635032D02*
X79187652Y-4308467D01*
X79187652Y-4308467D02*
X78749919Y-3870734D01*
X50542780Y-5668898D02*
X51018971Y-6002231D01*
X50542780Y-6240326D02*
X51542780Y-6240326D01*
X51542780Y-6240326D02*
X51542780Y-5859374D01*
X51542780Y-5859374D02*
X51495161Y-5764136D01*
X51495161Y-5764136D02*
X51447542Y-5716517D01*
X51447542Y-5716517D02*
X51352304Y-5668898D01*
X51352304Y-5668898D02*
X51209447Y-5668898D01*
X51209447Y-5668898D02*
X51114209Y-5716517D01*
X51114209Y-5716517D02*
X51066590Y-5764136D01*
X51066590Y-5764136D02*
X51018971Y-5859374D01*
X51018971Y-5859374D02*
X51018971Y-6240326D01*
X51066590Y-5240326D02*
X51066590Y-4906993D01*
X50542780Y-4764136D02*
X50542780Y-5240326D01*
X50542780Y-5240326D02*
X51542780Y-5240326D01*
X51542780Y-5240326D02*
X51542780Y-4764136D01*
X50590400Y-4383183D02*
X50542780Y-4240326D01*
X50542780Y-4240326D02*
X50542780Y-4002231D01*
X50542780Y-4002231D02*
X50590400Y-3906993D01*
X50590400Y-3906993D02*
X50638019Y-3859374D01*
X50638019Y-3859374D02*
X50733257Y-3811755D01*
X50733257Y-3811755D02*
X50828495Y-3811755D01*
X50828495Y-3811755D02*
X50923733Y-3859374D01*
X50923733Y-3859374D02*
X50971352Y-3906993D01*
X50971352Y-3906993D02*
X51018971Y-4002231D01*
X51018971Y-4002231D02*
X51066590Y-4192707D01*
X51066590Y-4192707D02*
X51114209Y-4287945D01*
X51114209Y-4287945D02*
X51161828Y-4335564D01*
X51161828Y-4335564D02*
X51257066Y-4383183D01*
X51257066Y-4383183D02*
X51352304Y-4383183D01*
X51352304Y-4383183D02*
X51447542Y-4335564D01*
X51447542Y-4335564D02*
X51495161Y-4287945D01*
X51495161Y-4287945D02*
X51542780Y-4192707D01*
X51542780Y-4192707D02*
X51542780Y-3954612D01*
X51542780Y-3954612D02*
X51495161Y-3811755D01*
X51066590Y-3383183D02*
X51066590Y-3049850D01*
X50542780Y-2906993D02*
X50542780Y-3383183D01*
X50542780Y-3383183D02*
X51542780Y-3383183D01*
X51542780Y-3383183D02*
X51542780Y-2906993D01*
X51542780Y-2621278D02*
X51542780Y-2049850D01*
X50542780Y-2335564D02*
X51542780Y-2335564D01*
X27597219Y-8329673D02*
X26597219Y-8329673D01*
X26597219Y-8329673D02*
X26597219Y-8710625D01*
X26597219Y-8710625D02*
X26644838Y-8805863D01*
X26644838Y-8805863D02*
X26692457Y-8853482D01*
X26692457Y-8853482D02*
X26787695Y-8901101D01*
X26787695Y-8901101D02*
X26930552Y-8901101D01*
X26930552Y-8901101D02*
X27025790Y-8853482D01*
X27025790Y-8853482D02*
X27073409Y-8805863D01*
X27073409Y-8805863D02*
X27121028Y-8710625D01*
X27121028Y-8710625D02*
X27121028Y-8329673D01*
X27311504Y-9282054D02*
X27311504Y-9758244D01*
X27597219Y-9186816D02*
X26597219Y-9520149D01*
X26597219Y-9520149D02*
X27597219Y-9853482D01*
X26597219Y-10663006D02*
X26597219Y-10186816D01*
X26597219Y-10186816D02*
X27073409Y-10139197D01*
X27073409Y-10139197D02*
X27025790Y-10186816D01*
X27025790Y-10186816D02*
X26978171Y-10282054D01*
X26978171Y-10282054D02*
X26978171Y-10520149D01*
X26978171Y-10520149D02*
X27025790Y-10615387D01*
X27025790Y-10615387D02*
X27073409Y-10663006D01*
X27073409Y-10663006D02*
X27168647Y-10710625D01*
X27168647Y-10710625D02*
X27406742Y-10710625D01*
X27406742Y-10710625D02*
X27501980Y-10663006D01*
X27501980Y-10663006D02*
X27549600Y-10615387D01*
X27549600Y-10615387D02*
X27597219Y-10520149D01*
X27597219Y-10520149D02*
X27597219Y-10282054D01*
X27597219Y-10282054D02*
X27549600Y-10186816D01*
X27549600Y-10186816D02*
X27501980Y-10139197D01*
X34357219Y-8339673D02*
X33357219Y-8339673D01*
X33357219Y-8339673D02*
X33357219Y-8720625D01*
X33357219Y-8720625D02*
X33404838Y-8815863D01*
X33404838Y-8815863D02*
X33452457Y-8863482D01*
X33452457Y-8863482D02*
X33547695Y-8911101D01*
X33547695Y-8911101D02*
X33690552Y-8911101D01*
X33690552Y-8911101D02*
X33785790Y-8863482D01*
X33785790Y-8863482D02*
X33833409Y-8815863D01*
X33833409Y-8815863D02*
X33881028Y-8720625D01*
X33881028Y-8720625D02*
X33881028Y-8339673D01*
X34071504Y-9292054D02*
X34071504Y-9768244D01*
X34357219Y-9196816D02*
X33357219Y-9530149D01*
X33357219Y-9530149D02*
X34357219Y-9863482D01*
X33690552Y-10625387D02*
X34357219Y-10625387D01*
X33309600Y-10387292D02*
X34023885Y-10149197D01*
X34023885Y-10149197D02*
X34023885Y-10768244D01*
X16027945Y-9012457D02*
X15980326Y-8964838D01*
X15980326Y-8964838D02*
X15885088Y-8917219D01*
X15885088Y-8917219D02*
X15646993Y-8917219D01*
X15646993Y-8917219D02*
X15551755Y-8964838D01*
X15551755Y-8964838D02*
X15504136Y-9012457D01*
X15504136Y-9012457D02*
X15456517Y-9107695D01*
X15456517Y-9107695D02*
X15456517Y-9202933D01*
X15456517Y-9202933D02*
X15504136Y-9345790D01*
X15504136Y-9345790D02*
X16075564Y-9917219D01*
X16075564Y-9917219D02*
X15456517Y-9917219D01*
X14361278Y-8917219D02*
X14123183Y-9917219D01*
X14123183Y-9917219D02*
X13932707Y-9202933D01*
X13932707Y-9202933D02*
X13742231Y-9917219D01*
X13742231Y-9917219D02*
X13504136Y-8917219D01*
X13123183Y-9917219D02*
X13123183Y-8917219D01*
X12075565Y-9917219D02*
X12408898Y-9441028D01*
X12646993Y-9917219D02*
X12646993Y-8917219D01*
X12646993Y-8917219D02*
X12266041Y-8917219D01*
X12266041Y-8917219D02*
X12170803Y-8964838D01*
X12170803Y-8964838D02*
X12123184Y-9012457D01*
X12123184Y-9012457D02*
X12075565Y-9107695D01*
X12075565Y-9107695D02*
X12075565Y-9250552D01*
X12075565Y-9250552D02*
X12123184Y-9345790D01*
X12123184Y-9345790D02*
X12170803Y-9393409D01*
X12170803Y-9393409D02*
X12266041Y-9441028D01*
X12266041Y-9441028D02*
X12646993Y-9441028D01*
X11646993Y-9393409D02*
X11313660Y-9393409D01*
X11170803Y-9917219D02*
X11646993Y-9917219D01*
X11646993Y-9917219D02*
X11646993Y-8917219D01*
X11646993Y-8917219D02*
X11170803Y-8917219D01*
X18675564Y-1817219D02*
X18056517Y-1817219D01*
X18056517Y-1817219D02*
X18389850Y-2198171D01*
X18389850Y-2198171D02*
X18246993Y-2198171D01*
X18246993Y-2198171D02*
X18151755Y-2245790D01*
X18151755Y-2245790D02*
X18104136Y-2293409D01*
X18104136Y-2293409D02*
X18056517Y-2388647D01*
X18056517Y-2388647D02*
X18056517Y-2626742D01*
X18056517Y-2626742D02*
X18104136Y-2721980D01*
X18104136Y-2721980D02*
X18151755Y-2769600D01*
X18151755Y-2769600D02*
X18246993Y-2817219D01*
X18246993Y-2817219D02*
X18532707Y-2817219D01*
X18532707Y-2817219D02*
X18627945Y-2769600D01*
X18627945Y-2769600D02*
X18675564Y-2721980D01*
X16961278Y-1817219D02*
X16723183Y-2817219D01*
X16723183Y-2817219D02*
X16532707Y-2102933D01*
X16532707Y-2102933D02*
X16342231Y-2817219D01*
X16342231Y-2817219D02*
X16104136Y-1817219D01*
X15723183Y-2817219D02*
X15723183Y-1817219D01*
X14675565Y-2817219D02*
X15008898Y-2341028D01*
X15246993Y-2817219D02*
X15246993Y-1817219D01*
X15246993Y-1817219D02*
X14866041Y-1817219D01*
X14866041Y-1817219D02*
X14770803Y-1864838D01*
X14770803Y-1864838D02*
X14723184Y-1912457D01*
X14723184Y-1912457D02*
X14675565Y-2007695D01*
X14675565Y-2007695D02*
X14675565Y-2150552D01*
X14675565Y-2150552D02*
X14723184Y-2245790D01*
X14723184Y-2245790D02*
X14770803Y-2293409D01*
X14770803Y-2293409D02*
X14866041Y-2341028D01*
X14866041Y-2341028D02*
X15246993Y-2341028D01*
X14246993Y-2293409D02*
X13913660Y-2293409D01*
X13770803Y-2817219D02*
X14246993Y-2817219D01*
X14246993Y-2817219D02*
X14246993Y-1817219D01*
X14246993Y-1817219D02*
X13770803Y-1817219D01*
X78167945Y-2799600D02*
X78025088Y-2847219D01*
X78025088Y-2847219D02*
X77786993Y-2847219D01*
X77786993Y-2847219D02*
X77691755Y-2799600D01*
X77691755Y-2799600D02*
X77644136Y-2751980D01*
X77644136Y-2751980D02*
X77596517Y-2656742D01*
X77596517Y-2656742D02*
X77596517Y-2561504D01*
X77596517Y-2561504D02*
X77644136Y-2466266D01*
X77644136Y-2466266D02*
X77691755Y-2418647D01*
X77691755Y-2418647D02*
X77786993Y-2371028D01*
X77786993Y-2371028D02*
X77977469Y-2323409D01*
X77977469Y-2323409D02*
X78072707Y-2275790D01*
X78072707Y-2275790D02*
X78120326Y-2228171D01*
X78120326Y-2228171D02*
X78167945Y-2132933D01*
X78167945Y-2132933D02*
X78167945Y-2037695D01*
X78167945Y-2037695D02*
X78120326Y-1942457D01*
X78120326Y-1942457D02*
X78072707Y-1894838D01*
X78072707Y-1894838D02*
X77977469Y-1847219D01*
X77977469Y-1847219D02*
X77739374Y-1847219D01*
X77739374Y-1847219D02*
X77596517Y-1894838D01*
X77167945Y-2847219D02*
X77167945Y-1847219D01*
X77167945Y-1847219D02*
X76929850Y-1847219D01*
X76929850Y-1847219D02*
X76786993Y-1894838D01*
X76786993Y-1894838D02*
X76691755Y-1990076D01*
X76691755Y-1990076D02*
X76644136Y-2085314D01*
X76644136Y-2085314D02*
X76596517Y-2275790D01*
X76596517Y-2275790D02*
X76596517Y-2418647D01*
X76596517Y-2418647D02*
X76644136Y-2609123D01*
X76644136Y-2609123D02*
X76691755Y-2704361D01*
X76691755Y-2704361D02*
X76786993Y-2799600D01*
X76786993Y-2799600D02*
X76929850Y-2847219D01*
X76929850Y-2847219D02*
X77167945Y-2847219D01*
X76215564Y-2561504D02*
X75739374Y-2561504D01*
X76310802Y-2847219D02*
X75977469Y-1847219D01*
X75977469Y-1847219D02*
X75644136Y-2847219D01*
X54558898Y-35681980D02*
X54606517Y-35729600D01*
X54606517Y-35729600D02*
X54749374Y-35777219D01*
X54749374Y-35777219D02*
X54844612Y-35777219D01*
X54844612Y-35777219D02*
X54987469Y-35729600D01*
X54987469Y-35729600D02*
X55082707Y-35634361D01*
X55082707Y-35634361D02*
X55130326Y-35539123D01*
X55130326Y-35539123D02*
X55177945Y-35348647D01*
X55177945Y-35348647D02*
X55177945Y-35205790D01*
X55177945Y-35205790D02*
X55130326Y-35015314D01*
X55130326Y-35015314D02*
X55082707Y-34920076D01*
X55082707Y-34920076D02*
X54987469Y-34824838D01*
X54987469Y-34824838D02*
X54844612Y-34777219D01*
X54844612Y-34777219D02*
X54749374Y-34777219D01*
X54749374Y-34777219D02*
X54606517Y-34824838D01*
X54606517Y-34824838D02*
X54558898Y-34872457D01*
X54177945Y-35491504D02*
X53701755Y-35491504D01*
X54273183Y-35777219D02*
X53939850Y-34777219D01*
X53939850Y-34777219D02*
X53606517Y-35777219D01*
X53273183Y-35777219D02*
X53273183Y-34777219D01*
X53273183Y-34777219D02*
X52701755Y-35777219D01*
X52701755Y-35777219D02*
X52701755Y-34777219D01*
X51892231Y-35253409D02*
X51749374Y-35301028D01*
X51749374Y-35301028D02*
X51701755Y-35348647D01*
X51701755Y-35348647D02*
X51654136Y-35443885D01*
X51654136Y-35443885D02*
X51654136Y-35586742D01*
X51654136Y-35586742D02*
X51701755Y-35681980D01*
X51701755Y-35681980D02*
X51749374Y-35729600D01*
X51749374Y-35729600D02*
X51844612Y-35777219D01*
X51844612Y-35777219D02*
X52225564Y-35777219D01*
X52225564Y-35777219D02*
X52225564Y-34777219D01*
X52225564Y-34777219D02*
X51892231Y-34777219D01*
X51892231Y-34777219D02*
X51796993Y-34824838D01*
X51796993Y-34824838D02*
X51749374Y-34872457D01*
X51749374Y-34872457D02*
X51701755Y-34967695D01*
X51701755Y-34967695D02*
X51701755Y-35062933D01*
X51701755Y-35062933D02*
X51749374Y-35158171D01*
X51749374Y-35158171D02*
X51796993Y-35205790D01*
X51796993Y-35205790D02*
X51892231Y-35253409D01*
X51892231Y-35253409D02*
X52225564Y-35253409D01*
X51225564Y-34777219D02*
X51225564Y-35586742D01*
X51225564Y-35586742D02*
X51177945Y-35681980D01*
X51177945Y-35681980D02*
X51130326Y-35729600D01*
X51130326Y-35729600D02*
X51035088Y-35777219D01*
X51035088Y-35777219D02*
X50844612Y-35777219D01*
X50844612Y-35777219D02*
X50749374Y-35729600D01*
X50749374Y-35729600D02*
X50701755Y-35681980D01*
X50701755Y-35681980D02*
X50654136Y-35586742D01*
X50654136Y-35586742D02*
X50654136Y-34777219D01*
X50225564Y-35729600D02*
X50082707Y-35777219D01*
X50082707Y-35777219D02*
X49844612Y-35777219D01*
X49844612Y-35777219D02*
X49749374Y-35729600D01*
X49749374Y-35729600D02*
X49701755Y-35681980D01*
X49701755Y-35681980D02*
X49654136Y-35586742D01*
X49654136Y-35586742D02*
X49654136Y-35491504D01*
X49654136Y-35491504D02*
X49701755Y-35396266D01*
X49701755Y-35396266D02*
X49749374Y-35348647D01*
X49749374Y-35348647D02*
X49844612Y-35301028D01*
X49844612Y-35301028D02*
X50035088Y-35253409D01*
X50035088Y-35253409D02*
X50130326Y-35205790D01*
X50130326Y-35205790D02*
X50177945Y-35158171D01*
X50177945Y-35158171D02*
X50225564Y-35062933D01*
X50225564Y-35062933D02*
X50225564Y-34967695D01*
X50225564Y-34967695D02*
X50177945Y-34872457D01*
X50177945Y-34872457D02*
X50130326Y-34824838D01*
X50130326Y-34824838D02*
X50035088Y-34777219D01*
X50035088Y-34777219D02*
X49796993Y-34777219D01*
X49796993Y-34777219D02*
X49654136Y-34824838D01*
X47892231Y-35681980D02*
X47939850Y-35729600D01*
X47939850Y-35729600D02*
X48082707Y-35777219D01*
X48082707Y-35777219D02*
X48177945Y-35777219D01*
X48177945Y-35777219D02*
X48320802Y-35729600D01*
X48320802Y-35729600D02*
X48416040Y-35634361D01*
X48416040Y-35634361D02*
X48463659Y-35539123D01*
X48463659Y-35539123D02*
X48511278Y-35348647D01*
X48511278Y-35348647D02*
X48511278Y-35205790D01*
X48511278Y-35205790D02*
X48463659Y-35015314D01*
X48463659Y-35015314D02*
X48416040Y-34920076D01*
X48416040Y-34920076D02*
X48320802Y-34824838D01*
X48320802Y-34824838D02*
X48177945Y-34777219D01*
X48177945Y-34777219D02*
X48082707Y-34777219D01*
X48082707Y-34777219D02*
X47939850Y-34824838D01*
X47939850Y-34824838D02*
X47892231Y-34872457D01*
X47463659Y-35777219D02*
X47463659Y-34777219D01*
X47035088Y-35777219D02*
X47035088Y-35253409D01*
X47035088Y-35253409D02*
X47082707Y-35158171D01*
X47082707Y-35158171D02*
X47177945Y-35110552D01*
X47177945Y-35110552D02*
X47320802Y-35110552D01*
X47320802Y-35110552D02*
X47416040Y-35158171D01*
X47416040Y-35158171D02*
X47463659Y-35205790D01*
X46177945Y-35729600D02*
X46273183Y-35777219D01*
X46273183Y-35777219D02*
X46463659Y-35777219D01*
X46463659Y-35777219D02*
X46558897Y-35729600D01*
X46558897Y-35729600D02*
X46606516Y-35634361D01*
X46606516Y-35634361D02*
X46606516Y-35253409D01*
X46606516Y-35253409D02*
X46558897Y-35158171D01*
X46558897Y-35158171D02*
X46463659Y-35110552D01*
X46463659Y-35110552D02*
X46273183Y-35110552D01*
X46273183Y-35110552D02*
X46177945Y-35158171D01*
X46177945Y-35158171D02*
X46130326Y-35253409D01*
X46130326Y-35253409D02*
X46130326Y-35348647D01*
X46130326Y-35348647D02*
X46606516Y-35443885D01*
X45273183Y-35729600D02*
X45368421Y-35777219D01*
X45368421Y-35777219D02*
X45558897Y-35777219D01*
X45558897Y-35777219D02*
X45654135Y-35729600D01*
X45654135Y-35729600D02*
X45701754Y-35681980D01*
X45701754Y-35681980D02*
X45749373Y-35586742D01*
X45749373Y-35586742D02*
X45749373Y-35301028D01*
X45749373Y-35301028D02*
X45701754Y-35205790D01*
X45701754Y-35205790D02*
X45654135Y-35158171D01*
X45654135Y-35158171D02*
X45558897Y-35110552D01*
X45558897Y-35110552D02*
X45368421Y-35110552D01*
X45368421Y-35110552D02*
X45273183Y-35158171D01*
X44844611Y-35777219D02*
X44844611Y-34777219D01*
X44749373Y-35396266D02*
X44463659Y-35777219D01*
X44463659Y-35110552D02*
X44844611Y-35491504D01*
X44035087Y-35110552D02*
X44035087Y-36110552D01*
X44035087Y-35158171D02*
X43939849Y-35110552D01*
X43939849Y-35110552D02*
X43749373Y-35110552D01*
X43749373Y-35110552D02*
X43654135Y-35158171D01*
X43654135Y-35158171D02*
X43606516Y-35205790D01*
X43606516Y-35205790D02*
X43558897Y-35301028D01*
X43558897Y-35301028D02*
X43558897Y-35586742D01*
X43558897Y-35586742D02*
X43606516Y-35681980D01*
X43606516Y-35681980D02*
X43654135Y-35729600D01*
X43654135Y-35729600D02*
X43749373Y-35777219D01*
X43749373Y-35777219D02*
X43939849Y-35777219D01*
X43939849Y-35777219D02*
X44035087Y-35729600D01*
X42987468Y-35777219D02*
X43082706Y-35729600D01*
X43082706Y-35729600D02*
X43130325Y-35681980D01*
X43130325Y-35681980D02*
X43177944Y-35586742D01*
X43177944Y-35586742D02*
X43177944Y-35301028D01*
X43177944Y-35301028D02*
X43130325Y-35205790D01*
X43130325Y-35205790D02*
X43082706Y-35158171D01*
X43082706Y-35158171D02*
X42987468Y-35110552D01*
X42987468Y-35110552D02*
X42844611Y-35110552D01*
X42844611Y-35110552D02*
X42749373Y-35158171D01*
X42749373Y-35158171D02*
X42701754Y-35205790D01*
X42701754Y-35205790D02*
X42654135Y-35301028D01*
X42654135Y-35301028D02*
X42654135Y-35586742D01*
X42654135Y-35586742D02*
X42701754Y-35681980D01*
X42701754Y-35681980D02*
X42749373Y-35729600D01*
X42749373Y-35729600D02*
X42844611Y-35777219D01*
X42844611Y-35777219D02*
X42987468Y-35777219D01*
X42225563Y-35777219D02*
X42225563Y-35110552D01*
X42225563Y-34777219D02*
X42273182Y-34824838D01*
X42273182Y-34824838D02*
X42225563Y-34872457D01*
X42225563Y-34872457D02*
X42177944Y-34824838D01*
X42177944Y-34824838D02*
X42225563Y-34777219D01*
X42225563Y-34777219D02*
X42225563Y-34872457D01*
X41749373Y-35110552D02*
X41749373Y-35777219D01*
X41749373Y-35205790D02*
X41701754Y-35158171D01*
X41701754Y-35158171D02*
X41606516Y-35110552D01*
X41606516Y-35110552D02*
X41463659Y-35110552D01*
X41463659Y-35110552D02*
X41368421Y-35158171D01*
X41368421Y-35158171D02*
X41320802Y-35253409D01*
X41320802Y-35253409D02*
X41320802Y-35777219D01*
X40987468Y-35110552D02*
X40606516Y-35110552D01*
X40844611Y-34777219D02*
X40844611Y-35634361D01*
X40844611Y-35634361D02*
X40796992Y-35729600D01*
X40796992Y-35729600D02*
X40701754Y-35777219D01*
X40701754Y-35777219D02*
X40606516Y-35777219D01*
X39606515Y-35110552D02*
X39368420Y-35777219D01*
X39368420Y-35777219D02*
X39130325Y-35110552D01*
X38225563Y-35777219D02*
X38796991Y-35777219D01*
X38511277Y-35777219D02*
X38511277Y-34777219D01*
X38511277Y-34777219D02*
X38606515Y-34920076D01*
X38606515Y-34920076D02*
X38701753Y-35015314D01*
X38701753Y-35015314D02*
X38796991Y-35062933D01*
X37796991Y-35681980D02*
X37749372Y-35729600D01*
X37749372Y-35729600D02*
X37796991Y-35777219D01*
X37796991Y-35777219D02*
X37844610Y-35729600D01*
X37844610Y-35729600D02*
X37796991Y-35681980D01*
X37796991Y-35681980D02*
X37796991Y-35777219D01*
X36796992Y-35777219D02*
X37368420Y-35777219D01*
X37082706Y-35777219D02*
X37082706Y-34777219D01*
X37082706Y-34777219D02*
X37177944Y-34920076D01*
X37177944Y-34920076D02*
X37273182Y-35015314D01*
X37273182Y-35015314D02*
X37368420Y-35062933D01*
X20982491Y-9274711D02*
X21689598Y-8567604D01*
X21689598Y-8567604D02*
X21420224Y-8298230D01*
X21420224Y-8298230D02*
X21319209Y-8264558D01*
X21319209Y-8264558D02*
X21251865Y-8264558D01*
X21251865Y-8264558D02*
X21150850Y-8298230D01*
X21150850Y-8298230D02*
X21049835Y-8399245D01*
X21049835Y-8399245D02*
X21016163Y-8500260D01*
X21016163Y-8500260D02*
X21016163Y-8567604D01*
X21016163Y-8567604D02*
X21049835Y-8668619D01*
X21049835Y-8668619D02*
X21319209Y-8937993D01*
X21083507Y-7961512D02*
X20679446Y-7557451D01*
X20174369Y-8466589D02*
X20881476Y-7759482D01*
X19366247Y-7658466D02*
X19770308Y-8062528D01*
X19568278Y-7860497D02*
X20275384Y-7153390D01*
X20275384Y-7153390D02*
X20241713Y-7321749D01*
X20241713Y-7321749D02*
X20241713Y-7456436D01*
X20241713Y-7456436D02*
X20275384Y-7557451D01*
X19635621Y-6513627D02*
X19568278Y-6446283D01*
X19568278Y-6446283D02*
X19467262Y-6412612D01*
X19467262Y-6412612D02*
X19399919Y-6412612D01*
X19399919Y-6412612D02*
X19298904Y-6446283D01*
X19298904Y-6446283D02*
X19130545Y-6547299D01*
X19130545Y-6547299D02*
X18962186Y-6715657D01*
X18962186Y-6715657D02*
X18861171Y-6884016D01*
X18861171Y-6884016D02*
X18827499Y-6985031D01*
X18827499Y-6985031D02*
X18827499Y-7052375D01*
X18827499Y-7052375D02*
X18861171Y-7153390D01*
X18861171Y-7153390D02*
X18928514Y-7220734D01*
X18928514Y-7220734D02*
X19029530Y-7254405D01*
X19029530Y-7254405D02*
X19096873Y-7254405D01*
X19096873Y-7254405D02*
X19197888Y-7220734D01*
X19197888Y-7220734D02*
X19366247Y-7119718D01*
X19366247Y-7119718D02*
X19534606Y-6951360D01*
X19534606Y-6951360D02*
X19635621Y-6783001D01*
X19635621Y-6783001D02*
X19669293Y-6681986D01*
X19669293Y-6681986D02*
X19669293Y-6614642D01*
X19669293Y-6614642D02*
X19635621Y-6513627D01*
X18962186Y-5840192D02*
X18894843Y-5772848D01*
X18894843Y-5772848D02*
X18793827Y-5739177D01*
X18793827Y-5739177D02*
X18726484Y-5739177D01*
X18726484Y-5739177D02*
X18625469Y-5772848D01*
X18625469Y-5772848D02*
X18457110Y-5873864D01*
X18457110Y-5873864D02*
X18288751Y-6042222D01*
X18288751Y-6042222D02*
X18187736Y-6210581D01*
X18187736Y-6210581D02*
X18154064Y-6311596D01*
X18154064Y-6311596D02*
X18154064Y-6378940D01*
X18154064Y-6378940D02*
X18187736Y-6479955D01*
X18187736Y-6479955D02*
X18255079Y-6547299D01*
X18255079Y-6547299D02*
X18356095Y-6580970D01*
X18356095Y-6580970D02*
X18423438Y-6580970D01*
X18423438Y-6580970D02*
X18524453Y-6547299D01*
X18524453Y-6547299D02*
X18692812Y-6446283D01*
X18692812Y-6446283D02*
X18861171Y-6277925D01*
X18861171Y-6277925D02*
X18962186Y-6109566D01*
X18962186Y-6109566D02*
X18995858Y-6008551D01*
X18995858Y-6008551D02*
X18995858Y-5941207D01*
X18995858Y-5941207D02*
X18962186Y-5840192D01*
X18288751Y-5166757D02*
X18221407Y-5099413D01*
X18221407Y-5099413D02*
X18120392Y-5065742D01*
X18120392Y-5065742D02*
X18053049Y-5065742D01*
X18053049Y-5065742D02*
X17952033Y-5099413D01*
X17952033Y-5099413D02*
X17783675Y-5200429D01*
X17783675Y-5200429D02*
X17615316Y-5368787D01*
X17615316Y-5368787D02*
X17514301Y-5537146D01*
X17514301Y-5537146D02*
X17480629Y-5638161D01*
X17480629Y-5638161D02*
X17480629Y-5705505D01*
X17480629Y-5705505D02*
X17514301Y-5806520D01*
X17514301Y-5806520D02*
X17581644Y-5873864D01*
X17581644Y-5873864D02*
X17682659Y-5907535D01*
X17682659Y-5907535D02*
X17750003Y-5907535D01*
X17750003Y-5907535D02*
X17851018Y-5873864D01*
X17851018Y-5873864D02*
X18019377Y-5772848D01*
X18019377Y-5772848D02*
X18187736Y-5604490D01*
X18187736Y-5604490D02*
X18288751Y-5436131D01*
X18288751Y-5436131D02*
X18322423Y-5335116D01*
X18322423Y-5335116D02*
X18322423Y-5267772D01*
X18322423Y-5267772D02*
X18288751Y-5166757D01*
X64283183Y-2017219D02*
X63711755Y-2017219D01*
X63997469Y-3017219D02*
X63997469Y-2017219D01*
X63473659Y-2017219D02*
X62854612Y-2017219D01*
X62854612Y-2017219D02*
X63187945Y-2398171D01*
X63187945Y-2398171D02*
X63045088Y-2398171D01*
X63045088Y-2398171D02*
X62949850Y-2445790D01*
X62949850Y-2445790D02*
X62902231Y-2493409D01*
X62902231Y-2493409D02*
X62854612Y-2588647D01*
X62854612Y-2588647D02*
X62854612Y-2826742D01*
X62854612Y-2826742D02*
X62902231Y-2921980D01*
X62902231Y-2921980D02*
X62949850Y-2969600D01*
X62949850Y-2969600D02*
X63045088Y-3017219D01*
X63045088Y-3017219D02*
X63330802Y-3017219D01*
X63330802Y-3017219D02*
X63426040Y-2969600D01*
X63426040Y-2969600D02*
X63473659Y-2921980D01*
X63327219Y-24145863D02*
X63327219Y-23669673D01*
X63327219Y-23669673D02*
X63803409Y-23622054D01*
X63803409Y-23622054D02*
X63755790Y-23669673D01*
X63755790Y-23669673D02*
X63708171Y-23764911D01*
X63708171Y-23764911D02*
X63708171Y-24003006D01*
X63708171Y-24003006D02*
X63755790Y-24098244D01*
X63755790Y-24098244D02*
X63803409Y-24145863D01*
X63803409Y-24145863D02*
X63898647Y-24193482D01*
X63898647Y-24193482D02*
X64136742Y-24193482D01*
X64136742Y-24193482D02*
X64231980Y-24145863D01*
X64231980Y-24145863D02*
X64279600Y-24098244D01*
X64279600Y-24098244D02*
X64327219Y-24003006D01*
X64327219Y-24003006D02*
X64327219Y-23764911D01*
X64327219Y-23764911D02*
X64279600Y-23669673D01*
X64279600Y-23669673D02*
X64231980Y-23622054D01*
X63327219Y-24479197D02*
X64327219Y-24812530D01*
X64327219Y-24812530D02*
X63327219Y-25145863D01*
X73597219Y-28056816D02*
X74597219Y-28390149D01*
X74597219Y-28390149D02*
X73597219Y-28723482D01*
X73597219Y-29056816D02*
X74406742Y-29056816D01*
X74406742Y-29056816D02*
X74501980Y-29104435D01*
X74501980Y-29104435D02*
X74549600Y-29152054D01*
X74549600Y-29152054D02*
X74597219Y-29247292D01*
X74597219Y-29247292D02*
X74597219Y-29437768D01*
X74597219Y-29437768D02*
X74549600Y-29533006D01*
X74549600Y-29533006D02*
X74501980Y-29580625D01*
X74501980Y-29580625D02*
X74406742Y-29628244D01*
X74406742Y-29628244D02*
X73597219Y-29628244D01*
X74549600Y-30056816D02*
X74597219Y-30199673D01*
X74597219Y-30199673D02*
X74597219Y-30437768D01*
X74597219Y-30437768D02*
X74549600Y-30533006D01*
X74549600Y-30533006D02*
X74501980Y-30580625D01*
X74501980Y-30580625D02*
X74406742Y-30628244D01*
X74406742Y-30628244D02*
X74311504Y-30628244D01*
X74311504Y-30628244D02*
X74216266Y-30580625D01*
X74216266Y-30580625D02*
X74168647Y-30533006D01*
X74168647Y-30533006D02*
X74121028Y-30437768D01*
X74121028Y-30437768D02*
X74073409Y-30247292D01*
X74073409Y-30247292D02*
X74025790Y-30152054D01*
X74025790Y-30152054D02*
X73978171Y-30104435D01*
X73978171Y-30104435D02*
X73882933Y-30056816D01*
X73882933Y-30056816D02*
X73787695Y-30056816D01*
X73787695Y-30056816D02*
X73692457Y-30104435D01*
X73692457Y-30104435D02*
X73644838Y-30152054D01*
X73644838Y-30152054D02*
X73597219Y-30247292D01*
X73597219Y-30247292D02*
X73597219Y-30485387D01*
X73597219Y-30485387D02*
X73644838Y-30628244D01*
X74073409Y-31390149D02*
X74121028Y-31533006D01*
X74121028Y-31533006D02*
X74168647Y-31580625D01*
X74168647Y-31580625D02*
X74263885Y-31628244D01*
X74263885Y-31628244D02*
X74406742Y-31628244D01*
X74406742Y-31628244D02*
X74501980Y-31580625D01*
X74501980Y-31580625D02*
X74549600Y-31533006D01*
X74549600Y-31533006D02*
X74597219Y-31437768D01*
X74597219Y-31437768D02*
X74597219Y-31056816D01*
X74597219Y-31056816D02*
X73597219Y-31056816D01*
X73597219Y-31056816D02*
X73597219Y-31390149D01*
X73597219Y-31390149D02*
X73644838Y-31485387D01*
X73644838Y-31485387D02*
X73692457Y-31533006D01*
X73692457Y-31533006D02*
X73787695Y-31580625D01*
X73787695Y-31580625D02*
X73882933Y-31580625D01*
X73882933Y-31580625D02*
X73978171Y-31533006D01*
X73978171Y-31533006D02*
X74025790Y-31485387D01*
X74025790Y-31485387D02*
X74073409Y-31390149D01*
X74073409Y-31390149D02*
X74073409Y-31056816D01*
D11*
X21079115Y-29263701D02*
X21079115Y-29977986D01*
X21079115Y-29977986D02*
X21126734Y-30120843D01*
X21126734Y-30120843D02*
X21221972Y-30216082D01*
X21221972Y-30216082D02*
X21364829Y-30263701D01*
X21364829Y-30263701D02*
X21460067Y-30263701D01*
X20079115Y-30263701D02*
X20650543Y-30263701D01*
X20364829Y-30263701D02*
X20364829Y-29263701D01*
X20364829Y-29263701D02*
X20460067Y-29406558D01*
X20460067Y-29406558D02*
X20555305Y-29501796D01*
X20555305Y-29501796D02*
X20650543Y-29549415D01*
X19745781Y-29263701D02*
X19079115Y-29263701D01*
X19079115Y-29263701D02*
X19507686Y-30263701D01*
X72762068Y-22046348D02*
X72256992Y-22551424D01*
X72256992Y-22551424D02*
X72189648Y-22686111D01*
X72189648Y-22686111D02*
X72189648Y-22820798D01*
X72189648Y-22820798D02*
X72256992Y-22955485D01*
X72256992Y-22955485D02*
X72324335Y-23022829D01*
X71347854Y-22046348D02*
X71751915Y-22450409D01*
X71549885Y-22248378D02*
X72256992Y-21541271D01*
X72256992Y-21541271D02*
X72223320Y-21709630D01*
X72223320Y-21709630D02*
X72223320Y-21844317D01*
X72223320Y-21844317D02*
X72256992Y-21945332D01*
X71718244Y-21137210D02*
X71718244Y-21069867D01*
X71718244Y-21069867D02*
X71684572Y-20968852D01*
X71684572Y-20968852D02*
X71516213Y-20800493D01*
X71516213Y-20800493D02*
X71415198Y-20766821D01*
X71415198Y-20766821D02*
X71347854Y-20766821D01*
X71347854Y-20766821D02*
X71246839Y-20800493D01*
X71246839Y-20800493D02*
X71179496Y-20867836D01*
X71179496Y-20867836D02*
X71112152Y-21002523D01*
X71112152Y-21002523D02*
X71112152Y-21810645D01*
X71112152Y-21810645D02*
X70674419Y-21372913D01*
D12*
%TO.C,J17*%
X15834592Y-30058882D02*
X17254592Y-30058882D01*
X15834592Y-35808882D02*
X15834592Y-30058882D01*
X15834592Y-37348882D02*
X15834592Y-37648882D01*
X15834592Y-37648882D02*
X26204592Y-37648882D01*
X17254592Y-30058882D02*
X17254592Y-30558882D01*
X17254592Y-30558882D02*
X24784592Y-30558882D01*
X24784592Y-30058882D02*
X26204592Y-30058882D01*
X24784592Y-30558882D02*
X24784592Y-30058882D01*
X26204592Y-30058882D02*
X26204592Y-35808882D01*
X26204592Y-37648882D02*
X26204592Y-37348882D01*
%TO.C,J12*%
X71878395Y-20604315D02*
X75456355Y-17026355D01*
X73943146Y-19402234D02*
X77832234Y-23291321D01*
X74296700Y-19048680D02*
X73943146Y-19402234D01*
X75710913Y-17634467D02*
X79600001Y-21523554D01*
X76064467Y-17280913D02*
X75710913Y-17634467D01*
X77478680Y-15866700D02*
X81367768Y-19755787D01*
X77832234Y-15513146D02*
X77478680Y-15866700D01*
X77832234Y-23291321D02*
X78185787Y-22937768D01*
X77987797Y-24705535D02*
X81169778Y-27887515D01*
X78185787Y-22937768D02*
X74296700Y-19048680D01*
X79034315Y-13448395D02*
X75456355Y-17026355D01*
X79600001Y-21523554D02*
X79953554Y-21170001D01*
X79953554Y-21170001D02*
X76064467Y-17280913D01*
X80165686Y-28891607D02*
X71878395Y-20604315D01*
X80561666Y-22131666D02*
X77987797Y-24705535D01*
X80561666Y-22131666D02*
X83135534Y-19557797D01*
X81169778Y-27887515D02*
X80165686Y-28891607D01*
X81332412Y-26437946D02*
X81968808Y-26650078D01*
X81367768Y-19755787D02*
X81721321Y-19402234D01*
X81544544Y-27074342D02*
X81332412Y-26437946D01*
X81721321Y-19402234D02*
X77832234Y-15513146D01*
X81968808Y-26650078D02*
X81544544Y-27074342D01*
X83135534Y-19557797D02*
X86317515Y-22739778D01*
X86317515Y-22739778D02*
X87321607Y-21735686D01*
X87321607Y-21735686D02*
X79034315Y-13448395D01*
%TD*%
%LPC*%
D13*
%TO.C,J1*%
X27039592Y-7108882D03*
D14*
X27039592Y-4608882D03*
%TD*%
D15*
%TO.C,JP1*%
X24144592Y-19858882D03*
D16*
X21604592Y-19858882D03*
%TD*%
D13*
%TO.C,J2*%
X33824592Y-7108882D03*
D14*
X33824592Y-4608882D03*
%TD*%
D13*
%TO.C,J10*%
X14319592Y-31733882D03*
D14*
X14319592Y-29233882D03*
%TD*%
D17*
%TO.C,J18*%
X31625000Y-31955000D03*
D18*
X31625000Y-37035000D03*
%TD*%
D15*
%TO.C,JP2*%
X76200000Y-30940000D03*
D16*
X76200000Y-28400000D03*
%TD*%
D15*
%TO.C,J8*%
X9539592Y-16788882D03*
D16*
X9539592Y-14248882D03*
%TD*%
D19*
%TO.C,J14*%
X66300000Y-22320000D03*
D20*
X63800000Y-22320000D03*
X61300000Y-22320000D03*
%TD*%
D15*
%TO.C,J15*%
X40810000Y-7630000D03*
D16*
X43350000Y-7630000D03*
X45890000Y-7630000D03*
X48430000Y-7630000D03*
X50970000Y-7630000D03*
%TD*%
D15*
%TO.C,J6*%
X9534592Y-4358882D03*
D16*
X12074592Y-4358882D03*
X14614592Y-4358882D03*
%TD*%
D13*
%TO.C,J3*%
X56739592Y-6908882D03*
D14*
X56739592Y-4408882D03*
%TD*%
D15*
%TO.C,J5*%
X9549592Y-8019471D03*
D16*
X9549592Y-10559471D03*
%TD*%
D15*
%TO.C,J11*%
X46719592Y-23278882D03*
D16*
X49259592Y-23278882D03*
%TD*%
D19*
%TO.C,J13*%
X66290000Y-15535000D03*
D20*
X63790000Y-15535000D03*
X61290000Y-15535000D03*
%TD*%
D21*
%TO.C,J7*%
X3790000Y-16110000D03*
D22*
X3790000Y-13610000D03*
X3790000Y-11110000D03*
X3790000Y-8610000D03*
%TD*%
D21*
%TO.C,J19*%
X81840000Y-14140000D03*
D22*
X81840000Y-11640000D03*
X81840000Y-9140000D03*
X81840000Y-6640000D03*
%TD*%
D23*
%TO.C,J16*%
X75939592Y-7938882D03*
X70159592Y-7938882D03*
D24*
X77369592Y-8438882D03*
D25*
X77369592Y-4258882D03*
D24*
X68729592Y-8438882D03*
D25*
X68729592Y-4258882D03*
%TD*%
D15*
%TO.C,J9*%
X22379592Y-14958882D03*
D16*
X22379592Y-12418882D03*
X22379592Y-9878882D03*
%TD*%
D13*
%TO.C,J4*%
X63509592Y-6908882D03*
D14*
X63509592Y-4408882D03*
%TD*%
D26*
%TO.C,J17*%
X25519592Y-36578882D03*
X16519592Y-36578882D03*
D27*
X22519592Y-32638882D03*
D28*
X19519592Y-32638882D03*
X22519592Y-35638882D03*
X19519592Y-35638882D03*
%TD*%
D29*
%TO.C,J12*%
X80271752Y-25377286D03*
D30*
X82039519Y-23609519D03*
X83807286Y-21841752D03*
%TD*%
%LPD*%
M02*
