M48
; DRILL file {KiCad 8.0.2-1} date 2024-05-26T18:35:32-0400
; FORMAT={-:-/ absolute / inch / decimal}
; #@! TF.CreationDate,2024-05-26T18:35:32-04:00
; #@! TF.GenerationSoftware,Kicad,Pcbnew,8.0.2-1
; #@! TF.FileFunction,Plated,1,4,PTH
FMAT,2
INCH
; #@! TA.AperFunction,Plated,PTH,ViaDrill
T1C0.0118
; #@! TA.AperFunction,Plated,PTH,ComponentDrill
T2C0.0118
; #@! TA.AperFunction,Plated,PTH,ComponentDrill
T3C0.0157
; #@! TA.AperFunction,Plated,PTH,ComponentDrill
T4C0.0197
; #@! TA.AperFunction,Plated,PTH,ComponentDrill
T5C0.0374
; #@! TA.AperFunction,Plated,PTH,ComponentDrill
T6C0.0394
; #@! TA.AperFunction,Plated,PTH,ComponentDrill
T7C0.0402
; #@! TA.AperFunction,Plated,PTH,ComponentDrill
T8C0.0512
%
G90
G05
T1
X0.2717Y-0.6996
X0.2724Y-0.2602
X0.4752Y-0.6819
X0.4988Y-0.5767
X0.5663Y-0.6342
X0.5722Y-0.6907
X0.5795Y-0.5387
X0.5962Y-0.6244
X0.6272Y-0.7213
X0.6386Y-0.3669
X0.648Y-0.6481
X0.6561Y-0.3935
X0.6563Y-0.4639
X0.7406Y-0.476
X0.7406Y-0.5961
X0.7589Y-0.4236
X0.7638Y-0.2953
X0.7685Y-0.1134
X0.8343Y-0.135
X0.8803Y-1.0195
X0.8848Y-0.9699
X0.9181Y-0.9697
X0.9224Y-1.0195
X0.9303Y-0.3118
X1.0618Y-0.3843
X1.0618Y-1.0154
X1.1854Y-0.4894
X1.2315Y-0.4894
X1.2317Y-0.4334
X1.2417Y-0.5945
X1.2547Y-0.4909
X1.2583Y-0.4324
X1.3551Y-0.885
X1.3821Y-0.5838
X1.3937Y-0.5106
X1.396Y-0.5436
X1.3976Y-0.6122
X1.4051Y-0.7142
X1.4766Y-0.4575
X1.4803Y-0.7385
X1.5075Y-0.7051
X1.5079Y-0.6646
X1.528Y-0.8874
X1.5965Y-0.3669
X1.6032Y-0.8399
X1.6349Y-0.8382
X1.6618Y-0.5142
X1.6961Y-0.637
X1.6965Y-0.7268
X1.7183Y-0.6018
X1.7248Y-0.0941
X1.7752Y-0.9626
X1.8282Y-0.5518
X1.8335Y-0.1508
X1.8591Y-0.0878
X2.0185Y-0.1228
X2.0862Y-0.3732
X2.1839Y-0.448
X2.1914Y-0.552
X2.1929Y-1.0862
X2.2301Y-0.9654
X2.2382Y-1.3969
X2.2717Y-1.298
X2.3236Y-1.3976
X2.3305Y-1.0573
X2.3445Y-0.3917
X2.4161Y-1.398
X2.4941Y-1.3976
X2.5311Y-1.3626
X2.5933Y-1.2236
X2.5984Y-1.0197
X2.6539Y-0.4004
X2.7083Y-1.2244
X2.7287Y-0.5354
X2.7925Y-0.7843
X2.8538Y-0.5194
X2.8567Y-0.7573
X2.8777Y-0.4093
X2.8777Y-0.4762
X2.9016Y-0.5196
X2.9091Y-0.8008
X2.963Y-0.4941
X2.9996Y-0.5535
X3.113Y-0.839
T2
X1.9795Y-1.1252
X1.9795Y-1.1685
X1.9795Y-1.2196
X1.9795Y-1.2669
X2.0268Y-1.1252
X2.0268Y-1.1685
X2.0268Y-1.2196
X2.0268Y-1.2669
T3
X2.7496Y-0.2539
X2.7496Y-0.3091
X2.787Y-0.2539
X2.787Y-0.3091
X2.8244Y-0.2539
X2.8598Y-0.2539
X2.8598Y-0.3091
X2.8953Y-0.2539
X2.8953Y-0.3091
X2.9307Y-0.3091
X2.9681Y-0.2539
X2.9681Y-0.3091
X3.0055Y-0.2539
X3.0055Y-0.3091
T5
X0.1492Y-0.339
X0.1492Y-0.4374
X0.1492Y-0.5358
X0.1492Y-0.6343
X2.413Y-0.6116
X2.4134Y-0.8787
X2.5114Y-0.6116
X2.5118Y-0.8787
X2.6098Y-0.6116
X2.6102Y-0.8787
X3.1603Y-0.9991
X3.222Y-0.2614
X3.222Y-0.3598
X3.222Y-0.4583
X3.222Y-0.5567
X3.2299Y-0.9295
X3.2995Y-0.8599
T6
X0.3754Y-0.1716
X0.3756Y-0.561
X0.3756Y-0.661
X0.376Y-0.3157
X0.376Y-0.4157
X0.4754Y-0.1716
X0.5715Y-1.1492
X0.5715Y-1.2476
X0.5754Y-0.1716
X0.8506Y-0.7818
X0.8811Y-0.3889
X0.8811Y-0.4889
X0.8811Y-0.5889
X0.9506Y-0.7818
X1.0646Y-0.1815
X1.0646Y-0.2799
X1.3317Y-0.1815
X1.3317Y-0.2799
X1.6067Y-0.3004
X1.7067Y-0.3004
X1.8067Y-0.3004
X1.8394Y-0.9165
X1.9067Y-0.3004
X1.9394Y-0.9165
X2.0067Y-0.3004
X2.2338Y-0.1736
X2.2338Y-0.272
X2.5004Y-0.1736
X2.5004Y-0.272
X2.969Y-1.2004
X3.069Y-1.2004
T7
X0.7685Y-1.285
X0.7685Y-1.4031
X0.8866Y-1.285
X0.8866Y-1.4031
T8
X1.2451Y-1.2581
X1.2451Y-1.4581
T4
G00X2.7811Y-0.2055
M15
G01X2.8165Y-0.2055
M16
G05
G00X2.7811Y-0.3575
M15
G01X2.8165Y-0.3575
M16
G05
G00X2.9386Y-0.2055
M15
G01X2.974Y-0.2055
M16
G05
G00X2.9386Y-0.3575
M15
G01X2.974Y-0.3575
M16
G05
M30
